<svg xmlns="http://www.w3.org/2000/svg" width="40" height="20"><path d="M34 0v1h-1v1h-1v1h-1v1h-1v1h-1v1h-2v1h-3v1h-8V7h-3V6h-2V5h-1V4H9V3H8V2H7V1H6V0H3v20h34V0h-3z"/><linearGradient id="A" gradientUnits="userSpaceOnUse" x1="9.769" y1="23.403" x2="30.231" y2="-3.403"><stop offset="0" stop-color="#ff0"/><stop offset=".8" stop-color="#f0f"/></linearGradient><path d="M36 1v18H4V1h2v1h1v1h1v1h1v1h1v1h1v1h2v1h3v1h8V8h3V7h2V6h1V5h1V4h1V3h1V2h1V1h2z" fill="url(#A)"/><path d="M16.6 9.8h1.5v1.5h-1.5zm2.9 1.5v1.5H21v1.4h-1.5v-1.4H18v4.4h1.5v-1.5h2.9v-4.4z" fill="#fff"/><path d="M2 0v1H1v1H0v7h2V8h1.5V0H2z"/><linearGradient id="B" gradientUnits="userSpaceOnUse" x1="-.056" y1="7.194" x2="4.056" y2="1.806"><stop offset="0" stop-color="#ff0"/><stop offset=".8" stop-color="#f0f"/></linearGradient><path d="M2 2H1v6h1V7h1V1H2v1z" fill="url(#B)"/><path d="M38 0v1h1v1h1v7h-2V8h-1.5V0H38z"/><linearGradient id="C" gradientUnits="userSpaceOnUse" x1="40.056" y1="7.194" x2="35.944" y2="1.806"><stop offset="0" stop-color="#ff0"/><stop offset=".8" stop-color="#f0f"/></linearGradient><path d="M38 2h1v6h-1V7h-1V1h1v1z" fill="url(#C)"/></svg>