<svg xmlns="http://www.w3.org/2000/svg" width="195" height="195" fill="none"><path d="M97.032 194.064c53.589 0 97.032-43.443 97.032-97.032S150.621 0 97.032 0 0 43.443 0 97.032s43.443 97.032 97.032 97.032z" fill="#22dff0"/><g fill="#000"><path d="M20.344 101.731v2.185h2.195v10.956h2.185v-13.141h-4.38zm-7.657-17.52h-2.195v6.565h4.38v4.38h-4.38v2.195h6.575v-8.76h-4.38v-2.195h4.38v-2.185h-4.38zm8.76 0h-2.195v2.185h4.38v4.38h-4.38v6.575h6.575v-2.195h-4.38v-2.185h4.38v-8.76h-4.38zm10.945 0h-4.38v13.14h2.195V86.396h2.185v10.955h2.195v-13.14h-2.195zm129.28 0h-2.196v13.14h2.196v-4.38h2.185v-2.195h-2.185v-4.38h2.185v4.38h2.195v-6.565h-4.38z"/><path d="M163.857 97.351h2.195v-4.38h-2.195v4.38zm17.52-10.955v8.76h2.195v-8.76h-2.195zm-2.185 6.575v-6.575h2.185v-2.185h-4.38v13.14h4.38v-2.195h-2.185v-2.185zm-8.76-8.76h-2.195v13.14h2.195V86.396h2.185v10.955h2.195v-13.14h-4.38zM18.427 63.712h2.742v2.742h-2.742v-2.742z"/></g><path d="M15.686 69.185h2.741v2.741h-2.741v-2.741zm10.966 0h2.741v2.741h-2.741v-2.741z" fill="#197fb7"/><path d="M18.427 69.185v5.483h2.742v-8.214h-2.742v2.73zm5.483-2.731v8.214h2.742v-8.214H23.91z" fill="#1caace"/><path d="M18.427 74.668h2.742v2.741h-2.742v-2.741z" fill="#000"/><path d="M21.169 63.712V77.41h2.741V63.712H21.17z" fill="#fff"/><path d="M23.91 74.668h2.742v2.741H23.91v-2.741zm0-10.956h2.742v2.742H23.91v-2.742zm-2.741-2.742h2.741v2.742h-2.74v-2.741zm0 16.439h2.741v2.741h-2.74v-2.74zm5.483-10.955h2.741v2.741h-2.741v-2.741zm-10.966 0h2.741v2.741h-2.741v-2.741zm13.707 2.731h2.741v2.741h-2.741v-2.741zm-16.449 0h2.742v2.741h-2.742v-2.741zm13.708 2.741h2.741v2.742h-2.741v-2.742zm-10.966 0h2.741v2.742h-2.741v-2.742zm151.726-8.214h2.742v2.742h-2.742v-2.742z" fill="#000"/><path d="M164.681 69.185h2.741v2.741h-2.741v-2.741zm10.955 0h2.742v2.741h-2.742v-2.741z" fill="#197fb7"/><path d="M167.412 69.185v5.483h2.742v-8.214h-2.742v2.73zm5.483-2.731v8.214h2.741v-8.214h-2.741z" fill="#1caace"/><path d="M167.412 74.668h2.742v2.741h-2.742v-2.741z" fill="#000"/><path d="M170.154 63.712V77.41h2.741V63.712h-2.741z" fill="#fff"/><g fill="#000"><path d="M172.895 74.668h2.741v2.741h-2.741v-2.741zm0-10.956h2.741v2.742h-2.741v-2.742z"/><path d="M170.154 60.97h2.741v2.742h-2.741v-2.741zm0 16.439h2.741v2.741h-2.741V77.41zm5.482-10.955h2.742v2.741h-2.742v-2.741zm-10.955 0h2.741v2.741h-2.741v-2.741z"/><path d="M178.378 69.185h2.741v2.741h-2.741v-2.741zm-16.438 0h2.741v2.741h-2.741v-2.741zm13.696 2.741h2.742v2.742h-2.742v-2.742zm-10.955 0h2.741v2.742h-2.741v-2.742zm-73.122 90.766h-2.195v4.38h2.195v-4.38zm2.185 2.195v2.185h2.195v-4.38h-2.195v2.195zm-2.184 2.185h2.184v2.185H91.56v-2.185zm-2.196 4.38v4.38h2.195v-6.565h-2.195v2.185zm4.38 2.195v2.185h2.195v-6.565h-2.195v4.38zm6.576-10.955h-2.185v13.109h2.185v-4.339h4.369v-8.76h-4.369v-.01zm2.184 4.38v2.185h-2.184v-4.37h2.184v2.185zm-1.556-25.188v2.607h2.608v13.048h2.607v-15.655h-5.215zm-31.31 0h-2.607v2.607h2.607v13.048h2.608v-13.048h2.607v-2.607h-5.215zm-10.43 6.524v2.607h5.215v-2.607h-5.215zm73.04 0h-2.608v2.607h5.215v-2.607h-2.607zm-20.87-6.524h-2.608v15.645h7.823v-15.645h-5.215zm2.607 5.225v7.822h-2.607v-10.429h2.607v2.607zm7.833-5.225h-2.607v15.645h7.822v-15.645h-5.215zm2.607 5.225v7.822h-2.607v-10.429h2.607v2.607zm-44.347-5.225h-2.607v15.645h7.822v-15.645h-5.215zm2.608 5.225v7.822h-2.608v-10.429h2.608v2.607zm7.822 7.822v-2.607h5.215v-10.43h-7.822v15.645h2.607v-2.608zm0-7.822v-2.607h2.608v5.215h-2.608v-2.608zm60.631-31.856h-10.306V110.1h5.153v-5.153h5.153V79.182H135.68V43.11h-5.153v-5.153h-5.153v-5.153h-10.306v-5.153h-10.307v-5.153H89.302v5.153H78.996v5.153H68.69v5.153h-5.153v5.153h-5.153v36.072H42.925v25.765h5.153v5.153h5.153v5.153H37.772v15.459h5.153v5.153h108.214v-5.153h5.153v-15.459h-5.153z"/></g><g fill="#22dff0"><path d="M68.69 89.488h5.153v5.153h5.153v5.153h5.153v5.153h5.153v5.153h5.153v5.153h5.153V110.1h5.153v-5.153h5.153v-5.153h5.154V94.64h5.153v-5.153h5.153v-5.153h5.153V43.11h-5.153v-5.153h-10.306v-5.153H104.761v-5.153H89.302v5.153H78.996v5.153H68.69v5.153h-5.153V84.335h5.153v5.153zm-5.153 30.918H42.925v10.306H68.69v-5.153h-5.153v-5.153z"/><path d="M145.986 120.406h-15.459v5.153h-5.153v5.153h25.765v-10.306h-5.153zm-51.53 0v-5.153h-5.154V110.1H84.15v-5.153h-5.153v-5.153h-5.153V94.64H68.69v-5.153h-5.153v-5.153H48.078v20.612h5.153v5.153h5.153v5.153h5.153v5.153h5.153v5.153h5.153v5.153H84.15v-5.153h5.153v-5.153h5.153z"/><path d="M130.527 120.406v-5.153h5.153V110.1h5.153v-5.153h5.153V84.335h-15.459v5.153h-5.153v5.153h-5.153v5.153h-5.153v5.153h-5.154v5.153h-5.153v5.153h-5.153v5.153h-5.153v5.153h-5.153v5.153h30.919v-5.153h5.153v-5.153h5.153z"/></g><g fill="#fff"><path d="M94.455 53.416V27.652h-5.153v5.153H78.996v5.153h10.306v51.53h5.153V63.723h5.153v-5.154h-5.153v-5.153zm-5.153 41.225h5.153v5.153h-5.153V94.64zM68.69 37.957v5.153h10.306v-5.153H68.69zm-5.153 10.306V58.57h5.153V43.11h-5.153v5.153zm-20.612 72.143h5.153v5.153h-5.153v-5.153zm103.061 0h5.153v5.153h-5.153v-5.153zM63.537 89.488v-5.153H48.078v5.153h5.153v5.153h5.153v-5.153h5.153z"/><path d="M58.384 94.64h5.153v5.154h-5.153V94.64zm5.153-5.152h5.153v5.153h-5.153v-5.153zm0 10.306h5.153v5.153h-5.153v-5.153zm5.153 5.153h5.153v5.153H68.69v-5.153zm77.296-20.612h-15.459v5.153h5.153v5.153h5.153v-5.153h5.153v-5.153z"/><path d="M130.527 94.64h5.153v5.154h-5.153V94.64zm-5.153-5.152h5.153v5.153h-5.153v-5.153zm0 10.306h5.153v5.153h-5.153v-5.153zm-5.153 5.153h5.153v5.153h-5.153v-5.153z"/></g><path d="M104.761 104.947h5.153v-5.153h5.154V94.64h5.153V74.029h-5.153v5.153h-5.154v5.153h-5.153v5.153h-5.153v5.153h-5.153v20.612h5.153V110.1h5.153v-5.153zm-46.377 15.459h5.153v5.153h-5.153v-5.153zm5.153 5.153h5.153v5.153h-5.153v-5.153zm66.99-5.153h5.153v5.153h-5.153v-5.153zm-5.153 5.153h5.153v5.153h-5.153v-5.153zm-46.378-10.306H68.69v5.153h5.153v5.153h5.153v5.153h5.153v-10.306h-5.153v-5.153zm46.378 0h-10.306v5.153h-5.154v5.153h-5.153v5.153h10.307v-5.153h5.153v-5.153h5.153v-5.153z" fill="#135b97"/><g fill="#197fb7"><path d="M104.761 74.029h5.153v5.153h5.154v-5.153h5.153v15.459h5.153V58.569h-10.306v5.153H99.608v5.154h5.153v5.153z"/><path d="M99.608 89.488h5.153v-5.153h5.153v-5.153h-5.153v-5.153h-5.153v-5.153h-5.153V94.64h5.153v-5.153zM84.15 84.335h-5.153v-5.153h-5.153v-5.153H68.69v15.459h5.153v5.153h5.153v5.153h5.153v5.153h5.153V89.488H84.15v-5.153zm-41.224 41.224h5.153v5.153h-5.153v-5.153zm103.061 0h5.153v5.153h-5.153v-5.153zM68.69 115.253h5.153V110.1H68.69v-5.153H58.384v5.153h5.153v5.153h5.153zm0 5.153h5.153v5.153H68.69v-5.153z"/><path d="M78.996 110.1h5.153v5.153h-5.153V110.1zm-5.153 15.459h5.153v5.153h-5.153v-5.153zM84.15 115.253h5.152v5.153H84.15v-5.153zm41.224-10.306v5.153h-5.153v5.153h10.306V110.1h5.153v-5.153h-10.306zm-5.153 15.459h5.153v5.153h-5.153v-5.153zM109.914 110.1h5.154v5.153h-5.154V110.1z"/><path d="M115.068 125.559h5.153v5.153h-5.153v-5.153zm-10.307-10.306h5.153v5.153h-5.153v-5.153zm-5.153 5.153h5.153v5.153h-5.153v-5.153zm-5.153 5.153h5.153v5.153h-5.153v-5.153z"/></g><g fill="#1caace"><path d="M125.374 68.876v15.459h5.153V58.57h-5.153v10.306zm-15.46-5.153h5.154v-5.154h10.306V43.11h-10.306v-5.153h-10.307v-5.153H94.455V58.57h5.153v5.153h10.306zm-5.153 10.306h5.153v5.153h-5.153v-5.153z"/><path d="M99.608 68.876h5.153v5.153h-5.153v-5.153zm-5.153-5.153h5.153v5.153h-5.153v-5.153zM84.15 84.335v5.153h5.153V74.029H84.15v-5.153h-5.153v5.153h-5.153v5.153h5.153v5.153h5.153zm-5.154-15.459v-5.153h-5.153V58.57H68.69v15.459h5.153v-5.153h5.153zM63.537 79.182v5.153h5.153V74.029h-5.153v5.153zm-15.46 41.224h5.154v5.153h-5.153v-5.153zm5.154 5.153h5.153v5.153h-5.153v-5.153zm87.602-5.153h5.153v5.153h-5.153v-5.153zm-5.153 5.153h5.153v5.153h-5.153v-5.153zm-72.143-20.612v-5.153h-5.153V94.64h-5.153v15.46h5.153v-5.153h5.153zm-5.153 5.153h5.153v5.153h-5.153V110.1zm5.153 5.153h5.153v5.153h-5.153v-5.153zm5.153-15.46h5.153v5.154H68.69v-5.153zm5.153 5.154h5.153v5.153h-5.153v-5.153zM84.15 110.1h5.153v5.153H84.15V110.1zm5.152 5.153h5.153v5.153h-5.153v-5.153zm41.225-5.153h5.153v5.153h-5.153V110.1zm-5.153 5.153h5.153v5.153h-5.153v-5.153zm-5.153-15.46h5.153v5.154h-5.153v-5.153zm-5.153 5.154h5.153v5.153h-5.153v-5.153zm-10.307 5.153h5.153v5.153h-5.153V110.1z"/><path d="M89.302 125.559h5.153v5.153h-5.153v-5.153zm10.306-10.306h5.153v5.153h-5.153v-5.153z"/><path d="M94.455 120.406h5.153v5.153h-5.153v-5.153zm46.378-15.459V94.641h-5.153v5.153h-5.153v5.153h5.153v5.153h5.153v-5.153z"/></g><path d="M172.37 102v6.575h-2.175V102H168v8.77h4.37v4.37h2.205V102h-2.205z" fill="#000"/></svg>