<svg xmlns="http://www.w3.org/2000/svg" width="195" height="195" fill="none"><path d="M97.032 194.064c53.589 0 97.032-43.443 97.032-97.032S150.621 0 97.032 0 0 43.443 0 97.032s43.443 97.032 97.032 97.032z" fill="#c689fa"/><g fill="#000"><path d="M20.344 106.884v2.196h2.185v10.945h2.195v-13.141h-4.38zm-7.668-17.52h-2.184v6.576h4.38v4.381h-4.38v2.184h6.565v-8.761h-4.38V91.56h4.38v-2.195h-4.38zm8.76 0h-2.184v2.195h4.38v4.38h-4.38v6.565h6.565v-2.184h-4.38v-2.196h4.38v-8.76h-4.38zm10.956 0h-4.38v13.14h2.185V91.559h2.195v10.945h2.185v-13.14h-2.185zm129.269 0h-2.185v13.14h2.185v-4.38h2.196V95.94h-2.196v-4.38h2.196v4.38h2.184v-6.576h-4.38z"/><path d="M163.857 102.504h2.184v-4.38h-2.184v4.38zm17.52-10.945v8.761h2.185v-8.761h-2.185zm-2.195 6.565V91.56h2.195v-2.195h-4.38v13.14h4.38v-2.185h-2.195v-2.195zm-8.76-8.76h-2.185v13.14h2.185V91.559h2.195v10.945h2.185v-13.14h-4.38zM18.427 68.865h2.742v2.742h-2.742v-2.742z"/></g><path d="M15.686 74.348h2.741v2.742h-2.741v-2.742zm10.955 0h2.742v2.742H26.64v-2.742z" fill="#8a32ec"/><path d="M18.427 74.348v5.482h2.742v-8.223h-2.742v2.741zm5.473-2.741v8.223h2.741v-8.223H23.9z" fill="#a04af3"/><path d="M18.427 79.83h2.742v2.742h-2.742v-2.741z" fill="#000"/><path d="M21.169 68.865V82.562h2.73V68.865h-2.73z" fill="#fff"/><path d="M23.9 79.83h2.741v2.742H23.9v-2.741zm0-10.965h2.741v2.742H23.9v-2.742zm-2.731-2.741h2.741v2.741h-2.74v-2.741zm-.01 16.438h2.74v2.742h-2.74v-2.742zm5.482-10.955h2.742v2.741H26.64v-2.741zm-10.955 0h2.741v2.741h-2.741v-2.741zm13.697 2.741h2.741v2.742h-2.741v-2.742zm-16.439 0h2.742v2.742h-2.742v-2.742zm13.697 2.742h2.742v2.74H26.64v-2.74zm-10.955 0h2.741v2.74h-2.741v-2.74zm151.726-8.225h2.742v2.742h-2.742v-2.742z" fill="#000"/><path d="M164.671 74.348h2.741v2.742h-2.741v-2.742zm10.965 0h2.742v2.742h-2.742v-2.742z" fill="#8a32ec"/><path d="M167.412 74.348v5.482h2.742v-8.223h-2.742v2.741zm5.483-2.741v8.223h2.741v-8.223h-2.741z" fill="#a04af3"/><path d="M167.412 79.83h2.742v2.742h-2.742v-2.741z" fill="#000"/><path d="M170.154 68.865V82.562h2.741V68.865h-2.741z" fill="#fff"/><g fill="#000"><path d="M172.895 79.83h2.741v2.742h-2.741v-2.741zm0-10.965h2.741v2.742h-2.741v-2.742zm-2.741-2.741h2.741v2.741h-2.741v-2.741zm0 16.438h2.741v2.742h-2.741v-2.742zm5.482-10.955h2.742v2.741h-2.742v-2.741zm-10.965 0h2.741v2.741h-2.741v-2.741zm13.697 2.741h2.741v2.742h-2.741v-2.742zm-16.439 0h2.742v2.742h-2.742v-2.742zm-83.52 103.133h2.195v-4.38h-2.195v4.38zm6.575-13.14h-2.185v13.109h2.185v-4.369h2.185v4.369h2.185v-13.109h-4.37zm2.185 4.38v2.185h-2.185v-4.37h2.185v2.185zm6.575-4.38H91.55v13.14h2.195v-4.38h2.185v-2.195h-2.185v-4.38h2.185v4.38h2.195v-6.565h-4.38z"/><path d="M95.93 177.481h2.194v-4.38H95.93v4.38zm4.379-10.955v10.955h2.195v-13.14h-2.195v2.185zm6.575-2.185h-2.195v2.185h2.195v10.955h2.185v-10.955h2.196v-2.185h-4.381zm10.946 0v6.565h2.195v-6.565h-2.195zm-2.185 2.185v-2.185h-2.196v6.565h2.196v-4.38zm0 6.575v4.38h2.185v-6.575h-2.185v2.195zm35.494-57.848h-10.306V110.1h5.153v-5.153h5.153V79.182H135.68V43.11h-5.153v-5.153h-5.153v-5.153h-10.306v-5.153h-10.307v-5.153H89.302v5.153H78.996v5.153H68.69v5.153h-5.153v5.153h-5.153v36.072H42.925v25.765h5.153v5.153h5.153v5.153H37.772v15.459h5.153v5.153h108.214v-5.153h5.153v-15.459h-5.153z"/></g><g fill="#7611db"><path d="M68.69 89.488h5.153v5.153h5.153v5.153h5.153v5.153h5.153v5.153h5.153v5.153h5.153V110.1h5.153v-5.153h5.153v-5.153h5.154V94.64h5.153v-5.153h5.153v-5.153h5.153V43.11h-5.153v-5.153h-10.306v-5.153H104.761v-5.153H89.302v5.153H78.996v5.153H68.69v5.153h-5.153V84.335h5.153v5.153zm-5.153 30.918H42.925v10.306H68.69v-5.153h-5.153v-5.153z"/><path d="M145.986 120.406h-15.459v5.153h-5.153v5.153h25.765v-10.306h-5.153zm-51.53 0v-5.153h-5.154V110.1H84.15v-5.153h-5.153v-5.153h-5.153V94.64H68.69v-5.153h-5.153v-5.153H48.078v20.612h5.153v5.153h5.153v5.153h5.153v5.153h5.153v5.153h5.153v5.153H84.15v-5.153h5.153v-5.153h5.153z"/><path d="M130.527 120.406v-5.153h5.153V110.1h5.153v-5.153h5.153V84.335h-15.459v5.153h-5.153v5.153h-5.153v5.153h-5.153v5.153h-5.153v5.153h-5.154v5.153h-5.153v5.153h-5.153v5.153h-5.153v5.153h30.919v-5.153h5.153v-5.153h5.153z"/></g><g fill="#fff"><path d="M89.302 27.651h5.153v5.153h-5.153v-5.153zM68.69 37.957v5.153h10.306v-5.153H68.69zm10.306-5.153v5.153h10.306v-5.153H78.996zM63.537 43.11h5.153v5.154h-5.153V43.11zm-20.612 77.296h5.153v5.153h-5.153v-5.153zm103.061 0h5.153v5.153h-5.153v-5.153zM63.537 89.488v-5.153H48.078v5.153h5.153v5.153h5.153v-5.153h5.153z"/><path d="M58.384 94.64h5.153v5.154h-5.153V94.64zm5.153-5.152h5.153v5.153h-5.153v-5.153zm0 10.306h5.153v5.153h-5.153v-5.153zm5.153 5.153h5.153v5.153H68.69v-5.153zm77.296-20.612h-15.459v5.153h5.153v5.153h5.153v-5.153h5.153v-5.153z"/><path d="M130.527 94.64h5.153v5.154h-5.153V94.64zm-5.153-5.152h5.153v5.153h-5.153v-5.153zm0 10.306h5.153v5.153h-5.153v-5.153zm-5.153 5.153h5.153v5.153h-5.153v-5.153z"/></g><path d="M104.761 104.947h5.153v-5.153h5.154V94.64h5.153V84.335h-5.153v-5.153h-5.154v-5.153H94.455v41.224h5.153V110.1h5.153v-5.153zm-46.377 15.459h5.153v5.153h-5.153v-5.153zm5.153 5.153h5.153v5.153h-5.153v-5.153zm66.99-5.153h5.153v5.153h-5.153v-5.153zm-5.153 5.153h5.153v5.153h-5.153v-5.153zm-46.378-10.306H68.69v5.153h5.153v5.153h5.153v5.153h5.153v-10.306h-5.153v-5.153zm46.378 0h-10.306v5.153h-5.154v5.153h-5.153v5.153h10.307v-5.153h5.153v-5.153h5.153v-5.153z" fill="#c689fa"/><g fill="#a04af3"><path d="M104.761 74.029h5.154v5.153h5.153v5.153h5.153v5.153h5.153v-5.153h5.153V68.876h-5.153v-5.153h-5.153v-5.154h-5.153v-5.153H104.761v-5.153H94.455V74.03h10.306z"/><path d="M94.455 110.1V74.029H84.15v5.153h-5.153v5.153h-5.153V94.64h5.153v5.153h5.153v5.153h5.153v5.153h5.153zm-51.53 15.459h5.153v5.153h-5.153v-5.153zm103.061 0h5.153v5.153h-5.153v-5.153zM68.69 115.253h5.153V110.1H68.69v-5.153H58.384v5.153h5.153v5.153h5.153zm0 5.153h5.153v5.153H68.69v-5.153zM78.996 110.1h5.153v5.153h-5.153V110.1zm-5.153 15.459h5.153v5.153h-5.153v-5.153zm10.306-10.306h5.153v5.153H84.15v-5.153zm41.225-10.306v5.153h-5.153v5.153h10.306V110.1h5.153v-5.153h-10.306zm-5.153 15.459h5.153v5.153h-5.153v-5.153z"/><path d="M109.915 110.1h5.153v5.153h-5.153V110.1zm5.153 15.459h5.153v5.153h-5.153v-5.153zm-10.307-10.306h5.154v5.153h-5.154v-5.153zm-5.153 5.153h5.153v5.153h-5.153v-5.153zm-5.153 5.153h5.153v5.153h-5.153v-5.153z"/></g><g fill="#8a32ec"><path d="M115.068 58.57h5.153v5.153h5.153v5.153h5.153V48.264h-5.153V43.11h-10.306v-5.153h-10.307v-5.153H94.455v15.46h10.306v5.152h10.307v5.154z"/><path d="M89.302 53.416H78.996v5.154h-5.153v5.153H68.69v5.153h-5.153v15.459h5.153v5.153h5.153v-5.153h5.153v-5.153h5.153v-5.153h10.306V48.263h-5.153v5.154zm-41.224 66.99h5.153v5.153h-5.153v-5.153z"/><path d="M53.231 125.559h5.153v5.153h-5.153v-5.153zm87.602-5.153h5.153v5.153h-5.153v-5.153zm-5.153 5.153h5.153v5.153h-5.153v-5.153zm-72.143-20.612v-5.153h-5.153V94.64h-5.153v15.46h5.153v-5.153h5.153zm-5.153 5.153h5.153v5.153h-5.153V110.1zm5.153 5.153h5.153v5.153h-5.153v-5.153zm5.153-15.46h5.153v5.154H68.69v-5.153zm5.153 5.154h5.153v5.153h-5.153v-5.153zM84.15 110.1h5.153v5.153H84.15V110.1zm5.152 5.153h5.153v5.153h-5.153v-5.153zm41.225-5.153h5.153v5.153h-5.153V110.1zm-5.153 5.153h5.153v5.153h-5.153v-5.153zm-5.153-15.46h5.153v5.154h-5.153v-5.153zm-5.153 5.154h5.153v5.153h-5.153v-5.153zm-10.307 5.153h5.153v5.153h-5.153V110.1z"/><path d="M89.302 125.559h5.153v5.153h-5.153v-5.153zm10.306-10.306h5.153v5.153h-5.153v-5.153z"/><path d="M94.455 120.406h5.153v5.153h-5.153v-5.153zm46.378-15.459V94.641h-5.153v5.153h-5.153v5.153h5.153v5.153h5.153v-5.153z"/></g><path d="M102.357 147.215v10.44h2.608V142H99.74v2.607h2.617v2.608zM68.44 142h-2.607v2.607h2.607v13.048h2.608v-13.048h2.607V142H68.44zM58 148.524v2.607h5.225v-2.607H58zm74.5-.024h-2.607v2.607h5.225V148.5H132.5zm-19.785 9.155h2.607V142H107.5v15.655h5.215zm-2.608-5.225v-7.823h2.608v10.43h-2.608v-2.607zm-28.62 5.225h2.608V142h-7.833v15.655h5.226zm-2.617-5.225v-7.823h2.607v10.43H78.87v-2.607zM89.31 142h-2.608v15.655h2.608v-5.215h5.215V142H89.31zm2.607 5.215v2.607H89.31v-5.215h2.607v2.608zm31.298 10.44h2.607V142H118v15.655h5.215zm-2.608-5.225v-7.823h2.608v10.43h-2.608v-2.607zm55.029-75.34h2.742v2.741h-2.742V77.09zm-10.965 0h2.741v2.741h-2.741V77.09zm-88.447 87.25h-2.195v13.14h2.195v-4.38h2.185v-2.195h-2.185v-4.38h2.185v4.38h2.195v-6.564h-4.38zM168 107v2.195h4.37v3.277H168v2.196h4.37v3.277H168v2.195h6.575V107H168z" fill="#000"/></svg>