<svg width="60" height="26" viewBox="0 0 60 26" fill="none" xmlns="http://www.w3.org/2000/svg">
<path d="M58 2V0H0V2H2V4H0V6H2V8H0V10H2V12H0V14H2V16H0V18H2V20H0V22H2V24H0V26H58V24H60V22H58V20H60V18H58V16H60V14H58V12H60V10H58V8H60V6H58V4H60V2H58Z" fill="#141414"/>
<path d="M6 3H5V4H6V3ZM55 4V22H56V4H55ZM55 4V3H54V4H55ZM54 23V24H6V23H12V3H6V2H54V3H48V23H54ZM47 23V3H13V23H47ZM5 4H4V22H5V4ZM5 22V23H6V22H5ZM54 23H55V22H54V23ZM6 12.5V15.5H11V12.5H6ZM10 14.5H7V13.5H10V14.5ZM6 16.5V19.5H11V16.5H6ZM10 18.5H7V17.5H10V18.5ZM11 20.5V21.5H6V20.5H11ZM6 8.5V11.5H11V8.5H6ZM10 10.5H7V9.5H10V10.5ZM6 4.5V7.5H11V4.5H6ZM10 6.5H7V5.5H10V6.5ZM49 12.5V15.5H54V12.5H49ZM53 14.5H50V13.5H53V14.5ZM49 16.5V19.5H54V16.5H49ZM53 18.5H50V17.5H53V18.5ZM54 20.5V21.5H49V20.5H54ZM49 8.5V11.5H54V8.5H49ZM53 10.5H50V9.5H53V10.5ZM49 4.5V7.5H54V4.5H49ZM53 6.5H50V5.5H53V6.5ZM17 6H18V9H17V6ZM44 10V8H45V10H44ZM15 21H18V16H15V21ZM16 17H17V20H16V17ZM42 21H43V19H45V16H42V21ZM43 17H44V18H43V17ZM16 9H17V10H15V5H17V6H16V9ZM44 7V8H43V10H42V5H45V7H44V6H43V7H44Z" fill="url(#paint0_linear)"/>
<path d="M34.3625 9.88751V8.63751H33.7375V8.01251H33.1125V7.38751H31.8625V6.76251H28.125V7.38751H26.875V8.01251H26.25V8.63751H25.625V9.88751H25V13.625H25.625V14.875H26.25V16.125H25.625V18H26.25V18.625H27.5V19.25H32.4875V18.625H33.7375V18H34.3625V16.125H33.7375V14.875H34.3625V13.625H34.9875V9.88751H34.3625Z" fill="#5A00AA"/>
<path d="M34.3625 9.88751V8.63751H33.7375V8.01251H33.1125V7.38751H31.8625V6.76251H28.125V7.38751H26.875V8.01251H26.25V8.63751H25.625V9.88751H25V13.625H25.625V14.875H26.25V15.5H26.875V16.125H28.125V16.75H31.8625V16.125H33.1125V15.5H33.7375V14.875H34.3625V13.625H34.9875V9.88751H34.3625Z" fill="#BF5FFD"/>
<path d="M26.8875 16.125H26.2625V18H27.5125V18.625H31.875V18H32.5V16.75H28.1375V16.125H26.8875Z" fill="#7819D7"/>
<path d="M33.1125 14.25H32.4875V14.875H31.2375V15.5H28.125V16.125H31.8625V15.5H33.1125V14.875H33.7375V13.625H33.1125V14.25Z" fill="#7819D7"/>
<path d="M33.7375 9.88751V13.625H34.3625V9.88751H33.7375Z" fill="#7819D7"/>
<path d="M26.2625 14.25H26.8875V14.875H26.2625V14.25ZM33.1125 8.63751V11.1375H32.4875V13.0125H31.8625V13.6375H31.2375V14.2625H29.3625V14.8875H26.8625V15.5125H31.225V14.8875H32.475V14.2625H33.1V13.6375H33.725V8.65001H33.1125V8.63751Z" fill="#9923FF"/>
<path d="M32.5 8.01251H33.125V8.63751H32.5V8.01251Z" fill="#9923FF"/>
<path d="M28.125 8.01251V7.38751H26.875V8.01251H28.125Z" fill="#EFC1FF"/>
<path d="M26.2625 8.01251H26.8875V8.63751H26.2625V8.01251ZM33.1125 8.01251H33.7375V8.63751H33.1125V8.01251ZM26.2625 14.875H26.8875V15.5H26.2625V14.875ZM33.1125 14.875H33.7375V15.5H33.1125V14.875Z" fill="#EFC1FF"/>
<path d="M26.2625 9.26251V8.63751H25.6375V9.88751H26.2625V9.26251ZM26.2625 13.625H25.6375V14.875H26.2625V13.625ZM33.7375 9.88751H34.3625V8.63751H33.7375V9.88751ZM33.7375 14.25V14.875H34.3625V13.625H33.7375V14.25ZM32.5 8.01251H33.125V7.38751H31.875V8.01251H32.5ZM27.5 15.5H26.875V16.125H28.125V15.5H27.5Z" fill="#EFC1FF"/>
<path d="M31.875 15.5V16.125H33.125V15.5H31.875ZM29.375 7.38751H31.875V6.76251H28.1375V7.38751H29.375ZM30.625 16.125H28.125V16.75H31.8625V16.125H30.625ZM25.6375 12.375V9.87501H25.0125V13.6125H25.6375V12.375ZM34.3625 9.88751V13.625H34.9875V9.88751H34.3625ZM28.125 9.88751H28.75V10.5125H28.125V9.88751Z" fill="#EFC1FF"/>
<path d="M31.25 9.88751H31.875V10.5125H31.25V9.88751ZM28.75 9.88751H29.375V10.5125H28.75V9.88751Z" fill="#DE81FF"/>
<path d="M28.125 10.5H28.75V11.125H28.125V10.5ZM28.125 9.26251H28.75V9.88751H28.125V9.26251Z" fill="#DE81FF"/>
<path d="M27.5 9.88751H28.125V10.5125H27.5V9.88751ZM30 8.01251H30.625V8.63751H30V8.01251ZM26.2625 11.75H26.8875V12.375H26.2625V11.75ZM30.625 12.375H31.25V13H30.625V12.375ZM28.125 13.625H28.75V14.25H28.125V13.625Z" fill="#DE81FF"/>
<defs>
<linearGradient id="paint0_linear" x1="2.70076" y1="21.6945" x2="57.9648" y2="4.09352" gradientUnits="userSpaceOnUse">
<stop stop-color="#BDBDBD"/>
<stop offset="0.374" stop-color="#EBEBEB"/>
<stop offset="0.554" stop-color="#E8E8E8"/>
<stop offset="0.667" stop-color="#DFDFDF"/>
<stop offset="0.762" stop-color="#D1D1D1"/>
<stop offset="0.847" stop-color="#BCBCBC"/>
<stop offset="0.925" stop-color="#A1A1A1"/>
<stop offset="0.997" stop-color="#818181"/>
<stop offset="1" stop-color="#808080"/>
</linearGradient>
</defs>
</svg>
