<svg xmlns="http://www.w3.org/2000/svg" viewBox="0 0 44 20"><path d="M36 0v1h-1v1h-1v1h-1v1h-1v1h-1v1h-2v1H15V6h-2V5h-1V4h-1V3h-1V2H9V1H8V0H5v20h34V0h-3z"/><g fill="#0f0"><path d="M7 0h1v1H7zm2 2h1v1H9z"/><path d="M8 1h1v1H8zm2 2h1v1h-1z"/><path d="M11 4h1v1h-1zm3 3h1V6h-2v1h1zm22-7h1v1h-1z"/><path d="M35 1h1v1h-1z"/><path d="M34 2h1v1h-1zm-2 2h1v1h-1z"/><path d="M33 3h1v1h-1zM16 8h1V7h-2v1h1zm11-1v1h2V7h-2z"/><path d="M29 6v1h2V6h-2zm-15 6v2h1v-3h-1v1z"/><path d="M12 5h1v1h-1zm6 5h-3v1h5v-1h-2zm13-5h1v1h-1zm-3 5h-4v1h5v-1h-1zm-6 2h1v1h-1z"/><path d="M21 11h1v1h-1z"/><path d="M22 10h1v1h-1z"/><path d="M21 9h1v1h-1zm2-2h1v1h-1z"/><path d="M22 8h1v1h-1z"/><path d="M21 7h-1v1h2V7h-1zm-3 0h1v1h-1zm7 0h1v1h-1zm5 5v-1h-1v3h1v-2z"/><path d="M21 13h1v1h-1zm9 1h1v1h-1z"/><path d="M13 14h1v1h-1zm9 0h1v1h-1z"/><path d="M33 15h-2v1h4v-1h-2zm-22 0H9v1h4v-1h-2zm10 0h1v1h-1z"/><path d="M22 16h1v1h-1z"/><path d="M21 17h1v1h-1zm7 2v1h1v-2h-1v1zm-2 0v1h1v-2h-1v1zm-9 0v1h1v-2h-1v1zm-2 0v1h1v-2h-1v1zm23-1v2h1v-2h-1zm-2 1v1h1v-2h-1v1zm-24-1H9v2h5v-2h-2zm21 0h-3v2h5v-2h-2zm-12 1h1v1h-1zm-2 0v1h1v-2h-1v1zm5 0v1h1v-2h-1v1z"/><path d="M22 18h1v1h-1zM7 19v1h1v-2H7v1zm-2 0v1h1v-2H5v1z"/></g><path d="M4 0v1H3v1H2v1H0v7h2V9h2V8h1.5V0H4z"/><g fill="#0f0"><path d="M1 4h1v1H1zm0 2h1v1H1z"/><path d="M0 5h1v1H0zm0 2h1v1H0zm0 2h1v1H0z"/><path d="M1 8h1v1H1zM0 3h1v1H0z"/></g><path d="M40 0v1h1v1h1v1h2v7h-2V9h-2V8h-1.5V0H40z"/><g fill="#0f0"><path d="M42 4h1v1h-1zm0 2h1v1h-1z"/><path d="M43 5h1v1h-1zm0 2h1v1h-1zm0 2h1v1h-1z"/><path d="M42 8h1v1h-1zm1-5h1v1h-1z"/></g></svg>