<?xml version="1.0" encoding="utf-8"?>
<!-- Generator: Adobe Illustrator 25.3.1, SVG Export Plug-In . SVG Version: 6.00 Build 0)  -->
<svg version="1.1" id="Layer_1" xmlns="http://www.w3.org/2000/svg" xmlns:xlink="http://www.w3.org/1999/xlink" x="0px" y="0px"
	 viewBox="0 0 46 20" style="enable-background:new 0 0 46 20;" xml:space="preserve">
<style type="text/css">
	.st0{fill:#FA34F3;}
	.st1{fill:#AC15F9;}
	.st2{fill:#7E18F8;}
	.st3{fill:#CF15F9;}
	.st4{fill:#8F17F9;}
</style>
<g>
	<path d="M39,0h-2v1h-1v1h-1v1h-1v1h-1v1h-1v1h-2v1h-3v1h-8V7h-3V6h-2V5h-1V4h-1V3h-1V2h-1V1H9V0H6v2h1v1h1v1h1v6H8v1H7v1H6v8h34v-8
		h-1v-1h-1v-1h-1V4h1V3h1V2h1V0H39z"/>
	<path d="M5,5H4V4H3V3H1v1H0v2h1v1h1v1h1v1h2V8h1V6H5V5z"/>
	<g>
		<path class="st0" d="M1,4h1v1H1V4z"/>
		<path class="st0" d="M2,5h1v1H2V5z"/>
	</g>
	<path class="st1" d="M3,6h1v1H3V6z"/>
	<path class="st2" d="M4,7h1v1H4V7z"/>
	<path d="M45,4V3h-2v1h-1v1h-1v1h-1v2h1v1h2V8h1V7h1V6h1V4H45z"/>
	<g>
		<path class="st0" d="M44,4h1v1h-1V4z"/>
		<path class="st0" d="M43,5h1v1h-1V5z"/>
	</g>
	<path class="st1" d="M42,6h1v1h-1V6z"/>
	<path class="st2" d="M41,7h1v1h-1V7z"/>
	<g>
		<path class="st2" d="M22,9.3V10h-0.7v1.4h-0.7v1.4h-0.7v0.7H22v1.4h-0.7v1.4h-0.7v1.4h0.7V17H22v-0.7h0.7v-0.7h0.7v-0.7h0.7v-0.7
			h0.7v-0.7h0.7v-0.7h-2.1v-0.7h0.7v-0.7h0.7v-0.7h0.7V10h0.7V9.3H22z"/>
		<path class="st2" d="M19.9,17.7v0.7h0.7v-0.7H19.9z"/>
	</g>
	<path class="st0" d="M22,9.3V10h-0.7v1.4h3.5v-0.7h0.7V10h0.7V9.3H22z"/>
	<path class="st3" d="M23.4,12.8v-0.7h0.7v-0.7h-3.5v1.4h-0.7v0.7h5.6v-0.7C25.6,12.8,24,12.8,23.4,12.8z"/>
	<path class="st1" d="M22,13.5v1.4h2.1v-0.7h0.7v-0.7H22z"/>
	<path class="st4" d="M21.3,14.9v1.4h1.4v-0.7h0.7v-0.7C23.4,14.9,21.3,14.9,21.3,14.9z"/>
</g>
</svg>
