<?xml version="1.0" encoding="utf-8"?>
<!-- Generator: Adobe Illustrator 25.3.1, SVG Export Plug-In . SVG Version: 6.00 Build 0)  -->
<svg version="1.1" id="Layer_1" xmlns="http://www.w3.org/2000/svg" xmlns:xlink="http://www.w3.org/1999/xlink" x="0px" y="0px"
	 viewBox="0 0 40 24" style="enable-background:new 0 0 40 24;" xml:space="preserve">
<style type="text/css">
	.st0{fill:#4B2D00;}
	.st1{fill:#C8C4B7;}
</style>
<g>
	<path class="st0" d="M35,0v1h-3v2h-3v2h-3v1h-1v1H15V6h-1V5h-3V3H8V1H5V0H4L2.5,2v16H3v6h4v-1h5v1h5v-1h6v1h5v-1h5v1h4v-6h0.5V2
		L36,0H35z"/>
	<g>
		<path class="st1" d="M21,8h1v1h-1V8z M20,19h-2v1h4v-1H20z"/>
		<path class="st1" d="M18,8h1v1h-1V8z"/>
		<g>
			<rect x="16" y="19" class="st1" width="1" height="1"/>
			<rect x="14" y="16" class="st1" width="1" height="1"/>
			<rect x="16" y="21" class="st1" width="1" height="1"/>
			<rect x="16" y="17" class="st1" width="1" height="1"/>
			<path class="st1" d="M15,12h-3v-2H9V8H6V6H3v3h5v2h3v2h3v2h2v1h1v-2h-2V12z M5,8H4V7h1V8z"/>
			<polygon class="st1" points="18,17 18,18 22,18 22,17 20,17 			"/>
			<rect x="4" y="20" class="st1" width="2" height="1"/>
			<rect x="5" y="10" class="st1" width="2" height="1"/>
			<rect x="23" y="21" class="st1" width="1" height="1"/>
			<rect x="8" y="12" class="st1" width="2" height="1"/>
			<rect x="3" y="10" class="st1" width="1" height="1"/>
			<rect x="14" y="20" class="st1" width="1" height="1"/>
			<rect x="14" y="18" class="st1" width="1" height="1"/>
			<rect x="11" y="14" class="st1" width="2" height="1"/>
			<rect x="14" y="22" class="st1" width="1" height="1"/>
			<polygon class="st1" points="18,21 18,22 22,22 22,21 20,21 			"/>
			<polygon class="st1" points="34,20 34,21 36,21 36,20 35,20 			"/>
			<rect x="36" y="10" class="st1" width="1" height="1"/>
			<rect x="33" y="10" class="st1" width="2" height="1"/>
			<path class="st1" d="M34,6v2h-3v2h-3v2h-3v2h-2v2h1v-1h2v-2h3v-2h3V9h5V6h-1H34z M36,8h-1V7h1V8z"/>
			<rect x="30" y="12" class="st1" width="2" height="1"/>
			<g>
				<rect x="19" y="9" class="st1" width="2" height="1"/>
				<path class="st1" d="M35,2h-2v2h-2h-1v2h-2h-1v2h-2h-1v2h-2h-1v2h-2v-2h-3V8h-2h-1V6h-2h-1V4H8H7V2H5H4v3h3v2h3v2h3v2h3v2h2v3h4
					v-3h2v-2h3V9h3V7h3V5h3V2H35z M6,4H5V3h1V4z M9,6H8V5h1V6z M12,8h-1V7h1V8z M15,10h-1V9h1V10z M18,12h-1v-1h1V12z M21,14v1h-2
					v-2h2V14z M23,12h-1v-1h1V12z M26,10h-1V9h1V10z M29,8h-1V7h1V8z M32,6h-1V5h1V6z M35,4h-1V3h1V4z"/>
			</g>
			<rect x="25" y="18" class="st1" width="1" height="1"/>
			<rect x="25" y="20" class="st1" width="1" height="1"/>
			<rect x="25" y="22" class="st1" width="1" height="1"/>
			<rect x="23" y="17" class="st1" width="1" height="1"/>
			<rect x="25" y="16" class="st1" width="1" height="1"/>
			<rect x="27" y="14" class="st1" width="2" height="1"/>
			<rect x="23" y="19" class="st1" width="1" height="1"/>
			<rect x="34" y="22" class="st1" width="2" height="1"/>
			<rect x="22" y="7" class="st1" width="1" height="1"/>
			<polygon class="st1" points="37,1 37,0 36,0 36,2 37.5,2 37.5,1 			"/>
			<rect x="4" y="22" class="st1" width="2" height="1"/>
			<polygon class="st1" points="4,0 3,0 3,1 2.5,1 2.5,2 4,2 4,1 			"/>
			<rect x="17" y="7" class="st1" width="1" height="1"/>
		</g>
	</g>
	<path class="st0" d="M2,2H1v2H0v10h1v2h1v3h1V2H2z"/>
	<path class="st1" d="M2,1h1.5v1H2V1z M1,3v1h1v1H1V4H0v2h3V3H1z"/>
	<path class="st0" d="M38,2h1v2h1v10h-1v2h-1v3h-1V2H38z"/>
	<path class="st1" d="M36.5,1H38v1h-1.5V1z M39,3v1h-1v1h1V4h1v2h-3V3H39z"/>
</g>
</svg>
