<svg xmlns="http://www.w3.org/2000/svg" viewBox="0 0 40 20"><path d="M34 0v1h-1v1h-1v1h-1v1h-1v1h-1v1h-2v1h-3v1h-8V7h-3V6h-2V5h-1V4H9V3H8V2H7V1H6V0H3v20h34V0h-3z" fill="#960000"/><path d="M34 1v1h-1v1h-1v1h-1v1h-1v1h-1v1h-2v1h-3v1h-8V8h-3V7h-2V6h-1V5H9V4H8V3H7V2H6V1H4v18h32V1h-2z" fill="red"/><g fill="#ffc900"><path d="M12.5 13v-2h-1v4h1v-2z"/><path d="M12.5 15h1v1h-1z"/><path d="M14.5 13v-2h-1v4h1v-2zm1-1v3h1v-4h-1v1z"/><path d="M14.5 15h1v1h-1zm11-2v3h1v-4h-1v1zm-2 0v3h1v-4h-1v1z"/><path d="M24.5 11h1v1h-1zm3 0v5h1v-5h-1zm-6 2v3h1v-4h-1v1z"/><path d="M22.5 11h1v1h-1zm-4 0v1h2v-1h-2zm2 3v-1h-1v2h1v-1z"/><path d="M18.5 15h1v1h-1z"/><path d="M17.5 13v2h1v-3h-1v1z"/></g><path d="M2 0v1H1v1H0v7h2V8h1.5V0H2z" fill="#960000"/><path d="M2 1v1H1v6h1V7h1V1H2z" fill="red"/><path d="M38 0v1h1v1h1v7h-2V8h-1.5V0H38z" fill="#960000"/><path d="M38 1v1h1v6h-1V7h-1V1h1z" fill="red"/></svg>