<svg xmlns="http://www.w3.org/2000/svg" viewBox="0 0 40 22"><path d="M35 0v1h-2v1h-2v1h-1v1h-1v1h-1v1h-1v1h-2v1h-2v1h-2v1h-2V9h-2V8h-2V7h-2V6h-1V5h-1V4h-1V3H9V2H7V1H5V0H2.5v8H3v14h34V8h.5V0H35z" fill="#0448b9"/><path d="M35 1v1h-2v1h-2v1h-1v1h-1v1h-1v1h-1v1h-2v1h-2v1h-2v1h-2v-1h-2V9h-2V8h-2V7h-1V6h-1V5h-1V4H9V3H7V2H5V1H2.5v6H4v14h32V7h1.5V1H35z" fill="#0060ff"/><g fill="#fff"><path d="M30 20h1v1h-1zm-6 0h1v1h-1zm-6 0h1v1h-1zm-6 0h1v1h-1zm-6 0h1v1H6zm-2-2h1v1H4zm30-1h-1v1h-1v1h1v1h1v-1h1v-1h-1zm-6 0h-1v1h-1v1h1v1h1v-1h1v-1h-1zm-6 0h-1v1h-1v1h1v1h1v-1h1v-1h-1zm-6 0h-1v1h-1v1h1v1h1v-1h1v-1h-1zm-6 0H9v1H8v1h1v1h1v-1h1v-1h-1zm25-2h1v1h-1zm-3 0h-1v-1h-1v1h-1v1h1v1h1v-1h1zm-6 0h-1v-1h-1v1h-1v1h1v1h1v-1h1zm-6 0h-1v-1h-1v1h-1v1h1v1h1v-1h1zm-6 0h-1v-1h-1v1h-1v1h1v1h1v-1h1zm-6 0H7v-1H6v1H5v1h1v1h1v-1h1zm26-1v-1h1v-1h-1v-1h-1v1h-1v1h1v1zm-13 0h1v-1h1v-1h-1v-1h-1v1h-1v1h1zm-11 0v-1h1v-1h-1v-1H9v1H8v1h1v1zm16-1h1v1h1v-1h1v-1h-1v-1h-1v1h-1zm-12 0h1v1h1v-1h1v-1h-1v-1h-1v1h-1zM4 12h1v1H4zm20-1h1v-1h1V9h-3v1h1v1zm-6-1h1v1h-1zM7 11v-1h1V9H7V8H6v1H5v1h1v1zm28-2h1v1h-1zm-6 1h1v1h1v-1h1V9h-1V8h-1v1h-1zm-18 0h1v1h1v-1h1V9h-1V8h-1v1h-1zm16-3h1v1h-1z"/><path d="M32 7h1v1h1V7h1V6h-1V5h-1v1h-1zm-4-1h1v1h-1zM8 7h1v1h1V7h1V6h-1V5H9v1H8zM5 7V6H4V5H3v1h-.5v1H3h2zm25-3h1v1h-1zM6 5h1V4h1V3H7V2H6v1H5v1h1z"/><path d="M31 3h1v1h-1zm5-1v1h-1v1h1v1h1V4h.5V3H37V2zM3 1h1v1H3z"/></g><path d="M33 18h1v1h-1zm-6 0h1v1h-1zm-6 0h1v1h-1zm-6 0h1v1h-1zm-6 0h1v1H9zm21-3h1v1h-1zm-6 0h1v1h-1zm-6 0h1v1h-1zm-6 0h1v1h-1zm-6 0h1v1H6zm27-3h1v1h-1zm-6 0h1v1h-1zm-6 0h1v1h-1zm-6 0h1v1h-1zm-6 0h1v1H9zm21-3h1v1h-1zm-6 0h1v1h-1zM12 9h1v1h-1zM6 9h1v1H6zm27-3h1v1h-1zM9 6h1v1H9zM3 6h1v1H3zm33-3h1v1h-1zM6 3h1v1H6z" enable-background="new" fill="#ffd200"/><path d="M2 0v1H1v1H0v7h2V8h1V0H2z" fill="#0448b9"/><path d="M2 1v1H1v6h1V7h1V1H2z" fill="#0060ff"/><path d="M2 6h1v1H2zM1 3h1v1H1z" fill="#fdfdff"/><path d="M39 2V1h-1V0h-1v8h1v1h2V2h-1z" fill="#0448b9"/><path d="M38 2V1h-1v6h1v1h1V2h-1z" fill="#0060ff"/><path d="M38 6h1v1h-1zm-1-3h1v1h-1z" fill="#fdfdff"/></svg>