<svg width="64" height="64" viewBox="0 0 64 64" fill="none" xmlns="http://www.w3.org/2000/svg">
<path d="M37 29V28H36V27H35V26H29V27H28V28H27V29H26V35H27V36H28V37H29V38H35V37H36V36H37V35H38V29H37Z" fill="#B4B4B4"/>
<path d="M32 32.5V36.5H33V35.5H34V34.5H35V33.5H36V32.5H32Z" fill="black"/>
<path d="M37 28H38V29H37V28Z" fill="#646464"/>
<path d="M38 29H39V35H38V29Z" fill="#646464"/>
<path d="M37 35H38V36H37V35Z" fill="#646464"/>
<path d="M36 36H37V37H36V36Z" fill="#646464"/>
<path d="M35 37H36V38H35V37Z" fill="#646464"/>
<path d="M29 38H35V39H29V38Z" fill="#646464"/>
<path d="M28 37H29V38H28V37Z" fill="#646464"/>
<path d="M27 36H28V37H27V36Z" fill="#646464"/>
<path d="M26 35H27V36H26V35Z" fill="#646464"/>
<path d="M25 29H26V35H25V29ZM36 27H37V28H36V27Z" fill="#646464"/>
<path d="M35 26H36V27H35V26Z" fill="#646464"/>
<path d="M29 25H35V26H29V25Z" fill="#646464"/>
<path d="M28 26H29V27H28V26Z" fill="#646464"/>
<path d="M27 27H28V28H27V27Z" fill="#646464"/>
<path d="M26 28H27V29H26V28ZM31 28.5H30V29.5H29V30.5H28V32.5H32V27.5H31V28.5Z" fill="#646464"/>
<path d="M28 32.5V33.5H29V34.5H30V35.5H31V36.5H32V32.5H28Z" fill="#323232"/>
<path d="M35 30.5V29.5H34V28.5H33V27.5H32V32.5H36V30.5H35Z" fill="#323232"/>
</svg>
