<svg width="64" height="64" viewBox="0 0 64 64" fill="none" xmlns="http://www.w3.org/2000/svg">
<path d="M37 30H39V31H37V30Z" fill="#7D00FF"/>
<path d="M39 31H40V33H39V31Z" fill="#7D00FF"/>
<path d="M37 33H39V34H37V33Z" fill="#7D00FF"/>
<path d="M36 31H37V33H36V31Z" fill="#7D00FF"/>
<path d="M37 31H39V33H37V31Z" fill="#00FFFF"/>
<path d="M40 30V29H36V30H35V34H36V35H40V34H41V30H40ZM40 33H39V34H37V33H36V31H37V30H39V31H40V33Z" fill="#FF00FF"/>
<path d="M40 29H41V30H40V29Z" fill="#FFFF00"/>
<path d="M41 30H42V34H41V30ZM35 34H36V35H35V34Z" fill="#FFFF00"/>
<path d="M34 30H35V34H34V30ZM36 35H40V36H36V35Z" fill="#FFFF00"/>
<path d="M40 34H41V35H40V34ZM36 28H40V29H36V28Z" fill="#FFFF00"/>
<path d="M35 29H36V30H35V29Z" fill="#FFFF00"/>
<path d="M42 29V28H41V27H35V28H34V29H33V35H34V36H35V37H41V36H42V35H43V29H42ZM42 34H41V35H40V36H36V35H35V34H34V30H35V29H36V28H40V29H41V30H42V34Z" fill="#00FF00"/>
<path d="M35 26H41V27H35V26Z" fill="black"/>
<path d="M41 27H42V28H41V27Z" fill="black"/>
<path d="M43 29V28H42V29H43V35H44V29H43ZM35 37H41V38H35V37ZM34 27H35V28H34V27Z" fill="black"/>
<path d="M33 28H34V29H33V28ZM33 35H34V36H33V35Z" fill="black"/>
<path d="M42 36H41V37H42V36H43V35H42V36ZM34 36H35V37H34V36ZM32 29H33V35H32V29Z" fill="black"/>
<path d="M21 30H23V31H21V30Z" fill="#7D00FF"/>
<path d="M23 31H24V33H23V31Z" fill="#7D00FF"/>
<path d="M21 33H23V34H21V33Z" fill="#7D00FF"/>
<path d="M20 31H21V33H20V31Z" fill="#7D00FF"/>
<path d="M21 31H23V33H21V31Z" fill="#00FFFF"/>
<path d="M24 30V29H20V30H19V34H20V35H24V34H25V30H24ZM24 33H23V34H21V33H20V31H21V30H23V31H24V33Z" fill="#FF00FF"/>
<path d="M24 29H25V30H24V29Z" fill="#FFFF00"/>
<path d="M25 30H26V34H25V30ZM19 34H20V35H19V34Z" fill="#FFFF00"/>
<path d="M18 30H19V34H18V30ZM20 35H24V36H20V35Z" fill="#FFFF00"/>
<path d="M24 34H25V35H24V34ZM20 28H24V29H20V28Z" fill="#FFFF00"/>
<path d="M19 29H20V30H19V29Z" fill="#FFFF00"/>
<path d="M26 29V28H25V27H19V28H18V29H17V35H18V36H19V37H25V36H26V35H27V29H26ZM26 34H25V35H24V36H20V35H19V34H18V30H19V29H20V28H24V29H25V30H26V34Z" fill="#00FF00"/>
<path d="M19 26H25V27H19V26Z" fill="black"/>
<path d="M25 27H26V28H25V27Z" fill="black"/>
<path d="M27 29V28H26V29H27V35H28V29H27ZM19 37H25V38H19V37ZM18 27H19V28H18V27Z" fill="black"/>
<path d="M17 28H18V29H17V28ZM17 35H18V36H17V35Z" fill="black"/>
<path d="M26 36H25V37H26V36H27V35H26V36ZM18 36H19V37H18V36ZM16 29H17V35H16V29Z" fill="black"/>
</svg>
