<svg width="64" height="64" viewBox="0 0 64 64" fill="none" xmlns="http://www.w3.org/2000/svg">
<path d="M36 29V27H35V25H34V24H32V23H29V24H28V25H27V27H26V29H25V37H26V39H27V40H28V41H32V40H34V39H36V37H37V29H36Z" fill="#46CDFF"/>
<path d="M28 23H29V24H28V23ZM26 25H27V27H26V25ZM24 29H25V37H24V29ZM37 25H38V27H37V25Z" fill="#003A87"/>
<path d="M27 24H28V25H27V24ZM36 24H37V25H36V24Z" fill="#003A87"/>
<path d="M35 23H36V24H35V23ZM30 21H34V22H30V21Z" fill="#003A87"/>
<path d="M29 22H30V23H29V22ZM34 22H35V23H34V22ZM25 27H26V29H25V27ZM38 27H39V29H38V27Z" fill="#003A87"/>
<path d="M39 29H40V37H39V29ZM28 41H30V42H28V41ZM34 41H36V42H34V41ZM26 39H27V40H26V39Z" fill="#003A87"/>
<path d="M25 37H26V39H25V37ZM37 39H38V40H37V39Z" fill="#003A87"/>
<path d="M38 37H39V39H38V37ZM30 42H34V43H30V42ZM27 40H28V41H27V40ZM36 40H37V41H36V40Z" fill="#003A87"/>
<path d="M29 23H30V24H29V23Z" fill="#A3E6FF"/>
<path d="M28 24H29V25H28V24Z" fill="#A3E6FF"/>
<path d="M27 25H28V27H27V25ZM25 29H26V37H25V29Z" fill="#A3E6FF"/>
<path d="M26 37H27V39H26V37Z" fill="#A3E6FF"/>
<path d="M27 39H28V40H27V39Z" fill="#A3E6FF"/>
<path d="M28 40H30V41H28V40ZM26 27H27V29H26V27Z" fill="#A3E6FF"/>
<path d="M38 29V27H37V25H36V24H35V23H34V22H30V23H32V24H34V25H35V27H36V29H37V37H36V39H34V40H32V41H30V42H34V41H36V40H37V39H38V37H39V29H38Z" fill="#0093FF"/>
<path d="M27.5 31.5H28.5V30.5H26.5V35.5H28.5V34.5H27.5V31.5Z" fill="white"/>
<path d="M28.5 31.5H29.5V34.5H28.5V31.5ZM32.5 33.5H31.5V31.5H32.5V30.5H30.5V35.5H31.5V34.5H32.5V35.5H33.5V31.5H32.5V33.5ZM34.5 30.5V35.5H37.5V30.5H34.5ZM36.5 34.5H35.5V31.5H36.5V34.5Z" fill="white"/>
</svg>
