<svg width="64" height="64" viewBox="0 0 64 64" fill="none" xmlns="http://www.w3.org/2000/svg">
<path d="M21 36H23V37H21V36Z" fill="white"/>
<path d="M28 39H27V40H23V39H22V38H21V37H20V39H21V41H23V42H27V41H29V38H28V39ZM41 36H43V37H41V36Z" fill="white"/>
<path d="M43 37V38H42V39H41V40H37V39H36V38H35V41H37V42H41V41H43V39H44V37H43Z" fill="white"/>
<path d="M29 38H30V41H29V38ZM39 35V36H37V37H35V38H36V39H37V40H41V39H42V38H43V37H41V36H43V37H44V39H43V41H44V40H45V35H39Z" fill="black"/>
<path d="M20 39H21V41H20V39ZM41 41H43V42H41V41Z" fill="black"/>
<path d="M37 42H41V43H37V42Z" fill="black"/>
<path d="M35 41H37V42H35V41ZM27 41H29V42H27V41Z" fill="black"/>
<path d="M23 42H27V43H23V42Z" fill="black"/>
<path d="M21 41H23V42H21V41ZM34 38H35V41H34V38ZM20 37H21V36H23V37H21V38H22V39H23V40H27V39H28V38H29V37H27V36H25V35H19V39H20V37Z" fill="black"/>
<path d="M47 32V30H41V31H38V32H36V33H35V34H34V35H33V36H32V46H33V45H34V44H35V43H36V44H37V45H41V44H44V43H47V41H49V32H47ZM37 43V42H35V41H34V38H35V37H37V36H39V35H45V40H44V41H43V42H41V43H37Z" fill="#FFCB00"/>
<path d="M31 36V35H30V34H29V33H28V32H26V31H23V30H17V32H15V41H17V43H20V44H23V45H27V44H28V43H29V44H30V45H31V46H32V36H31ZM27 42V43H23V42H21V41H20V39H19V35H25V36H27V37H29V38H30V41H29V42H27Z" fill="#FFB300"/>
<path d="M31 23V24H30V25H29V27H32V23H31Z" fill="#46CDFF"/>
<path d="M32 27V31H33V30H34V29H35V27H32Z" fill="#0093FF"/>
<path d="M29 27V29H30V30H31V31H32V27H29Z" fill="#00AFFF"/>
<path d="M34 25V24H33V23H32V27H35V25H34Z" fill="#00AFFF"/>
<path d="M9 21V23H13V25H9V27H13V29H9V31H13V33H11V35H15V21H9ZM49 21V35H53V33H51V31H55V29H51V27H55V25H51V23H55V21H49ZM41 23H43V29H41V23ZM21 23H23V29H21V23ZM29 24H30V25H29V24Z" fill="white"/>
<path d="M28 25H29V29H28V25Z" fill="white"/>
<path d="M29 29H30V30H29V29Z" fill="white"/>
<path d="M30 30H31V31H30V30Z" fill="white"/>
<path d="M31 31H33V32H31V31ZM30 23H31V24H30V23ZM34 29H35V30H34V29ZM34 24H35V25H34V24Z" fill="white"/>
<path d="M35 25H36V29H35V25ZM31 22H33V23H31V22Z" fill="white"/>
<path d="M33 30H34V31H33V30ZM33 23H34V24H33V23Z" fill="white"/>
<path d="M11 35H15V37H11V35Z" fill="black"/>
<path d="M9 35H11V33H13V31H9V35Z" fill="black"/>
<path d="M15 19H5V21H7V31H9V29H13V27H9V25H13V23H9V21H15V19ZM49 35H53V37H49V35Z" fill="black"/>
<path d="M51 31V33H53V35H55V31H51Z" fill="black"/>
<path d="M49 19V21H55V23H51V25H55V27H51V29H55V31H57V21H59V19H49Z" fill="black"/>
<path d="M47 21V23H45V21H39V19H25V21H19V23H17V21H15V32H17V30H23V31H26V32H28V33H29V34H30V35H31V36H33V35H34V34H35V33H36V32H38V31H41V30H47V32H49V21H47ZM34 30V31H33V32H31V31H30V30H29V29H28V25H29V24H30V23H31V22H33V23H34V24H35V25H36V29H35V30H34ZM21 29V23H23V29H21ZM41 29V23H43V29H41Z" fill="black"/>
</svg>
