<svg width="64" height="64" viewBox="0 0 64 64" fill="none" xmlns="http://www.w3.org/2000/svg">
<path d="M20 33V35H21V36H22V37H23V38H24V39H25V33H20Z" fill="#323232"/>
<path d="M29 29H28V28H27V27H26V26H25V33H30V31H29V29ZM34 33V35H35V36H36V37H37V38H38V39H39V33H34Z" fill="#323232"/>
<path d="M43 31V29H42V28H41V27H40V26H39V33H44V31H43Z" fill="#323232"/>
<path d="M25 33V39H26V38H27V37H28V36H29V35H30V34H34V33H25ZM48 31H49V32H48V31ZM39 33V39H40V38H41V37H42V36H43V35H44V34H47V33H39Z" fill="black"/>
<path d="M47 32H48V33H47V32ZM15 31H16V32H15V31ZM17 33H20V34H17V33Z" fill="black"/>
<path d="M16 32H17V33H16V32Z" fill="black"/>
<path d="M24 27H23V28H22V29H21V31H20V32H17V33H25V26H24V27ZM38 27H37V28H36V29H35V31H34V32H30V33H39V26H38V27ZM47 31H48V32H47V31Z" fill="#646464"/>
<path d="M48 30H49V31H48V30ZM44 32H47V33H44V32ZM16 31H17V32H16V31Z" fill="#646464"/>
<path d="M15 30H16V31H15V30Z" fill="#646464"/>
</svg>
