<svg width="64" height="64" viewBox="0 0 64 64" fill="none" xmlns="http://www.w3.org/2000/svg">
<path d="M46 24V25H45V26H44V27H43V28H42V29H41V30H39V31H37V32H34V33H30V32H27V31H25V30H23V29H22V28H21V27H20V26H19V25H18V24H16V41H48V24H46Z" fill="#870AFF"/>
<path d="M18 24H19V25H18V24ZM20 26H21V27H20V26Z" fill="#550AAA"/>
<path d="M19 25H20V26H19V25ZM22 28H23V29H22V28Z" fill="#550AAA"/>
<path d="M21 27H22V28H21V27ZM25 30H27V31H25V30Z" fill="#550AAA"/>
<path d="M23 29H25V30H23V29ZM45 24H46V25H45V24ZM43 26H44V27H43V26Z" fill="#550AAA"/>
<path d="M44 25H45V26H44V25ZM41 28H42V29H41V28Z" fill="#550AAA"/>
<path d="M42 27H43V28H42V27ZM37 30H39V31H37V30Z" fill="#550AAA"/>
<path d="M39 29H41V30H39V29ZM30 32H34V33H30V32Z" fill="#550AAA"/>
<path d="M27 31H30V32H27V31ZM34 31H37V32H34V31ZM15 42H49V23H46V24H48V41H16V24H18V23H15V42Z" fill="#550AAA"/>
<path d="M26.5 36H29.5V37H26.5V36ZM26.5 34H29.5V35H26.5V34ZM26.5 38H29.5V39H26.5V38ZM30.5 34V35H31.5V39H32.5V35H33.5V34H30.5ZM36.5 34V36H35.5V34H34.5V39H35.5V37H36.5V39H37.5V34H36.5Z" fill="white"/>
<path d="M15 25H14V26H13V32H14V31H15V25Z" fill="#870AFF"/>
<path d="M13 25H14V26H13V25ZM15 31H14V32H15V31Z" fill="#550AAA"/>
<path d="M15 24H14V25H15V24ZM13 26H12V33H14V32H13V26Z" fill="#550AAA"/>
<path d="M49 31H50V32H51V26H50V25H49V31Z" fill="#870AFF"/>
<path d="M51 26V32H50V33H52V26H51Z" fill="#550AAA"/>
<path d="M50 25H51V26H50V25ZM49 32H50V31H49V32Z" fill="#550AAA"/>
<path d="M49 25H50V24H49V25Z" fill="#550AAA"/>
</svg>
