<svg width="64" height="64" viewBox="0 0 64 64" fill="none" xmlns="http://www.w3.org/2000/svg">
<path d="M46 34V33H34V18H35V17H36V16H37V15H38V14H39V13H25V14H26V15H27V16H28V17H29V18H30V33H18V34H17V35H47V34H46Z" fill="#F57A1A"/>
<path d="M47 23V22H45V21H43V20H41V19H39V17H40V16H41V15H42V14H43V13H44V12H45V11H46V10H44V11H42V12H40V13H39V14H38V15H37V16H36V17H35V18H34V25H48V23H47ZM47 27H46V28H45V29H44V30H43V31H44V32H45V33H46V34H47V35H48V26H47V27Z" fill="#E06B1A"/>
<path d="M47 37H46V38H45V39H44V40H43V41H42V42H43V43H44V44H45V45H46V46H47V47H48V36H47V37ZM46 9H47V10H46V9ZM29 17H28V16H27V15H26V14H25V13H24V12H22V11H20V10H18V11H19V12H20V13H21V14H22V15H23V16H24V17H25V19H23V20H21V21H19V22H17V23H16V25H30V18H29V17ZM17 34H18V33H19V32H20V31H21V30H20V29H19V28H18V27H17V26H16V35H17V34Z" fill="#E06B1A"/>
<path d="M21 40H20V39H19V38H18V37H17V36H16V47H17V46H18V45H19V44H20V43H21V42H22V41H21V40ZM17 9H18V10H17V9Z" fill="#E06B1A"/>
<path d="M34 25V32H35V31H36V30H37V29H38V28H41V29H42V30H44V29H45V28H46V27H47V26H48V25H34ZM36 35V36H37V37H38V38H39V39H40V40H41V41H43V40H44V39H45V38H46V37H47V36H48V35H36ZM16 25V26H17V27H18V28H19V29H20V30H22V29H23V28H26V29H27V30H28V31H29V32H30V25H16ZM16 35V36H17V37H18V38H19V39H20V40H21V41H23V40H24V39H25V38H26V37H27V36H28V35H16Z" fill="#C65616"/>
<path d="M21 44V45H22V46H24V47H40V46H42V45H43V44H21Z" fill="#B8A394"/>
<path d="M44 32V31H43V30H42V29H41V28H38V29H37V30H36V31H35V32H34V33H45V32H44ZM30 33V32H29V31H28V30H27V29H26V28H23V29H22V30H21V31H20V32H19V33H30ZM35 40H37V42H35V40ZM28 35V37H29V38H30V39H31V40H33V39H34V38H35V37H36V35H28ZM27 40H29V42H27V40Z" fill="black"/>
<path d="M29 42H35V44H29V42Z" fill="black"/>
<path d="M46 8V9H47V10H46V11H45V12H44V13H43V14H42V15H41V16H40V17H39V19H41V20H43V21H45V22H47V23H48V47H47V48H49V8H46ZM42 45H43V46H42V45Z" fill="#6C3617"/>
<path d="M40 46H42V47H40V46ZM46 46H47V47H46V46ZM40 11H42V12H40V11Z" fill="#6C3617"/>
<path d="M42 10H44V11H42V10ZM24 47H40V48H24V47Z" fill="#6C3617"/>
<path d="M44 9H46V10H44V9ZM21 45H22V46H21V45Z" fill="#6C3617"/>
<path d="M19 44H21V45H19V44ZM22 46H24V47H22V46ZM17 46H18V47H17V46ZM24 12H40V13H24V12Z" fill="#6C3617"/>
<path d="M22 11H24V12H22V11Z" fill="#6C3617"/>
<path d="M20 10H22V11H20V10ZM16 23H17V22H19V21H21V20H23V19H25V17H24V16H23V15H22V14H21V13H20V12H19V11H18V10H17V9H18V8H15V48H17V47H16V23Z" fill="#6C3617"/>
<path d="M18 9H20V10H18V9ZM43 44H45V45H43V44Z" fill="#6C3617"/>
<path d="M45 45H46V46H45V45ZM18 45H19V46H18V45Z" fill="#6C3617"/>
<path d="M43 43V42H42V41H41V40H40V39H39V38H38V37H37V36H36V37H35V38H34V39H33V40H31V39H30V38H29V37H28V36H27V37H26V38H25V39H24V40H23V41H22V42H21V43H20V44H29V42H27V40H29V42H35V40H37V42H35V44H44V43H43Z" fill="#D1B9AA"/>
</svg>
