<svg width="64" height="64" viewBox="0 0 64 64" fill="none" xmlns="http://www.w3.org/2000/svg">
<path d="M32 26V28H29V30H27V42H28V38H30V32H32V30H34V28H36V26H32Z" fill="#F57A1A"/>
<path d="M36 26H38V28H36V26ZM27 42H28V44H27V42Z" fill="#C65616"/>
<path d="M28 38H30V42H28V38Z" fill="#C65616"/>
<path d="M30 32H32V38H30V32Z" fill="#C65616"/>
<path d="M32 30H34V32H32V30Z" fill="#C65616"/>
<path d="M34 28H36V30H34V28Z" fill="#C65616"/>
<path d="M38 24V22H34V20H27V30H29V28H32V26H38V28H40V24H38Z" fill="#F7F7F7"/>
<path d="M27 44H28V46H27V44Z" fill="#6C3617"/>
<path d="M28 42H30V44H28V42Z" fill="#6C3617"/>
<path d="M30 38H32V42H30V38Z" fill="#6C3617"/>
<path d="M32 32H34V38H32V32Z" fill="#6C3617"/>
<path d="M34 30H36V32H34V30Z" fill="#6C3617"/>
<path d="M40 24V28H36V30H42V24H40Z" fill="#6C3617"/>
<path d="M38 22H40V24H38V22Z" fill="#6C3617"/>
<path d="M34 20H38V22H34V20Z" fill="#6C3617"/>
<path d="M27 18H34V20H27V18Z" fill="#6C3617"/>
</svg>
