<svg width="64" height="64" viewBox="0 0 64 64" fill="none" xmlns="http://www.w3.org/2000/svg">
<path d="M51 23V21H50V20H48V19H35V20H29V19H16V20H14V21H13V23H12V35H13V37H14V38H15V39H18V38H19V37H20V36H28V37H29V38H30V39H34V38H35V37H36V36H44V37H45V38H46V39H49V38H50V37H51V35H52V23H51Z" fill="#FF32FF"/>
<path d="M48 19H50V20H48V19ZM14 19H16V20H14V19ZM33 19H35V20H33V19ZM29 19H31V20H29V19Z" fill="black"/>
<path d="M31 20H33V21H31V20ZM30 39H34V40H30V39ZM51 35H52V37H51V35Z" fill="black"/>
<path d="M50 37H51V38H50V37Z" fill="black"/>
<path d="M49 38H50V39H49V38ZM12 35H13V37H12V35Z" fill="black"/>
<path d="M13 37H14V38H13V37Z" fill="black"/>
<path d="M14 38H15V39H14V38ZM46 39H49V40H46V39Z" fill="black"/>
<path d="M15 39H18V40H15V39ZM36 36H44V37H36V36Z" fill="black"/>
<path d="M44 37H45V38H44V37Z" fill="black"/>
<path d="M45 38H46V39H45V38ZM35 37H36V38H35V37Z" fill="black"/>
<path d="M34 38H35V39H34V38ZM29 38H30V39H29V38Z" fill="black"/>
<path d="M28 37H29V38H28V37ZM19 37H20V38H19V37Z" fill="black"/>
<path d="M20 36H28V37H20V36ZM18 38H19V39H18V38ZM51 21H52V23H51V21Z" fill="black"/>
<path d="M50 20H51V21H50V20ZM11 23H12V35H11V23Z" fill="black"/>
<path d="M52 23H53V35H52V23ZM12 21H13V23H12V21Z" fill="black"/>
<path d="M13 20H14V21H13V20ZM35 18H48V19H35V18ZM16 18H29V19H16V18Z" fill="black"/>
<path d="M31 26V27H30V28H29V30H32V26H31Z" fill="#EBAAE6"/>
<path d="M32 30V34H33V33H34V32H35V30H32Z" fill="#BE32BE"/>
<path d="M29 30V32H30V33H31V34H32V30H29Z" fill="#E17DD7"/>
<path d="M34 28V27H33V26H32V30H35V28H34Z" fill="#E17DD7"/>
<path d="M41 30V28H35V32H36V30H39V34H41V32H43V30H41ZM23 32V30H21V32H15V30H13V34H15V36H17V34H27V32H23ZM47 24V21H43V23H45V26H43V28H45V33H47V37H49V33H51V31H47V26H51V24H47ZM17 28V30H19V28H23V21H16V23H21V26H13V28H17ZM33 26V25H39V23H41V21H37V23H33V21H31V26H33Z" fill="#910091"/>
<path d="M33 26H34V27H33V26ZM30 26H31V27H30V26Z" fill="#910091"/>
<path d="M34 27H35V28H34V27ZM29 27H30V28H29V27Z" fill="#910091"/>
<path d="M29 28H27V25H29V23H27V21H25V30H28V32H29V28ZM34 32H35V33H34V32Z" fill="#910091"/>
<path d="M29 32H30V33H29V32ZM33 33H34V34H33V33Z" fill="#910091"/>
<path d="M30 33H31V34H30V33Z" fill="#910091"/>
<path d="M31 34H33V39H31V34Z" fill="#910091"/>
</svg>
