<svg width="64" height="64" viewBox="0 0 64 64" fill="none" xmlns="http://www.w3.org/2000/svg">
<path d="M14 37H15V40H29V28H25V27H23V26H22V25H21V24H20V23H19V22H18V21H17V20H16V19H14V37ZM32 30H33V31H32V30Z" fill="black"/>
<path d="M31 31H32V32H31V31ZM32 28H33V29H32V28Z" fill="black"/>
<path d="M31 29H32V30H31V29ZM31 27H32V28H31V27ZM50 19H48V20H47V21H46V22H45V23H44V24H43V25H42V26H41V27H39V28H35V40H49V37H50V19ZM32 32H33V33H32V32Z" fill="black"/>
<path d="M31 33H32V34H31V33Z" fill="black"/>
<path d="M32 34H33V35H32V34Z" fill="black"/>
<path d="M31 35H32V36H31V35Z" fill="black"/>
<path d="M32 36H33V37H32V36Z" fill="black"/>
<path d="M31 37H32V38H31V37Z" fill="black"/>
<path d="M32 38H33V39H32V38Z" fill="black"/>
<path d="M31 39H32V40H31V39Z" fill="black"/>
<path d="M32 40H33V41H32V40Z" fill="black"/>
<path d="M15 40H29V41H15V40ZM35 40H49V41H35V40ZM17 19H18V20H17V19ZM19 21H20V22H19V21Z" fill="#FF00FF"/>
<path d="M18 20H19V21H18V20ZM20 22H21V23H20V22Z" fill="#FF00FF"/>
<path d="M21 23H22V24H21V23ZM23 25H25V26H23V25ZM46 19H47V20H46V19Z" fill="#FF00FF"/>
<path d="M45 20H46V21H45V20Z" fill="#FF00FF"/>
<path d="M44 21H45V22H44V21ZM42 23H43V24H42V23Z" fill="#FF00FF"/>
<path d="M43 22H44V23H43V22ZM39 25H41V26H39V25Z" fill="#FF00FF"/>
<path d="M22 24H23V25H22V24ZM41 24H42V25H41V24ZM39 27V26H25V27H30V41H31V27H33V41H34V27H39Z" fill="#FF00FF"/>
<path d="M18 21H19V22H18V21Z" fill="#00FFFF"/>
<path d="M17 20H18V21H17V20ZM20 23H21V24H20V23Z" fill="#00FFFF"/>
<path d="M19 22H20V23H19V22ZM45 21H46V22H45V21Z" fill="#00FFFF"/>
<path d="M46 20H47V21H46V20ZM43 23H44V24H43V23Z" fill="#00FFFF"/>
<path d="M44 22H45V23H44V22ZM34 27V41H35V28H39V27H34ZM16 19H17V20H16V19ZM22 25H23V26H22V25Z" fill="#00FFFF"/>
<path d="M21 24H22V25H21V24ZM23 26H25V27H23V26ZM47 19H48V20H47V19ZM41 25H42V26H41V25Z" fill="#00FFFF"/>
<path d="M42 24H43V25H42V24ZM39 26H41V27H39V26ZM32 31H33V32H32V31Z" fill="#00FFFF"/>
<path d="M31 30H32V31H31V30Z" fill="#00FFFF"/>
<path d="M32 29H33V30H32V29Z" fill="#00FFFF"/>
<path d="M31 28H32V29H31V28Z" fill="#00FFFF"/>
<path d="M32 27H33V28H32V27ZM25 27V28H29V41H30V27H25ZM31 32H32V33H31V32Z" fill="#00FFFF"/>
<path d="M32 33H33V34H32V33Z" fill="#00FFFF"/>
<path d="M31 34H32V35H31V34Z" fill="#00FFFF"/>
<path d="M32 35H33V36H32V35Z" fill="#00FFFF"/>
<path d="M31 36H32V37H31V36Z" fill="#00FFFF"/>
<path d="M32 37H33V38H32V37Z" fill="#00FFFF"/>
<path d="M31 38H32V39H31V38ZM31 40H32V41H31V40Z" fill="#00FFFF"/>
<path d="M32 39H33V40H32V39Z" fill="#00FFFF"/>
<path d="M11 22H12V29H11V22Z" fill="#FF00FF"/>
<path d="M10 22H11V29H10V22Z" fill="#00FFFF"/>
<path d="M13 20V21H12V28H13V33H14V20H13Z" fill="black"/>
<path d="M52 22H53V29H52V22Z" fill="#FF00FF"/>
<path d="M53 22H54V29H53V22Z" fill="#00FFFF"/>
<path d="M51 21V20H50V33H51V28H52V21H51Z" fill="black"/>
</svg>
