<svg width="64" height="64" viewBox="0 0 64 64" fill="none" xmlns="http://www.w3.org/2000/svg">
<path d="M46 24V25H45V26H44V27H43V28H42V29H41V30H39V31H37V32H34V33H30V32H27V31H25V30H23V29H22V28H21V27H20V26H19V25H18V24H16V41H48V24H46Z" fill="black"/>
<path d="M18 24H19V25H18V24ZM20 26H21V27H20V26Z" fill="#1E1E1E"/>
<path d="M19 25H20V26H19V25ZM22 28H23V29H22V28Z" fill="#1E1E1E"/>
<path d="M21 27H22V28H21V27ZM25 30H27V31H25V30Z" fill="#1E1E1E"/>
<path d="M23 29H25V30H23V29ZM45 24H46V25H45V24ZM43 26H44V27H43V26Z" fill="#1E1E1E"/>
<path d="M44 25H45V26H44V25ZM41 28H42V29H41V28Z" fill="#1E1E1E"/>
<path d="M42 27H43V28H42V27ZM37 30H39V31H37V30Z" fill="#1E1E1E"/>
<path d="M39 29H41V30H39V29ZM30 32H34V33H30V32Z" fill="#1E1E1E"/>
<path d="M27 31H30V32H27V31ZM34 31H37V32H34V31ZM15 42H49V23H46V24H48V41H16V24H18V23H15V42Z" fill="#1E1E1E"/>
<path d="M20 36H19V34H18V39H19V37H20V39H21V34H20V36ZM23 34H24V35H23V34Z" fill="white"/>
<path d="M24 37H23V35H22V39H23V38H24V39H25V35H24V37ZM29 34V39H30V37H31V36H30V35H31V34H29ZM27 34H26V39H28V38H27V34ZM33 34V39H34V35H35V34H33ZM43 34V35H44V39H45V35H46V34H43ZM36 36H38V37H36V36ZM41 35H42V36H41V35ZM36 34H38V35H36V34ZM36 38H38V39H36V38ZM41 37H42V39H41V37Z" fill="white"/>
<path d="M40 34H39V39H40V37H41V36H40V34Z" fill="white"/>
<path d="M15 25H14V26H13V32H14V31H15V25Z" fill="black"/>
<path d="M13 26H12V33H14V32H13V26Z" fill="#1E1E1E"/>
<path d="M13 25H14V26H13V25ZM15 31H14V32H15V31Z" fill="#1E1E1E"/>
<path d="M15 24H14V25H15V24Z" fill="#1E1E1E"/>
<path d="M49 31H50V32H51V26H50V25H49V31Z" fill="black"/>
<path d="M51 26V32H50V33H52V26H51Z" fill="#1E1E1E"/>
<path d="M50 25H51V26H50V25ZM49 32H50V31H49V32Z" fill="#1E1E1E"/>
<path d="M49 25H50V24H49V25Z" fill="#1E1E1E"/>
</svg>
