<svg width="64" height="64" viewBox="0 0 64 64" fill="none" xmlns="http://www.w3.org/2000/svg">
<path d="M19 25H20V26H19V25Z" fill="#646464"/>
<path d="M18 25H19V26H18V25Z" fill="#969696"/>
<path d="M19 24H20V25H19V24Z" fill="#C8C8C8"/>
<path d="M21 26V25H20V26H19V27H22V26H21Z" fill="#C8C8C8"/>
<path d="M26 29H27V30H26V29Z" fill="#E2CAB5"/>
<path d="M27 30H28V32H27V30Z" fill="#E2CAB5"/>
<path d="M16 21H18V22H16V21Z" fill="#00FFFF"/>
<path d="M18 22H19V23H18V22ZM37 28H39V29H37V28ZM47 33H48V34H47V33Z" fill="#00FFFF"/>
<path d="M45 32H47V33H45V32Z" fill="#00FFFF"/>
<path d="M43 31H45V32H43V31Z" fill="#00FFFF"/>
<path d="M41 30H43V31H41V30Z" fill="#00FFFF"/>
<path d="M39 29H41V30H39V29Z" fill="#00FFFF"/>
<path d="M18 24H19V25H18V24Z" fill="#E1E1E1"/>
<path d="M17 25V26H16V27H19V26H18V25H17Z" fill="#E1E1E1"/>
<path d="M18 23H20V24H18V23Z" fill="#7D00FF"/>
<path d="M16 22H18V23H16V22ZM37 29H39V30H37V29ZM47 34H48V35H47V34Z" fill="#7D00FF"/>
<path d="M45 33H47V34H45V33Z" fill="#7D00FF"/>
<path d="M43 32H45V33H43V32Z" fill="#7D00FF"/>
<path d="M41 31H43V32H41V31Z" fill="#7D00FF"/>
<path d="M39 30H41V31H39V30Z" fill="#7D00FF"/>
<path d="M29 30H28V33H30V32H29V30Z" fill="#D3AF90"/>
<path d="M29 29H30V30H29V29Z" fill="#D3AF90"/>
<path d="M39 27H41V28H39V27ZM47 31H48V32H47V31Z" fill="#FFFF00"/>
<path d="M45 30H47V31H45V30ZM41 28H43V29H41V28Z" fill="#FFFF00"/>
<path d="M43 29H45V30H43V29Z" fill="#FFFF00"/>
<path d="M47 30H48V31H47V30Z" fill="#FF00FF"/>
<path d="M45 29H47V30H45V29ZM41 27H43V28H41V27Z" fill="#FF00FF"/>
<path d="M43 28H45V29H43V28Z" fill="#FF00FF"/>
<path d="M46 21V22H47V23H48V21H46ZM43 33H41V34H40V35H44V34H43V33ZM20 33H19V34H18V35H21V34H20V33ZM18 32H20V31H19V30H17V29H16V33H18V32ZM47 24H45V25H44V26H43V27H45V28H48V25H47V24ZM39 32H41V31H39V30H37V29H34V31H33V32H35V33H39V32ZM27 32H28V33H27V32Z" fill="white"/>
<path d="M47 32H48V33H47V32Z" fill="#00FF00"/>
<path d="M45 31H47V32H45V31Z" fill="#00FF00"/>
<path d="M43 30H45V31H43V30ZM39 28H41V29H39V28Z" fill="#00FF00"/>
<path d="M41 29H43V30H41V29ZM47 37H46V35H39V37H38V35H34V36H35V38H34V39H33V40H36V38H37V40H40V38H41V40H44V38H45V40H48V35H47V37ZM42 38V36H43V38H42ZM23 37H22V35H16V38H17V40H20V38H21V40H24V39H23V38H24V35H23V37ZM18 38V36H19V38H18ZM28 37H30V38H28V37ZM33 37H31V39H29V40H32V38H33V37ZM26 39V38H27V37H25V40H28V39H26Z" fill="#00FF00"/>
<path d="M46 35H47V37H46V35ZM38 35H39V37H38V35ZM22 35H23V37H22V35ZM42 36H43V38H42V36ZM18 36H19V38H18V36ZM34 36H35V38H34V36ZM36 38H37V40H36V38ZM28 38H29V40H28V38ZM20 38H21V40H20V38ZM40 38H41V40H40V38ZM44 38H45V40H44V38ZM16 38H17V40H16V38ZM24 39H25V40H24V39ZM32 39H33V40H32V39Z" fill="#00B900"/>
<path d="M20 24H21V25H20V24Z" fill="#167FFE"/>
<path d="M21 25H22V26H21V25ZM47 22H45V23H44V24H43V25H42V26H41V27H43V26H44V25H45V24H47V25H48V23H47V22Z" fill="#167FFE"/>
<path d="M26 29H27V28H25V27H23V26H22V27H16V29H17V30H19V31H20V32H18V33H16V35H18V34H19V33H20V34H21V35H23V33H22V31H21V28H22V30H24V29H25V30H24V32H25V33H26V32H27V30H26V29ZM47 29V30H48V28H45V29H47ZM45 34V33H43V34H44V35H47V34H45Z" fill="#167FFE"/>
<path d="M39 32V33H35V32H33V31H34V30H29V32H31V33H33V34H34V35H40V34H41V33H43V32H39ZM43 27H45V28H43V27Z" fill="#167FFE"/>
<path d="M27 29H29V30H27V29ZM17 25H18V23H16V26H17V25Z" fill="#167FFE"/>
<path d="M30 32V33H27V32H26V34H27V35H30V34H31V32H30Z" fill="#323232"/>
<path d="M24 29H25V30H24V29Z" fill="#F8ECE0"/>
<path d="M33 34V33H31V34H30V35H27V34H26V33H25V32H24V30H22V28H21V31H22V33H23V35H24V38H23V39H25V37H27V38H26V39H28V37H30V38H29V39H31V37H33V38H32V39H34V34H33Z" fill="#F8ECE0"/>
<path d="M18 21H19V22H18V21ZM20 23H21V24H20V23Z" fill="black"/>
<path d="M19 22H20V23H19V22ZM22 25H23V26H22V25Z" fill="black"/>
<path d="M21 24H22V25H21V24ZM25 27H27V28H25V27Z" fill="black"/>
<path d="M23 26H25V27H23V26ZM45 21H46V22H45V21ZM43 23H44V24H43V23Z" fill="black"/>
<path d="M44 22H45V23H44V22ZM41 25H42V26H41V25Z" fill="black"/>
<path d="M42 24H43V25H42V24ZM37 27H39V28H37V27Z" fill="black"/>
<path d="M39 26H41V27H39V26ZM30 29H34V30H30V29Z" fill="black"/>
<path d="M27 28H30V29H27V28ZM34 28H37V29H34V28ZM15 41H49V20H46V21H48V40H16V21H18V20H15V41Z" fill="black"/>
<path d="M15 27H14V26H13V29H14V28H15V27ZM15 22H14V23H13V24H15V22Z" fill="white"/>
<path d="M15 24H13V26H14V27H15V24Z" fill="#167FFE"/>
<path d="M13 23H12V30H14V29H13V23Z" fill="black"/>
<path d="M13 22H14V23H13V22ZM15 28H14V29H15V28Z" fill="black"/>
<path d="M15 21H14V22H15V21Z" fill="black"/>
<path d="M50 24H51V25H50V24ZM49 26H50V27H49V26ZM49 22H50V23H49V22Z" fill="white"/>
<path d="M49 28H50V29H51V25H50V24H51V23H49V28Z" fill="#167FFE"/>
<path d="M51 23V29H50V30H52V23H51Z" fill="black"/>
<path d="M50 22H51V23H50V22ZM49 29H50V28H49V29Z" fill="black"/>
<path d="M49 22H50V21H49V22Z" fill="black"/>
<path d="M49 26H50V27H49V26Z" fill="white"/>
</svg>
