<svg width="64" height="64" viewBox="0 0 64 64" fill="none" xmlns="http://www.w3.org/2000/svg">
<path d="M37 29H38V31H37V29Z" fill="black"/>
<path d="M36 28H37V29H36V28ZM25 29H26V31H25V29Z" fill="black"/>
<path d="M26 31H27V32H26V31Z" fill="black"/>
<path d="M27 32H28V33H27V32Z" fill="black"/>
<path d="M28 33H29V34H28V33Z" fill="black"/>
<path d="M29 34H30V35H29V34Z" fill="black"/>
<path d="M30 35H31V36H30V35ZM26 28H27V29H26V28Z" fill="black"/>
<path d="M29 28V29H30V28H33V29H34V28H36V27H27V28H29Z" fill="black"/>
<path d="M34 29H35V30H34V29Z" fill="black"/>
<path d="M35 30H36V31H35V30ZM28 29H29V30H28V29Z" fill="black"/>
<path d="M27 30H28V31H27V30ZM31 36H32V37H31V36Z" fill="black"/>
<path d="M32 35H33V36H32V35Z" fill="black"/>
<path d="M33 34H34V35H33V34Z" fill="black"/>
<path d="M34 33H35V34H34V33Z" fill="black"/>
<path d="M35 32H36V33H35V32Z" fill="black"/>
<path d="M36 31H37V32H36V31Z" fill="black"/>
<path d="M36 29H37V30H36V29Z" fill="#00FFFF"/>
<path d="M35 28H36V29H35V28ZM28 31V32H29V33H30V34H31V35H32V34H33V33H34V32H35V31H28ZM32 28H33V29H32V28ZM30 28H31V29H30V28Z" fill="#00FFFF"/>
<path d="M33 29H34V30H33V29ZM29 29H30V30H29V29ZM27 28H28V29H27V28Z" fill="#00FFFF"/>
<path d="M26 29H27V30H26V29Z" fill="#00FFFF"/>
<path d="M31 35H32V36H31V35Z" fill="#46A7C0"/>
<path d="M32 34H33V35H32V34Z" fill="#46A7C0"/>
<path d="M33 33H34V34H33V33Z" fill="#46A7C0"/>
<path d="M34 32H35V33H34V32Z" fill="#46A7C0"/>
<path d="M35 31H36V32H35V31ZM30 34H31V35H30V34Z" fill="#46A7C0"/>
<path d="M29 33H30V34H29V33Z" fill="#46A7C0"/>
<path d="M28 32H29V33H28V32Z" fill="#46A7C0"/>
<path d="M27 31H28V32H27V31Z" fill="#46A7C0"/>
<path d="M36 30H37V31H36V30ZM26 30H27V31H26V30ZM34 28H35V29H34V28ZM33 30V29H32V28H31V29H30V30H28V31H35V30H33Z" fill="white"/>
<path d="M35 29H36V30H35V29ZM27 29H28V30H27V29Z" fill="white"/>
<path d="M28 28H29V29H28V28Z" fill="white"/>
</svg>
