<svg width="64" height="64" viewBox="0 0 64 64" fill="none" xmlns="http://www.w3.org/2000/svg">
<path d="M38 18V19H36V20H33V21H30V20H27V19H25V18H24V20H25V24H26V40H25V44H24V46H25V45H27V44H30V43H33V44H36V45H38V46H39V44H38V40H37V24H38V20H39V18H38Z" fill="#F696C6"/>
<path d="M27 19H30V20H27V19ZM33 19H36V20H33V19Z" fill="black"/>
<path d="M38 17V18H36V19H38V18H39V20H40V17H38ZM36 45V44H33V45H36V46H38V45H36Z" fill="black"/>
<path d="M25 45H27V46H25V45ZM30 43H33V44H30V43Z" fill="black"/>
<path d="M27 44H30V45H27V44ZM25 18H27V19H25V18Z" fill="black"/>
<path d="M24 18H25V17H23V20H24V18ZM39 46H38V47H40V44H39V46ZM24 44H23V47H25V46H24V44ZM38 20H39V24H38V20Z" fill="black"/>
<path d="M24 20H25V24H24V20ZM38 40H39V44H38V40Z" fill="black"/>
<path d="M24 40H25V44H24V40ZM37 24H38V40H37V24Z" fill="black"/>
<path d="M25 24H26V40H25V24ZM30 20H33V21H30V20Z" fill="black"/>
<path d="M33 25H34V26H33V25ZM30 25H31V26H30V25Z" fill="#4955FF"/>
<path d="M33 26H34V28H33V26ZM30 26H31V28H30V26Z" fill="#00A9FF"/>
<path d="M33 28H34V29H33V28ZM30 28H31V29H30V28Z" fill="#494FA7"/>
<path d="M34 28H35V29H34V28ZM28 28H29V29H28V28Z" fill="#FFB299"/>
<path d="M34 26H35V28H34V26ZM28 27H29V28H28V27ZM32 29V26H31V29H30V30H29V29H28V31H29V32H30V33H29V34H28V35H31V36H32V35H34V34H33V33H32V32H34V31H35V29H32ZM30 31V30H33V31H30Z" fill="#FFE8D8"/>
<path d="M30 23H31V21H29V24H30V23ZM30 30V29H29V30H30V31H33V30H30ZM26 21V23H27V24H28V21H26Z" fill="#FF2D33"/>
<path d="M28 22H29V23H28V22ZM32 25H33V29H32V25ZM29 25H30V29H29V25Z" fill="white"/>
<path d="M36 24V23H35V22H31V23H30V24H29V23H28V24H26V34H27V33H28V32H29V31H28V27H29V25H31V26H32V25H34V26H35V33H36V32H37V24H36Z" fill="#64438E"/>
<path d="M38 44V40H37V35H32V36H31V35H26V40H25V44H24V46H25V45H27V44H30V43H31V42H30V41H31V42H32V41H33V42H32V43H33V44H36V45H38V46H39V44H38ZM31 39H29V38H28V37H29V38H31V39ZM35 38H34V39H32V38H31V37H32V38H34V37H35V38Z" fill="#DC3291"/>
<path d="M32 41H33V42H32V41ZM30 41H31V42H30V41Z" fill="#CD0073"/>
<path d="M31 42H32V43H31V42ZM34 37H35V38H34V37ZM31 37H32V38H31V37ZM28 37H29V38H28V37Z" fill="#CD0073"/>
<path d="M32 38H34V39H32V38ZM29 38H31V39H29V38Z" fill="#CD0073"/>
</svg>
