<svg width="64" height="64" viewBox="0 0 64 64" fill="none" xmlns="http://www.w3.org/2000/svg">
<path d="M28 38H29V25H28V38Z" fill="#00FFFF"/>
<path d="M27 38H28V25H27V38Z" fill="#007DFF"/>
<path d="M32 19H33V41H32V19Z" fill="#FF00FF"/>
<path d="M34 22H35V40H34V22Z" fill="#FFFF00"/>
<path d="M36 25H37V38H36V25Z" fill="#00FF00"/>
<path d="M30 22H31V40H30V22Z" fill="#7D00FF"/>
<path d="M35 25H36V38H35V25Z" fill="#009600"/>
<path d="M33 22H34V40H33V22Z" fill="#FFC800"/>
<path d="M31 19H32V41H31V19Z" fill="#7D0064"/>
<path d="M29 22H30V40H29V22Z" fill="#32007D"/>
</svg>
