<?xml version="1.0" standalone="no"?>
<!DOCTYPE svg PUBLIC "-//W3C//DTD SVG 20010904//EN"
 "http://www.w3.org/TR/2001/REC-SVG-20010904/DTD/svg10.dtd">
<svg version="1.0" xmlns="http://www.w3.org/2000/svg"
 width="720.000000pt" height="720.000000pt" viewBox="0 0 720.000000 720.000000"
 preserveAspectRatio="xMidYMid meet">

<g transform="translate(0.000000,720.000000) scale(0.100000,-0.100000)"
fill="#000000" stroke="none">
<path d="M3391 7175 c-201 -48 -400 -170 -531 -327 -73 -88 -159 -257 -192
-378 -20 -75 -23 -106 -21 -262 l1 -176 -76 -35 c-43 -19 -117 -48 -167 -65
-49 -17 -146 -51 -215 -77 -69 -26 -180 -67 -247 -91 l-122 -43 -66 89 c-88
118 -222 244 -319 299 -166 94 -356 139 -540 126 -129 -9 -229 -35 -345 -91
-122 -58 -199 -113 -287 -206 -183 -193 -272 -436 -262 -713 4 -107 9 -133 44
-236 54 -156 111 -254 213 -361 137 -145 287 -232 477 -280 71 -18 117 -22
229 -21 123 0 154 4 252 30 62 16 116 27 122 24 26 -16 431 -689 431 -716 0
-10 -14 -43 -31 -74 -55 -98 -356 -548 -371 -553 -7 -3 -61 11 -118 30 -101
35 -112 36 -272 40 -157 4 -173 2 -258 -22 -353 -101 -603 -353 -696 -701 -29
-108 -27 -362 4 -470 76 -270 263 -496 507 -615 132 -65 225 -90 360 -97 139
-7 251 8 376 50 136 47 248 120 382 250 61 59 114 107 118 107 15 0 825 -409
851 -429 l27 -22 -2 -177 c-2 -195 8 -251 74 -405 117 -276 394 -501 691 -561
99 -20 277 -20 375 0 328 67 611 317 719 631 44 130 58 224 51 353 -8 138 -37
252 -97 379 -28 57 -50 108 -50 114 0 14 33 50 485 522 226 237 491 514 590
618 98 103 181 186 185 185 4 -2 63 -31 131 -65 178 -90 256 -108 449 -107
138 1 165 4 245 28 173 52 281 114 408 235 123 118 214 266 268 441 21 67 24
94 23 250 0 165 -1 180 -28 260 -117 352 -352 576 -704 672 -111 31 -324 30
-438 0 -91 -24 -188 -64 -284 -116 -36 -20 -75 -36 -87 -36 -23 0 -678 641
-1076 1053 l-207 215 65 128 c36 71 77 170 92 219 24 81 26 106 26 245 0 187
-17 262 -93 417 -103 208 -253 355 -466 455 -120 56 -216 78 -369 83 -114 4
-143 2 -234 -20z m394 -240 c401 -104 638 -562 488 -945 -76 -194 -235 -352
-422 -420 -194 -70 -365 -64 -546 20 -154 71 -274 187 -349 336 -48 96 -67
170 -73 284 -15 276 135 532 391 666 117 62 164 73 316 73 92 1 155 -4 195
-14z m-2650 -960 c81 -21 208 -84 277 -140 142 -112 240 -298 263 -497 13
-119 -29 -301 -97 -416 -50 -87 -199 -230 -283 -274 -122 -63 -203 -83 -340
-83 -137 0 -218 20 -340 83 -84 44 -223 178 -274 264 -107 183 -129 405 -61
608 65 195 243 368 453 441 74 26 95 29 212 29 84 0 152 -5 190 -15z m1675
-276 c36 -47 86 -110 113 -139 26 -29 47 -56 47 -61 0 -5 -76 -128 -169 -272
-267 -415 -337 -521 -353 -535 -13 -10 -59 9 -274 117 -142 70 -269 137 -281
147 l-22 19 20 85 c16 70 19 114 17 254 l-3 170 30 17 c17 9 161 65 320 123
160 58 326 119 370 135 44 17 89 29 100 28 11 -1 47 -38 85 -88z m2027 -871
l642 -643 -39 -64 c-22 -36 -61 -112 -87 -169 l-48 -104 -45 6 c-25 4 -180 24
-345 47 -165 22 -308 42 -318 45 -25 8 -34 30 -42 108 -22 215 -123 426 -279
582 -254 254 -620 344 -960 237 -168 -53 -280 -125 -422 -270 l-102 -104 -49
25 c-27 13 -54 31 -61 38 -9 11 15 55 112 209 173 275 370 572 387 586 12 10
27 7 75 -12 156 -62 399 -78 568 -37 92 23 215 76 301 130 28 17 55 32 60 32
6 0 299 -289 652 -642z m-2857 -194 c216 -109 310 -163 310 -178 0 -28 -343
-556 -360 -556 -12 0 -29 27 -175 275 -65 110 -137 231 -161 270 l-43 69 62
66 c35 36 80 86 101 113 31 38 43 46 60 41 12 -3 104 -48 206 -100z m1815 16
c208 -66 356 -193 451 -386 59 -121 78 -211 70 -338 -7 -117 -19 -169 -57
-254 -67 -150 -200 -289 -336 -354 -223 -105 -430 -104 -652 3 -163 79 -308
259 -367 454 -28 91 -25 276 5 375 59 194 197 363 367 448 50 26 134 55 219
76 48 12 232 -3 300 -24z m-1197 -324 c91 -47 88 -39 66 -152 -26 -137 -24
-339 4 -445 66 -245 205 -437 419 -576 96 -63 169 -95 292 -127 l86 -23 3
-546 2 -546 -42 -11 c-24 -6 -86 -24 -139 -40 -53 -17 -103 -30 -111 -30 -32
0 -7 -40 -666 1070 -392 662 -435 738 -428 763 3 12 87 148 186 302 240 371
250 385 267 385 7 0 35 -11 61 -24z m3748 -17 c97 -17 209 -58 274 -100 259
-167 383 -454 326 -752 -28 -147 -100 -272 -221 -385 -88 -82 -219 -151 -332
-176 -437 -96 -864 246 -866 694 -1 198 63 357 202 503 99 105 204 166 345
203 100 25 181 30 272 13z m-1441 -649 c165 -23 316 -45 336 -50 l36 -10 11
-93 c22 -175 85 -343 170 -455 l33 -44 -24 -36 c-44 -68 -1213 -1282 -1234
-1282 -8 0 -32 13 -52 28 -95 75 -285 159 -423 187 l-28 5 0 548 0 548 74 17
c223 48 447 197 576 382 28 42 76 128 106 191 l55 116 32 -6 c18 -3 167 -24
332 -46z m-2954 -282 c12 -23 495 -837 820 -1382 99 -165 179 -305 179 -312 0
-7 -26 -43 -58 -81 -32 -37 -78 -96 -101 -130 -23 -35 -48 -63 -56 -63 -17 0
-443 211 -703 348 -157 82 -163 86 -157 111 40 157 49 356 21 487 -32 156
-114 313 -233 446 -40 45 -73 86 -73 91 0 16 35 75 153 257 173 269 182 278
208 228z m-817 -524 c226 -58 430 -248 507 -471 62 -180 36 -425 -63 -590 -76
-129 -246 -265 -399 -320 -67 -24 -88 -26 -219 -27 -126 0 -154 3 -210 23
-212 75 -377 227 -466 431 -27 61 -29 75 -32 232 -4 189 4 234 64 349 93 178
273 322 464 373 77 20 275 20 354 0z m2552 -1185 c190 -26 370 -127 478 -268
192 -250 206 -580 35 -836 -157 -234 -409 -349 -693 -317 -333 38 -602 326
-623 667 -25 394 295 741 704 764 12 0 56 -4 99 -10z"/>
<path d="M3490 6788 c-88 -43 -114 -92 -115 -213 0 -49 4 -99 9 -110 5 -11 10
-26 12 -33 1 -8 6 -21 10 -30 4 -9 8 -20 8 -23 3 -20 77 -100 104 -113 41 -20
124 -21 162 -1 30 15 80 61 80 72 0 4 6 14 14 22 42 49 67 238 42 312 -15 44
-56 98 -73 98 -7 1 -13 5 -13 9 0 14 -61 28 -130 31 -50 1 -75 -3 -110 -21z"/>
<path d="M3341 6234 c-94 -36 -127 -79 -147 -192 -33 -193 -33 -206 10 -226
35 -17 132 -43 188 -52 18 -3 51 -8 73 -11 52 -9 208 -9 265 -1 25 4 60 9 78
12 57 9 153 35 189 53 l35 16 -6 56 c-27 255 -49 301 -169 344 l-65 24 -52
-33 c-91 -57 -205 -54 -290 7 -22 16 -41 28 -42 28 -2 -1 -32 -12 -67 -25z"/>
<path d="M3490 4537 c-95 -50 -131 -151 -106 -294 17 -97 56 -174 109 -217 72
-58 199 -45 263 26 53 57 88 171 87 280 0 86 -31 150 -92 193 -38 27 -52 30
-129 33 -76 3 -93 0 -132 -21z"/>
<path d="M3350 3984 c-90 -34 -123 -72 -145 -165 -9 -41 -19 -113 -22 -161
l-6 -86 29 -15 c84 -43 336 -83 463 -73 107 8 273 42 329 66 42 19 42 19 42
73 0 77 -27 222 -49 265 -26 51 -46 67 -124 96 l-68 25 -40 -29 c-86 -62 -212
-62 -298 1 -23 16 -42 29 -43 28 -2 0 -32 -11 -68 -25z"/>
<path d="M905 2738 c-50 -18 -92 -55 -115 -104 -53 -109 -10 -332 79 -407 89
-75 225 -57 290 39 57 83 86 241 61 334 -15 57 -80 124 -135 139 -49 13 -140
13 -180 -1z"/>
<path d="M740 2174 c-92 -34 -123 -71 -146 -170 -10 -44 -18 -117 -18 -164
l-1 -84 47 -18 c93 -34 248 -60 368 -61 157 -1 370 41 421 82 22 18 22 20 10
120 -14 116 -35 194 -62 232 -11 16 -47 38 -95 57 l-77 31 -33 -26 c-93 -70
-217 -71 -306 -2 -20 16 -38 28 -40 28 -2 -1 -32 -12 -68 -25z"/>
<path d="M3540 1494 c-46 -20 -77 -50 -103 -99 -41 -78 -18 -268 44 -359 64
-94 203 -116 285 -44 66 58 104 163 104 288 0 114 -37 179 -122 215 -48 19
-162 19 -208 -1z"/>
<path d="M3420 948 c-127 -55 -129 -57 -149 -96 -22 -43 -49 -178 -53 -260 -2
-62 7 -73 77 -95 192 -60 412 -69 602 -24 157 36 167 42 171 96 4 53 -22 215
-42 262 -21 49 -52 74 -130 103 -68 26 -70 26 -90 7 -81 -74 -222 -78 -316
-10 -22 16 -41 29 -42 28 -2 0 -14 -5 -28 -11z"/>
</g>
</svg>
