<?xml version="1.0" standalone="no"?>
<!DOCTYPE svg PUBLIC "-//W3C//DTD SVG 20010904//EN"
 "http://www.w3.org/TR/2001/REC-SVG-20010904/DTD/svg10.dtd">
<svg version="1.0" xmlns="http://www.w3.org/2000/svg"
 width="630.000000pt" height="490.000000pt" viewBox="0 0 630.000000 490.000000"
 preserveAspectRatio="xMidYMid meet">

<g transform="translate(0.000000,490.000000) scale(0.100000,-0.100000)"
fill="#000000" stroke="none">
<path d="M0 2450 l0 -2450 3150 0 3150 0 0 1330 0 1330 -105 0 -105 0 0 -35 0
-35 -560 0 -560 0 0 35 0 35 -175 0 -175 0 0 35 0 35 -70 0 -70 0 0 35 0 35
-105 0 -105 0 0 35 0 35 -70 0 -70 0 0 35 0 35 -70 0 -70 0 0 35 0 35 -70 0
-70 0 0 35 0 35 -70 0 -70 0 0 35 c0 33 -2 35 -35 35 -33 0 -35 2 -35 35 0 33
-2 35 -35 35 -33 0 -35 2 -35 35 0 33 -2 35 -35 35 -33 0 -35 2 -35 35 0 33
-2 35 -35 35 -33 0 -35 2 -35 35 0 33 -2 35 -35 35 l-35 0 0 70 0 70 -35 0
c-33 0 -35 2 -35 35 0 33 -2 35 -35 35 -33 0 -35 2 -35 35 0 33 -2 35 -35 35
l-35 0 0 70 0 70 -35 0 -35 0 0 70 0 70 -35 0 -35 0 0 70 0 70 -35 0 -35 0 0
140 0 140 -35 0 -35 0 0 175 0 175 -35 0 -35 0 0 70 0 70 -1400 0 -1400 0 0
-2450z m1750 630 l0 -70 35 0 35 0 0 70 0 70 140 0 140 0 0 -35 0 -35 70 0 70
0 0 -35 0 -35 105 0 105 0 0 -70 0 -70 35 0 35 0 0 -70 0 -70 -175 0 -175 0 0
-35 0 -35 175 0 175 0 0 -350 0 -350 -35 0 c-33 0 -35 -2 -35 -35 l0 -35 70 0
70 0 0 35 0 35 70 0 70 0 0 140 0 140 -35 0 -35 0 0 70 0 70 70 0 70 0 0 -35
c0 -33 2 -35 35 -35 33 0 35 -2 35 -35 0 -33 -2 -35 -35 -35 l-35 0 0 -140 0
-140 35 0 35 0 0 -105 0 -105 -70 0 -70 0 0 -35 0 -35 -70 0 -70 0 0 -35 c0
-33 -2 -35 -35 -35 l-35 0 0 -245 0 -245 -35 0 c-33 0 -35 2 -35 35 l0 35
-105 0 -105 0 0 -35 0 -35 -70 0 -70 0 0 35 0 35 -105 0 -105 0 0 -35 0 -35
-70 0 -70 0 0 35 0 35 -105 0 -105 0 0 -35 0 -35 -70 0 -70 0 0 35 0 35 -105
0 -105 0 0 -35 c0 -33 -2 -35 -35 -35 l-35 0 0 875 0 875 35 0 35 0 0 70 0 70
105 0 105 0 0 35 0 35 70 0 70 0 0 35 0 35 105 0 105 0 0 -70z m560 -2275 c0
-33 -2 -35 -35 -35 -33 0 -35 -2 -35 -35 l0 -35 -420 0 -420 0 0 35 c0 33 -2
35 -35 35 -33 0 -35 2 -35 35 l0 35 490 0 490 0 0 -35z"/>
<path d="M1820 2975 c0 -33 2 -35 35 -35 33 0 35 -2 35 -35 0 -33 2 -35 35
-35 33 0 35 -2 35 -35 l0 -35 70 0 70 0 0 -35 c0 -33 2 -35 35 -35 33 0 35 2
35 35 0 33 -2 35 -35 35 -33 0 -35 2 -35 35 l0 35 -70 0 -70 0 0 35 c0 33 -2
35 -35 35 -33 0 -35 2 -35 35 0 33 -2 35 -35 35 -33 0 -35 -2 -35 -35z"/>
<path d="M1330 2485 c0 -33 -2 -35 -35 -35 l-35 0 0 -70 0 -70 35 0 c33 0 35
-2 35 -35 l0 -35 70 0 70 0 0 35 c0 33 2 35 35 35 l35 0 0 70 0 70 -35 0 c-33
0 -35 2 -35 35 l0 35 -70 0 -70 0 0 -35z m140 -70 c0 -33 -2 -35 -35 -35 -33
0 -35 2 -35 35 0 33 2 35 35 35 33 0 35 -2 35 -35z"/>
<path d="M2170 2485 c0 -33 -2 -35 -35 -35 l-35 0 0 -70 0 -70 35 0 c33 0 35
-2 35 -35 l0 -35 70 0 70 0 0 35 c0 33 2 35 35 35 l35 0 0 70 0 70 -35 0 c-33
0 -35 2 -35 35 l0 35 -70 0 -70 0 0 -35z m140 -70 c0 -33 -2 -35 -35 -35 -33
0 -35 2 -35 35 0 33 2 35 35 35 33 0 35 -2 35 -35z"/>
<path d="M1610 2135 c0 -33 2 -35 35 -35 33 0 35 -2 35 -35 l0 -35 140 0 140
0 0 35 c0 33 2 35 35 35 33 0 35 2 35 35 0 33 -2 35 -35 35 -33 0 -35 -2 -35
-35 l0 -35 -140 0 -140 0 0 35 c0 33 -2 35 -35 35 -33 0 -35 -2 -35 -35z"/>
<path d="M1260 1855 c0 -33 2 -35 35 -35 33 0 35 -2 35 -35 0 -33 2 -35 35
-35 33 0 35 -2 35 -35 l0 -35 70 0 70 0 0 -35 0 -35 70 0 70 0 0 -105 0 -105
-140 0 -140 0 0 35 0 35 -70 0 -70 0 0 35 c0 33 -2 35 -35 35 -33 0 -35 -2
-35 -35 0 -33 2 -35 35 -35 33 0 35 -2 35 -35 l0 -35 70 0 70 0 0 -35 0 -35
140 0 140 0 0 35 c0 33 2 35 35 35 l35 0 0 105 0 105 -35 0 c-33 0 -35 2 -35
35 l0 35 -70 0 -70 0 0 35 0 35 -70 0 -70 0 0 35 c0 33 -2 35 -35 35 -33 0
-35 2 -35 35 0 33 -2 35 -35 35 -33 0 -35 -2 -35 -35z"/>
<path d="M2380 1855 c0 -33 2 -35 35 -35 33 0 35 2 35 35 0 33 -2 35 -35 35
-33 0 -35 -2 -35 -35z"/>
<path d="M4060 4830 l0 -70 -35 0 -35 0 0 -315 0 -315 35 0 35 0 0 -105 0
-105 35 0 35 0 0 -70 0 -70 35 0 35 0 0 -70 0 -70 35 0 35 0 0 -70 0 -70 35 0
c33 0 35 -2 35 -35 0 -33 2 -35 35 -35 33 0 35 -2 35 -35 0 -33 2 -35 35 -35
33 0 35 -2 35 -35 0 -33 2 -35 35 -35 33 0 35 -2 35 -35 l0 -35 70 0 70 0 0
-35 0 -35 70 0 70 0 0 -35 0 -35 70 0 70 0 0 -35 0 -35 105 0 105 0 0 -35 0
-35 315 0 315 0 0 35 0 35 105 0 105 0 0 35 0 35 70 0 70 0 0 35 0 35 70 0 70
0 0 35 0 35 -70 0 -70 0 0 -35 0 -35 -70 0 -70 0 0 -35 0 -35 -105 0 -105 0 0
-35 0 -35 -315 0 -315 0 0 35 0 35 -105 0 -105 0 0 35 0 35 -70 0 -70 0 0 35
0 35 -70 0 -70 0 0 35 0 35 -70 0 -70 0 0 35 c0 33 -2 35 -35 35 -33 0 -35 2
-35 35 0 33 -2 35 -35 35 -33 0 -35 2 -35 35 0 33 -2 35 -35 35 l-35 0 0 70 0
70 -35 0 -35 0 0 70 0 70 -35 0 -35 0 0 70 0 70 -35 0 -35 0 0 105 0 105 -35
0 -35 0 0 315 0 315 35 0 35 0 0 70 0 70 -35 0 -35 0 0 -70z"/>
</g>
</svg>
