<?xml version="1.0" standalone="no"?>
<!DOCTYPE svg PUBLIC "-//W3C//DTD SVG 20010904//EN"
 "http://www.w3.org/TR/2001/REC-SVG-20010904/DTD/svg10.dtd">
<svg version="1.0" xmlns="http://www.w3.org/2000/svg"
 width="228.000000pt" height="221.000000pt" viewBox="0 0 228.000000 221.000000"
 preserveAspectRatio="xMidYMid meet">

<g transform="translate(0.000000,221.000000) scale(0.100000,-0.100000)"
fill="#000000" stroke="none">
<path d="M42 2200 c-12 -5 -27 -21 -32 -36 -7 -17 -9 -394 -8 -1075 3 -991 4
-1049 21 -1066 17 -17 66 -18 850 -20 731 -2 834 -1 852 13 19 14 20 28 23
302 l3 287 -60 -59 -61 -60 -2 -180 -3 -181 -750 0 -750 0 0 980 0 980 750 0
750 0 5 -434 5 -433 58 85 58 84 -3 396 c-3 383 -4 397 -23 411 -17 13 -124
15 -840 15 -468 0 -830 -4 -843 -9z"/>
<path d="M337 1773 c-14 -14 -7 -81 9 -87 20 -8 1038 -8 1058 0 22 8 22 80 0
88 -21 8 -1059 8 -1067 -1z"/>
<path d="M2043 1661 c-36 -22 -40 -28 -305 -401 -347 -490 -319 -443 -356
-610 -17 -80 -34 -165 -38 -189 -7 -42 -6 -44 15 -38 12 3 89 47 171 99 l150
93 297 425 298 425 0 57 c0 63 -19 97 -75 136 -42 28 -112 30 -157 3z m-17
-268 c29 -21 54 -43 54 -49 0 -14 -397 -590 -436 -633 -2 -2 -33 15 -69 39
-43 28 -62 46 -57 54 5 6 42 58 82 116 169 242 362 510 367 510 2 0 29 -17 59
-37z m-478 -724 c29 -18 28 -23 -11 -47 -19 -11 -46 -28 -62 -38 l-27 -18 7
35 c3 18 11 51 16 72 10 37 11 38 32 24 12 -8 32 -20 45 -28z"/>
<path d="M342 1461 c-8 -5 -12 -23 -10 -47 l3 -39 520 -3 c286 -1 530 0 543 3
18 4 22 12 22 44 0 35 -3 39 -31 45 -48 9 -1032 7 -1047 -3z"/>
<path d="M378 1153 l-48 -4 0 -43 0 -43 61 -7 c80 -8 888 -8 968 0 l61 7 0 42
0 42 -61 7 c-64 6 -896 5 -981 -1z"/>
<path d="M337 833 c-4 -3 -7 -23 -7 -44 0 -30 4 -38 23 -43 29 -8 465 -8 495
0 20 6 23 12 20 48 l-3 41 -261 3 c-143 1 -263 -1 -267 -5z"/>
<path d="M1242 667 c-15 -24 -42 -76 -61 -115 -19 -40 -38 -72 -41 -72 -4 0
-15 18 -25 40 -10 22 -26 47 -35 55 -16 15 -19 14 -37 -9 -11 -14 -26 -39 -33
-56 -7 -16 -16 -30 -20 -30 -4 0 -15 18 -25 40 -10 22 -26 47 -35 55 -16 15
-19 14 -34 -1 -9 -9 -26 -34 -37 -55 -10 -21 -21 -39 -24 -39 -3 0 -16 23 -30
50 -17 34 -31 50 -45 50 -14 0 -28 -16 -45 -50 -14 -27 -27 -50 -30 -50 -3 0
-16 22 -29 49 -46 90 -58 80 -157 -122 -62 -126 -68 -157 -30 -157 15 0 34 28
79 117 l60 117 28 -52 c34 -60 63 -69 83 -24 7 15 19 38 28 51 l15 24 27 -49
c37 -69 59 -69 95 -4 l28 52 29 -51 c39 -67 60 -67 94 -1 14 28 27 50 30 50 3
0 16 -23 30 -51 42 -81 56 -71 144 103 63 124 72 149 61 162 -19 24 -28 20
-58 -27z"/>
</g>
</svg>
