<?xml version="1.0" standalone="no"?>
<!DOCTYPE svg PUBLIC "-//W3C//DTD SVG 20010904//EN"
 "http://www.w3.org/TR/2001/REC-SVG-20010904/DTD/svg10.dtd">
<svg version="1.0" xmlns="http://www.w3.org/2000/svg"
 width="551.000000pt" height="285.000000pt" viewBox="0 0 551.000000 285.000000"
 preserveAspectRatio="xMidYMid meet">
<metadata>
Created by potrace 1.16, written by Peter Selinger 2001-2019
</metadata>
<g transform="translate(0.000000,285.000000) scale(0.100000,-0.100000)"
fill="#000000" stroke="none">
<path d="M0 1430 l0 -1420 2750 0 2750 0 0 1420 0 1420 -2750 0 -2750 0 0
-1420z m5011 1136 c0 -10 -292 -254 -465 -388 -74 -57 -132 -106 -129 -110 2
-5 -2 -8 -10 -8 -8 0 -25 -9 -38 -20 -22 -19 -23 -21 -6 -30 21 -14 22 -43 1
-64 -20 -21 -30 -20 -54 4 -11 11 -25 20 -30 20 -6 0 -50 -28 -98 -63 -486
-352 -1054 -678 -1572 -902 -160 -70 -165 -73 -168 -103 -4 -38 -22 -43 -22
-7 0 14 -5 25 -10 25 -16 0 -25 -31 -11 -39 7 -4 -4 -8 -23 -9 -19 -1 -38 2
-40 7 -3 5 -59 -10 -125 -33 -108 -37 -120 -44 -123 -66 -2 -18 -10 -26 -29
-28 -14 -2 -31 4 -38 12 -11 13 -17 13 -52 1 -22 -8 -113 -35 -202 -59 -409
-114 -815 -179 -1190 -193 -98 -3 -180 -10 -183 -15 -7 -11 -64 -10 -64 2 0 6
11 10 25 10 l25 0 0 135 0 135 -27 1 -28 2 28 4 27 4 0 135 0 134 -25 0 c-14
0 -25 5 -25 10 0 6 11 10 25 10 l25 0 0 130 0 130 -25 0 c-14 0 -25 5 -25 10
0 6 11 10 25 10 l25 0 0 130 0 130 -25 0 c-14 0 -25 5 -25 10 0 6 11 10 25 10
l25 0 0 135 0 135 -27 1 -28 2 28 4 27 4 0 135 0 134 -25 0 c-14 0 -25 5 -25
10 0 6 11 10 25 10 l25 0 0 130 0 130 -25 0 c-14 0 -25 5 -25 10 0 6 11 10 25
10 21 0 25 5 25 30 0 25 -4 30 -25 30 -14 0 -25 5 -25 11 0 6 14 9 33 7 l32
-3 3 -292 2 -293 23 -1 22 -2 -22 -4 -23 -4 0 -585 c0 -577 0 -584 20 -584 11
0 20 -4 20 -10 0 -5 -9 -10 -20 -10 -19 0 -20 -7 -20 -125 l0 -125 58 0 c312
1 813 71 1176 165 267 69 296 78 296 92 0 9 11 13 34 11 22 -1 42 5 54 15 10
9 34 17 53 18 19 0 56 8 84 18 42 15 46 18 26 24 -30 7 -25 41 7 43 19 1 19 1
2 -3 -28 -6 -25 -30 5 -35 20 -4 25 -1 25 14 0 25 31 36 44 16 8 -13 14 -14
35 -5 14 7 30 17 34 24 4 7 21 13 38 13 64 0 614 256 921 428 259 146 520 310
772 486 l160 111 -35 7 c-34 6 -34 6 6 5 33 -2 51 6 102 43 57 41 79 70 53 70
-5 0 -10 -6 -10 -13 0 -9 -14 -14 -40 -15 -39 -2 -40 -1 -40 32 l0 34 56 0
c47 -1 57 -4 65 -22 9 -21 9 -21 5 2 -3 17 1 22 16 22 11 0 16 -4 12 -11 -4
-8 -1 -8 12 -1 25 14 365 287 479 385 83 71 107 85 106 63z m19 -2346 c0 -16
-4 -30 -10 -30 -5 0 -10 9 -10 20 0 19 -7 20 -160 20 -159 0 -160 0 -161 -22
l-2 -23 -4 23 c-4 22 -6 22 -174 22 -162 0 -169 -1 -169 -20 0 -11 -4 -20 -10
-20 -5 0 -10 9 -10 20 0 19 -7 20 -170 20 -163 0 -170 -1 -170 -20 0 -11 -4
-20 -10 -20 -5 0 -10 9 -10 20 0 19 -7 20 -170 20 -163 0 -170 -1 -170 -20 0
-11 -4 -20 -10 -20 -5 0 -10 9 -10 20 0 19 -7 20 -170 20 -163 0 -170 -1 -170
-20 0 -11 -4 -20 -10 -20 -5 0 -10 9 -10 20 0 19 -7 20 -170 20 -169 0 -170 0
-171 -22 l-2 -23 -4 23 c-4 22 -6 22 -174 22 -162 0 -169 -1 -169 -20 0 -11
-4 -20 -10 -20 -5 0 -10 9 -10 20 0 19 -7 20 -170 20 -163 0 -170 -1 -170 -20
0 -11 -4 -20 -10 -20 -5 0 -10 9 -10 20 0 19 -7 20 -170 20 -163 0 -170 -1
-170 -20 0 -11 -4 -20 -10 -20 -5 0 -10 9 -10 20 0 19 -7 20 -170 20 -169 0
-170 0 -171 -22 l-2 -23 -4 23 c-4 21 -9 22 -82 22 -43 0 -119 3 -169 6 l-92
7 0 -27 c0 -14 -4 -26 -10 -26 -5 0 -10 11 -10 25 l0 25 -170 0 -170 0 0 -25
c0 -14 -4 -25 -10 -25 -5 0 -10 11 -10 25 l0 25 -170 0 -170 0 0 -25 c0 -14
-4 -25 -10 -25 -5 0 -10 14 -10 30 l0 30 2325 0 2325 0 0 -30z"/>
</g>
</svg>
