<svg xmlns="http://www.w3.org/2000/svg" viewBox="0 0 64 64" xmlns:v="https://vecta.io/nano"><style><![CDATA[.M{fill:#a00ae6}.N{fill:#c260ff}.O{fill:#d28aff}.P{fill:#f8ebff}.Q{fill:#e4b9ff}.R{fill:#64438e}]]></style><g class="P"><path d="M26.76 15.736H25.7v-1.05h1.05zm0-2.096H25.7V12.6h1.05zm0-2.097H25.7v-1.05h1.05zm-1.06 3.145h-1.05v-1.05h1.05zm0-2.098h-1.05v-1.05h1.05z"/><path d="M24.652 11.543h-1.05v-1.05h1.05zm-7.338 13.64h-1.05v-1.05h1.05z"/><path d="M23.604 12.59h-1.05v-1.05h1.05z"/><path d="M22.556 11.543h-1.05v-1.05h1.05zm-6.29 12.6h-1.05v-1.05h1.05zm0-11.543h-1.05v-1.05h1.05z"/><path d="M17.314 11.543h-1.05v-1.05h1.05zm-2.097 13.64h-1.05v-1.05h1.05z"/><path d="M14.17 24.133h-1.05v-1.05h1.05zm0-2.097h-1.05v-1.05h1.05zm0-7.348h-1.05v-1.05h1.05zm0-2.098h-1.05v-1.05h1.05z"/><path d="M15.217 11.543h-1.05v-1.05h1.05zm-2.117 0h-1.05v-1.05h1.05zm0 13.64h-1.05v-1.05h1.05zm0-2.097h-1.05v-1.05h1.05zm0-2.097h-1.05v-1.05h1.05zm0-5.252h-1.05v-1.05h1.05zm0-2.096h-1.05V12.6h1.05z"/></g><path d="M54.03 6.3H8.92v28.35h2.1v10.5h2.1v4.2h2.1v2.1h2.1v2.1h2.1v2.1h2.1v2.1H32v-.02h8.4v.02h2.1v-2.1h2.1v-2.1h2.1v-2.1h2.1v-2.1h2.1v-4.2H53v-10.5h2.1v-23.1h-1.05v1.05H53v-1.05h-1.05 3.15V6.3h-1.07zm-43 27.27H9.97v-1.05h1.05v1.05zm0-2.1H9.97v-1.05h1.05v1.05zm0-2.1H9.97v-1.05h1.05v1.05zm0-2.1H9.97v-1.05h1.05v1.05zm0-2.1H9.97v-1.05h1.05v1.05zm0-2.1H9.97v-1.05h1.05v1.05zm0-2.1H9.97v-1.05h1.05v1.05zm0-2.1H9.97v-1.05h1.05v1.05zm0-2.1H9.97v-1.05h1.05v1.05zm0-2.1H9.97v-1.05h1.05v1.05zm0-2.1H9.97v-1.05h1.05v1.05zm0-2.1H9.97V9.44h1.05v1.05zm0-2.1H9.97V7.34h1.05V8.4zm5.24-1.05h1.05V8.4h-1.05V7.34zm-2.1 0h1.05V8.4h-1.05V7.34zm-2.1 0h1.05V8.4h-1.05V7.34zm0 7.35h1.05v-1.05h-1.05V12.6h1.05v-1.05h-1.05V10.5h1.05v1.05h1.05V10.5h1.05v1.05h1.05V10.5h1.05v1.05h-1.05v1.05h-1.05v-1.05h-1.05v1.05h-1.05v1.05h1.05v1.05h-1.05v1.05h-1.05V14.7zm1.04 29.38h-1.05v-1.05h1.05v1.05zm0-2.1h-1.05v-1.05h1.05v1.05zm0-2.1h-1.05v-1.05h1.05v1.05zm0-2.1h-1.05v-1.05h1.05v1.05zm0-2.1h-1.05v-1.05h1.05v1.05zm2.1 12.6h-1.05V47.2h1.05v1.05zm2.1-23.08h-1.05v-1.05H15.2v1.05h-1.05v-1.05H13.1v1.05h-1.05v-1.05h1.05v-1.05h-1.05v-1.05h1.05v-1.05h-1.05v-1.05h1.05v1.05h1.05v1.05H13.1v1.05h1.05v1.05h1.05v-1.05h1.05v1.05h1.05v1.05zm0-2.1v-1.05h-1.05v-1.05H15.2v-1.05h-1.05v-1.05h1.05v1.05h1.05v1.05h1.05v1.05h1.05v1.05H17.3zm2.1-14.7h-1.05V7.34h1.05V8.4zM42.5 45.1v2.1h-2.1v-2.1h2.1zM40.4 7.34h1.05V8.4H40.4V7.34zm0 21v4.2h-1.05v-4.2h1.05zm-2.1-21h1.05V8.4H38.3V7.34zm0 36.73h-1.05v-2.1h2.1v2.1H38.3zm1.04 1.04v2.1h-2.1v-2.1h2.1zM38.3 29.38v2.1h-1.05v-2.1h1.05zM36.2 7.34h1.05V8.4H36.2V7.34zm0 31.48v2.1h-2.1v-2.1h2.1zm-1.05 5.25H34.1v-2.1h2.1v2.1h-1.05zm1.05 1.04v2.1h-2.1v-2.1h2.1zM34.1 7.34h1.05V8.4H34.1V7.34zm-4.2 12.6h4.2v1.05h-4.2v-1.05zm-1.05 2.1h6.3v1.05h-6.3v-1.05zM32 44.07h-1.05v-2.1h2.1v2.1H32zm1.05 1.04v2.1h-2.1v-2.1h2.1zM32 40.92h-1.05v-2.1h2.1v2.1H32zm0-3.15h-1.05v-2.1h2.1v2.1H32zm0-12.6h-1.05v-1.05h2.1v1.05H32zm-3.15 13.64h1.05v2.1h-2.1v-2.1h1.05zm0 5.25H27.8v-2.1h2.1v2.1h-1.05zm1.05 1.04v2.1h-2.1v-2.1h2.1zM26.75 7.34h1.05V8.4h-1.05V7.34zm-2.1 0h1.05V8.4h-1.05V7.34zm-2.1 0h1.05V8.4h-1.05V7.34zm0 3.15v1.05h1.05V10.5h1.05v1.05h1.05V10.5h1.05v1.05H25.7v1.05h1.05v1.05H25.7v1.05h1.05v1.05H25.7V14.7h-1.05v-1.05h1.05V12.6h-1.05v-1.05H23.6v1.05h-1.05v-1.05H21.5V10.5h1.06zm2.1 35.67V45.1h2.1v2.1h-2.1v-1.05zM23.6 32.52v-4.2h1.05v4.2H23.6zm2.1 11.55h-1.05v-2.1h2.1v2.1H25.7zm0-12.6v-2.1h1.05v2.1H25.7zM20.46 7.34h1.05V8.4h-1.05V7.34zm0 5.25h1.05v1.05h1.05v1.05h1.05v1.05h1.05v1.05H23.6v-1.05h-1.05V14.7H21.5v-1.05h-1.05V12.6zM23.6 45.1v2.1h-2.1v-2.1h2.1zm2.1 11.55h-1.05V55.6h1.05v1.05zm2.1 0h-1.05V55.6h1.05v1.05zm2.1 0h-1.05V55.6h1.05v1.05zm3.15-1.07h0-2.1v-1.05h2.1v1.03zm2.1 1.05H34.1V55.6h1.05v1.03zm0-3.13H34.1h0-1.05 0-5.25v-1.05h5.25v-.02h1.05v.02h2.1v1.05h-1.05zm2.1 3.13H36.2V55.6h1.05v1.03zm2.1 0H38.3V55.6h1.05v1.03zm0-5.23H34.1h0-1.05 0-8.4v-1.05H32v-.02h2.1v.02h5.25v1.05zm2.1 5.25H40.4V55.6h1.05v1.05zm0-7.35H34.1h0H32h0-10.5v-1.05h21v1.05h-1.06zm2.1 5.25H42.5V53.5h1.05v1.05zm0-46.17H42.5V7.34h1.05V8.4zm2.1 44.07H44.6V51.4h1.05v1.05zm0-44.07H44.6V7.34h1.05V8.4zm2.1 41.97H46.7V49.3h1.05v1.05zm0-41.97H46.7V7.34h1.05V8.4zm2.1 39.87H48.8V47.2h1.05v1.05zm0-2.1H48.8V45.1h1.05v1.05zm0-37.77H48.8V7.35h1.05V8.4zm3.14 5.25h1.05v1.05h-1.05v-1.05zm0 2.1h1.05v1.05h-1.05v-1.05zm0 2.1h1.05v1.05h-1.05v-1.05zm0 2.1h1.05v1.05h-1.05v-1.05zm0 2.1h1.05v1.05h-1.05v-1.05zm0 2.1h1.05v1.05h-1.05v-1.05zm0 2.1h1.05v1.05h-1.05v-1.05zm0 2.1h1.05v1.05h-1.05v-1.05zm0 2.1h1.05v1.05h-1.05v-1.05zm0 2.1h1.05v1.05h-1.05v-1.05zm-1.05 11.55h-1.05v-1.05h1.05v1.05zm0-2.1h-1.05v-1.05h1.05v1.05zm0-2.1h-1.05v-1.05h1.05v1.05zm0-2.1h-1.05v-1.05h1.05v1.05zm0-3.15v1.05h-1.05v-1.05h1.05zm0-26.23h-1.05V7.35h1.05V8.4zm2.1 2.1h-1.05V9.44h1.05v1.05zm0-2.1h-1.05V7.34h1.05V8.4z" fill="#eccdff"/><g class="R"><path d="M42.5 59.8v2.1h2.1v-2.1h-1.05z"/><path d="M44.6 57.7v2.1h2.1v-2.1h-1.05z"/><path d="M46.7 55.6v2.1h2.1v-2.1h-1.05z"/><path d="M48.8 53.5v2.1h2.1v-2.1h-1.05z"/><path d="M50.9 51.4v2.1H53v-2.1h-1.05zm4.18-6.3v4.2h2.1v-4.2h-1.05z"/><path d="M57.18 34.62v10.5h2.1v-10.5h-1.05zm-4.2 14.68v2.1h2.1v-2.1h-1.05zM40.4 61.9H23.6V64h18.9v-2.1h-1.05z"/><path d="M21.5 64h2.1v-2.1h-2.1v1.05zM59.28 0H4.72v2.1h54.56V1.05z"/><path d="M60.33 2.1h-1.05v32.52h2.1V2.1zm-57.7 0v32.52h2.1V2.1H3.67z"/><path d="M4.72 36.72v8.4h2.1v-10.5h-2.1v1.05z"/><path d="M6.82 47.2v2.1h2.1v-4.2h-2.1v1.05z"/><path d="M8.92 51.4h2.1v-2.1h-2.1v1.05z"/><path d="M11.02 53.5h2.1v-2.1h-2.1v1.05z"/><path d="M13.1 55.6h2.1v-2.1h-2.1v1.05z"/><path d="M15.2 57.7h2.1v-2.1h-2.1v1.05z"/><path d="M17.3 59.8h2.1v2.1h2.1v-2.1h-2.1v-2.1h-2.1v1.05z"/></g><g class="N"><path d="M29.9 38.82h-2.1v1.05h2.1zm4.2 1.05h2.1v-1.05h-2.1zm18.88-17.84h1.05v1.05h-1.05zm0 2.1h1.05v1.05h-1.05zm0-4.2h1.05v1.05h-1.05zm0-2.1h1.05v1.05h-1.05zm0-2.1h1.05v1.05h-1.05zm0-2.1h1.05v1.05h-1.05zm0-2.1h1.05v1.05h-1.05zm-43 12.6h1.05v1.05H9.97zm27.28 17.84v1.05h2.1v-1.05H38.3zm3.15 4.2h2.1V45.1h-2.1zm-1.06-1.06h-2.1v1.05h2.1zm7.36 4.2h1.05v1.05H46.7zm2.1-4.2h1.05v1.05H48.8zm0 2.1h1.05v1.05H48.8zm-18.9-5.23h-2.1v1.05h2.1zm-5.24 1.05h2.1v-1.05h-2.1zm5.24 2.08h-2.1v1.05h2.1zm-5.24 1.06h2.1V45.1h-2.1zm-1.06 0V45.1h-2.1v1.05h1.05zm3.15 9.44h1.05v1.05h-1.05zm7.35-12.58h2.1v-1.05h-2.1zm0 3.14h2.1V45.1h-2.1zm-9.44 9.44h1.05v1.05h-1.05zM9.97 22.03h1.05v1.05H9.97zm0-2.1h1.05v1.05H9.97zm0-2.1h1.05v1.05H9.97zm0-2.1h1.05v1.05H9.97zm0-2.1h1.05v1.05H9.97zm0-2.1h1.05v1.05H9.97zM34.1 55.6h1.05v1.05H34.1zm2.1 0h1.05v1.05H36.2zm8.4-4.2h1.05v1.05H44.6zm-2.1 2.1h1.05v1.05H42.5zm-2.1 2.1h1.05v1.05H40.4zm-2.1 0h1.05v1.05H38.3zm-9.45 0h1.05v1.05h-1.05zm4.2-18.88v-1.05h-2.1v1.05H32zm-2.1 3.15h2.1v-1.05h-2.1zm0 3.15h2.1v-1.05h-2.1zm0 3.14h2.1V45.1h-2.1zM42.5 57.7v2.1h2.1v-2.1h-1.05z"/><path d="M44.6 55.6v2.1h2.1v-2.1h-1.05z"/><path d="M46.7 53.5v2.1h2.1v-2.1h-1.05z"/><path d="M48.8 51.4v2.1h2.1v-2.1h-1.05z"/><path d="M50.9 49.3v2.1h2.1v-2.1h-1.05z"/><path d="M52.98 45.1v4.2h2.1v-4.2h-1.05z"/><path d="M55.08 34.62v10.5h2.1v-10.5h-1.05zM40.4 59.8H23.6v2.1H32v-.02h4.2v.02h6.3v-2.1h-1.05zm10.5-18.88h1.05v1.05H50.9zm0 2.1h1.05v1.05H50.9zm0-6.3h1.05v1.05H50.9zm0 2.1h1.05v1.05H50.9zm0-4.2h1.05v1.05H50.9zm2.08-8.4h1.05v1.05h-1.05z"/><path d="M52.98 32.52h1.05v1.05h-1.05zm0-2.1h1.05v1.05h-1.05zm0-2.1h1.05v1.05h-1.05zm0-18.9h1.05v1.05h-1.05zm-4.18-2.1h1.05V8.4H48.8zm4.18-.01h1.05V8.4h-1.05zm-2.08 0h1.05V8.4H50.9zm7.33-5.24H4.72v32.52h2.1V4.2h50.36v30.42h2.1V2.1zM9.97 9.44h1.05v1.05H9.97zm16.78-2.1h1.05V8.4h-1.05zm-2.1 0h1.05V8.4h-1.05zm-2.1 0h1.05V8.4h-1.05zm-2.1 0h1.05V8.4h-1.05zm-2.1 0h1.05V8.4h-1.05zm-2.1 0h1.05V8.4h-1.05zm-2.1 0h1.05V8.4h-1.05z"/><path d="M12.07 7.34h1.05V8.4h-1.05zm-2.1 0h1.05V8.4H9.97zm36.73 0h1.05V8.4H46.7zm-2.1 0h1.05V8.4H44.6zm-2.1 0h1.05V8.4H42.5zm-2.1 0h1.05V8.4H40.4zm-2.1 0h1.05V8.4H38.3zm-2.1 0h1.05V8.4H36.2zm-2.1 0h1.05V8.4H34.1zM6.82 36.72v8.4h2.1v-10.5h-2.1v1.05z"/><path d="M8.92 47.2v2.1h2.1v-4.2h-2.1v1.05z"/><path d="M11.02 51.4h2.1v-2.1h-2.1v1.05z"/><path d="M13.1 53.5h2.1v-2.1h-2.1v1.05z"/><path d="M15.2 55.6h2.1v-2.1h-2.1v1.05z"/><path d="M17.3 57.7h2.1v-2.1h-2.1v1.05z"/><path d="M19.4 59.8h2.1v2.1h2.1v-2.1h-2.1v-2.1h-2.1v1.05zm-3.14-10.5h1.05v1.05h-1.05zm2.1 2.1h1.05v1.05h-1.05zm2.1 2.1h1.05v1.05h-1.05zm2.1 2.1h1.05v1.05h-1.05zm-8.4-10.5h1.05v1.05h-1.05zm0 2.1h1.05v1.05h-1.05zm-2.1-12.58h1.05v1.05h-1.05zm0 2.1h1.05v1.05h-1.05zm0 2.1h1.05v1.05h-1.05zm0 2.1h1.05v1.05h-1.05zm0 2.1h1.05v1.05h-1.05zm-2.1-16.8h1.05v1.05H9.97zm0 6.3h1.05v1.05H9.97zm0-2.1h1.05v1.05H9.97zm0-2.1h1.05v1.05H9.97z"/></g><g class="M"><path d="M32 19.93h-2.1v1.05h4.2v-1.05h-1.05zm1.05 4.2h-2.1v1.05h2.1zm-6.3 6.3v-1.05H25.7v2.1h1.05zm-2.1 1.05v-3.15H23.6v4.2h1.05zm13.64-1.05v-1.05h-1.05v2.1h1.05zm2.1 1.05v-3.15h-1.05v4.2h1.05zm-10.5 9.44v-1.05h-2.1v1.05h1.05zm4.2-1.05v1.05h2.1v-1.05h-1.05zM23.6 15.74h1.05v1.05H23.6z"/><path d="M22.56 14.7h1.05v1.05h-1.05z"/><path d="M21.5 13.64h1.05v1.05H21.5z"/><path d="M20.46 12.6h1.05v1.05h-1.05zm35.67-8.4H6.82v30.42h2.1V6.3h46.16v28.32h2.1V4.2zM17.3 22.03h1.05v1.05H17.3z"/><path d="M16.26 20.98h1.05v1.05h-1.05zm-1.06-1.05h1.05v1.05H15.2zm37.78 14.7v10.5h2.1v-10.5h-1.05zm-13.64 9.45v-1.05h-2.1v1.05h1.05z"/><path d="M40.4 46.16v1.05h2.1v-1.05h-1.05zm10.5-1.06v4.2H53v-4.2h-1.05zm-11.56 2.1v-1.05h-2.1v1.05h1.05zm1.06 1.06H21.5v1.05h21v-1.05h-1.05z"/><path d="M48.8 49.3v2.1h2.1v-2.1h-1.05zm-11.55 1.06H34.1v-.02h-1.05v.02h-8.4v1.05h14.7v-1.05H38.3zm7.35 3.14v2.1h2.1v-2.1h-1.05z"/><path d="M46.7 51.4v2.1h2.1v-2.1h-1.05zm-16.8-7.33v-1.05h-2.1v1.05h1.05zm-5.24 0h2.1v-1.05h-2.1zm5.24 3.13v-1.05h-2.1v1.05h1.05zm-3.15 0v-1.05h-2.1v1.05h1.04zm-5.25-1.04v1.05h2.1v-1.05h-1.05zm14.7-3.14h-2.1v1.05h2.1zm-2.1 3.14v1.05h2.1v-1.05h-1.05zm0 6.3h-6.3v1.05h8.4v-1.05h-1.05zm8.4 3.14v2.1h2.1v-2.1h-1.05zm-21 0h-2.1v2.1h2.1v-1.04z"/><path d="M19.4 53.5h-2.1v2.1h2.1v-1.05z"/><path d="M17.3 51.4h-2.1v2.1h2.1v-1.05z"/><path d="M15.2 49.3h-2.1v2.1h2.1v-1.05z"/><path d="M13.1 47.2v-2.1H11v4.2h2.1v-1.05zm17.85-24.12h4.2v-1.05h-6.3v1.05h1.05zm0 31.48v1.05h2.1v-1.05H32zm9.45 3.14H21.5v2.1h21v-2.1h-1.05z"/><path d="M33.05 43.02h-2.1v1.05h2.1zm0-3.15h-2.1v1.05h2.1zm0-3.15h-2.1v1.05h2.1zm-2.1 9.44v1.05h2.1v-1.05H32zM14.16 18.9h1.05v1.05h-1.05zm-3.14 24.12v-8.4h-2.1v10.5h2.1v-1.04zm36.72-14.7h-4.2v1.05H42.5v7.35h1.05v1.05h4.2v-1.05h1.05v-7.35h-1.05v-1.05zm-1.05 3.15v4.2h-2.1v-5.25h2.1v1.05zm-25.2 4.2v-7.35h-1.05v-1.05h-4.2v1.05H15.2v8.4h2.1v-3.15h2.1v3.15h2.1v-1.05zm-4.2-5.24v-1.05h2.1v2.1h-2.1v-1.05zm13.65-12.6h2.1V16.8h1.05v-1.05h1.05V10.5H34.1V9.44h-1.05V8.4h-4.2v9.45h2.1zm0-3.15v-4.2H32v1.05h1.05v3.15H32v1.05h-1.05V14.7z"/></g><g class="R"><path d="M40.396 39.87h-1.05v-1.05h1.05z"/><path d="M41.445 40.918h-1.05v-1.05h1.05z"/><path d="M42.493 41.966h-1.05v-1.05h1.05z"/><path d="M43.542 43.015h-1.05v-1.05h1.05z"/><path d="M44.6 44.063h-1.05v-1.05h1.05z"/></g><g class="N"><path d="M41.445 38.82h-1.05v-1.05h1.05z"/><path d="M42.493 39.87h-1.05v-1.05h1.05z"/><path d="M43.542 40.918h-1.05v-1.05h1.05z"/></g><path d="M44.6 41.966h-1.05v-1.05h1.05z" class="P"/><path d="M45.64 43.015h-1.05v-1.05h1.05z" class="N"/><g class="M"><path d="M40.396 38.82h-1.05v-1.05h1.05z"/><path d="M41.445 39.87h-1.05v-1.05h1.05z"/><path d="M42.493 40.918h-1.05v-1.05h1.05z"/><path d="M43.542 41.966h-1.05v-1.05h1.05z"/><path d="M44.6 43.015h-1.05v-1.05h1.05z"/><path d="M45.64 44.063h-1.05v-1.05h1.05z"/></g><path d="M45.64 45.1h-1.05v-1.05h1.05z" class="R"/><path d="M46.688 44.062h-1.05v-1.05h1.05z" class="N"/><path d="M46.688 45.1h-1.05v-1.05h1.05z" class="M"/><g class="R"><path d="M34.095 33.578h-1.05v-1.05h1.05z"/><path d="M35.144 34.627h-1.05v-1.05h1.05z"/><path d="M36.192 35.675h-1.05v-1.05h1.05z"/><path d="M37.24 36.724h-1.05v-1.05h1.05z"/><path d="M38.3 37.772h-1.05v-1.05h1.05z"/><path d="M39.348 38.82h-1.05v-1.05h1.05z"/></g><g class="N"><path d="M35.144 32.52h-1.05v-1.05h1.05z"/><path d="M36.192 33.578h-1.05v-1.05h1.05z"/></g><g class="P"><path d="M37.24 34.627h-1.05v-1.05h1.05z"/><path d="M38.3 35.675h-1.05v-1.05h1.05z"/><path d="M39.348 36.724h-1.05v-1.05h1.05z"/></g><path d="M40.396 37.772h-1.05v-1.05h1.05z" class="N"/><g class="M"><path d="M34.095 32.52h-1.05v-1.05h1.05z"/><path d="M35.144 33.578h-1.05v-1.05h1.05z"/><path d="M36.192 34.627h-1.05v-1.05h1.05z"/><path d="M37.24 35.675h-1.05v-1.05h1.05z"/><path d="M38.3 36.724h-1.05v-1.05h1.05z"/><path d="M39.348 37.772h-1.05v-1.05h1.05z"/></g><g class="R"><path d="M27.804 27.278h-1.05v-1.05h1.05z"/><path d="M28.853 28.326h-1.05v-1.05h1.05z"/><path d="M29.9 29.374h-1.05v-1.05h1.05z"/><path d="M30.95 30.423H29.9v-1.05h1.05z"/><path d="M31.998 31.47h-1.05v-1.05h1.05z"/><path d="M33.047 32.52h-1.05v-1.05h1.05z"/></g><path d="M28.853 26.23h-1.05v-1.05h1.05z" class="N"/><g class="P"><path d="M29.9 27.278h-1.05v-1.05h1.05z"/><path d="M30.95 28.326H29.9v-1.05h1.05z"/></g><path d="M31.998 29.374h-1.05v-1.05h1.05z" class="N"/><path d="M33.047 30.423h-1.05v-1.05h1.05z" class="R"/><path d="M34.095 31.47h-1.05v-1.05h1.05z" class="N"/><g class="M"><path d="M27.804 26.23h-1.05v-1.05h1.05z"/><path d="M28.853 27.278h-1.05v-1.05h1.05z"/><path d="M29.9 28.326h-1.05v-1.05h1.05z"/><path d="M30.95 29.374H29.9v-1.05h1.05z"/></g><g class="R"><path d="M31.998 30.423h-1.05v-1.05h1.05z"/><path d="M33.047 31.47h-1.05v-1.05h1.05z"/></g><path d="M22.556 22.035h-1.05v-1.05h1.05z" class="O"/><g class="R"><path d="M24.66 24.132h-1.05v-1.05h1.05z"/><path d="M25.707 25.18h-1.05v-1.05h1.05z"/><path d="M26.756 26.23h-1.05v-1.05h1.05z"/></g><path d="M23.605 20.987h-1.05v-1.05h1.05z" class="O"/><path d="M25.707 23.083h-1.05v-1.05h1.05z" class="N"/><path d="M26.756 24.132h-1.05v-1.05h1.05z" class="P"/><path d="M27.804 25.18h-1.05v-1.05h1.05z" class="N"/><path d="M18.358 15.734h-1.05v-1.05h1.05z" fill="#44341f"/><path d="M22.556 20.987h-1.05v-1.05h1.05z" class="Q"/><g class="O"><path d="M21.507 20.986h-1.05v-1.05h1.05z"/><path d="M22.556 19.938h-1.05v-1.05h1.05z"/></g><path d="M21.507 19.938h-1.05v-1.05h1.05z" class="Q"/><g class="O"><path d="M20.458 19.937h-1.05v-1.05h1.05z"/><path d="M21.507 18.888h-1.05v-1.05h1.05z"/></g><path d="M20.458 18.888h-1.05v-1.05h1.05z" class="P"/><g class="O"><path d="M19.41 18.888h-1.05v-1.05h1.05z"/><path d="M20.458 17.83h-1.05v-1.05h1.05z"/></g><path d="M19.41 17.83h-1.05v-1.05h1.05z" class="P"/><g class="O"><path d="M18.36 17.84h-1.05v-1.05h1.05z"/><path d="M19.41 16.78h-1.05v-1.05h1.05z"/></g><path d="M18.36 16.78h-1.05v-1.05h1.05z" class="P"/><g class="O"><path d="M17.312 16.78h-1.05v-1.05h1.05z"/><path d="M18.36 15.73H17.3v-1.05h1.05z"/></g><path d="M17.312 15.73h-1.05v-1.05h1.05z" class="Q"/><path d="M19.41 15.735h-1.05v-1.05h1.05z" class="M"/><path d="M19.41 14.686h-1.05v-1.05h1.05z" class="P"/><path d="M18.362 14.686h-1.05v-1.05h1.05z" class="M"/><path d="M20.453 15.73h-1.05v-1.05h1.05z" class="Q"/><path d="M21.508 15.735h-1.05v-1.05h1.05z" class="O"/><path d="M21.507 14.686h-1.05v-1.05h1.05z" class="N"/><path d="M20.46 14.686h-1.05v-1.05h1.05z" class="O"/><path d="M21.508 17.83h-1.05v-1.05h1.05z" class="M"/><path d="M21.507 16.782h-1.05v-1.05h1.05z" class="P"/><path d="M20.46 16.782H19.4v-1.05h1.05zm3.144 3.156h-1.05v-1.05h1.05z" class="M"/><path d="M23.604 18.89h-1.05v-1.05h1.05z" class="P"/><path d="M22.555 18.89h-1.05v-1.05h1.05z" class="M"/><path d="M22.552 17.83h-1.05v-1.05h1.05z" class="P"/><path d="M23.604 17.83h-1.05v-1.05h1.05z" class="O"/><path d="M23.604 16.782h-1.05v-1.05h1.05z" class="N"/><path d="M22.555 16.782h-1.05v-1.05h1.05z" class="O"/><path d="M22.552 15.73h-1.05v-1.05h1.05z" class="N"/><path d="M23.604 15.73h-1.05v-1.05h1.05z" class="M"/><path d="M23.604 14.68h-1.05v-1.05h1.05z" class="N"/><path d="M22.555 14.68h-1.05v-1.05h1.05z" class="M"/><g class="O"><path d="M16.263 15.73h-1.05v-1.05h1.05z"/><path d="M17.31 14.682h-1.05v-1.05h1.05z"/></g><path d="M16.263 14.682h-1.05v-1.05h1.05z" class="P"/><path d="M17.314 17.83h-1.05v-1.05h1.05z" class="M"/><path d="M16.265 17.83h-1.05v-1.05h1.05z" class="Q"/><path d="M16.265 16.782h-1.05v-1.05h1.05z" class="M"/><path d="M17.308 18.89h-1.05v-1.05h1.05z" class="Q"/><path d="M17.314 19.93h-1.05v-1.05h1.05z" class="O"/><path d="M16.265 19.93h-1.05v-1.05h1.05z" class="N"/><path d="M16.265 18.882h-1.05v-1.05h1.05z" class="O"/><path d="M19.41 19.938h-1.05v-1.05h1.05z" class="M"/><path d="M18.362 19.938h-1.05v-1.05h1.05z" class="Q"/><path d="M18.362 18.9h-1.05v-1.05h1.05zm3.146 3.145h-1.05v-1.05h1.05z" class="M"/><path d="M20.46 22.034h-1.05v-1.05h1.05z" class="Q"/><path d="M20.46 20.986h-1.05v-1.05h1.05z" class="M"/><path d="M19.4 20.986h-1.05v-1.05h1.05z" class="Q"/><path d="M19.415 22.035h-1.05v-1.05h1.05z" class="O"/><path d="M18.366 22.034h-1.05v-1.05h1.05z" class="N"/><path d="M18.366 20.986h-1.05v-1.05h1.05z" class="O"/><path d="M17.318 20.986h-1.05v-1.05h1.05z" class="N"/><path d="M17.312 22.035h-1.05v-1.05h1.05z" class="M"/><path d="M16.263 22.034h-1.05v-1.05h1.05z" class="N"/><path d="M16.263 20.986h-1.05v-1.05h1.05zm-1.046-5.252h-1.05v-1.05h1.05z" class="M"/><path d="M15.217 16.783h-1.05v-1.05h1.05z" class="Q"/><path d="M15.217 17.83h-1.05v-1.05h1.05z" class="O"/><path d="M15.217 18.89h-1.05v-1.05h1.05z" class="N"/><path d="M15.217 19.938h-1.05v-1.05h1.05z" class="M"/><path d="M15.217 20.986h-1.05v-1.05h1.05z" class="N"/><path d="M17.307 13.633h-1.05v-1.05h1.05z" class="M"/><path d="M18.355 13.633h-1.05v-1.05h1.05z" class="Q"/><path d="M19.404 13.633h-1.05v-1.05h1.05z" class="O"/><path d="M20.452 13.633h-1.05v-1.05h1.05z" class="N"/><path d="M21.5 13.633h-1.05v-1.05h1.05z" class="M"/><path d="M22.55 13.633H21.5v-1.05h1.05zm2.106 2.107h-1.05V14.7h1.05z" class="N"/><path d="M24.656 16.792h-1.05v-1.05h1.05z" class="M"/><path d="M24.656 17.844h-1.05v-1.05h1.05z" class="N"/><path d="M24.656 18.897h-1.05v-1.05h1.05z" class="O"/><path d="M24.656 19.94h-1.05V18.9h1.05z" class="Q"/><path d="M24.656 20.993h-1.05v-1.05h1.05z" class="M"/><path d="M23.605 22.035h-1.05v-1.05h1.05z" class="P"/><g class="M"><path d="M25.707 24.132h-1.05v-1.05h1.05z"/><path d="M26.756 25.18h-1.05v-1.05h1.05z"/></g><g class="O"><path d="M23.6 20.98v1.05h-1.04v1.05h2.1v-2.1zm-9.44-7.34h1.05v1.05h-1.05z"/><path d="M15.2 20.98h-1.05v2.1h2.1v-1.05H15.2zm1.06-7.34V12.6h-2.1v1.05h1.05zm8.4 0V12.6h-2.1v1.05h1.05z"/><path d="M23.6 13.64h1.05v1.05H23.6z"/></g><path d="M17.314 23.083h-1.05v-1.05h1.05z" class="N"/><path d="M18.362 23.083h-1.05v-1.05h1.05z" class="M"/><path d="M19.41 23.083h-1.05v-1.05h1.05z" class="N"/><path d="M20.46 23.083h-1.05v-1.05h1.05z" class="O"/><path d="M21.507 23.083h-1.05v-1.05h1.05z" class="Q"/><path d="M22.556 23.083h-1.05v-1.05h1.05z" class="M"/><g fill="#d9d35e"><path d="M36.2 24.13h1.05v1.05H36.2z"/><path d="M35.15 25.18h1.05v1.05h-1.05zm-12.6 12.6h1.05v1.05h-1.05z"/><path d="M21.5 38.82h1.05v1.05H21.5z"/><path d="M20.46 39.87h1.05v1.05h-1.05zm-2.1 2.1h1.05v1.05h-1.05z"/><path d="M17.3 43.02h1.05v1.05H17.3zm11.55-11.54h1.05v1.05h-1.05z"/><path d="M27.8 32.53h1.05v1.05H27.8zm-4.2 4.2h1.05v1.05H23.6zm8.4-8.4h1.05v1.05H32z"/><path d="M30.95 29.38H32v1.05h-1.05z"/><path d="M29.9 30.43h1.05v1.05H29.9zm10.5-10.5h1.05V21H40.4z"/><path d="M39.34 21h1.05v1.05h-1.05z"/><path d="M38.3 22.04h1.05v1.05H38.3zm6.3-6.3h1.05v1.05H44.6z"/><path d="M45.64 14.7h1.05v1.05h-1.05zm-8.4 5.24h1.05V21h-1.05z"/><path d="M36.2 18.9h1.05v1.05H36.2z"/><path d="M35.15 17.84h1.05v1.05h-1.05zm2.1 0h1.05v1.05h-1.05z"/><path d="M36.2 16.8h1.05v1.05H36.2zm2.1 0h1.05v1.05H38.3zm-1.06-1.06h1.05v1.05h-1.05zm2.1 0h1.05v1.05h-1.05z"/><path d="M38.3 14.7h1.05v1.05H38.3zm2.1 0h1.05v1.05H40.4z"/><path d="M39.34 13.64h1.05v1.05h-1.05zm2.1 0h1.05v1.05h-1.05zm1.06-1.04h1.05v1.05H42.5z"/><path d="M43.54 11.54h1.05v1.05h-1.05z"/></g><g fill="#ddedd6"><path d="M37.24 23.08h1.05v1.05h-1.05zm4.2-4.18h1.05v1.05h-1.05zm1.06-1.06h1.05v1.05H42.5z"/><path d="M43.54 16.8h1.05v1.05h-1.05zm-3.14-4.2h1.05v1.05H40.4z"/><path d="M41.44 11.54h1.05v1.05h-1.05zm1.06-1.04h1.05v1.05H42.5zm-2.1 12.58h1.05v1.05H40.4zm-21 17.84h1.05v1.05H19.4zm7.35-7.34h1.05v1.05h-1.05z"/><path d="M25.7 34.63h1.05v1.05H25.7z"/><path d="M24.65 35.68h1.05v1.05h-1.05zM46.7 13.64h1.05v1.05H46.7zm-12.6 12.6h1.05v1.05H34.1z"/><path d="M33.05 27.28h1.05v1.05h-1.05z"/></g><g fill="#d27d2c"><path d="M23.6 37.77h1.05v1.05H23.6z"/><path d="M22.55 38.82h1.05v1.05h-1.05z"/><path d="M21.5 39.87h1.05v1.05H21.5z"/><path d="M20.46 40.92h1.05v1.05h-1.05zm-1.06 1.05h1.05v1.05H19.4z"/><path d="M18.36 43.02h1.05v1.05h-1.05z"/><path d="M17.3 44.07h1.05v1.05H17.3zm12.6-12.6h1.05v1.05H29.9z"/><path d="M28.85 32.53h1.05v1.05h-1.05z"/><path d="M27.8 33.58h1.05v1.05H27.8z"/><path d="M26.75 34.63h1.05v1.05h-1.05z"/><path d="M25.7 35.68h1.05v1.05H25.7z"/><path d="M24.65 36.72h1.05v1.05h-1.05zM36.2 25.18h1.05v1.05H36.2z"/><path d="M35.15 26.23h1.05v1.05h-1.05z"/><path d="M34.1 27.28h1.05v1.05H34.1z"/><path d="M33.05 28.33h1.05v1.05h-1.05z"/><path d="M32 29.38h1.05v1.05H32z"/><path d="M30.95 30.43H32v1.05h-1.05zm10.5-10.5h1.05V21h-1.05zm1.06-1.04h1.05v1.05H42.5z"/><path d="M43.54 17.84h1.05v1.05h-1.05zm1.06-1.04h1.05v1.05H44.6zm1.04-1.06h1.05v1.05h-1.05zm1.06-1.04h1.05v1.05H46.7z"/><path d="M47.74 13.64h1.05v1.05h-1.05zM37.24 21h1.05v1.05h-1.05z"/><path d="M38.3 19.94h1.05V21H38.3zm-2.1 0h1.05V21H36.2z"/><path d="M37.24 18.9h1.05v1.05h-1.05zm-2.1 0h1.05v1.05h-1.05z"/><path d="M36.2 17.84h1.05v1.05H36.2z"/><path d="M37.24 16.8h1.05v1.05h-1.05zm1.06-1.06h1.05v1.05H38.3z"/><path d="M39.34 14.7h1.05v1.05h-1.05z"/><path d="M40.4 13.64h1.05v1.05H40.4z"/><path d="M41.44 12.6h1.05v1.05h-1.05zm1.06-1.06h1.05v1.05H42.5z"/><path d="M43.54 10.5h1.05v1.05h-1.05zM40.4 24.13h1.05v1.05H40.4z"/><path d="M41.44 23.08h1.05v1.05h-1.05zm0 2.1h1.05v1.05h-1.05zm1.06-1.05h1.05v1.05H42.5zm0 2.1h1.05v1.05H42.5z"/><path d="M43.54 25.18h1.05v1.05h-1.05zm1.06-1.05h1.05v1.05H44.6z"/><path d="M45.64 23.08h1.05v1.05h-1.05zm1.06-1.04h1.05v1.05H46.7z"/><path d="M47.74 21h1.05v1.05h-1.05z"/><path d="M48.8 19.94h1.05V21H48.8z"/><path d="M49.83 18.9h1.05v1.05h-1.05z"/><path d="M50.88 17.84h1.05v1.05h-1.05zM40.4 21h1.05v1.05H40.4z"/><path d="M39.34 22.04h1.05v1.05h-1.05z"/><path d="M38.3 23.08h1.05v1.05H38.3z"/><path d="M37.24 24.13h1.05v1.05h-1.05z"/></g><g fill="#854c30"><path d="M23.6 38.82h1.05v1.05H23.6z"/><path d="M22.55 39.87h1.05v1.05h-1.05z"/><path d="M21.5 40.92h1.05v1.05H21.5z"/><path d="M20.46 41.97h1.05v1.05h-1.05zm-1.06 1.05h1.05v1.05H19.4z"/><path d="M18.36 44.07h1.05v1.05h-1.05zM29.9 32.53h1.05v1.05H29.9z"/><path d="M28.85 33.58h1.05v1.05h-1.05z"/><path d="M27.8 34.63h1.05v1.05H27.8z"/><path d="M26.75 35.68h1.05v1.05h-1.05z"/><path d="M25.7 36.72h1.05v1.05H25.7z"/><path d="M24.65 37.77h1.05v1.05h-1.05zM36.2 26.23h1.05v1.05H36.2z"/><path d="M35.15 27.28h1.05v1.05h-1.05z"/><path d="M34.1 28.33h1.05v1.05H34.1z"/><path d="M33.05 29.38h1.05v1.05h-1.05z"/><path d="M32 30.43h1.05v1.05H32z"/><path d="M30.95 31.48H32v1.05h-1.05zM41.44 21h1.05v1.05h-1.05z"/><path d="M40.4 22.04h1.05v1.05H40.4z"/><path d="M39.34 23.08h1.05v1.05h-1.05z"/><path d="M38.3 24.13h1.05v1.05H38.3z"/><path d="M37.24 25.18h1.05v1.05h-1.05zm5.26-5.24h1.05V21H42.5z"/><path d="M43.54 18.9h1.05v1.05h-1.05zm1.06-1.06h1.05v1.05H44.6z"/><path d="M45.64 16.8h1.05v1.05h-1.05zm1.06-1.06h1.05v1.05H46.7z"/><path d="M47.74 14.7h1.05v1.05h-1.05zM38.3 21h1.05v1.05H38.3zm3.14 3.13h1.05v1.05h-1.05zm1.06 1.05h1.05v1.05H42.5z"/><path d="M43.54 26.23h1.05v1.05h-1.05zm0-2.1h1.05v1.05h-1.05zm1.06 1.05h1.05v1.05H44.6zm0-2.1h1.05v1.05H44.6z"/><path d="M45.64 24.13h1.05v1.05h-1.05zm0-2.1h1.05v1.05h-1.05zm1.06 1.04h1.05v1.05H46.7zm0-2.08h1.05v1.05H46.7z"/><path d="M47.74 22.04h1.05v1.05h-1.05zm0-2.1h1.05V21h-1.05z"/><path d="M48.8 21h1.05v1.05H48.8zm0-2.1h1.05v1.05H48.8z"/><path d="M49.83 19.94h1.05V21h-1.05zm0-2.1h1.05v1.05h-1.05z"/><path d="M50.88 18.9h1.05v1.05h-1.05z"/></g></svg>