<?xml version="1.0" standalone="no"?>
<!DOCTYPE svg PUBLIC "-//W3C//DTD SVG 20010904//EN"
 "http://www.w3.org/TR/2001/REC-SVG-20010904/DTD/svg10.dtd">
<svg version="1.0" xmlns="http://www.w3.org/2000/svg"
 width="788.000000pt" height="440.000000pt" viewBox="0 0 788.000000 440.000000"
 preserveAspectRatio="xMidYMid meet">
<metadata>
Created by potrace 1.16, written by Peter Selinger 2001-2019
</metadata>
<g transform="translate(0.000000,440.000000) scale(0.100000,-0.100000)"
fill="#000000" stroke="none">
<path d="M0 3461 c0 -933 0 -940 20 -946 11 -4 18 -10 15 -15 -3 -5 -1 -11 4
-14 5 -3 12 4 15 17 7 21 7 21 16 2 5 -11 9 -45 9 -76 l1 -57 -35 -4 c-22 -2
-34 0 -32 6 2 6 16 10 31 8 15 -2 26 2 26 9 0 7 -11 10 -30 7 -16 -3 -30 -1
-30 4 0 4 6 8 13 8 9 0 9 2 0 8 -6 4 -13 25 -16 47 -2 22 -4 -524 -5 -1213
l-2 -1252 2936 0 c2663 0 2934 2 2920 16 -20 20 -21 35 -1 28 8 -4 15 -11 15
-17 0 -6 3 -7 6 -4 4 4 1 13 -6 22 -9 11 -10 18 -1 29 9 11 6 13 -13 11 -23
-3 -24 -1 -15 22 5 13 6 35 3 49 -5 21 -9 23 -22 12 -13 -11 -14 -9 -9 17 7
28 6 29 -8 11 -19 -25 -19 -18 1 29 8 20 13 42 11 48 -3 7 -10 0 -16 -16 -13
-33 -25 -36 -16 -4 6 21 6 21 -14 -3 -11 -14 -21 -20 -21 -14 0 6 9 21 20 34
13 15 20 18 20 9 0 -12 2 -12 9 0 5 7 13 11 19 7 5 -3 13 1 16 10 9 23 8 24
-11 17 -16 -6 -16 -5 -4 10 7 9 10 24 7 33 -4 9 -1 23 5 30 9 11 8 14 -5 14
-22 0 -20 7 9 42 37 44 30 57 -10 18 -19 -19 -35 -42 -35 -52 0 -10 -4 -18
-10 -18 -20 0 -9 24 30 66 41 45 52 71 25 60 -19 -7 -19 5 0 30 26 34 16 35
-16 2 -30 -32 -31 -20 -1 15 8 9 12 20 8 25 -4 4 -13 -1 -20 -11 -7 -9 -16
-17 -20 -17 -4 0 2 14 14 30 12 17 17 30 11 30 -5 0 -13 -4 -16 -10 -3 -5 -10
-10 -16 -10 -5 0 -4 9 3 19 7 11 16 17 22 14 5 -3 6 -2 3 4 -4 6 0 19 8 29 17
23 20 43 3 26 -21 -21 -31 -13 -14 13 24 36 19 42 -9 11 -16 -17 -25 -22 -25
-13 0 8 7 20 15 27 17 14 20 30 5 30 -5 0 -10 -5 -10 -10 0 -13 -51 -70 -62
-70 -5 0 1 10 12 22 27 30 80 110 80 123 0 6 -11 -3 -25 -20 -18 -22 -24 -26
-25 -13 0 9 5 20 11 24 6 3 8 17 5 30 -4 15 0 35 11 52 l17 27 -24 -24 c-18
-19 -25 -21 -28 -10 -3 8 -10 17 -16 21 -6 5 -1 8 12 8 12 0 22 5 22 11 0 5
-4 7 -10 4 -5 -3 -10 -2 -10 4 0 5 5 13 10 16 6 3 9 14 9 23 -1 15 -2 15 -6 0
-10 -40 -22 -14 -18 38 4 50 2 54 -12 42 -15 -12 -15 -10 0 17 13 26 13 33 2
49 -8 10 -18 15 -24 11 -17 -10 -13 11 4 25 9 7 13 15 11 18 -3 2 -13 -3 -22
-12 -9 -9 -19 -14 -22 -11 -4 3 -2 9 3 13 11 7 35 48 35 58 0 3 -7 -2 -16 -11
-22 -22 -31 -10 -10 14 15 16 16 36 7 80 -1 2 -8 -2 -17 -9 -13 -12 -14 -10
-2 15 9 21 10 29 1 32 -6 2 -9 14 -6 26 4 17 3 19 -6 7 -5 -8 -13 -11 -17 -7
-4 4 -2 13 4 19 15 15 16 42 2 33 -7 -4 -8 3 -4 21 4 17 3 25 -3 21 -6 -4 -8
4 -6 21 4 22 2 24 -7 12 -10 -13 -11 -12 -6 4 8 22 -13 116 -26 116 -4 0 -5 8
-2 18 5 15 3 14 -10 -2 -20 -25 -31 -15 -16 16 l11 23 -20 -24 c-19 -21 -21
-21 -21 -4 0 10 9 26 20 36 26 22 25 31 -5 45 -23 10 -24 14 -13 33 10 16 10
23 2 26 -7 2 -9 14 -6 26 5 20 4 20 -11 8 -12 -9 -17 -10 -17 -2 0 6 6 14 14
17 20 8 21 114 1 114 -7 0 -16 -6 -18 -12 -3 -7 -5 1 -5 17 0 17 2 24 5 18 2
-7 11 -13 19 -13 11 0 13 14 11 63 -2 64 -21 80 -23 19 -1 -18 -4 -35 -8 -39
-3 -3 -6 86 -6 198 0 112 4 198 8 192 5 -7 7 -44 6 -83 -1 -50 2 -70 10 -70
10 0 13 40 14 165 0 131 -2 165 -13 165 -7 0 -16 -6 -18 -12 -3 -7 -5 1 -5 17
0 17 2 24 5 18 10 -26 33 -13 33 17 0 20 -5 30 -15 30 -8 0 -16 -6 -17 -12 -5
-25 -13 379 -10 452 3 56 6 70 14 57 5 -10 7 -25 4 -33 -7 -17 3 -46 14 -39 4
2 6 38 4 80 -1 41 -1 75 2 75 3 0 15 -10 27 -21 15 -15 17 -20 6 -16 -14 4
-16 -5 -18 -58 -1 -53 1 -64 16 -68 17 -4 17 -5 1 -6 -21 -1 -26 -61 -5 -61 9
0 9 -2 0 -8 -17 -11 -18 -253 -1 -264 10 -6 10 -8 1 -8 -8 0 -13 -13 -13 -29
0 -16 6 -32 13 -34 10 -4 10 -6 0 -6 -8 -1 -13 -14 -13 -31 0 -17 5 -30 13
-30 9 0 9 -2 0 -8 -18 -11 -13 -786 5 -804 6 -6 12 -20 12 -30 0 -10 3 -18 8
-18 9 0 28 -55 48 -140 9 -36 21 -78 28 -95 7 -16 19 -59 26 -95 7 -36 17 -70
22 -76 5 -6 9 -48 11 -93 1 -61 5 -81 16 -81 9 0 12 8 8 26 -2 14 -1 22 3 17
12 -12 15 -55 6 -82 -5 -15 -4 -26 4 -31 7 -4 15 -27 17 -51 7 -54 19 -89 33
-89 5 0 1 -16 -10 -35 -14 -25 -15 -33 -5 -29 16 7 31 -36 21 -61 -3 -8 -1
-15 4 -15 5 0 12 -16 16 -35 3 -19 9 -35 13 -35 3 0 6 -17 5 -38 0 -20 6 -46
13 -57 18 -27 16 -45 -4 -61 -17 -13 -17 -14 0 -8 21 7 24 -25 5 -45 -11 -10
-10 -11 4 -6 12 5 17 1 17 -12 0 -10 4 -65 10 -123 6 -58 10 -165 11 -237 l0
-133 980 0 980 0 0 916 c0 503 -3 913 -8 911 -4 -3 -16 -1 -27 4 l-20 8 20 1
c19 0 18 2 -4 19 -22 17 -22 41 0 41 6 0 7 -5 4 -10 -7 -12 12 -40 26 -40 16
0 9 53 -9 66 -16 13 -16 13 1 14 16 0 17 64 17 1235 l0 1235 -264 0 c-202 0
-266 -3 -269 -12 -4 -10 -6 -10 -6 0 -1 8 -21 12 -66 12 l-65 0 -1 -57 c-1
-32 0 -70 1 -85 1 -19 -3 -28 -13 -28 -21 0 -28 -37 -9 -45 14 -5 14 -7 2 -15
-8 -6 -10 -10 -5 -10 6 0 11 -15 12 -32 1 -18 4 -56 8 -84 4 -33 3 -54 -4 -59
-6 -3 -11 -2 -11 4 0 6 -6 8 -13 5 -18 -6 -14 -49 4 -49 8 0 13 6 11 13 -1 8
2 11 6 8 13 -8 14 -138 2 -170 -7 -19 -6 -26 3 -26 8 0 7 -4 -3 -10 -12 -8
-13 -11 -1 -19 8 -5 9 -11 3 -15 -16 -9 -42 4 -43 23 0 12 -2 12 -9 -4 -6 -15
-9 -8 -9 28 -1 26 3 47 8 47 15 0 9 54 -7 66 -11 8 -12 13 -4 18 17 10 15 41
-3 56 -9 7 -13 21 -10 31 3 10 8 57 10 106 2 51 8 89 14 91 6 2 11 14 11 28 0
16 -4 22 -14 18 -10 -4 -12 2 -8 23 3 15 9 31 14 34 5 3 11 29 13 57 l4 52
-266 0 -265 0 6 -24 c8 -32 -11 -44 -32 -21 -16 16 -16 17 6 10 22 -6 22 -5
10 14 -11 19 -22 21 -95 21 l-82 0 -4 -42 -4 -43 -1 43 -2 42 -109 0 -110 0
-4 -32 -4 -33 -1 33 -2 32 -134 0 c-132 0 -135 0 -139 -22 l-4 -23 -2 23 c-1
20 -6 22 -61 22 -52 0 -60 -2 -60 -19 0 -15 -41 -41 -66 -41 -2 0 -4 14 -4 30
0 26 -4 30 -26 30 -17 0 -24 -4 -21 -12 3 -8 -4 -13 -18 -13 -14 0 -21 5 -18
13 4 8 -8 12 -41 12 -44 0 -46 -1 -40 -24 3 -13 1 -27 -5 -31 -7 -4 -11 -59
-10 -161 1 -124 4 -154 15 -154 8 0 14 -4 14 -10 0 -5 -7 -10 -15 -10 -17 0
-21 -46 -4 -52 5 -2 13 -22 16 -46 5 -34 3 -42 -11 -42 -13 0 -16 -11 -16 -59
0 -38 4 -61 12 -64 10 -4 10 -6 1 -6 -20 -1 -15 -35 7 -54 21 -18 18 -45 -8
-61 -12 -7 -12 -10 -1 -17 10 -6 11 -9 2 -9 -7 0 -13 -11 -13 -25 0 -16 6 -25
15 -25 18 0 20 -27 3 -32 -7 -3 -13 -22 -14 -44 -3 -105 -4 -110 -15 -91 -5 9
-14 17 -19 17 -5 0 -11 -8 -13 -17 -4 -14 -5 -12 -6 5 0 12 -7 22 -13 23 -7 0
1 7 18 14 25 11 31 20 32 47 1 18 -3 40 -8 48 -9 13 -11 13 -20 0 -7 -12 -10
-8 -10 15 0 21 3 26 9 16 12 -19 31 -4 31 25 0 25 -24 34 -33 12 -3 -7 -6 16
-6 52 0 44 2 60 9 50 10 -16 17 -13 20 10 4 26 0 40 -11 40 -5 0 -7 -4 -4 -10
3 -5 1 -10 -4 -10 -6 0 -11 7 -11 16 0 9 -8 23 -17 30 -17 13 -17 15 0 28 13
10 17 28 17 77 -1 58 -2 62 -15 45 -9 -11 -12 -30 -9 -45 4 -20 3 -23 -5 -11
-17 24 -13 59 9 77 19 16 20 30 20 204 0 144 -3 189 -13 198 -8 6 -17 7 -22 3
-4 -4 -2 3 4 16 18 34 6 42 -60 42 -50 0 -59 -3 -59 -18 0 -15 -6 -18 -30 -14
-17 2 -30 10 -30 18 0 11 -18 14 -75 14 -71 0 -75 -1 -76 -22 -1 -22 -1 -22
-10 2 -7 21 -8 19 -6 -13 3 -33 1 -38 -17 -35 -17 2 -21 9 -19 38 l2 35 -16
-37 c-25 -59 -73 -50 -73 13 0 17 -8 19 -70 19 -56 0 -68 -3 -64 -14 3 -8 -3
-19 -16 -26 -17 -9 -21 -9 -19 2 5 38 3 38 -181 38 -113 0 -180 -4 -180 -10 0
-5 -7 -10 -15 -10 -8 0 -15 -9 -15 -20 0 -12 7 -20 18 -20 14 0 15 -2 2 -10
-13 -9 -13 -11 0 -20 13 -9 13 -12 -2 -24 -10 -7 -18 -21 -18 -31 0 -11 -5
-15 -16 -11 -9 3 -25 6 -37 6 -19 1 -18 3 8 15 17 7 24 14 18 14 -9 1 -13 20
-13 61 l0 60 -100 0 -100 0 0 -35 c0 -25 -4 -35 -16 -35 -13 0 -12 -5 6 -35
13 -22 20 -46 18 -66 -4 -27 -9 -32 -35 -35 -20 -2 -40 4 -57 17 -24 19 -25
23 -12 38 8 9 16 30 18 46 2 24 -1 30 -15 29 -10 -1 -17 5 -17 17 0 12 5 16
15 13 11 -5 15 1 15 20 l0 26 -184 0 c-187 0 -197 -2 -202 -38 -2 -7 4 -16 11
-19 11 -4 10 -9 -6 -26 -14 -15 -18 -29 -14 -49 5 -21 1 -30 -20 -44 -14 -9
-28 -14 -31 -11 -3 3 5 12 18 21 21 14 23 21 20 90 l-4 76 -119 0 c-103 0
-119 -2 -119 -16 0 -10 6 -14 15 -11 8 4 17 2 20 -3 3 -5 -3 -11 -14 -15 -15
-4 -19 -14 -17 -43 1 -32 4 -37 23 -34 17 2 21 -2 20 -17 -1 -16 -4 -18 -15
-9 -14 12 -32 -4 -32 -30 0 -19 31 -27 41 -11 6 10 8 4 7 -18 -2 -31 -5 -33
-40 -33 l-38 0 0 55 c0 30 5 55 10 55 6 0 10 28 10 65 l0 65 -109 0 -109 0 -6
-35 c-5 -24 -11 -33 -19 -28 -6 4 -20 8 -29 8 -23 2 -37 16 -20 22 6 3 12 11
12 19 0 12 -23 14 -130 13 -72 0 -130 -5 -130 -10 0 -5 8 -9 19 -9 10 0 24 -7
31 -16 11 -12 11 -15 -1 -12 -8 2 -14 -4 -14 -12 0 -8 -5 -18 -12 -23 -7 -4
-9 -15 -6 -24 4 -10 2 -14 -4 -10 -6 4 -14 1 -16 -5 -3 -7 -6 2 -6 20 -1 17
-5 32 -11 32 -5 0 -10 5 -10 11 0 5 4 7 10 4 6 -3 10 3 10 15 0 12 -4 18 -10
15 -6 -3 -10 1 -10 9 0 12 -10 16 -36 16 -20 0 -33 -4 -29 -10 3 -5 -6 -12
-20 -16 -14 -3 -25 -10 -25 -15 0 -5 7 -6 15 -3 8 4 15 1 15 -5 0 -6 -6 -11
-14 -11 -8 0 -21 -3 -30 -6 -13 -5 -16 1 -16 30 l0 36 -55 0 c-50 0 -69 -10
-46 -24 5 -3 7 -15 4 -26 -4 -15 0 -20 16 -20 27 0 27 -7 -1 -32 -17 -14 -18
-18 -6 -14 10 3 20 1 23 -4 4 -6 -6 -10 -22 -11 -15 0 -22 -3 -15 -6 22 -9 13
-23 -14 -23 l-27 0 6 80 5 80 -44 0 c-24 0 -44 -4 -44 -10 0 -5 5 -10 10 -10
14 0 13 -37 -1 -46 -7 -4 -9 0 -5 13 9 30 -32 53 -94 53 -47 0 -60 -7 -43 -24
4 -3 8 -41 10 -84 l3 -78 -35 -17 c-41 -19 -37 -31 -36 111 l1 92 -331 0
c-309 0 -330 -1 -328 -17 1 -10 -1 -35 -5 -55 -6 -26 -12 -35 -22 -31 -10 4
-12 0 -8 -11 3 -9 1 -16 -5 -16 -15 0 -14 40 2 46 8 3 11 18 9 44 l-4 40 -89
0 c-88 0 -89 0 -95 -27 -4 -14 -8 -49 -9 -77 -3 -66 -3 -68 -15 -61 -6 3 -10
-5 -10 -18 0 -14 6 -27 14 -30 17 -7 15 -39 -2 -45 -17 -5 -15 -62 3 -68 12
-5 14 -22 11 -93 -3 -59 -2 -73 3 -46 l8 40 2 -45 c1 -53 -21 -200 -30 -200
-4 0 -6 -24 -4 -53 1 -29 -2 -61 -6 -72 -6 -17 -8 -17 -8 -2 -1 9 -7 17 -15
17 -8 0 -17 -8 -19 -17 -4 -14 -5 -12 -6 5 -1 16 5 22 19 22 24 0 26 13 5 34
-12 12 -14 20 -5 36 9 16 8 20 -5 20 -18 0 -20 16 -2 24 10 5 10 7 0 12 -15 7
-18 94 -3 94 6 0 10 5 10 11 0 5 -5 7 -11 4 -7 -5 -9 3 -7 21 4 35 25 43 31
12 4 -22 4 -22 6 2 1 21 3 22 12 10 9 -12 9 -11 4 5 -4 11 -10 31 -13 45 -3
14 -13 31 -24 38 -18 13 -26 68 -8 57 6 -3 10 -2 10 4 0 5 -5 11 -12 13 -15 5
-13 111 1 116 6 2 11 13 11 25 0 18 -2 19 -10 7 -6 -10 -9 3 -9 40 1 30 6 61
12 68 8 10 7 12 -4 10 -9 -2 -15 8 -17 30 l-3 32 -94 0 -94 0 -4 -32 -4 -33
-1 32 -2 32 -590 1 -590 0 0 -939z m2839 782 c-5 -25 -7 -67 -5 -92 4 -41 -11
-221 -19 -229 -7 -7 -54 33 -55 46 0 15 12 16 27 1 7 -7 12 -6 16 5 5 12 0 16
-18 16 -29 0 -32 14 -7 30 16 11 16 11 0 6 -15 -4 -18 1 -18 33 0 22 -3 47 -7
56 -5 14 -2 16 18 10 19 -5 21 -4 9 4 -8 6 -28 9 -45 6 -16 -3 -23 -2 -15 2 8
3 28 15 44 26 22 16 25 22 14 28 -10 6 -16 28 -17 71 -2 60 -1 61 17 45 10 -9
23 -14 27 -10 5 5 4 1 -3 -9 -9 -11 -10 -18 -2 -23 11 -7 15 1 26 60 l7 40 7
-38 c4 -21 3 -59 -1 -84z m2040 71 c31 -6 32 -8 29 -53 -3 -42 -5 -46 -33 -51
-20 -4 -26 -8 -17 -13 6 -5 16 -6 21 -2 5 3 12 1 16 -5 4 -6 -5 -10 -20 -10
-22 0 -25 -3 -20 -21 6 -17 3 -20 -12 -17 -10 2 -17 11 -15 21 2 10 -4 17 -13
17 -10 0 -15 -10 -15 -31 0 -17 4 -28 10 -24 6 3 10 1 10 -4 0 -6 -8 -11 -19
-11 -15 0 -19 11 -24 78 -8 112 -2 132 38 132 18 0 47 -3 64 -6z m-3195 -79
c-4 -9 0 -15 10 -15 10 0 13 6 10 15 -4 8 -1 15 5 15 6 0 10 -3 10 -7 -1 -5
-1 -10 1 -13 9 -25 8 -85 -1 -97 -10 -11 -10 -16 -1 -22 8 -4 11 -26 10 -52
-1 -24 1 -79 6 -121 8 -81 -1 -118 -30 -118 -9 0 -12 5 -8 13 4 6 3 8 -1 4 -5
-4 -10 -15 -11 -23 -2 -12 3 -14 21 -10 25 6 27 3 23 -69 -1 -16 -2 -42 -2
-57 -1 -16 -7 -28 -13 -28 -15 0 -16 -10 -3 -30 9 -13 10 -13 11 0 1 8 5 -5 8
-30 4 -25 3 -50 -2 -57 -5 -7 -6 -21 -2 -33 9 -29 -3 -60 -21 -53 -10 3 -14
-2 -14 -18 0 -23 0 -23 -13 -4 -24 36 -36 95 -26 123 7 17 6 27 -1 32 -13 8
-11 130 1 130 14 0 10 34 -6 56 -19 25 -19 34 0 34 17 0 21 45 5 55 -10 6 -8
55 5 74 4 7 16 11 26 8 12 -3 19 0 19 8 0 22 -11 45 -22 45 -19 0 -34 26 -36
63 -2 20 2 37 8 37 5 0 10 7 10 15 0 8 -7 15 -15 15 -9 0 -15 9 -15 21 0 15 4
19 16 15 14 -5 15 -4 4 9 -8 10 -9 15 -1 15 6 0 11 13 11 28 0 29 7 42 21 42
5 0 6 -7 3 -15z m719 -129 c19 -14 23 -36 7 -36 -5 0 -10 -9 -10 -21 0 -11 4
-18 9 -14 6 3 9 -4 8 -15 -1 -11 -5 -20 -9 -20 -4 0 -8 -7 -8 -15 0 -8 5 -15
10 -15 23 0 8 -33 -20 -43 -33 -12 -34 -15 -20 -37 8 -13 10 -12 10 3 0 9 4
17 9 17 4 0 8 -17 7 -37 -1 -31 -5 -38 -22 -39 -18 -1 -20 5 -22 64 -1 40 -7
69 -15 74 -9 6 -9 8 1 8 7 0 12 15 12 40 0 25 -5 40 -12 41 -10 0 -10 2 0 6 6
2 12 13 12 22 0 33 22 40 53 17z m4090 -43 c4 -3 0 -15 -10 -25 -15 -17 -15
-19 0 -36 20 -21 22 -43 5 -39 -7 1 -12 -19 -14 -60 -1 -34 -4 -66 -7 -70 -3
-5 -1 -15 4 -23 8 -13 10 -13 19 0 7 11 10 7 10 -17 0 -27 -4 -34 -27 -39 -16
-3 -34 -7 -40 -10 -9 -2 -13 9 -13 37 0 33 3 40 15 35 17 -6 18 -4 9 18 -3 9
-14 16 -23 17 -11 0 -9 3 7 9 25 11 30 30 7 30 -20 0 -19 10 3 26 15 12 14 13
-13 15 -28 1 -29 1 -6 8 36 10 38 31 4 32 -15 0 -21 3 -13 6 8 2 21 7 29 9 11
4 10 7 -4 18 -17 12 -17 14 6 29 13 10 18 17 11 17 -6 0 -12 5 -12 10 0 11 43
14 53 3z m-766 -20 c3 -7 1 -13 -4 -13 -11 0 -10 -67 1 -92 4 -9 6 -38 4 -64
-3 -44 -6 -48 -39 -60 l-36 -12 -6 51 c-9 80 3 130 33 138 l25 7 -27 1 c-24 1
-28 5 -28 29 0 24 3 27 37 27 20 0 38 -6 40 -12z m-1687 -88 c35 -19 70 -35
77 -35 40 0 119 -78 151 -150 19 -42 24 -71 23 -123 0 -38 -3 -72 -6 -77 -3
-5 2 -32 11 -60 9 -28 14 -53 12 -56 -3 -2 -17 5 -32 17 -60 47 -173 60 -306
35 -36 -6 -80 -21 -99 -33 -25 -16 -43 -20 -70 -16 -20 4 -38 9 -41 12 -13 15
-84 41 -142 51 -34 7 -73 14 -86 16 -20 4 -21 7 -11 27 7 12 23 30 36 40 23
19 31 47 13 47 -11 0 -3 49 10 63 4 4 -1 31 -11 60 -20 56 -23 95 -11 114 13
20 79 61 114 71 19 5 44 5 56 1 12 -5 46 -11 75 -14 45 -4 58 -1 87 20 47 32
73 31 150 -10z m1279 -69 c-10 -21 -10 -32 -1 -47 14 -23 16 -68 2 -103 -8
-21 -6 -26 10 -31 30 -10 37 -52 12 -78 -18 -19 -20 -31 -15 -79 l6 -56 -44 5
c-56 7 -79 19 -78 41 1 16 2 16 6 0 8 -32 32 -21 28 12 -3 22 1 31 16 35 10 4
19 11 19 17 0 6 -3 9 -6 5 -4 -3 -12 0 -20 7 -9 9 -12 40 -12 99 2 87 -5 114
-22 87 -8 -12 -10 -11 -10 7 0 15 5 20 18 17 15 -5 17 2 14 51 l-4 57 31 -7
c22 -5 31 -3 31 6 0 10 4 9 16 -2 13 -13 13 -20 3 -43z m-2351 -161 c2 -22 9
-43 15 -47 7 -4 -2 -13 -23 -22 -19 -8 -29 -15 -22 -16 19 0 48 -30 30 -30
-10 0 -9 -3 2 -10 13 -8 12 -10 -2 -10 -12 0 -18 -8 -18 -22 0 -18 2 -20 10
-8 8 12 10 12 16 -3 4 -10 2 -23 -5 -30 -6 -6 -11 -8 -11 -3 0 4 -7 0 -17 -9
-13 -14 -14 -18 -3 -25 8 -5 17 -7 21 -4 4 2 12 -3 19 -10 9 -12 5 -17 -27
-25 -48 -14 -53 -14 -53 0 0 5 5 7 10 4 6 -3 10 1 10 10 0 9 -4 13 -10 10 -5
-3 -10 1 -10 9 0 9 6 16 13 17 10 0 10 2 0 6 -7 2 -13 18 -13 34 0 18 4 28 10
24 6 -3 10 1 10 9 0 9 -4 16 -10 16 -5 0 -10 9 -10 20 0 11 6 20 13 20 8 0 7
4 -3 11 -11 8 -12 12 -2 16 6 2 12 11 12 19 0 9 -4 12 -10 9 -5 -3 -10 1 -10
10 0 10 5 14 13 9 10 -6 10 -4 0 7 -7 7 -13 23 -13 36 0 20 5 22 33 20 30 -2
32 -5 35 -42z m-1508 -251 c0 -15 -6 -24 -15 -24 -10 0 -15 -11 -15 -35 0 -20
5 -35 11 -35 7 0 17 -8 24 -17 11 -15 10 -22 -6 -44 -21 -30 -25 -44 -9 -34
10 6 14 -7 10 -34 -2 -19 22 -33 33 -18 4 7 7 0 5 -17 -2 -16 -9 -31 -16 -34
-7 -2 -10 2 -6 11 3 8 1 18 -5 22 -21 13 -17 -151 5 -204 17 -41 18 -51 2 -51
-8 0 -13 -14 -14 -31 -1 -17 -7 -35 -14 -39 -7 -4 -9 -13 -6 -19 4 -6 12 -8
18 -5 7 5 8 -13 3 -55 -5 -42 -4 -61 4 -61 19 0 12 -49 -9 -70 -20 -20 -29
-87 -11 -76 16 10 18 -18 3 -41 -12 -20 -12 -24 1 -38 13 -12 15 -31 11 -88
-7 -92 -8 -95 -36 -99 -12 -2 -24 -11 -26 -21 -4 -21 26 -49 46 -42 8 3 12 -8
12 -35 0 -30 -3 -38 -14 -34 -11 4 -15 -4 -14 -35 0 -23 4 -41 9 -41 5 0 9 5
9 12 0 9 3 9 11 1 13 -13 3 -36 -12 -28 -14 9 -11 -16 6 -48 16 -31 14 -33
-42 -39 -18 -3 -30 -1 -27 4 3 4 -1 8 -8 9 -9 0 -9 2 -1 5 7 3 10 19 6 42 -5
34 -4 36 9 18 14 -18 16 -14 17 52 1 54 -2 71 -11 70 -10 -2 -13 19 -11 87 1
50 -3 95 -9 102 -7 9 -5 22 6 44 12 24 13 35 5 40 -7 4 -9 15 -5 24 3 10 2 23
-3 29 -15 18 -14 126 1 141 3 3 3 17 0 31 -3 18 -9 23 -20 19 -12 -4 -11 -1 3
15 14 16 20 37 20 73 0 44 3 52 18 49 12 -2 17 4 17 23 0 14 -4 25 -9 25 -10
0 -35 60 -31 75 2 6 2 18 2 27 0 9 6 19 15 22 14 6 13 10 -6 30 -17 18 -20 28
-12 48 5 14 8 63 6 109 -4 93 1 129 19 129 15 0 14 82 -2 88 -21 7 -14 40 11
44 34 6 47 -2 47 -28z m1356 -14 c-2 -29 1 -40 11 -40 10 0 13 -9 11 -27 -2
-16 -8 -27 -13 -26 -11 2 -8 -64 4 -82 6 -8 7 -252 2 -577 -1 -79 -7 -90 -35
-63 -20 21 -29 19 -21 -5 4 -11 2 -20 -4 -20 -19 0 -13 81 7 97 16 14 16 14 0
9 -16 -5 -18 5 -20 117 -2 137 3 370 7 375 2 2 13 -1 24 -7 17 -10 20 -9 14 5
-5 13 -3 15 7 9 8 -5 11 -4 6 3 -4 6 -13 9 -20 6 -16 -6 -49 23 -43 39 2 6 9
13 15 15 8 2 10 -3 6 -15 -5 -15 -4 -15 5 -3 16 22 14 28 -11 32 -14 2 -24 11
-26 23 -3 17 -1 17 7 5 9 -13 11 -13 11 2 0 9 8 22 18 27 16 10 16 10 -2 11
-11 0 -16 3 -13 7 4 3 2 12 -4 20 -8 9 -8 13 -1 13 7 0 9 13 5 35 -5 31 -3 35
16 35 11 0 21 5 21 10 0 6 4 10 9 10 5 0 8 -18 7 -40z m3164 -1 c0 -5 -7 -9
-15 -9 -8 0 -15 -4 -15 -10 0 -5 9 -10 19 -10 10 0 21 -7 25 -15 9 -24 36 -18
37 8 l0 22 11 -22 c8 -17 8 -29 0 -45 -8 -18 -11 -19 -11 -5 -1 23 -28 22 -41
-3 -8 -16 -8 -22 4 -26 8 -3 17 -13 21 -22 7 -18 -15 -102 -27 -102 -4 0 -8
-15 -8 -34 0 -19 -3 -37 -8 -39 -4 -3 -7 9 -7 26 0 24 -4 32 -17 31 -10 -1
-18 2 -18 7 0 5 8 9 18 10 14 0 14 2 -3 9 -12 5 -15 9 -5 9 11 1 11 4 2 13
-13 13 -17 99 -4 97 28 -5 35 2 14 17 -16 11 -22 25 -22 53 0 21 2 40 5 42 8
9 45 8 45 -2z m-2127 -70 c9 -71 43 -129 95 -158 42 -23 46 -23 150 -12 106
11 147 26 159 59 4 9 17 30 30 45 15 19 23 41 23 68 0 22 4 38 9 35 11 -7 23
-98 27 -205 2 -46 6 -86 9 -89 10 -11 24 20 37 81 7 31 15 57 19 57 4 0 11 12
17 28 5 15 24 35 41 45 31 18 31 18 31 -3 0 -11 -12 -32 -27 -46 -16 -14 -21
-24 -12 -21 9 3 27 -7 42 -23 21 -22 27 -38 27 -72 0 -24 -4 -48 -9 -53 -13
-15 -22 -133 -11 -140 6 -3 10 -11 10 -16 0 -6 -3 -8 -7 -6 -5 3 -9 -38 -10
-91 -2 -63 -7 -99 -15 -104 -10 -6 -8 -8 4 -8 9 0 19 6 22 13 3 6 5 3 3 -8 -1
-13 -11 -21 -27 -23 l-24 -4 23 -18 c17 -12 21 -21 15 -31 -5 -8 -9 -29 -9
-48 0 -21 -6 -36 -14 -39 -10 -3 -12 0 -8 12 4 9 3 16 -2 16 -13 0 -19 -33
-10 -55 6 -17 8 -17 8 -2 1 20 14 22 29 4 8 -9 8 -17 0 -27 -8 -12 -9 -12 -4
3 3 9 1 17 -4 17 -6 0 -10 -7 -10 -15 0 -7 -8 -19 -17 -25 -16 -10 -16 -10 2
-8 16 2 20 -3 20 -27 0 -25 -4 -30 -25 -30 -23 0 -25 4 -25 42 0 23 -3 45 -7
49 -5 4 -8 16 -8 26 0 10 -5 18 -11 18 -6 0 -8 9 -3 23 7 23 22 37 39 37 6 0
3 -5 -5 -10 -13 -8 -13 -10 1 -10 9 0 23 8 30 18 7 9 10 14 5 10 -14 -12 -46
11 -46 32 0 10 8 24 18 29 14 9 15 10 1 11 -11 0 -16 11 -17 36 -1 20 -6 42
-12 49 -8 9 -8 15 0 20 19 12 10 51 -20 86 -26 28 -33 31 -40 19 -18 -29 -22
-80 -9 -112 12 -29 14 -69 4 -109 -9 -38 -18 -58 -25 -54 -4 3 -13 -2 -21 -11
-7 -8 -21 -20 -31 -25 -18 -10 -18 -8 1 30 30 58 28 69 -17 69 -32 1 -45 -6
-75 -36 -71 -72 -93 -92 -138 -126 -48 -35 -112 -61 -127 -52 -5 3 -42 8 -83
11 -103 7 -135 19 -148 57 -6 17 -11 36 -11 43 0 18 43 34 115 41 57 6 69 11
92 38 l26 31 -47 8 c-25 4 -66 10 -92 15 -69 11 -57 26 29 36 83 10 161 -2
202 -30 28 -20 35 -17 35 10 0 25 -36 60 -52 50 -4 -3 -35 5 -68 17 -41 15
-71 20 -96 16 -37 -6 -114 11 -114 25 0 5 6 8 13 8 7 0 32 18 56 40 45 42 47
43 98 40 31 -1 53 19 53 50 0 16 -50 32 -101 31 -39 0 -50 3 -63 24 -14 22
-15 41 -6 162 6 78 16 143 23 151 9 12 9 16 0 19 -27 9 -11 23 26 23 l38 0 6
-51z m-1969 -71 c8 -6 7 -8 -1 -8 -9 0 -13 -21 -13 -71 0 -68 -1 -70 -22 -64
l-23 6 23 -17 c30 -22 28 -34 -8 -34 -26 0 -30 -4 -30 -26 0 -23 3 -25 33 -22
25 2 32 -1 31 -14 0 -10 -1 -36 -2 -58 -2 -39 -3 -40 -37 -40 -37 0 -43 8 -23
28 9 9 9 12 0 12 -8 0 -12 23 -12 73 0 43 -5 78 -12 85 -9 9 -9 12 0 12 8 0
12 24 12 77 0 42 3 73 7 70 3 -4 12 -2 20 4 9 9 13 8 13 0 0 -21 20 -11 21 12
1 20 2 20 6 2 3 -11 10 -23 17 -27z m1369 33 c4 -1 7 -10 7 -22 0 -13 -5 -19
-13 -16 -7 3 -23 -1 -36 -8 -23 -12 -23 -12 -2 -18 11 -3 21 0 21 5 0 6 6 5
15 -2 18 -15 20 -51 3 -45 -18 7 -42 -11 -34 -24 11 -18 26 -13 20 7 -5 16 -4
16 9 -1 19 -23 15 -53 -6 -49 -19 3 -31 -14 -21 -29 5 -8 8 -8 13 0 5 8 13 5
26 -9 15 -16 15 -20 3 -20 -13 0 -15 -15 -13 -91 2 -49 5 -93 8 -96 3 -3 3
-18 0 -34 -3 -17 0 -35 7 -44 10 -12 10 -15 -2 -15 -8 0 -19 5 -26 12 -9 9
-12 8 -12 -5 0 -20 -16 -23 -23 -4 -2 6 -3 4 -2 -5 2 -10 -2 -18 -9 -18 -9 0
-12 21 -11 73 1 39 -3 78 -8 85 -6 8 -6 12 1 12 7 0 9 21 6 56 -3 33 0 62 6
69 8 9 8 15 0 20 -16 10 -12 45 7 45 15 0 15 1 0 18 -20 22 -22 49 -4 55 9 3
9 8 1 18 -14 19 -12 38 6 49 13 8 12 11 -5 25 -19 14 -18 15 20 11 22 -3 43
-5 48 -5z m3247 -113 c0 -52 -5 -93 -14 -110 -8 -16 -10 -28 -4 -30 5 -2 12
-24 15 -48 3 -25 11 -48 17 -52 8 -5 7 -11 -2 -20 -18 -18 -16 -62 4 -54 8 3
12 2 9 -4 -3 -6 -11 -10 -17 -10 -6 0 -20 -7 -30 -17 -11 -9 -18 -11 -18 -5 0
7 5 12 11 12 6 0 7 5 2 13 -4 6 -8 25 -8 40 0 15 -7 32 -15 37 -8 6 -10 10 -5
10 6 0 3 5 -5 10 -10 6 -11 10 -2 10 6 0 12 9 12 19 0 23 16 37 23 19 2 -7 7
-10 11 -7 23 21 -32 55 -71 43 -17 -5 -17 -5 0 9 21 17 22 33 2 41 -17 6 -20
32 -5 41 6 4 10 3 9 -2 -1 -4 -1 -15 0 -23 1 -13 2 -13 11 0 17 27 12 50 -12
51 l-23 2 23 4 c23 5 26 13 16 51 -7 24 -29 30 -37 10 -4 -9 -6 -8 -6 2 0 8 3
22 9 30 6 9 5 17 -3 23 -7 5 1 7 20 4 21 -2 34 1 37 10 4 10 10 9 26 -7 17
-17 20 -33 20 -102z m-680 64 l0 -37 -45 3 c-25 2 -53 1 -63 -3 -16 -6 -16 -7
0 -16 9 -5 15 -15 12 -22 -2 -7 7 -24 22 -37 l27 -25 -7 28 c-6 25 0 32 21 25
4 -2 6 -12 4 -23 -2 -16 -1 -17 13 -6 14 11 16 11 16 -3 0 -27 -2 -31 -12 -28
-6 1 -16 -2 -23 -8 -9 -7 -16 -6 -25 5 -16 19 -31 20 -24 1 3 -8 1 -17 -5 -21
-15 -9 -14 -115 1 -115 9 0 9 -3 0 -12 -16 -16 -15 -29 1 -22 8 3 27 -1 43 -7
16 -7 32 -12 36 -11 6 1 4 -46 -3 -52 -2 -2 -19 -7 -36 -11 -32 -6 -33 -6 -33
29 0 49 -16 46 -18 -4 -1 -22 3 -40 9 -40 5 0 7 -5 4 -10 -10 -16 12 -37 36
-35 11 1 25 8 30 16 6 10 9 4 8 -21 0 -19 -3 -29 -6 -22 -2 6 -22 12 -43 12
-29 0 -39 -4 -43 -20 -3 -13 0 -20 10 -20 10 0 13 -6 9 -15 -6 -16 -1 -19 46
-29 29 -7 48 -50 48 -113 0 -20 7 -36 18 -42 15 -9 15 -10 1 -11 -12 0 -15 -7
-11 -25 2 -14 8 -25 13 -25 5 0 9 -14 9 -31 0 -16 -3 -28 -7 -26 -5 3 -21 -1
-38 -9 -30 -13 -30 -13 -2 -8 16 4 27 2 27 -5 0 -6 -8 -12 -17 -12 -17 -1 -17
-2 0 -6 18 -5 24 -23 6 -23 -6 0 -19 4 -29 10 -15 8 -17 6 -13 -9 3 -13 11
-17 24 -14 10 3 19 0 19 -6 0 -6 -7 -11 -15 -11 -20 0 -19 -10 3 -27 16 -13
16 -14 -5 -10 -15 3 -23 -1 -28 -17 -6 -19 -8 -18 -16 12 -7 25 -15 32 -34 32
-17 0 -25 -7 -28 -22 -2 -13 -5 13 -7 57 -1 44 -2 84 -1 89 1 5 -6 6 -16 2
-17 -6 -17 -5 0 8 22 17 12 46 -17 47 -21 1 -21 1 1 7 17 5 20 11 13 22 -9 13
-11 13 -20 0 -7 -12 -10 -8 -9 15 0 17 3 24 6 18 16 -42 43 29 43 115 0 45 -3
52 -20 52 -31 0 -28 50 3 51 21 1 21 1 -3 8 -36 10 -38 46 -4 64 17 9 23 17
15 21 -6 4 -11 12 -11 17 0 6 5 7 10 4 6 -3 10 5 10 19 0 13 3 31 6 40 3 9 1
16 -6 16 -6 0 -8 -4 -5 -10 3 -5 1 -10 -4 -10 -6 0 -11 5 -11 10 0 6 -5 10
-11 10 -6 0 -9 -9 -6 -20 3 -11 1 -20 -4 -20 -5 0 -9 14 -9 31 0 24 4 30 15
25 8 -3 15 -1 15 4 0 6 -7 10 -15 10 -12 0 -15 17 -15 95 0 92 1 95 23 96 l22
0 -22 11 c-31 15 -29 50 2 65 20 9 25 8 25 -3 0 -22 48 -17 55 6 4 14 15 20
36 20 27 0 29 -3 29 -38z m-2133 -104 c-9 -29 -18 -71 -21 -92 -6 -42 -51
-139 -74 -158 -19 -16 -28 1 -36 70 -4 37 -14 64 -28 79 -13 14 -19 30 -15 43
3 11 1 23 -4 26 -21 13 34 44 79 44 33 0 52 7 74 25 17 14 33 24 35 21 3 -3
-2 -29 -10 -58z m3501 -40 c13 -17 21 -114 12 -155 -5 -21 -4 -34 4 -36 8 -3
8 -10 -2 -26 -10 -17 -10 -21 0 -21 9 0 8 -3 -2 -10 -10 -6 -11 -10 -3 -10 13
0 11 -59 -1 -79 -3 -5 -2 -30 3 -55 8 -41 6 -48 -12 -61 -18 -12 -18 -15 -5
-15 20 0 32 -16 22 -31 -4 -8 -9 -7 -15 2 -6 9 -12 10 -16 4 -17 -22 -33 -14
-33 15 0 17 5 30 13 31 10 0 10 2 0 6 -8 2 -13 22 -13 44 0 24 4 38 10 34 6
-4 10 6 9 22 0 25 -1 26 -9 8 -7 -17 -9 -15 -9 13 -1 17 4 32 9 32 6 0 10 9
10 20 0 11 -6 20 -12 20 -9 0 -10 3 -2 8 14 9 11 36 -6 77 -11 26 -17 69 -10
78 1 1 4 20 6 41 4 49 30 70 52 44z m-4766 -66 c-3 -8 1 -18 9 -23 11 -7 9
-12 -9 -25 -17 -12 -21 -19 -13 -27 6 -6 11 -17 11 -24 0 -18 -32 -53 -42 -47
-20 13 -5 -41 17 -62 20 -18 25 -32 24 -66 0 -24 -3 -37 -6 -30 -8 19 -23 14
-23 -8 0 -12 7 -20 16 -20 14 0 14 -3 4 -15 -9 -10 -9 -15 -1 -15 16 0 14 -29
-3 -46 -16 -15 -30 -19 -22 -5 3 5 -2 15 -11 22 -9 8 -14 10 -11 4 3 -5 2 -19
-3 -30 -5 -14 -8 -2 -8 38 -1 47 -4 57 -18 57 -17 1 -17 1 0 11 20 12 24 79 5
79 -9 0 -9 3 0 12 8 8 12 50 12 123 l0 110 39 0 c29 1 37 -3 33 -13z m-1645
-100 c4 -8 -1 -20 -10 -27 -15 -10 -15 -14 -1 -33 9 -13 11 -22 5 -22 -6 0
-11 5 -11 10 0 14 -37 13 -46 -2 -5 -8 0 -9 14 -6 15 4 22 2 22 -8 0 -8 -10
-15 -22 -15 -21 -1 -21 -2 -3 -6 25 -7 34 -20 30 -49 -1 -13 2 -24 6 -24 5 0
9 -20 9 -45 0 -25 5 -45 10 -45 6 0 5 -8 -2 -20 -10 -15 -10 -25 -2 -38 9 -13
8 -20 -2 -30 -10 -9 -12 -25 -8 -52 5 -30 3 -40 -7 -40 -11 -1 -11 -3 1 -13
16 -13 24 -37 13 -37 -5 0 -8 -17 -8 -37 0 -34 -3 -38 -28 -41 -32 -4 -46 21
-29 49 7 11 8 20 2 24 -14 9 -12 34 4 51 11 11 16 11 19 1 3 -6 6 -2 6 10 1
29 -15 38 -28 16 -8 -13 -11 11 -12 92 -4 161 2 280 12 283 5 2 9 18 8 35 0
25 -2 28 -8 13 -4 -11 -10 -15 -14 -10 -3 6 -3 15 1 20 17 26 69 23 79 -4z
m881 -183 l-5 -80 25 6 c17 4 23 2 19 -7 -2 -7 -11 -12 -21 -10 -13 2 -16 -7
-16 -59 0 -49 3 -60 14 -56 8 3 17 -1 20 -9 9 -24 7 -54 -4 -54 -5 0 -10 9
-10 20 0 11 -4 20 -10 20 -5 0 -10 -9 -10 -21 0 -11 -4 -18 -9 -15 -13 9 -19
54 -8 65 14 14 0 78 -19 85 -8 3 -12 10 -9 16 3 5 1 10 -5 10 -6 0 -13 -8 -16
-17 -16 -51 -22 -55 -17 -11 5 44 4 48 -18 57 -13 5 -27 7 -31 4 -12 -7 -9 65
3 72 6 4 14 17 19 29 7 17 9 17 9 4 1 -25 21 -23 21 2 0 11 5 20 10 20 6 0 8
-11 4 -25 -4 -14 -2 -25 4 -25 9 0 10 -44 1 -80 -3 -9 5 -16 19 -18 17 -3 21
1 19 15 -1 10 -6 23 -10 30 -4 6 -1 13 5 16 10 3 10 7 -1 20 -10 13 -10 17 -1
17 7 0 10 7 6 15 -7 19 3 45 16 45 7 0 9 -29 6 -81z m188 -68 c-3 -5 1 -21 8
-37 10 -19 12 -33 5 -45 -11 -22 -12 -62 0 -55 5 3 11 -5 13 -19 5 -26 -20
-43 -43 -29 -8 4 -9 3 -5 -4 4 -7 13 -12 21 -12 17 0 28 -31 15 -44 -7 -7 -10
-4 -10 9 0 21 -13 13 -16 -10 -1 -9 6 -15 17 -15 10 0 19 -6 19 -14 0 -23 -11
-46 -20 -41 -4 3 -6 -12 -3 -33 4 -31 2 -39 -11 -39 -9 0 -16 9 -16 20 0 10
-10 27 -22 38 l-23 18 23 1 c14 0 21 4 16 11 -4 8 1 9 17 5 23 -7 23 -7 5 8
-11 9 -23 16 -28 16 -14 0 -9 100 5 100 6 0 4 5 -5 11 -10 5 -18 17 -18 26 0
14 2 14 16 -3 14 -18 15 -17 10 16 -3 19 -8 50 -12 69 -6 28 -4 33 8 28 12 -4
14 0 11 14 -4 13 0 19 11 19 10 0 15 -4 12 -9z m4415 -39 c-6 -2 -2 -12 11
-23 l23 -19 -29 10 c-16 6 -31 8 -34 6 -8 -8 19 -36 29 -30 10 6 10 3 13 -93
1 -43 -2 -63 -10 -63 -11 0 -16 -18 -30 -95 l-5 -30 20 24 21 23 0 -71 c0 -55
-3 -71 -14 -71 -8 0 -18 -5 -22 -11 -4 -7 2 -9 16 -7 13 2 25 -3 27 -9 3 -8
-4 -13 -16 -13 -12 0 -21 -4 -21 -10 0 -5 9 -10 20 -10 22 0 27 -15 8 -23 -10
-4 -9 -8 2 -16 13 -9 13 -11 -2 -11 -10 0 -18 7 -18 15 0 8 -5 15 -11 15 -6 0
-9 -7 -5 -15 3 -8 1 -15 -4 -15 -6 0 -10 13 -10 29 0 21 -6 31 -22 36 l-23 8
23 4 c19 4 22 11 22 50 0 34 -3 44 -14 40 -9 -4 -13 2 -13 19 0 15 4 23 11 21
7 -3 13 7 14 24 2 23 -2 29 -17 29 -11 0 -22 4 -25 9 -3 4 6 6 19 3 22 -4 25
-1 25 27 0 24 -4 31 -20 31 -11 0 -20 -7 -20 -16 0 -8 -4 -13 -10 -9 -15 9 0
33 26 39 14 4 22 11 19 16 -3 6 3 10 15 10 12 0 18 -4 15 -10 -3 -5 1 -10 9
-10 10 0 13 6 10 15 -4 9 -19 15 -40 15 -19 0 -34 5 -34 10 0 6 7 10 15 10 22
0 20 50 -2 51 -13 0 -12 3 5 10 13 5 29 6 35 3 7 -3 4 1 -5 9 -10 8 -18 26
-18 40 0 14 -6 27 -12 30 -7 2 5 4 26 4 21 -1 34 -3 27 -5z m-288 -84 c28 -3
32 -6 29 -28 -2 -14 -8 -30 -13 -37 -6 -7 -6 -12 1 -15 14 -4 -21 -78 -38 -78
-23 0 -9 -35 16 -38 18 -3 22 1 22 24 0 42 7 25 13 -36 8 -65 2 -77 -41 -90
-18 -5 -30 -5 -28 -1 3 5 -6 13 -19 19 -19 9 -25 19 -25 42 0 16 5 30 11 30 5
0 8 -3 6 -7 -3 -5 -1 -17 4 -28 7 -19 14 76 9 134 -3 36 13 160 18 134 2 -16
11 -23 35 -25z m-3593 -1 c22 6 30 -15 28 -69 -1 -27 -6 -38 -17 -38 -14 -1
-13 -2 2 -11 9 -6 15 -15 12 -20 -4 -5 -12 -6 -18 -3 -7 4 -9 4 -5 0 4 -5 2
-20 -3 -34 -7 -18 -6 -34 2 -54 12 -28 33 -41 23 -13 -4 8 -1 15 5 15 6 0 11
-19 11 -46 0 -33 3 -43 13 -38 9 6 9 4 -1 -8 -7 -9 -21 -14 -32 -11 -18 5 -19
2 -11 -18 5 -13 14 -23 20 -22 17 4 13 -27 -4 -33 -8 -4 -15 -15 -15 -25 0
-14 -7 -19 -25 -19 -14 0 -25 5 -25 11 0 6 6 9 14 6 8 -3 16 2 19 14 7 25 -7
75 -19 69 -5 -3 -10 5 -12 17 -2 15 -15 26 -38 35 -19 6 -34 16 -34 20 0 5 20
18 44 30 42 20 44 23 43 65 0 47 -11 57 -21 18 -7 -28 -43 -35 -52 -10 -4 8
-10 15 -15 15 -5 0 -9 -7 -9 -15 0 -8 -9 -15 -20 -15 -13 0 -20 7 -20 20 0 19
15 25 49 20 9 -1 12 4 8 14 -4 10 -1 16 7 16 8 0 11 -10 8 -31 -7 -49 21 -31
35 22 6 24 12 37 12 29 1 -12 3 -12 10 -2 4 8 11 13 15 13 23 -3 27 2 9 9 -19
8 -23 17 -22 52 0 24 3 38 5 32 3 -7 13 -10 24 -7z m-1188 -169 c-4 -15 -6
-15 -19 -3 -8 8 -21 15 -29 15 -19 0 -18 -36 1 -44 9 -3 15 -18 15 -36 0 -31
19 -43 21 -12 0 15 1 15 8 -2 8 -22 2 -76 -9 -76 -4 0 -5 11 -3 24 4 19 0 24
-21 28 -23 5 -26 2 -26 -24 0 -16 -4 -27 -9 -24 -9 6 -13 216 -4 249 3 11 14
17 34 17 25 0 29 4 31 28 1 15 4 -7 7 -48 4 -41 5 -83 3 -92z m5326 80 c17
-17 15 -48 -3 -48 -11 0 -12 -6 -7 -22 10 -27 8 -154 -3 -187 -3 -12 -3 -20 2
-19 4 2 8 -1 8 -7 0 -5 -3 -9 -7 -7 -5 1 -8 -5 -8 -14 0 -8 5 -12 10 -9 6 3
10 1 10 -4 0 -6 -5 -11 -10 -11 -9 0 -6 -52 4 -69 2 -3 1 -41 -3 -84 -4 -46
-3 -81 3 -87 7 -7 6 -10 -1 -10 -7 0 -9 -14 -6 -39 3 -21 0 -47 -6 -57 -6 -11
-11 -13 -11 -6 0 7 -14 12 -37 12 -36 0 -36 0 -17 21 10 11 26 18 35 16 19 -5
31 15 23 37 -3 8 -17 17 -30 20 -14 4 -22 11 -19 16 3 5 -3 14 -12 20 -15 9
-12 10 15 6 31 -5 32 -4 32 29 0 29 -4 34 -27 38 -23 3 -21 4 10 6 28 1 37 5
37 19 0 9 -4 13 -8 7 -4 -5 -19 -11 -34 -13 -24 -2 -28 1 -28 22 0 14 -5 28
-10 31 -6 4 -8 11 -4 16 3 5 -2 23 -10 41 -9 17 -16 35 -16 40 0 15 27 38 44
38 19 0 21 16 4 23 -7 3 2 8 20 12 38 9 43 25 7 25 -16 0 -25 6 -25 15 0 8 9
15 20 15 27 0 25 16 -2 25 -22 7 -21 8 7 15 l30 7 -30 7 c-32 8 -77 67 -56 74
6 2 8 9 4 15 -4 6 0 8 10 4 10 -4 17 -2 17 4 0 6 6 9 14 6 8 -3 20 1 26 9 15
17 22 18 38 2z m-4648 -349 c0 -44 -4 -68 -10 -64 -5 3 -10 1 -10 -4 0 -6 5
-11 11 -11 7 0 9 -10 5 -25 -4 -16 -2 -25 5 -25 7 0 5 -8 -6 -20 -16 -18 -14
-24 6 -22 3 1 4 -11 1 -25 -3 -18 -1 -24 7 -19 6 4 11 1 11 -9 0 -9 -4 -13
-10 -10 -12 7 -14 -38 -2 -49 11 -12 9 -56 -3 -57 -5 -1 -16 -1 -22 0 -7 1
-13 -3 -13 -9 0 -5 6 -10 13 -10 7 0 18 -9 25 -20 7 -12 17 -18 22 -15 6 4 8
11 5 16 -4 5 -1 9 4 9 12 0 14 -11 5 -34 -3 -9 -10 -14 -14 -11 -5 3 -11 1
-15 -5 -3 -5 -16 -10 -28 -9 l-22 0 23 11 c22 11 22 12 -17 48 -27 25 -34 37
-23 36 11 -1 15 5 13 14 -2 8 -4 23 -5 33 0 9 -6 17 -13 17 -10 0 -13 34 -13
145 0 90 4 145 10 145 6 0 10 7 10 16 0 11 6 14 20 9 14 -5 20 -2 20 9 0 9 2
16 5 16 3 0 5 -32 5 -71z m1403 -21 c7 -23 -5 -48 -24 -48 -11 0 -19 -4 -19
-10 0 -5 9 -10 20 -10 13 0 20 -7 20 -20 0 -24 -4 -25 -24 -4 -21 20 -36 9
-35 -24 2 -24 2 -24 6 -4 4 19 6 20 19 8 14 -15 9 -50 -6 -41 -5 3 -11 1 -15
-5 -4 -6 -10 -8 -15 -5 -4 3 -3 -6 3 -20 8 -17 13 -20 15 -10 2 8 8 15 13 15
5 0 7 -12 3 -27 -6 -27 -6 -27 9 -8 16 20 16 20 17 -3 0 -12 -7 -25 -15 -28
-9 -4 -15 -17 -14 -33 1 -16 3 -20 6 -9 4 14 8 16 24 7 11 -5 17 -14 14 -20
-4 -5 -9 -7 -13 -5 -4 2 -13 -2 -20 -10 -7 -8 -8 -14 -2 -14 15 0 12 -36 -5
-50 -8 -7 -15 -9 -15 -4 0 5 -5 2 -10 -6 -7 -10 -10 12 -10 71 0 65 -4 88 -14
92 -10 4 -14 26 -14 84 0 87 5 113 19 113 5 0 14 -10 19 -22 l9 -23 0 23 c1
15 7 22 21 22 11 0 20 5 20 10 0 6 -9 10 -20 10 -11 0 -20 5 -20 10 0 15 48
12 53 -2z m-441 -210 c1 -40 1 -87 0 -104 -2 -19 3 -34 11 -37 11 -4 14 -26
15 -84 0 -79 -1 -80 -13 -10 -4 26 -11 37 -19 34 -20 -8 -41 10 -41 35 0 13
-5 22 -12 21 -10 -2 -13 18 -13 78 0 76 1 80 20 74 12 -4 20 -2 20 5 0 6 6 8
13 4 6 -4 1 5 -13 21 l-25 27 24 -7 c16 -5 21 -4 17 4 -4 6 -2 11 3 11 7 0 12
-29 13 -72z m-1388 -89 c14 12 16 10 16 -8 0 -15 4 -20 13 -15 9 6 9 5 0 -8
-10 -11 -12 -57 -10 -169 2 -85 2 -179 -1 -210 -3 -53 -5 -56 -28 -51 -14 2
-24 0 -24 -7 0 -6 11 -11 25 -11 24 0 25 -2 25 -69 l0 -70 -31 9 c-18 5 -34
12 -37 15 -11 11 14 60 36 70 32 14 28 35 -8 35 -26 0 -30 3 -30 29 0 34 9 61
20 61 4 0 7 -7 6 -16 0 -9 5 -19 13 -22 10 -3 12 1 8 17 -3 11 -1 21 5 21 5 0
8 10 6 23 -2 14 -9 21 -21 21 -10 -1 -17 5 -17 15 0 14 -2 14 -10 1 -9 -13
-10 -13 -10 0 0 9 5 21 12 28 9 9 9 12 0 12 -7 0 -12 5 -12 10 0 6 13 10 29
10 29 0 41 14 41 51 0 24 -15 24 -39 0 -19 -19 -19 -19 -25 5 -4 13 -9 66 -12
116 -5 81 -4 94 12 105 14 10 20 10 25 1 6 -9 11 -9 23 1z m5731 -32 c0 -23 4
-31 16 -30 12 2 15 -8 15 -51 0 -32 -4 -53 -10 -52 -6 1 -12 -3 -13 -9 -2 -5
3 -10 10 -10 14 0 18 -90 5 -117 -5 -10 -5 -18 0 -18 14 0 8 -50 -8 -60 -8 -5
-16 -22 -17 -38 -3 -23 1 -31 17 -35 18 -5 21 -11 17 -44 -2 -21 -8 -37 -14
-36 -13 3 -12 -29 2 -40 6 -6 6 -10 -2 -14 -7 -2 -13 -11 -13 -19 0 -8 -4 -14
-8 -14 -4 0 -9 19 -10 43 -2 23 -9 47 -17 53 -19 14 -19 25 -2 18 8 -3 18 6
25 21 8 17 8 25 1 25 -7 0 -10 36 -9 108 3 134 3 132 -14 132 -8 0 -18 5 -22
11 -4 8 0 9 15 4 19 -6 21 -3 21 34 0 24 -5 41 -11 41 -7 0 -9 11 -5 30 3 17
1 30 -4 30 -6 0 -10 -5 -10 -12 0 -6 -3 -8 -6 -5 -9 9 16 38 27 31 5 -3 9 12
9 32 0 21 3 34 7 30 4 -4 7 -21 8 -39z m-914 -288 c17 -19 32 -28 40 -23 8 4
10 3 5 -4 -4 -7 -13 -12 -20 -12 -15 0 -16 -62 -1 -72 6 -5 6 -8 -2 -8 -8 0
-13 -13 -13 -31 0 -16 4 -28 8 -25 4 2 8 -3 9 -13 1 -15 -6 -18 -38 -17 -27 0
-38 5 -35 13 3 7 -1 16 -8 20 -7 5 -15 20 -18 35 -4 22 -1 28 16 30 20 3 20 4
-4 27 -18 17 -20 22 -7 18 13 -5 17 -1 17 18 0 18 5 25 20 25 32 0 23 18 -12
26 -29 6 -30 8 -13 15 11 4 22 8 24 8 2 1 17 -13 32 -30z m-3855 -102 c13 -2
24 0 24 5 0 5 5 6 10 3 11 -7 14 -115 4 -164 -5 -25 -9 -29 -20 -20 -11 9 -14
7 -14 -13 0 -13 5 -29 10 -34 7 -7 5 -17 -5 -30 -13 -17 -14 -17 -15 -1 0 9
-6 17 -12 17 -9 0 -8 3 2 10 13 8 13 11 -1 22 -9 7 -20 30 -23 51 -5 25 -12
37 -24 38 -16 1 -15 2 1 6 12 3 17 15 17 41 0 51 14 123 18 96 2 -14 12 -24
28 -27z m-1266 -267 c5 0 12 5 15 10 4 6 10 8 15 5 5 -3 11 3 13 12 5 20 9
-17 9 -87 0 -25 4 -47 9 -51 9 -5 13 -106 9 -239 -2 -52 -4 -59 -10 -35 -8 32
-9 31 -15 -40 -1 -11 -3 -26 -4 -33 -2 -22 -22 -1 -20 21 2 35 -1 43 -11 27
-12 -18 -12 -10 -12 138 0 71 -4 105 -12 108 -13 5 -20 142 -9 184 6 25 7 25
10 3 3 -13 8 -23 13 -23z m1250 -71 c0 -6 8 -8 18 -5 9 3 24 1 32 -4 8 -5 10
-10 4 -10 -16 0 -25 -53 -11 -62 9 -6 9 -10 0 -16 -15 -9 -12 -34 6 -56 11
-13 11 -16 -2 -16 -8 0 -17 -9 -20 -19 -3 -11 -13 -20 -23 -19 -11 0 -27 -3
-36 -6 -13 -6 -15 -3 -11 13 3 12 0 28 -7 35 -9 12 -7 17 9 28 13 8 21 23 20
38 l0 25 -11 -22 c-17 -35 -27 -27 -15 12 6 19 14 35 19 35 4 0 8 14 8 30 0
17 5 30 10 30 6 0 10 -5 10 -11z"/>
</g>
</svg>
