<?xml version="1.0" standalone="no"?>
<!DOCTYPE svg PUBLIC "-//W3C//DTD SVG 20010904//EN"
 "http://www.w3.org/TR/2001/REC-SVG-20010904/DTD/svg10.dtd">
<svg version="1.0" xmlns="http://www.w3.org/2000/svg"
 width="866.000000pt" height="980.000000pt" viewBox="0 0 866.000000 980.000000"
 preserveAspectRatio="xMidYMid meet">
<metadata>
Created by potrace 1.16, written by Peter Selinger 2001-2019
</metadata>
<g transform="translate(0.000000,980.000000) scale(0.100000,-0.100000)"
fill="#000000" stroke="none">
<path d="M305 9790 c-112 -13 -241 -103 -264 -185 -27 -95 -32 -363 -28 -1477
3 -809 8 -1150 16 -1193 21 -105 41 -134 138 -197 l88 -58 1147 0 1147 0 4
-2522 c4 -2595 4 -2647 42 -2704 8 -12 29 -24 47 -27 18 -3 439 -9 936 -13
l902 -7 0 -206 c1 -113 5 -371 9 -573 9 -352 10 -368 31 -412 28 -55 109 -139
170 -174 l44 -26 341 -7 c452 -10 2493 -9 2960 0 l370 7 54 28 c76 39 145 107
160 157 25 84 31 298 31 1274 l0 1000 -26 40 c-38 57 -71 92 -131 136 l-52 39
-831 0 -830 0 -430 215 -430 215 -218 0 c-120 0 -395 -3 -611 -7 l-393 -6 -72
-58 c-77 -61 -98 -95 -116 -184 -6 -27 -15 -291 -20 -585 -5 -294 -9 -541 -9
-547 -1 -10 -170 -13 -811 -13 l-810 0 0 1569 0 1569 23 7 c31 11 1382 18
1487 8 81 -8 85 -9 99 -38 12 -24 15 -129 19 -575 l4 -545 45 -67 c25 -38 67
-84 95 -105 98 -72 -18 -67 1713 -70 1696 -4 2058 1 2114 31 44 23 125 100
152 143 33 53 38 207 38 1158 0 836 -6 1078 -29 1165 -13 47 -53 96 -121 145
l-48 36 -853 10 -853 10 -421 210 -421 209 -479 0 c-263 -1 -524 -5 -580 -9
-153 -13 -220 -51 -311 -176 l-43 -59 0 -426 c0 -235 -3 -495 -7 -578 l-6
-152 -809 0 -808 0 0 743 0 744 152 6 c83 4 328 7 544 7 l392 0 59 44 c116 88
126 104 143 237 7 53 13 460 17 1120 l6 1036 -41 59 c-53 77 -117 139 -167
160 -65 27 -251 33 -1001 34 l-710 0 -416 210 -416 210 -529 -1 c-290 -1 -555
-5 -588 -9z m1065 -308 c14 -4 200 -96 413 -205 l388 -199 832 -9 c458 -6 838
-12 845 -14 10 -4 12 -214 10 -1027 l-3 -1023 -1767 -3 -1768 -2 0 1247 0
1248 513 -3 c281 -2 523 -7 537 -10z m4899 -3417 l433 -215 819 0 819 0 0
-1035 0 -1035 -1012 0 c-557 0 -1354 3 -1770 7 l-758 6 0 1228 c0 971 3 1230
13 1236 21 14 179 19 607 21 l415 2 434 -215z m1 -3470 l430 -215 820 0 820 0
0 -1035 0 -1035 -622 0 c-343 0 -1139 3 -1770 7 l-1148 6 0 1244 0 1243 520 0
520 0 430 -215z"/>
</g>
</svg>
