<?xml version="1.0" standalone="no"?>
<!DOCTYPE svg PUBLIC "-//W3C//DTD SVG 20010904//EN"
 "http://www.w3.org/TR/2001/REC-SVG-20010904/DTD/svg10.dtd">
<svg version="1.0" xmlns="http://www.w3.org/2000/svg"
 width="450.000000pt" height="396.000000pt" viewBox="0 0 450.000000 396.000000"
 preserveAspectRatio="xMidYMid meet">
<metadata>
Created by potrace 1.16, written by Peter Selinger 2001-2019
</metadata>
<g transform="translate(0.000000,396.000000) scale(0.100000,-0.100000)"
fill="#000000" stroke="none">
<path d="M1610 3695 l0 -65 -72 -2 -73 -2 75 -6 75 -6 -72 -2 -73 -2 0 -65 0
-65 -65 0 -65 0 0 -70 0 -70 -81 0 -80 0 2 -72 2 -73 -61 -3 -61 -3 -4 -127
-3 -127 0 137 c1 75 -2 134 -6 131 -5 -2 -8 -65 -8 -139 l0 -134 -70 0 -70 0
0 -225 0 -225 70 0 70 0 0 -1215 0 -1215 158 1 c86 0 151 3 145 6 -9 3 -13 28
-13 73 l0 69 -67 3 -67 3 0 1005 0 1005 32 3 31 3 3 -68 3 -68 38 -3 37 -3 0
-70 0 -69 35 0 c33 0 35 -2 35 -35 0 -33 2 -35 35 -35 33 0 35 -2 35 -35 l0
-35 245 0 245 0 0 35 c0 33 2 35 35 35 33 0 35 2 35 35 0 33 2 35 35 35 l35 0
0 70 0 70 35 0 35 0 0 70 0 70 70 0 70 0 0 -70 0 -70 35 0 35 0 0 -70 0 -70
34 0 c32 0 35 -3 38 -32 3 -29 7 -33 36 -36 29 -3 32 -6 32 -38 l0 -34 244 0
245 0 3 33 c3 28 7 32 36 35 29 3 32 6 32 37 0 32 2 34 38 37 l37 3 3 68 3 67
34 0 35 0 0 71 0 70 33 -3 32 -3 3 -1008 2 -1007 -245 0 -244 0 -4 -72 -3 -73
-2 73 -2 72 -560 0 -559 0 -4 -72 -3 -73 -2 73 -2 72 -167 -2 -168 -2 163 -3
162 -3 0 -70 0 -70 190 0 190 0 0 70 0 70 200 0 200 0 0 -70 0 -70 190 0 190
0 0 70 0 70 165 0 165 0 1 -62 c1 -35 1 -66 0 -70 0 -5 67 -8 149 -8 l150 0 0
1215 0 1215 70 0 70 0 0 225 0 225 -70 0 -70 0 0 143 c0 78 -4 136 -9 129 -5
-9 -27 -12 -71 -10 l-63 3 2 73 2 72 -75 0 -75 0 -3 68 -3 67 -67 3 -68 3 0
64 0 65 -72 2 -73 2 75 6 75 6 -72 2 -73 2 0 65 0 65 -640 0 -640 0 0 -65z
m772 -337 c3 -29 7 -33 36 -36 28 -3 32 -7 32 -33 0 -26 3 -29 34 -29 33 0 35
-2 38 -37 3 -35 6 -38 36 -41 26 -3 32 -7 32 -28 0 -23 -3 -24 -77 -26 l-78
-2 78 -3 77 -4 0 -94 0 -94 -32 -3 c-30 -3 -33 -6 -36 -40 -3 -36 -5 -38 -38
-38 -31 0 -34 -3 -34 -29 0 -26 -4 -30 -32 -33 -29 -3 -33 -7 -36 -35 l-3 -33
-129 0 -129 0 -3 33 c-3 28 -7 32 -35 35 -29 3 -33 7 -33 33 0 26 -3 29 -34
29 -33 0 -35 2 -38 38 -3 34 -6 37 -35 40 l-33 3 0 95 0 94 118 2 117 2 -117
3 c-117 4 -118 4 -118 28 0 20 6 24 33 27 29 3 32 6 35 41 3 35 5 37 38 37 31
0 34 3 34 29 0 26 4 30 33 33 28 3 32 7 35 36 l3 32 129 0 129 0 3 -32z
m-1394 -860 l67 -3 0 -1215 0 -1215 -2 1213 -3 1212 -70 0 -70 0 2 218 3 217
2 -212 3 -212 68 -3z m1124 -30 c3 -29 7 -33 36 -36 31 -3 32 -2 32 32 0 34 2
36 34 36 19 0 38 -4 41 -10 3 -5 17 -10 31 -10 17 0 24 -6 24 -19 0 -19 -39
-31 -102 -31 -25 0 -28 -4 -28 -35 l0 -35 -489 0 -489 0 -4 35 c-2 19 -2 51 0
70 l4 35 453 0 454 0 3 -32z m1196 -40 l3 -68 -496 0 -495 0 0 34 c0 32 3 35
33 38 28 3 32 7 35 36 l3 32 457 -2 457 -3 3 -67z"/>
<path d="M1900 1595 l0 -65 70 0 70 0 0 65 0 65 -70 0 -70 0 0 -65z"/>
<path d="M2460 1595 l0 -65 70 0 70 0 0 65 0 65 -70 0 -70 0 0 -65z"/>
<path d="M2040 1455 l0 -65 210 0 210 0 0 65 0 65 -210 0 -210 0 0 -65z"/>
<path d="M2020 1335 c0 -10 -10 -15 -30 -15 -25 0 -30 -4 -30 -25 0 -16 -6
-25 -15 -25 -9 0 -15 -10 -15 -26 0 -17 -6 -28 -20 -31 -16 -4 -20 -14 -20
-44 0 -22 -4 -39 -10 -39 -22 0 -47 -40 -54 -86 -7 -50 -24 -193 -25 -206 -1
-5 -57 -8 -126 -8 l-125 0 0 30 0 30 -70 0 -70 0 0 -30 0 -30 70 0 70 0 0 -35
0 -35 135 0 c108 0 135 -3 135 -14 0 -14 42 -26 91 -26 20 0 29 5 29 16 0 12
7 14 30 9 23 -5 30 -3 30 9 0 9 7 16 15 16 8 0 15 7 15 15 0 8 7 15 15 15 8 0
15 5 15 10 0 6 14 10 30 10 21 0 30 5 30 16 0 13 8 15 38 10 20 -3 78 -8 127
-11 108 -8 125 -12 125 -31 0 -9 11 -14 30 -14 20 0 30 -5 30 -15 0 -8 7 -15
15 -15 8 0 15 -7 15 -15 0 -8 5 -15 10 -15 6 0 10 -6 10 -14 0 -8 14 -17 30
-21 17 -4 30 -13 30 -21 0 -10 12 -14 39 -14 22 0 46 -3 55 -6 11 -4 16 -1 16
10 0 9 7 16 15 16 10 0 17 14 21 40 l7 40 108 0 109 0 0 35 0 35 -105 0 -105
0 0 55 c0 30 -4 55 -10 55 -6 0 -10 27 -10 60 0 33 -4 60 -10 60 -5 0 -10 11
-10 25 0 24 3 25 55 25 54 0 55 0 55 30 l0 30 -65 0 c-52 0 -65 3 -65 15 0 9
-7 18 -15 21 -9 4 -15 19 -15 35 0 24 -4 29 -25 29 -15 0 -25 6 -25 14 0 26
-107 36 -116 11 -4 -8 -12 -15 -20 -15 -8 0 -14 -6 -14 -13 0 -9 -10 -12 -30
-9 -24 3 -30 1 -30 -13 0 -15 -6 -17 -46 -11 -26 3 -64 6 -84 6 -29 0 -39 4
-43 20 -3 14 -14 20 -31 20 -16 0 -26 6 -26 15 0 8 -4 15 -10 15 -5 0 -10 6
-10 14 0 8 -17 16 -46 20 -66 9 -74 8 -74 -9z m543 -155 c26 0 37 -4 37 -15 0
-8 5 -15 10 -15 6 0 10 -27 10 -60 0 -47 -3 -60 -15 -60 -8 0 -15 -7 -15 -16
0 -12 -6 -15 -22 -10 -13 3 -40 6 -60 6 -27 0 -38 4 -38 15 0 8 -7 15 -15 15
-11 0 -15 12 -15 44 0 54 8 76 26 76 8 0 14 7 14 16 0 12 6 15 23 10 12 -3 39
-6 60 -6z"/>
<path d="M1340 275 l0 -65 175 0 175 0 0 65 0 65 -175 0 -175 0 0 -65z"/>
<path d="M2040 275 l0 -65 210 0 210 0 0 65 0 65 -210 0 -210 0 0 -65z"/>
<path d="M2820 275 l0 -65 170 0 170 0 0 65 0 65 -170 0 -170 0 0 -65z"/>
</g>
</svg>
