<?xml version="1.0" encoding="UTF-8" standalone="yes"?>
<!-- Created with sK1/UniConvertor (http://sk1project.org/) -->
<svg xmlns="http://www.w3.org/2000/svg" xmlns:xlink="http://www.w3.org/1999/xlink"
  width="160pt" height="160pt" viewBox="0 0 160 160"
  fill-rule="evenodd">
<g>
<path style="stroke:none; fill:#ffffff" d="M 0 0L 0 48.8L 8 48.8L 8 32.8L 16 32.8L 16 24L 24 24L 24 16L 32.8 16L 32.8 8L 48.8 8L 48.8 0L 0 0z"/>
<path style="stroke:none; fill:#f69ff9" d="M 48.8 0L 48.8 8L 49.6 8C 49.5997 5.26846 49.8619 2.53061 48.8 0z"/>
<path style="stroke:none; fill:#f935f3" d="M 49.6 0L 49.6 8.8L 32.8 8.8L 32.8 16.8L 24.8 16.8L 24.8 24.8L 16.8 24.8L 16.8 32.8L 8.8 32.8L 8.8 49.6L 0 49.6L 0 61.6L 160 61.6L 160 49.6C 148.958 49.5915 151.2 41.6675 151.2 32.8L 143.2 32.8L 143.2 24.8L 135.2 24.8L 135.2 16.8L 127.2 16.8L 127.2 8.8L 110.4 8.8L 110.4 0L 49.6 0z"/>
<path style="stroke:none; fill:#f69ff9" d="M 110.4 0L 110.4 8L 111.2 8C 111.2 5.26845 111.462 2.53064 110.4 0z"/>
<path style="stroke:none; fill:#ffffff" d="M 111.2 0L 111.2 8L 127.2 8L 127.2 16L 136 16L 136 24L 144 24L 144 32.8L 152 32.8L 152 48.8L 160 48.8L 160 0L 111.2 0z"/>
<path style="stroke:none; fill:#f867f7" d="M 32.8 8L 32.8 8.8L 49.6 8.8C 44.8328 6.79962 37.9489 8 32.8 8M 110.4 8L 110.4 8.8L 127.2 8.8C 122.433 6.79961 115.549 8 110.4 8z"/>
<path style="stroke:none; fill:#e8c5fc" d="M 24 16L 24 24L 16 24L 16 24.8L 24.8 24.8C 24.8 21.8398 25.1522 18.7459 24 16z"/>
<path style="stroke:none; fill:#f69ff9" d="M 24.8 16L 24.8 16.8L 32.8 16.8C 30.2694 15.7381 27.5315 16.0003 24.8 16M 127.2 16L 127.2 16.8L 135.2 16.8C 132.67 15.7381 129.931 16.0003 127.2 16z"/>
<path style="stroke:none; fill:#e8c5fc" d="M 135.2 16L 135.2 24.8L 144 24.8L 144 24L 136 24C 136 21.2685 136.262 18.5306 135.2 16z"/>
<path style="stroke:none; fill:#f69ff9" d="M 16 24.8L 16 32.8L 16.8 32.8C 16.7997 30.0685 17.0619 27.3306 16 24.8M 143.2 24.8L 143.2 32.8L 144 32.8C 144 30.0685 144.262 27.3306 143.2 24.8z"/>
<path style="stroke:none; fill:#f867f7" d="M 8 32.8L 8 49.6L 8.8 49.6C 8.8 44.4511 10.0004 37.5672 8 32.8M 151.2 32.8L 151.2 48.8L 152 48.8C 152 43.8646 153.118 37.3718 151.2 32.8z"/>
<path style="stroke:none; fill:#f69ff9" d="M 0 48.8L 0 49.6L 8 49.6C 5.46937 48.5381 2.73154 48.8003 0 48.8M 152 48.8L 152 49.6L 160 49.6C 157.47 48.5381 154.731 48.8003 152 48.8z"/>
<path style="stroke:none; fill:#cf13f8" d="M 0 61.6L 0 86.4L 18.4 86.4C 18.4 80.2912 16.9929 73.8542 24.8 73.6L 24.8 68C 32.071 68 47.6762 64.4588 48 74.4L 24.8 74.4L 24.8 86.4L 30.4 86.4L 30.4 82.4C 35.7298 82.4 46.0932 80.1192 48 86.4L 52.8 86.4L 52.8 68C 61.1038 68.2704 59.2 76.0727 59.2 82.4L 72.8 82.4L 72.8 68L 78.4 68L 78.4 86.4L 89.6 86.4L 89.6 83.2L 84 83.2L 84 73.6L 89.6 73.6L 89.6 68L 95.2 68L 95.2 62.4C 99.4048 62.537 101.269 63.6572 101.6 68L 109.6 68L 109.6 74.4L 90.4 74.4L 90.4 82.4L 104 82.4L 104 86.4L 126.4 86.4L 126.4 74.4L 114.4 74.4C 114.727 64.3443 143.673 64.3443 144 74.4L 132.8 74.4L 132.8 86.4L 160 86.4L 160 61.6L 0 61.6z"/>
<path style="stroke:none; fill:#d44ff9" d="M 95.2 62.4L 95.2 63.2L 100.8 63.2L 100.8 68.8L 109.6 68.8L 109.6 68L 101.6 68C 101.445 63.2803 99.7216 62.4536 95.2 62.4z"/>
<path style="stroke:none; fill:#e8c5fc" d="M 95.2 63.2L 95.2 68.8L 96 68.8C 95.9848 66.7654 95.988 65.0653 95.2 63.2z"/>
<path style="stroke:none; fill:#ffffff" d="M 96 63.2L 96 68.8L 90.4 68.8L 90.4 73.6L 108.8 73.6L 108.8 68.8L 100.8 68.8L 100.8 63.2L 96 63.2z"/>
<path style="stroke:none; fill:#d44ff9" d="M 24.8 68L 24.8 68.8L 47.2 68.8L 47.2 74.4C 51.2214 64.7112 30.2266 68 24.8 68M 52.8 68L 52.8 68.8L 58.4 68.8L 58.4 82.4C 60.9786 76.255 60.3634 68.0896 52.8 68M 72.8 68L 72.8 68.8L 78.4 68.8C 76.5348 68.0124 74.8346 68.015 72.8 68M 89.6 68L 89.6 68.8L 95.2 68.8C 93.3344 68.0124 91.6344 68.015 89.6 68M 115.2 68L 115.2 68.8L 143.2 68.8L 143.2 74.4C 147.323 64.4663 121.056 68 115.2 68z"/>
<path style="stroke:none; fill:#ffffff" d="M 24.8 68.8L 24.8 73.6L 47.2 73.6L 47.2 68.8L 24.8 68.8z"/>
<path style="stroke:none; fill:#e8c5fc" d="M 52.8 68.8L 52.8 102.4L 53.6 102.4C 53.6 92.8344 56.4886 77.5902 52.8 68.8z"/>
<path style="stroke:none; fill:#ffffff" d="M 53.6 68.8L 53.6 102.4L 58.4 102.4L 58.4 88L 72.8 88L 72.8 102.4L 78.4 102.4L 78.4 68.8L 72.8 68.8L 72.8 83.2L 58.4 83.2L 58.4 68.8L 53.6 68.8z"/>
<path style="stroke:none; fill:#f8dfff" d="M 89.6 68.8L 89.6 74.4L 109.6 74.4L 109.6 68.8L 108.8 68.8L 108.8 73.6L 90.4 73.6C 90.3624 71.7978 90.2992 70.4417 89.6 68.8z"/>
<path style="stroke:none; fill:#d333f9" d="M 114.4 68.8L 114.4 74.4L 115.2 74.4C 115.185 72.3653 115.188 70.6653 114.4 68.8z"/>
<path style="stroke:none; fill:#ffffff" d="M 115.2 68.8L 115.2 73.6L 126.4 73.6L 126.4 102.4L 132 102.4L 132 73.6L 143.2 73.6L 143.2 68.8L 115.2 68.8z"/>
<path style="stroke:none; fill:#d333f9" d="M 18.4 86.4L 19.2 86.4L 19.2 74.4L 24.8 74.4C 16.8194 71.0876 18.4 81.5712 18.4 86.4z"/>
<path style="stroke:none; fill:#f8dfff" d="M 24.8 73.6L 24.8 74.4L 47.2 74.4C 41.081 71.8323 31.4302 73.6 24.8 73.6z"/>
<path style="stroke:none; fill:#d333f9" d="M 84 73.6L 84 74.4L 89.6 74.4L 89.6 82.4C 91.9088 76.897 89.6544 73.667 84 73.6z"/>
<path style="stroke:none; fill:#f8dfff" d="M 115.2 73.6L 115.2 74.4L 126.4 74.4C 123.026 72.9846 118.833 73.6 115.2 73.6M 132 73.6L 132 74.4L 143.2 74.4C 139.826 72.9846 135.633 73.6 132 73.6z"/>
<path style="stroke:none; fill:#ffffff" d="M 19.2 74.4L 19.2 96.8L 24.8 96.8L 24.8 74.4L 19.2 74.4z"/>
<path style="stroke:none; fill:#f8dfff" d="M 84 74.4L 84 82.4L 84.8 82.4C 84.8 79.6685 85.0616 76.9306 84 74.4z"/>
<path style="stroke:none; fill:#ffffff" d="M 84.8 74.4L 84.8 82.4L 89.6 82.4L 89.6 74.4L 84.8 74.4z"/>
<path style="stroke:none; fill:#d333f9" d="M 132 74.4L 132 86.4L 132.8 86.4C 132.8 82.5464 133.501 77.9771 132 74.4z"/>
<path style="stroke:none; fill:#f69ff9" d="M 30.4 82.4L 30.4 83.2L 47.2 83.2C 42.4328 81.2 35.5489 82.4 30.4 82.4M 58.4 82.4L 58.4 83.2L 72.8 83.2C 68.6221 81.4472 62.9058 82.4 58.4 82.4z"/>
<path style="stroke:none; fill:#f867f7" d="M 84 82.4L 84 83.2L 89.6 83.2C 87.7344 82.412 86.0344 82.4152 84 82.4z"/>
<path style="stroke:none; fill:#f69ff9" d="M 89.6 82.4L 89.6 83.2L 104 83.2C 99.8224 81.4472 94.1056 82.4 89.6 82.4z"/>
<path style="stroke:none; fill:#ffffff" d="M 30.4 83.2L 30.4 88L 42.4 88L 42.4 96.8L 47.2 96.8L 47.2 83.2L 30.4 83.2z"/>
<path style="stroke:none; fill:#d44ff9" d="M 47.2 83.2L 47.2 86.4L 48 86.4C 47.8607 85.052 47.7464 84.4048 47.2 83.2z"/>
<path style="stroke:none; fill:#f8dfff" d="M 89.6 83.2L 89.6 88L 90.4 88C 90.3624 86.1976 90.2992 84.8416 89.6 83.2z"/>
<path style="stroke:none; fill:#ffffff" d="M 90.4 83.2L 90.4 88L 103.2 88L 103.2 83.2L 90.4 83.2z"/>
<path style="stroke:none; fill:#e8c5fc" d="M 103.2 83.2L 103.2 88L 104 88C 103.962 86.1976 103.899 84.8416 103.2 83.2z"/>
<path style="stroke:none; fill:#ac13f8" d="M 0 86.4L 0 110.4L 160 110.4L 160 86.4L 132.8 86.4C 132.8 93.016 135.302 102.91 126.4 103.2L 126.4 86.4L 104 86.4L 104 88L 109.6 88L 109.6 97.6L 104 97.6L 104 102.4L 101.6 102.4C 101.448 107.072 99.872 108.648 95.2 108.8L 95.2 103.2L 84 103.2L 84 96.8L 103.2 96.8L 103.2 88.8L 89.6 88.8L 89.6 86.4L 78.4 86.4L 78.4 103.2L 72.8 103.2L 72.8 88.8L 59.2 88.8C 59.2 90.9568 59.8879 107.37 54.0821 101.902C 51.1562 99.1464 52.8 90.1296 52.8 86.4L 48 86.4C 48 91.6776 49.0027 97.096 42.4 97.6C 41.7745 105.799 30.8899 103.2 24.8 103.2L 24.8 97.6C 17.5897 97.3648 18.4 92.2568 18.4 86.4L 0 86.4z"/>
<path style="stroke:none; fill:#b733f9" d="M 18.4 86.4L 18.4 96.8L 19.2 96.8C 19.2 93.3896 19.7289 89.5672 18.4 86.4z"/>
<path style="stroke:none; fill:#ac13f8" d="M 24.8 86.4L 24.8 96.8L 41.6 96.8L 41.6 88.8L 30.4 88.8L 30.4 86.4L 24.8 86.4z"/>
<path style="stroke:none; fill:#c151f9" d="M 47.2 86.4L 47.2 96.8L 48 96.8C 48 93.3896 48.5289 89.5672 47.2 86.4z"/>
<path style="stroke:none; fill:#b733f9" d="M 132 86.4L 132 102.4L 132.8 102.4C 132.8 97.4648 133.918 90.972 132 86.4z"/>
<path style="stroke:none; fill:#d387f9" d="M 30.4 88L 30.4 88.8L 41.6 88.8C 38.2268 87.3848 34.0329 88 30.4 88z"/>
<path style="stroke:none; fill:#f8dfff" d="M 41.6 88L 41.6 96.8L 24.8 96.8L 24.8 97.6C 32.1547 97.6 46.651 100.038 41.6 88z"/>
<path style="stroke:none; fill:#d387f9" d="M 58.4 88L 58.4 88.8L 72.8 88.8C 68.6221 87.0472 62.9058 88 58.4 88M 89.6 88L 89.6 88.8L 109.6 88.8C 104.058 86.4744 95.5976 88 89.6 88z"/>
<path style="stroke:none; fill:#c151f9" d="M 58.4 88.8L 58.4 102.4L 59.2 102.4C 59.2 98.1104 60.0698 92.7792 58.4 88.8M 103.2 88.8L 103.2 96.8L 104 96.8C 104 94.0688 104.262 91.3304 103.2 88.8z"/>
<path style="stroke:none; fill:#ffffff" d="M 104 88.8L 104 96.8L 108.8 96.8L 108.8 88.8L 104 88.8z"/>
<path style="stroke:none; fill:#f8dfff" d="M 108.8 88.8L 108.8 96.8L 109.6 96.8C 109.6 94.0688 109.862 91.3304 108.8 88.8z"/>
<path style="stroke:none; fill:#b733f9" d="M 19.2 96.8L 19.2 97.6L 24.8 97.6C 22.9348 96.812 21.2346 96.8152 19.2 96.8M 41.6 96.8L 41.6 102.4L 24.8 102.4L 24.8 103.2C 31.0475 103.2 42.1239 106.007 42.4 97.6L 47.2 97.6C 45.3347 96.812 43.6346 96.8152 41.6 96.8z"/>
<path style="stroke:none; fill:#f8dfff" d="M 84 96.8L 84 102.4L 84.8 102.4L 84.8 97.6L 103.2 97.6C 97.8504 95.3552 89.7864 96.8 84 96.8z"/>
<path style="stroke:none; fill:#e8c5fc" d="M 103.2 96.8L 103.2 102.4L 104 102.4C 103.985 100.366 103.988 98.6656 103.2 96.8z"/>
<path style="stroke:none; fill:#b733f9" d="M 104 96.8L 104 97.6L 109.6 97.6C 107.734 96.812 106.034 96.8152 104 96.8z"/>
<path style="stroke:none; fill:#ffffff" d="M 24.8 97.6L 24.8 102.4L 41.6 102.4L 41.6 97.6L 24.8 97.6M 84.8 97.6L 84.8 102.4L 96 102.4L 96 108L 100.8 108L 100.8 102.4L 103.2 102.4L 103.2 97.6L 84.8 97.6z"/>
<path style="stroke:none; fill:#b733f9" d="M 53.6 102.4L 53.6 103.2L 58.4 103.2C 56.7583 102.501 55.4022 102.438 53.6 102.4M 72.8 102.4L 72.8 103.2L 78.4 103.2C 76.5348 102.412 74.8346 102.415 72.8 102.4M 84 102.4L 84 103.2L 95.2 103.2C 91.8264 101.785 87.6328 102.4 84 102.4z"/>
<path style="stroke:none; fill:#e8c5fc" d="M 95.2 102.4L 95.2 108L 96 108C 95.9848 105.966 95.988 104.266 95.2 102.4z"/>
<path style="stroke:none; fill:#c151f9" d="M 100.8 102.4L 100.8 108L 101.6 108C 101.585 105.966 101.588 104.266 100.8 102.4z"/>
<path style="stroke:none; fill:#b733f9" d="M 126.4 102.4L 126.4 103.2L 132 103.2C 130.134 102.412 128.434 102.415 126.4 102.4z"/>
<path style="stroke:none; fill:#c151f9" d="M 95.2 108L 95.2 108.8L 100.8 108.8C 98.9344 108.012 97.2344 108.015 95.2 108z"/>
<path style="stroke:none; fill:#d387f9" d="M 0 110.4L 0 111.2L 8 111.2C 5.46938 110.138 2.73154 110.4 0 110.4z"/>
<path style="stroke:none; fill:#a352f9" d="M 8 110.4L 8 127.2L 8.8 127.2C 8.8 122.051 10.0004 115.167 8 110.4z"/>
<path style="stroke:none; fill:#d387f9" d="M 152 110.4L 152 111.2L 160 111.2C 157.47 110.138 154.731 110.4 152 110.4z"/>
<path style="stroke:none; fill:#ffffff" d="M 0 111.2L 0 160L 48.8 160L 48.8 152L 32.8 152L 32.8 144L 24 144L 24 136C 17.1805 135.976 16.005 133.748 16 127.2L 8 127.2L 8 111.2L 0 111.2z"/>
<path style="stroke:none; fill:#8716f8" d="M 8.8 111.2L 8.8 127.2L 16.8 127.2L 16.8 135.2L 24.8 135.2L 24.8 143.2L 32.8 143.2L 32.8 151.2C 41.6675 151.2 49.5914 148.958 49.6 160L 110.4 160C 110.409 148.958 118.333 151.2 127.2 151.2L 127.2 143.2L 135.2 143.2L 135.2 135.2L 143.2 135.2L 143.2 127.2L 151.2 127.2L 151.2 111.2L 8.8 111.2z"/>
<path style="stroke:none; fill:#a352f9" d="M 151.2 111.2L 151.2 127.2L 152 127.2C 152 122.265 153.118 115.772 151.2 111.2z"/>
<path style="stroke:none; fill:#ffffff" d="M 152 111.2L 152 127.2L 144 127.2L 144 136L 136 136C 135.976 142.819 133.748 143.995 127.2 144L 127.2 152L 111.2 152L 111.2 160L 160 160L 160 111.2L 152 111.2z"/>
<path style="stroke:none; fill:#c989fa" d="M 16 127.2L 16 135.2L 16.8 135.2C 16.7997 132.469 17.0619 129.73 16 127.2M 143.2 127.2L 143.2 135.2L 144 135.2C 144 132.469 144.262 129.73 143.2 127.2z"/>
<path style="stroke:none; fill:#e8c5fc" d="M 16.8 135.2L 16.8 136L 24 136L 24 144L 24.8 144L 24.8 135.2L 16.8 135.2M 135.2 135.2L 135.2 143.2L 136 143.2L 136 136L 144 136C 141.254 134.848 138.16 135.2 135.2 135.2z"/>
<path style="stroke:none; fill:#c989fa" d="M 24.8 143.2L 24.8 144L 32.8 144C 30.2694 142.938 27.5315 143.2 24.8 143.2M 127.2 143.2L 127.2 144L 135.2 144C 132.67 142.938 129.931 143.2 127.2 143.2z"/>
<path style="stroke:none; fill:#a352f9" d="M 32.8 151.2L 32.8 152L 48.8 152C 44.2282 150.082 37.7354 151.2 32.8 151.2M 111.2 151.2L 111.2 152L 127.2 152C 122.628 150.082 116.135 151.2 111.2 151.2z"/>
<path style="stroke:none; fill:#c989fa" d="M 48.8 152L 48.8 160L 49.6 160C 49.5997 157.269 49.8619 154.53 48.8 152M 110.4 152L 110.4 160L 111.2 160C 111.2 157.269 111.462 154.53 110.4 152z"/>
</g>
</svg>