<?xml version="1.0" standalone="no"?>
<!DOCTYPE svg PUBLIC "-//W3C//DTD SVG 20010904//EN"
 "http://www.w3.org/TR/2001/REC-SVG-20010904/DTD/svg10.dtd">
<svg version="1.0" xmlns="http://www.w3.org/2000/svg"
 width="981.000000pt" height="834.000000pt" viewBox="0 0 981.000000 834.000000"
 preserveAspectRatio="xMidYMid meet">

<g transform="translate(0.000000,834.000000) scale(0.100000,-0.100000)"
fill="#000000" stroke="none">
<path d="M2170 8314 c-25 -9 -60 -27 -78 -41 -18 -13 -179 -192 -359 -396
-179 -205 -329 -375 -332 -380 -4 -4 -154 116 -334 268 -180 151 -346 285
-369 298 -114 66 -260 80 -373 37 -50 -19 -75 -38 -157 -122 -126 -129 -153
-181 -153 -293 0 -70 4 -89 32 -146 18 -36 56 -91 85 -122 29 -31 195 -172
368 -313 173 -140 315 -259 315 -263 0 -5 -137 -164 -305 -355 -168 -190 -316
-367 -330 -393 -22 -41 -25 -60 -25 -143 0 -91 2 -100 38 -172 79 -162 256
-257 475 -258 138 0 153 9 352 236 l171 194 234 -202 235 -201 0 -41 c0 -79
20 -433 35 -626 49 -627 147 -1189 291 -1680 47 -160 119 -365 160 -459 13
-29 24 -55 24 -56 0 -2 -69 -65 -152 -141 -217 -196 -573 -549 -685 -679 -176
-203 -246 -317 -242 -397 2 -40 -8 -58 -132 -243 -324 -485 -469 -811 -416
-938 25 -58 66 -71 202 -64 203 10 558 122 1004 316 87 38 97 40 128 29 114
-41 522 180 1117 606 81 58 150 106 153 106 3 0 68 -61 145 -135 409 -396 929
-785 1331 -995 135 -71 137 -72 137 -106 0 -39 6 -40 71 -21 36 11 51 11 79 1
59 -21 70 -18 70 19 0 32 4 35 96 82 272 137 634 382 949 640 151 123 249 211
446 397 86 82 159 148 162 148 2 0 87 -59 188 -131 608 -435 1008 -652 1123
-611 29 11 44 6 183 -53 438 -186 801 -295 983 -295 159 0 203 63 162 226 -48
188 -237 535 -492 899 -50 72 -56 84 -52 122 8 79 -65 197 -255 413 -133 151
-501 513 -717 705 -123 110 -156 144 -153 160 3 11 28 81 55 155 226 608 366
1401 413 2338 l13 244 272 234 273 234 171 -194 c208 -237 215 -241 380 -234
81 4 122 12 180 33 143 53 218 117 274 235 28 58 31 74 31 160 0 83 -3 102
-25 143 -14 26 -162 203 -330 393 -168 191 -305 350 -305 355 0 4 140 120 310
258 171 139 335 278 366 311 101 107 147 243 119 350 -16 64 -70 141 -164 235
-88 89 -144 119 -250 131 -75 9 -188 -18 -262 -62 -32 -19 -203 -157 -378
-305 -176 -148 -323 -266 -326 -262 -4 5 -154 175 -333 380 -180 204 -342 384
-361 398 -98 75 -294 74 -423 -2 -137 -80 -258 -319 -240 -473 3 -27 13 -63
22 -79 8 -17 103 -131 210 -253 152 -173 192 -225 183 -234 -19 -17 -568 -485
-607 -517 l-35 -29 -135 7 c-291 14 -543 59 -784 139 -371 125 -655 296 -920
555 l-107 105 -103 -100 c-121 -120 -199 -184 -316 -264 -389 -261 -848 -408
-1361 -435 -121 -6 -127 -5 -155 17 -32 24 -577 489 -608 517 -16 16 -6 30
178 240 108 122 203 237 211 254 41 78 25 208 -42 343 -51 104 -119 176 -210
220 -67 34 -83 37 -172 41 -72 2 -109 -1 -142 -13z m1265 -5540 c275 -375 673
-750 1095 -1031 106 -70 272 -166 316 -183 17 -7 24 -17 24 -36 0 -24 2 -25
33 -18 17 4 37 7 42 7 6 0 25 -3 43 -7 29 -7 32 -5 32 16 0 19 17 32 93 72
478 254 1063 775 1365 1217 l47 68 233 1 c127 0 232 -4 232 -8 0 -16 -147
-260 -215 -358 -385 -552 -1066 -1163 -1633 -1464 -112 -60 -121 -67 -122 -94
0 -27 -2 -28 -32 -21 -42 10 -74 10 -115 0 -31 -7 -33 -6 -33 21 -1 27 -10 34
-122 94 -564 300 -1252 914 -1625 1450 -97 140 -223 351 -223 375 0 3 110 5
244 5 l243 0 78 -106z"/>
</g>
</svg>
