<?xml version="1.0" standalone="no"?>
<!DOCTYPE svg PUBLIC "-//W3C//DTD SVG 20010904//EN"
 "http://www.w3.org/TR/2001/REC-SVG-20010904/DTD/svg10.dtd">
<svg version="1.0" xmlns="http://www.w3.org/2000/svg"
 width="512.000000pt" height="512.000000pt" viewBox="0 0 512.000000 512.000000"
 preserveAspectRatio="xMidYMid meet">

<g transform="translate(0.000000,512.000000) scale(0.100000,-0.100000)"
fill="#000000" stroke="none">
<path d="M1197 4962 c-26 -26 -47 -52 -47 -57 0 -5 32 -42 71 -81 l71 -71 -66
-81 c-262 -326 -387 -773 -331 -1194 86 -648 546 -1175 1174 -1342 52 -14 129
-30 172 -37 l79 -11 0 -83 0 -83 -167 -4 c-164 -3 -169 -4 -235 -35 -37 -17
-87 -50 -112 -73 -56 -52 -112 -160 -121 -235 l-7 -55 -79 0 -79 0 0 40 0 40
-479 0 c-557 0 -505 11 -571 -123 -92 -186 -92 -368 0 -554 57 -116 69 -123
195 -123 l103 0 -20 -62 c-28 -90 -33 -207 -14 -298 18 -89 86 -230 123 -259
l26 -21 1894 0 1894 0 24 25 c33 32 32 68 -5 126 -99 153 -99 345 0 498 37 58
38 94 5 126 -24 24 -28 25 -180 25 l-156 0 -24 55 c-64 144 -49 312 40 442 32
48 32 87 0 118 l-24 25 -461 0 c-382 0 -460 2 -460 14 0 7 -16 45 -35 83 -43
86 -103 144 -193 186 -66 31 -71 32 -235 35 l-168 4 3 96 3 96 55 13 c232 57
456 169 629 312 l63 53 74 -73 74 -74 57 58 58 57 -74 74 -73 74 56 68 c31 37
56 71 56 74 0 7 -114 90 -123 90 -3 0 -27 -27 -53 -60 l-49 -60 -56 56 -57 56
63 86 c282 381 332 882 131 1308 -118 249 -337 475 -581 596 -448 225 -992
166 -1381 -148 l-40 -33 -57 57 -57 57 60 49 c33 26 60 50 60 53 0 9 -83 123
-90 123 -3 0 -37 -25 -74 -56 l-68 -56 -72 71 c-39 39 -76 71 -82 71 -5 0 -31
-22 -57 -48z m1417 -177 c32 -3 88 -13 122 -21 l64 -16 0 -231 0 -232 116
-193 116 -194 -18 -41 c-54 -120 -235 -341 -341 -416 l-33 -22 0 110 c0 162
21 151 -300 151 l-260 0 0 63 c0 60 2 66 65 160 l65 97 155 0 c142 0 157 2
175 20 37 37 26 77 -69 269 -50 98 -97 181 -106 185 -9 3 -77 6 -151 6 l-134
0 0 120 c0 120 0 121 25 130 64 24 198 53 280 59 89 8 113 7 229 -4z m481
-174 c139 -91 284 -250 367 -401 95 -172 147 -411 132 -606 l-7 -84 -99 0 -98
0 -95 63 -95 62 0 151 0 151 -120 201 -120 201 0 171 0 171 33 -17 c17 -9 64
-38 102 -63z m-1609 -125 c-272 -337 -356 -796 -220 -1205 130 -391 424 -685
815 -815 408 -136 869 -52 1205 220 l40 33 57 -57 57 -58 -69 -54 c-431 -338
-1012 -402 -1510 -169 -284 133 -547 397 -681 681 -95 203 -135 386 -135 618
0 341 105 644 314 902 l46 58 57 -57 57 -57 -33 -40z m434 19 c0 -131 1 -137
25 -160 23 -24 28 -25 174 -25 l151 0 40 -80 40 -80 -106 0 c-58 0 -114 -5
-125 -11 -11 -6 -60 -71 -110 -145 l-89 -136 0 -94 0 -94 -88 0 -88 0 -33 137
c-45 183 -45 183 -191 183 -60 0 -110 2 -110 5 0 2 14 39 31 82 57 144 121
244 234 362 66 70 216 191 236 191 5 0 9 -60 9 -135z m-350 -814 c25 -98 43
-148 55 -157 14 -10 57 -14 157 -14 l138 0 0 -138 c0 -108 3 -142 16 -160 l15
-22 -63 0 c-118 0 -328 49 -428 100 -32 17 -39 26 -53 82 -10 35 -22 88 -28
118 -11 60 -14 314 -4 331 4 6 38 9 83 7 l75 -3 37 -144z m910 -346 c0 -173 0
-176 25 -200 19 -20 34 -25 75 -25 l51 0 -97 -120 -96 -120 -99 0 -99 0 0 94
0 94 -80 121 -80 121 0 105 0 105 200 0 200 0 0 -175z m160 -1340 l0 -85 -80
0 -80 0 0 80 0 79 73 4 c39 1 75 4 80 5 4 1 7 -36 7 -83z m500 -269 c57 -30
120 -99 120 -131 0 -3 -315 -5 -700 -5 -385 0 -700 3 -700 6 0 12 24 51 49 77
27 30 67 54 111 68 14 4 264 7 555 6 496 -2 532 -3 565 -21z m1035 -313 c-4
-10 -15 -46 -23 -80 l-16 -63 -704 0 -704 0 7 28 c3 15 17 51 30 80 l24 52
697 0 c659 0 696 -1 689 -17z m-23 -365 c8 -35 19 -71 23 -80 7 -17 -30 -18
-689 -18 l-697 0 -24 53 c-13 28 -27 64 -30 80 l-7 27 704 0 704 0 16 -62z
m343 -275 c-4 -10 -15 -46 -23 -80 l-16 -63 -704 0 -704 0 7 28 c3 15 17 51
30 80 l24 52 697 0 c659 0 696 -1 689 -17z m-23 -365 c8 -35 19 -71 23 -80 7
-17 -30 -18 -689 -18 l-697 0 -24 53 c-13 28 -27 64 -30 80 l-7 27 704 0 704
0 16 -62z"/>
</g>
</svg>
