<svg width="17528" height="14500" viewBox="0 0 17528 14500" fill="none" xmlns="http://www.w3.org/2000/svg">
<path d="M13065.9 159.341V0H4461.54V159.341H4302.2V2390.11H4461.54V2549.45H6293.95V3664.83H6931.32V2549.45H10596.1V3664.83H11233.5V2549.45H13065.9V2390.11H13225.3V159.341H13065.9Z" fill="black"/>
<path d="M12906.6 159.344H4461.52V2390.11H13065.9V159.344H12906.6Z" fill="#FF00FF"/>
<path d="M6612.62 2868.12V3664.83H6931.3V2868.12H6771.96H6612.62ZM11074.2 2868.12H10914.8V3664.83H11233.5V2868.12H11074.2Z" fill="#2D2D2D"/>
<path d="M6851.67 637.363H5576.95V2230.77H5895.63V956.044H6214.31V2230.77H6532.99V956.044H6851.67V2230.77H7170.35V637.363H7011.01H6851.67ZM8126.4 637.363H7489.03V2230.77H7807.71V1593.41H8126.4V2230.77H8445.08V637.363H8126.4ZM8126.4 1115.39V1274.73H7807.71V956.044H8126.4V1115.39ZM9401.12 637.363H8763.76V2230.77H9082.44V1593.41H9401.12V2230.77H9719.8V637.363H9401.12ZM9401.12 1115.39V1274.73H9082.44V956.044H9401.12V1115.39ZM10675.8 1912.09H10357.2V637.363H10038.5V2230.77H10994.5V1912.09H10835.2H10675.8ZM12109.9 1912.09H11631.9V637.363H11313.2V2230.77H12269.3V1912.09H12109.9Z" fill="#820082"/>
<path d="M6692.29 478.02H5417.56V2071.43H5736.24V796.701H6054.93V2071.43H6373.61V796.701H6692.29V2071.43H7010.97V478.02H6851.63H6692.29ZM7967.01 478.02H7329.65V2071.43H7648.33V1434.06H7967.01V2071.43H8285.69V478.02H7967.01ZM7967.01 956.041V1115.38H7648.33V796.701H7967.01V956.041ZM9241.74 478.02H8604.38V2071.43H8923.06V1434.06H9241.74V2071.43H9560.42V478.02H9241.74ZM9241.74 956.041V1115.38H8923.06V796.701H9241.74V956.041ZM10516.5 1752.74H10197.8V478.02H9879.1V2071.43H10835.1V1752.74H10675.8H10516.5ZM11950.5 1752.74H11472.5V478.02H11153.8V2071.43H12109.9V1752.74H11950.5Z" fill="white"/>
<path d="M2230.77 8923.08H15615.4V4620.88H1912.09V8923.08H2071.43H2230.77ZM15615.4 14181.3V10197.8H1912.09V14181.3H1593.41V14500H15934.1V14181.3H15774.7H15615.4ZM956.044 14181.3H637.362V14500H1274.72V14181.3H1115.38H956.044ZM0 14181.3V14500H318.681V14181.3H159.341H0ZM17368.1 14181.3H16890.1V14500H17527.5V14181.3H17368.1ZM16252.7 14181.3V14500H16571.4V14181.3H16412.1H16252.7Z" fill="black"/>
<path d="M4939.56 4939.55H2549.45V8604.39H5258.24V4939.55H5098.9H4939.56ZM14818.7 4939.55H12269.2V8604.39H14978V4939.55H14818.7ZM11313.2 4939.55H9082.41V8604.39H11631.9V4939.55H11472.5H11313.2ZM4939.56 10516.5H2549.45V13862.6H5258.24V10516.5H5098.9H4939.56ZM14659.3 10516.5H12269.2V13862.6H14978V10516.5H14818.7H14659.3ZM8285.71 10516.5H5895.6V13862.6H8604.39V10516.5H8285.71ZM11313.2 10516.5H8923.07V13862.6H11631.9V10516.5H11313.2ZM6214.28 8604.39H8445.05V4939.55H5895.6V8604.39H6054.94H6214.28Z" fill="#37F4F1"/>
<path d="M4939.58 6214.28V8604.39H5258.26V6214.28H5098.92H4939.58ZM8445.07 8604.39V6214.28H8126.39V8604.39H8285.73H8445.07ZM11313.2 6214.28V8604.39H11631.9V6214.28H11472.5H11313.2ZM14818.7 6214.28H14659.4V8604.39H14978V6214.28H14818.7ZM4939.58 11472.5V13862.6H5258.26V11472.5H5098.92H4939.58ZM14659.4 11472.5V13862.6H14978V11472.5H14818.7H14659.4ZM8285.73 11472.5V13862.6H8604.41V11472.5H8445.07H8285.73ZM11313.2 11472.5V13862.6H11631.9V11472.5H11472.5H11313.2ZM13783 12109.9H13942.3V12269.2H13783V12109.9Z" fill="#96FAF8"/>
<path d="M13623.7 12269.2H13783V12428.6H13623.7V12269.2ZM14101.7 11791.2H14261V11950.5H14101.7V11791.2Z" fill="#96FAF8"/>
<path d="M13942.4 11950.5H14101.7V12109.9H13942.4V11950.5ZM13145.7 12747.2H13305V12906.6H13145.7V12747.2Z" fill="#96FAF8"/>
<path d="M12986.3 12906.6H13145.6V13065.9H12986.3V12906.6ZM13464.3 12428.6H13623.6V12587.9H13464.3V12428.6Z" fill="#96FAF8"/>
<path d="M13305 12587.9H13464.3V12747.3H13305V12587.9ZM13623.7 12587.9H13783V12747.3H13623.7V12587.9Z" fill="#96FAF8"/>
<path d="M13464.3 12747.2H13623.7V12906.6H13464.3V12747.2ZM13942.3 12269.2H14101.7V12428.6H13942.3V12269.2Z" fill="#96FAF8"/>
<path d="M13783 12428.6H13942.3V12587.9H13783V12428.6ZM10436.8 12109.9H10596.2V12269.2H10436.8V12109.9Z" fill="#96FAF8"/>
<path d="M10277.5 12269.2H10436.8V12428.6H10277.5V12269.2ZM10755.5 11791.2H10914.9V11950.5H10755.5V11791.2Z" fill="#96FAF8"/>
<path d="M10596.2 11950.5H10755.6V12109.9H10596.2V11950.5ZM9799.51 12747.2H9958.85V12906.6H9799.51V12747.2Z" fill="#96FAF8"/>
<path d="M9640.12 12906.6H9799.46V13065.9H9640.12V12906.6ZM10118.1 12428.6H10277.5V12587.9H10118.1V12428.6Z" fill="#96FAF8"/>
<path d="M9958.84 12587.9H10118.2V12747.3H9958.84V12587.9ZM10277.5 12587.9H10436.9V12747.3H10277.5V12587.9Z" fill="#96FAF8"/>
<path d="M10118.2 12747.2H10277.5V12906.6H10118.2V12747.2ZM10596.2 12269.2H10755.5V12428.6H10596.2V12269.2Z" fill="#96FAF8"/>
<path d="M10436.9 12428.6H10596.2V12587.9H10436.9V12428.6ZM7409.39 12109.9H7568.73V12269.2H7409.39V12109.9Z" fill="#96FAF8"/>
<path d="M7250.05 12269.2H7409.4V12428.6H7250.05V12269.2ZM7728.08 11791.2H7887.42V11950.5H7728.08V11791.2Z" fill="#96FAF8"/>
<path d="M7568.71 11950.5H7728.05V12109.9H7568.71V11950.5ZM6772.01 12747.2H6931.35V12906.6H6772.01V12747.2Z" fill="#96FAF8"/>
<path d="M6612.68 12906.6H6772.02V13065.9H6612.68V12906.6ZM7090.7 12428.6H7250.04V12587.9H7090.7V12428.6Z" fill="#96FAF8"/>
<path d="M6931.34 12587.9H7090.68V12747.3H6931.34V12587.9ZM7250.02 12587.9H7409.36V12747.3H7250.02V12587.9Z" fill="#96FAF8"/>
<path d="M7090.67 12747.2H7250.01V12906.6H7090.67V12747.2ZM7568.69 12269.2H7728.03V12428.6H7568.69V12269.2Z" fill="#96FAF8"/>
<path d="M7409.39 12428.6H7568.73V12587.9H7409.39V12428.6ZM4063.23 12109.9H4222.57V12269.2H4063.23V12109.9Z" fill="#96FAF8"/>
<path d="M3903.9 12269.2H4063.24V12428.6H3903.9V12269.2ZM4381.92 11791.2H4541.26V11950.5H4381.92V11791.2Z" fill="#96FAF8"/>
<path d="M4222.55 11950.5H4381.9V12109.9H4222.55V11950.5ZM3425.85 12747.2H3585.19V12906.6H3425.85V12747.2Z" fill="#96FAF8"/>
<path d="M3266.52 12906.6H3425.86V13065.9H3266.52V12906.6ZM3744.55 12428.6H3903.89V12587.9H3744.55V12428.6Z" fill="#96FAF8"/>
<path d="M3585.19 12587.9H3744.53V12747.2H3585.19V12587.9ZM3903.87 12587.9H4063.21V12747.2H3903.87V12587.9Z" fill="#96FAF8"/>
<path d="M3744.57 12747.2H3903.91V12906.6H3744.57V12747.2ZM4222.59 12269.2H4381.93V12428.6H4222.59V12269.2Z" fill="#96FAF8"/>
<path d="M4063.23 12428.6H4222.58V12587.9H4063.23V12428.6ZM13783 6851.64H13942.4V7010.99H13783V6851.64Z" fill="#96FAF8"/>
<path d="M13623.7 7010.98H13783V7170.32H13623.7V7010.98ZM14101.7 6532.96H14261V6692.3H14101.7V6532.96Z" fill="#96FAF8"/>
<path d="M13942.4 6692.3H14101.7V6851.64H13942.4V6692.3ZM13145.7 7489H13305V7648.34H13145.7V7489Z" fill="#96FAF8"/>
<path d="M12986.3 7648.34H13145.6V7807.68H12986.3V7648.34ZM13464.3 7170.32H13623.6V7329.66H13464.3V7170.32Z" fill="#96FAF8"/>
<path d="M13305 7329.66H13464.3V7489H13305V7329.66ZM13623.7 7329.66H13783V7489H13623.7V7329.66Z" fill="#96FAF8"/>
<path d="M13464.3 7489.01H13623.7V7648.35H13464.3V7489.01ZM13942.3 7010.99H14101.7V7170.33H13942.3V7010.99Z" fill="#96FAF8"/>
<path d="M13783 7170.33H13942.3V7329.67H13783V7170.33ZM10436.8 6851.64H10596.2V7010.99H10436.8V6851.64Z" fill="#96FAF8"/>
<path d="M10277.5 7010.98H10436.8V7170.32H10277.5V7010.98ZM10755.5 6532.96H10914.9V6692.3H10755.5V6532.96Z" fill="#96FAF8"/>
<path d="M10596.2 6692.3H10755.6V6851.64H10596.2V6692.3ZM9799.51 7489H9958.85V7648.34H9799.51V7489Z" fill="#96FAF8"/>
<path d="M9640.12 7648.34H9799.47V7807.68H9640.12V7648.34ZM10118.1 7170.32H10277.5V7329.66H10118.1V7170.32Z" fill="#96FAF8"/>
<path d="M9958.84 7329.66H10118.2V7489H9958.84V7329.66ZM10277.5 7329.66H10436.9V7489H10277.5V7329.66Z" fill="#96FAF8"/>
<path d="M10118.2 7489.01H10277.5V7648.35H10118.2V7489.01ZM10596.2 7010.99H10755.5V7170.33H10596.2V7010.99Z" fill="#96FAF8"/>
<path d="M10436.9 7170.33H10596.2V7329.67H10436.9V7170.33ZM7409.39 6851.64H7568.73V7010.99H7409.39V6851.64Z" fill="#96FAF8"/>
<path d="M7250.05 7010.98H7409.4V7170.32H7250.05V7010.98ZM7728.08 6532.96H7887.42V6692.3H7728.08V6532.96Z" fill="#96FAF8"/>
<path d="M7568.71 6692.3H7728.05V6851.64H7568.71V6692.3ZM6772.01 7489H6931.35V7648.34H6772.01V7489Z" fill="#96FAF8"/>
<path d="M6612.68 7648.34H6772.02V7807.68H6612.68V7648.34ZM7090.7 7170.32H7250.04V7329.66H7090.7V7170.32Z" fill="#96FAF8"/>
<path d="M6931.34 7329.66H7090.68V7489H6931.34V7329.66ZM7250.02 7329.66H7409.37V7489H7250.02V7329.66Z" fill="#96FAF8"/>
<path d="M7090.67 7489.01H7250.01V7648.35H7090.67V7489.01ZM7568.69 7010.99H7728.03V7170.33H7568.69V7010.99Z" fill="#96FAF8"/>
<path d="M7409.39 7170.33H7568.73V7329.67H7409.39V7170.33ZM4063.23 6851.64H4222.57V7010.99H4063.23V6851.64Z" fill="#96FAF8"/>
<path d="M3903.9 7010.98H4063.24V7170.32H3903.9V7010.98ZM4381.92 6532.96H4541.26V6692.3H4381.92V6532.96Z" fill="#96FAF8"/>
<path d="M4222.55 6692.3H4381.9V6851.64H4222.55V6692.3ZM3425.85 7489H3585.19V7648.34H3425.85V7489Z" fill="#96FAF8"/>
<path d="M3266.52 7648.34H3425.86V7807.68H3266.52V7648.34ZM3744.55 7170.32H3903.89V7329.66H3744.55V7170.32Z" fill="#96FAF8"/>
<path d="M3585.19 7329.66H3744.53V7489H3585.19V7329.66ZM3903.87 7329.66H4063.21V7489H3903.87V7329.66Z" fill="#96FAF8"/>
<path d="M3744.57 7489.01H3903.91V7648.35H3744.57V7489.01ZM4222.59 7010.99H4381.93V7170.33H4222.59V7010.99Z" fill="#96FAF8"/>
<path d="M4063.23 7170.32H4222.57V7329.66H4063.23V7170.32Z" fill="#96FAF8"/>
<path d="M4939.56 4939.55H2549.45V6214.28H5258.24V4939.55H5098.9H4939.56ZM14818.7 4939.55H12269.2V6214.28H14978V4939.55H14818.7ZM11313.2 4939.55H9082.41V6214.28H11631.9V4939.55H11472.5H11313.2ZM4939.56 10516.5H2549.45V11472.5H5258.24V10516.5H5098.9H4939.56ZM14659.3 10516.5H12269.2V11472.5H14978V10516.5H14818.7H14659.3ZM8285.71 10516.5H5895.6V11472.5H8604.39V10516.5H8445.05H8285.71ZM11313.2 10516.5H8923.07V11472.5H11631.9V10516.5H11472.5H11313.2ZM6214.28 6214.28H8445.05V4939.55H5895.6V6214.28H6054.94H6214.28Z" fill="#04B7BD"/>
<path d="M4939.57 4939.55V6214.28H5258.25V4939.55H5098.91H4939.57ZM14818.7 4939.55H14659.3V6214.28H14978V4939.55H14818.7ZM11313.2 4939.55V6214.28H11631.9V4939.55H11472.5H11313.2ZM8445.06 6214.28V4939.55H8126.38V6214.28H8285.72H8445.06ZM4939.57 10516.5V11472.5H5258.25V10516.5H5098.91H4939.57ZM14659.3 10516.5V11472.5H14978V10516.5H14818.7H14659.3ZM8285.72 10516.5V11472.5H8604.4V10516.5H8445.06H8285.72ZM11313.2 10516.5V11472.5H11631.9V10516.5H11472.5H11313.2Z" fill="#62D2D6"/>
<path d="M9241.76 11950.5V12587.9H9401.1V11950.5H9241.76ZM8126.37 12109.9V12587.9H8285.71V11950.5H8126.37V12109.9ZM16571.4 9082.41H16412.1V8923.07H16252.7V8763.73H1274.73V8923.07H1115.38V9082.41H956.044V9241.75H796.703V10516.5H956.044V10675.8H1115.38V10835.2H1274.73V10994.5H1912.09V10835.2H2071.43V10675.8H2230.77V10516.5H2390.11V10675.8H2549.45V10835.2H2708.79V10994.5H3346.15V10835.2H3505.49V10675.8H3664.83V10516.5H3824.18V10675.8H3983.52V10835.2H4142.86V10994.5H4780.22V10835.2H4939.56V10675.8H5098.9V10516.5H5258.24V10675.8H5417.58V10835.2H5576.92V10994.5H6214.28V10835.2H6373.63V10675.8H6532.97V10516.5H6692.31V10675.8H6851.65V10835.2H7010.99V10994.5H7648.35V10835.2H7807.69V10675.8H7967.03V10516.5H8126.37V10675.8H8285.71V10835.2H8445.05V10994.5H9082.42V10835.2H9241.76V10675.8H9401.1V10516.5H9560.44V10675.8H9719.78V10835.2H9879.12V10994.5H10516.5V10835.2H10675.8V10675.8H10835.2V10516.5H10994.5V10675.8H11153.8V10835.2H11313.2V10994.5H11950.5V10835.2H12109.9V10675.8H12269.2V10516.5H12428.6V10675.8H12587.9V10835.2H12747.3V10994.5H13384.6V10835.2H13544V10675.8H13703.3V10516.5H13862.6V10675.8H14022V10835.2H14181.3V10994.5H14818.7V10835.2H14978V10675.8H15137.4V10516.5H15296.7V10675.8H15456V10835.2H15615.4V10994.5H16252.7V10835.2H16412.1V10675.8H16571.4V10516.5H16730.8V9241.75H16571.4V9082.41ZM16571.4 3983.51V3824.17H16412.1V3664.83H16252.7V3505.49H1274.73V3664.83H1115.38V3824.17H956.044V3983.51H796.703V5258.24H956.044V5417.58H1115.38V5576.92H1274.73V5736.26H1912.09V5576.92H2071.43V5417.58H2230.77V5258.24H2390.11V5417.58H2549.45V5576.92H2708.79V5736.26H3346.15V5576.92H3505.49V5417.58H3664.83V5258.24H3824.18V5417.58H3983.52V5576.92H4142.86V5736.26H4780.22V5576.92H4939.56V5417.58H5098.9V5258.24H5258.24V5417.58H5417.58V5576.92H5576.92V5736.26H6214.28V5576.92H6373.63V5417.58H6532.97V5258.24H6692.31V5417.58H6851.65V5576.92H7010.99V5736.26H7648.35V5576.92H7807.69V5417.58H7967.03V5258.24H8126.37V5417.58H8285.71V5576.92H8445.05V5736.26H9082.42V5576.92H9241.76V5417.58H9401.1V5258.24H9560.44V5417.58H9719.78V5576.92H9879.12V5736.26H10516.5V5576.92H10675.8V5417.58H10835.2V5258.24H10994.5V5417.58H11153.8V5576.92H11313.2V5736.26H11950.5V5576.92H12109.9V5417.58H12269.2V5258.24H12428.6V5417.58H12587.9V5576.92H12747.3V5736.26H13384.6V5576.92H13544V5417.58H13703.3V5258.24H13862.6V5417.58H14022V5576.92H14181.3V5736.26H14818.7V5576.92H14978V5417.58H15137.4V5258.24H15296.7V5417.58H15456V5576.92H15615.4V5736.26H16252.7V5576.92H16412.1V5417.58H16571.4V5258.24H16730.8V3983.51H16571.4Z" fill="black"/>
<path d="M1912.08 10197.8H956.039V10516.5H1115.38V10675.8H1274.72V10835.2H1912.08V10675.8H2071.42V10516.5H2230.76V10197.8H2071.42H1912.08Z" fill="#37F4F1"/>
<path d="M4780.19 10197.8H3824.15V10516.5H3983.49V10675.8H4142.83V10835.2H4780.19V10675.8H4939.53V10516.5H5098.87V10197.8H4939.53H4780.19Z" fill="#37F4F1"/>
<path d="M7648.36 10197.8H6692.32V10516.5H6851.66V10675.8H7011V10835.2H7648.36V10675.8H7807.7V10516.5H7967.05V10197.8H7807.7H7648.36Z" fill="#37F4F1"/>
<path d="M10516.5 10197.8H9560.43V10516.5H9719.77V10675.8H9879.11V10835.2H10516.5V10675.8H10675.8V10516.5H10835.2V10197.8H10675.8H10516.5Z" fill="#37F4F1"/>
<path d="M13384.6 10197.8H12428.5V10516.5H12587.9V10675.8H12747.2V10835.2H13384.6V10675.8H13543.9V10516.5H13703.3V10197.8H13543.9H13384.6Z" fill="#37F4F1"/>
<path d="M16412.1 10197.8H15296.7V10516.5H15456V10675.8H15615.4V10835.2H16252.7V10675.8H16412.1V10516.5H16571.4V10197.8H16412.1Z" fill="#37F4F1"/>
<path d="M3346.17 4939.56H2390.12V5258.24H2549.47V5417.58H2708.81V5576.92H3346.17V5417.58H3505.51V5258.24H3664.85V4939.56H3505.51H3346.17Z" fill="#37F4F1"/>
<path d="M6214.28 4939.56H5258.23V5258.24H5417.57V5417.58H5576.92V5576.92H6214.28V5417.58H6373.62V5258.24H6532.96V4939.56H6373.62H6214.28Z" fill="#37F4F1"/>
<path d="M9082.39 4939.56H8126.34V5258.24H8285.68V5417.58H8445.02V5576.92H9082.39V5417.58H9241.73V5258.24H9401.07V4939.56H9241.73H9082.39Z" fill="#37F4F1"/>
<path d="M11950.6 4939.56H10994.5V5258.24H11153.8V5417.58H11313.2V5576.92H11950.6V5417.58H12109.9V5258.24H12269.2V4939.56H12109.9H11950.6Z" fill="#37F4F1"/>
<path d="M14818.7 4939.56H13862.6V5258.24H14022V5417.58H14181.3V5576.92H14818.7V5417.58H14978V5258.24H15137.3V4939.56H14978H14818.7Z" fill="#37F4F1"/>
<path d="M3346.17 10197.8H2390.12V10516.5H2549.47V10675.8H2708.81V10835.2H3346.17V10675.8H3505.51V10516.5H3664.85V10197.8H3505.51H3346.17Z" fill="#FF00FF"/>
<path d="M6214.28 10197.8H5258.23V10516.5H5417.57V10675.8H5576.92V10835.2H6214.28V10675.8H6373.62V10516.5H6532.96V10197.8H6373.62H6214.28Z" fill="#FF00FF"/>
<path d="M9082.44 10197.8H8126.4V10516.5H8285.74V10675.8H8445.08V10835.2H9082.44V10675.8H9241.78V10516.5H9401.12V10197.8H9241.78H9082.44Z" fill="#FF00FF"/>
<path d="M11950.6 10197.8H10994.5V10516.5H11153.8V10675.8H11313.2V10835.2H11950.6V10675.8H12109.9V10516.5H12269.2V10197.8H12109.9H11950.6Z" fill="#FF00FF"/>
<path d="M14818.7 10197.8H13862.6V10516.5H14022V10675.8H14181.3V10835.2H14818.7V10675.8H14978V10516.5H15137.3V10197.8H14978H14818.7Z" fill="#FF00FF"/>
<path d="M1912.08 4939.56H956.039V5258.24H1115.38V5417.58H1274.72V5576.92H1912.08V5417.58H2071.42V5258.24H2230.76V4939.56H2071.42H1912.08Z" fill="#FF00FF"/>
<path d="M4780.19 4939.55H3824.15V5258.24H3983.49V5417.58H4142.83V5576.92H4780.19V5417.58H4939.53V5258.24H5098.87V4939.55H4939.53H4780.19Z" fill="#FF00FF"/>
<path d="M7648.36 4939.55H6692.32V5258.24H6851.66V5417.58H7011V5576.92H7648.36V5417.58H7807.7V5258.24H7967.05V4939.55H7807.7H7648.36Z" fill="#FF00FF"/>
<path d="M10516.5 4939.55H9560.43V5258.24H9719.77V5417.58H9879.11V5576.92H10516.5V5417.58H10675.8V5258.24H10835.2V4939.55H10675.8H10516.5Z" fill="#FF00FF"/>
<path d="M13384.6 4939.55H12428.6V5258.24H12587.9V5417.58H12747.3V5576.92H13384.6V5417.58H13544V5258.24H13703.3V4939.55H13544H13384.6Z" fill="#FF00FF"/>
<path d="M16412.1 4939.55H15296.7V5258.24H15456V5417.58H15615.4V5576.92H16252.7V5417.58H16412.1V5258.24H16571.4V4939.55H16412.1Z" fill="#FF00FF"/>
<path d="M16252.7 8923.07H1274.71V9082.41H1115.37V9241.75H16412.1V9082.41H16252.7V8923.07ZM16252.7 3824.17V3664.83H1274.71V3824.17H1115.37V3983.51H16412.1V3824.17H16252.7Z" fill="#610061"/>
<path d="M16252.7 9401.09H956.039V10038.5H16571.4V9401.09H16412.1H16252.7ZM16412.1 4142.85H956.039V4780.21H16571.4V4142.85H16412.1Z" fill="#820082"/>
<path d="M3824.22 9401.11H3664.88V10038.5H4142.9V9719.79H3983.56V9879.13H3824.22V9560.45H4142.9V9401.11H3983.56H3824.22ZM4461.58 9401.11H4302.24V10038.5H4780.26V9401.11H4461.58ZM4620.92 9719.79V9879.13H4461.58V9560.45H4620.92V9719.79ZM5098.94 9401.11H4939.6V9560.45H5098.94V10038.5H5258.28V9560.45H5417.62V9401.11H5258.28H5098.94ZM5736.3 9401.11H5576.96V10038.5H6054.98V9879.13H5736.3V9560.45H6054.98V9401.11H5895.64H5736.3ZM6533.01 9560.45V9719.79H6373.67V9401.11H6214.32V10038.5H6373.67V9879.13H6533.01V10038.5H6692.35V9401.11H6533.01V9560.45ZM6851.69 9560.45V10038.5H7011.03V9401.11H6851.69V9560.45ZM8126.41 9401.11H7967.07V9719.79H8126.41V9560.45H8445.09V9401.11H8285.75H8126.41ZM8923.12 9560.45V9719.79H8763.77V9401.11H8604.43V10038.5H8763.77V9879.13H8923.12V10038.5H9082.46V9401.11H8923.12V9560.45Z" fill="#FF00FF"/>
<path d="M9401.12 9401.11H9241.78V10038.5H9719.8V9401.11H9401.12ZM9560.46 9719.79V9879.13H9401.12V9560.45H9560.46V9719.79ZM7967.06 9879.13V10038.5H8445.08V9719.79H8126.4V9879.13H7967.06ZM10038.5 9401.11H9879.15V10038.5H10038.5V9879.13H10357.2V9401.11H10038.5ZM10197.8 9719.79H10038.5V9560.45H10197.8V9719.79ZM7329.7 9719.79H7489.04V9879.13H7329.7V9719.79Z" fill="#FF00FF"/>
<path d="M7489.02 9560.44H7648.36V9719.78H7489.02V9560.44ZM10675.8 9719.78H10835.2V9879.12H10675.8V9719.78Z" fill="#FF00FF"/>
<path d="M10835.2 9560.45H10994.5V9719.79H10835.2V9560.45ZM11472.5 9401.11H11313.2V9560.45H11631.9V9719.79H11791.2V9401.11H11631.9H11472.5ZM12269.2 9560.45V9719.79H12109.9V9401.11H11950.6V9879.13H12269.2V10038.5H12428.6V9401.11H12269.2V9560.45ZM12906.6 9560.45H13065.9V9719.79H12906.6V9560.45Z" fill="#FF00FF"/>
<path d="M13066 9401.11H13225.3V9560.45H13066V9401.11ZM11313.2 9719.79V10038.5H11791.2V9879.13H11631.9V9719.79H11472.6H11313.2ZM12747.3 9719.79H12906.6V9879.13H12747.3V9719.79Z" fill="#FF00FF"/>
<path d="M12587.9 9879.13H12747.3V10038.5H12587.9V9879.13ZM13703.3 9401.11H13384.6V9560.45H13703.3V9719.79H13862.6V9401.11H13703.3Z" fill="#FF00FF"/>
<path d="M13544 9719.79H13703.4V9879.13H13544V9719.79Z" fill="#FF00FF"/>
<path d="M13384.6 9879.13H13544V10038.5H13384.6V9879.13ZM5975.3 4142.87H6134.65V4302.21H5975.3V4142.87ZM6612.67 4142.87H6772.01V4302.21H6612.67V4142.87ZM7409.37 4302.21V4620.89H7568.71V4142.87H7409.37V4302.21ZM7887.39 4142.87H7728.05V4780.23H8206.07V4620.89H8046.73V4461.55H7887.39V4302.21H8046.73V4461.55H8206.07V4142.87H8046.73H7887.39ZM8524.75 4142.87H8365.41V4780.23H8843.44V4461.55H8684.1V4620.89H8524.75V4302.21H8843.44V4142.87H8684.1H8524.75ZM9162.12 4142.87H9002.78V4780.23H9480.8V4142.87H9162.12ZM9321.46 4461.55V4620.89H9162.12V4302.21H9321.46V4461.55ZM9799.48 4142.87H9640.14V4302.21H9799.48V4780.23H9958.82V4302.21H10118.2V4142.87H9958.82H9799.48Z" fill="#FF00FF"/>
<path d="M10436.8 4142.87H10277.5V4780.23H10755.5V4620.89H10436.8V4302.21H10755.5V4142.87H10596.2H10436.8ZM11233.5 4302.21V4461.55H11074.2V4142.87H10914.9V4780.23H11074.2V4620.89H11233.5V4780.23H11392.9V4142.87H11233.5V4302.21ZM11552.2 4302.21V4780.23H11711.6V4142.87H11552.2V4302.21ZM7250.02 4620.89H7409.36V4780.23H7250.02V4620.89ZM5337.93 4461.55H5497.27V4620.89H5337.93V4461.55Z" fill="#FF00FF"/>
<path d="M5178.63 4302.21H5337.97V4461.55H5178.63V4302.21ZM4700.61 4461.55H4859.95V4620.89H4700.61V4461.55Z" fill="#FF00FF"/>
<path d="M4541.25 4302.21H4700.59V4461.55H4541.25V4302.21ZM4063.23 4461.55H4222.57V4620.89H4063.23V4461.55Z" fill="#FF00FF"/>
<path d="M3903.9 4302.21H4063.24V4461.55H3903.9V4302.21ZM6134.67 4461.55H5975.33V4302.21H5815.99V4780.23H5975.33V4620.89H6134.67V4780.23H6294.01V4302.21H6134.67V4461.55ZM6772.03 4461.55H6612.69V4302.21H6453.35V4780.23H6612.69V4620.89H6772.03V4780.23H6931.37V4302.21H6772.03V4461.55ZM7250.05 4302.21V4142.87H7090.71V4620.89H7250.05V4461.55V4302.21ZM12030.3 4461.55H12189.6V4620.89H12030.3V4461.55Z" fill="#FF00FF"/>
<path d="M12189.6 4302.21H12349V4461.55H12189.6V4302.21ZM12667.6 4461.55H12827V4620.89H12667.6V4461.55Z" fill="#FF00FF"/>
<path d="M12827 4302.21H12986.3V4461.55H12827V4302.21ZM13305 4461.55H13464.3V4620.89H13305V4461.55Z" fill="#FF00FF"/>
<path d="M13464.3 4302.21H13623.7V4461.55H13464.3V4302.21Z" fill="#FF00FF"/>
</svg>
