<?xml version="1.0" standalone="no"?>
<!DOCTYPE svg PUBLIC "-//W3C//DTD SVG 20010904//EN"
 "http://www.w3.org/TR/2001/REC-SVG-20010904/DTD/svg10.dtd">
<svg version="1.0" xmlns="http://www.w3.org/2000/svg"
 width="225.000000pt" height="225.000000pt" viewBox="0 0 225.000000 225.000000"
 preserveAspectRatio="xMidYMid meet">

<g transform="translate(0.000000,225.000000) scale(0.100000,-0.100000)"
fill="#000000" stroke="none">
<path d="M0 2091 l0 -158 193 -99 c105 -54 220 -112 254 -129 69 -33 72 -41
53 -120 -5 -22 -10 -90 -11 -151 l-2 -111 -171 -6 c-94 -4 -204 -7 -243 -7
l-73 0 0 -180 c0 -99 4 -180 8 -180 19 0 158 54 164 64 4 6 8 8 8 5 0 -6 86
21 263 84 87 31 99 33 104 19 3 -10 25 -64 48 -122 l43 -104 -66 -61 c-119
-109 -137 -127 -135 -136 2 -5 -4 -9 -12 -9 -8 0 -25 -10 -37 -23 -13 -12 -66
-60 -118 -106 -52 -47 -111 -99 -130 -118 -19 -18 -59 -53 -87 -79 l-53 -46 0
-159 0 -159 159 0 160 0 57 100 c56 99 83 135 64 85 -14 -36 -13 -78 2 -93 7
-7 38 -12 70 -12 49 0 63 4 84 25 33 33 120 36 147 5 25 -29 81 -27 113 5 20
20 26 22 30 10 3 -8 20 -17 38 -20 32 -7 32 -7 26 -56 l-6 -49 181 0 182 0 -8
51 c-4 27 -6 56 -3 64 6 14 124 27 124 13 0 -18 35 -38 66 -38 23 0 43 8 59
24 24 24 24 24 42 4 16 -17 28 -19 105 -16 51 2 92 8 99 15 7 7 13 31 13 53 1
22 2 40 3 40 2 0 30 -47 64 -105 l62 -105 159 0 158 0 0 159 0 159 -127 114
c-69 62 -149 134 -177 160 -28 26 -106 95 -172 155 l-121 108 -4 150 c-2 83
-4 151 -3 153 1 4 88 -26 337 -117 137 -50 253 -91 258 -91 5 0 9 78 9 179 l0
179 -272 7 c-197 5 -273 4 -276 -4 -2 -7 -8 -7 -17 3 -10 9 -12 34 -9 92 5 73
3 83 -25 139 -17 33 -27 63 -23 66 9 9 171 93 430 223 l192 97 0 160 0 159
-159 0 -159 0 -163 -185 c-89 -102 -166 -185 -171 -185 -25 0 -309 112 -332
131 -4 4 1 52 13 106 32 148 49 133 -157 133 l-179 0 18 -87 c10 -49 21 -98
24 -109 4 -20 0 -22 -63 -26 -91 -7 -166 -38 -230 -94 l-54 -47 -22 24 c-12
13 -85 95 -160 182 l-138 157 -159 0 -159 0 0 -159z m1218 -120 c46 -13 51
-24 26 -60 -16 -23 -20 -23 -123 -19 -79 4 -119 11 -156 27 l-50 22 143 -5
c81 -2 142 0 142 5 0 5 -60 9 -132 9 -73 0 -150 3 -172 7 -37 6 -37 7 -16 18
29 16 279 13 338 -4z m-424 -91 c-54 -27 -121 -69 -149 -94 l-50 -44 50 6 c40
4 60 14 100 47 54 46 112 78 160 89 17 4 39 10 49 13 15 4 18 1 13 -11 -6 -14
7 -16 116 -16 76 0 143 6 177 15 62 17 118 19 139 6 10 -6 -2 -19 -46 -49 -72
-49 -98 -94 -90 -159 6 -53 27 -79 73 -87 40 -8 42 -15 12 -43 -40 -36 -71
-46 -173 -59 l-100 -12 80 -1 c44 0 97 3 118 8 20 5 37 8 37 6 0 -2 -12 -26
-26 -54 l-27 -51 18 -82 c20 -93 16 -185 -10 -258 -9 -25 -19 -80 -22 -122
l-6 -77 -56 43 c-72 57 -112 76 -153 76 -31 -1 -29 -2 20 -20 29 -10 68 -28
87 -40 44 -27 115 -108 115 -131 0 -9 3 -25 7 -34 5 -14 2 -16 -13 -11 -10 3
-56 10 -101 15 -76 8 -90 14 -195 75 -62 37 -121 73 -130 80 -24 18 -72 125
-119 266 l-39 115 5 -75 c7 -86 2 -84 -50 28 -19 39 -36 72 -38 72 -12 0 18
-92 47 -145 18 -33 46 -91 61 -130 52 -133 83 -177 160 -230 102 -70 435 -167
435 -126 0 11 -35 21 -76 21 -16 0 -39 7 -50 16 -19 15 -19 15 1 10 11 -2 45
-7 75 -11 76 -8 181 -38 177 -50 -4 -12 -42 -23 -84 -24 -23 -1 -33 -6 -33
-16 0 -21 -48 -38 -92 -32 -20 3 -83 24 -140 47 -293 120 -327 147 -412 322
-30 62 -70 160 -88 218 -30 97 -32 115 -32 245 0 112 5 159 23 232 26 107 53
149 141 222 61 51 61 51 133 51 l71 0 -100 -50z m675 -36 l32 -7 -27 -28 c-23
-24 -25 -31 -14 -44 7 -8 25 -15 41 -15 24 0 30 5 37 33 8 32 9 32 21 9 10
-19 9 -33 -3 -75 -9 -29 -20 -58 -24 -65 -20 -30 -181 -43 -215 -18 -24 18
-36 65 -25 96 12 34 66 89 103 106 36 16 34 16 74 8z m120 -226 c1 -20 -7 -22
-27 -9 -11 6 -11 13 0 35 11 25 13 26 19 9 4 -10 8 -26 8 -35z m-56 -27 c47
-18 94 -69 107 -116 11 -40 10 -58 -14 -165 -26 -115 -26 -123 -13 -197 16
-89 15 -208 -2 -270 -23 -85 -90 -133 -183 -133 -66 0 -116 24 -142 69 -29 51
-28 166 4 256 26 75 33 189 16 290 -10 60 17 141 68 208 48 63 98 81 159 58z
m207 -411 c0 -5 -2 -10 -4 -10 -3 0 -8 5 -11 10 -3 6 -1 10 4 10 6 0 11 -4 11
-10z m-982 -225 c16 -34 15 -40 -2 -26 -16 13 -28 51 -17 51 4 0 13 -11 19
-25z m128 -116 c18 -11 37 -26 44 -34 22 -27 -22 -18 -73 15 -78 49 -50 67 29
19z m-221 -79 c3 -5 1 -10 -4 -10 -6 0 -11 5 -11 10 0 6 2 10 4 10 3 0 8 -4
11 -10z m136 -40 c15 -12 72 -40 126 -64 l98 -44 -4 -43 c-1 -24 -5 -48 -8
-53 -3 -5 -27 -6 -54 -3 -76 9 -79 3 -80 -181 l-1 -157 -14 60 c-29 121 -66
230 -82 243 -23 17 -128 16 -135 -2 -4 -9 -14 -12 -26 -9 -26 7 -26 4 0 47 11
19 17 41 13 47 -4 7 -3 9 3 6 6 -4 34 32 64 83 30 49 58 90 62 90 5 0 22 -9
38 -20z m777 -119 l43 -73 -26 -20 c-25 -19 -25 -21 -26 -171 -1 -84 -4 -143
-6 -132 -30 119 -77 263 -90 273 -23 17 -117 16 -132 -2 -8 -10 -22 -11 -51
-6 -50 9 -49 9 -57 53 -5 33 -3 36 23 43 16 3 70 25 119 48 131 62 139 65 150
62 6 -1 29 -35 53 -75z m-500 -138 c-2 -23 -9 -29 -38 -33 -31 -4 -35 -9 -38
-37 -3 -32 -2 -33 34 -33 33 0 36 -2 30 -22 -3 -13 -6 -29 -6 -35 0 -8 -13
-13 -30 -13 -25 0 -30 -4 -30 -25 0 -20 6 -27 30 -32 25 -4 30 -10 30 -33 0
-28 -1 -28 -67 -32 -38 -2 -71 -2 -75 0 -5 2 -8 75 -8 163 l0 159 86 0 85 0
-3 -27z m687 -3 c0 -21 -6 -26 -35 -30 -31 -4 -35 -8 -35 -35 0 -27 4 -30 33
-33 29 -3 33 -6 28 -25 -3 -12 -6 -27 -6 -34 0 -6 -12 -13 -27 -15 -20 -2 -29
-9 -31 -26 -3 -18 2 -23 27 -28 26 -5 31 -11 31 -34 0 -28 -1 -28 -65 -32 -36
-1 -70 -1 -75 0 -6 2 -10 68 -10 163 l0 160 83 -3 c80 -3 82 -4 82 -28z
m-1011 2 c3 -5 21 -71 41 -146 38 -148 37 -166 -11 -166 -13 0 -24 2 -24 4 0
8 -31 131 -37 146 -3 8 -11 -12 -17 -45 l-11 -60 -41 -3 -41 -3 -12 60 c-7 34
-16 61 -20 61 -5 0 -12 -36 -15 -79 -8 -86 -12 -91 -72 -91 -36 0 -39 6 -25
42 5 13 18 78 27 146 l18 122 47 0 47 0 12 -66 c14 -75 23 -70 40 23 l12 63
39 0 c21 0 40 -4 43 -8z m690 -1 c4 -5 22 -71 41 -146 37 -143 36 -165 -6
-165 -22 0 -32 17 -48 85 -21 81 -23 83 -35 20 l-11 -60 -41 -3 -41 -3 -13 60
c-7 34 -16 61 -20 61 -4 0 -11 -36 -14 -79 -8 -86 -12 -91 -73 -91 -29 0 -34
3 -28 18 7 17 29 148 42 245 l6 47 47 0 48 0 12 -65 c7 -36 15 -63 19 -60 4 2
13 36 20 75 l13 70 38 0 c21 0 41 -4 44 -9z"/>
<path d="M1030 1850 c-155 -8 -184 -16 -230 -65 -14 -14 -32 -47 -40 -73 -11
-36 -20 -48 -38 -50 -16 -2 -22 -8 -18 -18 3 -8 2 -14 -2 -14 -4 0 -18 -9 -32
-20 l-25 -19 54 6 55 6 -23 -36 c-26 -43 -20 -47 21 -12 l29 25 47 -24 c96
-48 166 -41 226 22 48 52 49 164 1 216 -14 15 -25 31 -25 37 0 5 45 9 103 9
56 0 109 5 117 10 17 11 7 11 -220 0z m-51 -46 c44 -13 55 -21 67 -49 8 -19
14 -55 14 -80 0 -38 -6 -52 -34 -83 -31 -33 -39 -37 -83 -36 -68 1 -136 33
-152 72 -28 67 25 164 99 182 19 4 35 8 36 9 0 1 24 -6 53 -15z"/>
<path d="M827 1663 c-11 -59 28 -81 77 -42 48 38 30 69 -39 69 -28 0 -33 -4
-38 -27z"/>
<path d="M1208 1455 c-2 -3 -47 -6 -99 -8 -86 -2 -94 -4 -94 -22 0 -23 46 -41
128 -51 42 -5 57 -3 75 13 24 18 23 18 -55 16 -78 -3 -75 8 8 21 40 7 86 35
58 36 -9 0 -18 -2 -21 -5z"/>
<path d="M1020 1340 c0 -15 33 -20 133 -19 62 0 94 3 82 8 -27 11 -215 20
-215 11z"/>
<path d="M735 1223 c10 -16 26 -37 35 -48 37 -41 60 -91 60 -128 0 -56 20 -85
107 -161 121 -105 129 -98 16 11 l-103 99 0 50 c0 46 -5 58 -56 127 -31 43
-61 77 -66 77 -6 0 -2 -12 7 -27z"/>
<path d="M965 1141 c-16 -7 -10 -10 30 -16 l50 -8 -30 -13 -30 -13 27 -1 c15
0 61 -18 103 -40 41 -22 75 -36 75 -32 0 15 -81 90 -113 105 -44 20 -88 27
-112 18z"/>
<path d="M1055 1031 c22 -10 62 -37 90 -60 59 -49 93 -56 49 -10 -47 49 -114
89 -148 88 l-31 0 40 -18z"/>
<path d="M1422 1515 c-50 -42 -65 -94 -67 -235 -1 -69 -10 -168 -19 -220 -27
-145 -9 -242 49 -268 40 -19 99 -15 128 8 41 33 70 123 63 198 -18 191 -18
184 8 261 31 90 32 101 6 185 -17 52 -27 69 -50 81 -43 22 -84 19 -118 -10z
m110 -17 c8 -7 18 -21 22 -31 5 -16 1 -18 -42 -12 -78 11 -83 14 -72 36 12 22
67 26 92 7z m-102 -78 c0 -23 -4 -30 -20 -30 -24 0 -26 17 -3 42 21 24 23 23
23 -12z m50 16 c0 -8 3 -21 6 -30 5 -12 0 -16 -20 -16 -30 0 -30 0 -14 35 12
27 28 33 28 11z m49 -38 c1 -5 -6 -8 -14 -8 -16 0 -19 9 -8 36 6 16 7 16 14
-2 4 -10 8 -22 8 -26z m51 0 c0 -5 -7 -8 -15 -8 -15 0 -20 21 -8 33 7 7 23
-11 23 -25z m0 -46 c0 -10 -12 -52 -26 -93 -26 -76 -27 -107 -8 -254 l6 -50
-30 41 c-30 41 -90 74 -134 74 -19 0 -20 4 -14 46 3 26 6 93 6 150 l0 104 100
0 c90 0 100 -2 100 -18z m-137 -313 c32 -17 77 -61 77 -76 0 -10 -22 -13 -86
-13 l-87 0 7 38 c3 20 6 43 6 50 0 15 54 16 83 1z m-53 -139 c0 -38 -10 -38
-32 0 -17 30 -17 30 7 30 21 0 25 -5 25 -30z m50 4 c0 -31 -23 -28 -28 4 -2
15 2 22 12 22 11 0 16 -9 16 -26z m50 -9 c0 -36 -13 -47 -24 -19 -11 28 -6 54
9 54 10 0 15 -11 15 -35z m48 3 c-10 -29 -12 -30 -25 -13 -20 28 -16 45 11 45
24 0 24 -2 14 -32z m-40 -75 c-24 -29 -128 -6 -128 28 0 14 45 14 92 0 37 -12
45 -17 36 -28z"/>
</g>
</svg>
