<?xml version="1.0" encoding="UTF-8" standalone="yes"?>
<!-- Created with sK1/UniConvertor (http://sk1project.org/) -->
<svg xmlns="http://www.w3.org/2000/svg" xmlns:xlink="http://www.w3.org/1999/xlink"
  width="137.6pt" height="108.8pt" viewBox="0 0 137.6 108.8"
  fill-rule="evenodd">
<g>
<path style="stroke:none; fill:#522181" d="M 0 0L 0 41.6L 10.4 41.6L 10.4 34.4L 22.4 33.6L 22.4 24L 27.2 24L 27.2 19.2L 32.8 19.2L 32.8 13.6L 43.2 13.6L 43.2 8.8L 53.6 8.8L 53.6 4L 79.2 4L 79.2 8.8L 89.6 8.8L 89.6 13.6L 100.8 13.6C 100.924 17.3792 101.688 18.8952 105.6 19.2C 105.724 22.9792 106.488 24.4952 110.4 24.8L 110.4 28L 112.8 28L 112.8 34.4L 125.6 34.4L 125.6 41.6L 137.6 41.6L 137.6 1.60001C 92.1232 -1.35215 45.8018 0 0 0z"/>
<path style="stroke:none; fill:#b9aee9" d="M 132.8 0L 132.8 0.800003L 137.6 0.800003C 135.958 0.100601 134.602 0.0377731 132.8 0z"/>
<path style="stroke:none; fill:#664590" d="M 132.8 0.800003L 132.8 1.60001L 137.6 1.60001C 135.958 0.900604 134.602 0.837769 132.8 0.800003M 53.6 4L 53.6 8L 79.2 8L 79.2 4L 53.6 4z"/>
<path style="stroke:none; fill:#8367a6" d="M 52.8 13.6L 53.6 13.6L 53.6 8.8L 79.2 8.8C 72.992 6.19499 53.0714 5.33624 52.8 13.6z"/>
<path style="stroke:none; fill:#664590" d="M 43.2 8.8L 43.2 13.6L 52.8 13.6L 52.8 8.8L 43.2 8.8z"/>
<path style="stroke:none; fill:#ebd3f8" d="M 53.6 8.8L 53.6 13.6L 54.4 13.6L 54.4 11.2L 66.4 11.2L 66.4 13.6L 79.2 13.6L 79.2 8.8L 53.6 8.8z"/>
<path style="stroke:none; fill:#9e85b8" d="M 79.2 8.8L 79.2 13.6L 80 13.6C 79.9622 11.7978 79.8994 10.4417 79.2 8.8z"/>
<path style="stroke:none; fill:#664590" d="M 80 8.8L 80 13.6L 89.6 13.6L 89.6 8.8L 80 8.8z"/>
<path style="stroke:none; fill:#fffbff" d="M 54.4 11.2L 53.6 16.8L 44 16.8L 43.2 21.6L 33.6 21.6L 32.8 27.2L 30.4 27.2L 30.4 88.8L 100 88.8L 100 24.8L 89.6 24.8L 89.6 19.2L 79.2 19.2L 79.2 13.6L 66.4 13.6L 66.4 11.2L 54.4 11.2z"/>
<path style="stroke:none; fill:#664590" d="M 32.8 13.6L 32.8 18.4L 42.4 18.4L 42.4 13.6L 32.8 13.6z"/>
<path style="stroke:none; fill:#8367a6" d="M 42.4 13.6L 42.4 18.4C 37.0104 18.4 32.2179 17.3634 32 24L 32.8 24L 32.8 19.2L 43.2 19.2C 43.185 17.1654 43.1876 15.4653 42.4 13.6z"/>
<path style="stroke:none; fill:#b6a2c8" d="M 43.2 13.6L 43.2 16.8L 44 16.8L 44 14.4L 53.6 14.4C 50.433 13.0711 46.6107 13.6 43.2 13.6M 79.2 13.6L 79.2 14.4L 89.6 14.4C 86.4328 13.0711 82.6104 13.6 79.2 13.6z"/>
<path style="stroke:none; fill:#aa89c5" d="M 89.6 13.6L 89.6 19.2L 90.4 19.2C 90.3848 17.1654 90.388 15.4653 89.6 13.6z"/>
<path style="stroke:none; fill:#664590" d="M 90.4 13.6L 90.4 18.4C 95.5456 18.4 100.319 17.6974 100.8 24L 105.6 24L 105.6 19.2C 102.045 18.633 101.068 17.1154 100.8 13.6L 90.4 13.6z"/>
<path style="stroke:none; fill:#ebd3f8" d="M 44 14.4L 44 16.8L 53.6 16.8L 53.6 14.4L 44 14.4M 79.2 14.4L 79.2 19.2L 89.6 19.2L 89.6 14.4L 79.2 14.4M 43.2 16.8L 43.2 19.2L 44 19.2C 43.799 18.0387 43.7478 17.7986 43.2 16.8M 64 18.4L 64 19.2L 68.8 19.2C 67.1583 18.5006 65.8022 18.4378 64 18.4z"/>
<path style="stroke:none; fill:#8367a6" d="M 90.4 18.4L 90.4 19.2L 100 19.2C 97.0424 17.9588 93.5864 18.4 90.4 18.4z"/>
<path style="stroke:none; fill:#664590" d="M 27.2 19.2L 27.2 24L 22.4 24L 22.4 33.6L 16.8 33.6L 16.8 34.4L 22.4 34.4C 22.4 40.3228 25.2414 57.4019 20 60.8L 20 63.2L 22.4 63.2C 22.4 67.7411 24.1969 76.4791 20 79.2L 20 81.6L 22.4 81.6L 22.4 89.6L 0 89.6L 0 94.4L 112.8 94.4C 112.414 92.5088 112.291 92.3856 110.4 92C 110.4 86.6648 108.865 79.3226 112.8 75.2C 111.802 74.6522 111.562 74.601 110.4 74.4L 110.4 24.8L 106.4 24.8L 106.4 89.6L 27.2 89.6L 27.2 24L 32 24L 32 19.2L 27.2 19.2z"/>
<path style="stroke:none; fill:#dfb3f8" d="M 32.8 19.2L 32.8 24L 33.6 24L 33.6 20L 43.2 20C 40.033 18.6711 36.2107 19.2 32.8 19.2z"/>
<path style="stroke:none; fill:#664590" d="M 64 19.2L 64 21.6L 68.8 21.6L 68.8 19.2L 64 19.2z"/>
<path style="stroke:none; fill:#b6a2c8" d="M 68.8 19.2L 68.8 21.6L 69.6 21.6C 69.399 20.4387 69.3478 20.1986 68.8 19.2z"/>
<path style="stroke:none; fill:#ebd3f8" d="M 89.6 19.2L 89.6 24.8L 100 24.8L 100 88.8L 104.8 88.8L 104.8 24.8C 101.38 24.4146 99.7696 23.4905 99.2 20C 95.9096 19.9996 92.8136 19.9652 89.6 19.2z"/>
<path style="stroke:none; fill:#dfb3f8" d="M 90.4 19.2L 90.4 20L 99.2 20L 99.2 24L 100 24L 100 19.2L 90.4 19.2z"/>
<path style="stroke:none; fill:#aa89c5" d="M 100 19.2L 100 24L 100.8 24C 100.762 22.1978 100.699 20.8417 100 19.2z"/>
<path style="stroke:none; fill:#ebd3f8" d="M 33.6 20L 33.6 21.6L 43.2 21.6L 43.2 20L 33.6 20M 60.8 21.6L 60.8 24L 61.6 24C 61.399 22.8388 61.3478 22.5986 60.8 21.6z"/>
<path style="stroke:none; fill:#8367a6" d="M 61.6 21.6L 61.6 22.4L 64 22.4C 63.0013 21.8522 62.7613 21.801 61.6 21.6z"/>
<path style="stroke:none; fill:#aa89c5" d="M 64 21.6L 64 22.4L 68.8 22.4C 67.1583 21.7006 65.8022 21.6378 64 21.6z"/>
<path style="stroke:none; fill:#8367a6" d="M 68.8 24L 69.6 24C 70.5229 23.1694 70.2771 23.1694 71.2 24C 72.4977 21.5159 69.4105 21.151 68.8 24z"/>
<path style="stroke:none; fill:#664590" d="M 61.6 22.4L 61.6 24L 64 24L 64 22.4L 61.6 22.4z"/>
<path style="stroke:none; fill:#ebd3f8" d="M 64 22.4C 62.8478 24.6647 61.4647 26.0478 59.2 27.2L 59.2 32L 66.4 32L 66.4 22.4L 64 22.4z"/>
<path style="stroke:none; fill:#dfb3f8" d="M 66.4 22.4L 66.4 32L 59.2 32L 59.2 36.8L 64 39.2L 64 42.4L 66.4 42.4L 66.4 32L 74.4 32L 74.4 27.2L 71.2 27.2L 68.8 22.4L 66.4 22.4z"/>
<path style="stroke:none; fill:#664590" d="M 69.6 22.4L 69.6 24L 71.2 24L 71.2 22.4L 69.6 22.4z"/>
<path style="stroke:none; fill:#aa89c5" d="M 27.2 24L 27.2 89.6L 30.4 89.6L 30.4 88.8L 28 88.8L 28 24.8L 32.8 24.8C 30.9347 24.0124 29.2346 24.015 27.2 24z"/>
<path style="stroke:none; fill:#b6a2c8" d="M 58.4 26.4L 59.2 26.4C 60.8454 25.1345 61.91 24.9395 64 24.8C 61.6964 23.4727 59.0174 23.5187 58.4 26.4z"/>
<path style="stroke:none; fill:#aa89c5" d="M 68.8 24L 68.8 24.8C 70.4989 25.5194 70.4806 25.5011 71.2 27.2L 76.8 27.2L 76.8 26.4L 72 26.4C 72.9782 25.4438 73.136 25.3469 74.4 24.8C 72.5347 24.0124 70.8346 24.015 68.8 24z"/>
<path style="stroke:none; fill:#b6a2c8" d="M 100.8 24L 100.8 24.8L 105.6 24.8C 103.958 24.1006 102.602 24.0378 100.8 24z"/>
<path style="stroke:none; fill:#8367a6" d="M 105.6 24L 105.6 89.6L 106.4 89.6L 106.4 44C 106.4 38.0162 107.922 29.535 105.6 24z"/>
<path style="stroke:none; fill:#ebd3f8" d="M 28 24.8L 28 88.8L 30.4 88.8C 30.4 68.5056 26.8212 43.9406 32.8 24.8L 28 24.8z"/>
<path style="stroke:none; fill:#664590" d="M 59.2 24.8L 59.2 26.4L 60.8 26.4L 60.8 24.8L 59.2 24.8z"/>
<path style="stroke:none; fill:#8367a6" d="M 61.0666 25.3334C 61.0222 25.3778 60.9778 26.2222 61.3334 25.8666C 61.3778 25.8222 61.4222 24.9778 61.0666 25.3334z"/>
<path style="stroke:none; fill:#664590" d="M 72 24.8L 72 26.4L 74.4 26.4L 74.4 24.8L 72 24.8z"/>
<path style="stroke:none; fill:#dfb3f8" d="M 104.8 24.8L 104.8 88.8L 105.6 88.8L 105.6 44.8C 105.6 38.8162 107.122 30.335 104.8 24.8z"/>
<path style="stroke:none; fill:#9e85b8" d="M 56 26.4L 56 37.6L 61.6 37.6L 61.6 36.8L 59.2 36.8C 59.2 33.2912 58.3737 29.2917 61.6 27.2C 59.7348 26.4124 58.0346 26.415 56 26.4z"/>
<path style="stroke:none; fill:#664590" d="M 56.8 27.2L 56.8 36.8L 58.4 36.8L 58.4 27.2L 56.8 27.2M 74.4 27.2L 74.4 36.8L 76.8 36.8L 76.8 27.2L 74.4 27.2z"/>
<path style="stroke:none; fill:#dfb3f8" d="M 76.8 27.2L 76.8 37.6L 77.6 37.6C 77.6 34.1893 78.1289 30.367 76.8 27.2z"/>
<path style="stroke:none; fill:#b843d0" d="M 110.4 28L 110.4 73.6L 111.2 73.6L 111.2 42.4C 111.2 37.9047 112.151 32.1732 110.4 28z"/>
<path style="stroke:none; fill:#eb46f7" d="M 111.2 28L 111.2 73.6C 112.899 74.3194 112.881 74.3011 113.6 76L 116.8 76L 119.2 81.6L 124 81.6L 124 84L 129.6 84L 132 88.8L 137.6 88.8L 137.6 42.4L 125.6 42.4L 125.6 35.2L 112 35.2C 111.998 32.6993 112.17 30.3118 111.2 28z"/>
<path style="stroke:none; fill:#943bb6" d="M 112 28L 112 34.4L 112.8 34.4C 112.794 32.1316 112.878 30.0902 112 28z"/>
<path style="stroke:none; fill:#c578f6" d="M 66.4 32L 66.4 41.6L 67.2 41.6L 67.2 32.8L 73.6 32.8C 71.2882 31.8296 68.9007 32.0014 66.4 32z"/>
<path style="stroke:none; fill:#c05ef9" d="M 73.6 32C 71.4168 32.6482 69.4796 32.7834 67.2 32.8C 67.1996 36.0907 67.1652 39.1861 66.4 42.4C 68.2912 42.014 68.414 41.8912 68.8 40L 72 40C 72.7194 38.3011 72.7011 38.3194 74.4 37.6C 74.385 35.5654 74.3876 33.8652 73.6 32z"/>
<path style="stroke:none; fill:#943bb6" d="M 10.4 34.4L 10.4 41.6L 11.2 41.6L 11.2 35.2L 22.4 35.2C 18.8229 33.699 14.2533 34.4 10.4 34.4z"/>
<path style="stroke:none; fill:#b843d0" d="M 112 34.4L 112 35.2L 118.4 35.2C 116.31 34.3218 114.268 34.4058 112 34.4z"/>
<path style="stroke:none; fill:#943bb6" d="M 118.4 34.4L 118.4 35.2L 125.6 35.2C 123.288 34.2296 120.901 34.4014 118.4 34.4z"/>
<path style="stroke:none; fill:#eb46f7" d="M 11.2 35.2C 11.1085 42.9412 6.49887 42.4 0 42.4L 0 88.8L 21.6 88.8L 21.6 81.6C 19.3353 80.448 17.9522 79.0647 16.8 76.8L 13.6 76.8L 13.6 74.4C 11.0343 74.0025 10.0451 73.4797 8.8 71.2L 4 71.2L 4 68.8L 0.8 68.8C 0.8 63.019 2.27638 60.2945 4 55.2L 15.2 55.2L 15.2 57.6C 18.1438 57.6621 19.189 58.8232 21.6 60L 21.6 35.2L 11.2 35.2z"/>
<path style="stroke:none; fill:#b843d0" d="M 21.6 35.2L 21.6 60C 20.6438 59.0218 20.5469 58.864 20 57.6C 17.5948 57.4235 16.5076 57.2362 15.2 55.2L 14.4 55.2L 14.4 58.4C 17.3791 58.6186 19.586 60.0416 22.4 60.8C 22.4 53.3291 24.4889 42.0845 21.6 35.2z"/>
<path style="stroke:none; fill:#9e85b8" d="M 74.4 36.8L 74.4 37.6L 76.8 37.6C 75.8014 37.0522 75.5613 37.001 74.4 36.8z"/>
<path style="stroke:none; fill:#b6a2c8" d="M 58.4 37.6L 58.4 40L 59.2 40C 58.999 38.8387 58.9478 38.5986 58.4 37.6z"/>
<path style="stroke:none; fill:#664590" d="M 59.2 37.6L 59.2 39.2L 60.8 39.2L 60.8 37.6L 59.2 37.6z"/>
<path style="stroke:none; fill:#8367a6" d="M 60.8 37.6C 60.3639 38.9082 60.5082 38.7639 59.2 39.2L 59.2 40C 61.0006 39.6214 61.6942 39.3118 60.8 37.6z"/>
<path style="stroke:none; fill:#664590" d="M 72 37.6L 72 39.2L 73.6 39.2L 73.6 37.6L 72 37.6z"/>
<path style="stroke:none; fill:#8367a6" d="M 73.6 37.6C 73.1639 38.9082 73.3082 38.7639 72 39.2L 72 40C 73.8006 39.6214 74.4942 39.3118 73.6 37.6z"/>
<path style="stroke:none; fill:#aa89c5" d="M 61.6 39.2L 61.6 40L 64 40C 63.0013 39.4522 62.7613 39.401 61.6 39.2z"/>
<path style="stroke:none; fill:#ebd3f8" d="M 60.8 40C 61.471 42.1012 61.8988 42.529 64 43.2L 64 42.4C 62.6034 41.7411 61.8806 41.1214 60.8 40z"/>
<path style="stroke:none; fill:#664590" d="M 61.6 40L 61.6 42.4L 64 42.4L 64 40L 61.6 40z"/>
<path style="stroke:none; fill:#943bb6" d="M 68.8 40L 68.8 42.4L 69.6 42.4C 69.399 41.2387 69.3478 40.9986 68.8 40z"/>
<path style="stroke:none; fill:#664590" d="M 69.6 40L 69.6 42.4L 71.2 42.4L 71.2 40L 69.6 40z"/>
<path style="stroke:none; fill:#9e85b8" d="M 71.2 40L 71.2 42.4L 72 42.4C 71.799 41.2387 71.7478 40.9986 71.2 40z"/>
<path style="stroke:none; fill:#b843d0" d="M 0 41.6L 0 42.4L 10.4 42.4C 7.23306 41.0711 3.41073 41.6 0 41.6M 125.6 41.6L 125.6 42.4L 137.6 42.4C 134.023 40.899 129.454 41.6 125.6 41.6z"/>
<path style="stroke:none; fill:#664590" d="M 64 42.4L 64 44.8L 68.8 44.8L 68.8 42.4L 64 42.4z"/>
<path style="stroke:none; fill:#b6a2c8" d="M 68.8 42.4L 68.8 44.8L 69.6 44.8C 69.399 43.6387 69.3478 43.3987 68.8 42.4z"/>
<path style="stroke:none; fill:#ebd3f8" d="M 69.6 42.4L 69.6 43.2L 72 43.2C 71.0013 42.6522 70.7613 42.601 69.6 42.4M 42.4 44.8L 42.4 49.6L 38.4 49.6L 38.4 50.4L 43.2 50.4C 43.185 48.3654 43.1876 46.6652 42.4 44.8z"/>
<path style="stroke:none; fill:#9e85b8" d="M 43.2 44.8L 43.2 45.6L 53.6 45.6C 50.433 44.2711 46.6107 44.8 43.2 44.8z"/>
<path style="stroke:none; fill:#ebd3f8" d="M 53.6 44.8L 53.6 50.4L 59.2 50.4L 59.2 49.6L 54.4 49.6C 54.3622 47.7978 54.2994 46.4417 53.6 44.8z"/>
<path style="stroke:none; fill:#b9aee9" d="M 64 44.8L 64 45.6L 68.8 45.6C 67.1583 44.9006 65.8022 44.8378 64 44.8z"/>
<path style="stroke:none; fill:#9e85b8" d="M 79.2 44.8L 79.2 50.4L 80 50.4L 80 45.6L 89.6 45.6L 89.6 50.4L 90.4 50.4L 90.4 44.8L 79.2 44.8z"/>
<path style="stroke:none; fill:#8367a6" d="M 43.2 45.6L 43.2 50.4L 44 50.4C 43.9622 48.5978 43.8994 47.2417 43.2 45.6z"/>
<path style="stroke:none; fill:#664590" d="M 44 45.6L 44 50.4L 38.4 50.4L 38.4 60C 42.3133 60.2986 43.7014 61.6867 44 65.6L 52.8 65.6C 53.0986 61.6867 54.4867 60.2986 58.4 60L 58.4 50.4L 52.8 50.4L 52.8 45.6L 44 45.6z"/>
<path style="stroke:none; fill:#8367a6" d="M 52.8 45.6L 52.8 50.4L 53.6 50.4C 53.5622 48.5978 53.4994 47.2417 52.8 45.6z"/>
<path style="stroke:none; fill:#664590" d="M 80 45.6C 79.7318 49.1154 78.7554 50.633 75.2 51.2L 75.2 60C 78.7554 60.567 79.7318 62.0846 80 65.6L 89.6 65.6L 89.6 60L 94.4 60L 94.4 51.2L 89.6 51.2L 89.6 45.6L 80 45.6z"/>
<path style="stroke:none; fill:#ebd3f8" d="M 79.2 61.6L 79.2 60.8L 74.4 60.8L 74.4 50.4L 79.2 50.4C 72.2231 47.5752 70.721 61.3216 79.2 61.6M 90.4 49.6L 90.4 50.4L 95.2 50.4L 95.2 60.8L 90.4 60.8C 97.3768 63.6248 98.8792 49.8784 90.4 49.6z"/>
<path style="stroke:none; fill:#aa89c5" d="M 37.6 50.4L 37.6 60.8L 38.4 60.8C 38.4 57.3893 38.9289 53.567 37.6 50.4M 58.4 50.4L 58.4 60.8L 59.2 60.8C 59.2 57.3893 59.7289 53.567 58.4 50.4z"/>
<path style="stroke:none; fill:#8367a6" d="M 74.4 50.4L 74.4 60.8L 79.2 60.8L 79.2 60L 75.2 60L 75.2 51.2L 79.2 51.2C 77.5583 50.5006 76.2022 50.4378 74.4 50.4M 89.6 50.4L 89.6 51.2L 94.4 51.2L 94.4 60L 89.6 60L 89.6 60.8L 95.2 60.8L 95.2 50.4L 89.6 50.4z"/>
<path style="stroke:none; fill:#943bb6" d="M 4 57.6L 4.8 57.6C 7.58549 55.4897 11.0086 56 14.4 56C 11.7456 54.4706 4.77323 53.9916 4 57.6z"/>
<path style="stroke:none; fill:#664590" d="M 4.8 56L 4.8 57.6L 14.4 57.6L 14.4 56L 4.8 56z"/>
<path style="stroke:none; fill:#b843d0" d="M 0.8 68.8L 1.6 68.8C 1.6 65.1443 0.620718 60.5908 4 58.4C -0.584574 57.3703 0.8 65.9434 0.8 68.8z"/>
<path style="stroke:none; fill:#aa89c5" d="M 4 57.6L 4 58.4L 14.4 58.4C 11.233 57.0711 7.41072 57.6 4 57.6z"/>
<path style="stroke:none; fill:#664590" d="M 1.6 58.4L 1.6 68L 4 68L 4 58.4L 1.6 58.4z"/>
<path style="stroke:none; fill:#ebd3f8" d="M 4 58.4L 4 65.6L 4.8 65.6C 4.79862 63.0993 4.97035 60.7118 4 58.4z"/>
<path style="stroke:none; fill:#fffbff" d="M 4.8 58.4L 4.8 66.4C 8.21048 66.9078 10.8526 68.6867 14.4 68.8L 14.4 71.2L 17.6 71.2C 18.0635 73.4722 19.5377 74.9934 21.6 76C 21.6 69.3895 23.0197 61.8798 14.4 61.6L 14.4 58.4L 4.8 58.4z"/>
<path style="stroke:none; fill:#8367a6" d="M 14.4 58.4C 15.037 61.3727 17.3098 60.8 20 60.8L 20 60C 17.8098 59.8569 16.3152 59.4714 14.4 58.4z"/>
<path style="stroke:none; fill:#664590" d="M 15.2 58.4L 15.2 60L 19.2 60L 19.2 58.4L 15.2 58.4z"/>
<path style="stroke:none; fill:#8367a6" d="M 38.4 60L 38.4 60.8L 43.2 60.8L 43.2 65.6C 44.8766 61.4589 42.1892 60.1244 38.4 60M 52.8 65.6L 53.6 65.6L 53.6 60.8L 58.4 60.8C 54.2589 59.1234 52.9244 61.8108 52.8 65.6z"/>
<path style="stroke:none; fill:#ebd3f8" d="M 14.4 60.8L 14.4 61.6C 16.49 61.7395 17.5546 61.9345 19.2 63.2C 20.285 60.3216 16.4278 60.8083 14.4 60.8M 37.6 60.8L 37.6 61.6L 42.4 61.6L 42.4 65.6L 43.2 65.6L 43.2 60.8L 37.6 60.8M 53.6 60.8L 53.6 65.6L 54.4 65.6L 54.4 61.6L 59.2 61.6C 57.3348 60.8124 55.6346 60.815 53.6 60.8z"/>
<path style="stroke:none; fill:#aa89c5" d="M 79.2 60.8L 79.2 65.6L 80 65.6C 79.9622 63.7978 79.8994 62.4417 79.2 60.8z"/>
<path style="stroke:none; fill:#b6a2c8" d="M 89.6 60.8L 89.6 65.6L 90.4 65.6C 90.3624 63.7978 90.2992 62.4417 89.6 60.8z"/>
<path style="stroke:none; fill:#ebd3f8" d="M 20 63.2L 20 64C 22.4712 67.2619 21.6 72.0438 21.6 76C 19.4806 74.1785 17.9057 72.0609 15.2 71.2C 16.1432 74.1643 18.6905 76.1578 20.8 78.4C 23.3904 74.0757 22.4 68.0875 22.4 63.2L 20 63.2z"/>
<path style="stroke:none; fill:#b6a2c8" d="M 4 65.6L 4 68.8L 9.6 68.8L 9.6 68C 7.1141 67.8156 5.803 67.3238 4 65.6M 43.2 65.6L 43.2 66.4L 53.6 66.4C 50.433 65.0711 46.6107 65.6 43.2 65.6M 79.2 65.6L 79.2 66.4L 89.6 66.4C 86.4328 65.0711 82.6104 65.6 79.2 65.6z"/>
<path style="stroke:none; fill:#ebd3f8" d="M 4.8 66.4L 4.8 68L 8.8 68L 8.8 66.4L 4.8 66.4z"/>
<path style="stroke:none; fill:#943bb6" d="M 1.6 68L 1.6 68.8L 4 68.8C 3.00131 68.2522 2.76127 68.201 1.6 68M 4 68.8C 4.58334 71.5223 6.24467 71.1892 8.8 71.2L 8.8 70.4C 6.9097 70.1534 5.65993 69.7362 4 68.8z"/>
<path style="stroke:none; fill:#664590" d="M 4.8 68.8L 4.8 70.4L 8.8 70.4L 8.8 68.8L 4.8 68.8z"/>
<path style="stroke:none; fill:#9e85b8" d="M 8.8 68.8L 8.8 71.2L 9.6 71.2C 9.39904 70.0387 9.34784 69.7987 8.8 68.8z"/>
<path style="stroke:none; fill:#ebd3f8" d="M 9.6 68.8L 9.6 70.4L 14.4 70.4L 14.4 68.8L 9.6 68.8z"/>
<path style="stroke:none; fill:#b9aee9" d="M 9.6 70.4L 9.6 71.2L 14.4 71.2C 12.7583 70.5006 11.4022 70.4378 9.6 70.4z"/>
<path style="stroke:none; fill:#ebd3f8" d="M 37.6 70.4L 37.6 76.8L 43.2 76.8L 43.2 76L 38.4 76L 38.4 71.2L 43.2 71.2C 41.3347 70.4124 39.6346 70.415 37.6 70.4M 52.8 76L 53.6 76L 53.6 71.2L 58.4 71.2C 54.2589 69.5234 52.9244 72.2108 52.8 76M 74.4 70.4L 74.4 71.2L 79.2 71.2C 77.5583 70.5006 76.2022 70.4378 74.4 70.4M 89.6 70.4L 89.6 76.8L 95.2 76.8L 95.2 76L 90.4 76L 90.4 71.2L 95.2 71.2C 93.3344 70.4124 91.6344 70.415 89.6 70.4z"/>
<path style="stroke:none; fill:#b843d0" d="M 8.8 71.2C 9.67912 73.857 10.8722 74.1899 13.6 74.4L 13.6 76.8L 16.8 76.8L 16.8 76C 15.1011 75.2806 15.1194 75.2989 14.4 73.6C 11.9141 73.4156 10.603 72.9238 8.8 71.2z"/>
<path style="stroke:none; fill:#664590" d="M 9.6 71.2L 9.6 73.6L 14.4 73.6L 14.4 71.2L 9.6 71.2z"/>
<path style="stroke:none; fill:#b6a2c8" d="M 14.4 71.2L 14.4 73.6L 15.2 73.6C 14.999 72.4387 14.9478 72.1987 14.4 71.2z"/>
<path style="stroke:none; fill:#ef9fc8" d="M 38.4 71.2L 38.4 76L 43.2 76L 43.2 71.2L 38.4 71.2z"/>
<path style="stroke:none; fill:#8367a6" d="M 53.6 71.2L 53.6 76L 54.4 76L 54.4 72L 58.4 72C 56.7583 71.3006 55.4022 71.2378 53.6 71.2z"/>
<path style="stroke:none; fill:#b6a2c8" d="M 58.4 71.2L 58.4 76L 53.6 76L 53.6 76.8L 58.4 76.8L 58.4 81.6L 59.2 81.6C 59.2 78.1893 59.7289 74.367 58.4 71.2z"/>
<path style="stroke:none; fill:#8367a6" d="M 74.4 71.2L 74.4 76L 75.2 76L 75.2 72L 79.2 72C 77.5583 71.3006 76.2022 71.2378 74.4 71.2z"/>
<path style="stroke:none; fill:#b6a2c8" d="M 79.2 71.2L 79.2 76L 80 76C 79.9622 74.1978 79.8994 72.8417 79.2 71.2z"/>
<path style="stroke:none; fill:#ef9fc8" d="M 90.4 71.2L 90.4 76L 95.2 76L 95.2 71.2L 90.4 71.2z"/>
<path style="stroke:none; fill:#664590" d="M 54.4 72L 54.4 76L 58.4 76L 58.4 72L 54.4 72M 75.2 72L 75.2 76L 79.2 76L 79.2 72L 75.2 72z"/>
<path style="stroke:none; fill:#943bb6" d="M 14.4 76L 15.2 76C 15.6361 74.6918 15.4918 74.8361 16.8 74.4C 15.0882 73.5058 14.7786 74.1994 14.4 76z"/>
<path style="stroke:none; fill:#9e85b8" d="M 16.8 73.6L 16.8 76.8C 18.4989 77.5194 18.4806 77.5011 19.2 79.2L 20 79.2L 20 76C 18.6034 75.3411 17.8806 74.7214 16.8 73.6z"/>
<path style="stroke:none; fill:#943bb6" d="M 110.4 73.6L 110.4 74.4C 112.306 75.257 113.98 76.2532 116 76.8L 116 76C 114.301 75.2806 114.319 75.2989 113.6 73.6L 110.4 73.6z"/>
<path style="stroke:none; fill:#664590" d="M 15.2 74.4L 15.2 76L 16.8 76L 16.8 74.4L 15.2 74.4z"/>
<path style="stroke:none; fill:#b6a2c8" d="M 21.6 76C 21.0531 77.264 20.9562 77.4218 20 78.4L 20 79.2C 22.1191 78.7459 22.6838 77.9298 21.6 76z"/>
<path style="stroke:none; fill:#aa89c5" d="M 59.2 76L 59.2 76.8L 79.2 76.8C 73.6577 74.4743 65.1976 76 59.2 76z"/>
<path style="stroke:none; fill:#b6a2c8" d="M 110.4 76L 110.4 92L 111.2 92C 111.2 87.5752 109.501 79.4574 113.6 76.8C 112.395 76.2536 111.748 76.1393 110.4 76z"/>
<path style="stroke:none; fill:#b843d0" d="M 116 76L 116 79.2C 117.699 79.9194 117.681 79.9011 118.4 81.6L 119.2 81.6C 118.577 79.3205 117.551 77.7813 116 76z"/>
<path style="stroke:none; fill:#943bb6" d="M 16.8 76.8C 17.1859 78.6912 17.3088 78.814 19.2 79.2L 19.2 78.4L 16.8 76.8z"/>
<path style="stroke:none; fill:#664590" d="M 17.6 76.8L 17.6 78.4L 19.2 78.4L 19.2 76.8L 17.6 76.8M 59.2 76.8L 59.2 81.6L 74.4 81.6L 74.4 76.8L 59.2 76.8z"/>
<path style="stroke:none; fill:#ebd3f8" d="M 74.4 76.8L 74.4 81.6L 75.2 81.6C 75.1622 79.7978 75.0994 78.4417 74.4 76.8z"/>
<path style="stroke:none; fill:#fffbff" d="M 111.2 76.8L 111.2 89.6C 112.899 90.3192 112.881 90.3008 113.6 92L 118.4 92L 118.4 94.4L 128.8 94.4L 128.8 87.2C 125.086 86.9312 122.162 84.9216 118.4 84.8L 118.4 81.6L 115.2 81.6C 114.737 79.3278 113.262 77.8066 111.2 76.8z"/>
<path style="stroke:none; fill:#ebd3f8" d="M 112.8 76.8L 112.8 79.2L 113.6 79.2C 113.399 78.0387 113.348 77.7986 112.8 76.8z"/>
<path style="stroke:none; fill:#8367a6" d="M 113.866 77.3334C 113.822 77.3778 113.778 78.2222 114.134 77.8666C 114.178 77.8222 114.222 76.9778 113.866 77.3334z"/>
<path style="stroke:none; fill:#664590" d="M 114.4 76.8L 114.4 78.4L 116 78.4L 116 76.8L 114.4 76.8z"/>
<path style="stroke:none; fill:#9e85b8" d="M 113.6 78.4L 113.6 79.2L 116 79.2C 115.002 78.6522 114.762 78.601 113.6 78.4z"/>
<path style="stroke:none; fill:#b843d0" d="M 19.2 79.2L 19.2 81.6L 20 81.6C 19.799 80.4384 19.7478 80.1984 19.2 79.2z"/>
<path style="stroke:none; fill:#ebd3f8" d="M 115.2 79.2L 115.2 81.6L 116 81.6C 115.799 80.4384 115.748 80.1984 115.2 79.2z"/>
<path style="stroke:none; fill:#8367a6" d="M 116 79.2L 116 81.6L 116.8 81.6C 116.599 80.4384 116.548 80.1984 116 79.2z"/>
<path style="stroke:none; fill:#664590" d="M 116.8 79.2L 116.8 81.6L 118.4 81.6L 118.4 79.2L 116.8 79.2z"/>
<path style="stroke:none; fill:#c05ef9" d="M 21.6 81.6L 21.6 88.8L 22.4 88.8C 22.3986 86.2992 22.5703 83.912 21.6 81.6z"/>
<path style="stroke:none; fill:#aa89c5" d="M 118.4 81.6L 118.4 84L 119.2 84C 118.999 82.8384 118.948 82.5984 118.4 81.6z"/>
<path style="stroke:none; fill:#664590" d="M 119.2 81.6L 119.2 84L 124 84L 124 86.4L 128.8 86.4L 128.8 84L 124 84L 124 81.6L 119.2 81.6z"/>
<path style="stroke:none; fill:#ebd3f8" d="M 118.4 84L 118.4 84.8C 120.49 84.9392 121.554 85.1344 123.2 86.4C 124.285 83.5216 120.428 84.008 118.4 84z"/>
<path style="stroke:none; fill:#b843d0" d="M 128.8 84L 128.8 86.4L 129.6 86.4C 129.399 85.2384 129.348 84.9984 128.8 84z"/>
<path style="stroke:none; fill:#b9aee9" d="M 124 86.4L 124 87.2L 128.8 87.2C 127.158 86.5008 125.802 86.4376 124 86.4z"/>
<path style="stroke:none; fill:#aa89c5" d="M 128.8 86.4L 128.8 96.8L 129.6 96.8C 129.6 93.3896 130.129 89.5672 128.8 86.4z"/>
<path style="stroke:none; fill:#943bb6" d="M 129.6 86.4L 129.6 87.2C 130.908 87.636 130.764 87.492 131.2 88.8L 132 88.8C 131.614 86.9088 131.491 86.7856 129.6 86.4z"/>
<path style="stroke:none; fill:#664590" d="M 129.6 87.2L 129.6 96.8C 131.026 96.016 130.875 96.0736 131.2 94.4L 137.6 94.4L 137.6 89.6C 134.453 89.5 132.386 88.5376 129.6 87.2z"/>
<path style="stroke:none; fill:#b843d0" d="M 0 88.8L 0 89.6L 22.4 89.6C 16.281 87.032 6.63024 88.8 0 88.8z"/>
<path style="stroke:none; fill:#b6a2c8" d="M 30.4 88.8L 30.4 89.6L 100 89.6C 94.0808 87.116 84.8056 88.8 78.4 88.8L 30.4 88.8z"/>
<path style="stroke:none; fill:#aa89c5" d="M 100 88.8L 100 89.6L 105.6 89.6C 103.734 88.812 102.034 88.8152 100 88.8z"/>
<path style="stroke:none; fill:#b843d0" d="M 132 88.8L 132 89.6L 137.6 89.6C 135.734 88.812 134.034 88.8152 132 88.8z"/>
<path style="stroke:none; fill:#ebd3f8" d="M 111.2 89.6L 111.2 91.2L 113.6 91.2L 113.6 89.6L 111.2 89.6z"/>
<path style="stroke:none; fill:#dfb3f8" d="M 111.2 91.2L 111.2 92L 113.6 92C 112.602 91.452 112.362 91.4008 111.2 91.2z"/>
<path style="stroke:none; fill:#8367a6" d="M 112.8 92L 113.6 96.8L 114.4 96.8C 115.83 95.6624 116.565 95.4424 118.4 95.2L 118.4 94.4C 115.914 94.2152 114.603 93.724 112.8 92z"/>
<path style="stroke:none; fill:#ebd3f8" d="M 113.6 92L 113.6 94.4L 118.4 94.4L 118.4 92L 113.6 92z"/>
<path style="stroke:none; fill:#b6a2c8" d="M 0 94.4L 0 95.2L 113.6 95.2C 104.626 91.4344 88.9648 94.4 79.2 94.4L 0 94.4M 118.4 94.4L 118.4 96.8L 119.2 96.8C 118.999 95.6384 118.948 95.3984 118.4 94.4z"/>
<path style="stroke:none; fill:#ebd3f8" d="M 119.2 94.4L 119.2 96.8L 128.8 96.8L 128.8 94.4L 119.2 94.4z"/>
<path style="stroke:none; fill:#9e85b8" d="M 131.2 94.4L 131.2 96.8L 132 96.8C 131.799 95.6384 131.748 95.3984 131.2 94.4z"/>
<path style="stroke:none; fill:#b6a2c8" d="M 132 94.4L 132 95.2L 137.6 95.2C 135.734 94.412 134.034 94.4152 132 94.4z"/>
<path style="stroke:none; fill:#fffbff" d="M 0 95.2L 0 108.8L 137.6 108.8L 137.6 95.2L 132 95.2L 129.6 100L 118.4 100L 118.4 97.6C 115.202 97.368 112.705 95.5096 109.569 95.2464C 73.6086 92.2312 36.1015 95.2 0 95.2z"/>
<path style="stroke:none; fill:#ebd3f8" d="M 113.066 95.7336C 113.022 95.7776 112.978 96.6224 113.334 96.2664C 113.378 96.2224 113.422 95.3776 113.066 95.7336z"/>
<path style="stroke:none; fill:#664590" d="M 114.4 95.2L 114.4 96.8L 118.4 96.8L 118.4 95.2L 114.4 95.2z"/>
<path style="stroke:none; fill:#b9aee9" d="M 113.6 96.8L 113.6 97.6L 118.4 97.6C 116.758 96.9008 115.402 96.8376 113.6 96.8z"/>
<path style="stroke:none; fill:#9e85b8" d="M 118.4 99.2L 119.2 99.2C 121.986 97.0896 125.409 97.6 128.8 97.6C 126.146 96.0704 119.174 95.5912 118.4 99.2z"/>
<path style="stroke:none; fill:#b9aee9" d="M 128.8 96.8L 128.8 100L 129.6 100C 130.319 98.3008 130.301 98.3192 132 97.6C 130.795 97.0536 130.148 96.9392 128.8 96.8z"/>
<path style="stroke:none; fill:#664590" d="M 119.2 97.6L 119.2 99.2L 128.8 99.2L 128.8 97.6L 119.2 97.6z"/>
<path style="stroke:none; fill:#b6a2c8" d="M 118.4 99.2L 118.4 100L 128.8 100C 125.633 98.6712 121.81 99.2 118.4 99.2z"/>
</g>
</svg>