<?xml version="1.0" standalone="no"?>
<!DOCTYPE svg PUBLIC "-//W3C//DTD SVG 20010904//EN"
 "http://www.w3.org/TR/2001/REC-SVG-20010904/DTD/svg10.dtd">
<svg version="1.0" xmlns="http://www.w3.org/2000/svg"
 width="200.000000pt" height="200.000000pt" viewBox="0 0 200.000000 200.000000"
 preserveAspectRatio="xMidYMid meet">

<g transform="translate(0.000000,200.000000) scale(0.100000,-0.100000)"
fill="#000000" stroke="none">
<path d="M415 1768 c-3 -7 -4 -357 -3 -778 3 -739 4 -765 22 -768 10 -2 22 2
27 10 5 7 9 176 9 375 l0 363 557 2 c534 3 558 4 561 21 2 12 -43 90 -114 195
-64 97 -117 181 -117 187 0 6 53 90 117 187 71 105 116 183 114 195 -3 17 -28
18 -586 21 -461 2 -584 0 -587 -10z m672 -194 c4 -11 -31 -92 -93 -215 -80
-162 -102 -199 -119 -199 -29 0 -158 132 -153 156 7 36 39 28 92 -25 l51 -51
88 175 c70 141 91 175 107 175 11 0 23 -7 27 -16z"/>
</g>
</svg>
