<?xml version="1.0" encoding="iso-8859-1"?>
<!-- Generator: Adobe Illustrator 18.0.0, SVG Export Plug-In . SVG Version: 6.00 Build 0)  -->
<!DOCTYPE svg PUBLIC "-//W3C//DTD SVG 1.1//EN" "http://www.w3.org/Graphics/SVG/1.1/DTD/svg11.dtd">
<svg version="1.1" id="Capa_1" xmlns="http://www.w3.org/2000/svg" xmlns:xlink="http://www.w3.org/1999/xlink" x="0px" y="0px"
	 viewBox="0 0 196.979 196.979" style="enable-background:new 0 0 196.979 196.979;" xml:space="preserve">
<g>
	<path d="M43.48,0C28.1,0.003,15.588,12.517,15.588,27.896v141.188c0,15.38,12.512,27.894,27.893,27.896h131.66
		c3.452,0,6.25-2.798,6.25-6.25v-21.646v-21.646V49.542V6.25c0-3.452-2.798-6.25-6.25-6.25H43.48z M43.481,12.5h125.41v37.042
		v91.645H43.48c-5.687,0.001-10.978,1.716-15.392,4.649V27.896C28.088,19.408,34.994,12.501,43.481,12.5z M168.891,184.479H43.482
		c-8.488-0.001-15.394-6.908-15.394-15.396c0-8.488,6.905-15.395,15.393-15.396h125.41v9.146h-98.41c-3.452,0-6.25,2.798-6.25,6.25
		c0,3.452,2.798,6.25,6.25,6.25h98.41V184.479z"/>
	<path d="M73.496,87.7v23.664c0,3.452,2.798,6.25,6.25,6.25h37.486c3.452,0,6.25-2.798,6.25-6.25V87.701
		c8.258-3.315,13.982-11.413,13.982-20.669c0-11.935-9.437-21.706-21.24-22.244c-4.161-5.506-10.644-8.791-17.734-8.791
		c-7.093,0-13.575,3.285-17.735,8.791c-11.804,0.538-21.241,10.31-21.241,22.244C59.514,76.289,65.239,84.386,73.496,87.7z
		 M81.782,57.265c0.473,0,0.954,0.035,1.433,0.105c2.686,0.397,5.313-0.986,6.512-3.418c1.661-3.364,5.02-5.455,8.765-5.455
		c3.744,0,7.103,2.091,8.766,5.457c1.2,2.432,3.839,3.811,6.513,3.416c0.476-0.07,0.956-0.105,1.429-0.105
		c5.386,0,9.768,4.382,9.768,9.768c0,4.905-3.663,9.069-8.52,9.685c-3.122,0.396-5.463,3.053-5.463,6.2v22.196H85.996V83.331
		c0-0.007,0.001-0.015,0.001-0.021c0.207-3.293-2.182-6.18-5.455-6.593c-4.862-0.613-8.528-4.776-8.528-9.685
		C72.014,61.646,76.396,57.265,81.782,57.265z"/>
</g>
<g>
</g>
<g>
</g>
<g>
</g>
<g>
</g>
<g>
</g>
<g>
</g>
<g>
</g>
<g>
</g>
<g>
</g>
<g>
</g>
<g>
</g>
<g>
</g>
<g>
</g>
<g>
</g>
<g>
</g>
</svg>
