<?xml version="1.0" encoding="utf-8"?><svg version="1.1" id="Layer_1" xmlns="http://www.w3.org/2000/svg" xmlns:xlink="http://www.w3.org/1999/xlink" x="0px" y="0px" viewBox="0 0 122.88 79.85" style="enable-background:new 0 0 122.88 79.85" xml:space="preserve"><style type="text/css">.st0{fill-rule:evenodd;clip-rule:evenodd;}</style><g><path class="st0" d="M2.41,72.28c1.5,0.12,3,0.23,4.49,0.34l0.31-5.2c0.07-1.17,0.63-2.13,1.39-2.13h0c0.76,0,1.34,0.96,1.39,2.13 l0.22,5.43c1.4,0.1,2.8,0.19,4.2,0.27l0.41-6.59c0.08-1.31,0.8-2.38,1.77-2.38l0,0c0.97,0,1.71,1.08,1.77,2.38l0.3,6.85 c1.69,0.1,3.39,0.18,5.08,0.27l0.08-7.84c0.01-1.4,1.23-2.54,2.72-2.54l0,0c1.5,0,2.65,1.14,2.72,2.54l0.44,8.11 c1.74,0.07,3.49,0.14,5.23,0.2v-7.91c0-2.08,1.7-3.78,3.78-3.78h0c2.08,0,3.78,1.7,3.78,3.78v8.14c1.74,0.04,3.48,0.08,5.23,0.12 v-8.49c0-2.57,2.1-4.68,4.68-4.68l0,0c2.57,0,4.68,2.1,4.68,4.68v8.62c2.07,0.02,4.15,0.03,6.22,0.03v-7.7 c0-3.09,2.53-5.62,5.62-5.62l0,0c3.09,0,5.62,2.53,5.62,5.62v7.64c1.73-0.02,3.46-0.04,5.18-0.07v-7.87c0-3.09,2.18-5.62,4.85-5.62 l0,0c2.67,0,4.85,2.53,4.85,5.62v7.65c2.09-0.06,4.17-0.12,6.26-0.19v-6.23c0-3.09,1.77-5.62,3.93-5.62l0,0 c2.16,0,3.93,2.53,3.93,5.62v5.93c1.81-0.07,3.62-0.15,5.43-0.24v-3.48c0-3.09,1.41-5.62,3.13-5.62l0,0c1.72,0,3.13,2.53,3.13,5.62 v3.17c1.34-0.07,2.67-0.14,4.01-0.22l-0.86-26.57c0.07-5.12-2.81-7.83-7.96-8.7l-16.14-4.61l-1.37,0.27l-1.84-1.12 c-0.79,0.28-2.18,0.41-3.84,0.46l-1.85,0.22c-1.43-4.05-2.62-6.57-3.74-9.32c-0.77-1.9-0.38-0.94-0.37-2.84 c0.02-1.78-0.23-4.21-0.5-6.5c-0.61-0.09-1.15-0.34-1.7-0.53c-1.19-0.4-1.81-1.86-2.57-3.04C73.97,6.82,71.25,3.29,69.85,0 C51.04,0.79,33.02,3.77,17.2,12.83l-0.22,3.09l-4.27,2.97l-2.97-1.36l-3.62,5.75c-1.05,1.55-1.63,3.7-1.49,6.78L2.41,72.28 L2.41,72.28z M8.76,35.01L8.76,35.01c0.77,0,1.34,0.96,1.39,2.13l0.26,5.72l-3.2,1.36l0.16-7.08C7.39,35.97,7.99,35.01,8.76,35.01 L8.76,35.01z M16.58,28.79L16.58,28.79c1.12,0,2.01,0.95,2.03,2.1l0.16,8.82l-4.12,1.44l-0.1-10.26 C14.54,29.73,15.47,28.79,16.58,28.79L16.58,28.79z M26.53,25.39L26.53,25.39c1.5,0,2.66,0.95,2.72,2.1l0.48,9.34l-5.79,1.44 l-0.13-10.79C23.79,26.33,25.03,25.39,26.53,25.39L26.53,25.39z M38.7,21.35L38.7,21.35c2.08,0,3.78,1.59,3.78,3.54v9.35 l-7.55,1.44V24.89C34.92,22.95,36.62,21.35,38.7,21.35L38.7,21.35z M52.38,19.72L52.38,19.72c2.57,0,4.68,2.11,4.68,4.68v8.43 l-9.36,0.92V24.4C47.7,21.82,49.81,19.72,52.38,19.72L52.38,19.72z M68.9,17.97L68.9,17.97c3.09,0,5.62,2.53,5.62,5.62v8.24 l-11.24,0.75v-8.99C63.28,20.49,65.81,17.97,68.9,17.97L68.9,17.97z M112.09,43.36L112.09,43.36c1.72,0,3.13,2.53,3.13,5.62v8.25 l-6.26-0.46v-7.79C108.96,45.89,110.37,43.36,112.09,43.36L112.09,43.36z M99.6,41.15L99.6,41.15c2.16,0,3.93,2.53,3.93,5.62v8.25 h-7.86v-8.25C95.67,43.68,97.44,41.15,99.6,41.15L99.6,41.15z M84.56,38.63L84.56,38.63c2.67,0,4.85,2.53,4.85,5.62v11h-9.7v-11 C79.7,41.16,81.89,38.63,84.56,38.63L84.56,38.63z M68.9,38.63L68.9,38.63c3.09,0,5.62,2.53,5.62,5.62v11H63.28v-11 C63.28,41.16,65.81,38.63,68.9,38.63L68.9,38.63z M8.6,49.65L8.6,49.65c0.76,0,1.35,0.96,1.39,2.13l0.26,7.5l-3.2,0.58l0.16-8.07 C7.23,50.61,7.83,49.65,8.6,49.65L8.6,49.65z M16.59,46.85L16.59,46.85c0.97,0,1.74,1.07,1.77,2.38l0.17,8.71l-4.06,0.49l0.36-9.2 C14.87,47.92,15.61,46.85,16.59,46.85L16.59,46.85z M26.53,44.09L26.53,44.09c1.5,0,2.67,0.95,2.72,2.1l0.48,10.45l-5.79,0.69 L23.81,46.2C23.79,45.04,25.03,44.09,26.53,44.09L26.53,44.09z M38.7,41.52L38.7,41.52c2.08,0,3.78,1.59,3.78,3.54v10.47 l-7.55,0.59V45.05C34.92,43.11,36.62,41.52,38.7,41.52L38.7,41.52z M52.38,39.38L52.38,39.38c2.57,0,4.68,2.1,4.68,4.68v11.19H47.7 V44.05C47.7,41.48,49.81,39.38,52.38,39.38L52.38,39.38z M1.9,77.57c-1.14-0.09-1.99-1.09-1.89-2.23c0.09-1.14,1.09-1.99,2.23-1.89 c19.52,1.63,39.32,2.27,59.11,2.28c19.83,0.02,39.73-0.59,59.38-1.46c1.14-0.05,2.1,0.83,2.15,1.97c0.05,1.14-0.83,2.1-1.97,2.15 c-19.64,0.87-39.59,1.48-59.56,1.46C41.35,79.84,21.42,79.2,1.9,77.57L1.9,77.57z"/></g></svg>