<svg xmlns="http://www.w3.org/2000/svg" xmlns:xlink="http://www.w3.org/1999/xlink" width="64" height="63" fill="none" xmlns:v="https://vecta.io/nano"><path opacity=".25" d="M49.404 60.632h-28.07v1.123h1.123v1.123h26.947v-1.123h1.123v-1.123h-1.123z" fill="#000"/><g fill="#64438e"><path d="M23.58 8.982h2.246V6.737h-4.49v2.246h2.246z"/><path d="M21.333 11.228V8.982h-2.246v2.246h2.246zm6.737-4.49h2.246V4.5h-4.5v2.246h2.246z"/><path d="M32.56 4.5h8.983V2.246H30.316V4.5h2.246zm17.966 6.738h2.246V8.982h-2.246v2.246z"/><path d="M53.895 11.228h-1.123v43.8h-2.246v2.246h4.5V11.228h-1.123zm-12.35-4.49h4.5V4.5h-4.5v2.246z"/><path d="M46.035 8.982h4.5V6.737h-4.5v2.246zM19.088 55.018v-43.8h-2.246v46.035h4.5v-2.246h-2.246z"/><use xlink:href="#B"/><use xlink:href="#C"/><use xlink:href="#B" x="23.579"/><path d="M39.298 52.772H32.56v2.246h6.737v-2.246z"/><use xlink:href="#C" x="12.351"/></g><g fill="#edd3fd"><path d="M20.21 43.8v6.737h2.246v-1.123h2.246v1.123h2.246v2.246h-5.614v2.246h-2.246v-43.79h2.246v1.123H20.21V43.8z"/><use xlink:href="#C" y="-2.246"/><use xlink:href="#C" x="12.351" y="-2.246"/><path d="M39.298 50.526h-2.246v-1.123h-2.246v1.123H32.56v2.246h6.737v-2.246zM28.07 7.86h2.246V6.737h-4.5V7.86h2.246zm-4.5 2.245h2.246V8.982h-4.5v1.123h2.246zm26.946 34.807v5.614h-1.123v-1.123h-2.246v1.123H44.91v2.246h5.614v2.246h2.246v-43.8h-2.246v33.684z"/><path d="M41.544 4.5H30.316v1.123h5.614v1.123h5.614V4.5zm8.982 4.492h-4.5v2.246h4.5V8.982z"/><path d="M46.035 6.737h-4.49v2.246h4.49V6.737z"/></g><path d="M49.404 11.228h-3.368V8.982h-4.49V6.737H35.93V5.614h-5.614V7.86h-4.49v2.246h-4.49v2.246H20.21v38.175h2.246v-1.123h2.246v1.123h2.246v2.246h5.614v-2.246h2.246v-1.123h2.246v1.123h2.246v2.246h5.614v-2.246h2.246v-1.123h2.246v1.123h1.123V11.228h-1.123z" fill="#fff"/><path d="M23.58 31.44v2.246h2.246V31.44H23.58zm23.578 0h-1.123v2.246h2.246V31.44h-1.123z" fill="#f696c6"/><g fill="#64438e"><path d="M32.56 14.597V12.35H31.44v4.49h1.123v-2.246z"/><path d="M33.684 11.228H32.56v1.123h1.123v-1.123zm0 5.614H32.56v1.123h1.123v-1.123z"/><use xlink:href="#D"/><path d="M34.807 19.088v1.123h2.246v-1.123h-2.246z"/><use xlink:href="#D" y="-7.86"/><use xlink:href="#D" x="4.491" y="-1.123"/><use xlink:href="#D" x="4.491" y="-6.737"/><path d="M37.053 10.105V8.982h-2.246v1.123h2.246z"/><use xlink:href="#D" x="3.368"/><use xlink:href="#D" x="3.368" y="-7.86"/><path d="M39.298 12.35v4.49h1.123v-4.49h-1.123z"/></g><path d="M38.175 14.597H35.93v4.49h1.123v-1.123h1.123v-1.123h1.123v-2.246h-1.123z" fill="#c260ff"/><g fill="#dea8ff"><path d="M33.684 14.597H32.56v2.246h1.123v1.123h1.123v1.123h1.123v-4.49h-2.246z"/><path d="M38.175 12.35v-1.123h-1.123v-1.123H35.93v4.49h3.368V12.35h-1.123z"/></g><path d="M34.807 14.597h1.123v-4.49h-1.123v1.123h-1.123v1.123H32.56v2.246h2.246z" fill="#edd3fd"/><g fill="#64438e"><path d="M32.56 31.44h-2.246v2.246h2.246V31.44z"/><path d="M37.053 33.684h-4.49v2.246h6.737v-2.246h-2.246z"/><path d="M40.42 31.44h-1.123v2.246h2.246V31.44H40.42zm-14.595-4.493v2.246h4.5v-2.246h2.246v-4.5h-2.246V20.2h-4.5v2.246H23.58v4.5h2.246zm13.473-4.49v4.5h2.246v2.246h4.5v-2.246h2.246v-4.5h-2.246V20.2h-4.5v2.246h-2.246zM16.842 40.42H15.72v1.123h1.123V40.42z"/><path d="M15.72 42.667v-1.123h-2.246v1.123h2.246z"/><use xlink:href="#D" x="-19.087" y="15.719"/><path d="M16.842 32.56H15.72v1.123h1.123V32.56z"/><use xlink:href="#D" x="-20.21" y="16.842"/><path d="M10.105 43.8h3.368v-1.123h-4.5V43.8h1.123zm-1.123-6.747v1.123h2.246v-1.123H8.982z"/><path d="M11.228 35.93v1.123h2.246V35.93h-2.246zM7.86 39.298v3.368h1.123v-4.5H7.86V39.3zm48.28 1.122h-1.123v1.123h1.123V40.42zm1.123-6.736H56.14v1.123h1.123v-1.123z"/><path d="M56.14 32.56h-1.123v1.123h1.123V32.56z"/><use xlink:href="#D" x="23.579" y="16.842"/><path d="M62.877 38.175v4.5H64v-4.5h-1.123zm-5.614 3.37H56.14v1.123h2.246v-1.123h-1.123z"/><path d="M60.632 42.667h-2.246V43.8h4.5v-1.123H60.63zm1.122-5.614H60.63v1.123h2.246v-1.123h-1.123z"/><path d="M59.51 35.93h-1.123v1.123h2.246V35.93H59.51z"/></g><g fill="#edd3fd"><path d="M16.842 39.298H15.72v1.123h1.123v-1.123z"/><path d="M13.474 40.42v1.123h2.246V40.42h-2.246z"/><path d="M11.228 41.544H8.982v1.123h4.49v-1.123h-2.246z"/><use xlink:href="#D" x="21.333" y="21.333"/><path d="M57.263 40.42H56.14v1.123h2.246V40.42h-1.123z"/><path d="M61.754 41.544h-3.368v1.123h4.49v-1.123h-1.123z"/></g><path d="M15.72 34.807h-1.123v1.123h-1.123v1.123h-2.246v1.123H8.982v3.368h4.5V40.42h2.246v-1.123h1.123v-5.614h-1.12v1.123zm46.034 3.368H60.63v-1.123h-2.246V35.93h-1.123v-1.123H56.14v-1.123h-1.123v5.614h1.123v1.123h2.246v1.123h4.5v-3.368h-1.123z" fill="#fff"/><path d="M52.772 10.105V8.982H51.65v8.982h2.246v-7.86h-1.123zm-33.684 0h-1.123v7.86h2.246V8.982h-1.123v1.123zm19.087-8.982V4.5H35.93V3.368h-1.123V4.5h-1.123V1.123H31.44v16.842h2.246v-4.5h4.5v4.5h2.246V1.123h-2.246zm-12.35 4.49h-1.123v12.35h2.246V4.5h-1.123v1.123zm20.2-1.124h-1.123v13.474h2.246V5.614h-1.123V4.5z" fill="#ffdb72"/><path d="M56.14 17.965h-1.123V8.982h-2.246v1.123h1.123v7.86H51.65V8.982h1.123V6.737h-2.246v11.228H48.28V5.614h1.123v1.123h1.123V4.49h-4.49v1.123h1.123v12.35h-2.246V4.49h1.123V2.246h-4.49V0H30.316v2.246h-4.49V4.49h1.123v13.474h-2.246V5.614h1.123V4.49h-4.49v2.246h1.123V5.614h1.123v12.35h-2.246V6.737h-2.246v2.246h1.123v8.982h-2.246v-7.86h1.123V8.982h-2.246v8.982h-2.246v2.246h42.667v-2.246H56.14zM42.667 3.368H43.8v14.596h-2.246V3.368h1.123zm-3.368-2.246h1.123v16.842h-2.246V1.123h1.123zm-3.368 0h1.123v16.842h-2.246V1.123h1.123zm-4.49 0h2.246v16.842H31.44V1.123zm-3.368 15.72V3.368h2.246v14.596H28.07v-1.123z" fill="#ffbe00"/><path d="M49.404 6.737V5.614H48.28v12.35h2.246V6.737h-1.123zm-26.948 0h-1.123v11.228h2.246V5.614h-1.123v1.123zm12.35-5.614v16.842h2.246V1.123h-2.246zM28.07 3.368v14.596h2.246V3.368H28.07zm13.474 0v14.596H43.8V3.368h-2.246z" fill="#ffebb1"/><g fill="#c8c8c8"><path d="M32.56 10.105V7.86H31.44v4.49h1.123v-2.246z"/><path d="M33.684 6.737H32.56V7.86h1.123V6.737zm5.614 0h-1.123V7.86h1.123V6.737z"/><path d="M39.298 7.86v4.5h1.123v-4.5h-1.123zm-5.614 4.5H32.56v1.123h1.123V12.35z"/><path d="M35.93 13.474h-2.246v1.123h4.49v-1.123H35.93z"/><path d="M39.298 12.35h-1.123v1.123h1.123V12.35zM35.93 6.737h2.246V5.614h-4.5v1.123h2.246z"/></g><g fill="#eaeaea"><path d="M38.175 7.86v4.49h1.123V7.86h-1.123z"/><path d="M35.93 12.35h-2.246v1.123h4.5V12.35H35.93zm0-4.5h2.246V6.737h-4.5V7.86h2.246z"/><path d="M33.684 10.105V7.86H32.56v4.49h1.123v-2.246z"/></g><path d="M37.053 7.86h-3.368v4.49h4.49V7.86h-1.123z" fill="#fff"/><path d="M40.42 6.737V5.614h-1.123V4.49H32.56v1.123H31.44v1.123h-1.123v6.737h1.123v1.123h1.123v1.123h6.737v-1.123h1.123v-1.123h1.123V6.737H40.42zm0 2.246v3.368h-1.123v1.123h-1.123v1.123h-4.49v-1.123H32.56V12.35H31.44V7.86h1.123V6.737h1.123V5.614h4.49v1.123h1.123V7.86h1.123v1.123z" fill="#646464"/><g fill="#3c3c3c"><path d="M32.56 4.5h-1.12v1.123h1.123V4.5zm-2.244 6.738v-4.5h-1.123v6.737h1.123V11.23z"/><path d="M31.44 5.614h-1.123v1.123h1.123V5.614z"/><use xlink:href="#D" x="-3.367" y="-4.491"/><path d="M41.544 13.474H40.42v1.123h1.123v-1.123zm0-7.86H40.42v1.123h1.123V5.614z"/><path d="M34.807 4.5h4.5V3.368H32.56V4.5h2.246zm6.737 2.247v6.737h1.123V6.737h-1.123z"/><path d="M40.42 4.5h-1.123v1.123h1.123V4.5zm-3.367 11.23h-4.5v1.123H39.3V15.72h-2.246z"/><path d="M32.56 14.597H31.44v1.123h1.123v-1.123z"/><use xlink:href="#D" x="5.613" y="-3.368"/></g><path d="M14.597 42.667h-1.123V43.8h1.123v-1.123zM12.35 40.42h-1.123v1.123h1.123V40.42zm-2.245-2.245H8.982v1.123h1.123v-1.123zM7.86 35.93H6.737v1.123H7.86V35.93z" fill="#876526"/><path d="M5.614 33.684H4.49v1.123h1.123v-1.123z" fill="#868686"/><g fill="#483514"><path d="M15.72 42.667h-1.123V43.8h1.123v-1.123z"/><use xlink:href="#D" x="-20.21" y="23.579"/><use xlink:href="#D" x="-22.457" y="21.333"/><path d="M10.105 37.053H8.982v1.123h1.123v-1.123zM7.86 34.807H6.737v1.123H7.86v-1.123zm5.614 5.613H12.35v1.123h1.123V40.42z"/><use xlink:href="#D" x="-23.579" y="20.21"/><path d="M8.982 35.93H7.86v1.123h1.123V35.93zm-2.245-2.246H5.614v1.123h1.123v-1.123z"/></g><g fill="#281d0a"><path d="M14.597 43.8h-1.123v1.123h1.123V43.8z"/><path d="M13.474 42.667H12.35V43.8h1.123v-1.123zm-2.246-2.247h-1.123v1.123h1.123V40.42zm-2.246-2.245H7.86v1.123h1.123v-1.123zM6.737 35.93H5.614v1.123h1.123V35.93z"/><use xlink:href="#D" x="-22.457" y="23.579"/><path d="M10.105 39.298H8.982v1.123h1.123v-1.123zM7.86 37.053H6.737v1.123H7.86v-1.123zm-2.246-2.246H4.5v1.123h1.123v-1.123z"/></g><g fill="#644c1e"><path d="M15.72 43.8h-1.123v1.123h1.123V43.8zm-2.246-2.256H12.35v1.123h1.123v-1.123z"/><use xlink:href="#D" x="-23.579" y="21.333"/><path d="M8.982 37.053H7.86v1.123h1.123v-1.123zm-2.245-2.246H5.614v1.123h1.123v-1.123z"/></g><g fill="#c8c8c8"><path d="M6.737 31.44H5.614v1.123H4.49v1.123h2.246V32.56H7.86V31.44H6.737z"/><path d="M3.368 34.807H2.246v2.246h1.123V35.93H4.49v-2.246H3.368v1.123z"/></g><g fill="#3c3c3c"><path d="M4.49 31.44H3.368v1.123H4.49V31.44z"/><path d="M3.368 32.56H2.246v1.123H3.37V32.56zm2.246-2.244H4.5v1.123h1.123v-1.123z"/><path d="M2.246 33.684H1.123v1.123h1.123v-1.123z"/><path d="M0 35.93v4.49h1.123v-5.614H0v1.123z"/><path d="M2.246 40.42H1.123v1.123h1.123V40.42z"/><path d="M3.368 39.298v-2.246H2.246v3.368h1.123v-1.123z"/><path d="M4.5 35.93H3.368v1.123H4.5V35.93zm5.615-6.737h-4.5v1.123h5.614v-1.123h-1.123z"/><use xlink:href="#D" x="-22.457" y="12.351"/><path d="M8.982 31.44H7.86v1.123h3.368V31.44H8.982z"/><path d="M7.86 32.56H6.737v1.123H7.86V32.56z"/></g><g fill="#eaeaea"><path d="M4.49 32.56H3.368v1.123H4.49V32.56z"/><path d="M5.614 31.44H4.5v1.123h1.123V31.44zm-2.246 2.244H2.246v1.123H3.37v-1.123z"/><path d="M1.123 35.93v4.5h1.123v-5.614H1.123v1.123zm8.982-5.614h-4.5v1.123h5.614v-1.123h-1.123z"/></g><path d="M3.368 31.44H2.246v1.123h1.123V31.44z" fill="#868686"/><g fill="#000"><use xlink:href="#E"/><use xlink:href="#C"/><use xlink:href="#B"/><path d="M37.053 46.035v2.246h1.123v-3.368h-1.123v1.123z"/><path d="M38.175 48.28h-1.123v1.123h1.123V48.28z"/><use xlink:href="#C" x="12.351"/><use xlink:href="#B" x="23.579"/></g><g fill="#cab983"><path d="M32.56 48.28v-1.123h-2.246v1.123h2.246zm0 2.246v1.123h-1.12v2.246h-2.246v1.123h3.368v-2.246h2.246v-2.246H32.56zm-3.367 2.246v-3.368h-3.368V48.28h-1.123v-1.123H23.58v-1.123h-1.123v1.123h-1.123v1.123h1.123v1.123h-1.123v1.123h3.368v2.246h1.123V51.65h2.246v1.123h1.123zM19.088 51.65h-1.123v3.368h2.246v-2.246h-1.123V51.65zm17.965-3.37H35.93v1.123h1.123V48.28zm2.245 0h-1.123v1.123h1.123V48.28zm11.228 4.492v2.246h2.246v-2.246h-2.246z"/><use xlink:href="#D" x="19.088" y="29.193"/><path d="M37.053 50.526H35.93v2.246h2.246v-3.368h-1.123v1.123zm14.597-1.122V48.28h-2.246v1.123h2.246zm-5.615-1.124h-1.123v1.123h-3.368v1.123H43.8v2.246h2.246v-3.368h1.123v-2.246h-1.123v1.123zm-1.123-3.368h-2.246v2.246h-1.123v1.123H43.8v-2.246h3.368v-1.123h-2.246zm-7.86-2.245H35.93V43.8h1.123v-1.123z"/></g><g fill="#66553b"><path d="M33.684 47.158v-1.123H31.44v1.123h1.123v1.123h-2.246v-1.123h-1.123v-1.123h-2.246v1.123h-1.123v2.246h3.368v1.123h2.246v-1.123h1.123v1.123h2.246V48.28h-1.123v-1.123zm-15.72 0v1.123h2.246v-1.123h-2.246zm7.86 4.492v1.123h2.246V51.65h-2.246zm-6.737-2.246h-1.123v2.246h1.123v1.123h1.123v-2.246h-1.123v-1.123zm26.947-2.246h-1.123v-1.123H43.8v2.246h-2.246v-1.123h1.123v-2.246H39.31v1.123h-1.123v1.123h2.246v3.368h1.123v-1.123h3.368V48.28h1.123v-1.123zm2.245 4.492h-2.246v1.123h4.5V51.65H48.28z"/><path d="M51.65 49.404v1.123h-1.123v1.123h2.246v-1.123h1.123v-1.123H51.65z"/><use xlink:href="#D" x="12.351" y="31.439"/><path d="M41.544 52.772h1.123v1.123H43.8v-3.368h-2.246v2.246zm-2.246 1.123v1.123h2.246v-1.123h-2.246zm0-2.245v-1.123h-1.123v2.246h1.123V51.65z"/><use xlink:href="#D" x="-12.351" y="26.947"/><path d="M50.526 46.035v-1.123H48.28v2.246h-1.123v2.246h2.246V48.28h1.123v-1.123h-1.123v-1.123h1.123zM32.56 42.667h-4.5V43.8h6.737v-1.123H32.56zm4.493 0H35.93V43.8h1.123v-1.123zM40.42 43.8h3.38v-1.123h-5.614V43.8h2.246zm-13.473 0v-1.123h-8.982V43.8h8.982zm25.825-1.133h-7.86V43.8h8.982v-1.123H52.77z"/></g><g fill="#51774e"><path d="M32.56 44.912H22.456v1.123h1.123v1.123h1.123v1.123h1.123v-1.123h1.123v-1.123h2.246v1.123h2.246v-1.123h2.246v2.246h1.123v-3.368h-2.25zM20.2 47.158v-2.246h-2.246v2.246H20.2zm11.23 3.368h-2.246v2.246h-2.246v2.246h2.246v-1.123h2.246V51.65h1.123v-2.246H31.44v1.123zm-8.984 0h-1.123v-1.123h1.123V48.28H20.2v1.123h-1.123v1.123H20.2v4.5h1.123V52.77H24.7v-2.246h-2.246zm24.702-3.368h1.123v-2.246h-1.123v1.123h-2.246v1.123h2.246z"/><use xlink:href="#D" x="4.491" y="26.947"/><path d="M35.93 46.035v2.246h1.123v-3.368H35.93v1.123zm15.72 4.49v-1.123h-4.5v1.123h-1.123v1.123h4.5v-1.123h1.123zm1.122-5.614H51.65v3.368h1.123v-1.123h1.123V44.91h-1.123zM43.8 53.895h-1.123v-1.123h-1.123v-2.246H40.42v-3.368h-2.246v1.123h1.123v1.123h-1.123v1.123h1.123v3.368h2.246v1.123h3.368v-2.246H43.8v1.123z"/><use xlink:href="#D" x="-12.351" y="28.07"/><use xlink:href="#D" x="15.719" y="28.07"/><path d="M52.772 51.65h-2.246v1.123h2.246v2.246h1.123v-4.49h-1.123v1.123z"/></g><g fill="#334b8b"><path d="M32.56 44.912H21.333v3.368H20.21v1.123h-2.246v5.614h3.368v-2.246h5.614v2.246h5.614v-2.246h2.246v-7.86H32.56z"/><path d="M20.2 46.035v-1.123h-2.246v3.368H20.2v-2.246zm16.843 1.123v-2.246H35.93v4.5h1.123v-2.246zm15.72-2.246H51.65v3.368h2.246v-3.368h-1.123z"/><path d="M50.526 47.158v-2.246h-12.35v4.49h-1.123v1.123H35.93v2.246h3.368v2.246h5.614v-2.246h5.614v2.246h3.368v-5.614H51.65V48.28h-1.123v-1.123z"/></g><path d="M32.56 42.667h-4.49V43.8h6.737v-1.123H32.56z" fill="#a97955"/><path d="M37.053 42.667H35.93V43.8h1.123v-1.123z" fill="#e4c599"/><path d="M41.544 42.667h-3.368V43.8H43.8v-1.123h-2.246zm-16.842 0h-6.737V43.8h8.982v-1.123H24.7zm28.07 0h-7.86V43.8h8.982v-1.123H52.77z" fill="#a97955"/><g fill="#001e6e"><use xlink:href="#E"/><use xlink:href="#C"/><use xlink:href="#B"/><path d="M37.053 46.035v2.246h1.123v-3.368h-1.123v1.123z"/><path d="M38.175 48.28h-1.123v1.123h1.123V48.28z"/><use xlink:href="#C" x="12.351"/><use xlink:href="#B" x="23.579"/></g><defs ><path id="B" d="M26.947 52.772h-5.614v2.246h5.614v-2.246z"/><path id="C" d="M30.316 55.018h-3.368v2.246h5.614v-2.246h-2.246z"/><path id="D" d="M34.807 17.965h-1.123v1.123h1.123v-1.123z"/><path id="E" d="M53.895 41.544H16.842v15.72h4.49v-2.246h-3.368v-5.614h2.246V48.28h-2.246v-3.368h2.246v3.368h1.123v-3.368h13.474v7.86H32.56v2.246h6.737v-2.246H35.93v-2.246h1.123v-1.123H35.93v-4.49h14.596v3.368h1.123v-3.368h2.246v3.368H51.65v1.123h2.246v5.614h-3.368v2.246h4.49v-15.72h-1.123zM25.825 43.8h-7.86v-1.123h8.982V43.8h-1.123zm7.86 0H28.07v-1.123h6.737V43.8h-1.123zm2.246 0v-1.123h1.123V43.8H35.93zm6.737 0h-4.49v-1.123H43.8V43.8h-1.123zm11.228 0h-8.982v-1.123h8.982V43.8z"/></defs></svg>