<?xml version="1.0" standalone="no"?>
<!DOCTYPE svg PUBLIC "-//W3C//DTD SVG 20010904//EN"
 "http://www.w3.org/TR/2001/REC-SVG-20010904/DTD/svg10.dtd">
<svg version="1.0" xmlns="http://www.w3.org/2000/svg"
 width="281.000000pt" height="179.000000pt" viewBox="0 0 281.000000 179.000000"
 preserveAspectRatio="xMidYMid meet">

<g transform="translate(0.000000,179.000000) scale(0.100000,-0.100000)"
fill="#000000" stroke="none">
<path d="M1292 1634 c-230 -62 -363 -306 -292 -537 24 -77 89 -170 148 -211
23 -16 42 -30 42 -32 0 -1 -25 -14 -55 -28 -30 -13 -74 -38 -98 -55 l-44 -30
-29 30 c-28 29 -104 84 -127 92 -7 2 4 22 27 47 61 68 81 121 81 220 0 71 -4
94 -26 141 -74 157 -242 231 -410 179 -63 -19 -81 -30 -134 -83 -75 -75 -100
-136 -99 -242 0 -81 29 -156 85 -220 22 -25 30 -40 21 -43 -31 -10 -133 -95
-165 -137 -91 -119 -137 -308 -91 -374 33 -47 64 -51 354 -51 l270 0 0 -45 c0
-60 23 -103 65 -121 52 -21 1143 -21 1185 1 44 23 60 53 60 112 l0 53 270 0
c294 0 323 4 356 54 32 50 13 189 -41 296 -40 78 -156 192 -218 213 -7 2 4 22
27 47 61 68 81 121 81 220 0 71 -4 94 -27 142 -32 69 -92 129 -166 165 -49 24
-69 28 -142 28 -108 -1 -176 -31 -249 -110 -61 -67 -86 -134 -85 -230 0 -81
29 -156 84 -218 18 -21 31 -39 29 -40 -50 -31 -121 -83 -139 -102 l-23 -24
-44 30 c-24 17 -68 42 -98 55 l-55 25 48 38 c58 46 95 94 130 169 24 51 27 69
27 167 0 99 -3 116 -28 169 -92 197 -300 296 -505 240z m244 -118 c71 -33 128
-87 161 -154 36 -74 39 -191 7 -263 -61 -134 -207 -215 -345 -190 -73 12 -150
53 -191 100 -137 155 -97 398 81 495 94 51 192 55 287 12z m-809 -186 c135
-77 157 -252 46 -364 -83 -85 -220 -89 -313 -9 -53 46 -79 102 -80 171 -1 180
191 291 347 202z m1590 0 c62 -35 99 -87 112 -153 40 -218 -218 -366 -381
-219 -52 47 -78 102 -78 170 -1 180 191 291 347 202z m-1596 -536 c66 -19 112
-46 161 -92 l36 -34 -35 -47 c-37 -47 -103 -175 -103 -198 0 -10 -60 -13 -285
-13 -242 0 -285 2 -285 15 0 35 24 124 45 165 87 170 285 257 466 204z m1590
0 c94 -27 187 -100 236 -184 25 -42 53 -133 53 -172 l0 -28 -281 2 -280 3 -28
66 c-16 37 -48 94 -71 128 l-43 61 24 26 c87 94 258 137 390 98z m-721 -46
c202 -74 337 -246 365 -465 l7 -53 -551 0 -551 0 0 43 c0 111 64 251 159 346
63 63 170 124 257 146 85 21 230 14 314 -17z"/>
</g>
</svg>
