<?xml version="1.0" standalone="no"?>
<!DOCTYPE svg PUBLIC "-//W3C//DTD SVG 20010904//EN"
 "http://www.w3.org/TR/2001/REC-SVG-20010904/DTD/svg10.dtd">
<svg version="1.0" xmlns="http://www.w3.org/2000/svg"
 width="981.000000pt" height="936.000000pt" viewBox="0 0 981.000000 936.000000"
 preserveAspectRatio="xMidYMid meet">

<g transform="translate(0.000000,936.000000) scale(0.100000,-0.100000)"
fill="#000000" stroke="none">
<path d="M7585 9336 c-36 -17 -92 -67 -196 -172 -456 -465 -1654 -1751 -1782
-1913 -67 -85 -72 -172 -14 -238 58 -66 63 -67 450 -71 l347 -4 0 -430 0 -431
131 -175 c407 -545 616 -970 763 -1548 82 -323 95 -463 96 -964 0 -497 -16
-664 -96 -968 -153 -590 -420 -1123 -798 -1598 l-103 -131 8 -179 c13 -269 31
-331 121 -409 86 -74 116 -85 245 -95 65 -5 529 -10 1031 -10 l913 0 57 39
c63 43 132 112 180 180 l32 45 0 3337 0 3337 358 4 c333 3 360 4 397 23 71 36
105 137 69 208 -45 88 -310 382 -1233 1367 -643 685 -790 820 -895 820 -17 0
-53 -11 -81 -24z"/>
<path d="M3035 6730 c-204 -18 -510 -85 -740 -163 -1059 -359 -1854 -1195
-2165 -2278 -83 -289 -108 -460 -117 -799 -11 -443 30 -744 153 -1121 210
-643 587 -1193 1099 -1602 380 -304 827 -521 1333 -647 256 -64 496 -85 872
-77 280 6 415 20 610 64 941 209 1758 826 2224 1679 175 319 321 746 370 1076
40 270 41 778 1 1041 -84 555 -337 1122 -711 1592 -107 134 -374 403 -504 507
-508 405 -1107 655 -1714 713 -195 18 -577 27 -711 15z m530 -811 c155 -11
301 -31 409 -56 211 -47 570 -205 776 -340 520 -342 892 -849 1069 -1458 66
-224 66 -229 66 -680 0 -452 0 -452 -70 -694 -89 -311 -246 -615 -445 -866
-90 -113 -297 -323 -417 -422 -281 -231 -605 -395 -977 -493 -189 -49 -243
-54 -626 -54 -394 0 -433 4 -657 68 -556 160 -1033 485 -1372 936 -268 356
-416 718 -493 1205 -20 128 -17 524 6 670 83 545 322 1032 696 1419 305 315
637 525 1044 661 314 104 596 134 991 104z"/>
<path d="M3287 5423 c-47 -8 -52 -31 -55 -256 l-4 -207 -26 -6 c-170 -41 -231
-60 -319 -104 -203 -100 -346 -249 -421 -438 -27 -67 -27 -68 -27 -333 l0
-266 48 -97 c103 -206 249 -312 703 -509 353 -153 461 -230 504 -361 18 -56 8
-179 -19 -243 -40 -92 -140 -168 -276 -210 -50 -15 -92 -18 -255 -17 -224 1
-378 20 -532 64 -57 17 -113 30 -125 30 -32 0 -48 -37 -94 -216 -43 -170 -52
-251 -30 -277 7 -9 55 -30 106 -46 213 -69 464 -111 656 -111 l109 0 1 -192
c0 -122 5 -206 12 -228 17 -50 61 -62 204 -58 166 5 157 -11 161 283 l3 234
97 30 c350 109 610 379 651 674 17 120 14 403 -5 495 -56 277 -241 429 -809
667 -297 125 -409 197 -456 292 -19 39 -24 64 -23 133 0 100 14 139 73 203 78
84 200 113 431 104 151 -7 257 -24 405 -67 55 -16 116 -32 136 -35 35 -6 36
-5 52 37 25 65 86 293 93 348 6 43 4 51 -19 74 -45 45 -350 124 -522 135
l-100 6 -5 217 c-4 191 -7 219 -23 235 -15 15 -37 18 -145 19 -70 1 -139 0
-155 -3z"/>
</g>
</svg>
