<?xml version="1.0" standalone="no"?>
<!DOCTYPE svg PUBLIC "-//W3C//DTD SVG 20010904//EN"
 "http://www.w3.org/TR/2001/REC-SVG-20010904/DTD/svg10.dtd">
<svg version="1.0" xmlns="http://www.w3.org/2000/svg"
 width="241.000000pt" height="161.000000pt" viewBox="0 0 241.000000 161.000000"
 preserveAspectRatio="xMidYMid meet">

<g transform="translate(0.000000,161.000000) scale(0.100000,-0.100000)"
fill="#000000" stroke="none">
<path d="M185 1452 c-6 -4 -10 -13 -9 -19 1 -7 2 -296 3 -643 l1 -630 1019 0
1019 0 5 38 c2 20 5 310 5 644 0 536 -2 607 -15 612 -22 9 -2016 7 -2028 -2z
m846 -544 c4 -7 14 -6 27 1 11 6 42 11 67 11 96 0 149 -105 93 -181 -25 -33
-84 -54 -126 -44 -15 3 -42 19 -60 35 -28 24 -35 39 -41 85 -13 97 -31 90 -34
-13 -2 -60 1 -72 16 -76 9 -2 17 -10 17 -18 0 -10 -18 -13 -70 -13 -50 0 -70
4 -70 13 0 7 7 15 15 18 21 8 22 154 1 154 -16 0 -39 -24 -30 -32 2 -3 -2 -8
-11 -11 -11 -5 -15 1 -16 21 -2 36 -6 12 -14 -71 -6 -65 -8 -69 -40 -84 -23
-11 -46 -14 -79 -9 -54 8 -76 39 -76 106 0 22 -4 40 -9 40 -5 0 -13 9 -16 20
-3 11 -13 20 -21 20 -11 0 -14 -17 -14 -75 0 -57 3 -75 14 -75 8 0 16 -6 19
-14 5 -11 -9 -15 -64 -18 -47 -2 -69 1 -69 8 0 7 7 14 15 18 21 8 22 156 1
156 -15 0 -44 -30 -30 -30 11 0 -18 -20 -29 -20 -5 0 -7 18 -5 41 l3 40 153 3
c114 2 152 -1 152 -10 0 -6 -7 -14 -15 -18 -11 -4 -15 -22 -15 -75 0 -68 1
-71 27 -77 44 -12 58 6 61 79 3 58 0 67 -18 77 -40 21 -9 29 95 25 58 -2 105
0 105 4 0 10 84 0 91 -11z m365 2 c19 -7 34 -15 34 -20 0 -5 2 -15 6 -23 3 -8
-6 -28 -20 -44 l-26 -31 40 -36 c23 -20 44 -35 48 -32 4 3 9 39 10 81 1 69 -1
78 -18 82 -11 3 -20 9 -20 14 0 15 43 27 65 20 11 -4 32 -6 48 -5 18 2 27 -2
27 -12 0 -8 -7 -14 -15 -14 -12 0 -15 -16 -15 -86 0 -74 2 -85 17 -82 10 2 30
37 53 92 26 62 44 92 59 97 23 9 24 6 72 -116 20 -51 45 -79 60 -69 5 3 9 39
9 80 0 59 -3 74 -15 74 -8 0 -15 5 -15 10 0 6 -1 13 -2 16 -3 5 95 9 127 5 6
-1 1 -8 -10 -17 -17 -13 -20 -27 -20 -89 l0 -75 32 0 c24 0 37 7 49 25 23 36
34 31 34 -14 l0 -40 -102 -3 c-57 -2 -132 -1 -168 2 -54 4 -62 7 -46 16 28 17
13 44 -24 44 -16 0 -30 -2 -30 -4 0 -2 -3 -11 -6 -19 -3 -9 3 -16 16 -20 12
-3 19 -10 16 -15 -3 -5 -66 -8 -142 -6 l-136 2 -29 34 c-23 27 -28 29 -29 14
0 -10 8 -25 18 -32 15 -12 12 -13 -25 -14 -23 0 -44 -6 -47 -12 -5 -10 -7 -10
-12 0 -3 6 -14 12 -25 12 -23 0 -25 18 -4 26 11 5 15 24 15 80 0 59 -3 74 -15
74 -21 0 -19 38 3 42 31 6 124 -1 158 -12z m689 -715 c0 -19 -8 -20 -134 -23
-136 -3 -159 3 -148 33 6 13 26 15 144 13 130 -3 138 -4 138 -23z"/>
<path d="M1090 875 c-8 -9 -12 -37 -11 -63 2 -71 9 -84 39 -80 23 3 28 9 34
48 14 82 -24 140 -62 95z"/>
<path d="M1320 850 c0 -36 13 -39 28 -6 11 25 7 36 -15 36 -8 0 -13 -12 -13
-30z"/>
<path d="M1666 815 c-9 -23 -8 -25 9 -25 17 0 19 9 6 28 -7 11 -10 10 -15 -3z"/>
</g>
</svg>
