<svg xmlns="http://www.w3.org/2000/svg" viewBox="0 0 64 64" xmlns:v="https://vecta.io/nano"><path d="M0 0h64v64H0z" fill="none"/><path d="M52 38.2H10.8v2.6h42.4v-2.6zm-36.2-2.4h35v-2.6h-5v-2.4h-2.6v-2.6h2.6v-2.4h5v-2.6h-2.6v-2.4h-5v-2.6h-15v2.6h-5v2.4h-2.4v2.6h-2.6v2.4h-2.4v5h-2.6v2.6h1.3z" fill="#947db0"/><path d="M30.8 35.8H32V37h-1.2z" fill="#edd3fd"/><g fill="#dea8ff"><path d="M30.8 37H32v1.2h-1.2z"/><path d="M32 35.8h1.2V37H32z"/></g><path d="M32 37h1.2v1.2H32z" fill="#c260ff"/><g fill="#64438e"><path d="M53.2 40.8H10.8v-2.6H8.2v2.6H5.8v2.4h52.4v-2.4h-2.4v-2.6h-2.6v1.3zm-37.4-7.6v-5h-2.6v5h1.3z"/><path d="M18.2 28.2v-2.4h-2.4v2.4H17zm32.6-7.4h-2.6v2.4h2.6V22z"/><path d="M48.2 18.2h-5v2.6h5v-1.3z"/><path d="M43.2 15.8h-15v2.4h15V17z"/><path d="M25.8 18.2h-2.6v2.6h5v-2.6H27z"/><path d="M20.8 20.8v2.4h-2.6v2.6h2.6v-2.6h2.4v-2.4H22zM57 28.2h-1.2v-2.4h-2.6v-2.6h-2.4v2.6h-5v2.4h-2.6v2.6h2.6v2.4h5v-2.4h-2.6v-2.6h5v2.6h2.6v2.4h2.4v-5z"/><path d="M13.2 38.2h17.6v-2.4H13.2v-2.6h-2.4v5H12zm37.6-2.4H33.2v2.4h20v-5h-2.4v1.3z"/></g><g fill="#dea8ff"><path d="M29.5 28.2h-1.3v2.6h1.3V32h1.3v1.2H32v-5h-1.2z"/><path d="M34.5 25.8v-1.3h-1.3v-1.3H32v5h3.8v-2.4z"/></g><path d="M34.5 28.2H32v5h1.2V32h1.3v-1.2h1.3v-2.6z" fill="#c260ff"/><path d="M30.8 23.2v1.3h-1.3v1.3h-1.3v2.4H32v-5z" fill="#edd3fd"/><g fill="#64438e"><path d="M30.8 33.2v1.3h2.4v-1.3H32z"/><path d="M33.2 32h1.2v1.2h-1.2zm1.3-1.2h1.2V32h-1.2zm-6.3 0h1.2V32h-1.2zm1.3 1.2h1.2v1.2h-1.2z"/><path d="M28.2 28.2v-2.4H27v5h1.2v-1.3zm7.6-2.4v5H37v-5zm-2.6-2.6h1.2v1.2h-1.2zm-5 1.3h1.2v1.2h-1.2z"/><path d="M29.5 23.2h1.2v1.2h-1.2zm5 1.3h1.2v1.2h-1.2zm-1.3-1.3V22h-2.4v1.2H32z"/></g></svg>