<svg width="31" height="28" viewBox="0 0 31 28" fill="none" xmlns="http://www.w3.org/2000/svg">
<path d="M29.2738 3.08145V1.54073H27.7331V0H26.1924H24.6516H23.1109H21.5702H20.0294V1.54073H18.4887V3.08145H16.948H15.4073H13.8665H12.3258V1.54073H10.7851V0H9.24436H7.70363H6.16291H4.62218H3.08145V1.54073H1.54073V3.08145H0V4.62218V6.16291H1.54073V7.70363H3.08145V9.24436H1.54073V10.7851V12.3258V13.8665H3.08145V15.4073H4.62218V16.948H3.08145V18.4887H1.54073V20.0294V21.5702H3.08145V23.1109H1.54073V24.6516V26.1924H3.08145H4.62218H6.16291H7.70363V27.7331H9.24436H10.7851H12.3258V26.1924H13.8665V24.6516H15.4073H16.948V26.1924H18.4887V27.7331H20.0294H21.5702H23.1109V26.1924H24.6516H26.1924H27.7331H29.2738V24.6516V23.1109H27.7331V21.5702H29.2738V20.0294V18.4887H27.7331V16.948H26.1924V15.4073H27.7331V13.8665H29.2738V12.3258V10.7851V9.24436H27.7331V7.70363H29.2738V6.16291H30.8145V4.62218V3.08145H29.2738Z" fill="black"/>
<path d="M27.7331 4.62256H26.1924V6.16329H24.6517H23.1109H21.5702V4.62256H20.0295H18.4888V6.16329H20.0295V7.70401H21.5702H23.1109H24.6517H26.1924H27.7331V6.16329H29.2739V4.62256H27.7331Z" fill="white"/>
<path d="M9.2444 4.62305V6.16377H7.70368H6.16295H4.62222V4.62305H3.0815H1.54077V6.16377H3.0815V7.7045H4.62222H6.16295H7.70368H9.2444H10.7851V6.16377H12.3259V4.62305H10.7851H9.2444Z" fill="white"/>
<path d="M26.1922 1.54102H24.6515H23.1107H21.57H20.0293V3.08174H21.57H23.1107H24.6515H26.1922H27.7329V1.54102H26.1922Z" fill="#33BACC"/>
<path d="M15.4071 7.70401H16.9479H18.4886V6.16329H16.9479V4.62256H15.4071H13.8664V6.16329H12.3257V7.70401H13.8664H15.4071Z" fill="#33BACC"/>
<path d="M6.163 3.08174H7.70372H9.24445H10.7852V1.54102H9.24445H7.70372H6.163H4.62227H3.08154V3.08174H4.62227H6.163Z" fill="#33BACC"/>
<path d="M13.8665 20.0298V21.5705V23.1112H15.4072H16.9479V21.5705V20.0298H15.4072H13.8665Z" fill="#33BACC"/>
<path d="M24.6515 18.4892V16.9484V15.4077H23.1107H21.57H20.0293H18.4886H16.9478H15.4071H13.8664H12.3257H10.7849H9.2442H7.70348H6.16275V16.9484V18.4892H4.62203H3.0813V20.0299V21.5706H4.62203H6.16275V23.1113H4.62203H3.0813V24.6521H4.62203H6.16275H7.70348V23.1113V21.5706V20.0299H9.2442V21.5706V23.1113V24.6521H7.70348V26.1928H9.2442H10.7849H12.3257V24.6521V23.1113V21.5706V20.0299H13.8664V18.4892H15.4071H16.9478V20.0299H18.4886V21.5706V23.1113V24.6521V26.1928H20.0293H21.57H23.1107V24.6521H21.57V23.1113V21.5706V20.0299H23.1107V21.5706V23.1113V24.6521H24.6515H26.1922H27.7329V23.1113H26.1922H24.6515V21.5706H26.1922H27.7329V20.0299V18.4892H26.1922H24.6515Z" fill="#33BACC"/>
<path d="M26.1924 9.24463H24.6517H23.111H21.5703H20.0295H18.4888H16.9481H15.4074H13.8666H12.3259H10.7852H9.24445H7.70372H6.163H4.62227H3.08154V10.7854V12.3261V13.8668H4.62227H6.163H7.70372H9.24445H10.7852H12.3259H13.8666H15.4074H16.9481H18.4888H20.0295H21.5703H23.111H24.6517H26.1924H27.7332V12.3261V10.7854V9.24463H26.1924ZM26.1924 12.3261H24.6517H23.111H21.5703H20.0295H18.4888H16.9481H15.4074H13.8666H12.3259H10.7852H9.24445H7.70372H6.163H4.62227V10.7854H6.163H7.70372H9.24445H10.7852H12.3259H13.8666H15.4074H16.9481H18.4888H20.0295H21.5703H23.111H24.6517H26.1924V12.3261Z" fill="#EF1E26"/>
</svg>
