<svg width="31" height="28" viewBox="0 0 31 28" fill="none" xmlns="http://www.w3.org/2000/svg">
<path d="M29.2738 3.08145V1.54073H27.7331V0H26.1924H24.6516H23.1109H21.5702H20.0294V1.54073H18.4887V3.08145H16.948H15.4073H13.8665H12.3258V1.54073H10.7851V0H9.24436H7.70363H6.16291H4.62218H3.08145V1.54073H1.54073V3.08145H0V4.62218V6.16291H1.54073V7.70363H3.08145V9.24436H1.54073V10.7851V12.3258V13.8665H3.08145V15.4073H4.62218V16.948H3.08145V18.4887H1.54073V20.0294V21.5702H3.08145V23.1109H1.54073V24.6516V26.1924H3.08145H4.62218H6.16291H7.70363V27.7331H9.24436H10.7851H12.3258V26.1924H13.8665V24.6516H15.4073H16.948V26.1924H18.4887V27.7331H20.0294H21.5702H23.1109V26.1924H24.6516H26.1924H27.7331H29.2738V24.6516V23.1109H27.7331V21.5702H29.2738V20.0294V18.4887H27.7331V16.948H26.1924V15.4073H27.7331V13.8665H29.2738V12.3258V10.7851V9.24436H27.7331V7.70363H29.2738V6.16291H30.8145V4.62218V3.08145H29.2738Z" fill="black"/>
<path d="M27.7331 4.62158H26.1924V6.16231H24.6517H23.1109H21.5702V4.62158H20.0295H18.4888V6.16231H20.0295V7.70304H21.5702H23.1109H24.6517H26.1924H27.7331V6.16231H29.2739V4.62158H27.7331Z" fill="white"/>
<path d="M9.2444 4.62158V6.16231H7.70368H6.16295H4.62222V4.62158H3.0815H1.54077V6.16231H3.0815V7.70304H4.62222H6.16295H7.70368H9.2444H10.7851V6.16231H12.3259V4.62158H10.7851H9.2444Z" fill="white"/>
<path d="M26.1924 1.54004H24.6517H23.111H21.5703H20.0295V3.08077H21.5703H23.111H24.6517H26.1924H27.7332V1.54004H26.1924Z" fill="#59BCFF"/>
<path d="M15.4074 7.70304H16.9481H18.4888V6.16231H16.9481V4.62158H15.4074H13.8667V6.16231H12.3259V7.70304H13.8667H15.4074Z" fill="#59BCFF"/>
<path d="M6.16324 3.08125H7.70397H9.24469H10.7854V1.54053H9.24469H7.70397H6.16324H4.62251H3.08179V3.08125H4.62251H6.16324Z" fill="#59BCFF"/>
<path d="M13.8667 20.0288V21.5695V23.1103H15.4074H16.9482V21.5695V20.0288H15.4074H13.8667Z" fill="#59BCFF"/>
<path d="M24.6517 18.4882V16.9475V15.4067H23.111H21.5703H20.0295H18.4888H16.9481H15.4074H13.8666H12.3259H10.7852H9.24445H7.70372H6.163V16.9475V18.4882H4.62227H3.08154V20.0289V21.5696H4.62227H6.163V23.1104H4.62227H3.08154V24.6511H4.62227H6.163H7.70372V23.1104V21.5696V20.0289H9.24445V21.5696V23.1104V24.6511H7.70372V26.1918H9.24445H10.7852H12.3259V24.6511V23.1104V21.5696V20.0289H13.8666V18.4882H15.4074H16.9481V20.0289H18.4888V21.5696V23.1104V24.6511V26.1918H20.0295H21.5703H23.111V24.6511H21.5703V23.1104V21.5696V20.0289H23.111V21.5696V23.1104V24.6511H24.6517H26.1924H27.7332V23.1104H26.1924H24.6517V21.5696H26.1924H27.7332V20.0289V18.4882H26.1924H24.6517Z" fill="#59BCFF"/>
<path d="M26.1924 9.24414H24.6517H23.111H21.5703H20.0295H18.4888H16.9481H15.4074H13.8666H12.3259H10.7852H9.24445H7.70372H6.163H4.62227H3.08154V10.7849V12.3256V13.8663H4.62227H6.163H7.70372H9.24445H10.7852H12.3259H13.8666H15.4074H16.9481H18.4888H20.0295H21.5703H23.111H24.6517H26.1924H27.7332V12.3256V10.7849V9.24414H26.1924ZM26.1924 12.3256H24.6517H23.111H21.5703H20.0295H18.4888H16.9481H15.4074H13.8666H12.3259H10.7852H9.24445H7.70372H6.163H4.62227V10.7849H6.163H7.70372H9.24445H10.7852H12.3259H13.8666H15.4074H16.9481H18.4888H20.0295H21.5703H23.111H24.6517H26.1924V12.3256Z" fill="#EF1E26"/>
</svg>
