<svg width="200" height="265" viewBox="0 0 200 265" fill="none" xmlns="http://www.w3.org/2000/svg">
<path d="M192.077 46.4846H186.257V40.6739V34.8634H180.436H174.616V29.0528V23.2423H168.795H162.975H157.155H151.334V17.4317V11.6211H145.513H139.692H133.872H128.052V5.81058V0H122.231H116.411H110.59H104.769H98.9491H93.1284H87.3076H81.4876H75.6669H69.8462V5.81058V11.6211H64.0258H58.2055H52.3847H46.5644V17.4317V23.2423H40.7436H34.9232H29.1026H23.2821V29.0528V34.8634H17.4616H11.6411V40.6739V46.4846H5.82055H0V52.295V58.1058V63.9162V69.7266V75.5373V81.3481V87.1581V92.9689V98.7797V104.59V110.401V116.211V122.022V127.832V133.643V139.453V145.264V151.075V156.885V162.695V168.506V174.317V180.127V185.938V191.749V197.559V203.37V209.18V214.991V220.801V226.612V232.422V238.233V244.044V249.854V255.665V261.475H5.82055H11.6411V255.665V249.854V244.044V238.233V232.422V226.612V220.801V214.991V209.18V203.37V197.559V191.749V185.938V180.127V174.317V168.506V162.695V156.885V151.075V145.264V139.453V133.643V127.832V122.022V116.211V110.401H17.4616V104.59H23.2821H29.1026V98.7797H34.9232H40.7436V92.9689H46.5644H52.3847V87.1581H58.2055H64.0258V81.3481H69.8462V75.5373H75.6669V69.7266H81.4876V75.5373H87.3076V81.3481H93.1284H98.9491V87.1581H104.769H110.59V92.9689H116.411H122.231V98.7797H128.052H133.872V104.59H139.692H145.513V110.401H151.334H157.155V116.211H162.975H168.795V122.022H174.616H180.436V127.832H186.257V133.643V139.453V145.264V151.075V156.885V162.695V168.506V174.317V180.127V185.938V191.749V197.559V203.37V209.18V214.991V220.801V226.612V232.422V238.233V244.044V249.854V255.665V261.475H192.077H197.898V255.665V249.854V244.044V238.233V232.422V226.612V220.801V214.991V209.18V203.37V197.559V191.749V185.938V180.127V174.317V168.506V162.695V156.885V151.075V145.264V139.453V133.643V127.832V122.022V116.211V110.401V104.59V98.7797V92.9689V87.1581V81.3481V75.5373V69.7266V63.9162V58.1058V52.295V46.4846H192.077Z" fill="#FFA207"/>
<path d="M69.8458 58.1072H64.0251V52.2965V46.4861H58.2051V40.6757H52.3844V34.8649V29.0544H46.5636V34.8649H40.7433H34.9227H29.1022H23.2817V40.6757V46.4861H17.4612H11.6406V52.2965V58.1072V63.918V69.728V75.5388V81.3496V87.16V92.9704V98.7811V104.592H17.4612V98.7811H23.2817H29.1022V92.9704H34.9227H40.7433V87.16H46.5636H52.3844V81.3496H58.2051H64.0251H69.8458V75.5388V69.728H75.6665V63.918H69.8458V58.1072Z" fill="#FF9E00"/>
<path d="M180.436 46.485H174.616V40.6746V34.8638H168.795H162.975H157.154H151.334V29.0532V23.2427H145.513H139.692H133.872H128.052V17.4321V11.6216H122.231H116.411H110.59H104.769H98.9491H93.1284H87.3077H81.4877H75.6669H69.8462V17.4321V23.2427H64.0255H58.2055H52.3848V29.0532H58.2055V34.8638V40.6746H64.0255V46.485H69.8462V52.2954V58.1061H75.6669V63.9169H81.4877V69.7269H87.3077V75.5377H93.1284H98.9491V81.3485H104.769H110.59V87.1589H116.411H122.231V92.9693H128.052H133.872V98.78H139.692H145.513V104.59H151.334H157.154V110.401H162.975H168.795V116.212H174.616H180.436V122.022H186.257V116.212V110.401V104.59V98.78V92.9693V87.1589V81.3485V75.5377V69.7269V63.9169V58.1061V52.2954V46.485H180.436Z" fill="#FF9E00"/>
<path d="M64.0269 29.0544H58.2065V34.8649V40.6757H64.0269V34.8649V29.0544Z" fill="#FFC03C"/>
<path d="M52.3848 29.0544H46.5645V34.8649H52.3848V29.0544Z" fill="#FFC03C"/>
<path d="M69.8472 23.2432H64.0269V29.0537H69.8472V23.2432Z" fill="#FFC03C"/>
<path d="M58.2055 23.2432H52.3848V29.0537H58.2055V23.2432Z" fill="#FFC03C"/>
<path d="M81.4867 23.2433V17.4328H75.666V23.2433V29.0539H81.4867V23.2433Z" fill="#FFC03C"/>
<path d="M87.3066 29.0539H93.127V23.2433V17.4328H87.3066V23.2433V29.0539Z" fill="#FFC03C"/>
<path d="M110.589 29.0544H104.769V34.8649H110.589V29.0544Z" fill="#FFC03C"/>
<path d="M98.9487 29.0539H104.769V23.2433V17.4328H98.9487V23.2433V29.0539Z" fill="#FFC03C"/>
<path d="M110.591 29.0539H116.412H122.232V23.2433H116.412V17.4328H110.591V23.2433V29.0539Z" fill="#FFC03C"/>
<path d="M128.051 34.8649H133.872V29.0544H128.051H122.23V34.8649H128.051Z" fill="#FFC03C"/>
<path d="M151.334 29.0544H145.513V34.8649H151.334V29.0544Z" fill="#FFC03C"/>
<path d="M145.513 29.0537V23.2432H139.692H133.872V29.0537H139.692H145.513Z" fill="#FFC03C"/>
<path d="M128.051 17.4328H122.23V23.2433H128.051V17.4328Z" fill="#FFC03C"/>
<path d="M81.4867 40.6731H75.666V46.4839H81.4867V40.6731Z" fill="#FFC03C"/>
<path d="M69.8472 40.6731H64.0269V46.4839H69.8472V40.6731Z" fill="#FFC03C"/>
<path d="M69.8472 40.6757H75.6675V34.8649V29.0544H69.8472V34.8649V40.6757Z" fill="#FFC03C"/>
<path d="M46.5629 46.4839H52.3836V40.6731H46.5629H40.7422V46.4839H46.5629Z" fill="#FFC03C"/>
<path d="M40.7424 40.6753V34.8647H34.9221H29.1016V40.6753H34.9221H40.7424Z" fill="#FFC03C"/>
<path d="M29.1032 40.6731H23.2827V46.4839H29.1032V40.6731Z" fill="#FFC03C"/>
<path d="M93.127 40.6731H87.3066V46.4839H93.127V40.6731Z" fill="#FFC03C"/>
<path d="M87.3078 34.8649V29.0544H81.4878V34.8649V40.6757H87.3078V34.8649Z" fill="#FFC03C"/>
<path d="M104.769 46.4839H110.59V40.6731H104.769H98.9487V46.4839H104.769Z" fill="#FFC03C"/>
<path d="M93.1284 40.6757H98.9488V34.8649V29.0544H93.1284V34.8649V40.6757Z" fill="#FFC03C"/>
<path d="M116.412 40.6753H122.232V34.8647H116.412H110.591V40.6753H116.412Z" fill="#FFC03C"/>
<path d="M122.23 40.6731V46.4839H128.051H133.872V40.6731H128.051H122.23Z" fill="#FFC03C"/>
<path d="M133.872 34.8647V40.6753H139.692H145.513V34.8647H139.692H133.872Z" fill="#FFC03C"/>
<path d="M151.334 46.4839H157.154V40.6731H151.334H145.513V46.4839H151.334Z" fill="#FFC03C"/>
<path d="M174.617 40.6731H168.796V46.4839H174.617V40.6731Z" fill="#FFC03C"/>
<path d="M168.795 40.6753V34.8647H162.974H157.154V40.6753H162.974H168.795Z" fill="#FFC03C"/>
<path d="M75.6675 46.4836H69.8472V52.2943V58.1051H75.6675V52.2943V46.4836Z" fill="#FFC03C"/>
<path d="M58.2055 46.4836H52.3848V52.2943H58.2055V46.4836Z" fill="#FFC03C"/>
<path d="M40.7422 52.295V58.1054H46.5629H52.3836V52.295H46.5629H40.7422Z" fill="#FFC03C"/>
<path d="M40.7424 52.2943V46.4836H34.9221H29.1016V52.2943H34.9221H40.7424Z" fill="#FFC03C"/>
<path d="M29.102 58.1054V52.295H23.2814H17.4609V58.1054H23.2814H29.102Z" fill="#FFC03C"/>
<path d="M87.3078 46.4836H81.4878V52.2943V58.1051H87.3078V52.2943V46.4836Z" fill="#FFC03C"/>
<path d="M98.9488 46.4836H93.1284V52.2943H98.9488V46.4836Z" fill="#FFC03C"/>
<path d="M104.769 52.295H98.9487V58.1054H104.769H110.59V52.295H104.769Z" fill="#FFC03C"/>
<path d="M110.591 46.4836V52.2943H116.412H122.232V46.4836H116.412H110.591Z" fill="#FFC03C"/>
<path d="M128.051 58.1054H133.872V52.295H128.051H122.23V58.1054H128.051Z" fill="#FFC03C"/>
<path d="M139.692 52.2943H145.513V46.4836H139.692H133.872V52.2943H139.692Z" fill="#FFC03C"/>
<path d="M145.513 52.295V58.1054H151.334H157.154V52.295H151.334H145.513Z" fill="#FFC03C"/>
<path d="M157.154 46.4836V52.2943H162.974H168.795V46.4836H162.974H157.154Z" fill="#FFC03C"/>
<path d="M69.8472 63.9166H64.0269V69.727H69.8472V63.9166Z" fill="#FFC03C"/>
<path d="M58.2055 63.9158H64.0255V58.1051H58.2055H52.3848V63.9158H58.2055Z" fill="#FFC03C"/>
<path d="M40.7422 63.9166V69.727H46.5629H52.3836V63.9166H46.5629H40.7422Z" fill="#FFC03C"/>
<path d="M40.7424 63.9158V58.1051H34.9221H29.1016V63.9158H34.9221H40.7424Z" fill="#FFC03C"/>
<path d="M29.102 69.727V63.9166H23.2814H17.4609V69.727H23.2814H29.102Z" fill="#FFC03C"/>
<path d="M81.4867 58.1051H75.666V63.9158H81.4867V58.1051Z" fill="#FFC03C"/>
<path d="M93.127 58.1051H87.3066V63.9158H93.127H98.9477V58.1051H93.127Z" fill="#FFC03C"/>
<path d="M87.3078 63.9166H81.4878V69.727H87.3078V63.9166Z" fill="#FFC03C"/>
<path d="M104.769 63.9166H98.9487V69.727H104.769H110.59V63.9166H104.769Z" fill="#FFC03C"/>
<path d="M116.412 58.1051H110.591V63.9158H116.412H122.232V58.1051H116.412Z" fill="#FFC03C"/>
<path d="M128.051 63.9166H122.23V69.727H128.051H133.872V63.9166H128.051Z" fill="#FFC03C"/>
<path d="M133.872 58.1051V63.9158H139.692H145.513V58.1051H139.692H133.872Z" fill="#FFC03C"/>
<path d="M145.513 63.9166V69.727H151.334H157.154V63.9166H151.334H145.513Z" fill="#FFC03C"/>
<path d="M157.154 58.1051V63.9158H162.974H168.795V58.1051H162.974H157.154Z" fill="#FFC03C"/>
<path d="M168.796 63.9166V69.727H174.617H180.437V63.9166H174.617H168.796Z" fill="#FFC03C"/>
<path d="M174.617 52.295H168.796V58.1054H174.617H180.437V52.295H174.617Z" fill="#FFC03C"/>
<path d="M186.257 46.4836H180.437V52.2943H186.257V46.4836Z" fill="#FFC03C"/>
<path d="M186.257 58.1051H180.437V63.9158H186.257V58.1051Z" fill="#FFC03C"/>
<path d="M17.4612 46.4836H11.6406V52.2943H17.4612V46.4836Z" fill="#FFC03C"/>
<path d="M17.4612 58.1051H11.6406V63.9158H17.4612V58.1051Z" fill="#FFC03C"/>
<path d="M186.257 69.7269H180.437V75.5373H186.257V69.7269Z" fill="#FFC03C"/>
<path d="M186.257 81.3484H180.437V87.1588H186.257V81.3484Z" fill="#FFC03C"/>
<path d="M168.796 75.5381V81.3488H174.617H180.437V75.5381H174.617H168.796Z" fill="#FFC03C"/>
<path d="M157.154 69.7269V75.5373H162.974H168.795V69.7269H162.974H157.154Z" fill="#FFC03C"/>
<path d="M145.513 75.5381V81.3488H151.334H157.154V75.5381H151.334H145.513Z" fill="#FFC03C"/>
<path d="M139.692 69.7269H133.872V75.5373H139.692H145.513V69.7269H139.692Z" fill="#FFC03C"/>
<path d="M128.051 75.5381H122.23V81.3488H128.051H133.872V75.5381H128.051Z" fill="#FFC03C"/>
<path d="M168.796 87.1596V92.97H174.617H180.437V87.1596H174.617H168.796Z" fill="#FFC03C"/>
<path d="M151.334 87.1596H145.513V92.97H151.334H157.154V87.1596H151.334Z" fill="#FFC03C"/>
<path d="M186.257 92.9707H180.437V98.7815H186.257V92.9707Z" fill="#FFC03C"/>
<path d="M186.257 104.593H180.437V110.403H186.257V104.593Z" fill="#FFC03C"/>
<path d="M186.257 116.211H180.437V122.022H186.257V116.211Z" fill="#FFC03C"/>
<path d="M168.796 110.403V116.213H174.617H180.437V110.403H174.617H168.796Z" fill="#FFC03C"/>
<path d="M168.796 98.7786V104.589H174.617H180.437V98.7786H174.617H168.796Z" fill="#FFC03C"/>
<path d="M157.154 92.9707V98.7815H162.974H168.795V92.9707H162.974H157.154Z" fill="#FFC03C"/>
<path d="M157.154 81.3484V87.1588H162.974H168.795V81.3484H162.974H157.154Z" fill="#FFC03C"/>
<path d="M139.692 81.3484H133.872V87.1588H139.692H145.513V81.3484H139.692Z" fill="#FFC03C"/>
<path d="M116.412 69.7269H110.591V75.5373H116.412H122.232V69.7269H116.412Z" fill="#FFC03C"/>
<path d="M162.974 104.593H157.154V110.403H162.974H168.795V104.593H162.974Z" fill="#FFC03C"/>
<path d="M151.334 98.7786H145.513V104.589H151.334H157.154V98.7786H151.334Z" fill="#FFC03C"/>
<path d="M139.692 92.9707H133.872V98.7815H139.692H145.513V92.9707H139.692Z" fill="#FFC03C"/>
<path d="M128.051 87.1596H122.23V92.97H128.051H133.872V87.1596H128.051Z" fill="#FFC03C"/>
<path d="M116.412 81.3484H110.591V87.1588H116.412H122.232V81.3484H116.412Z" fill="#FFC03C"/>
<path d="M104.769 75.5381H98.9487V81.3488H104.769H110.59V75.5381H104.769Z" fill="#FFC03C"/>
<path d="M93.127 69.7269H87.3066V75.5373H93.127H98.9477V69.7269H93.127Z" fill="#FFC03C"/>
<path d="M69.8472 75.5381H64.0269V81.3488H69.8472V75.5381Z" fill="#FFC03C"/>
<path d="M52.3848 69.7269V75.5373H58.2055H64.0255V69.7269H58.2055H52.3848Z" fill="#FFC03C"/>
<path d="M40.7422 75.5381V81.3488H46.5629H52.3836V75.5381H46.5629H40.7422Z" fill="#FFC03C"/>
<path d="M29.102 81.3488V75.5381H23.2814H17.4609V81.3488H23.2814H29.102Z" fill="#FFC03C"/>
<path d="M29.1016 69.7269V75.5373H34.9221H40.7424V69.7269H34.9221H29.1016Z" fill="#FFC03C"/>
<path d="M29.1016 81.3484V87.1588H34.9221H40.7424V81.3484H34.9221H29.1016Z" fill="#FFC03C"/>
<path d="M17.4612 81.3484H11.6406V87.1588H17.4612V81.3484Z" fill="#FFC03C"/>
<path d="M17.4609 87.1596V92.97H23.2814H29.102V87.1596H23.2814H17.4609Z" fill="#FFC03C"/>
<path d="M17.4612 92.9707H11.6406V98.7815H17.4612V92.9707Z" fill="#FFC03C"/>
<path d="M17.4612 69.7269H11.6406V75.5373H17.4612V69.7269Z" fill="#FFC03C"/>
<path d="M75.6675 11.6216H69.8472V17.4321H75.6675V11.6216Z" fill="#FFC03C"/>
<path d="M87.3078 11.6216H81.4878V17.4321H87.3078V11.6216Z" fill="#FFC03C"/>
<path d="M98.9488 11.6216H93.1284V17.4321H98.9488V11.6216Z" fill="#FFC03C"/>
<path d="M110.589 11.6216H104.769V17.4321H110.589V11.6216Z" fill="#FFC03C"/>
<path d="M122.231 11.6216H116.41V17.4321H122.231V11.6216Z" fill="#FFC03C"/>
</svg>
