<svg width="34" height="11" viewBox="0 0 34 11" fill="none" xmlns="http://www.w3.org/2000/svg">
<path d="M7 9H6V10H7V9Z" fill="black"/>
<path d="M6 8H5V9H6V8Z" fill="black"/>
<path d="M5 6C5 4.7 5 3.3 5 2H4C4 2.5 4 3.5 4 4C3.5 4 2.5 4 2 4V5C2.5 5 3.5 5 4 5C4 5.9 4 7.1 4 8H5C5 7.5 5 6.5 5 6Z" fill="black"/>
<path d="M6 1H5V2H6V1Z" fill="black"/>
<path d="M0 3V4C0.5 4 1.5 4 2 4V3H0Z" fill="black"/>
<path d="M9 10C8.5 10 7.5 10 7 10V11C8.3 11 9.7 11 11 11V10C10.5 10 9.5 10 9 10Z" fill="black"/>
<path d="M11 9V10C11.5 10 12.5 10 13 10V9C12.5 9 11.5 9 11 9Z" fill="black"/>
<path d="M14 8H13V9H14V8Z" fill="black"/>
<path d="M15 7H14V8H15V7Z" fill="black"/>
<path d="M15 1H14V2H15V1Z" fill="black"/>
<path d="M8 1C9.9 1 12.1 1 14 1V0C11.4 0 8.6 0 6 0V1C6.5 1 7.5 1 8 1Z" fill="black"/>
<path d="M28 9H27V10H28V9Z" fill="black"/>
<path d="M29 8H28V9H29V8Z" fill="black"/>
<path d="M29 1H28V2H29V1Z" fill="black"/>
<path d="M30 4C30 3.5 30 2.5 30 2H29C29 3.9 29 6.1 29 8H30C30 7.1 30 5.9 30 5C30.5 5 31.5 5 32 5V4C31.5 4 30.5 4 30 4Z" fill="black"/>
<path d="M32 3V4C32.5 4 33.5 4 34 4V3H32Z" fill="black"/>
<path d="M25 10C24.5 10 23.5 10 23 10V11C24.3 11 25.7 11 27 11V10C26.5 10 25.5 10 25 10Z" fill="black"/>
<path d="M22 9H21V10C21.5 10 22.5 10 23 10V9H22Z" fill="black"/>
<path d="M21 8H20V9H21V8Z" fill="black"/>
<path d="M20 7H19V8H20V7Z" fill="black"/>
<path d="M19 5C19 4.1 19 2.9 19 2H18C18 2.5 18 3.5 18 4C17.5 4 16.5 4 16 4C16 3.5 16 2.5 16 2H15C15 3.6 15 5.4 15 7H16C16 6.5 16 5.5 16 5C16.5 5 17.5 5 18 5C18 5.5 18 6.5 18 7H19C19 6.5 19 5.5 19 5Z" fill="black"/>
<path d="M20 1H19V2H20V1Z" fill="black"/>
<path d="M22 1C23.9 1 26.1 1 28 1V0C25.4 0 22.6 0 20 0V1C20.5 1 21.5 1 22 1Z" fill="black"/>
<g opacity="0.75">
<path opacity="0.75" d="M14 1C11.4 1 8.6 1 6 1V2H5C5 3.9 5 6.1 5 8H6V9H7V10C8.3 10 9.7 10 11 10V9C11.5 9 12.5 9 13 9V8H14V7H15C15 5.4 15 3.6 15 2H14V1Z" fill="#A000DC"/>
<path opacity="0.75" d="M28 2V1C25.4 1 22.6 1 20 1V2H19C19 3.6 19 5.4 19 7H20V8H21V9C21.5 9 22.5 9 23 9V10C24.3 10 25.7 10 27 10V9H28V8H29C29 6.1 29 3.9 29 2H28Z" fill="#A000DC"/>
</g>
<path d="M12 1H11V2H12V1Z" fill="#D778F5"/>
<path d="M9 1H8V2H9V1Z" fill="#D778F5"/>
<path d="M11 2H10V3H11V2Z" fill="#D778F5"/>
<path d="M8 2H7V3H8V2Z" fill="#D778F5"/>
<path d="M10 3H9V4H10V3Z" fill="#D778F5"/>
<path d="M7 3H6V4H7V3Z" fill="#D778F5"/>
<path d="M9 4H8V5H9V4Z" fill="#D778F5"/>
<path d="M8 5H7V6H8V5Z" fill="#D778F5"/>
<path d="M7 6H6V7H7V6Z" fill="#D778F5"/>
<path d="M6 4H5V5H6V4Z" fill="#D778F5"/>
<path d="M23 1H22V2H23V1Z" fill="#D778F5"/>
<path d="M26 1H25V2H26V1Z" fill="#D778F5"/>
<path d="M22 2H21V3H22V2Z" fill="#D778F5"/>
<path d="M25 2H24V3H25V2Z" fill="#D778F5"/>
<path d="M21 3H20V4H21V3Z" fill="#D778F5"/>
<path d="M24 3H23V4H24V3Z" fill="#D778F5"/>
<path d="M23 4H22V5H23V4Z" fill="#D778F5"/>
<path d="M22 5H21V6H22V5Z" fill="#D778F5"/>
<path d="M21 6H20V7H21V6Z" fill="#D778F5"/>
<path d="M20 4H19V5H20V4Z" fill="#D778F5"/>
</svg>
