<svg width="40" height="30" viewBox="0 0 40 30" fill="none" xmlns="http://www.w3.org/2000/svg">
<path d="M3 29H4V28H5C5 25 5 22 5 19C15 19 25 19 35 19C35 22 35 25 35 28H36V29H37V30C37.9 30 39.1 30 40 30C40 28.1 40 25.9 40 24H39C39 21.7 39 19.3 39 17H38V11H37V7C36.5 7 35.5 7 35 7C35 6.5 35 5.5 35 5C34.5 5 33.5 5 33 5C33 4.5 33 3.5 33 3C32.5 3 31.5 3 31 3V2C29.7 2 28.3 2 27 2V1C25.7 1 24.3 1 23 1V0C21.1 0 18.9 0 17 0V1C15.7 1 14.3 1 13 1V2C11.7 2 10.3 2 9 2V3C8.5 3 7.5 3 7 3C7 3.5 7 4.5 7 5C6.5 5 5.5 5 5 5C5 5.5 5 6.5 5 7C4.5 7 3.5 7 3 7V11H2V17H1C1 19.3 1 21.7 1 24H0C0 25.9 0 28.1 0 30C0.9 30 2.1 30 3 30V29Z" fill="black"/>
<path d="M5 18V19C15 19 25 19 35 19V18C34.5 18 14.3 18 5 18Z" fill="#232323"/>
<path d="M4 27H3C3 27.5 3 28.5 3 29H4V28H5C5 25 5 22 5 19H4C4 19 4 24.7 4 27Z" fill="#232323"/>
<path d="M2 29H1V30C1.5 30 2.5 30 3 30C3 29.5 3 28.5 3 28H2V29Z" fill="#232323"/>
<path d="M38 29V28H37V27H36C36 24.4 36 21.6 36 19H35C35 22 35 25 35 28H36V29H37V30C37.5 30 38.5 30 39 30V29H38Z" fill="#232323"/>
<path d="M5 17V18C15 18 25 18 35 18V17C35 17 14.7 17 5 17Z" fill="#646464"/>
<path d="M36 18H35V19H36V18Z" fill="#646464"/>
<path d="M5 18H4V19H5V18Z" fill="#646464"/>
<path d="M3 27H4C4 24.4 4 21.6 4 19H3C3 19 3 24.7 3 27Z" fill="#646464"/>
<path d="M37 27C37 24.4 37 21.6 37 19H36C36 21.6 36 24.4 36 27H37V28H38V27H37Z" fill="#646464"/>
<path d="M3 27H2V28H3V27Z" fill="#646464"/>
<path d="M39 28H38V29H39V28Z" fill="#646464"/>
<path d="M2 28H1V29H2V28Z" fill="#646464"/>
<path d="M40 29H39V30H40V29Z" fill="#646464"/>
<path d="M1 29H0V30H1V29Z" fill="#646464"/>
<path d="M25.5 3V4H24.5V5H23.5V6H22.5V7H21.5V8H20.5V9C21.4 9 22.6 9 23.5 9V10H22.5V11H21.5V12H20.5V13H19.5V12H18.5V11H17.5V10H16.5V9C17.4 9 18.6 9 19.5 9V8H18.5V7H17.5V6H16.5V5H15.5V4H14.5V3C13.2 3 11.8 3 10.5 3V4H11.5V5H12.5V6H13.5V7H14.5V8C13.6 8 12.4 8 11.5 8V9H12.5V10H13.5V11H14.5V12H15.5V13H16.5V14H17.5V15H18.5V16C19.4 16 20.6 16 21.5 16V15H22.5V14H23.5V13H24.5V12H25.5V11H26.5V10H27.5V9H28.5V8C27.6 8 26.4 8 25.5 8V7H26.5V6H27.5V5H28.5V4H29.5V3C29.5 3 26.4 3 25.5 3Z" fill="#A000DC"/>
<path d="M25.5 3V4H24.5V5H23.5V6H22.5V7H21.5V8H20.5V9C21.4 9 22.6 9 23.5 9V10H22.5V11H21.5V12H20.5V13H19.5V12H18.5V11H17.5V10H16.5V9C17.4 9 18.6 9 19.5 9V8H18.5V7H17.5V6H16.5V5H15.5V4H14.5V3C13.6 3 12.4 3 11.5 3V4H12.5V5H13.5V6H14.5V7H15.5V8C14.6 8 13.4 8 12.5 8V9H13.5V10H14.5V11H15.5V12H16.5V13H17.5V14H18.5V15H19.5V16H20.5V15H21.5V14H22.5V13H23.5V12H24.5V11H25.5V10H26.5V9H27.5V8C26.6 8 25.4 8 24.5 8V7H25.5V6H26.5V5H27.5V4H28.5V3C28.5 3 26 3 25.5 3Z" fill="#C02DF0"/>
<path d="M20.5 13H19.5V14H20.5V13Z" fill="#D778F5"/>
<path d="M19.5 12H18.5V13H19.5V12Z" fill="#D778F5"/>
<path d="M18.5 11H17.5V12H18.5V11Z" fill="#D778F5"/>
<path d="M17.5 10H16.5V11H17.5V10Z" fill="#D778F5"/>
<path d="M14.5 3H13.5V4H14.5V3Z" fill="#D778F5"/>
<path d="M15.5 4H14.5V5H15.5V4Z" fill="#D778F5"/>
<path d="M16.5 5H15.5V6H16.5V5Z" fill="#D778F5"/>
<path d="M17.5 6H16.5V7H17.5V6Z" fill="#D778F5"/>
<path d="M18.5 7H17.5V8H18.5V7Z" fill="#D778F5"/>
<path d="M16.5 9H15.5V10H16.5V9Z" fill="#D778F5"/>
<path d="M19.5 8H18.5V9H19.5V8Z" fill="#D778F5"/>
<path d="M21.5 12H20.5V13H21.5V12Z" fill="#D778F5"/>
<path d="M22.5 11H21.5V12H22.5V11Z" fill="#D778F5"/>
<path d="M23.5 10H22.5V11H23.5V10Z" fill="#D778F5"/>
<path d="M26.5 3H25.5V4H26.5V3Z" fill="#D778F5"/>
<path d="M25.5 4H24.5V5H25.5V4Z" fill="#D778F5"/>
<path d="M24.5 5H23.5V6H24.5V5Z" fill="#D778F5"/>
<path d="M23.5 6H22.5V7H23.5V6Z" fill="#D778F5"/>
<path d="M22.5 7H21.5V8H22.5V7Z" fill="#D778F5"/>
<path d="M24.5 9H23.5V10H24.5V9Z" fill="#D778F5"/>
<path d="M21.5 8H20.5V9H21.5V8Z" fill="#D778F5"/>
</svg>
