<svg width="34" height="20" viewBox="0 0 34 20" fill="none" xmlns="http://www.w3.org/2000/svg">
<path d="M31 0V1H30V2H29V3H28V4H27V5H26V6C25.5 6 24.5 6 24 6V7C23.5 7 22.5 7 22 7V8C21.1 8 19.9 8 19 8V9C17.7 9 16.3 9 15 9V8C14.1 8 12.9 8 12 8V7C11.5 7 10.5 7 10 7V6C9.5 6 8.5 6 8 6V5H7V4H6V3H5V2H4V1H3V0C2.1 0 0.9 0 0 0C0 6.7 0 13.3 0 20C11.3 20 22.7 20 34 20C34 13.3 34 6.7 34 0C34 0 31.5 0 31 0Z" fill="#A000DC"/>
<path d="M31 1V2H30V3H29V4H28V5H27V6H26V7C25.5 7 24.5 7 24 7V8C23.5 8 22.5 8 22 8V9C21.1 9 19.9 9 19 9V10C17.7 10 16.3 10 15 10V9C14.1 9 12.9 9 12 9V8C11.5 8 10.5 8 10 8V7C9.5 7 8.5 7 8 7V6H7V5H6V4H5V3H4V2H3V1C2.5 1 1.5 1 1 1C1 7 1 13 1 19C11.7 19 22.3 19 33 19C33 13 33 7 33 1H31ZM22.2 11H21.6V11.6H21V12.2H20.4V12.8H20V13.4C20.5 13.4 21.2 13.4 21.7 13.4V14H21.1V14.6H20.5V15.2H20V15.8H19.4V16.4H18.8V17H18.2H17.6V17.6C17.1 17.6 16.4 17.6 15.9 17.6V17H15.3V16.4H14.7V15.8H14.1V15.2H14V14.6H13.4V14H12.8V13.4H12.2V12.8C12.7 12.8 13.4 12.8 13.9 12.8V12.2H13.3V11.6H12.7V11H12.1H11.5V10.4C12.2 10.4 13 10.4 13.7 10.4V11H14.3V11.6H14.9V12.2H15.5V12.8H16.1V13.4H16.7V14C16.2 14 15.5 14 15 14V14.6H15.6V15.2H16.2V15.8H16.8V16.4H17.4V15.8H18V15.2H18.6V14.6H19.2V14C18.7 14 18 14 17.5 14V13.4H18.1V12.8H18.7V12.2H19.3V11.6H19.9V11H20V10.4C20.5 10.4 22.2 10.4 22.2 10.4V11Z" fill="#D778F5"/>
<path d="M13 7H12V6H11V5H10V4C9.5 4 8.5 4 8 4V3C7.5 3 6.5 3 6 3V2C5.5 2 4.5 2 4 2V1H3V0C2.1 0 0.9 0 0 0C0 6.7 0 13.3 0 20C4.6 20 9.4 20 14 20C14 16 14 12 14 8H13V7Z" fill="#232323"/>
<path d="M31 0V1H30V2C29.5 2 28.5 2 28 2V3C27.5 3 26.5 3 26 3V4C25.5 4 24.5 4 24 4V5H23V6H22V7H21V8H20C20 12 20 16 20 20C24.6 20 29.4 20 34 20C34 13.3 34 6.7 34 0C34 0 31.5 0 31 0Z" fill="#232323"/>
<path d="M12 7H11V6H10V5C9.5 5 8.5 5 8 5V4C7.5 4 6.5 4 6 4V3C5.5 3 4.5 3 4 3V2H3V1C2.5 1 1.5 1 1 1C1 7 1 13 1 19C5 19 9 19 13 19C13 15.4 13 11.6 13 8H12V7Z" fill="black"/>
<path d="M31 1V2H30V3C29.5 3 28.5 3 28 3V4C27.5 4 26.5 4 26 4V5C25.5 5 24.5 5 24 5V6H23V7H22V8H21C21 11.6 21 15.4 21 19C25 19 29 19 33 19C33 13 33 7 33 1H31Z" fill="black"/>
<path d="M4 8V9H5V10H7V9H8V8H4Z" fill="#232323"/>
<path d="M7 8H5V9H7V8Z" fill="#646464"/>
<path d="M26 8V9H27V10H29V9H30V8H26Z" fill="#232323"/>
<path d="M29 8H27V9H29V8Z" fill="#646464"/>
<path d="M4 14V15C5.3 15 6.7 15 8 15V14C7.5 14 4.5 14 4 14Z" fill="#232323"/>
<path d="M26 14V15C27.3 15 28.7 15 30 15V14C30 14 26.9 14 26 14Z" fill="#232323"/>
<path d="M5 14H4V15H5V14Z" fill="#646464"/>
<path d="M8 14H7V15H8V14Z" fill="#646464"/>
<path d="M30 14H29V15H30V14Z" fill="#646464"/>
<path d="M27 14H26V15H27V14Z" fill="#646464"/>
<path d="M12 14H11V15H12V14Z" fill="#646464"/>
<path d="M12 12H11V13H12V12Z" fill="#646464"/>
<path d="M12 16H11V17H12V16Z" fill="#646464"/>
<path d="M12 10H11V11H12V10Z" fill="#646464"/>
<path d="M23 14H22V15H23V14Z" fill="#646464"/>
<path d="M23 12H22V13H23V12Z" fill="#646464"/>
<path d="M23 16H22V17H23V16Z" fill="#646464"/>
<path d="M23 10H22V11H23V10Z" fill="#646464"/>
</svg>
