<svg width="18" height="9" viewBox="0 0 18 9" fill="none" xmlns="http://www.w3.org/2000/svg">
<path d="M17 3V2H16V1C15.5 1 14.5 1 14 1V0C12.7 0 11.3 0 10 0V1C9.5 1 8.5 1 8 1V0C6.7 0 5.3 0 4 0V1C3.5 1 2.5 1 2 1V2H1V3H0C0 4.9 0 7.1 0 9H1V8H2C2 7.5 2 6.5 2 6H3V5C3.5 5 4.5 5 5 5V4C7.6 4 10.4 4 13 4V5C13.5 5 14.5 5 15 5V6H16C16 6.5 16 7.5 16 8H17V9H18C18 7.1 18 4.9 18 3H17Z" fill="#AAAAAA"/>
<path d="M3 3H2V4H3V3Z" fill="#E1E1E1"/>
<path d="M4 1V2C4.5 2 5.5 2 6 2V1C5.5 1 4.5 1 4 1Z" fill="#E1E1E1"/>
<path d="M4 2H3V3H4V2Z" fill="#E1E1E1"/>
<path d="M16 3H15V4H16V3Z" fill="#E1E1E1"/>
<path d="M12 1V2C12.5 2 13.5 2 14 2V1H12Z" fill="#E1E1E1"/>
<path d="M15 2H14V3H15V2Z" fill="#E1E1E1"/>
<path d="M8 0H7V1H8V0Z" fill="#919191"/>
<path d="M10 2V1C9.5 1 8.5 1 8 1V2H10Z" fill="#919191"/>
<path d="M3 4V5C3.5 5 4.5 5 5 5V4C4.5 4 3.5 4 3 4Z" fill="#919191"/>
<path d="M3 5H2V6H3V5Z" fill="#919191"/>
<path d="M1 8H2C2 7.5 2 6.5 2 6H1V8Z" fill="#919191"/>
<path d="M11 0H10V1H11V0Z" fill="#919191"/>
<path d="M5 3V4C7.6 4 10.4 4 13 4V3C13 3 7.3 3 5 3Z" fill="#919191"/>
<path d="M13 4V5C13.5 5 14.5 5 15 5V4H13Z" fill="#919191"/>
<path d="M16 5H15V6H16V5Z" fill="#919191"/>
<path d="M17 6H16C16 6.5 16 7.5 16 8H17C17 7.5 17 6.5 17 6Z" fill="#919191"/>
<path d="M1 8H0V9H1V8Z" fill="#919191"/>
<path d="M18 8H17V9H18V8Z" fill="#919191"/>
</svg>
