<svg xmlns="http://www.w3.org/2000/svg" viewBox="0 0 40 19"><style><![CDATA[.b{fill:#369c2e}.c{fill:#5fb935}.d{fill:#368528}.e{fill:#a322d4}.f{fill:#2234cb}.g{fill:#f122ad}.h{fill:#0e982e}.i{fill:#d322e8}.j{fill:#36a72e}.k{fill:#1ce4a3}.l{fill:#6822bc}.m{fill:#8a22b4}.n{fill:#18742e}.o{fill:#c5221c}.p{fill:#f1221c}.q{fill:#28ff3c}.r{fill:#367f2e}]]></style><path d="M35 1v1h-2v1h-2v1h-2v1h-2v1h-1v1h-1v1h-1v1h-1v1h-1v1h-1v1h-2v-1h-1v-1h-1V9h-1V8h-1V7h-1V6h-1V5h-2V4H9V3H7V2H5V1H3v18h34V1h-2z" class="o"/><path d="M35 2v1h-2v1h-2v1h-2v1h-2v1h-1v1h-1v1h-1v1h-1v1h-1v1h-2v1h1v1h-1v1h1v1h-1v1h1v1h15V9h1V2h-2zm-8 12v-1h1v1h-1zm6-4h-4V9h4v1zm-15 1h-1v-1h-1V9h-1V8h-1V7h-1V6h-2V5H9V4H7V3H5V2H3v7h1v9h15v-6h-1v-1zM7 10V9h4v1H7zm6 3v1h-1v-1h1z" class="p"/><path d="M20,14h1v1h-1V14z" class="q"/><path d="M21 14h1v1h-1v-1zm0-2h1v1h-1v-1z" class="e"/><path d="M31,5h1v1h-1V5z" class="f"/><path d="M31,8h1v1h-1V8z" class="g"/><path d="M30,8h1v1h-1V8z" fill="#8a22a0"/><path d="M30,7h1v1h-1V7z" class="g"/><path d="M29,10h1v1h-1V10z" class="b"/><path d="M29,8h1v1h-1V8z" class="g"/><path d="M32,12h1v1h-1V12z" class="c"/><path d="M32,13h1v1h-1V13z" class="b"/><path d="M20,12h1v1h-1V12z" class="q"/><path d="M23,14h1v1h-1V14z" class="e"/><path d="M31,13h1v1h-1V13z" class="c"/><path d="M23,12h1v1h-1V12z" class="e"/><path d="M26,8h1v1h-1V8z" class="d"/><path d="M22,13h1v1h-1V13z" fill="#f122a4"/><path d="M36,2h1v1h-1V2z" fill="#b782c2"/><path d="M33,3h1v1h-1V3z" class="f"/><path d="M35,11h1v1h-1V11z" fill="#1c62a3"/><path d="M35,14h1v1h-1V14z" class="i"/><g class="j"><path d="M35 7h1v1h-1V7zm0-2h1v1h-1V5z"/><path d="M36,6h1v1h-1V6z"/></g><path d="M31,11h1v1h-1V11z" class="c"/><path d="M25,9h1v1h-1V9z" class="d"/><path d="M30,11h1v1h-1V11z" class="b"/><path d="M27,7h1v1h-1V7z" class="d"/><path d="M34,12h1v1h-1V12z" class="k"/><path d="M33,5h1v1h-1V5z" class="f"/><path d="M34,6h1v1h-1V6z" class="j"/><path d="M34,10h1v1h-1V10z" class="k"/><path d="M30,12h1v1h-1V12z" class="c"/><path d="M24,10h1v1h-1V10z" class="d"/><path d="M31,12h1v1h-1V12z" class="b"/><path d="M20,16h1v1h-1V16z" class="q"/><path d="M21,16h1v1h-1V16z" class="l"/><path d="M26,16h1v1h-1V16z" class="h"/><path d="M32 15h1v1h-1v-1zm-2 0h1v1h-1v-1z" class="m"/><path d="M25,16h1v1h-1V16z" class="n"/><path d="M31,16h1v1h-1V16z" fill="#cec81c"/><path d="M35,15h1v1h-1V15z" fill="#ba911c"/><g class="i"><path d="M35,16h1v1h-1V16z"/><path d="M34,15h1v1h-1V15z"/></g><path d="M21,17h1v1h-1V17z" fill="#84861c"/><path d="M32 17h1v1h-1v-1zm-2 0h1v1h-1v-1z" class="m"/><path d="M25,17h1v1h-1V17z" class="h"/><path d="M22,17h1v1h-1V17z" class="l"/><path d="M26,17h1v1h-1V17z" class="n"/><path d="M27,17h1v1h-1V17z" class="h"/><path d="M18 14h1v1h-1v-1zm0-2h1v1h-1v-1z" class="e"/><path d="M8,5h1v1H8V5z" class="f"/><path d="M8,8h1v1H8V8z" class="g"/><path d="M9,8h1v1H9V8z" fill="#8a22a0"/><path d="M9,7h1v1H9V7z" class="g"/><path d="M10,10h1v1h-1V10z" class="b"/><path d="M10,8h1v1h-1V8z" class="g"/><path d="M7,12h1v1H7V12z" class="c"/><path d="M7,13h1v1H7V13z" class="b"/><path d="M16,14h1v1h-1V14z" class="e"/><path d="M8,13h1v1H8V13z" class="c"/><path d="M16,12h1v1h-1V12z" class="e"/><path d="M13,8h1v1h-1V8z" class="d"/><path d="M17,13h1v1h-1V13z" fill="#f122a4"/><path d="M3,2h1v1H3V2z" fill="#b782c2"/><path d="M6,3h1v1H6V3z" class="f"/><path d="M4,11h1v1H4V11z" fill="#1c62a3"/><path d="M4,14h1v1H4V14z" class="i"/><g class="j"><path d="M4 7h1v1H4V7zm0-2h1v1H4V5z"/><path d="M3,6h1v1H3V6z"/></g><path d="M8,11h1v1H8V11z" class="c"/><path d="M14,9h1v1h-1V9z" class="d"/><path d="M9,11h1v1H9V11z" class="b"/><path d="M12,7h1v1h-1V7z" class="d"/><path d="M5,12h1v1H5V12z" class="k"/><path d="M6,5h1v1H6V5z" class="f"/><path d="M5,6h1v1H5V6z" class="j"/><g class="r"><path d="M36,5h1v1h-1V5z"/><path d="M35,6h1v1h-1V6z"/><path d="M34 7h1v1h-1V7zM3 5h1v1H3V5z"/><path d="M4,6h1v1H4V6z"/><path d="M5,7h1v1H5V7z"/></g><path d="M5,10h1v1H5V10z" class="k"/><g fill="#077c22"><path d="M26,9h1v1h-1V9z"/><path d="M25 10h1v1h-1v-1zm0-2h1v1h-1V8z"/><path d="M24 9h1v1h-1V9zM13 9h1v1h-1V9z"/><path d="M14 10h1v1h-1v-1zm0-2h1v1h-1V8z"/><path d="M15,9h1v1h-1V9z"/></g><path d="M9,12h1v1H9V12z" class="c"/><path d="M15,10h1v1h-1V10z" class="d"/><g fill="#e8dc21"><path d="M32 4h1v1h-1V4zm-5 10h1v1h-1v-1zm0-2h1v1h-1v-1z"/><path d="M26 13h1v1h-1v-1zm2 0h1v1h-1v-1zM7 4h1v1H7V4zm5 10h1v1h-1v-1zm0-2h1v1h-1v-1z"/><path d="M13 13h1v1h-1v-1zm-2 0h1v1h-1v-1z"/></g><path d="M8,12h1v1H8V12z" class="b"/><path d="M18,16h1v1h-1V16z" class="l"/><path d="M13,16h1v1h-1V16z" class="h"/><path d="M7 15h1v1H7v-1zm2 0h1v1H9v-1z" class="m"/><path d="M14,16h1v1h-1V16z" class="n"/><path d="M8,16h1v1H8V16z" fill="#cec81c"/><path d="M4,15h1v1H4V15z" fill="#ba911c"/><g class="i"><path d="M4,16h1v1H4V16z"/><path d="M5,15h1v1H5V15z"/></g><path d="M18,17h1v1h-1V17z" fill="#84861c"/><path d="M7 17h1v1H7v-1zm2 0h1v1H9v-1z" class="m"/><path d="M14,17h1v1h-1V17z" class="h"/><path d="M17,17h1v1h-1V17z" class="l"/><path d="M13,17h1v1h-1V17z" class="n"/><path d="M12,17h1v1h-1V17z" class="h"/><path d="M39,3V2h-1V1h-1v8h1v1h2V3H39z" class="o"/><path d="M38,3V2h-1v6h1v1h1V3H38z" class="p"/><path d="M38,7h1v1h-1V7z" fill="#f1751c"/><path d="M37,4h1v1h-1V4z" class="r"/><path d="M2,1v1H1v1H0v7h2V9h1V1H2z" class="o"/><path d="M2,2v1H1v6h1V8h1V2H2z" class="p"/><path d="M1,7h1v1H1V7z" fill="#f1751c"/><path d="M2,4h1v1H2V4z" class="r"/></svg>