<svg xmlns="http://www.w3.org/2000/svg" viewBox="0 0 10 18"><path d="M4 0v2h2V0H4zm0 3v1h2V3H4z" fill="#b37740"/><path d="M7 10V9H6V4H4v5H3v1H2v1h6v-1H7z" fill="#bcf5e9"/><g fill="#fd9cf9"><path d="M7 12v3h1v-3H7zM6 15h1v1H6v-1z"/></g><g fill="#fa34f3"><path d="M8 12v3h1v-3H8zm-1 0H3v2h1v1h1v1h1v-1h1v-3zM7 15h1v1H7v-1z"/></g><path d="M1 11v4h1v1h1v1h4v-1H5v-1H4v-1H3v-2h6v-1H1z" fill="#be00af"/><path d="M4 3h2v6h1V3h1V2H2v1h1v6h1V3zM2 9h1v1H2V9zm5 0h1v1H7V9zM1 10h1v1H1v-1zm7 0h1v1H8v-1zM9 11v4h1v-4H9zm-8 0H0v4h1v-4zM1 15h1v1H1v-1zm7 0h1v1H8v-1zM2 16h1v1H2v-1zm5 0h1v1H7v-1zM3 17v1h4v-1H3z"/></svg>