<svg xmlns="http://www.w3.org/2000/svg" viewBox="0 0 40 20"><path d="M3 20V8H2v1H0V2h1V1h1V0h4v1h1v1h1v1h1v1h1v1h1v1h2v1h2v1h3v1h4V8h3V7h2V6h2V5h1V4h1V3h1V2h1V1h1V0h4v1h1v1h1v7h-2V8h-1v12z" fill="#fe73a9"/><path d="M4 19V1h2v1h1v1h1v1h1v1h1v1h1v1h2v1h2v1h3v1h4V9h3V8h2V7h2V6h1V5h1V4h1V3h1V2h1V1h2v18zM38 2V1h-1v6h1v1h1V2zM2 2H1v6h1V7h1V1H2z" fill="#fe98c0"/><g fill="#fff"><path d="M13.5 11v1h1v5h1v-6zM12.5 12h1v5h-1zM10.5 11v6h1v-5h1v-1zm6 0h1v6h-1zm2 0v6h1v-2h1v2h1v-6h-3zm2 3h-1v-2h1v2zm8-3h1v6h-1zm-3 0v1h1v5h1v-6zM24.5 12h1v5h-1zM22.5 11v6h1v-5h1v-1z"/></g></svg>