<svg xmlns="http://www.w3.org/2000/svg" xmlns:xlink="http://www.w3.org/1999/xlink" width="195" height="195" fill="none"><path d="M97.42 194.064c53.589 0 97.032-43.443 97.032-97.032S151.009 0 97.42 0 .388 43.443.388 97.032s43.443 97.032 97.032 97.032z" fill="#22dff0"/><g fill="#000"><path d="M20.733 101.731v2.185h2.195V114.872h2.185V101.731h-4.38zm-7.657-17.52H10.88V90.776h4.38v4.38h-4.38v2.195H17.455v-8.76h-4.38v-2.195h4.38v-2.185h-4.38zm8.76 0H19.64v2.185h4.38v4.38h-4.38V97.351H26.215v-2.195h-4.38v-2.185h4.38v-8.76h-4.38zm10.945 0H28.4v13.14h2.195V86.396h2.185v10.955h2.195v-13.14H32.78zm129.28 0h-2.195v13.14h2.195v-4.38h2.185v-2.195h-2.185v-4.38h2.185v4.38h2.195V84.211h-4.38z"/><path d="M164.245 97.351h2.195v-4.38h-2.195v4.38zm17.52-10.955v8.76h2.195v-8.76h-2.195zM179.58 92.971V86.396h2.185v-2.185h-4.38v13.14h4.38v-2.195h-2.185v-2.185zm-8.76-8.76h-2.195v13.14h2.195V86.396h2.185v10.955h2.195v-13.14h-4.38zm-2.195 17.52v2.185h2.195V114.872h2.185V101.731h-4.38zM18.816 63.712h2.741v2.741h-2.741v-2.741z"/></g><path d="M16.074 69.185h2.741v2.741h-2.741v-2.741zm10.966 0h2.742v2.741H27.04v-2.741z" fill="#197fb7"/><path d="M18.816 69.185v5.482h2.741V66.454h-2.741v2.731zm5.483-2.731v8.213h2.741V66.454h-2.741z" fill="#1caace"/><path d="M18.816 74.668h2.741v2.741h-2.741v-2.741z" fill="#000"/><path d="M21.557 63.712V77.407h2.741V63.712h-2.741z" fill="#fff"/><g fill="#000"><path d="M24.298 74.668h2.741v2.741h-2.741v-2.741zm0-10.955h2.741v2.741h-2.741v-2.741zM21.557 60.971h2.741v2.741h-2.741v-2.741zm0 16.438h2.741v2.741h-2.741v-2.741zm5.483-10.955h2.742v2.741H27.04v-2.741zm-10.966 0h2.741v2.741h-2.741v-2.741z"/><path d="M29.781 69.185h2.741v2.741h-2.741v-2.741zm-16.449 0h2.741v2.741h-2.741v-2.741zM27.04 71.926h2.742v2.741H27.04v-2.741zm-10.966 0h2.741v2.741h-2.741v-2.741zM167.8 63.712h2.742v2.741H167.8v-2.741z"/></g><path d="M165.069 69.185h2.742v2.741h-2.742v-2.741zm10.956 0h2.741v2.741h-2.741v-2.741z" fill="#197fb7"/><path d="M167.8 69.185v5.482h2.742V66.454H167.8v2.731zm5.483-2.731v8.213h2.742V66.454h-2.742z" fill="#1caace"/><path d="M167.8 74.668h2.742v2.741H167.8v-2.741z" fill="#000"/><path d="M170.542 63.712V77.407h2.741V63.712h-2.741z" fill="#fff"/><g fill="#000"><path d="M173.283 74.668h2.742v2.741h-2.742v-2.741zm0-10.955h2.742v2.741h-2.742v-2.741z"/><path d="M170.542 60.971h2.741v2.741h-2.741v-2.741zm0 16.438h2.741v2.741h-2.741v-2.741zm5.483-10.955h2.741v2.741h-2.741v-2.741zm-10.956 0h2.742v2.741h-2.742v-2.741z"/><path d="M178.766 69.185h2.742v2.741h-2.742v-2.741zm-16.438 0h2.741v2.741h-2.741v-2.741zM176.025 71.926h2.741v2.741h-2.741v-2.741zm-10.956 0h2.742v2.741h-2.742v-2.741zm-73.121 90.766h-2.195v4.38h2.195v-4.38zm2.185 2.195v2.185h2.195v-4.38h-2.195v2.195zM91.948 167.072h2.185v2.185h-2.185v-2.185zm-2.195 4.38v4.38h2.195V169.267h-2.195v2.185zm4.38 2.195v2.185h2.195V169.267h-2.195v4.38zm6.576-10.955h-2.185V175.801h2.185v-4.339h4.37v-8.76h-4.37v-.01zm2.185 4.38v2.185h-2.185v-4.37h2.185v2.185zm-1.557-25.188v2.607h2.608V157.539h2.607V141.884h-5.215zm-31.309 0H67.42v2.607h2.608V157.539h2.607v-13.048h2.607v-2.607h-5.214zm-10.43 6.524v2.607h5.215v-2.607h-5.215zm73.039 0h-2.607v2.607h5.214v-2.607h-2.607z"/><use xlink:href="#a"/><use xlink:href="#a" x="10.44"/><use xlink:href="#a" x="-31.299"/><path d="M90.896 154.931v-2.607h5.215v-10.43h-7.822v15.645h2.607v-2.608zm0-7.822v-2.607h2.607v5.215h-2.607v-2.608zm60.631-31.856h-10.306V110.1h5.153v-5.153h5.153V79.182h-15.459V43.111h-5.153v-5.153h-5.153v-5.153h-10.306v-5.153H105.15v-5.153H89.691v5.153H79.385v5.153H69.079v5.153h-5.153v5.153h-5.153v36.071H43.314V104.947h5.153v5.153h5.153v5.153H38.161v15.459h5.153v5.153H151.527v-5.153h5.153v-15.459h-5.153z"/></g><g fill="#22dff0"><path d="M69.078 89.488h5.153v5.153h5.153v5.153h5.153v5.153h5.153v5.153h5.153v5.153h5.153V110.1h5.153v-5.153h5.153v-5.153h5.153v-5.153h5.153v-5.153h5.153v-5.153h5.153V43.111h-5.153v-5.153h-10.306v-5.153h-10.306v-5.153H89.69v5.153H79.384v5.153H69.078v5.153h-5.153v41.224h5.153v5.153zm-5.153 30.918H43.313v10.306H69.078v-5.153h-5.153v-5.153z"/><path d="M146.374 120.406h-15.459v5.153h-5.153v5.153H151.527v-10.306h-5.153zm-51.53 0v-5.153h-5.153V110.1h-5.153v-5.153h-5.153v-5.153h-5.153v-5.153h-5.153v-5.153h-5.153v-5.153H48.467v20.612h5.153v5.153h5.153v5.153h5.153v5.153h5.153v5.153h5.153v5.153h10.306v-5.153h5.153v-5.153h5.153z"/><path d="M130.915 120.406v-5.153h5.153V110.1h5.153v-5.153h5.153V84.335h-15.459v5.153h-5.153v5.153h-5.153v5.153h-5.153v5.153h-5.153v5.153h-5.153v5.153h-5.153v5.153h-5.153v5.153h-5.153v5.153H120.609v-5.153h5.153v-5.153h5.153z"/></g><g fill="#fff"><path d="M94.844 53.416V27.651h-5.153v5.153H79.385v5.153h10.306V89.487h5.153V63.722h5.153V58.57h-5.153v-5.153zM89.691 94.64h5.153v5.153h-5.153V94.64zM69.078 37.957v5.153h10.306v-5.153H69.078zM63.925 48.263v10.306h5.153V43.11h-5.153v5.153zm-20.612 72.143h5.153v5.153h-5.153v-5.153zm103.061 0h5.153v5.153h-5.153v-5.153zM63.925 89.488v-5.153H48.466v5.153h5.153v5.153h5.153v-5.153h5.153zM58.772 94.641h5.153v5.153h-5.153v-5.153zM63.925 89.488h5.153v5.153h-5.153v-5.153zm0 10.306h5.153v5.153h-5.153v-5.153zM69.078 104.947h5.153v5.153h-5.153v-5.153zm77.296-20.612h-15.459v5.153h5.153v5.153h5.153v-5.153h5.153v-5.153zM130.915 94.641h5.153v5.153h-5.153v-5.153zM125.762 89.488h5.153v5.153h-5.153v-5.153zm0 10.306h5.153v5.153h-5.153v-5.153zM120.609 104.947h5.153v5.153h-5.153v-5.153z"/></g><g fill="#135b97"><path d="M105.15 104.947h5.153v-5.153h5.153v-5.153h5.153V74.029h-5.153v5.153h-5.153v5.153h-5.153v5.153h-5.153v5.153h-5.153v20.612h5.153V110.1h5.153v-5.153zm-46.378 15.459h5.153v5.153h-5.153v-5.153z"/><path d="M63.925 125.559h5.153v5.153h-5.153v-5.153zm66.99-5.153h5.153v5.153h-5.153v-5.153zM125.762 125.559h5.153v5.153h-5.153v-5.153zm-46.377-10.306H69.079v5.153h5.153v5.153h5.153v5.153h5.153v-10.306h-5.153v-5.153zm46.378 0h-10.306v5.153h-5.153v5.153h-5.153v5.153h10.306v-5.153h5.153v-5.153h5.153v-5.153z"/></g><g fill="#197fb7"><path d="M105.15 74.029h5.153v5.153h5.153v-5.153h5.153v15.459h5.153V58.57h-10.306v5.153H99.997v5.153h5.153v5.153z"/><path d="M99.997 89.488h5.153v-5.153h5.153v-5.153h-5.153v-5.153h-5.153v-5.153h-5.153V94.641h5.153v-5.153zm-15.459-5.153h-5.153v-5.153h-5.153v-5.153h-5.153v15.459h5.153v5.153h5.153v5.153h5.153v5.153h5.153V89.488h-5.153v-5.153zm-41.224 41.224h5.153v5.153h-5.153v-5.153zm103.061 0h5.153v5.153h-5.153v-5.153zm-77.296-10.306h5.153V110.1h-5.153v-5.153H58.773v5.153h5.153v5.153h5.153zm0 5.153h5.153v5.153h-5.153v-5.153zM79.385 110.1h5.153v5.153h-5.153V110.1zm-5.153 15.459h5.153v5.153h-5.153v-5.153zM84.538 115.253h5.153v5.153h-5.153v-5.153zm41.225-10.306v5.153h-5.153v5.153h10.306V110.1h5.153v-5.153h-10.306zm-5.153 15.459h5.153v5.153h-5.153v-5.153zM110.303 110.1h5.153v5.153h-5.153V110.1zM115.456 125.559h5.153v5.153h-5.153v-5.153zm-10.306-10.306h5.153v5.153h-5.153v-5.153zM99.997 120.406h5.153v5.153h-5.153v-5.153zM94.844 125.559h5.153v5.153h-5.153v-5.153z"/></g><g fill="#1caace"><path d="M125.762 68.876v15.459h5.153V58.57h-5.153v10.306z"/><path d="M110.303 63.723h5.153V58.57h10.306V43.111h-10.306v-5.153H105.15v-5.153H94.844V58.57h5.153v5.153h10.306zm-5.153 10.306h5.153v5.153h-5.153v-5.153z"/><path d="M99.997 68.876h5.153v5.153h-5.153v-5.153zM94.844 63.723h5.153v5.153h-5.153v-5.153zM84.538 84.335v5.153h5.153V74.029h-5.153v-5.153h-5.153v5.153h-5.153v5.153h5.153v5.153h5.153z"/><path d="M79.385 68.876v-5.153h-5.153V58.57h-5.153v15.459h5.153v-5.153h5.153zM63.925 79.182v5.153h5.153V74.029h-5.153v5.153zm-15.459 41.224h5.153v5.153h-5.153v-5.153zM53.619 125.559h5.153v5.153h-5.153v-5.153zm87.602-5.153h5.153v5.153h-5.153v-5.153zM136.068 125.559h5.153v5.153h-5.153v-5.153zm-72.143-20.612v-5.153h-5.153v-5.153h-5.153V110.1h5.153v-5.153h5.153zM58.772 110.1h5.153v5.153h-5.153V110.1zM63.925 115.253h5.153v5.153h-5.153v-5.153zm5.153-15.459h5.153v5.153h-5.153v-5.153zM74.231 104.947h5.153v5.153h-5.153v-5.153zm10.306 5.153h5.153v5.153h-5.153V110.1zM89.691 115.253h5.153v5.153h-5.153v-5.153zm41.224-5.153h5.153v5.153h-5.153V110.1zM125.762 115.253h5.153v5.153h-5.153v-5.153zm-5.153-15.459h5.153v5.153h-5.153v-5.153zM115.456 104.947h5.153v5.153h-5.153v-5.153zM105.15 110.1h5.153v5.153h-5.153V110.1zM89.691 125.559h5.153v5.153h-5.153v-5.153zm10.306-10.306h5.153v5.153h-5.153v-5.153z"/><path d="M94.844 120.406h5.153v5.153h-5.153v-5.153zm46.377-15.459V94.641h-5.153v5.153h-5.153v5.153h5.153v5.153h5.153v-5.153z"/></g><defs><path id="a" d="M111.766 141.884h-2.607v15.645h7.822v-15.645h-5.215zm2.608 5.225v7.822h-2.608V144.502h2.608v2.607z"/></defs></svg>