<svg width="195" height="195" fill="none" xmlns="http://www.w3.org/2000/svg"><path d="M97.032 194.064c53.589 0 97.032-43.443 97.032-97.032C194.064 43.442 150.621 0 97.032 0 43.442 0 0 43.443 0 97.032s43.443 97.032 97.032 97.032z" fill="#F041F8"/><path d="M20.344 101.731v2.196h2.185V114.872h2.195v-13.141h-4.38zm-7.668-17.52h-2.184V90.786H14.872v4.38h-4.38v2.185H17.056v-8.76h-4.379v-2.185h4.379v-2.195h-4.379zm8.76 0h-2.184v2.195h4.38v4.38h-4.38V97.351H25.817v-2.185h-4.38v-2.195h4.38v-8.76h-4.38zm10.956 0h-4.38v13.14h2.185V86.406h2.195v10.945h2.185v-13.14h-2.185zm129.269 0h-2.185v13.14h2.185v-4.38h2.195v-2.185h-2.195v-4.38h2.195v4.38h2.185V84.211h-4.38z" fill="#000"/><path d="M163.857 97.351h2.184v-4.38h-2.184v4.38zm17.52-10.945v8.76h2.185v-8.76h-2.185zM179.182 92.971V86.406h2.195v-2.195h-4.38v13.14h4.38v-2.184h-2.195V92.97zm-8.761-8.76h-2.184v13.14h2.184V86.406h2.196v10.945h2.185V84.211h-4.381zM18.427 63.712h2.742v2.742h-2.742v-2.742z" fill="#000"/><path d="M15.686 69.195h2.741v2.742h-2.741v-2.742zm10.955 0h2.742v2.742H26.64v-2.742z" fill="#D11C84"/><path d="M18.427 69.195V74.678h2.742v-8.224h-2.742v2.741zm5.473-2.741v8.224h2.741v-8.224H23.9z" fill="#DA25C0"/><path d="M18.427 74.678h2.742v2.741h-2.742v-2.741z" fill="#000"/><path d="M21.169 63.712V77.41h2.73V63.712h-2.73z" fill="#fff"/><path d="M23.9 74.678h2.741v2.741H23.9v-2.741zm0-10.966h2.741v2.742H23.9v-2.742zM21.169 60.97h2.741v2.742H21.17v-2.741zm-.01 16.439h2.74v2.741h-2.74V77.41zm5.482-10.955h2.742v2.741H26.64v-2.741zm-10.955 0h2.741v2.741h-2.741v-2.741zM29.383 69.195h2.741v2.742h-2.741v-2.742zm-16.439 0h2.742v2.742h-2.742v-2.742z" fill="#000"/><path d="M26.641 71.936h2.742v2.742H26.64v-2.742zm-10.955 0h2.741v2.742h-2.741v-2.742zm151.726-8.224h2.742v2.742h-2.742v-2.742z" fill="#000"/><path d="M164.671 69.195h2.741v2.742h-2.741v-2.742zm10.965 0h2.742v2.742h-2.742v-2.742z" fill="#D11C84"/><path d="M167.412 69.195V74.678h2.742v-8.224h-2.742v2.741zm5.483-2.741v8.224h2.741v-8.224h-2.741z" fill="#DA25C0"/><path d="M167.412 74.678h2.742v2.741h-2.742v-2.741z" fill="#000"/><path d="M170.154 63.712V77.41h2.741V63.712h-2.741z" fill="#fff"/><path d="M172.895 74.678h2.741v2.741h-2.741v-2.741zm0-10.966h2.741v2.742h-2.741v-2.742zM170.154 60.97h2.741v2.742h-2.741v-2.741zm0 16.439h2.741v2.741h-2.741V77.41zm5.482-10.955h2.742v2.741h-2.742v-2.741zm-10.965 0h2.741v2.741h-2.741v-2.741zM178.367 69.195h2.742v2.742h-2.742v-2.742zm-16.438 0h2.742v2.742h-2.742v-2.742z" fill="#000"/><path d="M175.636 71.936h2.742v2.742h-2.742v-2.742zm-10.965 0h2.741v2.742h-2.741v-2.742zM108.77 147.11v10.44h2.608V141.894h-5.225v2.608h2.617v2.607zm-33.917-5.215h-2.607v2.608h2.607v13.047h2.608v-13.047h2.607v-2.608h-5.215zm-10.44 6.524v2.607h5.225v-2.607h-5.225zm62.61 0h-2.608v2.607h5.225v-2.607h-2.617zm-7.823 9.131h2.608V141.894h-7.823v15.655h5.215zm-2.607-5.225v-7.822h2.607v10.429h-2.607v-2.607zm-28.692 5.225h2.607V141.894h-7.833v15.655h5.226zm-2.618-5.225v-7.822h2.607v10.429h-2.607v-2.607zm10.44-10.43h-2.608v15.655h2.608v-5.215h5.215v-10.44h-5.215zm2.607 5.215v2.608h-2.607v-5.215h2.607v2.607zm-22.034 17.778v2.195h2.195v-4.38h-2.195v2.185z" fill="#000"/><path d="M74.111 164.887v-2.185h-2.195v13.141h2.195V169.267h2.185v-2.185h-2.185v-2.195zM76.296 173.647v2.196h2.195V169.267h-2.195v4.38zm4.38-8.76v10.956h2.195V162.702h-2.195v2.185zm6.575-2.185h-2.195v13.141h2.195V164.887h2.185v10.956h2.195V162.702h-4.38zm8.76 0h-2.195V169.267h4.38v4.38H93.816v2.196H100.392V167.082H96.012v-2.195H100.391v-2.185H96.012zm21.746 0h-2.185v13.13h2.185v-4.37h4.37v-8.76h-4.37zm2.185 4.38v2.185h-2.185v-4.37h2.185v2.185zm-12.985-2.195v4.38h-2.185V162.702h-2.196v13.141h2.196v-4.381h2.185v4.381h2.195V162.702h-2.195v2.185zm4.38 0v10.956h2.195V162.702h-2.195v2.185zm39.802-49.624h-10.306v-5.153h5.153v-5.153h5.153V79.192H135.68V43.121h-5.153v-5.153h-5.153v-5.153H115.067v-5.153h-10.306v-5.153H89.302v5.153H78.996v5.153H68.69v5.153h-5.153v5.153h-5.153v36.071H42.925V104.957h5.153v5.153h5.153v5.153H37.772v15.459h5.153v5.154H151.139v-5.154h5.153v-15.459h-5.153z" fill="#000"/><path d="M68.69 89.498h5.153v5.153h5.153v5.153h5.153v5.153h5.153v5.153h5.153v5.153h5.153v-5.153h5.153v-5.153h5.153v-5.153h5.153v-5.153h5.154v-5.153h5.153v-5.153h5.153V43.121h-5.153v-5.153H115.067v-5.153h-10.306v-5.153H89.302v5.153H78.996v5.153H68.69v5.153h-5.153v41.224h5.153v5.153zm-5.153 30.918H42.925V130.723H68.69v-5.154h-5.153v-5.153z" fill="#F041F8"/><path d="M145.986 120.416h-15.459v5.153h-5.153v5.153H151.139v-10.306h-5.153zm-51.53 0v-5.153h-5.154v-5.153H84.15v-5.153h-5.153v-5.153h-5.153v-5.153H68.69v-5.153h-5.153v-5.153H48.078v20.612h5.153v5.153h5.153v5.153h5.153v5.153h5.153v5.153h5.153v5.153H84.15v-5.153h5.153v-5.153h5.153z" fill="#F041F8"/><path d="M130.527 120.416v-5.153h5.153v-5.153h5.153v-5.153h5.153V84.345h-15.459v5.153h-5.153v5.153h-5.153v5.153h-5.153v5.153h-5.154v5.153h-5.153v5.153h-5.153v5.153h-5.153v5.153h-5.153v5.153H120.221v-5.153h5.153v-5.153h5.153z" fill="#F041F8"/><path d="M89.302 32.815H78.996v5.153h10.306V68.886h5.153V27.662h-5.153v5.153zm0 56.683h5.153v5.153h-5.153v-5.153zM68.69 37.968v5.153h10.306v-5.153H68.69zM63.537 43.12h5.153v5.154h-5.153V43.12zm-20.612 77.296h5.153v5.153h-5.153v-5.153zm103.061 0h5.153v5.153h-5.153v-5.153zM63.537 89.498v-5.153H48.078v5.153h5.153v5.153h5.153v-5.153h5.153z" fill="#fff"/><path d="M58.384 94.651h5.153v5.153h-5.153v-5.153zM63.537 89.498h5.153v5.153h-5.153v-5.153zm0 10.306h5.153v5.153h-5.153v-5.153zM68.69 104.957h5.153v5.153H68.69v-5.153zm77.296-20.612h-15.459v5.153h5.153v5.153h5.153v-5.153h5.153v-5.153z" fill="#fff"/><path d="M130.527 94.651h5.153v5.153h-5.153v-5.153zM125.374 89.498h5.153v5.153h-5.153v-5.153zm0 10.306h5.153v5.153h-5.153v-5.153z" fill="#fff"/><path d="M120.221 104.957h5.153v5.153h-5.153v-5.153z" fill="#fff"/><path d="M104.761 104.957h5.153v-5.153h5.153v-5.153h5.154v-5.153h5.153V68.886h-5.153v5.153h-5.154v5.153h-5.153v5.153h-5.153v5.153h-5.153v5.153h-5.153v20.612h5.153v-5.153h5.153v-5.153zm-46.377 15.459h5.153v5.153h-5.153v-5.153zM63.537 125.569h5.153v5.153h-5.153v-5.153zm66.99-5.153h5.153v5.153h-5.153v-5.153zM125.374 125.57h5.153v5.153h-5.153v-5.153zm-46.378-10.307H68.69v5.153h5.153v5.154h5.153v5.153h5.153V120.416h-5.153v-5.153zm46.378 0h-10.306v5.153h-5.154v5.154h-5.153v5.153H115.068v-5.153h5.153v-5.154h5.153v-5.153z" fill="#C40E50"/><path d="M125.374 79.192v5.153h5.153V68.886h-5.153v10.306z" fill="#D11C84"/><path d="M99.608 89.498h5.153v-5.153h5.154v-5.153h5.153v-5.153h5.153v-5.153h5.153V43.121h-5.153v5.153h-5.153v5.153h-5.153v5.153h-5.154v5.153h-5.153v5.153h-5.153V94.651h5.153v-5.153zM94.455 110.11V94.651h-5.153v-5.153H84.15v-5.153h-5.153v-5.153h-5.153V74.04H68.69v15.459h5.153v5.153h5.153v5.153h5.153v5.153h5.153v5.153h5.153zm-51.53 15.46h5.153v5.153h-5.153v-5.153zm103.061 0h5.153v5.153h-5.153v-5.153zM68.69 115.263h5.153v-5.153H68.69v-5.153H58.384v5.153h5.153v5.153h5.153zm0 5.153h5.153v5.154H68.69v-5.154zm10.306-10.306h5.153v5.153h-5.153v-5.153zM73.843 125.569h5.153v5.153h-5.153v-5.153zm10.306-10.306h5.153v5.153H84.15v-5.153zm41.225-10.306v5.153h-5.153v5.153h10.306v-5.153h5.153v-5.153h-10.306zm-5.153 15.459h5.153v5.153h-5.153v-5.153z" fill="#D11C84"/><path d="M109.915 110.11h5.153v5.153h-5.153v-5.153zm5.153 15.459h5.153v5.154h-5.153v-5.154zM104.761 115.263h5.154v5.153h-5.154v-5.153z" fill="#D11C84"/><path d="M99.608 120.416h5.153v5.153h-5.153v-5.153zM94.455 125.569h5.153v5.154h-5.153v-5.154z" fill="#D11C84"/><path d="M130.527 63.733V48.274h-5.153v20.612h5.153v-5.153zm-15.46-15.46h5.153v-5.152h-5.153v-5.153h-10.306v-5.153H94.455v36.071h5.153v-5.153h5.153V58.58h5.153v-5.153h5.153v-5.153z" fill="#DA25C0"/><path d="M89.302 63.733H84.15V58.58h-5.153v-5.153h-5.153v-5.153H68.69V74.039h5.153v5.153h5.153v5.153h5.153v5.153h10.306V68.886h-5.153v-5.153zM63.537 79.192v5.153h5.153V74.039h-5.153v5.153zm-15.46 41.224h5.154v5.153h-5.153v-5.153zM53.23 125.569h5.154v5.153H53.23v-5.153zm87.603-5.153h5.153v5.153h-5.153v-5.153zM135.68 125.569h5.153v5.153h-5.153v-5.153zm-72.143-20.612v-5.153h-5.153v-5.153H53.23v15.459h5.153v-5.153h5.153zM58.384 110.11h5.153v5.153h-5.153v-5.153zM63.537 115.263h5.153v5.153h-5.153v-5.153zm5.153-15.459h5.153v5.153H68.69v-5.153zM73.843 104.957h5.153v5.153h-5.153v-5.153zm10.306 5.153h5.153v5.153H84.15v-5.153zM89.302 115.263h5.153v5.153h-5.153v-5.153zm41.225-5.153h5.153v5.153h-5.153v-5.153zM125.374 115.263h5.153v5.153h-5.153v-5.153zm-5.154-15.459h5.154v5.153h-5.154v-5.153zM115.067 104.957h5.153v5.153h-5.153v-5.153zm-10.306 5.153h5.153v5.153h-5.153v-5.153zM89.302 125.569h5.153v5.153h-5.153v-5.153zm10.306-10.306h5.153v5.153h-5.153v-5.153z" fill="#DA25C0"/><path d="M94.455 120.416h5.153v5.153h-5.153v-5.153zm46.378-15.459V94.651h-5.153v5.153h-5.153v5.153h5.153v5.153h5.153v-5.153z" fill="#DA25C0"/><path d="M168 102v2.195h4.37v3.277H168v2.196h4.37v3.277H168v2.195h6.575V102H168z" fill="#000"/></svg>