<svg width="195" height="195" fill="none" xmlns="http://www.w3.org/2000/svg"><path d="M97.032 194.064c53.589 0 97.032-43.443 97.032-97.032C194.064 43.442 150.621 0 97.032 0 43.442 0 0 43.443 0 97.032s43.443 97.032 97.032 97.032z" fill="#22DFF0"/><path d="M20.344 101.731v2.185h2.195V114.872h2.185V101.731H20.344zm-7.657-17.52h-2.195V90.776h4.38v4.38h-4.38v2.195H17.067v-8.76h-4.38v-2.195h4.38v-2.185h-4.38zm8.76 0h-2.195v2.185h4.38v4.38h-4.38V97.351H25.827v-2.195h-4.38v-2.185h4.38v-8.76h-4.38zm10.945 0h-4.38v13.14h2.195V86.396h2.185v10.955h2.195v-13.14h-2.195zm129.28 0h-2.196v13.14h2.196v-4.38h2.185v-2.195h-2.185v-4.38h2.185v4.38h2.195V84.211h-4.38z" fill="#000"/><path d="M163.857 97.351h2.195v-4.38h-2.195v4.38zm17.52-10.955v8.76h2.195v-8.76h-2.195zM179.192 92.971V86.396h2.185v-2.185h-4.38v13.14h4.38v-2.195h-2.185v-2.185zm-8.76-8.76h-2.195v13.14h2.195V86.396h2.185v10.955h2.195v-13.14h-4.38zM18.427 63.712h2.742v2.742h-2.742v-2.742z" fill="#000"/><path d="M15.686 69.185h2.741v2.741h-2.741v-2.741zm10.966 0h2.741v2.741h-2.741v-2.741z" fill="#197FB7"/><path d="M18.427 69.185V74.668h2.742v-8.214h-2.742v2.73zm5.483-2.731V74.668h2.742v-8.214H23.91z" fill="#1CAACE"/><path d="M18.427 74.668h2.742v2.741h-2.742v-2.741z" fill="#000"/><path d="M21.169 63.712V77.41h2.741V63.712H21.17z" fill="#fff"/><path d="M23.91 74.668h2.742v2.741H23.91v-2.741zm0-10.956h2.742v2.742H23.91v-2.742zM21.169 60.97h2.741v2.742H21.17v-2.741zm0 16.439h2.741v2.741H21.17V77.41zm5.483-10.955h2.741v2.741h-2.741v-2.741zm-10.966 0h2.741v2.741h-2.741v-2.741zM29.393 69.185h2.741v2.741h-2.741v-2.741zm-16.449 0h2.742v2.741h-2.742v-2.741zM26.652 71.926h2.741v2.742h-2.741v-2.742zm-10.966 0h2.741v2.742h-2.741v-2.742zm151.726-8.214h2.742v2.742h-2.742v-2.742z" fill="#000"/><path d="M164.681 69.185h2.741v2.741h-2.741v-2.741zm10.955 0h2.742v2.741h-2.742v-2.741z" fill="#197FB7"/><path d="M167.412 69.185V74.668h2.742v-8.214h-2.742v2.73zm5.483-2.731V74.668h2.741v-8.214h-2.741z" fill="#1CAACE"/><path d="M167.412 74.668h2.742v2.741h-2.742v-2.741z" fill="#000"/><path d="M170.154 63.712V77.41h2.741V63.712h-2.741z" fill="#fff"/><path d="M172.895 74.668h2.741v2.741h-2.741v-2.741zm0-10.956h2.741v2.742h-2.741v-2.742z" fill="#000"/><path d="M170.154 60.97h2.741v2.742h-2.741v-2.741zm0 16.439h2.741v2.741h-2.741V77.41zm5.482-10.955h2.742v2.741h-2.742v-2.741zm-10.955 0h2.741v2.741h-2.741v-2.741z" fill="#000"/><path d="M178.378 69.185h2.741v2.741h-2.741v-2.741zm-16.438 0h2.741v2.741h-2.741v-2.741zM175.636 71.926h2.742v2.742h-2.742v-2.742zm-10.955 0h2.741v2.742h-2.741v-2.742zm-73.122 90.766h-2.195v4.38h2.195v-4.38zm2.185 2.195v2.185h2.195v-4.38h-2.195v2.195zM91.56 167.072h2.184v2.185H91.56v-2.185zm-2.196 4.38v4.38h2.195V169.267h-2.195v2.185zm4.38 2.195v2.185h2.195V169.267h-2.195v4.38zm6.576-10.955h-2.185V175.801h2.185v-4.339h4.369v-8.76h-4.369v-.01zm2.184 4.38v2.185h-2.184v-4.37h2.184v2.185zM151.139 115.253h-10.306V110.1h5.153v-5.153h5.153V79.182H135.68V43.11h-5.153v-5.153h-5.153v-5.153h-10.306v-5.153H104.761v-5.153H89.302v5.153H78.996v5.153H68.69v5.153h-5.153v5.153h-5.153V79.182H42.925V104.947h5.153v5.153h5.153v5.153H37.772v15.459h5.153v5.153H151.139v-5.153h5.153v-15.459h-5.153z" fill="#000"/><path d="M68.69 89.488h5.153v5.153h5.153v5.153h5.153v5.153h5.153v5.153h5.153v5.153h5.153V110.1h5.153v-5.153h5.153v-5.153h5.154V94.64h5.153v-5.153h5.153v-5.153h5.153V43.11h-5.153v-5.153h-10.306v-5.153H104.761v-5.153H89.302v5.153H78.996v5.153H68.69v5.153h-5.153V84.335h5.153v5.153zm-5.153 30.918H42.925v10.306H68.69v-5.153h-5.153v-5.153z" fill="#22DFF0"/><path d="M145.986 120.406h-15.459v5.153h-5.153v5.153H151.139v-10.306h-5.153zm-51.53 0v-5.153h-5.154V110.1H84.15v-5.153h-5.153v-5.153h-5.153V94.64H68.69v-5.153h-5.153v-5.153H48.078v20.612h5.153v5.153h5.153v5.153h5.153v5.153h5.153v5.153h5.153v5.153H84.15v-5.153h5.153v-5.153h5.153z" fill="#22DFF0"/><path d="M130.527 120.406v-5.153h5.153V110.1h5.153v-5.153h5.153V84.335h-15.459v5.153h-5.153v5.153h-5.153v5.153h-5.153v5.153h-5.154v5.153h-5.153v5.153h-5.153v5.153h-5.153v5.153h-5.153v5.153H120.221v-5.153h5.153v-5.153h5.153z" fill="#22DFF0"/><path d="M94.455 53.416V27.652h-5.153v5.153H78.996v5.153h10.306V89.488h5.153V63.723h5.153v-5.154h-5.153v-5.153zm-5.153 41.225h5.153v5.153h-5.153V94.64zM68.69 37.957v5.153h10.306v-5.153H68.69zM63.537 48.263V58.57h5.153V43.11h-5.153v5.153zm-20.612 72.143h5.153v5.153h-5.153v-5.153zm103.061 0h5.153v5.153h-5.153v-5.153zM63.537 89.488v-5.153H48.078v5.153h5.153v5.153h5.153v-5.153h5.153z" fill="#fff"/><path d="M58.384 94.64h5.153v5.154h-5.153V94.64zM63.537 89.488h5.153v5.153h-5.153v-5.153zm0 10.306h5.153v5.153h-5.153v-5.153zM68.69 104.947h5.153v5.153H68.69v-5.153zm77.296-20.612h-15.459v5.153h5.153v5.153h5.153v-5.153h5.153v-5.153z" fill="#fff"/><path d="M130.527 94.64h5.153v5.154h-5.153V94.64zM125.374 89.488h5.153v5.153h-5.153v-5.153zm0 10.306h5.153v5.153h-5.153v-5.153zM120.221 104.947h5.153v5.153h-5.153v-5.153z" fill="#fff"/><path d="M104.761 104.947h5.153v-5.153h5.154V94.64h5.153V74.029h-5.153v5.153h-5.154v5.153h-5.153v5.153h-5.153v5.153h-5.153v20.612h5.153V110.1h5.153v-5.153zm-46.377 15.459h5.153v5.153h-5.153v-5.153zM63.537 125.559h5.153v5.153h-5.153v-5.153zm66.99-5.153h5.153v5.153h-5.153v-5.153zM125.374 125.559h5.153v5.153h-5.153v-5.153zm-46.378-10.306H68.69v5.153h5.153v5.153h5.153v5.153h5.153v-10.306h-5.153v-5.153zm46.378 0h-10.306v5.153h-5.154v5.153h-5.153v5.153H115.068v-5.153h5.153v-5.153h5.153v-5.153z" fill="#135B97"/><path d="M104.761 74.029h5.153v5.153h5.154v-5.153h5.153v15.459h5.153V58.569h-10.306v5.153H99.608v5.154h5.153v5.153z" fill="#197FB7"/><path d="M99.608 89.488h5.153v-5.153h5.153v-5.153h-5.153v-5.153h-5.153v-5.153h-5.153V94.64h5.153v-5.153zM84.15 84.335h-5.153v-5.153h-5.153v-5.153H68.69v15.459h5.153v5.153h5.153v5.153h5.153v5.153h5.153V89.488H84.15v-5.153zm-41.224 41.224h5.153v5.153h-5.153v-5.153zm103.061 0h5.153v5.153h-5.153v-5.153zM68.69 115.253h5.153V110.1H68.69v-5.153H58.384v5.153h5.153v5.153h5.153zm0 5.153h5.153v5.153H68.69v-5.153z" fill="#197FB7"/><path d="M78.996 110.1h5.153v5.153h-5.153V110.1zm-5.153 15.459h5.153v5.153h-5.153v-5.153zM84.15 115.253h5.152v5.153H84.15v-5.153zm41.224-10.306v5.153h-5.153v5.153h10.306V110.1h5.153v-5.153h-10.306zm-5.153 15.459h5.153v5.153h-5.153v-5.153zM109.914 110.1h5.154v5.153h-5.154V110.1z" fill="#197FB7"/><path d="M115.068 125.559h5.153v5.153h-5.153v-5.153zm-10.307-10.306h5.153v5.153h-5.153v-5.153zM99.608 120.406h5.153v5.153h-5.153v-5.153zM94.455 125.559h5.153v5.153h-5.153v-5.153z" fill="#197FB7"/><path d="M125.374 68.876v15.459h5.153V58.57h-5.153v10.306zM109.914 63.723h5.154v-5.154h10.306V43.11h-10.306v-5.153H104.761v-5.153H94.455V58.57h5.153v5.153h10.306zm-5.153 10.306h5.153v5.153h-5.153v-5.153z" fill="#1CAACE"/><path d="M99.608 68.876h5.153v5.153h-5.153v-5.153zM94.455 63.723h5.153v5.153h-5.153v-5.153zM84.15 84.335v5.153h5.153V74.029H84.15v-5.153h-5.153v5.153h-5.153v5.153h5.153v5.153h5.153zM78.996 68.876v-5.153h-5.153V58.57H68.69v15.459h5.153v-5.153h5.153zM63.537 79.182v5.153h5.153V74.029h-5.153v5.153zm-15.46 41.224h5.154v5.153h-5.153v-5.153zM53.231 125.559h5.153v5.153h-5.153v-5.153zm87.602-5.153h5.153v5.153h-5.153v-5.153zM135.68 125.559h5.153v5.153h-5.153v-5.153zm-72.143-20.612v-5.153h-5.153V94.64h-5.153V110.1h5.153v-5.153h5.153zM58.384 110.1h5.153v5.153h-5.153V110.1zM63.537 115.253h5.153v5.153h-5.153v-5.153zm5.153-15.46h5.153v5.154H68.69v-5.153zM73.843 104.947h5.153v5.153h-5.153v-5.153zM84.15 110.1h5.153v5.153H84.15V110.1zM89.302 115.253h5.153v5.153h-5.153v-5.153zm41.225-5.153h5.153v5.153h-5.153V110.1zM125.374 115.253h5.153v5.153h-5.153v-5.153zm-5.153-15.46h5.153v5.154h-5.153v-5.153zM115.068 104.947h5.153v5.153h-5.153v-5.153zm-10.307 5.153h5.153v5.153h-5.153V110.1z" fill="#1CAACE"/><path d="M89.302 125.559h5.153v5.153h-5.153v-5.153zm10.306-10.306h5.153v5.153h-5.153v-5.153z" fill="#1CAACE"/><path d="M94.455 120.406h5.153v5.153h-5.153v-5.153zm46.378-15.459V94.641h-5.153v5.153h-5.153v5.153h5.153v5.153h5.153v-5.153z" fill="#1CAACE"/><path d="M107.357 147.215v10.44h2.608V142h-5.225v2.607h2.617v2.608zM73.44 142h-2.607v2.607h2.607v13.048h2.608V144.607h2.607V142H73.44zM63 148.524v2.607h5.225v-2.607H63zm62.61 0h-2.608v2.607h5.225v-2.607h-2.617zm-7.823 9.131h2.608V142h-7.823v15.655h5.215zm-2.607-5.225v-7.823h2.607v10.43h-2.607v-2.607zm-28.692 5.225h2.607V142h-7.833v15.655h5.226zm-2.618-5.225v-7.823h2.607v10.43H83.87v-2.607zM94.31 142h-2.608v15.655h2.608v-5.215h5.215V142H94.31zm2.607 5.215v2.607H94.31v-5.215h2.607v2.608zM168 102v2.195h4.37v3.277H168v2.196h4.37v3.277H168v2.195h6.575V102H168z" fill="#000"/></svg>