<svg width="195" height="195" fill="none" xmlns="http://www.w3.org/2000/svg"><path d="M97.032 194.064c53.589 0 97.032-43.443 97.032-97.032C194.064 43.442 150.621 0 97.032 0 43.442 0 0 43.443 0 97.032s43.443 97.032 97.032 97.032z" fill="#C689FA"/><path d="M20.344 106.884v2.196h2.185v10.945h2.195v-13.141h-4.38zm-7.668-17.52h-2.184V95.94H14.872v4.381h-4.38v2.184H17.057V93.744h-4.38V91.56h4.38v-2.195h-4.38zm8.76 0h-2.184v2.195h4.38v4.38h-4.38v6.565H25.817v-2.184h-4.38v-2.196h4.38v-8.76h-4.38zm10.956 0h-4.38v13.14h2.185V91.559h2.195v10.945h2.185V89.364h-2.185zm129.269 0h-2.185v13.14h2.185V98.124h2.196V95.94h-2.196v-4.38h2.196v4.38h2.184V89.364H161.661z" fill="#000"/><path d="M163.857 102.504h2.184V98.124h-2.184V102.504zm17.52-10.945v8.761h2.185V91.559h-2.185zM179.182 98.124V91.56h2.195v-2.195h-4.38v13.14h4.38v-2.185h-2.195v-2.195zm-8.76-8.76h-2.185v13.14h2.185V91.559h2.195v10.945h2.185v-13.14h-4.38zM18.427 68.865h2.742v2.742h-2.742v-2.742z" fill="#000"/><path d="M15.686 74.348h2.741v2.742h-2.741v-2.742zm10.955 0h2.742v2.742H26.64v-2.742z" fill="#8A32EC"/><path d="M18.427 74.348v5.482h2.742v-8.223h-2.742v2.741zm5.473-2.741v8.223h2.741v-8.223H23.9z" fill="#A04AF3"/><path d="M18.427 79.83h2.742v2.742h-2.742v-2.741z" fill="#000"/><path d="M21.169 68.865V82.562h2.73V68.865h-2.73z" fill="#fff"/><path d="M23.9 79.83h2.741v2.742H23.9v-2.741zm0-10.965h2.741v2.742H23.9v-2.742zM21.169 66.124h2.741v2.741H21.17v-2.741zm-.01 16.438h2.74v2.742h-2.74v-2.742zm5.482-10.955h2.742v2.741H26.64v-2.741zm-10.955 0h2.741v2.741h-2.741v-2.741zM29.383 74.348h2.741v2.742h-2.741v-2.742zm-16.439 0h2.742v2.742h-2.742v-2.742zM26.641 77.09h2.742v2.74H26.64v-2.74zm-10.955 0h2.741v2.74h-2.741v-2.74zm151.726-8.225h2.742v2.742h-2.742v-2.742z" fill="#000"/><path d="M164.671 74.348h2.741v2.742h-2.741v-2.742zm10.965 0h2.742v2.742h-2.742v-2.742z" fill="#8A32EC"/><path d="M167.412 74.348v5.482h2.742v-8.223h-2.742v2.741zm5.483-2.741v8.223h2.741v-8.223h-2.741z" fill="#A04AF3"/><path d="M167.412 79.83h2.742v2.742h-2.742v-2.741z" fill="#000"/><path d="M170.154 68.865V82.562h2.741V68.865h-2.741z" fill="#fff"/><path d="M172.895 79.83h2.741v2.742h-2.741v-2.741zm0-10.965h2.741v2.742h-2.741v-2.742zM170.154 66.124h2.741v2.741h-2.741v-2.741zm0 16.438h2.741v2.742h-2.741v-2.742zm5.482-10.955h2.742v2.741h-2.742v-2.741zm-10.965 0h2.741v2.741h-2.741v-2.741zM178.368 74.348h2.741v2.742h-2.741v-2.742zm-16.439 0h2.742v2.742h-2.742v-2.742zM78.409 177.481h2.195v-4.38h-2.195v4.38zm6.575-13.14h-2.185v13.109h2.185v-4.369h2.185v4.369h2.185V164.341h-4.37zm2.185 4.38v2.185h-2.185v-4.37h2.185v2.185zm6.575-4.38H91.55v13.14h2.195v-4.38h2.185v-2.195h-2.185v-4.38h2.185v4.38h2.195V164.341h-4.38z" fill="#000"/><path d="M95.93 177.481h2.194v-4.38H95.93v4.38zm4.379-10.955v10.955h2.195v-13.14h-2.195v2.185zm6.575-2.185h-2.195v2.185h2.195v10.955h2.185v-10.955h2.196v-2.185h-4.381zm10.946 0V170.906h2.195V164.341h-2.195zm-2.185 2.185v-2.185h-2.196V170.906h2.196v-4.38zM115.645 173.101v4.38h2.185V170.906h-2.185v2.195zm35.494-57.848h-10.306V110.1h5.153v-5.153h5.153V79.182H135.68V43.11h-5.153v-5.153h-5.153v-5.153h-10.306v-5.153H104.761v-5.153H89.302v5.153H78.996v5.153H68.69v5.153h-5.153v5.153h-5.153V79.182H42.925V104.947h5.153v5.153h5.153v5.153H37.772v15.459h5.153v5.153H151.139v-5.153h5.153v-15.459h-5.153z" fill="#000"/><path d="M68.69 89.488h5.153v5.153h5.153v5.153h5.153v5.153h5.153v5.153h5.153v5.153h5.153V110.1h5.153v-5.153h5.153v-5.153h5.154V94.64h5.153v-5.153h5.153v-5.153h5.153V43.11h-5.153v-5.153h-10.306v-5.153H104.761v-5.153H89.302v5.153H78.996v5.153H68.69v5.153h-5.153V84.335h5.153v5.153zm-5.153 30.918H42.925v10.306H68.69v-5.153h-5.153v-5.153z" fill="#7611DB"/><path d="M145.986 120.406h-15.459v5.153h-5.153v5.153H151.139v-10.306h-5.153zm-51.53 0v-5.153h-5.154V110.1H84.15v-5.153h-5.153v-5.153h-5.153V94.64H68.69v-5.153h-5.153v-5.153H48.078v20.612h5.153v5.153h5.153v5.153h5.153v5.153h5.153v5.153h5.153v5.153H84.15v-5.153h5.153v-5.153h5.153z" fill="#7611DB"/><path d="M130.527 120.406v-5.153h5.153V110.1h5.153v-5.153h5.153V84.335h-15.459v5.153h-5.153v5.153h-5.153v5.153h-5.153v5.153h-5.153v5.153h-5.154v5.153h-5.153v5.153h-5.153v5.153h-5.153v5.153H120.221v-5.153h5.153v-5.153h5.153z" fill="#7611DB"/><path d="M89.302 27.651h5.153v5.153h-5.153v-5.153zM68.69 37.957v5.153h10.306v-5.153H68.69zM78.996 32.804v5.153h10.306v-5.153H78.996zM63.537 43.11h5.153v5.154h-5.153V43.11zm-20.612 77.296h5.153v5.153h-5.153v-5.153zm103.061 0h5.153v5.153h-5.153v-5.153zM63.537 89.488v-5.153H48.078v5.153h5.153v5.153h5.153v-5.153h5.153z" fill="#fff"/><path d="M58.384 94.64h5.153v5.154h-5.153V94.64zM63.537 89.488h5.153v5.153h-5.153v-5.153zm0 10.306h5.153v5.153h-5.153v-5.153zM68.69 104.947h5.153v5.153H68.69v-5.153zm77.296-20.612h-15.459v5.153h5.153v5.153h5.153v-5.153h5.153v-5.153z" fill="#fff"/><path d="M130.527 94.64h5.153v5.154h-5.153V94.64zM125.374 89.488h5.153v5.153h-5.153v-5.153zm0 10.306h5.153v5.153h-5.153v-5.153zM120.221 104.947h5.153v5.153h-5.153v-5.153z" fill="#fff"/><path d="M104.761 104.947h5.153v-5.153h5.154V94.64h5.153V84.335h-5.153v-5.153h-5.154v-5.153H94.455v41.224h5.153V110.1h5.153v-5.153zm-46.377 15.459h5.153v5.153h-5.153v-5.153zM63.537 125.559h5.153v5.153h-5.153v-5.153zm66.99-5.153h5.153v5.153h-5.153v-5.153zM125.374 125.559h5.153v5.153h-5.153v-5.153zm-46.378-10.306H68.69v5.153h5.153v5.153h5.153v5.153h5.153v-10.306h-5.153v-5.153zm46.378 0h-10.306v5.153h-5.154v5.153h-5.153v5.153H115.068v-5.153h5.153v-5.153h5.153v-5.153z" fill="#C689FA"/><path d="M104.761 74.029h5.154v5.153h5.153v5.153h5.153v5.153h5.153v-5.153h5.153V68.876h-5.153v-5.153h-5.153v-5.154h-5.153v-5.153H104.761v-5.153H94.455V74.03h10.306z" fill="#A04AF3"/><path d="M94.455 110.1V74.029H84.15v5.153h-5.153v5.153h-5.153V94.64h5.153v5.153h5.153v5.153h5.153v5.153h5.153zm-51.53 15.459h5.153v5.153h-5.153v-5.153zm103.061 0h5.153v5.153h-5.153v-5.153zM68.69 115.253h5.153V110.1H68.69v-5.153H58.384v5.153h5.153v5.153h5.153zm0 5.153h5.153v5.153H68.69v-5.153zM78.996 110.1h5.153v5.153h-5.153V110.1zM73.843 125.559h5.153v5.153h-5.153v-5.153zm10.306-10.306h5.153v5.153H84.15v-5.153zm41.225-10.306v5.153h-5.153v5.153h10.306V110.1h5.153v-5.153h-10.306zm-5.153 15.459h5.153v5.153h-5.153v-5.153z" fill="#A04AF3"/><path d="M109.915 110.1h5.153v5.153h-5.153V110.1zm5.153 15.459h5.153v5.153h-5.153v-5.153zM104.761 115.253h5.154v5.153h-5.154v-5.153zM99.608 120.406h5.153v5.153h-5.153v-5.153zM94.455 125.559h5.153v5.153h-5.153v-5.153z" fill="#A04AF3"/><path d="M115.068 58.57h5.153v5.153h5.153v5.153h5.153V48.264h-5.153V43.11h-10.306v-5.153H104.761v-5.153H94.455V48.264h10.306v5.152H115.068v5.154z" fill="#8A32EC"/><path d="M89.302 53.416H78.996v5.154h-5.153v5.153H68.69v5.153h-5.153v15.459h5.153v5.153h5.153v-5.153h5.153v-5.153h5.153v-5.153h10.306V48.263h-5.153v5.154zm-41.224 66.99h5.153v5.153h-5.153v-5.153z" fill="#8A32EC"/><path d="M53.231 125.559h5.153v5.153h-5.153v-5.153zm87.602-5.153h5.153v5.153h-5.153v-5.153zM135.68 125.559h5.153v5.153h-5.153v-5.153zm-72.143-20.612v-5.153h-5.153V94.64h-5.153V110.1h5.153v-5.153h5.153zM58.384 110.1h5.153v5.153h-5.153V110.1zM63.537 115.253h5.153v5.153h-5.153v-5.153zm5.153-15.46h5.153v5.154H68.69v-5.153zM73.843 104.947h5.153v5.153h-5.153v-5.153zM84.15 110.1h5.153v5.153H84.15V110.1zM89.302 115.253h5.153v5.153h-5.153v-5.153zm41.225-5.153h5.153v5.153h-5.153V110.1zM125.374 115.253h5.153v5.153h-5.153v-5.153zm-5.153-15.46h5.153v5.154h-5.153v-5.153zM115.068 104.947h5.153v5.153h-5.153v-5.153zm-10.307 5.153h5.153v5.153h-5.153V110.1z" fill="#8A32EC"/><path d="M89.302 125.559h5.153v5.153h-5.153v-5.153zm10.306-10.306h5.153v5.153h-5.153v-5.153z" fill="#8A32EC"/><path d="M94.455 120.406h5.153v5.153h-5.153v-5.153zm46.378-15.459V94.641h-5.153v5.153h-5.153v5.153h5.153v5.153h5.153v-5.153z" fill="#8A32EC"/><path d="M108.357 148.215v10.44h2.608V143h-5.225v2.607h2.617v2.608zM74.44 143h-2.607v2.607h2.607v13.048h2.608V145.607h2.607V143H74.44zM64 149.524v2.607h5.225v-2.607H64zm62.61 0h-2.608v2.607h5.225v-2.607h-2.617zm-7.823 9.131h2.608V143h-7.823v15.655h5.215zm-2.607-5.225v-7.823h2.607v10.43h-2.607v-2.607zm-28.692 5.225h2.607V143h-7.833v15.655h5.226zm-2.618-5.225v-7.823h2.607v10.43H84.87v-2.607zM95.31 143h-2.608v15.655h2.608v-5.215h5.215V143H95.31zm2.607 5.215v2.607H95.31v-5.215h2.607v2.608zM175.636 77.09h2.742v2.741h-2.742V77.09zm-10.965 0h2.741v2.741h-2.741V77.09zM76.224 164.34h-2.195v13.14h2.195v-4.38h2.185v-2.195h-2.185v-4.38h2.185v4.38h2.195V164.341h-4.38zM172.37 107v6.575h-2.175V107H168v8.77h4.37v4.37h2.205V107h-2.205z" fill="#000"/></svg>