<svg width="227" height="295" fill="none" xmlns="http://www.w3.org/2000/svg"><path d="M196.966 176.796v-9.82h9.82v-9.82h9.821v-49.1h-29.461V39.315h-9.82v-9.82h-9.82v-9.82h-19.64v-9.82h-19.64V.035h-29.46v9.82h-19.64v9.82H59.484v9.82h-9.82v9.82h-9.82v68.741h-29.46v49.1h9.82v9.82h9.82v9.82H.565v29.461h9.82v9.82h9.82v29.264h9.82v9.82h9.82v29.46h9.82v9.82h127.661v-9.82h9.82v-29.46h9.82v-9.82h9.82v-29.264h9.821v-9.82h9.82v-29.461h-29.461z" fill="#000"/><path d="M49.665 255.18v29.46h127.661v-29.46H49.665z" fill="#C300FF"/><path d="M30.024 215.9v29.46h166.942V215.9H30.024z" fill="#FED223"/><path d="M85.763 263.764h-7.875v13.551h2.18v-5.676h5.4v5.676h2.18v-5.97h-1.885v-1.611h1.886v-4.085h-1.886v-1.885zm-.294 5.676h-5.401v-3.496h5.4v3.496zM98.452 263.763h-5.99v1.886h-1.886v11.666h2.18v-5.676h5.401v5.676h2.18v-11.666h-1.885v-1.886zm-5.716 2.18h5.401v3.496h-5.4v-3.496zM111.12 263.763h-7.876v13.552h2.18v-5.676h5.401v5.676h2.18v-5.971h-1.885v-1.61h1.885v-4.085h-1.885v-1.886zm-.295 5.676h-5.401v-3.496h5.401v3.496zM115.911 265.943h1.886v9.192h-1.886v2.18h5.971v-2.18h-1.885v-9.192h1.885v-2.18h-5.971v2.18zM124.789 265.943h3.81v11.372h2.161v-11.372h3.79v-2.18h-9.761v2.18zM145.058 263.763v5.676h-1.905v1.905h-1.591v-1.905h-1.905v-5.676h-2.18v5.971h1.885v1.905h1.905v5.676h2.18v-5.676h1.905v-1.905h1.886v-5.971h-2.18z" fill="#fff"/><path d="M59.485 127.696h9.82v9.82h9.82v9.82h9.82v9.82h9.82v9.82h9.821v9.82h9.82v-9.82h9.82v-9.82h9.82v-9.82h9.82v-9.82h9.82v-9.82h9.82v-9.82h9.82V39.315h-9.82v-9.82h-19.64v-9.82h-19.64v-9.82h-29.46v9.82h-19.64v9.82h-19.64v9.82h-9.821v78.561h9.82v9.82zm-9.82 58.92h-39.28v19.64h49.1v-9.82h-9.82v-9.82z" fill="#FEB423"/><path d="M206.787 186.616h-29.46v9.82h-9.82v9.82h49.1v-19.64h-9.82zm-98.201 0v-9.82h-9.82v-9.82h-9.82v-9.82h-9.82v-9.82h-9.82v-9.82h-9.82v-9.82h-9.82v-9.821h-29.46v39.281h9.82v9.82h9.82v9.82h9.82v9.82h9.82v9.82h9.82v9.82h19.64v-9.82h9.82v-9.82h9.82z" fill="#FEB423"/><path d="M177.327 186.616v-9.82h9.82v-9.82h9.82v-9.82h9.82v-39.281h-29.46v9.821h-9.821v9.82h-9.82v9.82h-9.82v9.82h-9.82v9.82h-9.82v9.82h-9.82v9.82h-9.82v9.82h-9.82v9.82h58.92v-9.82h9.82v-9.82h9.821z" fill="#FEB423"/><path d="M98.766 9.855h9.82v9.82h-9.82v-9.82zm-39.28 19.64v9.82h19.64v-9.82h-19.64zM79.126 19.675v9.82h19.64v-9.82h-19.64zm-29.46 19.64h9.82v9.82h-9.82v-9.82zM10.384 186.618h9.82v9.82h-9.82v-9.82zm196.402 0h9.82v9.82h-9.82v-9.82zM49.665 127.696v-9.82h-29.46v9.82h9.82v9.82h9.82v-9.82h9.82zM39.845 137.516h9.82v9.82h-9.82v-9.82zM49.665 127.696h9.82v9.82h-9.82v-9.82zm0 19.64h9.82v9.821h-9.82v-9.821zM59.485 157.156h9.82v9.82h-9.82v-9.82zm147.302-39.28h-29.46v9.82h9.82v9.82h9.82v-9.82h9.82v-9.82zM177.326 137.516h9.82v9.82h-9.82v-9.82z" fill="#fff"/><path d="M167.507 127.696h9.82v9.82h-9.82v-9.82zm0 19.64h9.82v9.821h-9.82v-9.821zM157.686 157.156h9.821v9.82h-9.821v-9.82z" fill="#fff"/><path d="M128.226 157.156h9.82v-9.82h9.82v-9.82h9.82v-19.64h-9.82v-9.821h-9.82v-9.82h-29.461v78.561h9.82v-9.82h9.821v-9.82zm-88.381 29.46h9.82v9.82h-9.82v-9.82zM49.664 196.436h9.82v9.82h-9.82v-9.82zm127.662-9.82h9.82v9.82h-9.82v-9.82zM167.506 196.437h9.82v9.82h-9.82v-9.82zm-88.381-19.641h-19.64v9.82h9.82v9.821h9.82v9.82h9.82v-19.641h-9.82v-9.82zm88.381 0h-19.64v9.82h-9.821v9.821h-9.82v9.82h19.641v-9.82h9.82v-9.821h9.82v-9.82z" fill="#FEE433"/><path d="M128.226 98.235h9.82v9.82h9.82v9.82h9.82v9.821h9.82v-9.821h9.821v-29.46h-9.821v-9.82h-9.82v-9.82h-9.82v-9.82h-19.64v-9.82h-19.64v49.1h19.64zM108.586 166.976v-68.74h-19.64v9.819h-9.82v9.821h-9.82v19.64h9.82v9.82h9.82v9.82h9.82v9.82h9.82zm-98.201 29.46h9.82v9.82h-9.82v-9.82zm196.402 0h9.82v9.82h-9.82v-9.82zm-147.302-19.64h9.82v-9.82h-9.82v-9.82h-19.64v9.82h9.82v9.82h9.82zm0 9.82h9.82v9.82h-9.82v-9.82zm19.64-19.64h9.82v9.82h-9.82v-9.82zM69.306 196.436h9.82v9.82h-9.82v-9.82zm19.64-19.64h9.82v9.82h-9.82v-9.82zm78.561-19.64v9.82h-9.821v9.82h19.641v-9.82h9.82v-9.82h-19.64zm-9.821 29.46h9.821v9.82h-9.821v-9.82zM138.046 166.976h9.82v9.82h-9.82v-9.82zm9.82 29.46h9.82v9.82h-9.82v-9.82zM128.226 176.796h9.82v9.82h-9.82v-9.82zM118.406 186.616h9.82v9.82h-9.82v-9.82zM108.586 196.436h9.82v9.82h-9.82v-9.82z" fill="#FED223"/><path d="M147.865 68.775h9.82v9.82h9.82v9.82h9.821v-39.28h-9.821v-9.82h-19.64v-9.82h-19.64v-9.82h-19.64v29.46h19.64v9.82h19.64v9.82zM98.765 58.955h-19.64v9.82h-9.82v9.82h-9.82v9.82h-9.82v29.461h9.82v9.82h9.82v-9.82h9.82v-9.82h9.82v-9.82h19.64v-49.1h-9.82v9.82zm-78.56 127.662h9.82v9.82h-9.82v-9.82zM30.024 196.437h9.82v9.82h-9.82v-9.82zm166.942-9.82h9.82v9.82h-9.82v-9.82zM187.146 196.437h9.82v9.82h-9.82v-9.82zM49.665 157.156v-9.82h-9.82v-9.82h-9.82v29.46h9.82v-9.82h9.82z" fill="#FEC223"/><path d="M39.844 166.976h9.82v9.82h-9.82v-9.82zM49.664 176.796h9.82v9.82h-9.82v-9.82zm9.82-29.46h9.82v9.82h-9.82v-9.82zM69.305 157.156h9.82v9.82h-9.82v-9.82zm19.64 9.82h9.82v9.82h-9.82v-9.82zM98.765 176.796h9.82v9.82h-9.82v-9.82zm78.56-9.82h9.821v9.82h-9.821v-9.82zM167.506 176.796h9.82v9.82h-9.82v-9.82zm-9.821-29.46h9.821v9.82h-9.821v-9.82zM147.865 157.156h9.821v9.82h-9.821v-9.82zm-19.64 9.82h9.82v9.82h-9.82v-9.82zM98.765 196.437h9.82v9.82h-9.82v-9.82zm19.64-19.641h9.82v9.82h-9.82v-9.82zM108.585 186.617h9.82v9.82h-9.82v-9.82zm88.381-29.461v-19.64h-9.82v9.82h-9.82v9.82h9.82v9.82h9.82v-9.82z" fill="#FEC223"/><path d="M41.593 226.093h-1.768v9.212h1.768v1.787h7.424v-2.043h-7.169v-8.7h7.169v-2.043h-7.424v1.787zm16.105 3.575h-5.126v-5.362h-2.023v12.786h2.023v-5.362h5.126v5.362h2.023v-12.786h-2.023v5.362zM68.676 224.306H63.04v1.787h-1.788v10.999h2.023v-5.362h5.126v5.362h2.023v-10.999h-1.787v-1.787h.04zm-5.381 2.043h5.126v3.339h-5.126v-3.339zM79.38 224.306h-5.636v1.787h-1.787v10.999h2.022v-5.362h5.127v5.362h2.023v-10.999H79.34v-1.787h.04zM74 226.349h5.126v3.339H74v-3.339zM93.443 226.093h-1.807v1.807h-1.787v1.768h-1.552V227.9h-1.768v-1.807h-1.806v-1.787H82.7v12.786h2.022v-8.936h1.552v1.767h1.768v1.807h2.062v-1.807h1.787v-1.767h1.552v8.936h2.023v-12.786h-2.023v1.787zm10.959-1.787h-7.404v12.766h2.022v-5.362h5.382v-1.806h1.787v-3.811h-1.787v-1.787zm-.255 5.362H99.02v-3.339h5.127v3.339zm3.555-3.319h1.787v8.7h-1.787v2.043h5.617v-2.043h-1.788v-8.7h1.788v-2.043h-5.617v2.043zm14.553-2.043h-5.637v1.787h-1.787v9.212h1.787v1.787h5.637v-1.787h1.787v-9.212h-1.787v-1.787zM122 235.049h-5.126v-8.72H122v8.72zm10.723-3.574h-1.551v-1.807h-1.788V227.9h-1.787v-3.594h-2.043v12.786h2.043v-7.169h1.552v1.807h1.767v1.768h1.807v3.594h2.023v-12.786h-2.023v7.169zm12.491-5.382h-1.767v3.83h1.767v1.807h5.382v3.319h-7.149v2.043h7.404v-1.787h1.787v-3.83h-1.787v-1.807h-5.381v-3.319h7.168v-2.043h-7.424v1.787zm8.937.256h7.168v1.551h-1.807v1.768h-1.767v1.807h-1.807v1.787h-1.787v3.83h9.191v-2.043h-7.149v-1.551H158v-1.768h1.768v-1.807h1.807v-1.767h1.767v-3.85h-9.191v2.043zm17.892 5.126h-1.552v-1.807h-1.787V227.9h-1.807v-3.594h-2.023v12.786h2.023v-7.169h1.552v1.807h1.787v1.768h1.807v3.594h2.023v-12.786h-2.023v7.169zm10.704-7.169v2.043h1.787v10.743h2.062v-12.786h-3.849z" fill="#000"/></svg>