<svg width="227" height="295" fill="none" xmlns="http://www.w3.org/2000/svg"><path d="M197.273 176.777v-9.82h9.82v-9.82h9.82v-49.101h-29.461v-68.74h-9.82v-9.82h-9.82v-9.82h-19.64v-9.82h-19.64V.015h-29.46v9.82h-19.64v9.82h-19.64v9.82h-9.82v9.82H40.15v68.74h-29.46v49.101h9.82v9.82h9.82v9.82H.87v29.46h9.82v9.82h9.82v29.264h9.82v9.82h9.82v29.461h9.82v9.82h127.661v-9.82h9.82v-29.461h9.821v-9.82h9.82v-29.264h9.82v-9.82h9.82v-29.46h-29.46z" fill="#000"/><path d="M59.79 127.677h9.82v9.82h9.821v9.82h9.82v9.82h9.82v9.82h9.82v9.82h9.82v-9.82h9.82v-9.82h9.821v-9.82h9.82v-9.82h9.82v-9.82h9.82v-9.82h9.82V39.296h-9.82v-9.82h-19.64v-9.82h-19.641v-9.82h-29.46v9.82h-19.64v9.82h-19.64v9.82h-9.82v78.561h9.82v9.82zm-9.82 58.92H10.69v19.64h49.1v-9.82h-9.82v-9.82z" fill="#FEE433"/><path d="M207.092 186.597h-29.46v9.82h-9.82v9.82h49.1v-19.64h-9.82zm-98.201 0v-9.82h-9.82v-9.82h-9.82v-9.82h-9.82v-9.82h-9.82v-9.82h-9.82v-9.82h-9.82v-9.821H20.51v39.281h9.82v9.82h9.82v9.82h9.82v9.82h9.82v9.82h9.82v9.82h19.64v-9.82h9.82v-9.82h9.82z" fill="#FEE433"/><path d="M177.632 186.597v-9.82h9.82v-9.82h9.82v-9.82h9.821v-39.281h-29.461v9.821h-9.82v9.82h-9.82v9.82h-9.82v9.82h-9.82v9.82h-9.82v9.82h-9.82v9.82h-9.82v9.82h-9.82v9.82h58.92v-9.82h9.82v-9.82h9.82z" fill="#FEE433"/><path d="M99.072 19.655h-19.64v9.82h19.64v58.921h9.82V9.836h-9.82v9.82zm0 108.022h9.82v9.82h-9.82v-9.82zM59.791 29.476v9.82h19.64v-9.82h-19.64zM49.971 39.296h9.82v9.82h-9.82v-9.82zm-39.28 147.301h9.82v9.82h-9.82v-9.82zm196.402 0h9.82v9.82h-9.82v-9.82zm-157.122-58.92v-9.82h-29.46v9.82h9.82v9.82h9.82v-9.82h9.82zM40.15 137.497h9.82v9.82h-9.82v-9.82z" fill="#fff"/><path d="M49.97 127.677h9.821v9.82h-9.82v-9.82zm0 19.64h9.821v9.82h-9.82v-9.82zM59.791 157.137h9.82v9.82h-9.82v-9.82zm147.302-39.281h-29.461v9.821h9.82v9.82h9.82v-9.82h9.821v-9.821zM177.632 137.497h9.82v9.82h-9.82v-9.82zM167.812 127.677h9.82v9.82h-9.82v-9.82zm0 19.64h9.82v9.82h-9.82v-9.82zM157.992 157.137h9.82v9.82h-9.82v-9.82z" fill="#fff"/><path d="M128.532 157.137h9.82v-9.82h9.82v-9.821h9.82v-9.82h9.82v-39.28h-9.82v9.82h-9.82v9.82h-9.82v9.82h-9.82v9.82h-9.82v9.82h-9.82v39.281h9.82v-9.82h9.82v-9.82zm-88.381 29.46h9.82v9.82h-9.82v-9.82zM49.972 196.417h9.82v9.82h-9.82v-9.82zm127.661-9.82h9.82v9.82h-9.82v-9.82zM167.812 196.417h9.82v9.82h-9.82v-9.82zm-88.38-19.64h-19.64v9.82h9.82v9.82h9.82v9.82h9.82v-19.64h-9.82v-9.82zm88.38 0h-19.64v9.82h-9.82v9.82h-9.82v9.82h19.64v-9.82h9.82v-9.82h9.82v-9.82z" fill="#FEB423"/><path d="M167.812 108.036v9.82h9.82v-29.46h-9.82v19.64zM118.712 127.676h9.82v-9.82h9.82v-9.82h9.82v-9.82h9.82v-9.82h9.82v-49.1h-9.82v9.82h-9.82v9.82h-9.82v9.82h-9.82v9.82h-9.82v9.82h-9.82v49.1h9.82v-9.82zM108.892 166.956v-29.46h-9.82v-9.82h-9.82v-9.82h-9.82v-9.82h-9.82v-9.82h-9.82v29.46h9.82v9.82h9.82v9.82h9.82v9.82h9.82v9.82h9.82zm-98.201 29.461h9.82v9.82h-9.82v-9.82zm196.402 0h9.82v9.82h-9.82v-9.82zm-147.302-19.64h9.82v-9.821h-9.82v-9.82h-19.64v9.82h9.82v9.821h9.82zm0 9.82h9.82v9.82h-9.82v-9.82zm19.64-19.641h9.82v9.821h-9.82v-9.821zM69.611 196.417h9.82v9.82h-9.82v-9.82zm19.64-19.64h9.82v9.82h-9.82v-9.82zm78.561-19.64v9.82h-9.82v9.82h19.64v-9.82h9.82v-9.82h-19.64zm-9.82 29.46h9.82v9.82h-9.82v-9.82zM138.352 166.957h9.82v9.82h-9.82v-9.82zm9.82 29.46h9.82v9.82h-9.82v-9.82zM128.532 176.777h9.82v9.82h-9.82v-9.82zM118.712 186.597h9.82v9.82h-9.82v-9.82zM108.892 196.417h9.82v9.82h-9.82v-9.82z" fill="#FEC223"/><path d="M177.632 78.576v-29.46h-9.82v39.28h9.82v-9.82zm-29.461-29.46h9.821v-9.82h-9.821v-9.82h-19.64v-9.82h-19.64v68.74h9.82v-9.82h9.82v-9.82h9.82v-9.82h9.82v-9.82zM99.07 78.576h-9.82v-9.82h-9.82v-9.82h-9.82v-9.82h-9.82v49.1h9.82v9.82h9.82v9.82h9.82v9.82h19.641v-39.28h-9.82v-9.82zM49.97 108.036v9.82h9.82v-19.64h-9.82v9.82zm-29.46 78.561h9.82v9.82h-9.82v-9.82zM30.33 196.417h9.82v9.82h-9.82v-9.82zm166.942-9.82h9.82v9.82h-9.82v-9.82zM187.452 196.417h9.82v9.82h-9.82v-9.82zm-137.481-39.28v-9.82h-9.82v-9.82h-9.82v29.46h9.82v-9.82h9.82z" fill="#FED223"/><path d="M40.15 166.957h9.82v9.82h-9.82v-9.82zM49.97 176.777h9.82v9.82h-9.82v-9.82zm9.82-29.461h9.82v9.821h-9.82v-9.821zM69.61 157.137h9.82v9.82h-9.82v-9.82zm19.64 9.82h9.821v9.82h-9.82v-9.82zM99.07 176.777h9.821v9.82h-9.82v-9.82zm78.562-9.82h9.82v9.82h-9.82v-9.82zM167.812 176.777h9.82v9.82h-9.82v-9.82zm-9.82-29.461h9.82v9.821h-9.82v-9.821zM148.172 157.137h9.82v9.82h-9.82v-9.82zm-19.641 9.82h9.821v9.82h-9.821v-9.82zM99.07 196.417h9.821v9.82h-9.82v-9.82zm19.641-19.64h9.82v9.82h-9.82v-9.82zM108.891 186.597h9.82v9.82h-9.82v-9.82zm88.381-29.46v-19.64h-9.82v9.82h-9.82v9.82h9.82v9.82h9.82v-9.82z" fill="#FED223"/><path d="M49.971 255.161v29.46h127.661v-29.46H49.972z" fill="#F0F"/><path d="M30.33 215.88v29.461h166.942V215.88H30.331z" fill="#FED223"/><path d="M81.336 265.629h-1.905v1.905h-1.885v1.886h-1.61v-5.676h-2.18v13.551h2.18v-5.676h1.61v1.886h1.885v1.905h1.905v1.885h2.18v-2.18h-1.885v-1.905h-1.905v-1.885H77.84v-1.611h1.886v-1.885h1.905v-1.905h1.885v-2.18h-2.18v1.885zM86.423 265.924h1.886v9.191h-1.886v2.18h5.97v-2.18h-1.885v-9.191h1.886v-2.18h-5.97v2.18zM102.901 271.325h-1.63v-1.905h-1.866v-1.886h-1.924v-3.79h-2.16v13.551h2.16v-7.581h1.63v1.905h1.866v1.886h1.924v3.79h2.161v-13.551h-2.161v7.581zM109.874 265.629h-1.886v4.085h1.886v1.905h5.695v3.496h-7.581v2.18h7.876v-1.885h1.885v-4.085h-1.885v-1.905h-5.696v-3.496h7.581v-2.18h-7.875v1.885zM128.237 269.42h-5.401v-5.676h-2.18v13.551h2.18v-5.676h5.401v5.676h2.18v-13.551h-2.18v5.676zM133.324 265.924h1.885v9.191h-1.885v2.18h5.97v-2.18h-1.885v-9.191h1.885v-2.18h-5.97v2.18zM150.097 265.629v-1.885h-7.876v13.551h2.18v-5.676h5.696v-1.905h1.885v-4.085h-1.885zm-.295 3.791h-5.401v-3.496h5.401v3.496z" fill="#fff"/><path d="M41.898 226.074h-1.767v9.211h1.767v1.787h7.424v-2.042h-7.168v-8.701h7.168v-2.042h-7.424v1.787zm16.105 3.574h-5.126v-5.361h-2.042v12.785h2.042v-5.361h5.126v5.361h2.023v-12.785h-2.023v5.361zM68.963 224.287h-5.617v1.787h-1.787v10.998h2.023v-5.361h5.126v5.361h2.023v-10.998h-1.788v-1.787h.02zm-5.381 2.042h5.126v3.339h-5.126v-3.339zM79.687 224.287H74.05v1.787h-1.787v10.998h2.023v-5.361h5.126v5.361h2.023v-10.998h-1.788v-1.787h.04zm-5.382 2.042h5.126v3.339h-5.126v-3.339zM93.73 226.074h-1.788v1.807h-1.787v1.767h-1.552v-1.767h-1.787v-1.807h-1.787v-1.787h-2.043v12.785h2.043v-8.936h1.551v1.768h1.768v1.807h2.062v-1.807h1.768v-1.768h1.551v8.936h2.043v-12.785h-2.043v1.787zm10.978-1.787h-7.404v12.766h2.023v-5.362h5.381v-1.807h1.788v-3.81h-1.788v-1.787zm-.255 5.361h-5.126v-3.338h5.126v3.338zm3.555-3.319h1.787v8.701h-1.787v2.042h5.617v-2.042h-1.787v-8.701h1.787v-2.042h-5.617v2.042zm14.553-2.042h-5.637v1.787h-1.787v9.211h1.787v1.787h5.637v-1.787h1.787v-9.211h-1.787v-1.787zm-.255 10.743h-5.126v-8.72h5.126v8.72zm10.723-3.575h-1.551v-1.807h-1.787v-1.767h-1.807v-3.594h-2.023v12.785h2.023v-7.168h1.551v1.807h1.788v1.767h1.806v3.594h2.023v-12.785h-2.023v7.168zM145.52 226.074h-1.787v3.83h1.787v1.807h5.381v3.319h-7.168v2.042h7.424v-1.787h1.767v-3.83h-1.767v-1.807h-5.382v-3.319h7.149v-2.042h-7.404v1.787zM154.457 226.329h7.168v1.552h-1.806v1.767h-1.788v1.807h-1.787v1.788h-1.787v3.829h9.191v-2.042h-7.168v-1.552h1.807v-1.767h1.787v-1.807h1.807v-1.768h1.767v-3.849h-9.191v2.042zm17.892 5.126h-1.571v-1.807h-1.768v-1.767h-1.807v-3.594h-2.023v12.785h2.023v-7.168h1.552v1.807h1.787v1.767h1.807v3.594h2.023v-12.785h-2.023v7.168zm10.704-7.168v2.042h1.787v10.743h2.043v-12.785h-3.83z" fill="#000"/></svg>