<svg width="227" height="295" fill="none" xmlns="http://www.w3.org/2000/svg"><path d="M216.198 176.762h-19.64v-9.82h9.82v-9.82h9.82v-49.101h-29.46v-68.74h-9.82v-9.82h-9.82v-9.82h-19.64V9.82h-19.641V0h-29.46v9.82h-19.64v9.82h-19.64v9.82h-9.82v9.82h-9.82v68.741H9.977v49.101h9.82v9.82h9.82v9.82H.156v29.46h9.82v9.82h9.82v29.284h9.82v9.82h9.82v29.46h9.82v9.82h127.661v-9.82h9.82v-29.46h9.82v-9.82h9.82v-29.284h9.82v-9.82h9.82v-29.46h-9.82z" fill="#000"/><path d="M49.257 255.146v29.46h127.661v-29.46H49.257z" fill="#22DFF0"/><path d="M29.616 215.865v29.461h166.942v-29.461H29.617z" fill="#FED223"/><path d="M108.512 267.519h-1.906v1.886h-1.59v-1.886h-1.925v-3.79h-2.161v4.085h1.866v1.885h1.925v1.611h-1.925v1.885h-1.866v4.085h2.161v-3.79h1.925v-1.886h1.59v1.886h1.906v3.79h2.18v-4.085h-1.886v-1.885h-1.925v-1.611h1.925v-1.885h1.886v-4.085h-2.18v3.79zM121.474 265.614v-1.885h-7.876v13.551h2.18v-5.676h5.696v-1.905h1.886v-4.085h-1.886zm-.295 3.791h-5.401v-3.496h5.401v3.496z" fill="#000"/><path d="M59.078 127.661h9.82v9.821h9.82v9.82h9.82v9.82h9.82v9.82h9.82v9.82h9.82v-9.82h9.82v-9.82h9.82v-9.82h9.82v-9.82h9.82v-9.821h9.821v-9.82h9.82v-78.56h-9.82v-9.82h-19.641v-9.82h-19.64V9.82h-29.46v9.82h-19.64v9.82h-19.64v9.82h-9.82v78.56h9.82v9.82zm-9.82 58.921H9.976v19.64h49.1v-9.82h-9.82v-9.82z" fill="#FEE433"/><path d="M206.379 186.582h-29.46v9.82h-9.82v9.82h49.1v-19.64h-9.82zm-98.201 0v-9.82h-9.82v-9.82h-9.82v-9.82h-9.82v-9.82h-9.82v-9.821h-9.82v-9.82h-9.82v-9.82h-29.46v39.281h9.82v9.82h9.82v9.82h9.82v9.82h9.82v9.82h9.82v9.82h19.64v-9.82h9.82v-9.82h9.82z" fill="#FEE433"/><path d="M176.919 186.582v-9.82h9.82v-9.82h9.82v-9.82h9.82v-39.281h-29.46v9.82h-9.82v9.82h-9.821v9.821h-9.82v9.82h-9.82v9.82h-9.82v9.82h-9.82v9.82h-9.82v9.82h-9.82v9.82h58.92v-9.82h9.821v-9.82h9.82z" fill="#FEE433"/><path d="M108.178 58.92V9.82h-9.82v9.82h-19.64v9.82h19.64v98.201h9.82v-49.1h9.82v-9.82h-9.82v-9.82zm-9.82 78.562h9.82v9.82h-9.82v-9.82zM59.077 29.46v9.82h19.64v-9.82h-19.64zM49.257 49.1v19.641h9.82v-29.46h-9.82v9.82zM9.977 186.583h9.82v9.82h-9.82v-9.82zm196.401 0h9.821v9.82h-9.821v-9.82zm-157.121-58.92v-9.82h-29.46v9.82h9.82v9.82h9.82v-9.82h9.82z" fill="#fff"/><path d="M39.437 137.481h9.82v9.821h-9.82v-9.821zM49.257 127.662h9.82v9.82h-9.82v-9.82zm0 19.64h9.82v9.82h-9.82v-9.82zM59.077 157.122h9.82v9.82h-9.82v-9.82zm147.302-39.281h-29.461v9.82h9.82v9.821h9.82v-9.821h9.821v-9.82z" fill="#fff"/><path d="M176.918 137.481h9.821v9.821h-9.821v-9.821zM167.098 127.662h9.82v9.82h-9.82v-9.82zm0 19.64h9.82v9.82h-9.82v-9.82zM157.278 157.122h9.82v9.82h-9.82v-9.82z" fill="#fff"/><path d="M127.818 157.122h9.82v-9.82h9.82v-9.82h9.82v-39.28h-9.82v9.819h-9.82v9.82h-9.82v9.82h-9.82v9.821h-9.82v39.28h9.82v-9.82h9.82v-9.82zm-88.381 29.46h9.82v9.82h-9.82v-9.82z" fill="#FEB423"/><path d="M49.256 196.402h9.82v9.82h-9.82v-9.82zm127.662-9.82h9.82v9.82h-9.82v-9.82zM167.098 196.402h9.82v9.82h-9.82v-9.82zm-88.38-19.64H59.076v9.82h9.82v9.82h9.82v9.82h9.82v-19.64h-9.82v-9.82zm88.38 0h-19.64v9.82h-9.82v9.82h-9.82v9.82h19.64v-9.82h9.82v-9.82h9.82v-9.82z" fill="#FEB423"/><path d="M127.817 98.201h9.821v9.82h9.82v-9.82h9.82v29.46h9.82v-58.92h-19.64v9.82h-29.461v9.82h9.82v9.82z" fill="#FEC223"/><path d="M117.998 127.661h9.82v-9.82h9.82v-9.82h-9.82v-9.82h-9.82v-9.82h-9.82v49.1h9.82v-9.82zm-29.46-9.82h-9.82v-9.82h-9.82v-9.82h-9.821v29.46h9.82v9.82h9.82v9.82h9.82v9.821h9.82v-29.461h-9.82v-9.82zM9.976 196.402h9.82v9.82h-9.82v-9.82zm196.401 0h9.821v9.82h-9.821v-9.82zm-147.301-19.64h9.82v-9.82h-9.82v-9.82h-19.64v9.82h9.82v9.82h9.82zm0 9.82h9.82v9.82h-9.82v-9.82zM78.717 166.942h9.82v9.82h-9.82v-9.82zm-9.82 29.46h9.82v9.82h-9.82v-9.82zM88.537 176.762h9.82v9.82h-9.82v-9.82zm78.561-19.64v9.82h-9.82v9.82h19.64v-9.82h9.82v-9.82h-19.64zm-9.82 29.46h9.82v9.82h-9.82v-9.82zm-19.64-19.64h9.82v9.82h-9.82v-9.82zM147.458 196.402h9.82v9.82h-9.82v-9.82zm-19.64-19.64h9.82v9.82h-9.82v-9.82zM117.997 186.582h9.82v9.82h-9.82v-9.82zM108.177 196.402h9.821v9.82h-9.821v-9.82z" fill="#FEC223"/><path d="M167.098 88.38v29.461h9.82v-49.1h-9.82v19.64zM137.638 78.56h9.82v-9.82h19.64V39.28h-19.64v-9.82h-19.64v-9.82h-19.64v49.1h9.82v9.82h19.64zm-9.82 19.64h9.82v9.821h-9.82v-9.82zM117.997 88.38h9.82v9.821h-9.82v-9.82zM108.177 78.56h9.82v9.82h-9.82v-9.82zm-19.64 39.281v9.82h9.82v-29.46h-9.82v-9.82h-9.82v9.82h-9.82v9.82h9.82v9.82h9.82zM78.717 88.38v-9.82h-9.82v-9.82h-9.82v29.461h9.82v-9.82h9.82zM49.257 108.021v9.82h9.82v-19.64h-9.82v9.82zm-29.46 78.561h9.82v9.82h-9.82v-9.82zM29.616 196.402h9.82v9.82h-9.82v-9.82zm166.942-9.82h9.82v9.82h-9.82v-9.82zM186.738 196.402l9.82 9.82h-9.82v-9.82zm-137.482-39.28v-9.82h-9.82v-9.821h-9.82v29.461h9.82v-9.82h9.82z" fill="#FED223"/><path d="M39.437 166.941h9.82v9.821h-9.82v-9.821zM49.257 176.762h9.82v9.82h-9.82v-9.82zm9.82-29.461h9.82v9.82h-9.82v-9.82zM68.897 157.122h9.82v9.82h-9.82v-9.82zm19.64 9.82h9.82v9.82h-9.82v-9.82zM98.357 176.762h9.82v9.82h-9.82v-9.82zm78.561-9.821h9.82v9.821h-9.82v-9.821zM167.098 176.762h9.82v9.82h-9.82v-9.82zm-9.82-29.461h9.82v9.82h-9.82v-9.82zM147.457 157.122h9.82v9.82h-9.82v-9.82zm-19.64 9.82h9.82v9.82h-9.82v-9.82zM98.357 196.402h9.82v9.82h-9.82v-9.82zm19.64-19.64h9.82v9.82h-9.82v-9.82z" fill="#FED223"/><path d="M108.178 186.582h9.82v9.82h-9.82v-9.82zm88.381-29.46v-19.641h-9.821v9.821h-9.82v9.82h9.82v9.82h9.821v-9.82z" fill="#FED223"/><path d="M41.185 226.059h-1.787v9.211h1.787v1.787h7.405v-2.042h-7.17v-8.701h7.17v-2.043h-7.405v1.788zm16.085 3.574h-5.126v-5.362h-2.023v12.786h2.023v-5.362h5.127v5.362h2.042v-12.786H57.27v5.362zM68.249 224.271h-5.637v1.788h-1.787v10.998h2.023v-5.362h5.126v5.362h2.023v-10.998h-1.788v-1.788h.04zm-5.382 2.043h5.126v3.339h-5.126v-3.339zM78.972 224.271h-5.636v1.788h-1.788v10.998h2.023v-5.362h5.126v5.362h2.023v-10.998h-1.787v-1.788h.04zm-5.4 2.043h5.125v3.339h-5.126v-3.339zM93.016 226.059H91.21v1.807h-1.787v1.767H87.87v-1.767h-1.767v-1.807h-1.807v-1.788h-2.023v12.786h2.023v-8.936h1.551v1.768h1.788v1.806h2.042v-1.806h1.787v-1.768h1.552v8.936h2.023v-12.786h-2.023v1.788zM103.974 224.271H96.57v12.767h2.023v-5.362h5.381v-1.807h1.788v-3.83h-1.788v-1.768zm-.235 5.362h-5.126v-3.339h5.126v3.339zM107.294 226.314h1.767v8.701h-1.767v2.042h5.597v-2.042h-1.767v-8.701h1.767v-2.043h-5.597v2.043zM121.828 224.271h-5.637v1.788h-1.787v9.211h1.787v1.787h5.637v-1.787h1.787v-9.211h-1.787v-1.788zm-.236 10.744h-5.126v-8.721h5.126v8.721zM132.296 231.44h-1.552v-1.807h-1.767v-1.767h-1.807v-3.595h-2.023v12.786h2.023v-7.168h1.551v1.806h1.768v1.768h1.807v3.594h2.042v-12.786h-2.042v7.169zM144.787 226.059h-1.768v3.83h1.768v1.806h5.401v3.32h-7.169v2.042h7.405v-1.787h1.787v-3.83h-1.787v-1.807h-5.382v-3.319h7.169v-2.043h-7.424v1.788zM153.743 226.314h7.149v1.552h-1.807v1.767h-1.768v1.807h-1.806v1.787h-1.768v3.83h9.191v-2.042h-7.168v-1.552h1.807v-1.768h1.767v-1.806h1.807v-1.768h1.787v-3.85h-9.191v2.043zm17.872 5.126h-1.551v-1.807h-1.787v-1.767h-1.788v-3.595h-2.042v12.786h2.042v-7.168h1.552v1.806h1.768v1.768h1.806v3.594h2.023v-12.786h-2.023v7.169zm10.724-7.169v2.043h1.768v10.743h2.062v-12.786h-3.83z" fill="#000"/></svg>