<svg width="227" height="295" fill="none" xmlns="http://www.w3.org/2000/svg"><path d="M196.563 176.796v-9.82h9.82v-9.82h9.82v-49.1h-29.46V39.315h-9.821v-9.82h-9.82v-9.82h-19.64v-9.82h-19.64V.035h-29.46v9.82h-19.64v9.82h-19.64v9.82h-9.82v9.82h-9.82v68.741H9.98v49.1h9.82v9.82h9.82v9.82H.161v29.461h9.82v9.82h9.82v29.264h9.82v9.82h9.82v29.46h9.82v9.82h127.661v-9.82h9.821v-29.46h9.82v-9.82h9.82v-29.264h9.82v-9.82h9.82v-29.461h-29.46z" fill="#000"/><path d="M49.261 255.18v29.46h127.662v-29.46H49.261z" fill="#C300FF"/><path d="M29.621 215.9v29.46h166.942V215.9H29.621z" fill="#F7F5F5"/><path d="M85.36 263.764h-7.876v13.551h2.18v-5.676h5.401v5.676h2.18v-5.97H85.36v-1.611h1.885v-4.085H85.36v-1.885zm-.295 5.676h-5.4v-3.496h5.4v3.496zM98.028 263.763h-5.99v1.886h-1.885v11.666h2.18v-5.676h5.4v5.676h2.18v-11.666h-1.885v-1.886zm-5.696 2.18h5.402v3.496h-5.401v-3.496zM110.696 263.763h-7.876v13.552H105v-5.676h5.401v5.676h2.18v-5.971h-1.885v-1.61h1.885v-4.085h-1.885v-1.886zm-.295 5.676H105v-3.496h5.401v3.496zM115.488 265.943h1.886v9.192h-1.886v2.18h5.971v-2.18h-1.886v-9.192h1.886v-2.18h-5.971v2.18zm8.897 0h3.791v11.372h2.16v-11.372h3.791v-2.18h-9.742v2.18zM144.634 263.763v5.676h-1.905v1.905h-1.591v-1.905h-1.905v-5.676h-2.18v5.971h1.885v1.905h1.905v5.676h2.18v-5.676h1.906v-1.905h1.885v-5.971h-2.18z" fill="#fff"/><path d="M59.082 127.696h9.82v9.82h9.82v9.82h9.82v9.82h9.82v9.82h9.82v9.82h9.82v-9.82h9.82v-9.82h9.82v-9.82h9.82v-9.82h9.821v-9.82h9.82v-9.82h9.82V39.315h-9.82v-9.82h-19.641v-9.82h-19.64v-9.82h-29.46v9.82h-19.64v9.82h-19.64v9.82h-9.82v78.561h9.82v9.82zm-9.82 58.92H9.981v19.64h49.1v-9.82h-9.82v-9.82z" fill="silver"/><path d="M206.384 186.616h-29.461v9.82h-9.82v9.82h49.101v-19.64h-9.82zm-98.201 0v-9.82h-9.82v-9.82h-9.82v-9.82h-9.82v-9.82h-9.82v-9.82h-9.82v-9.82h-9.821v-9.821h-29.46v39.281h9.82v9.82h9.82v9.82h9.82v9.82h9.82v9.82h9.82v9.82h19.64v-9.82h9.82v-9.82h9.821z" fill="silver"/><path d="M176.923 186.616v-9.82h9.82v-9.82h9.82v-9.82h9.82v-39.281h-29.46v9.821h-9.82v9.82h-9.82v9.82h-9.82v9.82h-9.82v9.82h-9.82v9.82h-9.821v9.82h-9.82v9.82h-9.82v9.82h58.921v-9.82h9.82v-9.82h9.82z" fill="silver"/><path d="M98.362 9.855h9.82v9.82h-9.82v-9.82zm-39.28 19.64v9.82h19.64v-9.82h-19.64zM78.722 19.675v9.82h19.64v-9.82h-19.64zm-29.46 19.64h9.82v9.82h-9.82v-9.82zM9.981 186.618h9.82v9.82h-9.82v-9.82zm196.401 0h9.82v9.82h-9.82v-9.82zM49.261 127.696v-9.82h-29.46v9.82h9.82v9.82h9.82v-9.82h9.82zM39.441 137.516h9.82v9.82h-9.82v-9.82zM49.261 127.696h9.82v9.82h-9.82v-9.82zm0 19.64h9.82v9.821h-9.82v-9.821zM59.081 157.156h9.82v9.82h-9.82v-9.82zm147.302-39.28h-29.46v9.82h9.82v9.82h9.82v-9.82h9.82v-9.82zM176.922 137.516h9.821v9.82h-9.821v-9.82z" fill="#fff"/><path d="M167.103 127.696h9.82v9.82h-9.82v-9.82zm0 19.64h9.82v9.821h-9.82v-9.821zM157.283 157.156h9.82v9.82h-9.82v-9.82z" fill="#fff"/><path d="M127.822 157.156h9.82v-9.82h9.82v-9.82h9.82v-19.64h-9.82v-9.821h-9.82v-9.82h-29.46v78.561h9.82v-9.82h9.82v-9.82zm-88.38 29.46h9.82v9.82h-9.82v-9.82zM49.261 196.436h9.82v9.82h-9.82v-9.82zm127.661-9.82h9.82v9.82h-9.82v-9.82zM167.102 196.437h9.82v9.82h-9.82v-9.82zm-88.38-19.641h-19.64v9.82h9.82v9.821h9.82v9.82h9.82v-19.641h-9.82v-9.82zm88.38 0h-19.64v9.82h-9.82v9.821h-9.82v9.82h19.64v-9.82h9.82v-9.821h9.82v-9.82z" fill="#F7F5F5"/><path d="M127.822 98.235h9.82v9.82h9.82v9.82h9.821v9.821h9.82v-9.821h9.82v-29.46h-9.82v-9.82h-9.82v-9.82h-9.821v-9.82h-19.64v-9.82h-19.64v49.1h19.64zM108.182 166.976v-68.74h-19.64v9.819h-9.82v9.821h-9.82v19.64h9.82v9.82h9.82v9.82h9.82v9.82h9.82zm-98.2 29.46h9.82v9.82h-9.82v-9.82zm196.401 0h9.82v9.82h-9.82v-9.82zm-147.301-19.64h9.82v-9.82h-9.82v-9.82h-19.64v9.82h9.82v9.82h9.82zm0 9.82h9.82v9.82h-9.82v-9.82zm19.64-19.64h9.82v9.82h-9.82v-9.82zM68.902 196.436h9.82v9.82h-9.82v-9.82zm19.64-19.64h9.82v9.82h-9.82v-9.82zm78.561-19.64v9.82h-9.82v9.82h19.64v-9.82h9.82v-9.82h-19.64zm-9.82 29.46h9.82v9.82h-9.82v-9.82zM137.642 166.976h9.82v9.82h-9.82v-9.82zm9.82 29.46h9.82v9.82h-9.82v-9.82zM127.822 176.796h9.82v9.82h-9.82v-9.82zM118.002 186.616h9.82v9.82h-9.82v-9.82zM108.182 196.436h9.82v9.82h-9.82v-9.82z" fill="#EEE9E9"/><path d="M147.462 68.775h9.82v9.82h9.82v9.82h9.82v-39.28h-9.82v-9.82h-19.64v-9.82h-19.64v-9.82h-19.641v29.46h19.641v9.82h19.64v9.82zM98.361 58.955h-19.64v9.82h-9.82v9.82h-9.82v9.82h-9.82v29.461h9.82v9.82h9.82v-9.82h9.82v-9.82h9.82v-9.82h19.641v-49.1h-9.82v9.82zm-78.56 127.662h9.82v9.82H19.8v-9.82zM29.62 196.437h9.82v9.82h-9.82v-9.82zm166.942-9.82h9.821v9.82h-9.821v-9.82zM186.742 196.437h9.82v9.82h-9.82v-9.82zM49.261 157.156v-9.82h-9.82v-9.82h-9.82v29.46h9.82v-9.82h9.82z" fill="#DAD6D6"/><path d="M39.441 166.976h9.82v9.82h-9.82v-9.82zM49.26 176.796h9.82v9.82h-9.82v-9.82zm9.82-29.46h9.821v9.82h-9.82v-9.82zM68.901 157.156h9.82v9.82h-9.82v-9.82zm19.64 9.82h9.82v9.82h-9.82v-9.82zM98.361 176.796h9.82v9.82h-9.82v-9.82zm78.561-9.82h9.82v9.82h-9.82v-9.82zM167.102 176.796h9.82v9.82h-9.82v-9.82zm-9.82-29.46h9.82v9.82h-9.82v-9.82zM147.462 157.156h9.82v9.82h-9.82v-9.82zm-19.64 9.82h9.82v9.82h-9.82v-9.82zM98.361 196.437h9.82v9.82h-9.82v-9.82zm19.64-19.641h9.821v9.82h-9.821v-9.82zM108.181 186.617h9.821v9.82h-9.821v-9.82zm88.381-29.461v-19.64h-9.82v9.82h-9.82v9.82h9.82v9.82h9.82v-9.82z" fill="#DAD6D6"/><path d="M72.26 223.265h-8.72v2.377h8.425v3.928h-6.344v2.121H63.54v6.599h10.802v-2.396h-8.426v-3.909h6.344v-2.121h2.082v-4.517H72.26v-2.082zm12.609 4.203h-8.72v10.822h2.376v-8.426h6.05v8.426h2.376v-8.72h-2.082v-2.102zM97.183 227.468H90.86v2.082h-2.082v6.638h2.082v2.082h8.72v-15.025h-2.376v4.223h-.02zm-6.049 2.396h6.05v6.049h-6.05v-6.049zM111.874 225.347h-2.082v4.517h2.082v2.121h6.344v3.909h-8.426v2.396h8.72v-2.102h2.082v-4.497h-2.082v-2.121h-6.343v-3.928h8.425v-2.377h-8.72v2.082zm10.527.295h8.426v1.826h-2.121v2.102h-2.102v2.121h-2.121v2.082h-2.082v4.517h10.802v-2.396h-8.425v-1.827h2.121v-2.082H129v-2.121h2.121v-2.101h2.082v-4.498h-10.802v2.377zm21.035 6.049h-1.827v-2.121h-2.101v-2.102h-2.121v-4.203h-2.377v15.025h2.377v-8.426h1.826v2.121h2.102v2.082h2.121v4.223h2.376v-15.025h-2.376v8.426zm12.609-8.426v2.377h2.082v12.648h2.415v-15.025h-4.497z" fill="#000"/></svg>