<svg width="227" height="295" fill="none" xmlns="http://www.w3.org/2000/svg"><path d="M196.939 176.777v-9.82h9.82v-9.82h9.82v-49.101h-29.461v-68.74h-9.82v-9.82h-9.82v-9.82h-19.64v-9.82h-19.64V.015h-29.46v9.82h-19.64v9.82h-19.64v9.82h-9.82v9.82h-9.821v68.74h-29.46v49.101h9.82v9.82h9.82v9.82H.537v29.46h9.82v9.82h9.82v29.264h9.82v9.82h9.82v29.461h9.82v9.82h127.661v-9.82h9.82v-29.461h9.821v-9.82h9.82v-29.264h9.82v-9.82h9.82v-29.46h-29.46z" fill="#000"/><path d="M59.457 127.677h9.82v9.82h9.82v9.82h9.82v9.82h9.82v9.82h9.821v9.82h9.82v-9.82h9.82v-9.82h9.82v-9.82h9.82v-9.82h9.82v-9.82h9.82v-9.82h9.82V39.296h-9.82v-9.82h-19.64v-9.82h-19.64v-9.82h-29.46v9.82h-19.64v9.82h-19.64v9.82h-9.82v78.561h9.82v9.82zm-9.82 58.92h-39.28v19.64h49.1v-9.82h-9.82v-9.82z" fill="#EEE9E9"/><path d="M206.758 186.597h-29.46v9.82h-9.82v9.82h49.1v-19.64h-9.82zm-98.201 0v-9.82h-9.82v-9.82h-9.82v-9.82h-9.82v-9.82h-9.82v-9.82h-9.82v-9.82h-9.82v-9.821h-29.46v39.281h9.82v9.82h9.82v9.82h9.82v9.82h9.82v9.82h9.82v9.82h19.64v-9.82h9.82v-9.82h9.82z" fill="#EEE9E9"/><path d="M177.298 186.597v-9.82h9.82v-9.82h9.82v-9.82h9.82v-39.281h-29.46v9.821h-9.82v9.82h-9.82v9.82h-9.82v9.82h-9.821v9.82h-9.82v9.82h-9.82v9.82h-9.82v9.82h-9.82v9.82h58.921v-9.82h9.82v-9.82h9.82z" fill="#EEE9E9"/><path d="M98.737 19.655h-19.64v9.82h19.64v58.921h9.82V9.836h-9.82v9.82zm0 108.022h9.82v9.82h-9.82v-9.82zM59.457 29.476v9.82h19.64v-9.82h-19.64zM49.637 39.296h9.82v9.82h-9.82v-9.82zm-39.28 147.301h9.82v9.82h-9.82v-9.82zm196.401 0h9.82v9.82h-9.82v-9.82zm-157.121-58.92v-9.82h-29.46v9.82h9.82v9.82h9.82v-9.82h9.82zM39.816 137.497h9.82v9.82h-9.82v-9.82z" fill="#fff"/><path d="M49.636 127.677h9.82v9.82h-9.82v-9.82zm0 19.64h9.82v9.82h-9.82v-9.82zM59.457 157.137h9.82v9.82h-9.82v-9.82zm147.301-39.281h-29.46v9.821h9.82v9.82h9.82v-9.82h9.82v-9.821zM177.298 137.497h9.82v9.82h-9.82v-9.82z" fill="#fff"/><path d="M167.478 127.677h9.82v9.82h-9.82v-9.82zm0 19.64h9.82v9.82h-9.82v-9.82zM157.658 157.137h9.82v9.82h-9.82v-9.82z" fill="#fff"/><path d="M128.198 157.137h9.82v-9.82h9.82v-9.821h9.82v-9.82h9.82v-39.28h-9.82v9.82h-9.82v9.82h-9.82v9.82h-9.82v9.82h-9.82v9.82h-9.82v39.281h9.82v-9.82h9.82v-9.82zm-88.381 29.46h9.82v9.82h-9.82v-9.82zM49.637 196.417h9.82v9.82h-9.82v-9.82zm127.661-9.82h9.82v9.82h-9.82v-9.82zM167.478 196.417h9.82v9.82h-9.82v-9.82zm-88.381-19.64h-19.64v9.82h9.82v9.82h9.82v9.82h9.82v-19.64h-9.82v-9.82zm88.381 0h-19.64v9.82h-9.82v9.82h-9.821v9.82h19.641v-9.82h9.82v-9.82h9.82v-9.82z" fill="silver"/><path d="M167.478 108.036v9.82h9.82v-29.46h-9.82v19.64zM118.377 127.676h9.82v-9.82h9.821v-9.82h9.82v-9.82h9.82v-9.82h9.82v-49.1h-9.82v9.82h-9.82v9.82h-9.82v9.82h-9.821v9.82h-9.82v9.82h-9.82v49.1h9.82v-9.82zM108.557 166.956v-29.46h-9.82v-9.82h-9.82v-9.82h-9.82v-9.82h-9.82v-9.82h-9.82v29.46h9.82v9.82h9.82v9.82h9.82v9.82h9.82v9.82h9.82zm-98.2 29.461h9.82v9.82h-9.82v-9.82zm196.401 0h9.82v9.82h-9.82v-9.82zm-147.301-19.64h9.82v-9.821h-9.82v-9.82h-19.64v9.82h9.82v9.821h9.82zm0 9.82h9.82v9.82h-9.82v-9.82zm19.64-19.641h9.82v9.821h-9.82v-9.821zM69.277 196.417h9.82v9.82h-9.82v-9.82zm19.64-19.64h9.82v9.82h-9.82v-9.82zm78.561-19.64v9.82h-9.82v9.82h19.64v-9.82h9.82v-9.82h-19.64zm-9.82 29.46h9.82v9.82h-9.82v-9.82zM138.017 166.957h9.82v9.82h-9.82v-9.82zm9.82 29.46h9.821v9.82h-9.821v-9.82zM128.197 176.777h9.82v9.82h-9.82v-9.82zM118.377 186.597h9.821v9.82h-9.821v-9.82zM108.557 196.417h9.82v9.82h-9.82v-9.82z" fill="#DAD6D6"/><path d="M177.299 78.576v-29.46h-9.82v39.28h9.82v-9.82zm-29.461-29.46h9.821v-9.82h-9.821v-9.82h-19.64v-9.82h-19.64v68.74h9.82v-9.82h9.82v-9.82h9.82v-9.82h9.82v-9.82zM98.738 78.576h-9.82v-9.82h-9.82v-9.82h-9.82v-9.82h-9.82v49.1h9.82v9.82h9.82v9.82h9.82v9.82h19.64v-39.28h-9.82v-9.82zM49.638 108.036v9.82h9.82v-19.64h-9.82v9.82zm-29.46 78.561h9.82v9.82h-9.82v-9.82zM29.997 196.417h9.82v9.82h-9.82v-9.82zm166.942-9.82h9.82v9.82h-9.82v-9.82zM187.119 196.417h9.82v9.82h-9.82v-9.82zm-137.481-39.28v-9.82h-9.82v-9.82h-9.82v29.46h9.82v-9.82h9.82z" fill="#F7F5F5"/><path d="M39.818 166.957h9.82v9.82h-9.82v-9.82zM49.637 176.777h9.82v9.82h-9.82v-9.82zm9.82-29.461h9.82v9.821h-9.82v-9.821zM69.278 157.137h9.82v9.82h-9.82v-9.82zm19.64 9.82h9.82v9.82h-9.82v-9.82zM98.738 176.777h9.82v9.82h-9.82v-9.82zm78.561-9.82h9.82v9.82h-9.82v-9.82zM167.479 176.777h9.82v9.82h-9.82v-9.82zm-9.82-29.461h9.82v9.821h-9.82v-9.821zM147.839 157.137h9.82v9.82h-9.82v-9.82zm-19.641 9.82h9.821v9.82h-9.821v-9.82zM98.738 196.417h9.82v9.82h-9.82v-9.82zm19.64-19.64h9.82v9.82h-9.82v-9.82zM108.558 186.597h9.82v9.82h-9.82v-9.82zm88.381-29.46v-19.64h-9.82v9.82h-9.82v9.82h9.82v9.82h9.82v-9.82z" fill="#F7F5F5"/><path d="M49.637 255.161v29.46h127.661v-29.46H49.638z" fill="#F0F"/><path d="M29.997 215.88v29.461H196.94V215.88H29.997z" fill="#F7F5F5"/><path d="M81.003 265.629h-1.905v1.905h-1.886v1.886h-1.61v-5.676h-2.18v13.551h2.18v-5.676h1.61v1.886h1.886v1.905h1.905v1.885h2.18v-2.18h-1.886v-1.905h-1.905v-1.885h-1.885v-1.611h1.885v-1.885h1.905v-1.905h1.886v-2.18h-2.18v1.885zM86.09 265.924h1.885v9.191h-1.886v2.18h5.971v-2.18h-1.886v-9.191h1.886v-2.18h-5.97v2.18zM102.568 271.325h-1.63v-1.905h-1.866v-1.886h-1.925v-3.79h-2.16v13.551h2.16v-7.581h1.63v1.905h1.866v1.886h1.925v3.79h2.18v-13.551h-2.18v7.581zM109.54 265.629h-1.885v4.085h1.885v1.905h5.696v3.496h-7.581v2.18h7.875v-1.885h1.886v-4.085h-1.886v-1.905h-5.695v-3.496h7.581v-2.18h-7.876v1.885zM127.904 269.42h-5.401v-5.676h-2.18v13.551h2.18v-5.676h5.401v5.676h2.18v-13.551h-2.18v5.676zM132.991 265.924h1.885v9.191h-1.885v2.18h5.97v-2.18h-1.866v-9.191h1.866v-2.18h-5.97v2.18zM149.763 265.629v-1.885h-7.876v13.551h2.18v-5.676h5.696v-1.905h1.885v-4.085h-1.885zm-.295 3.791h-5.401v-3.496h5.401v3.496z" fill="#fff"/><path d="M72.636 223.246h-8.72v2.376h8.425v3.928h-6.324v2.121h-2.101v6.599h10.821v-2.396h-8.425v-3.908h6.324v-2.121h2.101v-4.517h-2.101v-2.082zm12.609 4.203h-8.72v10.821h2.396v-8.425h6.03v8.425h2.395v-8.72h-2.101v-2.101zm12.314 0h-6.324v2.082h-2.082v6.638h2.082v2.082h8.72v-15.025H97.56v4.223zm-6.03 8.425v-6.049h6.05v6.049h-6.05zm20.741-10.546h-2.102v4.517h2.102v2.121h6.324v3.908h-8.426v2.396h8.721v-2.101h2.101v-4.498h-2.101v-2.121h-6.325v-3.928h8.426v-2.376h-8.72v2.082zm10.507.294h8.426v1.827h-2.121v2.101H127v2.121h-2.121v2.082h-2.102v4.517h10.822v-2.396h-8.426v-1.826h2.122v-2.082h2.081v-2.121h2.122v-2.102h2.101v-4.497h-10.822v2.376zm21.035 6.049h-1.827v-2.121h-2.081v-2.101h-2.122v-4.203h-2.396v15.024h2.396v-8.425h1.827v2.121h2.082v2.082h2.121v4.222h2.396v-15.024h-2.396v8.425zM156.421 223.246v2.376h2.101v12.648h2.416v-15.024h-4.517z" fill="#000"/></svg>