<svg width="227" height="295" fill="none" xmlns="http://www.w3.org/2000/svg"><path d="M216.774 176.762h-19.64v-9.82h9.82v-9.82h9.82v-49.101h-29.46v-68.74h-9.82v-9.82h-9.82v-9.82h-19.641V9.82h-19.64V0h-29.46v9.82h-19.64v9.82h-19.64v9.82h-9.82v9.82h-9.82v68.741H10.551v49.101h9.82v9.82h9.82v9.82H.732v29.46h9.82v9.82h9.82v29.284h9.82v9.82h9.82v29.46h9.82v9.82h127.662v-9.82h9.82v-29.46h9.82v-9.82h9.82v-29.284h9.82v-9.82h9.82v-29.46h-9.82z" fill="#000"/><path d="M49.833 255.146v29.46h127.661v-29.46H49.833z" fill="#22DFF0"/><path d="M30.193 215.865v29.461h166.941v-29.461H30.193z" fill="#F7F5F5"/><path d="M109.088 267.519h-1.905v1.886h-1.591v-1.886h-1.905v-3.79h-2.18v4.085h1.885v1.885h1.905v1.611h-1.905v1.885h-1.885v4.085h2.18v-3.79h1.905v-1.886h1.591v1.886h1.905v3.79h2.18v-4.085h-1.886v-1.885h-1.905v-1.611h1.905v-1.885h1.886v-4.085h-2.18v3.79zM122.05 265.614v-1.885h-7.875v13.551h2.18v-5.676h5.695v-1.905h1.886v-4.085h-1.886zm-.294 3.791h-5.401v-3.496h5.401v3.496z" fill="#000"/><path d="M59.653 127.661h9.82v9.821h9.82v9.82h9.82v9.82h9.82v9.82h9.82v9.82h9.82v-9.82h9.82v-9.82h9.82v-9.82h9.821v-9.82h9.82v-9.821h9.82v-9.82h9.82v-78.56h-9.82v-9.82h-19.64v-9.82h-19.641V9.82h-29.46v9.82h-19.64v9.82h-19.64v9.82h-9.82v78.56h9.82v9.82zm-9.82 58.921h-39.28v19.64h49.1v-9.82h-9.82v-9.82z" fill="#EEE9E9"/><path d="M206.955 186.582h-29.46v9.82h-9.821v9.82h49.101v-19.64h-9.82zm-98.201 0v-9.82h-9.82v-9.82h-9.82v-9.82h-9.82v-9.82h-9.82v-9.821h-9.82v-9.82h-9.82v-9.82H20.372v39.281h9.82v9.82h9.82v9.82h9.82v9.82h9.82v9.82h9.82v9.82h19.64v-9.82h9.82v-9.82h9.821z" fill="#EEE9E9"/><path d="M177.494 186.582v-9.82h9.82v-9.82h9.821v-9.82h9.82v-39.281h-29.461v9.82h-9.82v9.82h-9.82v9.821h-9.82v9.82h-9.82v9.82h-9.82v9.82h-9.82v9.82h-9.82v9.82h-9.82v9.82h58.92v-9.82h9.82v-9.82h9.82z" fill="#EEE9E9"/><path d="M108.754 58.92V9.82h-9.82v9.82h-19.64v9.82h19.64v98.201h9.82v-49.1h9.82v-9.82h-9.82v-9.82zm-9.82 78.562h9.82v9.82h-9.82v-9.82zM59.653 29.46v9.82h19.64v-9.82h-19.64zM49.833 49.1v19.641h9.82v-29.46h-9.82v9.82zm-39.28 137.482h9.82v9.82h-9.82v-9.82zm196.401 0h9.82v9.82h-9.82v-9.82zm-157.121-58.92v-9.82h-29.46v9.82h9.82v9.82h9.82v-9.82h9.82z" fill="#fff"/><path d="M40.013 137.481h9.82v9.821h-9.82v-9.821zM49.833 127.662h9.82v9.82h-9.82v-9.82zm0 19.64h9.82v9.82h-9.82v-9.82zM59.653 157.122h9.82v9.82h-9.82v-9.82zm147.301-39.281h-29.46v9.82h9.82v9.821h9.82v-9.821h9.82v-9.82z" fill="#fff"/><path d="M177.494 137.481h9.82v9.821h-9.82v-9.821zM167.674 127.662h9.82v9.82h-9.82v-9.82zm0 19.64h9.82v9.82h-9.82v-9.82zM157.854 157.122h9.82v9.82h-9.82v-9.82z" fill="#fff"/><path d="M128.393 157.122h9.82v-9.82h9.821v-9.82h9.82v-39.28h-9.82v9.819h-9.821v9.82h-9.82v9.82h-9.82v9.821h-9.82v39.28h9.82v-9.82h9.82v-9.82zm-88.38 29.46h9.82v9.82h-9.82v-9.82z" fill="silver"/><path d="M49.833 196.402h9.82v9.82h-9.82v-9.82zm127.661-9.82h9.821v9.82h-9.821v-9.82zM167.674 196.402h9.82v9.82h-9.82v-9.82zm-88.38-19.64h-19.64v9.82h9.82v9.82h9.82v9.82h9.82v-19.64h-9.82v-9.82zm88.38 0h-19.64v9.82h-9.82v9.82h-9.82v9.82h19.64v-9.82h9.82v-9.82h9.82v-9.82z" fill="silver"/><path d="M128.393 98.201h9.82v9.82h9.82v-9.82h9.82v29.46h9.82v-58.92h-19.64v9.82h-29.46v9.82h9.82v9.82z" fill="#DAD6D6"/><path d="M118.573 127.661h9.82v-9.82h9.82v-9.82h-9.82v-9.82h-9.82v-9.82h-9.82v49.1h9.82v-9.82zm-29.46-9.82h-9.82v-9.82h-9.82v-9.82h-9.82v29.46h9.82v9.82h9.82v9.82h9.82v9.821h9.82v-29.461h-9.82v-9.82zm-78.56 78.561h9.82v9.82h-9.82v-9.82zm196.401 0h9.82v9.82h-9.82v-9.82zm-147.301-19.64h9.82v-9.82h-9.82v-9.82h-19.64v9.82h9.82v9.82h9.82zm0 9.82h9.82v9.82h-9.82v-9.82zM79.293 166.942h9.82v9.82h-9.82v-9.82zm-9.82 29.46h9.82v9.82h-9.82v-9.82zM89.113 176.762h9.82v9.82h-9.82v-9.82zm78.561-19.64v9.82h-9.82v9.82h19.64v-9.82h9.82v-9.82h-19.64zm-9.82 29.46h9.82v9.82h-9.82v-9.82zm-19.64-19.64h9.82v9.82h-9.82v-9.82zM148.034 196.402h9.82v9.82h-9.82v-9.82zm-19.64-19.64h9.82v9.82h-9.82v-9.82zM118.573 186.582h9.82v9.82h-9.82v-9.82zM108.753 196.402h9.821v9.82h-9.821v-9.82z" fill="#DAD6D6"/><path d="M167.674 88.38v29.461h9.82v-49.1h-9.82v19.64zM138.214 78.56h9.82v-9.82h19.64V39.28h-19.64v-9.82h-19.64v-9.82h-19.64v49.1h9.82v9.82h19.64zm-9.82 19.64h9.82v9.821h-9.82v-9.82zM118.573 88.38h9.821v9.821h-9.821v-9.82zM108.754 78.56h9.82v9.82h-9.82v-9.82zm-19.64 39.281v9.82h9.82v-29.46h-9.82v-9.82h-9.82v9.82h-9.82v9.82h9.82v9.82h9.82zM79.293 88.38v-9.82h-9.82v-9.82h-9.82v29.461h9.82v-9.82h9.82zM49.833 108.021v9.82h9.82v-19.64h-9.82v9.82zm-29.46 78.561h9.82v9.82h-9.82v-9.82zM30.192 196.402h9.82v9.82h-9.82v-9.82zm166.942-9.82h9.82v9.82h-9.82v-9.82zM187.314 196.402l9.82 9.82h-9.82v-9.82zm-137.481-39.28v-9.82h-9.82v-9.821h-9.82v29.461h9.82v-9.82h9.82z" fill="#F7F5F5"/><path d="M40.013 166.941h9.82v9.821h-9.82v-9.821zM49.833 176.762h9.82v9.82h-9.82v-9.82zm9.82-29.461h9.82v9.82h-9.82v-9.82zM69.473 157.122h9.82v9.82h-9.82v-9.82zm19.64 9.82h9.82v9.82h-9.82v-9.82zM98.933 176.762h9.82v9.82h-9.82v-9.82zm78.561-9.821h9.82v9.821h-9.82v-9.821zM167.674 176.762h9.82v9.82h-9.82v-9.82zm-9.82-29.461h9.82v9.82h-9.82v-9.82zM148.034 157.122h9.82v9.82h-9.82v-9.82zm-19.641 9.82h9.82v9.82h-9.82v-9.82zM98.933 196.402h9.82v9.82h-9.82v-9.82zm19.64-19.64h9.82v9.82h-9.82v-9.82z" fill="#F7F5F5"/><path d="M108.754 186.582h9.82v9.82h-9.82v-9.82zm88.381-29.46v-19.641h-9.82v9.821h-9.82v9.82h9.82v9.82h9.82v-9.82z" fill="#F7F5F5"/><path d="M72.831 223.23h-8.72v2.377h8.425v3.928h-6.343v2.121H64.11v6.599h10.802v-2.396h-8.426v-3.908h6.344v-2.121h2.082v-4.518H72.83v-2.082zM85.441 227.434h-8.72v10.821h2.377v-8.425h6.049v8.425h2.376v-8.72h-2.082v-2.101zM97.755 227.434h-6.324v2.081h-2.082v6.639h2.082v2.082h8.72v-15.025h-2.376v4.223h-.02zm-6.05 8.425v-6.049h6.05v6.049h-6.05zM112.446 225.312h-2.082v4.518h2.082v2.121h6.344v3.908h-8.426v2.396h8.72v-2.101h2.082v-4.498h-2.082v-2.121h-6.344v-3.928h8.426v-2.377h-8.72v2.082zm10.527.295h8.426v1.826h-2.121v2.102h-2.102v2.121h-2.121v2.082h-2.082v4.517h10.802v-2.396h-8.425v-1.826h2.121v-2.082h2.101v-2.121h2.121v-2.102h2.082v-4.498h-10.802v2.377zM144.008 231.656h-1.827v-2.121h-2.102v-2.102h-2.121v-4.203h-2.376v15.025h2.376v-8.425h1.827v2.121h2.101v2.082h2.122v4.222h2.376V223.23h-2.376v8.426zM156.616 223.23v2.377h2.082v12.648h2.416V223.23h-4.498z" fill="#000"/></svg>