<svg width="227" height="295" fill="none" xmlns="http://www.w3.org/2000/svg"><path d="M197.383 176.796v-9.82h9.82v-9.82h9.82v-49.1h-29.46V39.315h-9.82v-9.82h-9.82v-9.82h-19.64v-9.82h-19.641V.035h-29.46v9.82h-19.64v9.82h-19.64v9.82h-9.82v9.82h-9.82v68.741h-29.46v49.1h9.82v9.82h9.82v9.82H.981v29.461h9.82v9.82h9.82v29.264h9.82v9.82h9.82v29.46h9.82v9.82h127.661v-9.82h9.82v-29.46h9.82v-9.82h9.82v-29.264h9.82v-9.82h9.82v-29.461h-29.46z" fill="#000"/><path d="M50.081 255.18v29.46h127.662v-29.46H50.081z" fill="#C300FF"/><path d="M30.441 215.9v29.46h166.942V215.9H30.441z" fill="#E1924C"/><path d="M75.181 223.265h-8.72v2.377h8.426v3.928H66.46v2.415h8.426v3.909H66.46v2.396h8.72v-2.102h2.082v-4.497h-2.082v-1.827h2.082v-4.517h-2.082v-2.082zM81.152 229.569H79.07v8.721h2.377v-8.426h4.222v-2.396h-4.517v2.101zM95.882 227.468h-6.324v2.082h-2.082v6.638h2.082v2.082h8.72v-15.025h-2.396v4.223zm-6.03 2.396h6.05v6.049h-6.05v-6.049zM110.592 225.347h-2.101v4.517h2.101v2.121h6.325v3.909h-8.426v2.396h8.72v-2.102h2.102v-4.497h-2.102v-2.121h-6.324v-3.928h8.426v-2.377h-8.721v2.082zm10.508.295h8.426v1.826h-2.122v2.102h-2.081v2.121h-2.122v2.082H121.1v4.517h10.822v-2.396h-8.426v-1.827h2.121v-2.082h2.082v-2.121h2.121v-2.101h2.102v-4.498H121.1v2.377zm21.035 6.049h-1.827v-2.121h-2.082v-2.102h-2.121v-4.203h-2.396v15.025h2.396v-8.426h1.827v2.121h2.081v2.082h2.122v4.223h2.396v-15.025h-2.396v8.426zm12.609-8.426v2.377h2.101v12.648h2.416v-15.025h-4.517z" fill="#000"/><path d="M86.18 263.764h-7.876v13.551h2.18v-5.676h5.401v5.676h2.18v-5.97H86.18v-1.611h1.885v-4.085H86.18v-1.885zm-.295 5.676h-5.42v-3.496h5.4v3.496h.02zM98.848 263.763h-5.99v1.886h-1.886v11.666h2.18v-5.676h5.401v5.676h2.18v-11.666h-1.885v-1.886zm-5.696 2.18h5.401v3.496h-5.4v-3.496zM111.516 263.763h-7.876v13.552h2.18v-5.676h5.401v5.676h2.18v-5.971h-1.885v-1.61h1.885v-4.085h-1.885v-1.886zm-.295 5.676h-5.401v-3.496h5.401v3.496zM116.308 265.943h1.886v9.192h-1.886v2.18h5.971v-2.18h-1.886v-9.192h1.886v-2.18h-5.971v2.18zM125.205 265.943h3.79v11.372h2.161v-11.372h3.81v-2.18h-9.761v2.18zM145.454 263.763v5.676h-1.905v1.905h-1.591v-1.905h-1.905v-5.676h-2.18v5.971h1.885v1.905h1.905v5.676h2.181v-5.676h1.905v-1.905h1.885v-5.971h-2.18z" fill="#fff"/><path d="M59.901 127.696h9.82v9.82h9.82v9.82h9.82v9.82h9.82v9.82h9.821v9.82h9.82v-9.82h9.82v-9.82h9.82v-9.82h9.82v-9.82h9.82v-9.82h9.821v-9.82h9.82V39.315h-9.82v-9.82h-19.641v-9.82h-19.64v-9.82h-29.46v9.82h-19.64v9.82h-19.64v9.82h-9.82v78.561h9.82v9.82zm-9.82 58.92h-39.28v19.64h49.1v-9.82h-9.82v-9.82z" fill="#C86300"/><path d="M207.203 186.616h-29.46v9.82h-9.82v9.82h49.1v-19.64h-9.82zm-98.201 0v-9.82h-9.82v-9.82h-9.82v-9.82h-9.82v-9.82h-9.82v-9.82h-9.82v-9.82h-9.82v-9.821h-29.46v39.281h9.82v9.82h9.82v9.82h9.82v9.82h9.82v9.82h9.82v9.82h19.64v-9.82h9.82v-9.82h9.82z" fill="#C86300"/><path d="M177.743 186.616v-9.82h9.82v-9.82h9.82v-9.82h9.82v-39.281h-29.46v9.821h-9.82v9.82h-9.821v9.82h-9.82v9.82h-9.82v9.82h-9.82v9.82h-9.82v9.82h-9.82v9.82h-9.82v9.82h58.92v-9.82h9.821v-9.82h9.82z" fill="#C86300"/><path d="M99.182 9.854h9.82v9.82h-9.82v-9.82zm-39.28 19.64v9.82h19.64v-9.82h-19.64zM79.542 19.675v9.82h19.64v-9.82h-19.64zm-29.46 19.64h9.82v9.82h-9.82v-9.82zm-39.28 147.301h9.82v9.821h-9.82v-9.821zm196.401 0h9.82v9.821h-9.82v-9.821zm-157.121-58.92v-9.82h-29.46v9.82h9.82v9.82h9.82v-9.82h9.82zM40.262 137.516h9.82v9.82h-9.82v-9.82z" fill="#fff"/><path d="M50.081 127.696h9.82v9.82h-9.82v-9.82zm0 19.64h9.82v9.82h-9.82v-9.82zM59.902 157.156h9.82v9.82h-9.82v-9.82zm147.301-39.281h-29.46v9.821h9.82v9.82h9.82v-9.82h9.82v-9.821zM177.743 137.516h9.82v9.82h-9.82v-9.82z" fill="#fff"/><path d="M167.923 127.696h9.82v9.82h-9.82v-9.82zm0 19.64h9.82v9.82h-9.82v-9.82zM158.103 157.156h9.82v9.82h-9.82v-9.82z" fill="#fff"/><path d="M128.642 157.156h9.821v-9.82h9.82v-9.82h9.82v-19.64h-9.82v-9.821h-9.82v-9.82h-29.461v78.561h9.82v-9.82h9.82v-9.82zm-88.38 29.46h9.82v9.82h-9.82v-9.82zM50.082 196.436h9.82v9.82h-9.82v-9.82zm127.661-9.82h9.82v9.82h-9.82v-9.82zM167.923 196.437h9.82v9.82h-9.82v-9.82zm-88.38-19.641h-19.64v9.82h9.82v9.821h9.82v9.82h9.82v-19.641h-9.82v-9.82zm88.38 0h-19.64v9.82h-9.82v9.821h-9.82v9.82h19.64v-9.82h9.82v-9.821h9.82v-9.82z" fill="#E1924C"/><path d="M128.642 98.235h9.82v9.82h9.82v9.82h9.821v9.821h9.82v-9.821h9.82v-29.46h-9.82v-9.82h-9.82v-9.82h-9.821v-9.82h-19.64v-9.82h-19.64v49.1h19.64zM109.002 166.976v-68.74h-19.64v9.819h-9.82v9.821h-9.82v19.64h9.82v9.82h9.82v9.82h9.82v9.82h9.82zm-98.2 29.46h9.82v9.82h-9.82v-9.82zm196.401 0h9.82v9.82h-9.82v-9.82zm-147.301-19.64h9.82v-9.82h-9.82v-9.82h-19.64v9.82h9.82v9.82h9.82zm0 9.82h9.82v9.82h-9.82v-9.82zm19.64-19.64h9.82v9.82h-9.82v-9.82zM69.722 196.436h9.82v9.82h-9.82v-9.82zm19.64-19.64h9.82v9.82h-9.82v-9.82zm78.561-19.64v9.82h-9.82v9.82h19.64v-9.82h9.82v-9.82h-19.64zm-9.82 29.46h9.82v9.82h-9.82v-9.82zM138.462 166.976h9.82v9.82h-9.82v-9.82zm9.82 29.46h9.82v9.82h-9.82v-9.82zM128.642 176.796h9.82v9.82h-9.82v-9.82zM118.822 186.616h9.82v9.82h-9.82v-9.82zM109.002 196.436h9.82v9.82h-9.82v-9.82z" fill="#DD8334"/><path d="M148.283 68.775h9.82v9.82h9.82v9.82h9.82v-39.28h-9.82v-9.82h-19.64v-9.82h-19.64v-9.82h-19.641v29.46h19.641v9.82h19.64v9.82zM99.182 58.955h-19.64v9.82h-9.82v9.82h-9.82v9.82h-9.82v29.461h9.82v9.82h9.82v-9.82h9.82v-9.82h9.82v-9.82h19.64v-49.1h-9.82v9.82zm-78.56 127.662h9.82v9.82h-9.82v-9.82zM30.442 196.437h9.82v9.82h-9.82v-9.82zm166.941-9.82h9.82v9.82h-9.82v-9.82zM187.563 196.437h9.82v9.82h-9.82v-9.82zM50.082 157.156v-9.82h-9.82v-9.82h-9.82v29.46h9.82v-9.82h9.82z" fill="#D86F13"/><path d="M40.262 166.976h9.82v9.82h-9.82v-9.82zM50.082 176.796h9.82v9.82h-9.82v-9.82zm9.82-29.46h9.82v9.82h-9.82v-9.82zM69.722 157.156h9.82v9.82h-9.82v-9.82zm19.64 9.82h9.82v9.82h-9.82v-9.82zM99.182 176.796h9.82v9.82h-9.82v-9.82zm78.561-9.82h9.82v9.82h-9.82v-9.82zM167.923 176.796h9.82v9.82h-9.82v-9.82zm-9.82-29.46h9.82v9.82h-9.82v-9.82zM148.283 157.156h9.82v9.82h-9.82v-9.82zm-19.64 9.82h9.82v9.82h-9.82v-9.82zM99.182 196.437h9.82v9.82h-9.82v-9.82zm19.64-19.641h9.82v9.82h-9.82v-9.82zM109.002 186.617h9.82v9.82h-9.82v-9.82zm88.381-29.461v-19.64h-9.82v9.82h-9.82v9.82h9.82v9.82h9.82v-9.82z" fill="#D86F13"/></svg>