<svg width="227" height="295" fill="none" xmlns="http://www.w3.org/2000/svg"><path d="M196.669 176.777v-9.82h9.82v-9.82h9.82v-49.101h-29.46v-68.74h-9.82v-9.82h-9.82v-9.82h-19.64v-9.82h-19.64V.015h-29.46v9.82h-19.64v9.82H59.187v9.82h-9.82v9.82h-9.82v68.74h-29.46v49.101h9.82v9.82h9.82v9.82H.268v29.46h9.82v9.82h9.82v29.264h9.82v9.82h9.82v29.461h9.82v9.82h127.661v-9.82h9.82v-29.461h9.82v-9.82h9.82v-29.264h9.82v-9.82h9.821v-29.46h-29.461z" fill="#000"/><path d="M59.188 127.677h9.82v9.82h9.82v9.82h9.82v9.82h9.82v9.82h9.82v9.82h9.82v-9.82h9.82v-9.82h9.82v-9.82h9.821v-9.82h9.82v-9.82h9.82v-9.82h9.82V39.296h-9.82v-9.82h-19.64v-9.82h-19.641v-9.82h-29.46v9.82h-19.64v9.82h-19.64v9.82h-9.82v78.561h9.82v9.82zm-9.82 58.92h-39.28v19.64h49.1v-9.82h-9.82v-9.82z" fill="#DD8334"/><path d="M206.49 186.597h-29.461v9.82h-9.82v9.82h49.101v-19.64h-9.82zm-98.201 0v-9.82h-9.82v-9.82h-9.82v-9.82h-9.82v-9.82h-9.82v-9.82h-9.82v-9.82h-9.82v-9.821H19.907v39.281h9.82v9.82h9.82v9.82h9.82v9.82h9.82v9.82h9.82v9.82h19.64v-9.82h9.82v-9.82h9.821z" fill="#DD8334"/><path d="M177.029 186.597v-9.82h9.82v-9.82h9.821v-9.82h9.82v-39.281h-29.461v9.821h-9.82v9.82h-9.82v9.82h-9.82v9.82h-9.82v9.82h-9.82v9.82h-9.82v9.82h-9.82v9.82h-9.82v9.82h58.92v-9.82h9.82v-9.82h9.82z" fill="#DD8334"/><path d="M98.469 19.655h-19.64v9.82h19.64v58.921h9.82V9.836h-9.82v9.82zm0 108.022h9.82v9.82h-9.82v-9.82zM59.188 29.476v9.82h19.64v-9.82h-19.64zM49.368 39.296h9.82v9.82h-9.82v-9.82zm-39.28 147.301h9.82v9.82h-9.82v-9.82zm196.402 0h9.82v9.82h-9.82v-9.82zm-157.122-58.92v-9.82h-29.46v9.82h9.82v9.82h9.82v-9.82h9.82zM39.548 137.497h9.82v9.82h-9.82v-9.82zM49.368 127.677h9.82v9.82h-9.82v-9.82zm0 19.64h9.82v9.82h-9.82v-9.82zM59.188 157.137h9.82v9.82h-9.82v-9.82zm147.302-39.281h-29.461v9.821h9.821v9.82h9.82v-9.82h9.82v-9.821zM177.029 137.497h9.82v9.82h-9.82v-9.82z" fill="#fff"/><path d="M167.209 127.677h9.821v9.82h-9.821v-9.82zm0 19.64h9.821v9.82h-9.821v-9.82zM157.389 157.137h9.82v9.82h-9.82v-9.82z" fill="#fff"/><path d="M127.928 157.137h9.82v-9.82h9.82v-9.821h9.821v-9.82h9.82v-39.28h-9.82v9.82h-9.821v9.82h-9.82v9.82h-9.82v9.82h-9.82v9.82h-9.82v39.281h9.82v-9.82h9.82v-9.82zm-88.38 29.46h9.82v9.82h-9.82v-9.82zM49.367 196.417h9.82v9.82h-9.82v-9.82zm127.662-9.82h9.82v9.82h-9.82v-9.82zM167.209 196.417h9.82v9.82h-9.82v-9.82zm-88.381-19.64h-19.64v9.82h9.82v9.82h9.82v9.82h9.82v-19.64h-9.82v-9.82zm88.381 0h-19.641v9.82h-9.82v9.82h-9.82v9.82h19.64v-9.82h9.82v-9.82h9.821v-9.82z" fill="#C86300"/><path d="M167.209 108.036v9.82h9.821v-29.46h-9.821v19.64zM118.109 127.676h9.82v-9.82h9.82v-9.82h9.82v-9.82h9.82v-9.82h9.82v-49.1h-9.82v9.82h-9.82v9.82h-9.82v9.82h-9.82v9.82h-9.82v9.82h-9.82v49.1h9.82v-9.82zM108.289 166.956v-29.46h-9.82v-9.82h-9.82v-9.82h-9.82v-9.82h-9.82v-9.82h-9.82v29.46h9.82v9.82h9.82v9.82h9.82v9.82h9.82v9.82h9.82zm-98.201 29.461h9.82v9.82h-9.82v-9.82zm196.402 0h9.82v9.82h-9.82v-9.82zm-147.302-19.64h9.82v-9.821h-9.82v-9.82h-19.64v9.82h9.82v9.821h9.82zm0 9.82h9.82v9.82h-9.82v-9.82zm19.64-19.641h9.82v9.821h-9.82v-9.821zM69.008 196.417h9.82v9.82h-9.82v-9.82zm19.64-19.64h9.82v9.82h-9.82v-9.82zm78.561-19.64v9.82h-9.82v9.82h19.641v-9.82h9.82v-9.82h-19.641zm-9.82 29.46h9.82v9.82h-9.82v-9.82zM137.749 166.957h9.82v9.82h-9.82v-9.82zm9.82 29.46h9.82v9.82h-9.82v-9.82zM127.929 176.777h9.82v9.82h-9.82v-9.82zM118.109 186.597h9.82v9.82h-9.82v-9.82zM108.289 196.417h9.82v9.82h-9.82v-9.82z" fill="#D86F13"/><path d="M177.028 78.576v-29.46h-9.82v39.28h9.82v-9.82zm-29.46-29.46h9.82v-9.82h-9.82v-9.82h-19.64v-9.82h-19.64v68.74h9.82v-9.82h9.82v-9.82h9.82v-9.82h9.82v-9.82z" fill="#E1924C"/><path d="M98.468 78.576h-9.82v-9.82h-9.82v-9.82h-9.82v-9.82h-9.82v49.1h9.82v9.82h9.82v9.82h9.82v9.82h19.64v-39.28h-9.82v-9.82zM49.367 108.036v9.82h9.82v-19.64h-9.82v9.82zm-29.46 78.561h9.82v9.82h-9.82v-9.82zM29.727 196.417h9.82v9.82h-9.82v-9.82zm166.942-9.82h9.82v9.82h-9.82v-9.82zM186.849 196.417h9.82v9.82h-9.82v-9.82zm-137.482-39.28v-9.82h-9.82v-9.82h-9.82v29.46h9.82v-9.82h9.82z" fill="#E1924C"/><path d="M39.547 166.957h9.82v9.82h-9.82v-9.82zM49.367 176.777h9.82v9.82h-9.82v-9.82zm9.82-29.461h9.82v9.821h-9.82v-9.821zM69.007 157.137h9.82v9.82h-9.82v-9.82zm19.64 9.82h9.82v9.82h-9.82v-9.82zM98.468 176.777h9.82v9.82h-9.82v-9.82zm78.56-9.82h9.82v9.82h-9.82v-9.82zM167.208 176.777h9.82v9.82h-9.82v-9.82zm-9.82-29.461h9.82v9.821h-9.82v-9.821zM147.568 157.137h9.82v9.82h-9.82v-9.82zm-19.64 9.82h9.82v9.82h-9.82v-9.82zM98.468 196.417h9.82v9.82h-9.82v-9.82zm19.64-19.64h9.82v9.82h-9.82v-9.82zM108.288 186.597h9.82v9.82h-9.82v-9.82zm88.381-29.46v-19.64h-9.82v9.82h-9.821v9.82h9.821v9.82h9.82v-9.82z" fill="#E1924C"/><path d="M49.368 255.161v29.46h127.661v-29.46H49.368z" fill="#F0F"/><path d="M29.728 215.88v29.461h166.941V215.88H29.728z" fill="#E1924C"/><path d="M74.487 223.246h-8.72v2.376h8.426v3.928h-8.426v2.416h8.426v3.908h-8.426v2.396h8.72v-2.101h2.082v-4.498h-2.082v-1.826h2.082v-4.518h-2.082v-2.081zM80.458 229.55h-2.082v8.72h2.377v-8.425h4.222v-2.396h-4.517v2.101zm14.73-2.101h-6.324v2.082h-2.082v6.638h2.082v2.082h8.72v-15.025h-2.396v4.223zm-6.03 2.396h6.05v6.049h-6.05v-6.049zM109.899 225.327h-2.102v4.518h2.102v2.121h6.324v3.908h-8.426v2.396h8.72v-2.101h2.102v-4.498h-2.102v-2.121h-6.324v-3.928h8.426v-2.376h-8.72v2.081zM120.406 225.622h8.426v1.827h-2.121v2.101h-2.082v2.121h-2.121v2.082h-2.102v4.517h10.822v-2.396h-8.426v-1.826h2.121v-2.082h2.082v-2.121h2.121v-2.102h2.102v-4.497h-10.822v2.376zm21.035 6.049h-1.827v-2.121h-2.082v-2.101h-2.121v-4.203h-2.396v15.024h2.396v-8.425h1.827v2.121h2.082v2.082h2.121v4.222h2.396v-15.024h-2.396v8.425zM154.05 223.246v2.376h2.101v12.648h2.416v-15.024h-4.517z" fill="#000"/><path d="M80.733 265.629h-1.905v1.905h-1.885v1.886h-1.61v-5.676h-2.181v13.551h2.18v-5.676h1.61v1.886h1.886v1.905h1.905v1.885h2.18v-2.18h-1.885v-1.905h-1.905v-1.885h-1.886v-1.611h1.886v-1.885h1.905v-1.905h1.885v-2.18h-2.18v1.885zM85.82 265.924h1.885v9.191H85.82v2.18h5.97v-2.18h-1.885v-9.191h1.885v-2.18h-5.97v2.18zM102.298 271.325h-1.611v-1.905h-1.885v-1.886h-1.925v-3.79h-2.16v13.551h2.16v-7.581h1.63v1.905h1.886v1.886h1.905v3.79h2.18v-13.551h-2.18v7.581zM109.27 265.629h-1.885v4.085h1.885v1.905h5.696v3.496h-7.581v2.18h7.876v-1.885h1.885v-4.085h-1.885v-1.905h-5.696v-3.496h7.581v-2.18h-7.876v1.885zM127.634 269.42h-5.401v-5.676h-2.18v13.551h2.18v-5.676h5.401v5.676h2.18v-13.551h-2.18v5.676zM132.74 265.924h1.866v9.191h-1.866v2.18h5.951v-2.18h-1.866v-9.191h1.866v-2.18h-5.951v2.18zM149.493 265.629v-1.885h-7.876v13.551h2.18v-5.676h5.696v-1.905h1.885v-4.085h-1.885zm-.295 3.791h-5.401v-3.496h5.401v3.496z" fill="#fff"/></svg>