<svg width="227" height="295" fill="none" xmlns="http://www.w3.org/2000/svg"><path d="M216.595 176.762h-19.64v-9.82h9.82v-9.82h9.82v-49.101h-29.46v-68.74h-9.82v-9.82h-9.82v-9.82h-19.64V9.82h-19.641V0h-29.46v9.82h-19.64v9.82h-19.64v9.82h-9.82v9.82h-9.82v68.741h-29.46v49.101h9.82v9.82h9.82v9.82H.553v29.46h9.82v9.82h9.82v29.284h9.82v9.82h9.82v29.46h9.82v9.82h127.661v-9.82h9.82v-29.46h9.82v-9.82h9.82v-29.284h9.82v-9.82h9.82v-29.46h-9.82z" fill="#000"/><path d="M49.654 255.146v29.46h127.661v-29.46H49.655z" fill="#22DFF0"/><path d="M30.015 215.865v29.461h166.941v-29.461H30.015z" fill="#E1924C"/><path d="M74.755 223.231h-8.72v2.376h8.426v3.928h-8.426v2.416h8.426v3.908h-8.426v2.396h8.72v-2.101h2.102v-4.498h-2.102v-1.826h2.102v-4.518h-2.102v-2.081zm5.99 6.304h-2.1v8.72h2.395v-8.425h4.203v-2.396h-4.497v2.101zm14.73-2.101h-6.323v2.081H87.07v6.639h2.082v2.082h8.72v-15.025h-2.396v4.223zm-6.048 2.396h6.049v6.049h-6.05v-6.049zm20.74-4.518h-2.082v4.518h2.082v2.121h6.343v3.908h-8.425v2.396h8.72v-2.101h2.082v-4.498h-2.082v-2.121h-6.344v-3.928h8.426v-2.376h-8.72v2.081zm10.527.295h8.425v1.827h-2.121v2.101h-2.101v2.121h-2.121v2.082h-2.082v4.517h10.802v-2.396h-8.426v-1.826h2.121v-2.082h2.102v-2.121h2.121v-2.102h2.082v-4.497h-10.802v2.376zM141.708 231.656h-1.827v-2.121H137.8v-2.102h-2.122v-4.203h-2.376v15.025h2.376v-8.425h1.827v2.121h2.082v2.082h2.121v4.222h2.396V223.23h-2.396v8.426zM154.318 223.23v2.377h2.101v12.648h2.416V223.23h-4.517zM108.909 267.519h-1.905v1.886h-1.59v-1.886h-1.906v-3.79h-2.18v4.085h1.886v1.885h1.905v1.611h-1.905v1.885h-1.886v4.085h2.18v-3.79h1.906v-1.886h1.59v1.886h1.905v3.79h2.181v-4.085h-1.886v-1.885h-1.905v-1.611h1.905v-1.885h1.886v-4.085h-2.181v3.79zM121.871 265.614v-1.885h-7.875v13.551h2.18v-5.676h5.695v-1.905h1.886v-4.085h-1.886zm-.294 3.791h-5.401v-3.496h5.401v3.496z" fill="#000"/><path d="M59.474 127.661h9.82v9.821h9.82v9.82h9.82v9.82h9.82v9.82h9.821v9.82h9.82v-9.82h9.82v-9.82h9.82v-9.82h9.82v-9.82h9.82v-9.821h9.821v-9.82h9.82v-78.56h-9.82v-9.82h-19.641v-9.82h-19.64V9.82h-29.46v9.82h-19.64v9.82h-19.64v9.82h-9.82v78.56h9.82v9.82zm-9.82 58.921h-39.28v19.64h49.1v-9.82h-9.82v-9.82z" fill="#DD8334"/><path d="M206.775 186.582h-29.46v9.82h-9.82v9.82h49.1v-19.64h-9.82zm-98.201 0v-9.82h-9.82v-9.82h-9.82v-9.82h-9.82v-9.82h-9.82v-9.821h-9.82v-9.82h-9.82v-9.82h-29.46v39.281h9.82v9.82h9.82v9.82h9.82v9.82h9.82v9.82h9.82v9.82h19.64v-9.82h9.82v-9.82h9.82z" fill="#DD8334"/><path d="M177.315 186.582v-9.82h9.82v-9.82h9.82v-9.82h9.82v-39.281h-29.46v9.82h-9.82v9.82h-9.821v9.821h-9.82v9.82h-9.82v9.82h-9.82v9.82h-9.82v9.82h-9.82v9.82h-9.82v9.82h58.92v-9.82h9.821v-9.82h9.82z" fill="#DD8334"/><path d="M108.575 58.92V9.82h-9.82v9.82h-19.64v9.82h19.64v98.201h9.82v-49.1h9.82v-9.82h-9.82v-9.82zm-9.82 78.562h9.82v9.82h-9.82v-9.82zM59.474 29.46v9.82h19.64v-9.82h-19.64zM49.654 49.1v19.641h9.82v-29.46h-9.82v9.82zm-39.28 137.482h9.82v9.82h-9.82v-9.82zm196.402 0h9.82v9.82h-9.82v-9.82zm-157.122-58.92v-9.82h-29.46v9.82h9.82v9.82h9.82v-9.82h9.82z" fill="#fff"/><path d="M39.834 137.481h9.82v9.821h-9.82v-9.821zM49.654 127.662h9.82v9.82h-9.82v-9.82zm0 19.64h9.82v9.82h-9.82v-9.82zM59.474 157.122h9.82v9.82h-9.82v-9.82zm147.302-39.281h-29.461v9.82h9.821v9.821h9.82v-9.821h9.82v-9.82z" fill="#fff"/><path d="M177.316 137.481h9.82v9.821h-9.82v-9.821zM167.495 127.662h9.82v9.82h-9.82v-9.82zm0 19.64h9.82v9.82h-9.82v-9.82zM157.675 157.122h9.82v9.82h-9.82v-9.82z" fill="#fff"/><path d="M128.215 157.122h9.82v-9.82h9.82v-9.82h9.82v-39.28h-9.82v9.819h-9.82v9.82h-9.82v9.82h-9.82v9.821h-9.82v39.28h9.82v-9.82h9.82v-9.82zm-88.38 29.46h9.82v9.82h-9.82v-9.82z" fill="#C86300"/><path d="M49.654 196.402h9.82v9.82h-9.82v-9.82zm127.661-9.82h9.82v9.82h-9.82v-9.82zM167.495 196.402h9.821v9.82h-9.821v-9.82zm-88.38-19.64h-19.64v9.82h9.82v9.82h9.82v9.82h9.82v-19.64h-9.82v-9.82zm88.38 0h-19.64v9.82h-9.82v9.82h-9.82v9.82h19.64v-9.82h9.82v-9.82h9.82v-9.82z" fill="#C86300"/><path d="M128.215 98.201h9.82v9.82h9.82v-9.82h9.82v29.46h9.82v-58.92h-19.64v9.82h-29.46v9.82h9.82v9.82z" fill="#D86F13"/><path d="M118.395 127.661h9.82v-9.82h9.82v-9.82h-9.82v-9.82h-9.82v-9.82h-9.82v49.1h9.82v-9.82zm-29.46-9.82h-9.82v-9.82h-9.82v-9.82h-9.82v29.46h9.82v9.82h9.82v9.82h9.82v9.821h9.82v-29.461h-9.82v-9.82zm-78.561 78.561h9.82v9.82h-9.82v-9.82zm196.402 0h9.82v9.82h-9.82v-9.82zm-147.302-19.64h9.82v-9.82h-9.82v-9.82h-19.64v9.82h9.82v9.82h9.82zm0 9.82h9.82v9.82h-9.82v-9.82zM79.114 166.942h9.82v9.82h-9.82v-9.82zm-9.82 29.46h9.82v9.82h-9.82v-9.82zM88.934 176.762h9.82v9.82h-9.82v-9.82zm78.561-19.64v9.82h-9.82v9.82h19.64v-9.82h9.82v-9.82h-19.64zm-9.82 29.46h9.82v9.82h-9.82v-9.82zm-19.64-19.64h9.82v9.82h-9.82v-9.82zM147.855 196.402h9.82v9.82h-9.82v-9.82zm-19.64-19.64h9.82v9.82h-9.82v-9.82zM118.395 186.582h9.82v9.82h-9.82v-9.82zM108.575 196.402h9.82v9.82h-9.82v-9.82z" fill="#D86F13"/><path d="M167.495 88.38v29.461h9.82v-49.1h-9.82v19.64zM138.035 78.56h9.821v-9.82h19.64V39.28h-19.64v-9.82h-19.641v-9.82h-19.64v49.1h9.82v9.82h19.64zm-9.82 19.64h9.82v9.821h-9.82v-9.82zM118.395 88.38h9.82v9.821h-9.82v-9.82zM108.575 78.56h9.82v9.82h-9.82v-9.82zm-19.64 39.281v9.82h9.82v-29.46h-9.82v-9.82h-9.82v9.82h-9.82v9.82h9.82v9.82h9.82zM79.115 88.38v-9.82h-9.82v-9.82h-9.82v29.461h9.82v-9.82h9.82zM49.654 108.021v9.82h9.82v-19.64h-9.82v9.82zm-29.46 78.561h9.82v9.82h-9.82v-9.82zM30.014 196.402h9.82v9.82h-9.82v-9.82zm166.941-9.82h9.82v9.82h-9.82v-9.82zM187.135 196.402l9.82 9.82h-9.82v-9.82zm-137.481-39.28v-9.82h-9.82v-9.821h-9.82v29.461h9.82v-9.82h9.82z" fill="#E1924C"/><path d="M39.834 166.941h9.82v9.821h-9.82v-9.821zM49.654 176.762h9.82v9.82h-9.82v-9.82zm9.82-29.461h9.82v9.82h-9.82v-9.82zM69.294 157.122h9.82v9.82h-9.82v-9.82zm19.64 9.82h9.82v9.82h-9.82v-9.82zM98.754 176.762h9.82v9.82h-9.82v-9.82zm78.561-9.821h9.82v9.821h-9.82v-9.821zM167.496 176.762h9.82v9.82h-9.82v-9.82zm-9.82-29.461h9.82v9.82h-9.82v-9.82zM147.855 157.122h9.82v9.82h-9.82v-9.82zm-19.64 9.82h9.82v9.82h-9.82v-9.82zM98.754 196.402h9.82v9.82h-9.82v-9.82zm19.641-19.64h9.82v9.82h-9.82v-9.82zM108.575 186.582h9.82v9.82h-9.82v-9.82zm88.381-29.46v-19.641h-9.82v9.821h-9.82v9.82h9.82v9.82h9.82v-9.82z" fill="#E1924C"/></svg>