<svg width="371" height="371" fill="none" xmlns="http://www.w3.org/2000/svg"><path d="M369.393 164.442a184.52 184.52 0 0 0-12.51-48.983c-7.326-17.912-17.382-34.39-29.637-48.983-17.402-20.68-39.242-37.493-64.067-48.982-23.568-10.9-49.846-16.99-77.52-16.99-27.673 0-53.951 6.09-77.519 16.99-24.826 11.47-46.666 28.301-64.067 48.982a184.852 184.852 0 0 0-29.637 48.983 183.053 183.053 0 0 0-12.51 48.983 185.185 185.185 0 0 0-1.179 20.995c0 9.506.727 18.855 2.102 27.987a183.153 183.153 0 0 0 14.631 48.983 185.207 185.207 0 0 0 32.78 48.982c20.465 21.998 46.253 39.006 75.281 48.983 18.854 6.481 39.064 9.997 60.099 9.997 21.034 0 41.264-3.516 60.099-9.997 29.048-9.977 54.816-26.985 75.281-48.983a185.2 185.2 0 0 0 32.779-48.982 183.849 183.849 0 0 0 14.632-48.983 185.279 185.279 0 0 0 2.102-27.987c.039-7.09-.354-14.102-1.14-20.995z" fill="#FA34F3"/><path d="M185.659.524c-27.693 0-53.952 6.089-77.52 16.99h155.039C239.61 6.612 213.351.523 185.659.523z" fill="#FA34F3"/><path d="M263.178 17.513H108.139c-24.826 11.47-46.665 28.302-64.067 48.983h283.153c-17.382-20.681-39.222-37.513-64.047-48.983z" fill="#CF15F9"/><path d="M356.882 115.459H14.455a183.054 183.054 0 0 0-12.51 48.983h367.467a183.825 183.825 0 0 0-12.53-48.983z" fill="#8F17F9"/><path d="M327.245 66.496H44.092a184.85 184.85 0 0 0-29.637 48.983h342.427a184.868 184.868 0 0 0-29.637-48.983z" fill="#AC15F9"/><path d="M321.058 311.37H50.278c20.466 21.997 46.253 39.006 75.281 48.983h120.218c29.028-9.977 54.816-26.966 75.281-48.983z" fill="#37F4F1"/><path d="M370.571 185.437c0-7.09-.392-14.102-1.178-20.996H1.925a185.218 185.218 0 0 0-1.178 20.996c0 9.506.726 18.854 2.101 27.987H368.47a185.419 185.419 0 0 0 2.101-27.987z" fill="#7E18F8"/><path d="M368.47 213.424H2.848a183.143 183.143 0 0 0 14.632 48.983h336.358a183.144 183.144 0 0 0 14.632-48.983z" fill="#6D18F8"/><path d="M353.838 262.407H17.48a185.207 185.207 0 0 0 32.78 48.982h270.779a185.44 185.44 0 0 0 32.799-48.982z" fill="#04B7BD"/><path d="M245.778 360.353H125.56c18.855 6.481 39.065 9.996 60.099 9.996 21.055 0 41.264-3.515 60.119-9.996z" fill="#A6EEFE"/><path d="M269.13 214.996v-9.82h9.82v-9.821h9.82v-49.1h-29.46v-68.74h-9.82v-9.82h-9.82v-9.82h-19.641v-9.821h-19.64v-9.82h-29.46v9.82h-19.64v9.82h-19.64v9.82h-9.82v9.82h-9.821v68.741h-29.46v49.1h9.82v9.821h9.82v9.82h-29.46v29.46h9.82v9.82h9.82v29.264h9.82v9.82h9.82v29.46h9.821v9.82H249.49v-9.82h9.82v-29.46h9.82v-9.82h9.82v-29.264h9.82v-9.82h9.82v-29.46h-29.46z" fill="#000"/><path d="M121.829 293.36v29.46H249.49v-29.46H121.829z" fill="#FA34F3"/><path d="M102.188 254.08v29.46H269.13v-29.46H102.188z" fill="#CF15F9"/><path d="M131.649 165.895h9.82v9.82h9.82v9.82h9.821v9.82h9.82v9.82h9.82v9.82h9.82v-9.82h9.82v-9.82h9.82v-9.82h9.82v-9.82h9.82v-9.82h9.82v-9.82h9.82V77.514h-9.82v-9.82h-19.64v-9.82h-19.64v-9.82h-29.46v9.82h-19.641v9.82h-19.64v9.82h-9.82v78.561h9.82v9.82zm-9.82 58.92h-39.28v19.641h49.1v-9.82h-9.82v-9.821z" fill="#8F17F9"/><path d="M278.95 224.815h-29.46v9.82h-9.82v9.821h49.1v-19.641h-9.82zm-98.201 0v-9.82h-9.82v-9.82h-9.82v-9.82h-9.82v-9.82h-9.82v-9.82h-9.82v-9.82h-9.82v-9.82h-29.46v39.28h9.819v9.82h9.821v9.82h9.82v9.82h9.82v9.82h9.82v9.821h19.64v-9.821h9.82v-9.82h9.82z" fill="#8F17F9"/><path d="M249.49 224.815v-9.82h9.82v-9.82h9.82v-9.82h9.82v-39.28h-29.46v9.82h-9.82v9.82h-9.82v9.82h-9.82v9.82h-9.82v9.82h-9.821v9.82h-9.82v9.82h-9.82v9.82h-9.82v9.821h58.921v-9.821h9.82v-9.82h9.82z" fill="#8F17F9"/><path d="M170.929 48.054h9.82v9.82h-9.82v-9.82zm-39.281 19.64v9.82h19.64v-9.82h-19.64zM151.289 57.873v9.82h19.64v-9.82h-19.64zm-29.461 19.64h9.82v9.82h-9.82v-9.82zm-39.28 147.302h9.82v9.82h-9.82v-9.82zm196.402 0h9.82v9.82h-9.82v-9.82zm-157.122-58.92v-9.821h-29.46v9.821h9.82v9.82h9.82v-9.82h9.82zM112.008 175.715h9.82v9.82h-9.82v-9.82zM121.829 165.895h9.82v9.82h-9.82v-9.82zm0 19.64h9.82v9.82h-9.82v-9.82z" fill="#fff"/><path d="M131.648 195.355h9.82v9.82h-9.82v-9.82zm147.302-39.28h-29.461v9.82h9.82v9.82h9.821v-9.82h9.82v-9.82zM249.49 175.715h9.82v9.82h-9.82v-9.82z" fill="#fff"/><path d="M239.669 165.895h9.82v9.82h-9.82v-9.82zm0 19.64h9.82v9.82h-9.82v-9.82zM229.849 195.355h9.82v9.82h-9.82v-9.82z" fill="#fff"/><path d="M200.39 195.355h9.82v-9.82h9.82v-9.82h9.82v-19.64h-9.82v-9.82h-9.82v-9.82h-29.461v78.56h9.821v-9.82h9.82v-9.82zm-88.381 29.46h9.82v9.821h-9.82v-9.821zM121.829 234.636h9.82v9.82h-9.82v-9.82zm127.661-9.821h9.82v9.821h-9.82v-9.821zM239.67 234.635h9.82v9.82h-9.82v-9.82zm-88.381-19.64h-19.64v9.82h9.82v9.82h9.82v9.82h9.82v-19.64h-9.82v-9.82zm88.381 0h-19.64v9.82h-9.82v9.82h-9.82v9.82h19.64v-9.82h9.82v-9.82h9.82v-9.82z" fill="#FA34F3"/><path d="M200.389 136.435h9.82v9.82h9.82v9.82h9.82v9.82h9.82v-9.82h9.82v-29.46h-9.82v-9.82h-9.82v-9.82h-9.82v-9.82h-19.64v-9.82h-19.64v49.1h19.64zM180.749 205.176v-68.741h-19.64v9.82h-9.82v9.82h-9.821v19.64h9.821v9.821h9.82v9.82h9.82v9.82h9.82zm-98.201 29.46h9.82v9.82h-9.82v-9.82zm196.402 0h9.82v9.82h-9.82v-9.82zm-147.302-19.64h9.82v-9.82h-9.82v-9.82h-19.64v9.82h9.82v9.82h9.82zm0 9.82h9.82v9.82h-9.82v-9.82zm19.641-19.64h9.82v9.82h-9.82v-9.82zM141.468 234.636h9.82v9.82h-9.82v-9.82zm19.64-19.64h9.82v9.82h-9.82v-9.82zm78.561-19.641v9.821h-9.82v9.82h19.64v-9.82h9.82v-9.821h-19.64zm-9.82 29.461h9.82v9.82h-9.82v-9.82zM210.209 205.176h9.82v9.82h-9.82v-9.82zm9.82 29.46h9.82v9.82h-9.82v-9.82zM200.389 214.996h9.82v9.82h-9.82v-9.82zM190.569 224.816h9.82v9.82h-9.82v-9.82zM180.749 234.636h9.82v9.82h-9.82v-9.82z" fill="#CF15F9"/><path d="M220.03 106.975h9.82v9.82h9.82v9.82h9.82v-39.28h-9.82v-9.82h-19.64v-9.82h-19.64v-9.821h-19.64v29.46h19.64v9.82h19.64v9.821zM170.929 97.155h-19.64v9.82h-9.82v9.82h-9.82v9.82h-9.821v29.46h9.821v9.82h9.82v-9.82h9.82v-9.82h9.82v-9.82h19.64v-49.1h-9.82v9.82zm-78.56 127.661h9.819v9.82h-9.82v-9.82zM102.188 234.636h9.82v9.82h-9.82v-9.82zm166.942-9.821h9.82v9.821h-9.82v-9.821zM259.31 234.636h9.82v9.82h-9.82v-9.82zm-137.482-39.28v-9.821h-9.82v-9.82h-9.82v29.461h9.82v-9.82h9.82zM112.009 205.175h9.82v9.82h-9.82v-9.82zM121.828 214.995h9.82v9.821h-9.82v-9.821zm9.82-29.46h9.821v9.82h-9.821v-9.82zM141.469 195.355h9.82v9.821h-9.82v-9.821zm19.64 9.821h9.82v9.82h-9.82v-9.82zM170.929 214.995h9.82v9.82h-9.82v-9.82zm78.56-9.82h9.821v9.82h-9.821v-9.82zM239.67 214.995h9.82v9.821h-9.82v-9.821zm-9.82-29.46h9.82v9.82h-9.82v-9.82zM220.029 195.355h9.82v9.821h-9.82v-9.821zm-19.64 9.821h9.82v9.82h-9.82v-9.82zM170.929 234.636h9.82v9.82h-9.82v-9.82zm19.64-19.64h9.82v9.82h-9.82v-9.82z" fill="#AC15F9"/><path d="M180.75 224.816h9.82v9.82h-9.82v-9.82zm88.38-29.46v-19.641h-9.82v9.82h-9.82v9.821h9.82v9.82h9.82v-9.82z" fill="#AC15F9"/><path d="M149.658 302.001h-7.777v13.454h2.082v-5.676h5.499v5.676h2.082v-5.872h-1.886v-1.709h1.886v-3.987h-1.886v-1.886zm-.196 5.676h-5.499v-3.594h5.499v3.594zM162.326 302.001h-5.892v1.886h-1.885v11.568h2.082v-5.676h5.499v5.676h2.082v-11.568h-1.886v-1.886zm-5.695 2.082h5.499v3.594h-5.499v-3.594zM174.994 302.001h-5.892v1.886h-1.885v11.568h2.082v-5.676h5.499v5.676h2.082v-11.568h-1.886v-1.886zm-5.695 2.082h5.499v3.594h-5.499v-3.594zM187.486 309.583h-1.729v-1.905h-1.885v-1.886h-1.905v-3.791h-2.082v13.454h2.082v-7.581h1.709v1.905h1.885v1.885h1.925v3.791h2.062v-13.454h-2.062v7.582zM200.154 303.887h-1.905v1.905h-1.886v1.885h-1.709v-5.676h-2.081v13.454h2.081v-5.676h1.709v1.885h1.886v1.906h1.905v1.885h2.081v-2.082h-1.885v-1.905h-1.905v-1.885h-1.886v-1.709h1.886v-1.886h1.905v-1.905h1.885v-2.082h-2.081v1.886zM205.24 315.455h9.663v-2.082h-7.581v-3.594h7.581v-2.102h-7.581v-3.594h7.581v-2.082h-9.663v13.454zM225.686 303.887v-1.886h-7.778v13.454h7.778v-1.885h1.885v-9.683h-1.885zm-.196 9.486h-5.5v-9.29h5.5v9.29z" fill="#000"/><path d="M130.078 262.525h-7.365v12.727h1.984v-5.362h5.381v-1.807h1.787v-3.771h-1.787v-1.787zm-.196 5.362h-5.185v-3.378h5.185v3.378zm5.538-5.362h-1.964v12.727h9.133v-1.984h-7.169v-10.743zm16.105 0h-5.578v1.787h-1.787v10.94h1.984v-5.362h5.185v5.362h1.983v-10.94h-1.787v-1.787zm-5.381 1.984h5.185v3.378h-5.185v-3.378zm16.105-1.984h-5.578v1.787h-1.788v10.94h1.984v-5.362h5.185v5.362h1.984v-10.94h-1.787v-1.787zm-5.401 1.984h5.185v3.378h-5.185v-3.378zm15.908 3.378h-1.807v1.807h-1.571v-1.807h-1.807v-5.362h-1.964v5.558h1.768v1.807h1.807v5.362h1.964v-5.362h1.806v-1.807h1.788v-5.558h-1.984v5.362zm3.555 7.365h9.133v-1.984h-7.149v-3.378h7.149v-2.003h-7.149v-3.378h7.149v-1.984h-9.133v12.727zm18.089-12.727h-7.365v12.727h1.983v-5.362h5.185v5.362h1.984v-5.558H194.4v-1.611h1.787v-3.771H194.4v-1.787zm-.197 5.362h-5.185v-3.378h5.185v3.378zm12.491-3.575h-1.787v3.771h1.787v1.807h5.382v3.378h-7.169v1.984h7.365v-1.788h1.768v-3.77h-1.768v-1.807h-5.381v-3.378h7.149v-1.984h-7.346v1.787zm8.937.197h7.168v1.61h-1.807v1.768h-1.787v1.807h-1.787v1.787h-1.787v3.771h9.132v-1.984h-7.149v-1.591h1.788v-1.787h1.787v-1.807h1.807v-1.768h1.767v-3.79h-9.132v1.984zm17.872 5.185h-1.591v-1.807h-1.787v-1.768h-1.807v-3.594h-1.964v12.727h1.964v-7.169h1.611v1.807h1.787v1.787h1.787v3.575h1.984v-12.727h-1.984v7.169zm10.724-7.169v1.984h1.787v10.743h1.984v-12.727h-3.771z" fill="#fff"/></svg>