<svg xmlns="http://www.w3.org/2000/svg" viewBox="0 0 44 22"><path d="M36,2v1h-1v1h-1v1h-1v1h-1v1h-1v1h-2v1H15V8h-2V7h-1V6h-1V5h-1V4H9V3H8V2H5v20h34V2H36z"/><g fill="#0f0"><path d="M7 2h1v1H7V2zm2 2h1v1H9V4z"/><path d="M8 3h1v1H8V3zm2 2h1v1h-1V5z"/><path d="M11 6h1v1h-1V6zm3 3h1V8h-2v1h1zm22-7h1v1h-1V2z"/><path d="M35,3h1v1h-1V3z"/><path d="M34 4h1v1h-1V4zm-2 2h1v1h-1V6z"/><path d="M33 5h1v1h-1V5zm-17 5h1V9h-2v1h1zm11-1v1h2V9h-2z"/><path d="M29 8v1h2V8h-2zm-15 6v2h1v-3h-1v1z"/><path d="M12 7h1v1h-1V7zm6 5h-3v1h5v-1h-2zm13-5h1v1h-1V7zm-3 5h-4v1h5v-1h-1zm-6 2h1v1h-1v-1z"/><path d="M21,13h1v1h-1V13z"/><path d="M22,12h1v1h-1V12z"/><path d="M21 11h1v1h-1v-1zm2-2h1v1h-1V9z"/><path d="M22,10h1v1h-1V10z"/><path d="M21 9h-1v1h2V9h-1zm-3 0h1v1h-1V9zm7 0h1v1h-1V9zm5 5v-1h-1v3h1v-2z"/><path d="M21 15h1v1h-1v-1zm9 1h1v1h-1v-1z"/><path d="M13 16h1v1h-1v-1zm9 0h1v1h-1v-1z"/><path d="M33 17h-2v1h4v-1h-2zm-22 0H9v1h4v-1h-2zm10 0h1v1h-1v-1z"/><path d="M22,18h1v1h-1V18z"/><path d="M21 19h1v1h-1v-1zm7 2v1h1v-2h-1v1zm-2 0v1h1v-2h-1v1zm-9 0v1h1v-2h-1v1zm-2 0v1h1v-2h-1v1zm23-1v2h1v-2h-1zm-2 1v1h1v-2h-1v1zm-24-1H9v2h5v-2h-2zm21 0h-3v2h5v-2h-2zm-12 1h1v1h-1v-1zm-2 0v1h1v-2h-1v1zm5 0v1h1v-2h-1v1z"/><path d="M22 20h1v1h-1v-1zM7 21v1h1v-2H7v1zm-2 0v1h1v-2H5v1z"/></g><path d="M40,2v1h1v1h1v1h2v7h-2v-1h-2v-1h-1.5V2H40z"/><g fill="#0f0"><path d="M42 6h1v1h-1V6zm0 2h1v1h-1V8z"/><path d="M43 7h1v1h-1V7zm0 2h1v1h-1V9zm0 2h1v1h-1v-1z"/><path d="M42 10h1v1h-1v-1zm1-5h1v1h-1V5z"/></g><path d="M4,2v1H3v1H2v1H0v7h2v-1h2v-1h1.5V2H4z"/><g fill="#0f0"><path d="M1 6h1v1H1V6zm0 2h1v1H1V8z"/><path d="M0 7h1v1H0V7zm0 2h1v1H0V9zm0 2h1v1H0v-1z"/><path d="M1 10h1v1H1v-1zM0 5h1v1H0V5z"/></g></svg>