<svg xmlns="http://www.w3.org/2000/svg" viewBox="0 0 50 24"><path d="M38 3v2h-2v2h-6v2H20V7h-6V5h-2V3H7.5v7H8v14h4v-2h5v2h5v-2h6v2h5v-2h5v2h4V10h.5V3H38z" fill="#0fa9c9"/><g fill="#0f5a87"><path d="M42.5 6H40v16h-2v2h4V10h.5V6zM12 20h5v2h-5v-2z"/><path d="M33 20h5v2h-5v-2zm-16 2h5v2h-5v-2z"/><path d="M22,20h6v2h-6V20z"/><path d="M28 22h5v2h-5v-2zM8 24h4v-2h-2V6H7.5v4H8v14z"/></g><g fill="#fff"><path d="M27 14v-2h1v-1h-1v-1h-1v1h-2v-1h-1v1h-1v1h1v2H10v2h30v-2H27zm-1 0h-2v-2h2v2z"/><path d="M24,9h2v1h-2V9z"/></g><path d="M24 14v2h2v-2h-2zm-4 0v2h2v-2h-2zm-8 0v2h2v-2h-2zm20 0v2h2v-2h-2zm4 0v2h2v-2h-2zm-8 4v4h5v-4h-5zm-11 0v4h5v-4h-5zm1-2v-2h-2v2h2zm12 0v-2h-2v2h2z" fill="#a73796"/><path d="M50 11V7h-1V6h-2V5h-2V4h-1V3h-1V2h-.5v1H41v3h1v3h.5v1h.5v1h2v1h4v-1h1z" fill="#0fa9c9"/><path d="M50 11V7h-1V6h-2V5h-2v7h4v-1h1z" fill="#a73796"/><g fill="#0f5a87"><path d="M43,3h1v1h-1V3z"/><path d="M42 2h1v1h-1V2zm2 2h1v1h-1V4z"/><path d="M45,5h2v1h-2V5z"/><path d="M47 6h2v1h-2V6zm-2 5h4v1h-4v-1z"/><path d="M49 7h1v4h-1V7zm-6 3h2v1h-2v-1z"/><path d="M42 10h1V9h-1v1z"/></g><path d="M1 11v1h4v-1h2v-1h.5V9H8V6h1V3H7.5V2H7v1H6v1H5v1H3v1H1v1H0v4h1z" fill="#0fa9c9"/><path d="M1,11v1h4V5H3v1H1v1H0v4H1z" fill="#a73796"/><g fill="#0f5a87"><path d="M7,4H6V3h1V4z"/><path d="M8 3H7V2h1v1zM6 5H5V4h1v1z"/><path d="M5,6H3V5h2V6z"/><path d="M3 7H1V6h2v1zm2 5H1v-1h4v1z"/><path d="M1 11H0V7h1v4zm6 0H5v-1h2v1z"/><path d="M8,9H7v1h1V9z"/></g></svg>