<svg xmlns="http://www.w3.org/2000/svg" viewBox="0 0 40 21"><path d="M3,1v20h34V1h-3v1h-1v1h-1v1h-1v1h-1v1h-1v1h-2v1h-3v1h-8V8h-3V7h-2V6h-1V5H9V4H8V3H7V2H6V1H3z" fill="#bc20d2"/><path d="M34,2v1h-1v1h-1v1h-1v1h-1v1h-1v1h-2v1h-3v1h-8V9h-3V8h-2V7h-1V6H9V5H8V4H7V3H6V2H4v18h32V2H34z" fill="#4c0067"/><path d="M9.6 17.2H7.9V12H7v6.1h3.5V12h-.9v5.2zm1.8-5.2v6.1h.9v-1.7h2.6V12h-3.5zm2.6 3.4h-1.8v-2.6H14v2.6zm7.3-3.4v6.1h.9v-5.2h1.7v5.2h.9V12c0 0-3.5 0-3.5 0zM17 12v6.1h3.5V12H17zm2.6 5.2h-1.7v-4.3h1.7v4.3zM32.1 12v3.5h-1.7V12h-.9v4.3h1.3V18h.9v-1.7H33V12h-.9zm-5.6 5.2V12h-.9v6.1h3.5v-.9h-2.6z" fill="#fff"/><path d="M36.5,9H38v1h2V3h-1V2h-1V1h-1.5V9z" fill="#bc20d2"/><path d="M38,3V2h-1v6h1v1h1V3H38z" fill="#4c0067"/><path d="M3.5,1H2v1H1v1H0v7h2V9h1.5V1z" fill="#bc20d2"/><path d="M1,3v6h1V8h1V2H2v1H1z" fill="#4c0067"/></svg>