<svg xmlns="http://www.w3.org/2000/svg" viewBox="0 0 40 21"><path d="M3,1v20h34V1h-3v1h-1v1h-1v1h-1v1h-1v1h-1v1h-2v1h-3v1h-8V8h-3V7h-2V6h-1V5H9V4H8V3H7V2H6V1H3z" fill="#58595b"/><path d="M34,2v1h-1v1h-1v1h-1v1h-1v1h-1v1h-2v1h-3v1h-8V9h-3V8h-2V7h-1V6H9V5H8V4H7V3H6V2H4v18h32V2H34z"/><path d="M23 13v-1h-1v-1h-4v1h-1v1h-1v4h1v1h1v1h4v-1h1v-1h1v-4h-1zm-2 2h-1v-1h1v1z" fill="#8bc53f"/><path d="M22,13v-1h-4v1h-1v3h1v-2h1v-1h2v1h1v2h-1v2h1v-1h1v-4H22z" fill="#f9e988"/><g fill="#fff"><path d="M22,13h1v1h-1V13z"/><path d="M21 12h1v1h-1v-1zm-2 2h1v1h-1v-1z"/></g><path d="M36.5,9H38v1h2V3h-1V2h-1V1h-1.5V9z" fill="#58595b"/><path d="M38,3V2h-1v6h1v1h1V3H38z"/><path d="M3.5,1H2v1H1v1H0v7h2V9h1.5V1z" fill="#58595b"/><path d="M1,3v6h1V8h1V2H2v1H1z"/></svg>