<svg xmlns="http://www.w3.org/2000/svg" viewBox="0 0 88 44"><path d="M84 6V4h-2V2h-2V0h-6v2h-4v2h-4v2h-4v2h-4v2h-4v2h-6v2h-8v-2h-6v-2h-4V8h-4V6h-4V4h-4V2h-4V0H8v2H6v2H4v2H0v20h4v-2h4v-2h2v22h8v-4h10v4h10v-4h12v4h10v-4h10v4h8V22h2v2h4v2h4V6h-4z" fill="#321227"/><path d="M48 26v2h-8v-2H10v18h8v-4h10v4h10v-4h12v4h10v-4h10v4h8V26H48z" fill="#376560"/><path d="M8 20h2V2H8v18zM78 2v18h2V2h-2zM42 22h4v-2h-4v2zm0 4h4v-2h-4v2zm0-8h4v-2h-4v2z" fill="#b49698"/><path d="M48 36h2v4h10v-4h10v4h6v-4h-2v-2h2v-2h-2v-2h2v-2H48v8zm-6 0h4v-8h-4v8zm-30-6h2v2h-2v2h2v2h-2v4h6v-4h10v4h10v-4h2v-8H12v2zm-8-8h2V6H4v16zM82 6v16h2V6h-2z" fill="#6ca958"/><path d="M74 2v2h-4v2h-4v2h-4v2h-4v2h-4v2h-6v10h28V2h-2zM50 16h2v2h-2v-2zm0 6v-2h2v2h-2zm-14-8h-2v-2h-4v-2h-4V8h-4V6h-4V4h-4V2h-2v22h28V14h-4zm2 8h-2v-2h2v2zm0-4h-2v-2h2v2z" fill="#482b3e"/></svg>