<svg xmlns="http://www.w3.org/2000/svg" viewBox="0 0 30 30"><path d="M6 10V6h4V0h4v2h2v2h2v2h2v2h2v4h-6v2h2v2h2v2h2v2h2v2h2v2h2v2h2v4h-4v-2h-2v-2h-2v-2h-2v-2h-2v-2h-2v-2h-2v-2h-2v6H8v-2H6v-2H4v-2H2v-2H0v-4h6z" fill="#240f0a"/><g fill="#3b2924"><path d="M8 8h2v2H8z"/><path d="M10 10h2v2h-2z"/><path d="M12 12h2v2h-2z"/><path d="M14 14h2v2h-2z"/><path d="M16 16h2v2h-2z"/><path d="M18 18h2v2h-2z"/><path d="M20 20h2v2h-2z"/><path d="M22 22h2v2h-2z"/><path d="M24 24h2v2h-2z"/><path d="M26 26h2v2h-2z"/></g><path d="M12 8h-2V6h2V2h2v2h2v2h2v2h2v2h-4v2h-2v-2h-2V8zm-8 4h2v-2h2v2h2v2h2v2h-2v4H8v-2H6v-2H4v-2H2v-2h2z" fill="#828282"/><g fill="#f6f6f6"><path d="M14 4h2v2h-2z"/><path d="M12 2h2v2h-2zm4 4h2v2h-2z"/><path d="M18 8h2v2h-2zM4 14h2v2H4z"/><path d="M2 12h2v2H2zm4 4h2v2H6z"/><path d="M8 18h2v2H8z"/></g></svg>