<svg xmlns="http://www.w3.org/2000/svg" viewBox="0 0 76 44"><path d="M72 22H46v-4h-2v4h-2v-2h-8v2h-2v-4h-2v4H4v20h2v-4h2v-2h2v-2h2v-2h14v2h2v2h2v2h2v2h2v2h2v2h4v-2h2v-2h2v-2h2v-2h2v-2h2v-2h14v2h2v2h2v2h2v4h2V22z" fill="#7c4b3c"/><path d="M70 22H46v-4h-2v4h-2v-2h-8v2h-2v-4h-2v4H4v6h30v4h2v-2h4v2h2v-4h30v-6h-2z" fill="#d2d2d2"/><path d="M72 24v-2H46v2h2v2h-2v-2h-2v4h28v-2h-2v-2h2zm-22 2v-2h2v2h-2zm4 0v-2h2v2h-2zm4 0v-2h2v2h-2zm4 0v-2h2v2h-2zm6 0h-2v-2h2v2zm-34-2h2v2h-2zm6 0h2v2h-2zm-10 2h-2v-2h2v-2H4v2h2v2H4v2h28v-4h-2v2zM8 26v-2h2v2H8zm4 0v-2h2v2h-2zm4 0v-2h2v2h-2zm4 0v-2h2v2h-2zm4 0v-2h2v2h-2z" fill="#3b2924"/><path d="M74 20v-2h-2v12h2v2h2V20h-2zm-2-10V4h2V0h-6v2h-2v2h-2v2h-2v2h-2v2h-2v2h-2v4h2v-2h2v2h2v-2h2v2h2v-2h2v2h2v-4h2v-2zM2 20H0v12h2v-2h2V18H2v2zm16-10h-2V8h-2V6h-2V4h-2V2H8V0H2v4h2v8h2v4h2v-2h2v2h2v-2h2v2h2v-2h2v2h2v-4h-2v-2z" fill="#a16151"/><g fill="#7c4b3c"><path d="M68 6h2v2h-2z"/><path d="M66 8h2v2h-2zM6 6h2v2H6z"/><path d="M8 8h2v2H8z"/></g></svg>