<svg xmlns="http://www.w3.org/2000/svg" viewBox="0 0 88 44"><path d="M86 6h-2V4h-2V2h-2V0h-8v2h-2v2h-2v2h-2v2h-2v2h-4v2h-4v2H32v-2h-4v-2h-4V8h-2V6h-2V4h-2V2h-2V0H8v2H6v2H4v2H0v20h4v-2h4v-2h2v22h68V22h2v2h4v2h4V6h-2z"/><path d="M72 26H12v6h64v-6h-4zM4 8v14h2V6H4v2zm78-2v16h2V6h-2z" fill="#fff"/><g fill="red"><path d="M46 20v-2h2v-2H32v-2h-4v-2h-4v-2h-2V8h-2V6h-2V4h-2V2h-4v22h30v-2h2v-2h2z"/><path d="M72 2v2h-2v2h-2v2h-2v2h-2v2h-4v2h-4v2h-6v2h-2v2h-2v2h-2v2h32V2h-4zm0 32H32v2h-2v2h-2v2h48v-6h-4zM8 4v16h2V2H8v2zm70-2v18h2V2h-2z"/><path d="M30 36v-2H12v6h14v-2h2v-2h2z"/></g></svg>