<svg xmlns="http://www.w3.org/2000/svg" viewBox="0 0 36 24"><path d="M34 8V6h-2V4h-4V2h-4V0H12v2H8v2H4v2H2v2H0v2h2v2h2v2h2v2h2v2h2v2h2v2h2v2h8v-2h2v-2h2v-2h2v-2h2v-2h2v-2h2v-2h2V8h-2z"/><g fill="red"><path d="M20 20h2v2h-2zm-6 0h2v2h-2z"/><path d="M18 18h-2v2h4v-2h-2z"/></g><path d="M22 16v-2h-8v2h-2v2h4v-2h4v2h4v-2h-2z" fill="#ff0"/><g fill="#fff"><path d="M12 4h2v2h-2z"/><path d="M14 6h2v2h-2zm-4 0h2v2h-2zM6 6h2v2H6z"/><path d="M8 8h2v2H8zm4 0h2v2h-2z"/><path d="M10 10h2v2h-2zm8-2h-2v2h4V8h-2z"/><path d="M20 6h2v2h-2z"/><path d="M22 4h2v2h-2zm4 0h2v2h-2z"/><path d="M28 6h2v2h-2z"/><path d="M32 8h-2v2h-2v2h-2v2h-2v2h4v-2h2v-2h2v-2h2V8h-2z"/><path d="M26 8h2v2h-2z"/><path d="M24 10h2v2h-2z"/><path d="M22 12h2v2h-2zm2-6h2v2h-2z"/><path d="M22 8h2v2h-2z"/><path d="M20 10h2v2h-2zm-6 0h2v2h-2z"/><path d="M12 12h2v2h-2z"/><path d="M10 12H8v-2H6V8H2v2h2v2h2v2h2v2h4v-2h-2v-2zM8 4h2v2H8zm8 2h4V4h2V2h-8v2h2v2z"/></g></svg>