<svg xmlns="http://www.w3.org/2000/svg" viewBox="0 0 30 28"><g fill="#9600bd"><path d="M26 2v2h-2v2h-6V4h-2v4h-2V4h-2v2H6V4H4V2H0v10h2v2h2v2h2v2H4v2H2v6h2v2h6v-2h2v-2h2v-2h2v2h2v2h2v2h6v-2h2v-6h-2v-2h-2v-2h2v-2h2v-2h2V2h-4z"/><path d="M10 2h2v2h-2z"/><path d="M8 0h2v2H8zm10 2h2v2h-2z"/><path d="M20 0h2v2h-2z"/></g><g fill="#f0f"><path d="M14 10h2v2h-2z"/><path d="M26 4v2h-2v4h-2v2h-6v10h2v2h2v2h6v-6h-2v-2h-6v-2h6v-2h2v-2h2V4h-2zm-16 8H8v-2H6V6H4V4H2v8h2v2h2v2h6v2H6v2H4v6h6v-2h2v-2h2V12h-4z"/><path d="M12 10h2V6H8v4h4zm8 0h2V6h-6v4h4z"/></g><g fill="#ff8bff"><path d="M12 14H8v-2H6v-2H4V6H2v6h2v2h2v2h6v2h2v-6h-2v2zm14-8v4h-2v2h-2v2h-4v-2h-2v6h2v-2h6v-2h2v-2h2V6h-2z"/><path d="M18 22h2v2h6v-2h-2v-2h-2v-2h-4v4zM8 18v2H6v2H4v2h6v-2h2v-4H8z"/></g><path d="M10 6H8v4h6V6h-4zm10 0h-4v4h6V6h-2z" fill="#fff"/><path d="M8 6v2h2v2h2V8h2V6H8zm12 0h-4v2h2v2h2V8h2V6h-2z"/></svg>