<svg xmlns="http://www.w3.org/2000/svg" viewBox="0 0 76 60"><path d="M74 44h-2V28h-4v-4h-4v-4h-8v-4h-8v-4h4V4h4V0H44v4h-4v4h-4v4h-8v4h-8v4h-8v4H8v4H4v16H0v12h4v4h68v-4h4V44h-2z" fill="#333"/><path d="M70 44h-6v-4h-8v-4h-8v-4h-8v-4h-4v4h-8v4h-8v4h-8v4H4v4h4v4H4v4h68v-4h-4v-4h4v-4h-2zM18 54h-2V44h4v10h-2zm12 0h-2V40h4v14h-2zm16 0h-2V40h4v14h-2zm12 0h-2V44h4v10h-2z" fill="#bfbfbf"/><path d="M66 28h-2v-4h-8v-4h-8v-4H28v4h-8v4h-8v4H8v12h4v-4h8v-4h8v-4h8v-4h4v4h8v4h8v4h8v4h4V28h-2z" fill="gray"/><path d="M54 0H44v4h-4v4h-4v8h12v-4h4V4h4V0h-2z" fill="#9600bd"/><path d="M46 4h-2v4h-4v4h8V4h-2z" fill="#f0f"/></svg>