<svg xmlns="http://www.w3.org/2000/svg" viewBox="0 0 14 70"><path d="M14 54v-6h-2V4h-2V2H8V0H6v2H4v2H2v44H0v6h4v10H2v2h2v2h2v2h2v-2h2v-2h2v-2h-2V54z" fill="#333"/><g fill="gray"><path d="M10 48v2H8v2H6v-2H4v-2H2v4h2v2h2v10H4v2h2v2h2v-2h2v-2H8V54h2v-2h2v-4h-2z"/><path d="M6 48h2v2H6z"/><path d="M6 46h2v2h2V4H8V2H6v2H4v44h2v-2z"/></g><path d="M8,50v2H6v-2H4v4h6v-4H8z" fill="#a0a5a9"/><path d="M6,48h2v2H6V48z" fill="#f0f"/><path d="M8,4V2H6v42h4V4H8z" fill="#e6e6e6"/><path d="M6,44V4H4v44h2v-2h2v2h2v-4H6z" fill="#bfbfbf"/><path d="M6 56h2v2H6zm0 4h2v2H6zm0 4h2v2H6z" fill="#c7c7c7"/></svg>