<svg xmlns="http://www.w3.org/2000/svg" viewBox="0 0 18 88"><path d="M16 62h-2v2h-2V0h-2v2H8v2H6v60H4v-2H0v2h2v2h4v22h6V66h4v-2h2v-2h-2z"/><g fill="#51ffa8"><path d="M8 66h2v2H8z"/><path d="M6 68h2v2H6z"/><path d="M8 70h2v2H8z"/><path d="M6 72h2v2H6z"/><path d="M8 74h2v2H8z"/><path d="M6 76h2v2H6z"/><path d="M8 78h2v2H8z"/><path d="M6 80h2v2H6z"/><path d="M8 82h2v2H8zm2-14h2v2h-2zm0 4h2v2h-2zm0 4h2v2h-2z"/><path d="M10 80h2v2h-2z"/></g><path d="M6 68h2v2H6zm0 4h2v2H6zm0 4h2v2H6zm0 4h2v2H6zm4-12h2v2h-2zm0 4h2v2h-2zm0 4h2v2h-2zm0 4h2v2h-2z" opacity=".7"/><path d="M10 0v2H8v2H6v60h6V0h-2z" fill="#191919"/><path d="M10 0v2H8v2H6v60h6v-2h-2v-2h2v-2h-2v-2h2v-2h-2v-2h2v-2h-2v-2h2v-2h-2v-2h2v-2h-2v-2h2v-2h-2v-2h2v-2h-2v-2h2v-2h-2v-2h2v-2h-2v-2h2v-2h-2v-2h2v-2h-2v-2h2v-2h-2v-2h2v-2h-2V8h2V6h-2V4h2V0h-2z" fill="#323232"/><path d="M6 4v60h2V4H6z" fill="#505050"/><path d="M6 8v52h2V8H6z" fill="#646464"/><path d="M6 12v44h2V12H6z" fill="#7d7d7d"/></svg>