<svg xmlns="http://www.w3.org/2000/svg" width="40" height="20"><path d="M34 0v1h-1v1h-1v1h-1v1h-1v1h-1v1h-2v1h-2v1h-3v1h-4V8h-3V7h-2V6h-2V5h-1V4H9V3H8V2H7V1H6V0H3v20h34V0h-3z"/><path d="M34 1v1h-1v1h-1v1h-1v1h-1v1h-1v1h-2v1h-2v1h-3v1h-4V9h-3V8h-2V7h-2V6h-1V5H9V4H8V3H7V2H6V1H4v18h32V1h-2z" fill="#870aff"/><path d="M22 9v1h-4V9H4v8h32V9H22zm12-8v1h-1v1h-1v1h-1v1h-1v1h-1v1h7V1h-2zM11 7V6h-1V5H9V4H8V3H7V2H6V1H4v6h7z" fill="#f0f"/><path d="M9 5V4H8V3H7V2H6V1H4v4h5zm13 4v1h-4V9H4v6h32V9H22zm12-8v1h-1v1h-1v1h-1v1h5V1h-2z" fill="#ff0"/><path d="M22 9v1h-4V9H4v2h32V9H22z" fill="#0ff"/><path d="M7 3V2H6V1H4v2h3zm-3 8v2h32v-2H4zM34 1v1h-1v1h3V1h-2z" fill="#0f0"/><path d="M17.5 11h1v1h-1zm4 0h-1v5h1v-2h1v-1h-1v-2z"/><path d="M22.5 13h1v-2h-1v2zm0 3h1v-2h-1v2zm-4-2h-1v-2h-1v4h1v-1h1v1h1v-4h-1v2zm-6-3v5h1v-2h2v-1h-2v-1h2v-1h-3zm15 1v-1h-3v5h3v-1h-2v-1h2v-1h-2v-1h2zM2 0v1H1v1H0v7h2V8h1.5V0H2z"/><path d="M2 1v1H1v6h1V7h1V1H2z" fill="#7d00ff"/><path d="M2 1v1H1v4h2V1H2z" fill="#f0f"/><path d="M2 1v1H1v2h2V1H2z" fill="#ff0"/><path d="M2 1h1v1H2z" fill="#0f0"/><path d="M38 0v1h1v1h1v7h-2V8h-1.5V0H38z"/><path d="M38 1v1h1v6h-1V7h-1V1h1z" fill="#7d00ff"/><path d="M38 1v1h1v4h-2V1h1z" fill="#f0f"/><path d="M38 1v1h1v2h-2V1h1z" fill="#ff0"/><path d="M37 1h1v1h-1z" fill="#0f0"/></svg>