<svg xmlns="http://www.w3.org/2000/svg" width="44" height="20" fill="none" xmlns:v="https://vecta.io/nano"><path d="M42 12v1h-1v-1h-1v-2h-1V3h-1V2h-2V1H26v1h-2v1h-4V2h-2V1H8v1H6v1H5v7H4v2H3v2H2v-1H1v3h1v1h1v1h2v1h2v1h10v-1h2v-1h1v-1h5v-2h5v-1h5v1h4v1h3v-1h1v-3h-1z" fill="#ffe00c"/><g fill="#eea509"><path d="M36 3V2H26v1h-2v1h-1v4h15V3h-2zM8 8h13V4h-1V3h-2V2H8v1H6v5h2zm15 4v-2h-2v4h-1v2h2v-2h1v-2z"/><path d="M24 10v4h-1v1h2v-1h1v-4h-2zm3 0v4h2v-4h-2zm3 0v3h2v-3h-2zm3 0v3h2v-3h-2zm3 0v4h2v-4h-2zm-16 2v-2h-2v4h-1v4h2v-4h1v-2z"/><path d="M17 12v-2h-2v4h-1v5h2v-5h1v-2z"/><path d="M14 12v-2h-2v4h-1v5h2v-5h1v-2z"/><path d="M11 12v-2H9v4H8v5h2v-5h1v-2z"/><path d="M8 12v-2H6v4H5v4h2v-4h1v-2zm-5 3v2h1v-3H3v1z"/><path d="M5 12H4v2h1v-2zm34 1v2h1v-3h-1v1zm3 1h-1v1h1v-1zm1-14h-1v1h-1v1h-1v1h-1v2h2V4h1V3h1V2h1V0h-1zM4 2H3V1H2V0H0v2h1v1h1v1h1v1h2V3H4V2z"/></g><g fill="#ffe00c"><path d="M43 1h-1v1h1V1z"/><path d="M42 2h-1v1h1V2z"/><path d="M41 3h-1v1h1V3zM2 1H1v1h1V1z"/><path d="M3 2H2V3H3V2Z"/><path d="M4 3H3V4H4V3Z"/></g></svg>