<svg xmlns="http://www.w3.org/2000/svg" viewBox="0 0 14 14"><path d="M12 4V3h-1V2h-1V1H4v1H3v1H2v1H1v6h1v1h1v1h1v1h6v-1h1v-1h1v-1h1V4h-1z" fill="#b4b4b4"/><g fill="#646464"><path d="M12 3h1v1h-1V3zM13 4h1v6h-1V4zM12 10h1v1h-1v-1zM11 11h1v1h-1v-1zM10 12h1v1h-1v-1zM4 13h6v1H4v-1zM3 12h1v1H3v-1zM2 11h1v1H2v-1zM1 10h1v1H1v-1zM0 4h1v6H0V4zm11-2h1v1h-1V2zM10 1h1v1h-1V1zM4 0h6v1H4V0zM3 1h1v1H3V1zM2 2h1v1H2V2zM1 3h1v1H1V3zm5 1.5v1h1v1H6v1h1v1H6v1h2v-5H6zm-3 0h2v1H3v-1zm0 2h2v1H3v-1zm0 2h2v1H3v-1zm6-4v1h1v1H9v3h2v-1h-1v-1h1v-3H9z"/></g></svg>