<svg xmlns="http://www.w3.org/2000/svg" width="40" height="20" fill="none" xmlns:v="https://vecta.io/nano"><path d="M35 0v2h-2v2h-2v2h-2v2h-4v2H15V8h-4V6H9V4H7V2H5V0H3v20h34V0h-2z" fill="#0b1d35"/><g fill="#dea242"><path d="M25 8v2h2V8h-2z"/><path d="M15 10v4h2v4h6v-4h2v-4H15z"/><path d="M15 8h-2v2h2V8z"/></g><path d="M34 10V9h-3v3h2v1h-2v1h3v-3h-2v-1h2z" fill="#fff"/><path d="M27 8v10h2V8h-2z" fill="#0050b4"/><path d="M27 16v2h2v-2h-2z" fill="#0084ff"/><path d="M11 8v10h2V8h-2z" fill="#0050b4"/><path d="M11 16v2h2v-2h-2z" fill="#0084ff"/><path d="M2 0v1H1v1H0v7h2V8h1.5V0H2zm37 2V1h-1V0h-1.5v8H38v1h2V2h-1z" fill="#0b1d35"/><path d="M0 9h1V2H0v7zm39-7v7h1V2h-1z" fill="#0084ff"/></svg>