<svg xmlns="http://www.w3.org/2000/svg" width="13" height="56" fill="none" xmlns:v="https://vecta.io/nano"><path d="M12 14v-2h-1V9h-1V0H9v2H8v2H7v9H6V4H5V2H4V0H3v9H2v3H1v2H0v3h1v1h1v1h1v3h1v1h1v29H4v1H3v2h1v1h1v-1h3v1h1v-1h1v-2H9v-1H8V23h1v-1h1v-3h1v-1h1v-1h1v-3h-1z" fill="#000"/><path d="M4 14v1h5v-1H4z" fill="#7d00ff"/><path d="M4 9H3v3H2v3h1v-1h1v-1h1V4H4v5zm6 3V9H9V4H8v9h1v1h1v1h1v-3h-1z" fill="#fe33ff"/><path d="M8 16v1H5v-1H3v1h1v1h5v-1h1v-1H8z" fill="#fff"/><g fill="#03ffff"><path d="M2 14H1v3h1v-3z"/><path d="M3 17H2v1h1v-1z"/><path d="M4 18H3v1h1v-1z"/></g><g fill="#0f0"><path d="M11 14v3h1v-3h-1z"/><path d="M11 17h-1v1h1v-1z"/><path d="M10 18H9v1h1v-1z"/></g><path d="M4 19v3h1v1h3v-1h1v-3H4z" fill="#03ffff"/><path d="M6 24v27h1V24H6z" fill="#7d00ff"/><path d="M8 53v-1H5v1H4v2h1v-1h3v1h1v-2H8zM7 32H6v1h1v-1zm0 2H6v2h1v-2zm0 3H6v1h1v-1z" fill="#fe33ff"/><path d="M8 19v3h1v-3H8z" fill="#0f0"/><path d="M5 19v4h1v-4H5z" fill="#7d00ff"/><path d="M6 19v4h1v-4H6z" fill="#fe33ff"/><path d="M7 19v4h1v-4H7z" fill="#feff00"/></svg>