<svg xmlns="http://www.w3.org/2000/svg" width="40" height="20" xmlns:v="https://vecta.io/nano"><path d="M34 0v1h-1v1h-1v1h-1v1h-1v1h-1v1h-2v1h-2v1h-3v1h-4V8h-3V7h-2V6h-2V5h-1V4H9V3H8V2H7V1H6V0H3v20h34V0h-3z" fill="#000064"/><path d="M34 1v1h-1v1h-1v1h-1v1h-1v1h-1v1h-2v1h-2v1h-3v1h-4V9h-3V8h-2V7h-2V6h-1V5H9V4H8V3H7V2H6V1H4v18h32V1h-2z" fill="#00f"/><path d="M29 10h3v3h-3z" fill="#fff"/><path d="M39 2V1h-1V0h-1.5v8H38v1h2V2h-1z" fill="#000064"/><path d="M38,2V1h-1v6h1v1h1V2h-1Z" fill="#00f"/><path d="M2 0v1H1v1H0v7h2V8h1.5V0H2z" fill="#000064"/><path d="M2 1v1H1v6h1V7h1V1H2z" fill="#00f"/></svg>