<svg width="64" height="64" viewBox="0 0 64 64" fill="none" xmlns="http://www.w3.org/2000/svg">
<rect width="64" height="64" fill="white"/>
<g clip-path="url(#clip0)">
<path d="M11.4375 25.6562V24.0469H9.82812H8.21875V25.6562H9.82812H11.4375Z" fill="#66553B"/>
<path d="M30.75 28.875H32.3594H33.9688V27.2656V25.6562H32.3594H30.75V24.0469V22.4375H29.1406H27.5313V24.0469H29.1406V25.6562H27.5313H25.9219V24.0469H24.3125V22.4375H22.7031V20.8281V19.2188H21.0938H19.4844V20.8281H21.0938V22.4375V24.0469H19.4844V25.6562V27.2656H21.0938H22.7031H24.3125V28.875H25.9219H27.5313V27.2656H29.1406V28.875H30.75Z" fill="#66553B"/>
<path d="M21.0937 32.0938H22.7031V30.4844H21.0937H19.4844V32.0938V33.7031H21.0937V32.0938Z" fill="#66553B"/>
<path d="M9.82812 30.4844V32.0938H11.4375V30.4844V28.875H9.82812V27.2656H8.21875V25.6562H6.60938V27.2656V28.875H8.21875V30.4844H9.82812Z" fill="#66553B"/>
<path d="M50.0625 25.6562V27.2656H51.6719H53.2812V25.6562H54.8906V24.0469H53.2812V22.4375V20.8281H51.6719V22.4375V24.0469H50.0625V25.6562Z" fill="#66553B"/>
<path d="M48.4531 24.0469H46.8438V22.4375H45.2344V24.0469V25.6562H43.625H42.0156V24.0469H43.625V22.4375V20.8281H45.2344V19.2188V17.6094H43.625H42.0156V19.2188V20.8281H40.4062H38.7969V22.4375H37.1875H35.5781V24.0469H37.1875H38.7969H40.4062V25.6562V27.2656V28.875H42.0156V27.2656H43.625H45.2344H46.8438V25.6562H48.4531V24.0469Z" fill="#66553B"/>
<path d="M51.6719 30.4844H50.0625H48.4531V32.0938H50.0625H51.6719H53.2812H54.8906V30.4844H53.2812H51.6719Z" fill="#66553B"/>
<path d="M56.5 25.6562V27.2656V28.875H54.8906V30.4844H56.5H58.1094V28.875V27.2656V25.6562H56.5Z" fill="#66553B"/>
<path d="M50.0625 27.2656H48.4531V28.875H50.0625V27.2656Z" fill="#66553B"/>
<path d="M42.0156 32.0938H43.625V33.7031H45.2344V32.0938V30.4844V28.875H43.625H42.0156V30.4844V32.0938Z" fill="#66553B"/>
<path d="M38.7969 30.4844V28.875H37.1875V30.4844V32.0938H38.7969V30.4844Z" fill="#66553B"/>
<path d="M14.6562 22.4375V20.8281H13.0469H11.4375V22.4375H13.0469H14.6562Z" fill="#66553B"/>
<path d="M50.0625 19.2188H48.4531V20.8281H50.0625V19.2188Z" fill="#66553B"/>
<path d="M38.7969 17.6094H37.1875V19.2188V20.8281H38.7969V19.2188V17.6094Z" fill="#66553B"/>
<path d="M42.0156 35.3125H40.4062H38.7969V36.9219H37.1875H35.5781V35.3125H33.9688V36.9219H32.3594H30.75V38.5312V40.1406H32.3594H33.9688H35.5781V38.5312H37.1875V40.1406H38.7969H40.4062V38.5312H42.0156H43.625H45.2344V36.9219V35.3125H43.625H42.0156Z" fill="#66553B"/>
<path d="M54.8906 35.3125H53.2812V36.9219H54.8906H56.5V35.3125H54.8906Z" fill="#66553B"/>
<path d="M42.0156 41.75V43.3594H43.625V44.9688V46.5781H45.2344V44.9688V43.3594V41.75H43.625H42.0156Z" fill="#66553B"/>
<path d="M54.8906 40.1406H53.2812V41.75H54.8906V40.1406Z" fill="#66553B"/>
<path d="M56.5 38.5312H54.8906V40.1406H56.5V38.5312Z" fill="#66553B"/>
<path d="M14.6562 35.3125H13.0469H11.4375H9.82812V36.9219H11.4375V38.5312H13.0469H14.6562V36.9219V35.3125Z" fill="#66553B"/>
<path d="M8.21875 36.9219H6.60938V38.5312H8.21875V36.9219Z" fill="#66553B"/>
<path d="M13.0469 41.75H11.4375V43.3594H13.0469H14.6562H16.2656V41.75H14.6562H13.0469Z" fill="#66553B"/>
<path d="M16.2656 38.5312H14.6562V40.1406H16.2656V38.5312Z" fill="#66553B"/>
<path d="M22.7031 41.75V40.1406H21.0937H19.4844V41.75V43.3594V44.9688V46.5781H21.0937V44.9688V43.3594H22.7031V41.75Z" fill="#66553B"/>
<path d="M24.3125 38.5312V36.9219V35.3125H22.7031V36.9219H21.0938H19.4844V35.3125H17.875H16.2656V36.9219H17.875V38.5312H19.4844H21.0938H22.7031V40.1406H24.3125V38.5312Z" fill="#66553B"/>
<path d="M22.7031 44.9688V46.5781H24.3125H25.9219V44.9688H24.3125H22.7031Z" fill="#66553B"/>
<path d="M25.9219 41.75V43.3594H27.5312V41.75V40.1406H25.9219V41.75Z" fill="#66553B"/>
<path d="M58.1094 36.9219H56.5V38.5312H58.1094V36.9219Z" fill="#66553B"/>
<path d="M9.82812 22.4375H11.4375V20.8281H9.82812H8.21875V22.4375V24.0469H9.82812V22.4375Z" fill="#0E0C15"/>
<path d="M58.1094 24.0469H56.5V25.6562H58.1094V27.2656V28.875V30.4844V32.0938V33.7031H56.5H54.8906H53.2812H51.6719H50.0625H48.4531H46.8438H45.2344H43.625H42.0156H40.4062H38.7969H37.1875H35.5781H33.9688H32.3594H30.75H29.1406H27.5312H25.9219H24.3125H22.7031H21.0938H19.4844H17.875H16.2656H14.6562H13.0469H11.4375H9.82812H8.21875H6.60938V32.0938V30.4844V28.875V27.2656V25.6562H8.21875V24.0469H6.60938H5V25.6562V27.2656V28.875V30.4844V32.0938V33.7031V35.3125V36.9219V38.5312H6.60938V36.9219V35.3125H8.21875H9.82812H11.4375H13.0469H14.6562H16.2656H17.875H19.4844H21.0938H22.7031H24.3125H25.9219H27.5312H29.1406H30.75H32.3594H33.9688H35.5781H37.1875H38.7969H40.4062H42.0156H43.625H45.2344H46.8438H48.4531H50.0625H51.6719H53.2812H54.8906H56.5H58.1094V36.9219V38.5312H59.7188V36.9219V35.3125V33.7031V32.0938V30.4844V28.875V27.2656V25.6562V24.0469H58.1094Z" fill="#0E0C15"/>
<path d="M54.8906 22.4375V24.0469H56.5V22.4375V20.8281H54.8906H53.2812V22.4375H54.8906Z" fill="#0E0C15"/>
<path d="M16.2656 17.6094H17.875H19.4844H21.0938H22.7031H24.3125H25.9219H27.5312H29.1406H30.75H32.3594H33.9688H35.5781H37.1875H38.7969H40.4062H42.0156H43.625H45.2344H46.8438H48.4531V19.2188H50.0625V17.6094V16H48.4531H46.8438H45.2344H43.625H42.0156H40.4062H38.7969H37.1875H35.5781H33.9688H32.3594H30.75H29.1406H27.5312H25.9219H24.3125H22.7031H21.0938H19.4844H17.875H16.2656H14.6562V17.6094V19.2188H16.2656V17.6094Z" fill="#0E0C15"/>
<path d="M14.6562 20.8281V19.2188H13.0469H11.4375V20.8281H13.0469H14.6562Z" fill="#0E0C15"/>
<path d="M51.6719 20.8281H53.2812V19.2188H51.6719H50.0625V20.8281H51.6719Z" fill="#0E0C15"/>
<path d="M43.625 46.5781H42.0156H40.4062H38.7969H37.1875H35.5781H33.9688H32.3594H30.75H29.1406H27.5312H25.9219H24.3125H22.7031H21.0938H19.4844H17.875V48.1875H19.4844H21.0938H22.7031H24.3125H25.9219H27.5312H29.1406H30.75H32.3594H33.9688H35.5781H37.1875H38.7969H40.4062H42.0156H43.625H45.2344H46.8438V46.5781H45.2344H43.625Z" fill="#0E0C15"/>
<path d="M48.4531 44.9688H46.8438V46.5781H48.4531H50.0625H51.6719V44.9688H50.0625H48.4531Z" fill="#0E0C15"/>
<path d="M54.8906 41.75H53.2812V43.3594H54.8906V41.75Z" fill="#0E0C15"/>
<path d="M56.5 40.1406H54.8906V41.75H56.5V40.1406Z" fill="#0E0C15"/>
<path d="M53.2812 43.3594H51.6719V44.9688H53.2812V43.3594Z" fill="#0E0C15"/>
<path d="M11.4375 41.75H9.82812V43.3594H11.4375V41.75Z" fill="#0E0C15"/>
<path d="M8.21875 38.5312H6.60938V40.1406H8.21875V38.5312Z" fill="#0E0C15"/>
<path d="M16.2656 44.9688H14.6562H13.0469V46.5781H14.6562H16.2656H17.875V44.9688H16.2656Z" fill="#0E0C15"/>
<path d="M13.0469 43.3594H11.4375V44.9688H13.0469V43.3594Z" fill="#0E0C15"/>
<path d="M9.82812 40.1406H8.21875V41.75H9.82812V40.1406Z" fill="#0E0C15"/>
<path d="M58.1094 38.5312H56.5V40.1406H58.1094V38.5312Z" fill="#0E0C15"/>
<path d="M29.1406 25.6562V24.0469H27.5312H25.9219V25.6562H27.5312H29.1406Z" fill="#CAB983"/>
<path d="M21.0938 27.2656H19.4844V25.6562H17.875V24.0469H16.2656V22.4375H14.6562V24.0469H13.0469H11.4375V25.6562H13.0469H14.6562V27.2656H13.0469V28.875H14.6562H16.2656H17.875V30.4844V32.0938V33.7031H19.4844V32.0938V30.4844H21.0938H22.7031V32.0938H24.3125V30.4844V28.875V27.2656H22.7031H21.0938Z" fill="#CAB983"/>
<path d="M9.82812 30.4844H8.21875V32.0938V33.7031H9.82812H11.4375V32.0938H9.82812V30.4844Z" fill="#CAB983"/>
<path d="M45.2344 25.6562V24.0469V22.4375H46.8438H48.4531H50.0625V20.8281H48.4531V19.2188V17.6094H46.8438H45.2344V19.2188V20.8281H43.625V22.4375V24.0469H42.0156V25.6562H43.625H45.2344Z" fill="#CAB983"/>
<path d="M56.5 32.0938H54.8906V33.7031H56.5H58.1094V32.0938H56.5Z" fill="#CAB983"/>
<path d="M45.2344 28.875V30.4844V32.0938H46.8438H48.4531V30.4844V28.875V27.2656H50.0625V25.6562V24.0469H48.4531V25.6562H46.8438V27.2656H45.2344H43.625H42.0156V28.875H43.625H45.2344Z" fill="#CAB983"/>
<path d="M37.1875 32.0938V30.4844V28.875H35.5781H33.9688H32.3594H30.75H29.1406V30.4844H27.5312V32.0938V33.7031H29.1406H30.75H32.3594V32.0938H33.9688H35.5781H37.1875Z" fill="#CAB983"/>
<path d="M56.5 27.2656V25.6562H54.8906H53.2812V27.2656H54.8906H56.5Z" fill="#CAB983"/>
<path d="M30.75 20.8281H32.3594H33.9688V22.4375V24.0469H35.5781V22.4375V20.8281H37.1875V19.2188V17.6094H35.5781H33.9688H32.3594H30.75H29.1406V19.2188H27.5312V20.8281H29.1406H30.75Z" fill="#CAB983"/>
<path d="M21.0938 17.6094H19.4844H17.875V19.2188V20.8281H19.4844V19.2188H21.0938H22.7031V20.8281H24.3125V19.2188V17.6094H22.7031H21.0938Z" fill="#CAB983"/>
<path d="M38.7969 36.9219V35.3125H37.1875H35.5781V36.9219H37.1875H38.7969Z" fill="#CAB983"/>
<path d="M37.1875 44.9688V43.3594V41.75H35.5781V40.1406H33.9688H32.3594H30.75H29.1406H27.5312V41.75V43.3594H29.1406H30.75H32.3594V44.9688V46.5781H33.9688H35.5781H37.1875H38.7969H40.4062V44.9688H38.7969H37.1875Z" fill="#CAB983"/>
<path d="M19.4844 35.3125V36.9219H21.0937H22.7031V35.3125H21.0937H19.4844Z" fill="#CAB983"/>
<path d="M19.4844 38.5312H17.875V36.9219H16.2656V35.3125H14.6562V36.9219V38.5312H16.2656V40.1406V41.75V43.3594H17.875H19.4844V41.75V40.1406H21.0938H22.7031V38.5312H21.0938H19.4844Z" fill="#CAB983"/>
<path d="M50.0625 35.3125H48.4531H46.8438V36.9219H45.2344V38.5312H43.625H42.0156H40.4062V40.1406V41.75V43.3594H42.0156V41.75H43.625H45.2344V43.3594V44.9688V46.5781H46.8438V44.9688V43.3594V41.75V40.1406H48.4531H50.0625H51.6719V38.5312H50.0625V36.9219H51.6719H53.2812V35.3125H51.6719H50.0625Z" fill="#CAB983"/>
<path d="M8.21875 36.9219V38.5312H9.82812H11.4375V36.9219H9.82812H8.21875Z" fill="#CAB983"/>
<path d="M58.1094 35.3125H56.5V36.9219H58.1094V35.3125Z" fill="#CAB983"/>
<path d="M21.0938 22.4375V20.8281H19.4844H17.875V19.2188V17.6094H16.2656V19.2188H14.6562V20.8281V22.4375H16.2656V24.0469H17.875V25.6562H19.4844V24.0469H21.0938V22.4375Z" fill="#51774E"/>
<path d="M21.0938 33.7031H22.7031H24.3125H25.9219H27.5312V32.0938V30.4844H29.1406V28.875V27.2656H27.5312V28.875H25.9219H24.3125V30.4844V32.0938H22.7031H21.0938V33.7031Z" fill="#51774E"/>
<path d="M9.82812 28.875H11.4375V30.4844V32.0938V33.7031H13.0469H14.6562H16.2656H17.875V32.0938V30.4844V28.875H16.2656H14.6562H13.0469V27.2656H14.6562V25.6562H13.0469H11.4375H9.82812H8.21875V27.2656H9.82812V28.875Z" fill="#51774E"/>
<path d="M50.0625 24.0469H51.6719V22.4375V20.8281H50.0625V22.4375H48.4531H46.8438V24.0469H48.4531H50.0625Z" fill="#51774E"/>
<path d="M38.7969 22.4375V20.8281H37.1875H35.5781V22.4375H37.1875H38.7969Z" fill="#51774E"/>
<path d="M56.5 28.875V27.2656H54.8906H53.2812H51.6719H50.0625V28.875H48.4531V30.4844H50.0625H51.6719H53.2812H54.8906V28.875H56.5Z" fill="#51774E"/>
<path d="M56.5 30.4844H54.8906V32.0938H56.5H58.1094V30.4844H56.5Z" fill="#51774E"/>
<path d="M56.5 24.0469H54.8906V25.6562H56.5V24.0469Z" fill="#51774E"/>
<path d="M42.0156 30.4844V28.875H40.4062V27.2656V25.6562V24.0469H38.7969H37.1875H35.5781H33.9688V22.4375V20.8281H32.3594H30.75H29.1406H27.5312V19.2188H29.1406V17.6094H27.5312H25.9219H24.3125V19.2188V20.8281H22.7031V22.4375H24.3125V24.0469H25.9219H27.5312V22.4375H29.1406H30.75V24.0469V25.6562H32.3594H33.9688V27.2656V28.875H35.5781H37.1875H38.7969V30.4844V32.0938H37.1875H35.5781H33.9688H32.3594V33.7031H33.9688H35.5781H37.1875H38.7969H40.4062H42.0156H43.625V32.0938H42.0156V30.4844Z" fill="#51774E"/>
<path d="M51.6719 32.0938H50.0625H48.4531H46.8438H45.2344V33.7031H46.8438H48.4531H50.0625H51.6719H53.2812H54.8906V32.0938H53.2812H51.6719Z" fill="#51774E"/>
<path d="M11.4375 22.4375H9.82812V24.0469H11.4375H13.0469H14.6562V22.4375H13.0469H11.4375Z" fill="#51774E"/>
<path d="M54.8906 22.4375H53.2812V24.0469H54.8906V22.4375Z" fill="#51774E"/>
<path d="M8.21875 32.0938V30.4844V28.875H6.60938V30.4844V32.0938V33.7031H8.21875V32.0938Z" fill="#51774E"/>
<path d="M42.0156 20.8281V19.2188V17.6094H40.4062H38.7969V19.2188V20.8281H40.4062H42.0156Z" fill="#51774E"/>
<path d="M46.8438 35.3125H45.2344V36.9219H46.8438V35.3125Z" fill="#51774E"/>
<path d="M30.75 35.3125H29.1406H27.5313H25.9219H24.3125V36.9219V38.5312V40.1406H22.7031V41.75V43.3594H21.0938V44.9688V46.5781H22.7031V44.9688H24.3125H25.9219V46.5781H27.5313H29.1406H30.75H32.3594V44.9688V43.3594H30.75H29.1406H27.5313H25.9219V41.75V40.1406H27.5313H29.1406H30.75V38.5312V36.9219H32.3594H33.9688V35.3125H32.3594H30.75Z" fill="#51774E"/>
<path d="M40.4062 43.3594V41.75V40.1406H38.7969H37.1875V38.5312H35.5781V40.1406V41.75H37.1875V43.3594V44.9688H38.7969H40.4062V46.5781H42.0156H43.625V44.9688V43.3594H42.0156H40.4062Z" fill="#51774E"/>
<path d="M9.82812 36.9219V35.3125H8.21875H6.60938V36.9219H8.21875H9.82812Z" fill="#51774E"/>
<path d="M14.6562 41.75H16.2656V40.1406H14.6562V38.5312H13.0469H11.4375H9.82812H8.21875V40.1406H9.82812V41.75H11.4375H13.0469H14.6562Z" fill="#51774E"/>
<path d="M16.2656 43.3594H14.6563H13.0469V44.9688H14.6563H16.2656H17.875V46.5781H19.4844V44.9688V43.3594H17.875H16.2656Z" fill="#51774E"/>
<path d="M53.2812 36.9219H51.6719H50.0625V38.5312H51.6719V40.1406H50.0625H48.4531H46.8438V41.75V43.3594V44.9688H48.4531H50.0625H51.6719V43.3594H53.2812V41.75V40.1406H54.8906V38.5312H56.5V36.9219H54.8906H53.2812Z" fill="#51774E"/>
</g>
<defs>
<clipPath id="clip0">
<rect width="54.7188" height="32.1875" fill="white" transform="translate(5 16)"/>
</clipPath>
</defs>
</svg>
