<svg xmlns="http://www.w3.org/2000/svg" viewBox="0 0 64 64" xmlns:v="https://vecta.io/nano"><path d="M0 0h64v64H0z" fill="#fff"/><g fill="#c67ebb"><path d="M44,29.8v3h1.5v-3H44z"/><path d="M42.5 31.2v-1.5h-3v3H41v1.5h3v-1.5h-1.5v-1.5zm-19.5 0v1.5h1.5v-3H23v1.5z"/><path d="M21.5,31.2v-1.5h-3v3H20v1.5h3v-1.5h-1.5V31.2z"/></g><g fill="#a73796"><path d="M35 29.8h1.5v1.5H35v-1.5zm0 3h1.5v1.5H35v-1.5zm13.5-3H50v1.5h-1.5v-1.5z"/><path d="M50 31.2h1.5v1.5H50v-1.5zm-10.5-1.4h9v-1.5h-12v1.5h3zm-6 1.4H35v1.5h-1.5v-1.5zm15 1.6H50v1.5h-1.5v-1.5z"/><path d="M45.5 34.2h-9v1.5h12v-1.5h-3zM14 29.8h1.5v1.5H14v-1.5zm0 3h1.5v1.5H14v-1.5zm13.5-3H29v1.5h-1.5v-1.5z"/><path d="M29 31.2h1.5v1.5H29v-1.5zm-10.5-1.4h9v-1.5h-12v1.5h3zm-6 1.4H14v1.5h-1.5v-1.5zm15 1.6H29v1.5h-1.5v-1.5z"/><path d="M24.5 34.2h-9v1.5h12v-1.5h-3z"/></g></svg>