<svg xmlns="http://www.w3.org/2000/svg" viewBox="0 0 64 64" xmlns:v="https://vecta.io/nano"><path d="M0 0h64v64H0z" fill="none"/><path d="M39.5 49.2H41v1.5h-1.5v-1.5zm0-36H41v1.5h-1.5v-1.5z" fill="#7a5749"/><path d="M39.5,14.8v34.5H41V14.8H39.5z" fill="#8e7064"/><path d="M38,14.8H23v13.5h16.5V14.8H38z" fill="#7d0064"/><path d="M35 17.8v-1.5h-7.5v1.5H26v9h1.5v-1.5H29v1.5h1.5v-1.5H32v1.5h1.5v-1.5H35v1.5h1.5v-9H35zm-1.5 0v1.5H32v-1.5h1.5zm-3 0v1.5H29v-1.5h1.5zm4.5 4.4h-1.5v1.5H29v-1.5h-1.5v-1.5H29v1.5h4.5v-1.5H35v1.5z" fill="#fff"/></svg>