<svg xmlns="http://www.w3.org/2000/svg" viewBox="0 0 64 64" xmlns:v="https://vecta.io/nano"><path d="M0 0h64v64H0z" fill="none"/><g fill="#0f5a87"><path d="M28.7 18.8h8.8v-2.2h-11v2.2h2.2z"/><path d="M24.3 21h2.2v-2.2h-4.4V21h2.2zm13.2 0h4.4v-2.2h-4.4V21zm8.8 4.4h2.2v-2.2h-2.2v2.2z"/><path d="M48.5 27.6v19.8h3.3v-1.1h-1.1v-9.9h2.2v-2.2h-2.2v-8.8h-2.2v2.2z"/><path d="M52.9 25.4v8.8h2.2v-11h-4.4v2.2h2.2zM11.1 32v-6.6h2.2v-2.2H8.9v11h2.2V32zm30.8-8.8h4.4V21h-4.4v2.2zm-22 0h2.2V21h-4.4v2.2h2.2z"/><path d="M17.7 25.4v-2.2h-2.2v2.2h1.1z"/><path d="M14.4 47.4h1.1v-22h-2.2v8.8h-2.2v2.2h2.2v9.9h-1.1v1.1h1.1z"/></g><path d="M17.7 45.2h30.8V25.4h-2.2v-2.2h-4.4V21h-4.4v-2.2h-11V21h-4.4v2.2h-4.4v2.2h-2.2v19.8z" fill="#0fa9c9"/><g fill="#fff"><path d="M51.8 25.4h-1.1v8.8h2.2v-8.8zm-40.7 0v8.8h2.2v-8.8h-1.1zm20.4 0v-1.1h-1.1v2.2h1.1v-1.1zm1 1.1h1.1v-2.2h-1.1v2.2z"/><path d="M31.5 23.2h1.1v1.1h-1.1v-1.1zm2.2 5.5h1.1v-2.2h-1.1v2.2z"/><path d="M29.3 29.8v-1.1h2.2v-1.1h-1.1v-1.1h-1.1v1.1H27v1.1h1.1v2.2h1.1v-1.1zm5.5 1.1h1.1v-2.2h-1.1v2.2z"/><path d="M27 32v1.1h1.1v-2.2H27V32zm8.8 1.1H37v-2.2h-1.1v2.2z"/></g><path d="M26.5 36.4v-2.2h-2.2v2.2h-2.2v2.2h-2.2v2.2h2.2V43h4.4v-2.2h2.2v-4.4h-1.1zm15.4 0v-2.2h-2.2v2.2h-2.2v2.2h-2.2v2.2h2.2V43h4.4v-2.2h2.2v-4.4H43z" fill="#0f5a87"/><g fill="#fff"><path d="M24.3 35.3v-1.1h-2.2v2.2h2.2z"/><path d="M19.9 36.4v2.2h2.2v-2.2h-2.2zm17.6-2.2v2.2h2.2v-2.2h-2.2z"/><path d="M35.3 36.4v2.2h2.2v-2.2h-1.1z"/></g></svg>