<svg xmlns="http://www.w3.org/2000/svg" viewBox="0 0 64 64" xmlns:v="https://vecta.io/nano"><path d="M0 0h64v64H0z" fill="none"/><g fill="#0f5a87"><path d="M51.8,20.5h1.1v1.1h-1.1V20.5z"/><path d="M52.9,21.6H54v1.1h-1.1V21.6z"/><path d="M55.1 23.8h1.1v-1.1H54v1.1h1.1z"/><path d="M57.3 24.9h1.1v-1.1h-2.2v1.1h1.1zm-1.1 4.4H54v1.1h4.4v-1.1h-2.2zm-5.5-2.2v-3.3h-2.2v17.6h-2.2v2.2h4.4V28.1h1.1V27l-1.1.1z"/><path d="M52.9 28.2h-1.1v1.1H54v-1.1h-1.1zm5.5-3.3v4.4h1.1v-4.4h-1.1zM46.3 39.2h-5.5v2.2h5.5v-2.2zm-23.1 0h-5.5v2.2h5.5v-2.2z"/><path d="M26.5 41.3h-3.3v2.2h5.5v-2.2h-2.2z"/><path d="M35.3 39.2h-6.6v2.2h6.6v-2.2z"/><path d="M38.6 41.3h-3.3v2.2h5.5v-2.2h-2.2zM11.1 20.5h1.1v1.1h-1.1v-1.1z"/><path d="M10,21.6h1.1v1.1H10V21.6z"/><path d="M10 23.8v-1.1H7.8v1.1H10z"/><path d="M7.8 24.9v-1.1H5.6v1.1h2.2zm0 4.4H5.6v1.1H10v-1.1H7.8z"/><path d="M10 28.2v1.1h2.2v-1.1H10zm-4.4-1.1v-2.2H4.5v4.4h1.1v-2.2z"/><path d="M15.5 41.3V23.8h-2.2v3.3h-1.1v1.1h1.1v15.4h4.4v-2.2h-1.1l-1.1-.1z"/></g><g fill="#0fa9c9"><path d="M52.9 22.7v-1.1h-1.1v-1.1h-5.5v2.2h-2.2v2.2h-6.6V27h-4.4v1.1h1.1v1.1h1.1v1.1h-1.1v2.2h14.3v-8.8h2.2V27h1.1v1.1H54v-5.5l-1.1.1zm-6.6 12.1H15.5v6.6h2.2v-2.2h5.5V37h5.5v2.2h6.6V37h5.5v2.2h5.5v2.2h2.2v-6.6h-2.2zm-15.4-6.6v1.1h2.2v-1.1h-2.2z"/><path d="M29.8 27.1h-3.3v-2.2h-6.6v-2.2h-2.2v-2.2h-5.5v1.1h-1.1v1.1H10v5.5h2.2v-1.1h1.1v-3.3h2.2v8.8h14.3v-2.2h-1.1v-1.1h1.1v-1.1h1.1V27l-1.1.1zm3.3 5.5v-2.2h-2.2v2.2h2.2z"/></g><g fill="#fff"><path d="M46.3 32.6v2.2h2.2v-2.2h-2.2zm-30.8 0v2.2h2.2v-2.2h-2.2zm18.7-4.4h-1.1v1.1h-2.2v-1.1h-1.1v1.1h-1.1v1.1h1.1v2.2h-1.1v2.2h2.2v-4.4h2.2v4.4h2.2v-2.2h-1.1v-2.2h1.1v-1.1h-1.1v-1.1z"/><path d="M33.1 28.2v-1.1h-2.2v1.1h2.2zm8.8 4.4v2.2h2.2v-2.2h-2.2zm-4.4 0v2.2h2.2v-2.2h-2.2zm-13.2 0v2.2h2.2v-2.2h-2.2zm-4.4 0v2.2h2.2v-2.2h-2.2z"/></g><path d="M57.3 24.9h-1.1v-1.1H54v5.5h4.4v-4.4h-1.1zM7.8 23.8v1.1H5.6v4.4H10v-5.5H8.9 7.8zm23.1 8.8v2.2h2.2v-2.2h-2.2zm-4.4 0v2.2h2.2v-2.2h-2.2zm-8.8 0v2.2h2.2v-2.2h-2.2zm22 0v2.2h2.2v-2.2h-2.2zm4.4 0v2.2h2.2v-2.2h-2.2zM38.6 37h-3.3v4.4h5.5V37h-2.2zm-12.1 0h-3.3v4.4h5.5V37h-2.2zm-2.2-2.2v-2.2h-2.2v2.2h2.2zm13.2 0v-2.2h-2.2v2.2h2.2z" fill="#a73796"/></svg>