<svg xmlns="http://www.w3.org/2000/svg" viewBox="0 0 64 64" xmlns:v="https://vecta.io/nano"><path d="M0 0h64v64H0z" fill="none"/><g fill="#e6cce1"><path d="M30,22h4v2h2v-4h-8v4h2V22z"/><path d="M38 26v2h2v-4h-4v2h2z"/><path d="M42 28h-2v2h2v4h-2v2h4v-8h-2zm-16-2h2v-2h-4v4h2v-2z"/><path d="M22,34v-4h2v-2h-4v8h4v-2H22z"/><path d="M26 38v-2h-2v4h4v-2h-2zm12 0h-2v2h4v-4h-2v2z"/><path d="M34 42h-4v-2h-2v4h8v-4h-2v2z"/></g><g fill="#fff"><path d="M30 32h4v-4h-4v4zm4 4v-2h-4v4h-2v2h2v2h4v-2h2v-2h-2v-2z"/><path d="M40 30v-2h-2v-2h-2v-2h-2v-2h-4v2h-2v2h-2v2h-2v2h-2v4h2v2h2v2h2v-4h-2v-2h2v-4h2v-2h4v2h2v4h2v2h-2v4h2v-2h2v-2h2v-4h-2z"/></g><path d="M46 24h-2v-4h-4v-4H24v4h-4v4h-4v16h4v4h4v4h16v-4h4v-4h4V24h-2zm-2 6v6h-4v4h-4v4h-8v-4h-4v-4h-4v-8h4v-4h4v-4h8v4h4v4h4v2z" fill="#0fa9c9"/><g fill="#0f5a87"><path d="M40 20h4v-4h-4v4z"/><path d="M44 24h4v-4h-4v4z"/><path d="M50,24h-2v16h4V24H50z"/><path d="M44 40v4h4v-4h-4z"/><path d="M40 44v4h4v-4h-4z"/><path d="M36 48H24v4h16v-4h-4zm-8-32h12v-4H24v4h4zm6 12v-2h-4v2h4z"/><path d="M36 30v-2h-2v4h-4v-4h-2v4h-2v2h2v4h2v-4h4v4h2v-4h2v-2h-2v-2zM24 20v-4h-4v4h4z"/><path d="M20 24v-4h-4v4h4zm0 16h-4v4h4v-4z"/><path d="M24 44h-4v4h4v-4zm-8-8V24h-4v16h4v-4z"/></g></svg>