<svg xmlns="http://www.w3.org/2000/svg" viewBox="0 0 64 64" xmlns:v="https://vecta.io/nano"><path d="M0 0h64v64H0z" fill="none"/><path d="M49.5 21.4v1.2h-1.2v1.2H47V25h-1.2v1.2h-1.2v1.2h-1.2v1.2h-2.5v1.2h-2.5V31h-3.8v2.5h1.2v1.2H37v7.5h15V21.4h-2.5zM28.2 33.9h1.2v-2.5h-3.8v-1.2h-2.5V29h-2.5v-1.2h-1.2v-1.2h-1.2v-1.2H17v-1.2h-1.2V23h-1.2v-1.2H12V43h15v-7.5h1.2v-1.6zm26.3-10v-1.2h-1.2v7.5h1.2v1.2h1.2v-7.5h-1.2zm-23.7 15v1.2h2.5v-1.2h-2.5zm-21.3-15H8.2v7.5h1.2v-1.2h1.2v-7.5H9.5v1.2zm21.3 17.5v1.2h2.5v-1.2h-2.5zm-2.6 0h1.2v1.2h-1.2v-1.2zm6.3 0h1.2v1.2h-1.2v-1.2zm-5-6.3h1.2v1.2h-1.2v-1.2zm3.7 0h1.2v1.2h-1.2v-1.2zm0 2.5h1.2v1.2h-1.2v-1.2zm-3.7 0h1.2v1.2h-1.2v-1.2z" fill="#a73796"/><path d="M35.8 35.1v-1.2h-1.2v-1.2h-5v1.2h-1.2v1.2H27v7.5h1.2v-1.2h1.2v1.2h1.2v-1.2h2.5v1.2h1.2v-1.2h1.2v1.2H37v-7.5h-1.2zm-1.3 1.3h-1.2v-1.2h1.2v1.2zm-3.7-1.3v1.2h-1.2v-1.2h1.2zm1.2 5h-1.2v-1.2h-1.2v-1.2h1.2v1.2h2.5v-1.2h1.2v1.2h-1.2v1.2H32z" fill="#fff"/><g fill="#7d0064"><path d="M14.5 21.4h1.2v1.2h-1.2v-1.2zm2.5 2.5h1.2v1.2H17v-1.2zm-1.2-1.3H17v1.2h-1.2v-1.2zm3.7 3.8h1.2v1.2h-1.2v-1.2z"/><path d="M18.2 25.1h1.2v1.2h-1.2v-1.2zm6.3 5h1.2v-1.2h-2.5v1.2h1.3z"/><path d="M22 28.9h1.2v-1.2h-2.5v1.2H22zm26.2-7.5h1.2v1.2h-1.2v-1.2zm-2.4 2.5H47v1.2h-1.2v-1.2z"/><path d="M47 22.6h1.2v1.2H47v-1.2zm-3.8 3.8h1.2v1.2h-1.2v-1.2zm1.3-1.3h1.2v1.2h-1.2v-1.2zm-3.7 5v-1.2h-2.5v1.2h2.5z"/><path d="M43.2 28.9v-1.2h-2.5v1.2h2.5zm-12.4 3.7h3.8v-1.2h-5v1.2h1.2z"/><path d="M27 31.4h2.5v-1.2h-3.8v1.2H27zm10 0h1.2v-1.2h-3.8v1.2H37zm18.8-7.5v7.5h-1.2v1.2H57v-8.8h-1.2zm-1.3-1.3h1.2v1.2h-1.2v-1.2zM8.2 30.1v-6.2H7v8.8h2.5v-1.2H8.2v-1.4zm0-7.5h1.2v1.2H8.2v-1.2zm45 7.5v-7.5h1.2v-1.2h-1.2v-1.2h-3.8v1.2H52v21.2H12V21.4h2.5v-1.2h-3.8v1.2H9.5v1.2h1.2v7.5H9.5v1.2h1.2v12.5h42.5V31.4h1.2v-1.2h-1.2z"/></g></svg>