<svg xmlns="http://www.w3.org/2000/svg" viewBox="0 0 64 64" xmlns:v="https://vecta.io/nano"><path d="M0 0h64v64H0z" fill="none"/><path d="M51.5 30.1h-3.8v-1.2h-2.5v-1.2h-2.5v-1.2h-5v1.2h-2.5v1.2h-2.5v1.2h-2.5v-1.2h-2.5v-1.2h-2.5v-1.2h-5v1.2h-2.5v1.2h-2.5v1.2h-5v5h5v1.2h2.5v1.2h2.5v1.2h5v-1.2h2.5v-1.2h2.5v-1.2h2.5v1.2h2.5v1.2h2.5v1.2h5v-1.2h2.5v-1.2h2.5v-1.2h5v-5h-1.2zm-8.7 3.8v1.2h-1.2v1.2H39v-1.2h-1.2v-1.2h-1.2v-2.5h1.2v-1.2H39V29h2.5v1.2h1.2v1.2H44v2.5h-1.2zm-17.6 0v1.2H24v1.2h-2.5v-1.2h-1.2v-1.2H19v-2.5h1.2v-1.2h1.2V29H24v1.2h1.2v1.2h1.2v2.5h-1.2z" fill="#a73796"/><g fill="#7d0064"><path d="M44,26.4h-1.2v1.2h2.5v-1.2H44z"/><path d="M46.5 27.6h-1.2v1.2h2.5v-1.2h-1.3zm-5-2.5h-3.8v1.2h5v-1.2h-1.2zm-6.3 1.3v1.2h2.5v-1.2h-2.5zm-8.7 0h-1.2v1.2h2.5v-1.2h-1.3zM24 25.1h-3.8v1.2h5v-1.2H24zm-6.2 1.3v1.2h2.5v-1.2h-2.5z"/><path d="M15.2 27.6v1.2h2.5v-1.2h-2.5zm-2.4 1.3h-2.5v1.2h5v-1.2h-2.5zm17.4 0v1.2h2.5v-1.2h-2.5zM29 27.6h-1.2v1.2h2.5v-1.2H29zm3.8 0v1.2h2.5v-1.2h-2.5zm-10 11.3h-2.5v1.2h5v-1.2h-2.5zM19 37.6h-1.2v1.2h2.5v-1.2H19z"/><path d="M16.5 36.4h-1.2v1.2h2.5v-1.2h-1.3zM14 35.1h-3.8v1.2h5v-1.2H14zm11.2 2.5v1.2h2.5v-1.2h-2.5zm11.3 0h-1.2v1.2h2.5v-1.2h-1.3zm3.7 1.3h-2.5v1.2h5v-1.2h-2.5zm2.6-1.3v1.2h2.5v-1.2h-2.5z"/><path d="M45.2 36.4v1.2h2.5v-1.2h-2.5zm5-1.3h-2.5v1.2h5v-1.2h-2.5zm-22.4 1.3v1.2h2.5v-1.2h-2.5zm3.7-1.3h-1.2v1.2h2.5v-1.2h-1.3zm2.5 1.3h-1.2v1.2h2.5v-1.2H34zm21.2-2.5h2.5v-2.5h-2.5v2.5zm1.3-10h-1.2v2.5h-2.5v2.5h-5v1.2h5v1.2h2.5v-2.5h2.5v-5h-1.3zm-15 10v-2.5H39v2.5h2.5zm-17.5 0v-2.5h-2.5v2.5H24z"/></g><path d="M42.8 31.4v-1.2h-1.2V29H39v1.2h-1.2v1.2h-1.2v2.5h1.2v1.2H39v1.2h2.5v-1.2h1.2v-1.2H44v-2.5h-1.2zm-2.6 2.5H39v-2.5h2.5v2.5h-1.3zm-15-3.8H24v-1.2h-2.5v1.2h-1.2v1.2H19v2.5h1.2V35h1.2v1.2H24V35h1.2v-1.2h1.2v-2.5h-1.2v-1.2zM24 32.6v1.2h-2.5v-2.5H24v1.3z" fill="#fff"/></svg>