<svg xmlns="http://www.w3.org/2000/svg" viewBox="0 0 64 64" xmlns:v="https://vecta.io/nano"><path d="M0 0h64v64H0z" fill="none"/><path d="M20.8 12.9h-2.2v2.2h2.2v-2.2zM8.4 28.6H6.1v2.2h2.2v-2.2zm-2.3 6.8H3.9v2.2h2.2v-2.2zm0 6.7H3.9v2.2h2.2v-2.2zm4.5-18H8.4v2.2h2.2v-2.2zm2.3-4.5h-2.2v2.2h2.2v-2.2zm2.2-4.5h-2.2v2.2h2.2v-2.2zm27 0v-2.2h-2.2v2.2h2.2zm15.8 15.8v-2.2h-2.2v2.2h2.2z"/><path d="M55.6 37.6h-1.1v-4.5h1.1v-2.2h-2.2v-4.5h-2.2v-4.5h-5.6v-2.2h2.2v-2.2h-7.9v-2.2H20.8v2.2h-5.6v2.2h2.2v2.2h-4.5v4.5h-2.2v4.5H8.4v2.2h1.1v4.5H6.1v2.2h3.4v4.5H6.1v2.2h5.6V50h3.4v1.1h1.1V37.6h1.1v-2.2h2.2v-2.2h2.2v-4.5h2.2v-2.2h2.2v-2.2h2.2v-2.2h9v2.2h4.5v2.2h4.5v2.2h2.2V50h3.4v-3.4h5.6v-2.2h-3.4v-4.5h3.4v-2.2h-1.9z"/><path d="M59 35.4h-1.1v2.2h2.2v-2.2H59zm1.1 9v-2.2h-2.2v2.2h2.2zm-4.5-18v-2.2h-2.2v2.2h2.2zm-2.2-4.5v-2.2h-2.2v2.2h2.2zM50 17.4v-2.2h-2.2v2.2H50z"/></svg>