<svg xmlns="http://www.w3.org/2000/svg" viewBox="0 0 64 64" xmlns:v="https://vecta.io/nano"><g fill="none"><path d="M0 0h64v64H0z"/><path d="M35.8 24.5h-1.2V27h-1.2v5h1.2v-3.8h1.2v-2.5h2.5v-1.2h-2.5zm3.7-1.3h-1.2v1.2h2.5v-1.2h-1.3zm-15 0h-1.2v1.2h2.5v-1.2h-1.3zm5 2.6v-1.2h-3.8v1.2h2.5v2.5h1.2V32h1.2v-5h-1.2v-1.2z"/></g><g fill="#343a4c"><path d="M28.2 33.2H27V32h-1.2v-1.2h-1.2v-1.2H22v-1.2h-2.5V27h-1.2v-1.2h-2.5v-1.2h-2.5v-3.8H12V42h18.8v-1.2h-1.2v-1.2h1.2v-1.2h-1.2V37h1.2v-1.2h-1.2v-1.2h-1.2v-1.4zm-12.4 1.3H22v1.2h-6.2v-1.2zm5 6.3h-5V37H22v3.8h-1.2z"/><path d="M29.5 30.8v-2.5h-1.2v-2.5h-2.5v-1.2h-2.5v-1.2h-2.5V22h-2.5v-1.2h-2.5v-1.2h-2.5v1.2h1.2v2.5h1.2v1.2h2.5v1.2h1.2V27H22v1.2h2.5v1.2h1.2v1.2H27V32h1.2v1.2h1.2v1.2h1.2V32h-1.2v-1.2zM23.2 27v-1.2h1.2V27h-1.2zM12 18.2h1.2v1.2H12v-1.2zm36.2 1.3v1.2h-2.5V22h-2.5v1.2h-2.5v1.2h-2.5v1.2h-2.5v2.5h-1.2V32H32v3.8h1.2v-1.2h1.2v-1.2h1.2V32H37v-1.2h1.2v-1.2h2.5v-1.2H42V27h1.2v-1.2h2.5v-1.2h2.5v-1.2h1.2v-2.5h1.2v-1.2h-2.4zM39.5 27v-1.2h1.2V27h-1.2z"/><path d="M50.8 18.2H52v1.2h-1.2v-1.2zm0 5v1.2h-2.5v1.2h-2.5V27h-2.5v1.2H42v1.2h-1.2v1.2h-2.5V32H37v1.2h-1.2v1.2h-1.2v1.2h-1.2V37H32v1.2h1.2v1.2H32V42h20V20.8h-1.2v2.4zM42 34.5h6.2v1.2H42v-1.2zm5 6.3h-5V37h6.2v3.8H47zm-37.5-20H8.2v7.5h1.2V27h1.2v-7.5H9.5v1.3zm45 0v-1.2h-1.2V27h1.2v1.2h1.2v-7.5h-1.2z"/></g><g fill="#141b30"><path d="M17,25.8h1.2v-1.2h-2.5v1.2H17z"/><path d="M18.2 25.8h1.2V27h-1.2v-1.2zm2.6 2.4H22V27h-2.5v1.2h1.3zm2.4 1.3h1.2v-1.2H22v1.2h1.2zm-5 6.3H22v-1.2h-6.2v1.2h2.4zM27 32h1.2v1.2H27V32zm21.2-6.2v-1.2h-2.5v1.2h2.5z"/><path d="M45.8 27v-1.2h-2.5V27h2.5zM42 27h1.2v1.2H42V27zm-1.2 3.8v-1.2h-2.5v1.2h2.5zm3.7 5h3.8v-1.2H42v1.2h2.5zM35.8 32H37v1.2h-1.2V32z"/><path d="M40.8 28.2H42v1.2h-1.2v-1.2zm-7.6 6.3h1.2v1.2h-1.2v-1.2zm1.3-1.3h1.2v1.2h-1.2v-1.2zm-6.3 0h1.2v1.2h-1.2v-1.2zm11.3-7.4h1.2V27h-1.2v-1.2zm-15 3.7h1.2v1.2h-1.2v-1.2zm-1.3-3.7h1.2V27h-1.2v-1.2zm-5 15H22V37h-6.2v3.8h2.4zm26.3 0h3.8V37H42v3.8h2.5zM13.2 23.2v1.2h2.5v-1.2h-1.2v-2.5h-1.2v2.5zm37.6 1.3v-3.8h-1.2v2.5h-1.2v1.2h2.4zm-25 6.3H27V32h-1.2v-1.2zm11.2 0h1.2V32H37v-1.2zM8.2 19.5h1.2v1.2H8.2v-1.2zm0 7.5v-6.2H7v8.8h2.5v-1.2H8.2V27z"/><path d="M53.2 27v-7.5h1.2v-1.2H52v1.2h-1.2v1.2H52V42H32v-2.5h1.2v-1.2H32V37h1.2v-1.2H32V32h1.2v-5h1.2v-1.2h-5V27h1.2v7.5h-1.2v1.2h1.2V37h-1.2v1.2h1.2v1.2h-1.2v1.2h1.2V42H12V20.8h1.2v-1.2H12v-1.2H9.5v1.2h1.2V27H9.5v1.2h1.2v17.5h5v-2.5H22v2.5h6.2v-2.5h7.5v2.5H42v-2.5h6.2v2.5h5V28.2h1.2V27h-1.2zm1.3-7.5h1.2v1.2h-1.2v-1.2zm1.3 1.3v7.5h-1.2v1.2H57v-8.8h-1.2z"/></g></svg>