<svg xmlns="http://www.w3.org/2000/svg" viewBox="0 0 64 64" xmlns:v="https://vecta.io/nano"><g fill="none"><path d="M0 0h64v64H0z"/><path d="M32 34.5h1.2v1.2H32v-1.2zM27 27h1.2v1.2H27V27zm5 0h1.2v1.2H32V27zm0 5h1.2v1.2H32V32zm0-2.5h1.2v1.2H32v-1.2zm3.8-2.5H37v1.2h-1.2V27z"/></g><g fill="#b8c7dc"><path d="M28.2 25.8h-2.5v-1.2h-2.5v1.2h1.2V27h1.2v1.2H27V27h1.2v1.2h1.2V27h1.2v-1.2h-2.4zm7.6 1.2H37v1.2h1.2V27h1.2v-1.2h1.2v-1.2h-2.5v1.2h-5V27h1.2v1.2h1.2V27z"/><path d="M27 28.2h1.2v1.2H27v-1.2zm8.8 0H37v1.2h-1.2v-1.2z"/><path d="M28.2 29.5v1.2H27v-1.2h-1.2v-1.2h-1.2V27h-1.2v-1.2H22v-1.2h-1.2v-1.2h-2.5V22h-2.5v-1.2h-2.5v-1.2H9.5v1.2H8.2v7.5h1.2V27h1.2v1.2H12v7.5h18.8v-7.5h-1.2v1.2h-1.4zm-7.4 0h-5v-1.2h5v1.2zm33.7-8.7v-1.2h-3.8v1.2h-2.5V22h-2.5v1.2h-2.5v1.2H42v1.2h-1.2V27h-1.2v1.2h-1.2v1.2H37v1.2h-1.2v-1.2h-1.2v-1.2h-1.2v7.5H52v-7.5h1.2V27h1.2v1.2h1.2v-7.5h-1.1zm-6.3 8.7h-5v-1.2h5v1.2z"/></g><g fill="#4a71a6"><path d="M29.5 37h-15v3.8h-1.2V42H12v1.2h3.8v-2.5H22v2.5h6.2v-2.5H32V37h-2.5zm-16.3 1.2V37H12v3.8h1.2v-2.6zM50.8 37v3.8H52V37h-1.2z"/><path d="M49.5,39.5V37H33.2v3.8h2.5v2.5H42v-2.5h6.2v2.5H52V42h-1.2v-1.2h-1.2V39.5z"/></g><g fill="#15488c"><path d="M18.2 29.5h2.5v-1.2h-5v1.2h2.5zm1.3-6.3h1.2V22h-2.5v1.2h1.3zm7.5 2.6h3.8v-1.2h-5v1.2H27zm6.2 1.2h1.2v1.2h-1.2V27zm2.6-1.2h2.5v-1.2h-5v1.2h2.5zm5-1.3v1.2H42v-1.2h1.2v-1.2h-5v1.2h2.6zm-18.8 0v1.2h1.2v-1.2h2.5v-1.2h-5v1.2H22zm5 5h1.2v1.2H27v-1.2zm18.8-1.3h-2.5v1.2h5v-1.2h-2.5zm0-5V22h-2.5v1.2h2.5zm-10 6.3H37v1.2h-1.2v-1.2zm-1.3-1.3h1.2v1.2h-1.2v-1.2zm-6.3 0h1.2v1.2h-1.2v-1.2zM12 19.5h1.2v-1.2H9.5v1.2H12zm38.8 1.3v-1.2h-2.5v1.2h2.5z"/><path d="M14.5 20.8h1.2v-1.2h-2.5v1.2h1.3zm38.7-1.3h1.2v-1.2h-3.8v1.2h2.6zm-1.2 10v6.2H32v-1.2h1.2v-1.2H32V32h1.2v-1.2H32v-1.2h1.2v-1.2H32V27h1.2v-1.2h-2.5V27h-1.2v1.2h1.2v7.5H12v-7.5h-1.2v17.5h5v-2.5H12V42h1.2v-1.2H12V37h1.2v3.8h1.2V37H32v3.8h-3.8v2.5h7.5v-2.5h-2.5V37h16.2v3.8h1.2V37H52v3.8h-1.2V42H52v1.2h-3.8v2.5h5V28.2H52v1.3zM48.2 22v-1.2h-2.5V22h2.5zm-8.7 3.8h1.2V27h-1.2v-1.2z"/><path d="M38.2 27h1.2v1.2h-1.2V27zM17 22h1.2v-1.2h-2.5V22H17zm7.5 5h1.2v1.2h-1.2V27z"/><path d="M23.2 25.8h1.2V27h-1.2v-1.2zm2.6 2.4H27v1.2h-1.2v-1.2zm11.2 0h1.2v1.2H37v-1.2zM9.5 27h1.2v1.2H9.5V27zm-1.3-7.5h1.2v1.2H8.2v-1.2zm0 7.5v-6.2H7v8.8h2.5v-1.2H8.2V27zm45 0h1.2v1.2h-1.2V27zm1.3-7.5h1.2v1.2h-1.2v-1.2zm1.3 1.3v7.5h-1.2v1.2H57v-8.8h-1.2zM22 40.8h-6.2v2.5H22v-2.5z"/><path d="M25.8 43.2H22v2.5h6.2v-2.5h-2.4zm22.4-2.4H42v2.5h6.2v-2.5z"/><path d="M39.5 43.2h-3.8v2.5H42v-2.5h-2.5z"/></g></svg>