<?xml version="1.0" encoding="utf-8"?>
<!-- Generator: Adobe Illustrator 25.0.0, SVG Export Plug-In . SVG Version: 6.00 Build 0)  -->
<svg version="1.1" id="Layer_1" xmlns:v="https://vecta.io/nano"
	 xmlns="http://www.w3.org/2000/svg" xmlns:xlink="http://www.w3.org/1999/xlink" x="0px" y="0px" viewBox="0 0 64 64"
	 style="enable-background:new 0 0 64 64;" xml:space="preserve">
<style type="text/css">
	.st0{fill:none;}
</style>
<rect y="0" class="st0" width="64" height="64"/>
<g>
	<path class="st0" d="M40.1,20.1H22.6v8.8h18.8v-8.8H40.1z M23.9,27.6v-6.2h2.5v1.2h-1.2v5H23.9z M28.9,27.6h-1.2v-6.2h2.5v1.2h-1.2
		v1.2h1.2v1.2h-1.2v1.2h1.2v1.2H28.9z M33.9,27.6v-2.5h-1.2v2.5h-1.2v-6.2h1.2v2.5h1.2v-1.2h1.2v1.2h-1.2v1.2h1.2v2.5H33.9z
		 M40.1,22.6h-1.2v5h-1.2v-5h-1.2v-1.2h3.8V22.6z"/>
	<path d="M22.6,26.4v-6.2h-1.2v8.8h1.2v-1.2V26.4z"/>
	<path d="M25.1,20.1h16.2v-1.2H22.6v1.2h1.2H25.1z M37.6,21.4h-1.2v1.2h1.2v5h1.2v-5h1.2v-1.2h-1.2H37.6z"/>
	<path d="M41.4,20.1v8.8h1.2v-8.8H41.4z"/>
	<path d="M38.9,28.9H22.6v1.2h8.8v17.5h1.2V30.1h8.8v-1.2h-1.2H38.9z M33.9,22.6h1.2v1.2h-1.2V22.6z M33.9,27.6h1.2v-2.5h-1.2v1.2
		V27.6z"/>
	<path d="M32.6,22.6v-1.2h-1.2v6.2h1.2v-2.5h1.2v-1.2h-1.2V22.6z M27.6,21.4v6.2h2.5v-1.2h-1.2v-1.2h1.2v-1.2h-1.2v-1.2h1.2v-1.2
		h-1.2H27.6z M23.9,21.4v6.2h1.2v-5h1.2v-1.2h-1.2H23.9z"/>
</g>
</svg>
