<svg xmlns="http://www.w3.org/2000/svg" viewBox="0 0 64 64" xmlns:v="https://vecta.io/nano"><path d="M0 0h64v64H0z" fill="none"/><path d="M38 24.5h-3V23h-9v1.5h7.5V26h3v1.5h3V26H38v-1.5zM35 29h-3v-1.5h-4.5V26H17v1.5h-1.5V29h3v-1.5H26V29h4.5v1.5h3V32h3v-1.5H35V29zm-6 3h-4.5v-1.5h-9V32h-3v1.5H11V35h3v-1.5h3V32h6v1.5h4.5V35h3v-1.5H29V32zm-4.5 3h-9v1.5h-3V38H11v1.5h3V38h3v-1.5h6V38h3v-1.5h-1.5V35zM53 35v-1.5h-1.5V32H50v-1.5h-1.5V29H47v-1.5h-3V29h1.5v1.5H47V32h1.5v1.5H50V35h1.5v1.5H53V38h1.5v-3H53z" fill="#965c43"/><g fill="#462300"><path d="M54.5 32v-1.5H50V32h1.5v1.5H53V35h1.5v3H53v-1.5h-1.5V35H50v-1.5h-1.5V32H47v-1.5h-1.5V29H44v-1.5h3V29h1.5v1.5H53V29h-1.5v-1.5H50V26h-4.5v-1.5H44V23h-4.5v-1.5h-15V23H20v1.5h-1.5V26h9v1.5H32V29h3v1.5h1.5V32h-3v-1.5h-3V29H26v-1.5h-7.5V29h-3v-1.5H17V26h-3v1.5h-1.5V29H11v1.5H9.5V32H8v12h1.5v-1.5h3V41h3v-1.5h3V38H23v-1.5h-6V38h-3v1.5h-3V38h1.5v-1.5h3V35h9v1.5H26V38h1.5v-1.5H32V35h3v-1.5h3V32h1.5v-1.5H41V29h1.5v1.5H44V32h1.5v1.5H47V35h1.5v1.5H50V38h1.5v1.5H53V41h1.5v1.5H56V32h-1.5zM29 35h-1.5v-1.5H23V32h-6v1.5h-3V35h-3v-1.5h1.5V32h3v-1.5h9V32H29v1.5h1.5V35H29zm-3-10.5V23h9v1.5h3V26h1.5v1.5h-3V26h-3v-1.5H26z"/><path d="M29 21.5h9V20H26v1.5h3z"/></g><g fill="#301800"><path d="M41,29h1.5v1.5H41V29z"/><path d="M42.5,30.5H44V32h-1.5V30.5z"/><path d="M44,32h1.5v1.5H44V32z"/><path d="M45.5,33.5H47V35h-1.5V33.5z"/><path d="M47,35h1.5v1.5H47V35z"/><path d="M48.5,36.5H50V38h-1.5V36.5z"/><path d="M50,38h1.5v1.5H50V38z"/><path d="M51.5 39.5H53V41h-1.5v-1.5zm-12-9H41V32h-1.5v-1.5z"/><path d="M38,32h1.5v1.5H38V32z"/><path d="M35 33.5V35h3v-1.5h-3z"/><path d="M32 35v1.5h3V35h-3z"/><path d="M29 36.5h-1.5V38H32v-1.5h-3z"/><path d="M24.5 38h-6v1.5h9V38h-3z"/><path d="M15.5 39.5V41h-3v1.5h3V41h3v-1.5h-3zm-7.5 3h0V32h1.5v-1.5h-3v15h3V44H8v-1.5z"/><path d="M9.5 42.5V44h3v-1.5h-3zM11 29h1.5v-1.5h-3v3H11V29z"/><path d="M14,26h4.5v-1.5h-6v3H14V26z"/><path d="M20 23h4.5v-1.5h-6v3H20V23zm19.5 0H44v1.5h1.5v-3h-6V23z"/><path d="M47,26h3v1.5h1.5V29H53v1.5h1.5v-3h-3v-3h-6V26H47z"/><path d="M56 30.5h-1.5V32H56v10.5h-1.5V41H53v1.5h1.5v3h3v-15H56zM26 20h12v1.5h1.5v-3h-15v3H26V20z"/></g></svg>