<svg xmlns="http://www.w3.org/2000/svg" viewBox="0 0 64 64" xmlns:v="https://vecta.io/nano"><path d="M0 0h64v64H0z" fill="none"/><g fill="#c67ebb"><path d="M24.5 31.2v1.5H26v-3h-1.5v1.5z"/><path d="M23 31.2v-1.5h-3v3h1.5v1.5h3v-1.5H23v-1.5zm19.5-1.4v3H44v-3h-1.5z"/><path d="M41,31.2v-1.5h-3v3h1.5v1.5h3v-1.5H41V31.2z"/></g><g fill="#a73796"><path d="M17 29.8h1.5v1.5H17v-1.5zm0 3h1.5v1.5H17v-1.5zm10.5-3H29v1.5h-1.5v-1.5z"/><path d="M29 31.2h1.5v1.5H29v-1.5zm-7.5-1.4h6v-1.5h-9v1.5h3zm-6 1.4H17v1.5h-1.5v-1.5zm12 1.6H29v1.5h-1.5v-1.5z"/><path d="M24.5 34.2h-6v1.5h9v-1.5h-3zM35 29.8h1.5v1.5H35v-1.5zm0 3h1.5v1.5H35v-1.5zm10.5-3H47v1.5h-1.5v-1.5z"/><path d="M47 31.2h1.5v1.5H47v-1.5zm-7.5-1.4h6v-1.5h-9v1.5h3zm-6 1.4H35v1.5h-1.5v-1.5zm12 1.6H47v1.5h-1.5v-1.5z"/><path d="M42.5 34.2h-6v1.5h9v-1.5h-3z"/></g></svg>