<svg xmlns="http://www.w3.org/2000/svg" viewBox="0 0 64 64" xmlns:v="https://vecta.io/nano"><g fill="none"><path d="M0 0h64v64H0z"/><path d="M50,30.5h-3V32h4.5v-1.5H50z"/></g><g fill="#f3410a"><path d="M27.5,32v9H29V30.5h-1.5V32z"/><path d="M26,41h1.5v1.5H26V41z"/><path d="M23 42.5H9.5V44H26v-1.5h-3zM36.5 41H38v1.5h-1.5V41z"/><path d="M36.5 38v-7.5H35V41h1.5v-3zM8 38V21.5h1.5V23h3v1.5h3V26h3v1.5h3V29h3v1.5h3V29H26v-1.5h-3V26h-3v-1.5h-3V23h-3v-1.5h-3V20H6.5v21H8v-3z"/><path d="M56 20h-3v1.5h-3V23h-3v1.5h-3V26h-3v1.5h-3V29h-1.5v1.5h3V29h3v-1.5h3V26h3v-1.5h3V23h3v-1.5H56V41h1.5V20H56zM8 41h1.5v1.5H8V41z"/><path d="M54.5,41H56v1.5h-1.5V41z"/><path d="M51.5 42.5H38V44h16.5v-1.5h-3z"/></g><path d="M24.5 30.5V29h-3v-1.5h-3V26h-3v-1.5h-3V23h-3v-1.5H8V41h1.5v1.5H26V41h1.5V30.5h-3zm30-9V23h-3v1.5h-3V26h-3v1.5h-3V29h-3v1.5h-3V41H38v1.5h16.5V41H56V21.5h-1.5zm-6 9h3V32H47v-1.5h1.5zm-16.5 6h-3v3h6v-3h-3zm0-4.5h-3v3h6v-3h-3z"/></svg>