<svg xmlns="http://www.w3.org/2000/svg" viewBox="0 0 64 64" xmlns:v="https://vecta.io/nano"><path d="M0 0h64v64H0z" fill="none"/><path d="M49.5 42h-1.2v5h2.5v-5h-1.3zm-36.3 0v5h2.5v-5h-2.5z" fill="#ffc500"/><g fill="#8e9397"><path d="M49.5 33.2h-3.8v-8.8h-2.5v8.8h-7.5V19.5h-2.5v13.8h-2.5V19.5h-2.5v13.8h-7.5v-8.8h-2.5v8.8h-5V42h2.5v-3.8h32.5V42h2.5v-8.8h-1.2z"/><path d="M43.2 22h-2.5v2.5h2.5V22zm-20 2.5V22h-2.5v2.5h2.5z"/></g><path d="M55.8 27v-2.5h-2.5V27h2.5zm-2.6 10V27h-2.5v-2.5h-2.5V22h-5v2.5h2.5v8.8h5V47h2.5v-7.5h2.5V37h-2.5zm2.6-5v5h2.5v-5h-2.5z"/><path d="M59.5 22h-3.8v2.5h2.5V32h2.5V22h-1.2zm-38.7 0h-5v2.5h-2.5V27h-2.5v10H8.2v2.5h2.5V47h2.5V33.2h5v-8.8h2.5V22z"/><path d="M40.8 24.5V22h2.5v-2.5h-5V17H25.8v2.5h-5V22h2.5v2.5h-2.5v8.8h7.5V19.5h2.5v13.8h2.5V19.5h2.5v13.8h7.5v-8.8h-2.5zM8.2 27h2.5v-2.5H8.2V27zm0 7.5V32H5.8v5h2.5v-2.5z"/><path d="M5.8 29.5v-5h2.5V22h-5v10h2.5v-2.5z"/><path d="M57 24.5h-1.2V27h-2.5v10h2.5v-5h2.5v-7.5H57zM8.2 27v-2.5H5.8V32h2.5v5h2.5V27H8.2z" fill="#fff"/></svg>