<svg xmlns="http://www.w3.org/2000/svg" viewBox="0 0 64 64" xmlns:v="https://vecta.io/nano"><path d="M0 0h64v64H0z" fill="none"/><g fill="#c22b2a"><path d="M9.5 34.5v1.2H8.2v3.8h2.5V32H9.5v2.5z"/><path d="M9.5 24.5H8.2v5H7v5H5.8v1.2H4.5v3.8H7v-3.8h1.2V32h1.2v-1.2h1.2v-7.5H9.5v1.2zm6.3 13.7v1.2h2.5v-1.2h-2.5zm3.7 0v1.2H22v-1.2h-2.5zm22.5 0v1.2h2.5v-1.2H42zm3.8 0v1.2h2.5v-1.2h-2.5zm-17.6 0v1.2h2.5v-1.2h-2.5zm5 0v1.2h2.5v-1.2h-2.5zm21.3-3.7V32h-1.2v7.5h2.5v-3.8h-1.2v-1.2z"/><path d="M58.2,35.8v-1.2H57v-5h-1.2v-5h-1.2v-1.2h-1.2v7.5h1.2V32h1.2v3.8H57v3.8h2.5v-3.8H58.2z"/></g><g fill="#7d0019"><path d="M9.5 30.8h1.2V32H9.5v-1.2zm-1.3 2.4v2.5h1.2V32H8.2v1.2zm11.3 6.3v-1.2h-1.2v1.2h-2.5v1.2H22v-1.2h-2.5zm26.3 0v-1.2h-1.2v1.2H42v1.2h6.2v-1.2h-2.4zm-12.6 0v-1.2h-2.5v1.2h-2.5v1.2h7.5v-1.2h-2.5z"/><path d="M7 37v2.5H4.5v-3.8h1.2v-1.2H3.2v6.2h7.5v-1.2H8.2v-3.8H7V37zm0-3.8v-3.8h1.2v-5H7v3.8H5.8v6.2H7v-1.2zm46.2-2.4h1.2V32h-1.2v-1.2zm2.6 2.4V32h-1.2v3.8h1.2v-2.6zm2.4-1.2v-3.8H57v-3.8h-1.2v5H57v5h1.2V32z"/><path d="M59.5,34.5h-1.2v1.2h1.2v3.8H57v-3.8h-1.2v3.8h-2.5v1.2h7.5v-6.2H59.5z"/></g></svg>