<svg xmlns="http://www.w3.org/2000/svg" viewBox="0 0 64 64" xmlns:v="https://vecta.io/nano"><path d="M0 0h64v64H0z" fill="none"/><path d="M36,34h-2v4h4v-4H36z" fill="#c0642e"/><path d="M36,26h-2v-4h-4v4h-4v4h-4v4h4v4h4v-4h4v-4h4v-4H36z" fill="#8e9397"/><path d="M44,42v-2h-2v-2h-2v-4h-2v4h-4v2h4v2h2v2h2v2h4v-4H44z"/><path d="M34 30v4h4v-4h-4z"/><path d="M38 30h4v-4h-4v4z"/><path d="M34 26h4v-4h-4v4z"/><path d="M34 22v-4h-4v4h4z"/><path d="M30 26v-4h-4v4h4z"/><path d="M26 30v-4h-4v4h4zm0 8v4h4v-4h-4z"/><path d="M26 34h-4v4h4v-4z"/><path d="M22 30h-4v4h4v-4zm12 4h-4v4h4v-4z"/></svg>