<svg xmlns="http://www.w3.org/2000/svg" viewBox="0 0 256 256.001"><defs><linearGradient id="prefix__linear-gradient" x1=".843" x2=".206" y1=".135" y2=".886" gradientUnits="objectBoundingBox"><stop offset="0" stop-color="#b6509e"/><stop offset="1" stop-color="#2ebac6"/></linearGradient><style>.prefix__cls-2{fill:#3b3735}.prefix__cls-4{fill:#959190}</style></defs><g id="prefix__Group_17812" data-name="Group 17812" transform="translate(-20 -20)"><path id="prefix__Subtraction_108" fill="url(#prefix__linear-gradient)" d="M128 256a128.976 128.976 0 01-25.8-2.6 127.309 127.309 0 01-45.77-19.261 128.366 128.366 0 01-46.375-56.315A127.357 127.357 0 012.6 153.8a129.251 129.251 0 010-51.593 127.31 127.31 0 0119.26-45.77 128.372 128.372 0 0156.317-46.378A127.33 127.33 0 01102.2 2.6a129.244 129.244 0 0151.593 0 127.308 127.308 0 0145.77 19.26 128.367 128.367 0 0146.375 56.316A127.343 127.343 0 01253.4 102.2a129.248 129.248 0 010 51.593 127.3 127.3 0 01-19.26 45.77 128.382 128.382 0 01-56.316 46.375A127.4 127.4 0 01153.8 253.4 128.977 128.977 0 01128 256zm0-242.287a115.145 115.145 0 00-23.033 2.322A113.657 113.657 0 0064.1 33.232a114.622 114.622 0 00-41.4 50.283 113.7 113.7 0 00-6.659 21.452 115.4 115.4 0 000 46.065 113.66 113.66 0 0017.2 40.866 114.627 114.627 0 0050.282 41.407 113.75 113.75 0 0021.453 6.658 115.381 115.381 0 0046.065 0 113.609 113.609 0 0040.866-17.2 114.622 114.622 0 0041.393-50.278 113.741 113.741 0 006.659-21.453 115.4 115.4 0 000-46.065 113.662 113.662 0 00-17.2-40.865A114.619 114.619 0 00172.485 22.7a113.74 113.74 0 00-21.453-6.659A115.145 115.145 0 00128 13.714z" data-name="Subtraction 108" transform="translate(20 20)"/><g id="prefix__ETH" transform="translate(85.371 49.714)"><path id="prefix__Path_2995" d="M155.4 72.338v48.6L215.463 36.3z" class="prefix__cls-2" data-name="Path 2995" transform="translate(-89.872 75.636)"/><path id="prefix__Path_2996" d="M213.279 111.9L155.4 15.8v69.892z" class="prefix__cls-2" data-name="Path 2996" transform="translate(-89.872 -15.8)"/><path id="prefix__Path_2997" fill="#1f1d19" d="M155.4 29.6v59.517l57.333-33.308z" data-name="Path 2997" transform="translate(-89.872 45.735)"/><path id="prefix__Path_2998" d="M143.8 111.9l57.879-96.1v69.892z" class="prefix__cls-4" data-name="Path 2998" transform="translate(-141.615 -15.8)"/><path id="prefix__Path_2999" fill="#403c3a" d="M201.233 29.6v59.517L143.9 55.809z" data-name="Path 2999" transform="translate(-141.174 45.735)"/><path id="prefix__Path_3000" d="M203.463 72.338v48.6L143.4 36.3z" class="prefix__cls-4" data-name="Path 3000" transform="translate(-143.4 75.636)"/></g></g></svg>