<svg xmlns="http://www.w3.org/2000/svg" width="292" height="292" viewBox="0 0 292 292"><defs><linearGradient id="linear-gradient" x1=".843" x2=".206" y1=".135" y2=".886" gradientUnits="objectBoundingBox"><stop offset="0" stop-color="#b6509e"/><stop offset="1" stop-color="#2ebac6"/></linearGradient><filter id="Ellipse_1585" width="292" height="292" x="0" y="0" filterUnits="userSpaceOnUse"><feOffset dy="1"/><feGaussianBlur result="blur" stdDeviation="6"/><feFlood flood-opacity=".161"/><feComposite in2="blur" operator="in"/><feComposite in="SourceGraphic"/></filter><style>.cls-1{fill:#fff}.cls-3{fill:#26ddf9}</style></defs><g id="Group_35820" transform="translate(18 17)"><g filter="url(#Ellipse_1585)" transform="translate(-18 -17)"><circle id="Ellipse_1585-2" cx="128" cy="128" r="128" class="cls-1" transform="translate(18 17)"/></g><g id="Group_26317"><path id="Subtraction_108" fill="url(#linear-gradient)" d="M128 256a128.976 128.976 0 01-25.8-2.6 127.309 127.309 0 01-45.77-19.261 128.366 128.366 0 01-46.375-56.315A127.357 127.357 0 012.6 153.8a129.251 129.251 0 010-51.593 127.31 127.31 0 0119.26-45.77 128.372 128.372 0 0156.317-46.378A127.33 127.33 0 01102.2 2.6a129.244 129.244 0 0151.593 0 127.308 127.308 0 0145.77 19.26 128.367 128.367 0 0146.375 56.316A127.343 127.343 0 01253.4 102.2a129.248 129.248 0 010 51.593 127.3 127.3 0 01-19.26 45.77 128.382 128.382 0 01-56.316 46.375A127.4 127.4 0 01153.8 253.4 128.977 128.977 0 01128 256zm0-242.287a115.145 115.145 0 00-23.033 2.322A113.657 113.657 0 0064.1 33.232a114.622 114.622 0 00-41.4 50.283 113.7 113.7 0 00-6.659 21.452 115.4 115.4 0 000 46.065 113.66 113.66 0 0017.2 40.866 114.627 114.627 0 0050.282 41.407 113.75 113.75 0 0021.453 6.658 115.381 115.381 0 0046.065 0 113.609 113.609 0 0040.866-17.2 114.622 114.622 0 0041.393-50.278 113.741 113.741 0 006.659-21.453 115.4 115.4 0 000-46.065 113.662 113.662 0 00-17.2-40.865A114.619 114.619 0 00172.485 22.7a113.74 113.74 0 00-21.453-6.659A115.145 115.145 0 00128 13.714z"/></g><g id="Group_26314" transform="translate(30 30)"><circle id="Ellipse_1465" cx="98" cy="98" r="98" class="cls-1"/><path id="Path_9374" d="M131.987 2a42.452 42.452 0 00-41.944 37.678A42.191 42.191 0 10136.5 86.139 42.191 42.191 0 00131.987 2zm32.3 46.964a32.862 32.862 0 01-27.53 27.536V48.964zM62.255 76.854a32.864 32.864 0 0127.537-27.537v27.537zm64.612 9.538a32.656 32.656 0 01-64.613 0zm.352-37.427v27.889H99.328v-27.89zm37.075-9.538H99.68a32.656 32.656 0 0164.613 0z" class="cls-3" transform="translate(-14.922 35.441)"/><path id="Subtraction_208" d="M98 196a98.724 98.724 0 01-19.75-1.991 97.465 97.465 0 01-35.042-14.746A98.285 98.285 0 017.7 136.146a97.506 97.506 0 01-5.71-18.4 98.955 98.955 0 010-39.5 97.464 97.464 0 0114.747-35.039A98.286 98.286 0 0159.854 7.7a97.507 97.507 0 0118.4-5.71 98.955 98.955 0 0139.5 0 97.464 97.464 0 0135.042 14.746A98.286 98.286 0 01188.3 59.854a97.507 97.507 0 015.71 18.4 98.955 98.955 0 010 39.5 97.464 97.464 0 01-14.746 35.042 98.285 98.285 0 01-43.118 35.504 97.506 97.506 0 01-18.4 5.71A98.724 98.724 0 0198 196zM98 3.062a95.639 95.639 0 00-19.133 1.929A94.417 94.417 0 0044.92 19.276a95.216 95.216 0 00-34.4 41.77 94.462 94.462 0 00-5.529 17.821 95.863 95.863 0 000 38.266 94.416 94.416 0 0014.285 33.947 95.216 95.216 0 0041.77 34.4 94.463 94.463 0 0017.821 5.532 95.864 95.864 0 0038.266 0 94.416 94.416 0 0033.947-14.285 95.215 95.215 0 0034.4-41.77 94.463 94.463 0 005.532-17.821 95.864 95.864 0 000-38.266 94.417 94.417 0 00-14.288-33.95 95.216 95.216 0 00-41.77-34.4 94.461 94.461 0 00-17.821-5.532A95.64 95.64 0 0098 3.062z" class="cls-3"/></g></g></svg>