<svg xmlns="http://www.w3.org/2000/svg" viewBox="0 0 256 256.001"><defs><linearGradient id="prefix__linear-gradient" x1=".843" x2=".206" y1=".135" y2=".886" gradientUnits="objectBoundingBox"><stop offset="0" stop-color="#b6509e"/><stop offset="1" stop-color="#2ebac6"/></linearGradient><linearGradient id="prefix__linear-gradient-2" x1=".854" x2=".146" y1=".146" y2=".854" gradientUnits="objectBoundingBox"><stop offset="0" stop-color="#ff2d55"/><stop offset="1" stop-color="#ffbc5b"/></linearGradient><linearGradient id="prefix__linear-gradient-3" x1=".5" x2=".5" y2="1" gradientUnits="objectBoundingBox"><stop offset="0" stop-color="#a524b3"/><stop offset="1" stop-color="#ff2d55"/></linearGradient><style>.prefix__cls-3,.prefix__cls-4{fill-rule:evenodd}.prefix__cls-3{fill:url(#prefix__linear-gradient-3)}.prefix__cls-4{fill:#fff}.prefix__cls-8{fill:#ffc95b}</style></defs><g id="prefix__Group_17817" data-name="Group 17817" transform="translate(-20 -20)"><path id="prefix__Subtraction_108" fill="url(#prefix__linear-gradient)" d="M128 256a128.976 128.976 0 01-25.8-2.6 127.309 127.309 0 01-45.77-19.261 128.366 128.366 0 01-46.375-56.315A127.357 127.357 0 012.6 153.8a129.251 129.251 0 010-51.593 127.31 127.31 0 0119.26-45.77 128.372 128.372 0 0156.317-46.378A127.33 127.33 0 01102.2 2.6a129.244 129.244 0 0151.593 0 127.308 127.308 0 0145.77 19.26 128.367 128.367 0 0146.375 56.316A127.343 127.343 0 01253.4 102.2a129.248 129.248 0 010 51.593 127.3 127.3 0 01-19.26 45.77 128.382 128.382 0 01-56.316 46.375A127.4 127.4 0 01153.8 253.4 128.977 128.977 0 01128 256zm0-242.287a115.145 115.145 0 00-23.033 2.322A113.657 113.657 0 0064.1 33.232a114.622 114.622 0 00-41.4 50.283 113.7 113.7 0 00-6.659 21.452 115.4 115.4 0 000 46.065 113.66 113.66 0 0017.2 40.866 114.627 114.627 0 0050.282 41.407 113.75 113.75 0 0021.453 6.658 115.381 115.381 0 0046.065 0 113.609 113.609 0 0040.866-17.2 114.622 114.622 0 0041.393-50.278 113.741 113.741 0 006.659-21.453 115.4 115.4 0 000-46.065 113.662 113.662 0 00-17.2-40.865A114.619 114.619 0 00172.485 22.7a113.74 113.74 0 00-21.453-6.659A115.145 115.145 0 00128 13.714z" data-name="Subtraction 108" transform="translate(20 20)"/><g id="prefix__MANA" transform="translate(49.714 49.714)"><circle id="prefix__Ellipse_1276" cx="98.285" cy="98.285" r="98.285" fill="url(#prefix__linear-gradient-2)" data-name="Ellipse 1276"/><path id="prefix__Path_7567" d="M125.7 0v73.647h61.373z" class="prefix__cls-3" data-name="Path 7567" transform="translate(-56.128 63.828)"/><path id="prefix__Path_7568" d="M16.7 203.647h61.373V130z" class="prefix__cls-4" data-name="Path 7568" transform="translate(-8.501 -66.172)"/><path id="prefix__Path_7569" fill="#fc9965" fill-rule="evenodd" d="M40 320a100.569 100.569 0 0019.639 19.639h117.836A100.569 100.569 0 00197.114 320z" data-name="Path 7569" transform="translate(-20.361 -162.886)"/><path id="prefix__Path_7570" fill="#ff2d55" fill-rule="evenodd" d="M80 360a98.2 98.2 0 00117.835 0z" data-name="Path 7570" transform="translate(-40.722 -183.247)"/><path id="prefix__Path_7571" d="M252.3 0v54.008h45.023z" class="prefix__cls-3" data-name="Path 7571" transform="translate(-120.57 103.106)"/><path id="prefix__Path_7572" fill="#ffbc5b" fill-rule="evenodd" d="M140.231 280H16.7a97.778 97.778 0 0011.44 19.639h112.14V280z" data-name="Path 7572" transform="translate(-8.501 -142.525)"/><path id="prefix__Path_7573" d="M176.7 264.008h44.974V210z" class="prefix__cls-4" data-name="Path 7573" transform="translate(-89.944 -106.894)"/><circle id="prefix__Ellipse_1277" cx="24.549" cy="24.549" r="24.549" class="prefix__cls-8" data-name="Ellipse 1277" transform="translate(107.181 39.278)"/><circle id="prefix__Ellipse_1278" cx="12.275" cy="12.275" r="12.275" class="prefix__cls-8" data-name="Ellipse 1278" transform="translate(57.298 24.549)"/></g></g></svg>