<svg xmlns="http://www.w3.org/2000/svg" xmlns:xlink="http://www.w3.org/1999/xlink" id="Group_30024" width="256" height="256.001" data-name="Group 30024" viewBox="0 0 256 256.001"><defs><linearGradient id="linear-gradient" x1=".843" x2=".206" y1=".135" y2=".886" gradientUnits="objectBoundingBox"><stop offset="0" stop-color="#b6509e"/><stop offset="1" stop-color="#2ebac6"/></linearGradient><linearGradient id="linear-gradient-2" x1=".5" x2=".5" y1="4.774" y2="-3.581" gradientUnits="objectBoundingBox"><stop offset="0" stop-color="#08021e"/><stop offset="1" stop-color="#1f0777"/></linearGradient><linearGradient id="linear-gradient-4" x1=".5" x2=".5" y1="1.988" y2="-6.367" xlink:href="#linear-gradient-2"/><linearGradient id="linear-gradient-6" x1=".5" x2=".5" y1="1.004" y2="-.458" xlink:href="#linear-gradient-2"/><style>.cls-2{fill:url(#linear-gradient-2)}.cls-3{fill:url(#linear-gradient-4)}.cls-5{fill:#00d1ff}.cls-6{fill:#fff}</style></defs><path id="Subtraction_108" fill="url(#linear-gradient)" d="M128 256a128.976 128.976 0 01-25.8-2.6 127.309 127.309 0 01-45.77-19.261 128.366 128.366 0 01-46.375-56.315A127.357 127.357 0 012.6 153.8a129.251 129.251 0 010-51.593 127.31 127.31 0 0119.26-45.77 128.372 128.372 0 0156.317-46.378A127.33 127.33 0 01102.2 2.6a129.244 129.244 0 0151.593 0 127.308 127.308 0 0145.77 19.26 128.367 128.367 0 0146.375 56.316A127.343 127.343 0 01253.4 102.2a129.248 129.248 0 010 51.593 127.3 127.3 0 01-19.26 45.77 128.382 128.382 0 01-56.316 46.375A127.4 127.4 0 01153.8 253.4 128.977 128.977 0 01128 256zm0-242.287a115.145 115.145 0 00-23.033 2.322A113.657 113.657 0 0064.1 33.232a114.622 114.622 0 00-41.4 50.283 113.7 113.7 0 00-6.659 21.452 115.4 115.4 0 000 46.065 113.66 113.66 0 0017.2 40.866 114.627 114.627 0 0050.282 41.407 113.75 113.75 0 0021.453 6.658 115.381 115.381 0 0046.065 0 113.609 113.609 0 0040.866-17.2 114.622 114.622 0 0041.393-50.278 113.741 113.741 0 006.659-21.453 115.4 115.4 0 000-46.065 113.662 113.662 0 00-17.2-40.865A114.619 114.619 0 00172.485 22.7a113.74 113.74 0 00-21.453-6.659A115.145 115.145 0 00128 13.714z" data-name="Subtraction 108"/><g id="Group_30023" data-name="Group 30023" transform="translate(4942 19852)"><g id="Group_30019" data-name="Group 30019" transform="translate(-4912 -19822)"><g id="Group_30018" data-name="Group 30018"><path id="Path_10400" d="M305.093 81c-9.911 0-18.438 3.925-25.708 12.016l-18.2 22.284H294l6.1-7.418.03-.033a9.18 9.18 0 017.112-3.284H341.4A98.126 98.126 0 00325.936 81z" class="cls-2" data-name="Path 10400" transform="translate(-154.534 -47.925)"/><path id="Path_10401" d="M56.7 104.565a9.187 9.187 0 017.113 3.284l.031.036L69.9 115.3h14.109l9.343-11.4-8.8-10.751C77.269 84.958 68.785 81 58.978 81H37.84a98.1 98.1 0 00-15.462 23.565z" class="cls-2" data-name="Path 10401" transform="translate(-13.24 -47.925)"/><path id="Path_10402" d="M300.585 322.513l-.06-.063-6.1-7.45h-32.788l18.16 22.158c7.181 8.18 15.659 12.142 25.565 12.142H326.2a98.183 98.183 0 0015.525-23.7h-34.22a9.188 9.188 0 01-6.92-3.087z" class="cls-3" data-name="Path 10402" transform="translate(-154.802 -186.375)"/><path id="Path_10403" d="M58.752 349.3c9.9 0 18.43-3.963 25.7-12.148L102.613 315h-32.9l-5.989 7.312-.062.066a9.44 9.44 0 01-7.053 3.218H22.22a98.1 98.1 0 0015.527 23.7z" class="cls-3" data-name="Path 10403" transform="translate(-13.147 -186.375)"/><path id="Path_10404" fill="url(#linear-gradient-6)" d="M122.813 152.633L100.8 125.767h40.179l6.9 8.429a6.345 6.345 0 004.827 2.171h35.5a98.273 98.273 0 00-.059-76.869h-35.441a6.332 6.332 0 00-4.96 2.306l-6.925 8.429h-40.2l22.055-27q11.662-13.015 27.88-13.015h18.215a97.992 97.992 0 00-141.548 0h18.515q16.084 0 27.747 13.15l10.321 12.606-11.684 14.259H55.3L48.419 61.8a6.333 6.333 0 00-4.96-2.306H7.857a98.274 98.274 0 00-.057 76.869h35.658a6.591 6.591 0 004.96-2.306l6.789-8.29H95.5l-22.015 26.866q-11.662 13.152-27.88 13.15H27.226a97.992 97.992 0 00141.548 0h-18.215q-16.218 0-27.746-13.15z" data-name="Path 10404"/><path id="Path_10405" d="M268.483 87.015l-22.055 27h40.2l6.925-8.429a6.332 6.332 0 014.96-2.306h35.437q-.617-1.442-1.282-2.858H298.51a9.187 9.187 0 00-7.113 3.284l-.028.033-6.1 7.418h-32.82l18.2-22.284c7.27-8.091 15.8-12.016 25.708-12.016H317.2Q315.918 75.4 314.577 74h-18.215q-16.217 0-27.879 13.015z" class="cls-5" data-name="Path 10405" transform="translate(-145.803 -43.783)"/><path id="Path_10406" d="M296.61 345.16c-9.9 0-18.382-3.963-25.566-12.142l-18.158-22.158h32.787l6.1 7.45.06.063a9.19 9.19 0 006.924 3.086h34.218q.659-1.418 1.277-2.856h-35.5a6.348 6.348 0 01-4.827-2.171l-6.9-8.431h-40.177l22.016 26.866q11.527 13.153 27.746 13.153h18.215q1.344-1.4 2.626-2.859z" class="cls-5" data-name="Path 10406" transform="translate(-146.051 -182.234)"/><path id="Path_10407" d="M59.8 105.587l6.886 8.429h16.821l11.684-14.26L84.87 87.15Q73.208 74 57.123 74H38.611q-1.343 1.4-2.626 2.858h21.138c9.806 0 18.291 3.958 25.572 12.147l8.8 10.751-9.343 11.4H68.045l-6.058-7.415-.031-.036a9.187 9.187 0 00-7.113-3.284H20.522c-.441.945-.87 1.9-1.28 2.858h35.6a6.334 6.334 0 014.958 2.308z" class="cls-5" data-name="Path 10407" transform="translate(-11.385 -43.783)"/><path id="Path_10408" d="M84.782 334.866L106.8 308H66.5l-6.789 8.29a6.589 6.589 0 01-4.96 2.306H19.093c.41.963.838 1.914 1.277 2.859h34.385a9.44 9.44 0 007.053-3.218l.062-.066 5.989-7.312h32.9l-18.153 22.152c-7.275 8.186-15.8 12.148-25.7 12.148H35.9q1.287 1.453 2.626 2.859H56.9q16.22.001 27.882-13.152z" class="cls-5" data-name="Path 10408" transform="translate(-11.297 -182.234)"/></g><path id="Path_10409" d="M107.866 220.651a6.858 6.858 0 001.685 4.939 6.759 6.759 0 005.057 1.765 6.54 6.54 0 004.9-1.8 6.621 6.621 0 001.8-4.9V206.3h10.035v15.562a12.469 12.469 0 01-1.96 7.016 12.249 12.249 0 01-5.684 4.586 23.1 23.1 0 01-9.095 1.608 23.1 23.1 0 01-9.094-1.608 12.125 12.125 0 01-7.683-11.721V206.3h10.035z" class="cls-6" data-name="Path 10409" transform="translate(-57.883 -122.064)"/><path id="Path_10410" d="M211.619 233.713a32.838 32.838 0 01-10.309-1.608 19.946 19.946 0 01-7.448-4.115l6.467-5.645a18.526 18.526 0 005.332 3.254 17.469 17.469 0 006.545 1.255q6.117 0 6.116-2.236a1.194 1.194 0 00-.667-1.136 6.316 6.316 0 00-2.391-.588l-8.31-.979q-5.372-.668-7.958-2.744a7.5 7.5 0 01-2.548-6.116 7.086 7.086 0 011.8-4.86 11.483 11.483 0 015.331-3.1 28.124 28.124 0 018.389-1.1 36.019 36.019 0 018.9 1.057 21.557 21.557 0 017.251 3.176l-5.527 5.88a13.243 13.243 0 00-4.782-2.47 21.375 21.375 0 00-6.39-.941 10.9 10.9 0 00-3.8.51q-1.292.471-1.293 1.412a1.286 1.286 0 00.745 1.214 9.6 9.6 0 002.862.628l7.173.706a24.89 24.89 0 016.508 1.41 7.212 7.212 0 013.605 2.666 7.827 7.827 0 011.138 4.39 8.231 8.231 0 01-4.431 7.448q-4.39 2.633-12.308 2.632z" class="cls-6" data-name="Path 10410" transform="translate(-114.701 -120.699)"/><path id="Path_10411" d="M318.436 206.3a22.978 22.978 0 018.939 1.567 12.421 12.421 0 015.763 4.586 12.921 12.921 0 012 7.291 13.415 13.415 0 01-2.117 7.487 14.275 14.275 0 01-5.958 5.1 20.627 20.627 0 01-8.859 1.8h-18.466V206.3zm-1.881 21.324a7.982 7.982 0 005.841-2.077 7.418 7.418 0 002.156-5.606 6.657 6.657 0 00-2.117-5.252 8.074 8.074 0 00-5.643-1.922h-7.016v14.856z" class="cls-6" data-name="Path 10411" transform="translate(-177.346 -122.064)"/></g></g></svg>