<svg xmlns="http://www.w3.org/2000/svg" id="Group_33855" width="256" height="256.001" viewBox="0 0 256 256.001"><defs><linearGradient id="linear-gradient" x1=".843" x2=".206" y1=".135" y2=".886" gradientUnits="objectBoundingBox"><stop offset="0" stop-color="#b6509e"/><stop offset="1" stop-color="#2ebac6"/></linearGradient><style>.cls-3,.cls-4{fill:#ff007a}.cls-4{fill-rule:evenodd}</style></defs><g id="Group_26317"><path id="Subtraction_108" fill="url(#linear-gradient)" d="M128 256a128.976 128.976 0 01-25.8-2.6 127.309 127.309 0 01-45.77-19.261 128.366 128.366 0 01-46.375-56.315A127.357 127.357 0 012.6 153.8a129.251 129.251 0 010-51.593 127.31 127.31 0 0119.26-45.77 128.372 128.372 0 0156.317-46.378A127.33 127.33 0 01102.2 2.6a129.244 129.244 0 0151.593 0 127.308 127.308 0 0145.77 19.26 128.367 128.367 0 0146.375 56.316A127.343 127.343 0 01253.4 102.2a129.248 129.248 0 010 51.593 127.3 127.3 0 01-19.26 45.77 128.382 128.382 0 01-56.316 46.375A127.4 127.4 0 01153.8 253.4 128.977 128.977 0 01128 256zm0-242.287a115.145 115.145 0 00-23.033 2.322A113.657 113.657 0 0064.1 33.232a114.622 114.622 0 00-41.4 50.283 113.7 113.7 0 00-6.659 21.452 115.4 115.4 0 000 46.065 113.66 113.66 0 0017.2 40.866 114.627 114.627 0 0050.282 41.407 113.75 113.75 0 0021.453 6.658 115.381 115.381 0 0046.065 0 113.609 113.609 0 0040.866-17.2 114.622 114.622 0 0041.393-50.278 113.741 113.741 0 006.659-21.453 115.4 115.4 0 000-46.065 113.662 113.662 0 00-17.2-40.865A114.619 114.619 0 00172.485 22.7a113.74 113.74 0 00-21.453-6.659A115.145 115.145 0 00128 13.714z"/></g><g id="Group_33854" transform="translate(30 30.004)"><circle id="Ellipse_1587" cx="98" cy="98" r="98" fill="#fff"/><path id="Subtraction_259" d="M98 196a98.562 98.562 0 01-19.751-1.992 97.418 97.418 0 01-35.043-14.745A98.278 98.278 0 017.7 136.148a97.493 97.493 0 01-5.71-18.4 98.963 98.963 0 010-39.5 97.482 97.482 0 0114.746-35.039A98.274 98.274 0 0159.853 7.7a97.341 97.341 0 0118.4-5.711 98.9 98.9 0 0139.5 0 97.481 97.481 0 0135.041 14.746 98.279 98.279 0 0135.5 43.118 97.51 97.51 0 015.71 18.395 98.957 98.957 0 010 39.5 97.462 97.462 0 01-14.745 35.042 98.3 98.3 0 01-43.113 35.51 97.429 97.429 0 01-18.4 5.709A98.55 98.55 0 0198 196zM98 2.3a96.386 96.386 0 00-19.288 1.943 95.166 95.166 0 00-34.222 14.4A95.97 95.97 0 009.815 60.751a95.229 95.229 0 00-5.576 17.964 96.636 96.636 0 000 38.576 95.191 95.191 0 0014.4 34.22 95.979 95.979 0 0042.108 34.673 95.2 95.2 0 0017.965 5.576 96.685 96.685 0 0038.575 0 95.181 95.181 0 0034.221-14.4 95.98 95.98 0 0034.674-42.106 95.188 95.188 0 005.577-17.963 96.642 96.642 0 000-38.576 95.2 95.2 0 00-14.4-34.222 95.994 95.994 0 00-42.107-34.674 95.31 95.31 0 00-17.964-5.576A96.373 96.373 0 0098 2.3z" class="cls-3" transform="translate(.001 -.002)"/><g id="Group_33853" transform="translate(43.208 37.633)"><path id="Path_10841" d="M95.962 60.117c-1.543-.239-1.608-.267-.882-.379a23.965 23.965 0 016.943.616c5.287 1.257 10.1 4.476 15.232 10.193l1.364 1.519 1.952-.314a41.176 41.176 0 0123.582 2.961 30.517 30.517 0 015.338 3.114 8.284 8.284 0 01.492 2.074c.52 3.445.26 6.085-.793 8.057a2.112 2.112 0 00-.221 2.331 2.255 2.255 0 002.015 1.274c1.739 0 3.61-2.813 4.477-6.723l.344-1.553.683.773c3.742 4.24 6.682 10.022 7.187 14.138l.131 1.074-.629-.976a12.049 12.049 0 00-3.563-3.744c-2.511-1.661-5.165-2.227-12.2-2.6-6.35-.334-9.944-.877-13.508-2.039-6.063-1.977-9.119-4.61-16.322-14.059a68.833 68.833 0 00-7.143-8.39 25.531 25.531 0 00-14.479-7.347z" class="cls-3" transform="translate(-63.249 -52.837)"/><path id="Path_10842" d="M167.368 70.284a17.087 17.087 0 011.308-6.362 6.868 6.868 0 01.632-1.219 4.16 4.16 0 01-.293 1.1 14.443 14.443 0 00-.265 6.509c.487 3.32.764 3.8 4.273 7.385 1.646 1.682 3.56 3.8 4.254 4.714l1.262 1.656-1.262-1.184a53.735 53.735 0 00-5.877-4.673c-.525-.271-.6-.266-.928.057-.3.3-.362.744-.4 2.856a15.958 15.958 0 01-1.6 7.518c-.585 1.143-.678.9-.148-.391.4-.963.436-1.386.433-4.573-.007-6.4-.767-7.943-5.225-10.58a49.274 49.274 0 00-4.135-2.141 15.631 15.631 0 01-2.021-.987 43.069 43.069 0 016.224 1.816c2.6 1 3.033 1.131 3.349 1.01.213-.08.315-.695.419-2.511z" class="cls-3" transform="translate(-79.693 -53.634)"/><path id="Path_10843" d="M98.825 81.641a26.085 26.085 0 01-4.652-15.87l.13-1.53.713.13a17.9 17.9 0 014.73 1.76c2.967 1.8 4.251 4.175 5.558 10.267.383 1.784.886 3.8 1.116 4.488a30.325 30.325 0 002.921 5.34c.824 1.2.277 1.772-1.543 1.608-2.78-.251-6.545-2.849-8.973-6.193z" class="cls-3" transform="translate(-63.114 -54.036)"/><path id="Path_10844" d="M158.735 123.526c-14.641-5.895-19.8-11.012-19.8-19.646a13.971 13.971 0 01.1-2.31 11.105 11.105 0 011.259.932c2.969 2.381 6.294 3.4 15.5 4.741a64.038 64.038 0 0111.276 2.361c8.936 2.964 14.465 8.978 15.784 17.17a28.328 28.328 0 01-.463 9.2c-.491 1.858-1.987 5.208-2.383 5.336-.11.036-.218-.386-.246-.96a11.868 11.868 0 00-4.315-8.314c-2.974-2.554-6.962-4.585-16.712-8.51z" class="cls-3" transform="translate(-74.86 -63.819)"/><path id="Path_10845" d="M140.747 133.146a26.087 26.087 0 00-.707-3.1l-.374-1.114.694.779a12.483 12.483 0 012.362 4.294 9.327 9.327 0 01.542 4.1 9.164 9.164 0 01-.519 3.968 12.536 12.536 0 01-3.09 4.915c-2.674 2.722-6.113 4.229-11.075 4.854-.863.108-3.377.292-5.587.407-5.57.29-9.236.888-12.529 2.045a2.646 2.646 0 01-.939.224c-.134-.132 2.109-1.469 3.962-2.361 2.612-1.258 5.212-1.945 11.037-2.915 2.878-.48 5.85-1.061 6.6-1.293 7.132-2.185 10.796-7.823 9.623-14.803z" class="cls-3" transform="translate(-67.151 -70.99)"/><path id="Path_10846" d="M160.261 146.279a16.966 16.966 0 01-1.326-11.985c.114-.4.3-.732.407-.732a3.949 3.949 0 011.021.552c.9.6 2.694 1.62 7.484 4.231 5.977 3.259 9.384 5.782 11.7 8.665a18.844 18.844 0 013.89 8.907 30.338 30.338 0 01-.368 8.766 21.763 21.763 0 01-10.669 14.15 13.959 13.959 0 01-1.557.773 5.757 5.757 0 01.632-1.607 14.456 14.456 0 00.641-11.446c-.829-2.483-2.521-5.514-5.936-10.635-3.969-5.955-4.942-7.539-5.919-9.639z" class="cls-3" transform="translate(-79.953 -72.202)"/><path id="Path_10847" d="M85.832 178.144a39.641 39.641 0 0118.352-8.847 28.64 28.64 0 019.533.369c3.939 1.008 7.463 3.266 9.3 5.957 1.791 2.629 2.559 4.921 3.359 10.018.316 2.011.659 4.031.763 4.487a9.932 9.932 0 003.219 5.815c2.3 1.684 6.264 1.789 10.161.269a5.045 5.045 0 011.276-.4c.142.14-1.821 1.454-3.206 2.146a10.9 10.9 0 01-5.314 1.291c-3.57 0-6.534-1.816-9.007-5.52a43.985 43.985 0 01-2.431-4.85c-2.611-5.956-3.9-7.77-6.932-9.755a8.94 8.94 0 00-8.6-.782 5.572 5.572 0 00-1.892 8.669 7.464 7.464 0 004.2 2.2 4.486 4.486 0 005.077-4.494 3.5 3.5 0 00-2.42-3.594c-2.365-1.067-4.908.181-4.9 2.4a1.992 1.992 0 001.368 1.973c.61.276.624.3.126.195-2.17-.45-2.679-3.067-.933-4.8 2.095-2.085 6.428-1.165 7.916 1.681a7.347 7.347 0 01.153 5.015 6.921 6.921 0 01-8.384 3.99c-2.456-.627-3.456-1.306-6.418-4.357-5.145-5.3-7.143-6.328-14.562-7.486l-1.422-.222z" class="cls-3" transform="translate(-60.519 -81.506)"/><path id="Path_10848" d="M49.136 41.772C66.321 62.629 74.805 69.832 76.12 71.65c1.086 1.5.677 2.851-1.183 3.908a11.281 11.281 0 01-4.227 1.184 5.416 5.416 0 01-3.55-1.518c-.7-.662-3.517-4.872-10.025-14.969-4.979-7.726-9.146-14.136-9.26-14.243-.263-.248-.258-.24 8.752 15.883C62.286 72.019 64.2 75.6 64.2 76.077c0 .973-.266 1.485-1.467 2.825-2 2.234-2.9 4.743-3.543 9.938-.724 5.822-2.761 9.935-8.405 16.974-3.3 4.121-3.845 4.876-4.678 6.537a12.06 12.06 0 00-1.456 5.9 18.379 18.379 0 00.97 7.266 26.016 26.016 0 003.519 6.968c1.72 2.664 2.71 4.643 2.71 5.418 0 .616.118.617 2.783.015 6.378-1.44 11.557-3.973 14.47-7.077a6.689 6.689 0 002.24-5.616 5.48 5.48 0 00-.517-3.073c-.758-1.612-2.137-2.953-5.178-5.032-3.984-2.724-5.686-4.916-6.156-7.931-.386-2.474.062-4.22 2.266-8.84 2.281-4.781 2.847-6.819 3.229-11.639.247-3.113.589-4.342 1.484-5.327.933-1.028 1.773-1.376 4.082-1.691 3.765-.514 6.162-1.488 8.132-3.3a7.061 7.061 0 002.535-5.378l.08-1.734-.956-1.114C76.883 66.133 46.82 38.6 46.607 38.6c-.046 0 1.093 1.428 2.529 3.172zm4.652 79.641a3.062 3.062 0 00-.942-4.035c-1.236-.822-3.156-.435-3.156.636 0 .327.181.565.588.774.686.353.736.75.2 1.561s-.5 1.544.124 2.034c1.007.792 2.437.357 3.186-.97z" class="cls-4" transform="translate(-44.616 -38.601)"/><path id="Path_10849" d="M103.548 109.98a6.636 6.636 0 00-4.017 4.38 6.235 6.235 0 00.346 3.949c.785 1.049 1.544 1.325 3.6 1.311 4.025-.028 7.524-1.754 7.931-3.913.334-1.769-1.2-4.22-3.32-5.3a7.874 7.874 0 00-4.54-.427zm4.705 3.679a1.632 1.632 0 00-.706-2.479c-2.011-1.228-5.05-.212-5.05 1.687 0 .945 1.585 1.977 3.038 1.977a3.925 3.925 0 002.718-1.185z" class="cls-4" transform="translate(-64.49 -65.98)"/></g></g></svg>