<svg xmlns="http://www.w3.org/2000/svg" id="Group_45699" width="256" height="256.001" viewBox="0 0 256 256.001">
    <defs>
        <linearGradient id="linear-gradient" x1=".843" x2=".206" y1=".135" y2=".886" gradientUnits="objectBoundingBox">
            <stop offset="0" stop-color="#b6509e"/>
            <stop offset="1" stop-color="#2ebac6"/>
        </linearGradient>
        <style>
            .cls-3{fill:#2bbdf7}.cls-3,.cls-4,.cls-5{fill-rule:evenodd}.cls-4{fill:#2891f9}.cls-5{fill:#2b6def}
        </style>
    </defs>
    <circle id="Ellipse_1585" cx="128" cy="128" r="128" fill="#fff"/>
    <path id="Subtraction_108" fill="url(#linear-gradient)" d="M128 256a128.976 128.976 0 0 1-25.8-2.6 127.309 127.309 0 0 1-45.77-19.261 128.366 128.366 0 0 1-46.375-56.315A127.357 127.357 0 0 1 2.6 153.8a129.251 129.251 0 0 1 0-51.593 127.31 127.31 0 0 1 19.26-45.77 128.372 128.372 0 0 1 56.317-46.378A127.33 127.33 0 0 1 102.2 2.6a129.244 129.244 0 0 1 51.593 0 127.308 127.308 0 0 1 45.77 19.26 128.367 128.367 0 0 1 46.375 56.316A127.343 127.343 0 0 1 253.4 102.2a129.248 129.248 0 0 1 0 51.593 127.3 127.3 0 0 1-19.26 45.77 128.382 128.382 0 0 1-56.316 46.375A127.4 127.4 0 0 1 153.8 253.4 128.977 128.977 0 0 1 128 256zm0-242.287a115.145 115.145 0 0 0-23.033 2.322A113.657 113.657 0 0 0 64.1 33.232a114.622 114.622 0 0 0-41.4 50.283 113.7 113.7 0 0 0-6.659 21.452 115.4 115.4 0 0 0 0 46.065 113.66 113.66 0 0 0 17.2 40.866 114.627 114.627 0 0 0 50.282 41.407 113.75 113.75 0 0 0 21.453 6.658 115.381 115.381 0 0 0 46.065 0 113.609 113.609 0 0 0 40.866-17.2 114.622 114.622 0 0 0 41.393-50.278 113.741 113.741 0 0 0 6.659-21.453 115.4 115.4 0 0 0 0-46.065 113.662 113.662 0 0 0-17.2-40.865A114.619 114.619 0 0 0 172.485 22.7a113.74 113.74 0 0 0-21.453-6.659A115.145 115.145 0 0 0 128 13.714z"/>
    <g id="matic_cryptocurrency_logo_icon_131424" transform="translate(52 68)">
        <path id="Path_12969" d="M187.763 145.554l17.012 37.727 25.319-14.6.019-.008v-29.209z" class="cls-3" transform="translate(-128.773 -95.648)"/>
        <path id="Path_12970" d="M355.459 53.773l-15.8-5.953-16.89-1.364v90.786l25.338 14.6 20-40.929-12.617-39.572z" class="cls-4" transform="translate(-221.361 -31.861)"/>
        <path id="Path_12971" d="M408.945 46.553l-5.869 14.6h-.008v90.775l25.342-14.6V46.553z" class="cls-3" transform="translate(-276.435 -31.927)"/>
        <path id="Path_12972" d="M348.108 0l-25.342 14.611 25.342 14.607 25.342-14.607z" class="cls-5" transform="translate(-221.361)"/>
        <path id="Path_12973" d="M76.019 90.273v-.008L50.681 61.913 0 46.456v90.775l25.335 14.607 7.24-50.238 18.106 3.289v-.015l25.342 14.6V90.273z" class="cls-4" transform="translate(0 -31.861)"/>
        <path id="Path_12974" d="M25.35 0L0 14.607 76.011 58.44 87.5 51.82l13.852-7.991z" class="cls-5"/>
        <path id="Path_12975" d="M80.7 185.92v61.561l25.342-14.6v-32.354z" class="cls-3" transform="translate(-55.34 -127.509)"/>
    </g>
</svg>
