<svg xmlns="http://www.w3.org/2000/svg" viewBox="0 0 50 26"  xmlns:v="https://vecta.io/nano"><g enable-background="new"><path d="M34 16h1v1h-1z" fill="#ecd3fc"/><g fill="#de37e4"><path d="M34 17h1v1h-1z"/><path d="M35 16h1v1h-1zm-2 0h1v1h-1z"/><path d="M34 15h1v1h-1zm-10-1h2v1h-2z"/></g><g fill="#303030"><path d="M29 24h1v1h-1zm-9 0h1v1h-1zm19-1h1v1h-1zm-4 0h1v1h-1zm-4 0h1v1h-1zm-13 0h1v1h-1zm-4 0h1v1h-1zm-4 0h1v1h-1zm27-1h1v1h-1zm-4 0h1v1h-1zm-4 0h1v1h-1zm-9 0h1v1h-1zm-4 0h1v1h-1zm-4 0h1v1h-1zm27-1h1v1h-1zm-4 0h1v1h-1zm-4 0h1v1h-1zm-13 0h1v1h-1zm-4 0h1v1h-1zm-4 0h1v1h-1zm27-1h1v1h-1zm-4 0h1v1h-1zm-4 0h1v1h-1zm-9 0h1v1h-1zm-4 0h1v1h-1zm-4 0h1v1h-1zm27-1h1v1h-1zm-4 0h1v1h-1zm-4 0h1v1h-1zm-13 0h1v1h-1zm-4 0h1v1h-1zm-4 0h1v1h-1zm27-1h1v1h-1zm-8 0h1v1h-1zm-9 0h1v1h-1zm-4 0h1v1h-1zm-4 0h1v1h-1zm27-1h1v1h-1zm-4 0h1v1h-1zm-2 0h1v2h-1zm-2 0h1v1h-1zm-13 0h1v1h-1zm-4 0h1v1h-1zm-4 0h1v1h-1zm27-1h1v1h-1zm-8 0h1v1h-1zm-9 0h1v1h-1zm-4 0h1v1h-1zm-4 0h1v1h-1zm27-1h1v1h-1zm-4 0h1v1h-1zm-4 0h1v1h-1zm-6 0v1h1v1h-1v1h1v1h-1v1h1v1h-1v1h1v1h-1v1h-1v-1h1v-1h-1v-1h1v-1h-1v-1h1v-1h-1v-1h1v-1h-1v-1h-1v2h-1v1h1v7h4v-7h1v-1h-1v-2zm-7 0h1v1h-1zm-4 0h1v1h-1zm-4 0h1v1h-1z"/><path d="M37 14h1v1h-1zm-4 0h1v2h-1zm-17 0h1v1h-1zm-4 0h1v1h-1zm27-1h1v1h-1zm-4 0h1v1h-1zm-13 0v2h1v-1h4v1h1v-2zm-8 0h1v1h-1zm-4 0h1v1h-1zm27-1h1v1h-1zm-25 0h1v1h-1zm27-1h1v1h-1zm-29 0h1v1h-1zm30-8h1v1h-1z"/><path d="M9 3h1v1H9zm32-1h1v1h-1z"/><path d="M8 2h1v1H8z"/></g><g fill="#2a2a2a"><path d="M22 13h-1v-1h-1v-1h-1v-1h-1V9h-1V8h-2V7h-1V6h-1V5h-1V4h-1V3h-1v1H9V3H8v23h4v-1h5v1h5v-1h1v-7h-1v-1h1v-2h-1v-2zm-3 3h-1v-1h1v1zm0 2h-1v-1h1v1zm2 3h-1v-1h1v1zm0 2h-1v-1h1v1zm-2 1h-1v-1h1v1zm-6-1h-1v-1h1v1zm-2 1h-1v-1h1v1zm-1-3h1v1h-1v-1zm0-2h1v1h-1v-1zm0-2h1v1h-1v-1zm0-2h1v1h-1v-1zm0-2h1v1h-1v-1zm0-2h1v1h-1v-1zm7 4h-1v-1h1v1zm0 2h-1v-1h1v1zm0 2h-1v-1h1v1zm2 3h-1v-1h1v1zm-2-1h-1v-1h1v1zm-4 0h-1v-1h1v1zm-1-3h1v1h-1v-1zm0-2h1v1h-1v-1zm0-2h1v1h-1v-1zm0-2h1v1h-1v-1zm3 2h-1v-1h1v1zm0 2h-1v-1h1v1zm0 2h-1v-1h1v1zm-1 1h1v1h-1v-1zm0 2h1v1h-1v-1zm2 1h1v1h-1v-1zm3-2h-1v-1h1v1zm-5 4v-1h1v1h-1zm6 1v-1h1v1h-1zm1-6h-1v-1h1v1zm-1-2v-1h1v1h-1zM40 4V3h-1v1h-1v1h-1v1h-1v1h-1v1h-2v1h-1v1h-1v1h-1v1h-1v1h-1v2h-1v2h1v1h-1v7h1v1h5v-1h5v1h4V3h-1v1h-1zm0 8h-1v-1h1v1zm0 2h-1v-1h1v1zm0 2h-1v-1h1v1zm0 2h-1v-1h1v1zm0 2h-1v-1h1v1zm0 2h-1v-1h1v1zm0 2h-1v-1h1v1zm-6-1h-1v-1h1v1zm-2 1h-1v-1h1v1zm-3-2h1v1h-1v-1zm0-2h1v1h-1v-1zm2-1h1v1h-1v-1zm0-2h1v1h-1v-1zm7-4h-1v-1h1v1zm0 2h-1v-1h1v1zm0 2h-1v-1h1v1zm0 2h-1v-1h1v1zm0 2h-1v-1h1v1zm-4 0h-1v-1h1v1zm-2 1h-1v-1h1v1zm1-8h1v1h2v3h-2v1h-1v-5zm3 0h-1v-1h1v1zm-1 5h1v1h-1v-1zm-4-4h1v1h-1v-1zm4 6h1v1h-1v-1zm2 1h1v1h-1v-1zm-8-6h1v1h-1v-1zm1 2v1h-1v-1h1zm-1 7v-1h1v1h-1zm6-1v-1h1v1h-1z"/><path d="M40 2h1v1h-1zM9 2h1v1H9z"/><path d="M41 1h1v1h-1zM8 1h1v1H8z"/></g><g fill="#414040"><path d="M24 23h1v1h-1z"/><path d="M25 22h1v1h-1z"/><path d="M24 21h1v1h-1z"/><path d="M25 20h1v1h-1z"/><path d="M24 19h1v1h-1z"/><path d="M25 18h1v1h-1z"/><path d="M24 17h1v1h-1z"/><path d="M25 16h1v1h-1z"/><path d="M24 15h1v1h-1zm2-1h1v1h-1z"/><path d="M23 14h1v1h-1zm5-2h1v1h-1z"/><path d="M21 12h1v1h-1zm8-1h1v1h-1z"/><path d="M20 11h1v1h-1zm10-1h1v1h-1z"/><path d="M19 10h1v1h-1zm12-1h1v1h-1z"/><path d="M18 9h1v1h-1zm14-1h1v1h-1z"/><path d="M17 8h1v1h-1zm16-1h2v1h-2z"/><path d="M15 7h2v1h-2zm20-1h1v1h-1z"/><path d="M14 6h1v1h-1zm22-1h1v1h-1z"/><path d="M13 5h1v1h-1zm24-1h1v1h-1z"/><path d="M12 4h1v1h-1zm26-1h1v1h-1z"/><path d="M11 3h1v1h-1zm28-1h1v1h-1z"/><path d="M10 2h1v1h-1zm30-1h1v1h-1z"/><path d="M9 1h1v1H9zm32-1h1v1h-1z"/><path d="M8 0h1v1H8z"/></g></g><g fill="#de37e4"><path d="M3 12h1v1H3z"/><path d="M2 11h1v1H2z"/><path d="M1 10h1v1H1zm6-8h1v1H7z"/></g><g fill="#303030"><path d="M4 11h1v1H4z"/><path d="M3 10h1v1H3z"/><path d="M4 9h1v1H4zm3-6h1v1H7zM5 3h1v1H5z"/><path d="M6 2h1v1H6z"/><path d="M7 1h1v1H7z"/></g><g fill="#414040"><path d="M3 3v1H2v1h6V4H4V3z"/><path d="M4 2h1v1H4z"/><path d="M5 1h1v1H5z"/><path d="M6 0h2v1H6z"/></g><g fill="#2a2a2a"><path d="M3 11h1v1H3z"/><path d="M6 5v1H5v1H3v1H1v1H0v4h1v1h4v-1h2v-1h1V5H6zm-2 7v1H3v-1H2v-1H1v-1h1v1h1v-1h1V9h1v1H4v1h1v1H4zm2-9h1v1H6zM4 3h1v1H4z"/><path d="M5 2h1v1H5z"/><path d="M6 1h1v1H6z"/></g><g fill="#de37e4"><path d="M46 12h1v1h-1z"/><path d="M47 11h1v1h-1z"/><path d="M48 10h1v1h-1zm-6-8h1v1h-1z"/></g><g fill="#303030"><path d="M45 11h1v1h-1z"/><path d="M46 10h1v1h-1z"/><path d="M45 9h1v1h-1zm-3-6h1v1h-1zm2 0h1v1h-1z"/><path d="M43 2h1v1h-1z"/><path d="M42 1h1v1h-1z"/></g><g fill="#414040"><path d="M47 3v1h1v1h-6V4h4V3z"/><path d="M45 2h1v1h-1z"/><path d="M44 1h1v1h-1z"/><path d="M42 0h2v1h-2z"/></g><g fill="#2a2a2a"><path d="M46 11h1v1h-1z"/><path d="M42 5v7h1v1h2v1h4v-1h1V9h-1V8h-2V7h-2V6h-1V5h-2zm3 7v-1h1v-1h-1V9h1v1h1v1h1v-1h1v1h-1v1h-1v1h-1v-1h-1zm-2-9h1v1h-1zm2 0h1v1h-1z"/><path d="M44 2h1v1h-1z"/><path d="M43 1h1v1h-1z"/></g></svg>