<svg xmlns="http://www.w3.org/2000/svg" viewBox="0 0 40 20"><path d="M39 2V1h-1V0h-4v1h-1v1h-1v1h-1v1h-1v1h-1v1h-2v1h-3v1h-8V7h-3V6h-2V5h-1V4H9V3H8V2H7V1H6V0H2v1H1v1H0v7h2V8h1v12h34V8h1v1h2V2h-1z" fill="#bc20d2"/><path d="M34 1v1h-1v1h-1v1h-1v1h-1v1h-1v1h-2v1h-3v1h-8V8h-3V7h-2V6h-1V5H9V4H8V3H7V2H6V1H4v18h32V1h-2zm4 1V1h-1v6h1v1h1V2h-1zM2 2H1v6h1V7h1V1H2v1z" fill="#4c0067"/><path d="M9.6 11.9v4.3H7.9V11H7v6.1h3.5V11h-.9v.9zm1.8-.9v6.1h.9v-1.7h2.6V11h-3.5zm2.6 3.4h-1.8v-2.6H14v2.6zm9-3.4h-1.7v6.1h.9v-5.2h1.7v5.2h.9V11H23zm-4.3 0H17v6.1h3.5V11h-1.8zm.9 1.7v3.5h-1.7v-4.3h1.7v.8zM32.1 11v3.5h-1.7V11h-.9v4.3h1.3V17h.9v-1.7H33V11h-.9zm-4.7 5.2h-.9V11h-.9v6.1h3.5v-.9h-1.7z" fill="#fff"/></svg>