<svg xmlns="http://www.w3.org/2000/svg" viewBox="0 0 40 20"><path d="M39 2V1h-1V0h-4v1h-1v1h-1v1h-1v1h-1v1h-1v1h-2v1h-3v1h-8V7h-3V6h-2V5h-1V4H9V3H8V2H7V1H6V0H2v1H1v1H0v7h2V8h1v12h34V8h1v1h2V2h-1z" fill="#58595b"/><path d="M34 1v1h-1v1h-1v1h-1v1h-1v1h-1v1h-2v1h-3v1h-8V8h-3V7h-2V6h-1V5H9V4H8V3H7V2H6V1H4v18h32V1h-2zm4 1V1h-1v6h1v1h1V2h-1zM2 2H1v6h1V7h1V1H2v1z"/><path d="M23 12v-1h-1v-1h-4v1h-1v1h-1v4h1v1h1v1h4v-1h1v-1h1v-4h-1zm-2 2h-1v-1h1v1z" fill="#8bc53f"/><path d="M22 12v-1h-4v1h-1v3h1v-2h1v-1h2v1h1v2h-1v2h1v-1h1v-4h-1z" fill="#f9e988"/><g fill="#fff"><path d="M22 12h1v1h-1z"/><path d="M21 11h1v1h-1zm-2 2h1v1h-1z"/></g></svg>