<svg xmlns="http://www.w3.org/2000/svg" viewBox="0 0 50 22"><path d="M49 5V4h-2V3h-2V2h-1V1h-1V0h-3v1h-1v1h-1v1h-1v1h-2v1h-2v1H17V5h-2V4h-2V3h-1V2h-1V1h-1V0H7v1H6v1H5v1H3v1H1v1H0v4h1v1h4V9h2V8h1v14h4v-2h4v2h7v-2h4v2h7v-2h4v2h4V8h1v1h2v1h4V9h1V5h-1z"/><path d="M38 3v1h-1v1h-2v1h-2v2h6V3h-1zm0 4h-2V6h2v1zm-6 1V7h-2v1h2zm-4 0h1V7h-8v1h7zm-8 0V7h-2v1h2zm-3 0V6h-2V5h-2V4h-1V3h-1v5h6zm-4-1h-1V6h2v1h-1zm7 12h-3v1h5v-1h-2zm11 0h-3v1h5v-1h-2zm-20-8v9h1v-2h1v-7h-2zm10 0h-5v7h1v-6h5v6h1v-7h-2zm11 0h-5v7h1v-6h5v6h1v-7h-2zm5 0v7h1v2h1v-9h-2z" fill="#969696"/><path d="M40 2v6h1V1h-1v1zM9 2v6h1V1H9v1zm5 10v6h1v-7h-1v1zm21 0v6h1v-7h-1v1zm-15 6h-3v1h5v-1h-2zm11 0h-3v1h5v-1h-2zm-11-6h-3v1h5v-1h-2zm11 0h-3v1h5v-1h-2zm-11 2h-3v1h5v-1h-2zm11 0h-3v1h5v-1h-2zM9 12v8h1v-9H9v1zm11 4h-3v1h5v-1h-2zm20-4v8h1v-9h-1v1zm-9 4h-3v1h5v-1h-2zm-7-5v7h2v-7h-2zm24-6h-1V4h-1v5h3V5h-1zM3 5H1v4h3V4H3v1z" fill="#e1e1e1"/><path d="M33 9v1h2V9h-2zM21 9v1h2V9h-2zm6 0v1h2V9h-2zM15 9v1h2V9h-2zM9 9v1h2V9H9zm30 0v1h2V9h-2zm5-6v5h1V3h-1zM5 4v4h1V3H5v1z" fill="#00f0ff"/><path d="M24 9v1h2V9h-2zm-6 0v1h2V9h-2zm12 0v1h2V9h-2zM12 9v1h2V9h-2zm24 0v1h2V9h-2zm6-8v6h1V1h-1zM7 2v5h1V1H7v1z" fill="#f500eb"/></svg>