<svg xmlns="http://www.w3.org/2000/svg" viewBox="0 0 50 22"><path d="M49 5V4h-2V3h-2V2h-1V1h-1V0h-3v1h-1v1h-1v1h-1v1h-2v1h-2v1H17V5h-2V4h-2V3h-1V2h-1V1h-1V0H7v1H6v1H5v1H3v1H1v1H0v4h1v1h4V9h2V8h1v14h4v-2h5v2h5v-2h6v2h5v-2h5v2h4V8h1v1h2v1h4V9h1V5h-1z"/><path d="M5 4v4h1V3H5v1zm2-2v5h1V1H7zM4 4H3v1H1v4h3V4zm44 1h-1V4h-1v5h3V5h-1zm-8-3h-1v1h-1v1h-1v1h-2v1h-2v1H17V6h-2V5h-2V4h-1V3h-1V2h-1V1H9v19h3v-2h5v-4h1v4h-1v2h5v-2h-1v-3h1v3h2v-2h2v2h2v-3h1v3h-1v2h5v-2h-1v-4h1v4h5v2h3V1h-1zm5 2V3h-1v5h1V4zm-3-2v5h1V1h-1z" fill="#fff"/><g fill="#00adef"><path d="M21 19h-3v-1h-1v2h5v-2h-1v1zm11-1v1h-3v-1h-1v2h5v-2h-1zm-12-2h1v1h-1v-1z"/><path d="M19,17h1v1h-1V17z"/><path d="M18 16h1v1h-1v-1zm13 0h1v1h-1v-1z"/><path d="M30,17h1v1h-1V17z"/><path d="M29,16h1v1h-1V16z"/></g><path d="M10 10v1h2v-1h-1-1zm29 0h-1v1h2v-1h-1z"/><g fill="#00f"><path d="M18 12h1v1h-1v-1zm-2 0h1v1h-1v-1zm-6 0h1v1h-1v-1zm25-3h-1v1h3V9h-1-1z"/><path d="M37 8v1h2V8h-1-1zm-5 2h-2v1h4v-1h-1-1zm8-4h1v1h-1V6z"/><path d="M39 7h1v1h-1V7zm-26 5h-1v2h-1v1h-1v1H9v2h2v-1h1v-1h1v-1h2v-3h-1-1z"/></g><g fill="red"><path d="M33 12h1v1h-1v-1zm-2 0h1v1h-1v-1zm8 0h1v1h-1v-1zM15 9h-2v1h3V9h-1z"/><path d="M12 8h-1v1h2V8h-1zm6 2h-2v1h4v-1h-1-1zM9 6h1v1H9V6z"/><path d="M10 7h1v1h-1V7zm30 9v-1h-1v-1h-1v-2h-3v3h2v1h1v1h1v1h2v-2h-1z"/></g><path d="M29,9V8h-1V7h-6v1h-1v1h-1v5h1v1h1v1h6v-1h1v-1h1V9H29z" fill="#00adef"/><g fill="#fff"><path d="M25.5 12h1v-1h1v-1h-1v1h-2v-1h2V9h-1V8h-1v1h-2v1h1v3h-1v1h2v1h1v-1h1v-1h-2v-1h1z"/><path d="M26.5,12h1v1h-1V12z"/></g></svg>