<svg xmlns="http://www.w3.org/2000/svg" viewBox="0 0 44 23"><path d="M43 3h-1V2h-1V1h-1V0h-5v2h-2v2h-2v2h-2v2h-4v2h-6V8h-4V6h-2V4h-2V2H9V0H4v1H3v1H2v1H0v10h2v-1h2v-1h1v11h13v1h8v-1h13V11h1v1h2v1h2V3h-1z" fill="#762b26"/><path d="M19 13h1v1h-1zm0 4h1v1h-1zm0 2h1v1h-1zm5-2h1v1h-1zm0 2h1v1h-1zm-5 2h1v1h-1zm5 0h1v1h-1zm0-8h1v1h-1zm0 2h1v1h-1zm-8 1H6v1h12v-1h-2zM2 3v9h1V2H2v1zm22 8h1v1h-1zm-5 0h1v1h-1zm0 4h1v1h-1zm17 1H26v1h12v-1h-2zm5-14v10h1V2h-1z" fill="#eeecdf"/><path d="M16 10h-1V8h-2V6h-2V4H9V2H7V0H6v15h12v-5h-2zm0 8H6v2h12v-2h-2zM3 2v10h1V1H3v1zm34-1v1h-2v2h-2v2h-2v2h-2v2h-3v5h12V0h-1v1zm-1 17H26v2h12v-2h-2zm4-17v11h1V1h-1z" fill="#eb564b"/></svg>