<svg xmlns="http://www.w3.org/2000/svg" viewBox="0 0 36 44"><path d="M0 0v32h4v4h4v4h4v4h12v-4h4v-4h4v-4h4V0H0z" fill="#333"/><g fill="#e6e6e6"><path d="M4 4v28h4v-8h4v-2h4v-4h-4v-2H8V8h4v4h4v6h4v-6h4V8h4v8h-4v2h-4v4h4v2h4v8h4V4H4zm6 14v4H8v-4h2zm12-8h-8V8h8v2zm4 12v-4h2v4h-2z"/><path d="M24 32v-4h-4v-6h-4v6h-4v4H8v4h4v4h12v-4h4v-4h-4zm-10-2h8v4h-8v-4z"/></g><g fill="#bfbfbf"><path d="M16 18h-4v-2H8v2h2v4H8v2h4v-2h4v-4zm10 0h2v-2h-4v2h-4v4h4v2h4v-2h-2v-4z"/><path d="M16 22v6h-4v8h12v-8h-4v-6h-4zm6 8v4h-8v-4h8zm-2-12v-6h4V8h-2v2h-8V8h-2v4h4v6h4z"/></g></svg>