<svg xmlns="http://www.w3.org/2000/svg" viewBox="0 0 100 44"><path d="M98 10V8h-4V6h-4V4h-2V2h-2V0h-6v2h-2v2h-2v2h-2v2h-2v2h-4v2h-4v2H36v-2h-4v-2h-4V8h-2V6h-2V4h-2V2h-2V0h-6v2h-2v2h-2v2H6v2H2v2H0v8h2v2h8v4H8v10H4v10h92V34h-4V24h-2v-4h8v-2h2v-8h-2z" fill="#333"/><path d="M72 40h-6v4h10v-4h-4zm-20 0h-8v4h12v-4h-4zm-22 0h-6v4h10v-4h-4zM14 18h-4v6H8v10H4v10h12V16h-2v2zm80 16h-2V24h-2v-6h-4v-2h-2v28h12V34h-2z" fill="#9600bd"/><path d="M6 10H2v8h6V8H6v2zm90 0h-2V8h-2v10h6v-8h-2z" fill="#e6e6e6"/><g fill="#bfbfbf"><path d="M10 8v8h2V6h-2v2zm78-2v10h2V6h-2zM40 34h-4v2h6v-2h-2z"/><path d="M34 38v2h2v-4h-2v2zm8 0v2h2v-4h-2v2zm14 0v2h2v-4h-2v2zm-16-6h2v-2h-6v2h4z"/><path d="M62 34h-4v2h6v-2h-2z"/><path d="M64 38v2h2v-4h-2v2zm-2-6h2v-2h-6v2h4z"/></g><g fill="gray"><path d="M14 4v10h2V2h-2v2zm70-2v12h2V2h-2zM44 22h4v-6H36v-2h-4v-2h-4v-2h-2V8h-2V6h-2v2h-4v2h4v2h-4v2h4v2h-4v2h4v2h-4v2h6v-2h2v2h4v-2h2v2h4v-2h2v2h4v-2h2v2zm-14 8H18v2h4v2h-4v2h4v2h-4v2h6v-4h10v-6h-4zm2 4h-6v-2h6v2z"/><path d="M52 30h-8v6h12v-6h-4zm2 4h-8v-2h8v2zM20 4V2h-2v4h4V4h-2zm60 0h-2v2h4V2h-2v2z"/><path d="M76 8h-2v2h-2v2h-4v2h-4v2H52v6h4v-2h2v2h4v-2h2v2h4v-2h2v2h4v-2h2v2h6v-2h-4v-2h4v-2h-4v-2h4v-2h-4v-2h4V8h-4V6h-2v2zm2 22H66v6h10v4h6v-2h-4v-2h4v-2h-4v-2h4v-2h-4zm-6 4h-4v-2h6v2h-2z"/></g><g fill="#f0f"><path d="M26 24h2v2h-2zm4 0h2v2h-2zm4 0h2v2h-2zm4 0h2v2h-2z"/><path d="M42 24h2v2h-2zm10 0h-6v2h2v2h4v-2h2v-2h-2zm4 0h2v2h-2zm-32 2h2v2h-2z"/><path d="M28 26h2v2h-2zm4 0h2v2h-2zm4 0h2v2h-2zm4 0h2v2h-2zm4 0h2v2h-2zm10 0h2v2h-2zm4 0h2v2h-2zm-38 0h2v2h-2z"/><path d="M22 24h2v2h-2zm-4 0h2v2h-2zm54 0h2v2h-2zm-4 0h2v2h-2z"/><path d="M64 24h2v2h-2zm-4 0h2v2h-2zm14 2h2v2h-2zm-4 0h2v2h-2z"/><path d="M66 26h2v2h-2zm-4 0h2v2h-2zm16 0h2v2h-2z"/><path d="M76 24h2v2h-2zm4 0h2v2h-2zm12 12v-2h-2v-8h-2v-8h-2v-2h-2v12h2v2h2v6h2v6h4v-6h-2z"/><path d="M86 34v-4h-2v12h4v-6h-2v-2zm-14 6v2h4v-2h-4zm-6 0v2h4v-2h-4zm-14 0v2h4v-2h-4zm-8 0v2h4v-2h-4zm-14 0v2h4v-2h-4zm-6 0v2h4v-2h-4zm-10-6v2h-2v6h4V30h-2v4z"/><path d="M14 18h-2v8h-2v8H8v2H6v6h4v-6h2v-6h2v-2h2V16h-2v2z"/></g></svg>