<svg xmlns="http://www.w3.org/2000/svg" viewBox="0 0 84 40"><path d="M82 0h-2v4h-4v4H52V4h-6V0h-8v4h-6v4H8V4H4V0H0v16h4v4h4v16h30v4h2v-2h4v2h2v-4h30V20h4v-4h4V0h-2z" fill="#d2d2d2"/><path d="M48 28v2h-2V0h-2v4h-4V0h-2v30h-2v-4h-2v6h2v4h2v4h2v-2h4v2h2v-4h2v-4h2v-6h-2v2zM40 8V6h4v4h-4V8zm0 6v-2h4v4h-4v-2zm0 6v-2h4v4h-4v-2zm0 6v-2h4v4h-4v-2zm-2 6h2v2h-2v-2zm8 2h-2v-2h2v2zm24-2h-2v4h4v-4h-2zm-10 0v4h4v-4h-4zm-8 0v4h4v-4h-4zm-40 0v4h4v-4h-4zm8 0v4h4v-4h-4zm8 0v4h4v-4h-4z" fill="#828282"/><path d="M74 24h-2v-4h-4v-4h-4v-4h-4V8h-8V4h-6v26h2v-4h2v6h26v-8h-2zM34 4h-2v4h-8v4h-4v4h-4v4h-4v4H8v8h26v-6h2v4h2V4h-4z" fill="#3b2924"/><g fill="#fff"><path d="M76 12v2h4v-2h-4z"/><path d="M80 6v6h2V6h-2zM4 12v2h4v-2H4z"/><path d="M4 8V6H2v6h2V8z"/></g></svg>