<svg xmlns="http://www.w3.org/2000/svg" viewBox="0 0 68 64"><path d="M12 10h2v2h-2z"/><path d="M10 8h2v2h-2z"/><path d="M8 6h2v2H8z"/><path d="M6 4h2v2H6zm48 6h2v2h-2z"/><path d="M56 8h2v2h-2z"/><path d="M58 6h2v2h-2z"/><path d="M60 4h2v2h-2zm6 22v-2h-2v-2h-2v-2h-2v-2h-2v-2h-2v-2h-2v-2h-6v-2h2V6h-2V2h-4V0H24v2h-4v4h-2v4h2v2h-6v2h-2v2h-2v2H8v2H6v2H4v2H2v2H0v38h6V44h16v-2h4v-2h2v-2h2v2h2v2h4v2h26v20h6V26h-2z"/><g fill="red"><path d="M44 10H20v2h28v-2h-4zm-30 2h2v2h-2z"/><path d="M12 10h2v2h-2z"/><path d="M10 8h2v2h-2z"/><path d="M8 6h2v2H8z"/><path d="M6 4h2v2H6zm46 8h2v2h-2z"/><path d="M54 10h2v2h-2z"/><path d="M56 8h2v2h-2z"/><path d="M58 6h2v2h-2z"/><path d="M60 4h2v2h-2zm0 26h-2v-4h-4v4h-4v4h4v4h4v-4h4v-4h-2z"/></g><path d="M56 30h-2v4h4v-4h-2z" fill="#ff0"/></svg>