<svg xmlns="http://www.w3.org/2000/svg" viewBox="0 0 26 60"><g fill="#321227"><path d="M18 4h2v2h-2z"/><path d="M16 6h2v2h-2z"/><path d="M16 10V8h-2v4h2v-2z"/><path d="M14 14v-2h-2v4h2v-2zm4 40h2v2h-2z"/><path d="M16 52h2v2h-2z"/><path d="M16 48h-2v4h2v-4z"/><path d="M14 44h-2v4h2v-4z"/><path d="M24 24h2v-2h-2V0h-2v2h-2v2h2v18H12v-6h-2v6H6v-2H2v2H0v2h2v2h4v-2h4v12H6v-2H2v2H0v2h2v2h4v-2h4v6h2v-6h10v18h-2v2h2v2h2V38h2v-2h-2V24zm-2 12H12V24h10v12z"/><path d="M6 26h2v2H6zm0-8h2v2H6zm0 22h2v2H6zm0-8h2v2H6z"/></g><path d="M22 34h2v-8h-2v8zm0-28v14h2V6h-2zm0 48h2V40h-2v14zm0-30v-2H4v2h18zm0 12H4v2h18v-2z" fill="#b49698"/></svg>