<svg xmlns="http://www.w3.org/2000/svg" viewBox="0 0 104 76"><path d="M16 6h-2V4h-2V2h-2V0H2v2H0v8h2v2H0v4h2v2h2v2h2v2h2v2h2v2h2v2h2v2h2v2h2V8h-2V6zm86-4V0h-8v2h-2v2h-2v2h-2v2h-2v24h2v-2h2v-2h2v-2h2v-2h2v-2h2v-2h2v-2h2v-2h2v-4h-2v-2h2V2h-2zm-2 60h-2v-2h-2v-2h-2v-2h-2v-2h-2v-2h-2v-2h-2v16h2v4h2v2h2v2h8v-2h2v-8h-2v-2zM16 52h-2v2h-2v2h-2v2H8v2H6v2H4v2H2v8h2v2h8v-2h2v-2h2v-4h2V50h-2v2z" fill="gold"/><g fill="#ffee94"><path d="M14 22h-2v-2h-2v-2H8v-2H6v-2H4v-2H2v4h2v2h2v2h2v2h2v2h2v2h2v2h2v2h2v-4h-2v-2h-2v-2z"/><path d="M16 8h-2V6h-2V4h-2V2H2v8h2v2h2v2h2v2h2v2h2v2h2v2h2v2h2V10h-2V8zm82 6v2h-2v2h-2v2h-2v2h-2v2h-2v2h-2v4h2v-2h2v-2h2v-2h2v-2h2v-2h2v-2h2v-2h2v-4h-2v2h-2z"/><path d="M100 2h-6v2h-2v2h-2v2h-2v2h-2v14h2v-2h2v-2h2v-2h2v-2h2v-2h2v-2h2v-2h2V2h-2zm-2 60h-2v-2h-2v-2h-2v-2h-2v-2h-2v-2h-2v14h2v2h2v2h2v2h8v-8h-2v-2zm-82-8h-2v2h-2v2h-2v2H8v2H6v2H4v8h8v-2h2v-2h2v-2h2V52h-2v2z"/></g><g fill="#fff7cd"><path d="M4 14h2v2H4z"/><path d="M6 16h2v2H6z"/><path d="M8 18h2v2H8z"/><path d="M10 20h2v2h-2z"/><path d="M12 22h2v2h-2z"/><path d="M14 24h2v2h-2z"/><path d="M16 26h2v2h-2zm0-14h-2v-2h-2V8h-2V6H8V4H4v4h2v2h2v2h2v2h2v2h2v2h2v2h2v-6h-2v-2zm82 2h2v2h-2z"/><path d="M96 16h2v2h-2z"/><path d="M94 18h2v2h-2z"/><path d="M92 20h2v2h-2z"/><path d="M90 22h2v2h-2z"/><path d="M88 24h2v2h-2z"/><path d="M86 26h2v2h-2zM98 4h-2v2h-2v2h-2v2h-2v2h-2v2h-2v6h2v-2h2v-2h2v-2h2v-2h2v-2h2V8h2V4h-2zm-2 60h-2v-2h-2v-2h-2v-2h-2v-2h-2v6h2v2h2v2h2v2h2v2h4v-4h-2v-2zm-80-6h-2v2h-2v2h-2v2H8v2H6v4h4v-2h2v-2h2v-2h2v-2h2v-6h-2v2z"/></g><g fill="#fffffd"><path d="M6 6h2v2H6z"/><path d="M8 8h2v2H8z"/><path d="M10 10h2v2h-2z"/><path d="M12 12h2v2h-2z"/><path d="M14 14h2v2h-2z"/><path d="M16 16h2v2h-2zM96 6h2v2h-2z"/><path d="M94 8h2v2h-2z"/><path d="M92 10h2v2h-2z"/><path d="M90 12h2v2h-2z"/><path d="M88 14h2v2h-2z"/><path d="M86 16h2v2h-2zm8 50h2v2h-2z"/><path d="M92 64h2v2h-2z"/><path d="M90 62h2v2h-2z"/><path d="M88 60h2v2h-2z"/><path d="M86 58h2v2h-2zM8 66h2v2H8z"/><path d="M10 64h2v2h-2z"/><path d="M12 62h2v2h-2z"/><path d="M14 60h2v2h-2z"/><path d="M16 58h2v2h-2z"/></g><path d="M88 72v-6h-2V44h-2v-2h-4v-2H60v2h-4v2h-8v-2h-4v-2H24v2h-4v2h-2v22h-2v6h-2v4h12v-4h10v4h10v-4h12v4h10v-4h10v4h12v-4h-2z" fill="#0b433d"/><path d="M50 50v2h4v-2h-4zm0 4v2h4v-2h-4zm2-8h-2v2h4v-2h-2z" fill="#ff0"/><g fill="#376560"><path d="M46 50h2v2h-2zm-26 0h2v2h-2zm0-4h2v2h-2zm26 0h2v2h-2z"/><path d="M44 46h2v-2h-2v-2H24v2h-2v2h2v2h-2v2h2v2h-2v2h2v2h20v-2h2v-2h-2v-2h2v-2h-2v-2z"/><path d="M46 54h2v2h-2zm-26 0h2v2h-2zm60-6v-2h2v-2h-2v-2H60v2h-2v2h2v2h-2v2h2v2h-2v2h2v2h20v-2h2v-2h-2v-2h2v-2h-2z"/><path d="M56 50h2v2h-2zm26 0h2v2h-2zm0-4h2v2h-2zm-26 0h2v2h-2zm0 8h2v2h-2zm26 0h2v2h-2z"/></g><path d="M84 66v-8h-2v14h4v-6h-2zm-8-8v10h2v4h2V58h-4zm-4 2v8h2V58h-2v2zm-6-2h-2v14h4v-4h2V58h-4zm-8 0h-2v10h2v4h4V58h-4zm-8 0v10h4V58h-4zm-6 0h-2v14h4v-4h2V58h-4zm-8 0h-2v10h2v4h4V58h-4zm-6 2v8h2V58h-2v2zm-6-2v14h2v-4h2V58h-4zm-4 2v6h-2v6h4V58h-2v2z" fill="#6ca958"/></svg>