<svg xmlns="http://www.w3.org/2000/svg" xmlns:xlink="http://www.w3.org/1999/xlink" width="256" height="256.001" viewBox="0 0 256 256.001">
    <defs>
        <linearGradient id="gfai03xdna" x1=".843" x2=".206" y1=".135" y2=".886" gradientUnits="objectBoundingBox">
            <stop offset="0" stop-color="#b6509e"/>
            <stop offset="1" stop-color="#2ebac6"/>
        </linearGradient>
        <linearGradient id="ckqk98ag8b" x1=".907" x2=".163" y1=".227" y2=".853" xlink:href="#gfai03xdna"/>
    </defs>
    <g>
        <path fill="url(#gfai03xdna)" d="M128 256a128.976 128.976 0 0 1-25.8-2.6 127.309 127.309 0 0 1-45.77-19.261 128.366 128.366 0 0 1-46.375-56.315A127.357 127.357 0 0 1 2.6 153.8a129.251 129.251 0 0 1 0-51.593 127.31 127.31 0 0 1 19.26-45.77 128.372 128.372 0 0 1 56.317-46.378A127.33 127.33 0 0 1 102.2 2.6a129.244 129.244 0 0 1 51.593 0 127.308 127.308 0 0 1 45.77 19.26 128.367 128.367 0 0 1 46.375 56.316A127.343 127.343 0 0 1 253.4 102.2a129.248 129.248 0 0 1 0 51.593 127.3 127.3 0 0 1-19.26 45.77 128.382 128.382 0 0 1-56.316 46.375A127.4 127.4 0 0 1 153.8 253.4 128.977 128.977 0 0 1 128 256zm0-242.287a115.145 115.145 0 0 0-23.033 2.322A113.657 113.657 0 0 0 64.1 33.232a114.622 114.622 0 0 0-41.4 50.283 113.7 113.7 0 0 0-6.659 21.452 115.4 115.4 0 0 0 0 46.065 113.66 113.66 0 0 0 17.2 40.866 114.627 114.627 0 0 0 50.282 41.407 113.75 113.75 0 0 0 21.453 6.658 115.381 115.381 0 0 0 46.065 0 113.609 113.609 0 0 0 40.866-17.2 114.622 114.622 0 0 0 41.393-50.278 113.741 113.741 0 0 0 6.659-21.453 115.4 115.4 0 0 0 0-46.065 113.662 113.662 0 0 0-17.2-40.865A114.619 114.619 0 0 0 172.485 22.7a113.74 113.74 0 0 0-21.453-6.659A115.145 115.145 0 0 0 128 13.714z"/>
    </g>
    <g transform="translate(18 18)">
        <circle cx="98" cy="98" r="98" fill="url(#ckqk98ag8b)" transform="translate(12 12)"/>
        <path fill="#fff" d="M88.527 86.276L55.381 6.168C53.508 2.029 50.739 0 47.074 0h-2.932c-3.665 0-6.434 2.029-8.307 6.168l-14.415 34.9H10.507a5.968 5.968 0 0 0-5.945 5.925v.081A5.968 5.968 0 0 0 10.507 53h5.864L2.607 86.276a7.02 7.02 0 0 0-.407 2.272 6.264 6.264 0 0 0 1.629 4.464 5.716 5.716 0 0 0 4.4 1.7 5.954 5.954 0 0 0 3.421-1.136 7.228 7.228 0 0 0 2.362-3L29.157 53h10.506a5.968 5.968 0 0 0 5.945-5.925v-.162a5.968 5.968 0 0 0-5.945-5.925h-5.62l11.565-28.814 31.518 78.4a7.228 7.228 0 0 0 2.362 3 5.954 5.954 0 0 0 3.421 1.136 5.716 5.716 0 0 0 4.4-1.7 6.264 6.264 0 0 0 1.629-4.464 5.366 5.366 0 0 0-.411-2.27z" transform="translate(64.357 62.768)"/>
    </g>
</svg>
