<svg xmlns="http://www.w3.org/2000/svg" viewBox="0 0 256 256.001"><defs><linearGradient id="prefix__linear-gradient" x1=".843" x2=".206" y1=".135" y2=".886" gradientUnits="objectBoundingBox"><stop offset="0" stop-color="#b6509e"/><stop offset="1" stop-color="#2ebac6"/></linearGradient><style>.prefix__cls-2{fill:#31cb9e}</style></defs><g id="prefix__Group_17819" data-name="Group 17819" transform="translate(-20 -20)"><path id="prefix__Subtraction_108" fill="url(#prefix__linear-gradient)" d="M128 256a128.976 128.976 0 01-25.8-2.6 127.309 127.309 0 01-45.77-19.261 128.366 128.366 0 01-46.375-56.315A127.357 127.357 0 012.6 153.8a129.251 129.251 0 010-51.593 127.31 127.31 0 0119.26-45.77 128.372 128.372 0 0156.317-46.378A127.33 127.33 0 01102.2 2.6a129.244 129.244 0 0151.593 0 127.308 127.308 0 0145.77 19.26 128.367 128.367 0 0146.375 56.316A127.343 127.343 0 01253.4 102.2a129.248 129.248 0 010 51.593 127.3 127.3 0 01-19.26 45.77 128.382 128.382 0 01-56.316 46.375A127.4 127.4 0 01153.8 253.4 128.977 128.977 0 01128 256zm0-242.287a115.145 115.145 0 00-23.033 2.322A113.657 113.657 0 0064.1 33.232a114.622 114.622 0 00-41.4 50.283 113.7 113.7 0 00-6.659 21.452 115.4 115.4 0 000 46.065 113.66 113.66 0 0017.2 40.866 114.627 114.627 0 0050.282 41.407 113.75 113.75 0 0021.453 6.658 115.381 115.381 0 0046.065 0 113.609 113.609 0 0040.866-17.2 114.622 114.622 0 0041.393-50.278 113.741 113.741 0 006.659-21.453 115.4 115.4 0 000-46.065 113.662 113.662 0 00-17.2-40.865A114.619 114.619 0 00172.485 22.7a113.74 113.74 0 00-21.453-6.659A115.145 115.145 0 00128 13.714z" data-name="Subtraction 108" transform="translate(20 20)"/><g id="prefix__KNC" transform="translate(78.971 49.714)"><path id="prefix__Path_8739" d="M20 61.588l73.3 41.989a3.87 3.87 0 005.864-3.343V22.883A3.841 3.841 0 0093.3 19.57z" class="prefix__cls-2" data-name="Path 8739" transform="translate(38.645 36.703)"/><path id="prefix__Path_8740" d="M93.683 37.681L43.572.823A3.988 3.988 0 0037.3 2.935L19 85.036l74.243-41.051a3.695 3.695 0 00.44-6.3" class="prefix__cls-2" data-name="Path 8740" transform="translate(36.713 .001)"/><path id="prefix__Path_8741" d="M43.513 122.3l50.17-36.858a3.753 3.753 0 00-.411-6.392L19 38l18.3 82.1a3.958 3.958 0 006.216 2.258" class="prefix__cls-2" data-name="Path 8741" transform="translate(36.713 73.427)"/><path id="prefix__Path_8742" d="M39.585 94.713l19.06-89.139a3.783 3.783 0 00-5.865-3.841L3.959 39.177A10.116 10.116 0 000 47.241v95a10.116 10.116 0 003.958 8.181l48.586 37.327a3.783 3.783 0 005.864-3.841z" class="prefix__cls-2" data-name="Path 8742" transform="translate(0 2.053)"/></g></g></svg>