<svg xmlns="http://www.w3.org/2000/svg" id="prefix__Group_28183" width="256" height="256.001" data-name="Group 28183" viewBox="0 0 256 256.001"><defs><linearGradient id="prefix__linear-gradient" x1=".843" x2=".206" y1=".135" y2=".886" gradientUnits="objectBoundingBox"><stop offset="0" stop-color="#b6509e"/><stop offset="1" stop-color="#2ebac6"/></linearGradient><style>.prefix__cls-3{fill:#fff}</style></defs><g id="prefix__Group_26317" data-name="Group 26317"><path id="prefix__Subtraction_108" fill="url(#prefix__linear-gradient)" d="M128 256a128.976 128.976 0 01-25.8-2.6 127.309 127.309 0 01-45.77-19.261 128.366 128.366 0 01-46.375-56.315A127.357 127.357 0 012.6 153.8a129.251 129.251 0 010-51.593 127.31 127.31 0 0119.26-45.77 128.372 128.372 0 0156.317-46.378A127.33 127.33 0 01102.2 2.6a129.244 129.244 0 0151.593 0 127.308 127.308 0 0145.77 19.26 128.367 128.367 0 0146.375 56.316A127.343 127.343 0 01253.4 102.2a129.248 129.248 0 010 51.593 127.3 127.3 0 01-19.26 45.77 128.382 128.382 0 01-56.316 46.375A127.4 127.4 0 01153.8 253.4 128.977 128.977 0 01128 256zm0-242.287a115.145 115.145 0 00-23.033 2.322A113.657 113.657 0 0064.1 33.232a114.622 114.622 0 00-41.4 50.283 113.7 113.7 0 00-6.659 21.452 115.4 115.4 0 000 46.065 113.66 113.66 0 0017.2 40.866 114.627 114.627 0 0050.282 41.407 113.75 113.75 0 0021.453 6.658 115.381 115.381 0 0046.065 0 113.609 113.609 0 0040.866-17.2 114.622 114.622 0 0041.393-50.278 113.741 113.741 0 006.659-21.453 115.4 115.4 0 000-46.065 113.662 113.662 0 00-17.2-40.865A114.619 114.619 0 00172.485 22.7a113.74 113.74 0 00-21.453-6.659A115.145 115.145 0 00128 13.714z" data-name="Subtraction 108"/></g><g id="prefix__Group_28182" data-name="Group 28182" transform="translate(2204 18334)"><circle id="prefix__XMLID_5_" cx="98" cy="98" r="98" fill="#0e3158" transform="translate(-2174 -18304)"/><g id="prefix__Group_28180" data-name="Group 28180" transform="translate(-2133.422 -18271.078)"><path id="prefix__Path_10315" d="M17.776 27.342l9.566-5.5 1.283 2.222 35.249-20.34L61.3 2.243 58.71.741 57.427 0 0 33.173v1.481l16.493-9.534z" class="prefix__cls-3" data-name="Path 10315"/><path id="prefix__Path_10316" d="M17.776 47.794L45.4 31.833l1.294 2.243 35.248-20.342-2.577-1.5-2.587-1.481-1.294-.741L0 53.594v1.481l16.493-9.535z" class="prefix__cls-3" data-name="Path 10316" transform="translate(0 .432)"/><path id="prefix__Path_10317" d="M17.776 58.021l36.657-21.177 1.294 2.222L90.976 18.7l-2.587-1.45-2.577-1.513L84.519 15 0 63.8v1.513l16.493-9.535z" class="prefix__cls-3" data-name="Path 10317" transform="translate(0 .648)"/><path id="prefix__Path_10318" d="M17.776 68.226L63.728 41.7l1.294 2.222 34.988-20.2-2.587-1.5-2.577-1.481L93.553 20 0 74.027v1.481l16.493-9.535z" class="prefix__cls-3" data-name="Path 10318" transform="translate(0 .863)"/><path id="prefix__Path_10319" d="M17.776 78.422l54.986-31.734 1.294 2.253 34.988-20.217-2.587-1.492-2.577-1.5-1.294-.741L0 84.232v1.481L16.493 76.2z" class="prefix__cls-3" data-name="Path 10319" transform="translate(0 1.08)"/><path id="prefix__Path_10320" d="M112.914 30.752l-1.294-.762L0 94.459v1.481l16.493-9.514 1.283 2.222 54.986-31.733 1.294 2.222L114.844 35.6v-3.722z" class="prefix__cls-3" data-name="Path 10320" transform="translate(0 1.294)"/><path id="prefix__Path_10321" d="M6.832 101.917l9.253-5.331 1.283 2.222 54.893-31.681 1.294 2.243 41.049-23.7v-7.46L5.57 101.177z" class="prefix__cls-3" data-name="Path 10321" transform="translate(.241 1.65)"/><path id="prefix__Path_10322" d="M71.887 77.137l1.293 2.243 41.049-23.7v-7.46l-100 57.73 1.283.751 9.389-5.425 1.294 2.243" class="prefix__cls-3" data-name="Path 10322" transform="translate(.615 2.084)"/><path id="prefix__Path_10323" d="M24.174 111.5l9.389-5.445 1.294 2.243 36.657-21.171 1.294 2.243 41.049-23.7v-7.46l-91 52.524z" class="prefix__cls-3" data-name="Path 10323" transform="translate(.987 2.515)"/><path id="prefix__Path_10324" d="M32.834 116.28l9.389-5.425 1.294 2.222 27.624-15.94 1.294 2.222 41.049-23.712V68.22L31.54 115.539z" class="prefix__cls-3" data-name="Path 10324" transform="translate(1.362 2.947)"/><path id="prefix__Path_10325" d="M40.2 120.313l1.294.741 9.42-5.425 1.262 2.243 18.59-10.755 1.294 2.253 41.049-23.712V78.21z" class="prefix__cls-3" data-name="Path 10325" transform="translate(1.736 3.378)"/><path id="prefix__Path_10326" d="M50.154 125.858l9.389-5.456 1.294 2.253 9.556-5.55 1.294 2.253 41.049-23.691V88.22l-63.874 36.9z" class="prefix__cls-3" data-name="Path 10326" transform="translate(2.11 3.81)"/><path id="prefix__Path_10327" d="M72.908 8.725l-2.576-1.482-2.588-1.481-1.283-.772L0 43.369v1.481l16.493-9.5 1.283 2.222 18.6-10.734 1.314 2.253z" class="prefix__cls-3" data-name="Path 10327" transform="translate(0 .217)"/></g></g></svg>