<?xml version="1.0" encoding="UTF-8" standalone="no" ?>
<!DOCTYPE svg PUBLIC "-//W3C//DTD SVG 1.1//EN" "http://www.w3.org/Graphics/SVG/1.1/DTD/svg11.dtd">
<svg xmlns="http://www.w3.org/2000/svg" xmlns:xlink="http://www.w3.org/1999/xlink" version="1.1" width="1080" height="1080" viewBox="0 0 1080 1080" xml:space="preserve">
<desc>Created with Fabric.js 4.2.0</desc>
<defs>
</defs>
<g transform="matrix(1 0 0 1 540 540)" id="fa2cef63-84a3-4790-8599-3dcbde00cad1"  >
<rect style="stroke: none; stroke-width: 1; stroke-dasharray: none; stroke-linecap: butt; stroke-dashoffset: 0; stroke-linejoin: miter; stroke-miterlimit: 4; fill: rgb(255,255,255); fill-rule: nonzero; opacity: 1;" vector-effect="non-scaling-stroke"  x="-540" y="-540" rx="0" ry="0" width="1080" height="1080" />
</g>
<g transform="matrix(1 0 0 1 540 540)" id="51e7d918-ce8a-4636-b638-d88531913443"  >
</g>
<g transform="matrix(18.78 0 0 18.78 540 540)"  >
<g style="" vector-effect="non-scaling-stroke"   >
		<g transform="matrix(1 0 0 1 5.5 -2.5)"  >
<path style="stroke: none; stroke-width: 1; stroke-dasharray: none; stroke-linecap: butt; stroke-dashoffset: 0; stroke-linejoin: miter; stroke-miterlimit: 4; fill: rgb(0,0,0); fill-rule: nonzero; opacity: 1;" vector-effect="non-scaling-stroke"  transform=" translate(-37.5, -23)" d="M 37 23 L 37 24 L 38 24 L 38 22 L 37 22 L 37 23 Z" stroke-linecap="round" />
</g>
		<g transform="matrix(1 0 0 1 6.5 -4)"  >
<path style="stroke: none; stroke-width: 1; stroke-dasharray: none; stroke-linecap: butt; stroke-dashoffset: 0; stroke-linejoin: miter; stroke-miterlimit: 4; fill: rgb(0,0,0); fill-rule: nonzero; opacity: 1;" vector-effect="non-scaling-stroke"  transform=" translate(-38.5, -21.5)" d="M 38 21 L 39 21 L 39 22 L 38 22 L 38 21 Z" stroke-linecap="round" />
</g>
		<g transform="matrix(1 0 0 1 5 -0.5)"  >
<path style="stroke: none; stroke-width: 1; stroke-dasharray: none; stroke-linecap: butt; stroke-dashoffset: 0; stroke-linejoin: miter; stroke-miterlimit: 4; fill: rgb(0,0,0); fill-rule: nonzero; opacity: 1;" vector-effect="non-scaling-stroke"  transform=" translate(-37, -25)" d="M 40 22 L 39 22 L 39 24 L 40 24 L 40 23 L 40 22 Z M 36 25 L 34 25 L 34 26 L 35 26 L 35 28 L 36 28 L 36 26 L 38 26 L 38 25 L 37 25 L 37 24 L 36 24 L 36 25 Z" stroke-linecap="round" />
</g>
		<g transform="matrix(1 0 0 1 8.5 -0.5)"  >
<path style="stroke: none; stroke-width: 1; stroke-dasharray: none; stroke-linecap: butt; stroke-dashoffset: 0; stroke-linejoin: miter; stroke-miterlimit: 4; fill: rgb(0,0,0); fill-rule: nonzero; opacity: 1;" vector-effect="non-scaling-stroke"  transform=" translate(-40.5, -25)" d="M 41 24 L 40 24 L 40 26 L 41 26 L 41 25 L 41 24 Z" stroke-linecap="round" />
</g>
		<g transform="matrix(1 0 0 1 6 2.5)"  >
<path style="stroke: none; stroke-width: 1; stroke-dasharray: none; stroke-linecap: butt; stroke-dashoffset: 0; stroke-linejoin: miter; stroke-miterlimit: 4; fill: rgb(0,0,0); fill-rule: nonzero; opacity: 1;" vector-effect="non-scaling-stroke"  transform=" translate(-38, -28)" d="M 42 26 L 41 26 L 41 28 L 42 28 L 42 27 L 42 26 Z M 34 29 L 34 30 L 35 30 L 35 28 L 34 28 L 34 29 Z" stroke-linecap="round" />
</g>
		<g transform="matrix(1 0 0 1 10.5 3.5)"  >
<path style="stroke: none; stroke-width: 1; stroke-dasharray: none; stroke-linecap: butt; stroke-dashoffset: 0; stroke-linejoin: miter; stroke-miterlimit: 4; fill: rgb(0,0,0); fill-rule: nonzero; opacity: 1;" vector-effect="non-scaling-stroke"  transform=" translate(-42.5, -29)" d="M 42 28 L 42 30 L 43 30 L 43 28 L 42 28 Z" stroke-linecap="round" />
</g>
		<g transform="matrix(1 0 0 1 -7.5 -2.5)"  >
<path style="stroke: none; stroke-width: 1; stroke-dasharray: none; stroke-linecap: butt; stroke-dashoffset: 0; stroke-linejoin: miter; stroke-miterlimit: 4; fill: rgb(0,0,0); fill-rule: nonzero; opacity: 1;" vector-effect="non-scaling-stroke"  transform=" translate(-24.5, -23)" d="M 24 23 L 24 24 L 25 24 L 25 22 L 24 22 L 24 23 Z" stroke-linecap="round" />
</g>
		<g transform="matrix(1 0 0 1 -6.5 -4)"  >
<path style="stroke: none; stroke-width: 1; stroke-dasharray: none; stroke-linecap: butt; stroke-dashoffset: 0; stroke-linejoin: miter; stroke-miterlimit: 4; fill: rgb(0,0,0); fill-rule: nonzero; opacity: 1;" vector-effect="non-scaling-stroke"  transform=" translate(-25.5, -21.5)" d="M 25 21 L 26 21 L 26 22 L 25 22 L 25 21 Z" stroke-linecap="round" />
</g>
		<g transform="matrix(1 0 0 1 -8 -0.5)"  >
<path style="stroke: none; stroke-width: 1; stroke-dasharray: none; stroke-linecap: butt; stroke-dashoffset: 0; stroke-linejoin: miter; stroke-miterlimit: 4; fill: rgb(0,0,0); fill-rule: nonzero; opacity: 1;" vector-effect="non-scaling-stroke"  transform=" translate(-24, -25)" d="M 27 22 L 26 22 L 26 24 L 27 24 L 27 23 L 27 22 Z M 23 25 L 21 25 L 21 26 L 22 26 L 22 28 L 23 28 L 23 26 L 25 26 L 25 25 L 24 25 L 24 24 L 23 24 L 23 25 Z" stroke-linecap="round" />
</g>
		<g transform="matrix(1 0 0 1 -4.5 -0.5)"  >
<path style="stroke: none; stroke-width: 1; stroke-dasharray: none; stroke-linecap: butt; stroke-dashoffset: 0; stroke-linejoin: miter; stroke-miterlimit: 4; fill: rgb(0,0,0); fill-rule: nonzero; opacity: 1;" vector-effect="non-scaling-stroke"  transform=" translate(-27.5, -25)" d="M 28 24 L 27 24 L 27 26 L 28 26 L 28 25 L 28 24 Z" stroke-linecap="round" />
</g>
		<g transform="matrix(1 0 0 1 -7 2.5)"  >
<path style="stroke: none; stroke-width: 1; stroke-dasharray: none; stroke-linecap: butt; stroke-dashoffset: 0; stroke-linejoin: miter; stroke-miterlimit: 4; fill: rgb(0,0,0); fill-rule: nonzero; opacity: 1;" vector-effect="non-scaling-stroke"  transform=" translate(-25, -28)" d="M 29 26 L 28 26 L 28 28 L 29 28 L 29 27 L 29 26 Z M 21 29 L 21 30 L 22 30 L 22 28 L 21 28 L 21 29 Z" stroke-linecap="round" />
</g>
		<g transform="matrix(1 0 0 1 -2.5 3.5)"  >
<path style="stroke: none; stroke-width: 1; stroke-dasharray: none; stroke-linecap: butt; stroke-dashoffset: 0; stroke-linejoin: miter; stroke-miterlimit: 4; fill: rgb(0,0,0); fill-rule: nonzero; opacity: 1;" vector-effect="non-scaling-stroke"  transform=" translate(-29.5, -29)" d="M 29 28 L 29 30 L 30 30 L 30 28 L 29 28 Z" stroke-linecap="round" />
</g>
</g>
</g>
</svg>