<svg xmlns="http://www.w3.org/2000/svg" viewBox="0 0 64 64"><path d="M42 24v-1h-1v-1h-4v1h-1v1h-1v4h1v1h1v1h4v-1h1v-1h1v-4h-1z" fill="#ac15f9"/><path d="M41 23v-1h-4v1h-1v1h6v-1h-1z" fill="#fa34f3"/><path d="M35 24v2h8v-2h-8z" fill="#cf15f9"/><path d="M36 28v1h1v1h4v-1h1v-1h-6z" fill="#8f17f9"/><path d="M28 23h-1v-1h-4v1h-1v1h-1v4h1v1h1v1h4v-1h1v-1h1v-4h-1v-1z" fill="#ac15f9"/><path d="M27 22h-4v1h-1v1h6v-1h-1v-1z" fill="#fa34f3"/><path d="M21 24v2h8v-2h-8z" fill="#cf15f9"/><path d="M22 28v1h1v1h4v-1h1v-1h-6z" fill="#8f17f9"/></svg>