<?xml version="1.0" encoding="UTF-8" standalone="no" ?>
<!DOCTYPE svg PUBLIC "-//W3C//DTD SVG 1.1//EN" "http://www.w3.org/Graphics/SVG/1.1/DTD/svg11.dtd">
<svg xmlns="http://www.w3.org/2000/svg" xmlns:xlink="http://www.w3.org/1999/xlink" version="1.1" width="1080" height="1080" viewBox="0 0 1080 1080" xml:space="preserve">
<desc>Created with Fabric.js 4.2.0</desc>
<defs>
</defs>
<g transform="matrix(1 0 0 1 540 540)" id="77dad0db-37e2-4ad9-99c7-bb690fe12128"  >
<rect style="stroke: none; stroke-width: 1; stroke-dasharray: none; stroke-linecap: butt; stroke-dashoffset: 0; stroke-linejoin: miter; stroke-miterlimit: 4; fill: rgb(255,255,255); fill-rule: nonzero; opacity: 1;" vector-effect="non-scaling-stroke"  x="-540" y="-540" rx="0" ry="0" width="1080" height="1080" />
</g>
<g transform="matrix(1 0 0 1 540 540)" id="e4330b88-0f9d-4fa9-9f67-71b995fd358f"  >
</g>
<g transform="matrix(18.78 0 0 18.78 540 540)"  >
<g style="" vector-effect="non-scaling-stroke"   >
		<g transform="matrix(1 0 0 1 -7 0)"  >
<path style="stroke: none; stroke-width: 1; stroke-dasharray: none; stroke-linecap: butt; stroke-dashoffset: 0; stroke-linejoin: miter; stroke-miterlimit: 4; fill: rgb(0,0,0); fill-rule: nonzero; opacity: 1;" vector-effect="non-scaling-stroke"  transform=" translate(-25, -26)" d="M 23 28 L 23 29 L 23 30 L 24 30 L 25 30 L 26 30 L 27 30 L 27 29 L 27 28 L 28 28 L 29 28 L 29 27 L 29 26 L 29 25 L 29 24 L 28 24 L 27 24 L 27 23 L 27 22 L 26 22 L 25 22 L 24 22 L 23 22 L 23 23 L 23 24 L 22 24 L 21 24 L 21 25 L 21 26 L 21 27 L 21 28 L 22 28 L 23 28 Z" stroke-linecap="round" />
</g>
		<g transform="matrix(1 0 0 1 7 0)"  >
<path style="stroke: none; stroke-width: 1; stroke-dasharray: none; stroke-linecap: butt; stroke-dashoffset: 0; stroke-linejoin: miter; stroke-miterlimit: 4; fill: rgb(0,0,0); fill-rule: nonzero; opacity: 1;" vector-effect="non-scaling-stroke"  transform=" translate(-39, -26)" d="M 35 24 L 35 25 L 35 26 L 35 27 L 35 28 L 36 28 L 37 28 L 37 29 L 37 30 L 38 30 L 39 30 L 40 30 L 41 30 L 41 29 L 41 28 L 42 28 L 43 28 L 43 27 L 43 26 L 43 25 L 43 24 L 42 24 L 41 24 L 41 23 L 41 22 L 40 22 L 39 22 L 38 22 L 37 22 L 37 23 L 37 24 L 36 24 L 35 24 Z" stroke-linecap="round" />
</g>
</g>
</g>
</svg>