<?xml version="1.0" encoding="UTF-8" standalone="no" ?>
<!DOCTYPE svg PUBLIC "-//W3C//DTD SVG 1.1//EN" "http://www.w3.org/Graphics/SVG/1.1/DTD/svg11.dtd">
<svg xmlns="http://www.w3.org/2000/svg" xmlns:xlink="http://www.w3.org/1999/xlink" version="1.1" width="1080" height="1080" viewBox="0 0 1080 1080" xml:space="preserve">
<desc>Created with Fabric.js 4.2.0</desc>
<defs>
</defs>
<g transform="matrix(1 0 0 1 540 540)" id="0434305d-a79c-4421-8a56-d014ec083649"  >
<rect style="stroke: none; stroke-width: 1; stroke-dasharray: none; stroke-linecap: butt; stroke-dashoffset: 0; stroke-linejoin: miter; stroke-miterlimit: 4; fill: rgb(255,255,255); fill-rule: nonzero; opacity: 1;" vector-effect="non-scaling-stroke"  x="-540" y="-540" rx="0" ry="0" width="1080" height="1080" />
</g>
<g transform="matrix(1 0 0 1 540 540)" id="3a09012b-68d0-430f-8d9b-cd3db00a3050"  >
</g>
<g transform="matrix(18.78 0 0 18.78 540 540)"  >
<g style="" vector-effect="non-scaling-stroke"   >
		<g transform="matrix(1 0 0 1 -6.5 0)"  >
<path style="stroke: none; stroke-width: 1; stroke-dasharray: none; stroke-linecap: butt; stroke-dashoffset: 0; stroke-linejoin: miter; stroke-miterlimit: 4; fill: rgb(0,0,0); fill-rule: nonzero; opacity: 1;" vector-effect="non-scaling-stroke"  transform=" translate(-25.5, -24.5)" d="M 29 22 L 28 22 L 28 23 L 27 23 L 26 23 L 25 23 L 24 23 L 23 23 L 23 22 L 24 22 L 25 22 L 26 22 L 27 22 L 28 22 L 28 21 L 27 21 L 26 21 L 25 21 L 24 21 L 23 21 L 22 21 L 22 22 L 22 23 L 21 23 L 21 24 L 22 24 L 22 25 L 21 25 L 21 26 L 22 26 L 22 27 L 22 28 L 23 28 L 24 28 L 25 28 L 26 28 L 27 28 L 28 28 L 28 27 L 27 27 L 26 27 L 25 27 L 24 27 L 23 27 L 23 26 L 24 26 L 25 26 L 26 26 L 27 26 L 28 26 L 28 27 L 29 27 L 29 26 L 30 26 L 30 25 L 29 25 L 29 24 L 30 24 L 30 23 L 29 23 L 29 22 Z M 28 25 L 27 25 L 26 25 L 25 25 L 24 25 L 23 25 L 23 24 L 24 24 L 25 24 L 26 24 L 27 24 L 28 24 L 28 25 Z" stroke-linecap="round" />
</g>
		<g transform="matrix(1 0 0 1 6.5 0)"  >
<path style="stroke: none; stroke-width: 1; stroke-dasharray: none; stroke-linecap: butt; stroke-dashoffset: 0; stroke-linejoin: miter; stroke-miterlimit: 4; fill: rgb(0,0,0); fill-rule: nonzero; opacity: 1;" vector-effect="non-scaling-stroke"  transform=" translate(-38.5, -24.5)" d="M 43 24 L 43 23 L 42 23 L 42 22 L 41 22 L 41 23 L 40 23 L 39 23 L 38 23 L 37 23 L 36 23 L 36 22 L 37 22 L 38 22 L 39 22 L 40 22 L 41 22 L 41 21 L 40 21 L 39 21 L 38 21 L 37 21 L 36 21 L 35 21 L 35 22 L 35 23 L 34 23 L 34 24 L 35 24 L 35 25 L 34 25 L 34 26 L 35 26 L 35 27 L 35 28 L 36 28 L 37 28 L 38 28 L 39 28 L 40 28 L 41 28 L 41 27 L 40 27 L 39 27 L 38 27 L 37 27 L 36 27 L 36 26 L 37 26 L 38 26 L 39 26 L 40 26 L 41 26 L 41 27 L 42 27 L 42 26 L 43 26 L 43 25 L 42 25 L 42 24 L 43 24 Z M 41 25 L 40 25 L 39 25 L 38 25 L 37 25 L 36 25 L 36 24 L 37 24 L 38 24 L 39 24 L 40 24 L 41 24 L 41 25 Z" stroke-linecap="round" />
</g>
</g>
</g>
</svg>