<?xml version="1.0" encoding="UTF-8" standalone="no" ?>
<!DOCTYPE svg PUBLIC "-//W3C//DTD SVG 1.1//EN" "http://www.w3.org/Graphics/SVG/1.1/DTD/svg11.dtd">
<svg xmlns="http://www.w3.org/2000/svg" xmlns:xlink="http://www.w3.org/1999/xlink" version="1.1" width="1080" height="1080" viewBox="0 0 1080 1080" xml:space="preserve">
<desc>Created with Fabric.js 4.2.0</desc>
<defs>
</defs>
<g transform="matrix(1 0 0 1 540 540)" id="0cd960f1-cb78-4b3f-b64a-8ecbdec2afaf"  >
<rect style="stroke: none; stroke-width: 1; stroke-dasharray: none; stroke-linecap: butt; stroke-dashoffset: 0; stroke-linejoin: miter; stroke-miterlimit: 4; fill: rgb(255,255,255); fill-rule: nonzero; opacity: 1;" vector-effect="non-scaling-stroke"  x="-540" y="-540" rx="0" ry="0" width="1080" height="1080" />
</g>
<g transform="matrix(1 0 0 1 540 540)" id="7811f903-5355-40ae-9d60-9347fe99735e"  >
</g>
<g transform="matrix(18.78 0 0 18.78 540 540)"  >
<g style="" vector-effect="non-scaling-stroke"   >
		<g transform="matrix(1 0 0 1 -7 0)"  >
<path style="stroke: none; stroke-width: 1; stroke-dasharray: none; stroke-linecap: butt; stroke-dashoffset: 0; stroke-linejoin: miter; stroke-miterlimit: 4; fill: rgb(0,0,0); fill-rule: nonzero; opacity: 1;" vector-effect="non-scaling-stroke"  transform=" translate(-25, -25)" d="M 28 22 L 27 22 L 27 21 L 26 21 L 25 21 L 24 21 L 23 21 L 23 22 L 22 22 L 22 23 L 21 23 L 21 24 L 21 25 L 21 26 L 21 27 L 22 27 L 22 28 L 23 28 L 23 29 L 24 29 L 25 29 L 26 29 L 27 29 L 27 28 L 28 28 L 28 27 L 29 27 L 29 26 L 29 25 L 29 24 L 29 23 L 28 23 L 28 22 Z M 27 24 L 27 25 L 27 26 L 26 26 L 26 27 L 25 27 L 24 27 L 24 26 L 23 26 L 23 25 L 23 24 L 24 24 L 24 23 L 25 23 L 26 23 L 26 24 L 27 24 Z" stroke-linecap="round" />
</g>
		<g transform="matrix(1 0 0 1 7 0)"  >
<path style="stroke: none; stroke-width: 1; stroke-dasharray: none; stroke-linecap: butt; stroke-dashoffset: 0; stroke-linejoin: miter; stroke-miterlimit: 4; fill: rgb(0,0,0); fill-rule: nonzero; opacity: 1;" vector-effect="non-scaling-stroke"  transform=" translate(-39, -25)" d="M 42 23 L 42 22 L 41 22 L 41 21 L 40 21 L 39 21 L 38 21 L 37 21 L 37 22 L 36 22 L 36 23 L 35 23 L 35 24 L 35 25 L 35 26 L 35 27 L 36 27 L 36 28 L 37 28 L 37 29 L 38 29 L 39 29 L 40 29 L 41 29 L 41 28 L 42 28 L 42 27 L 43 27 L 43 26 L 43 25 L 43 24 L 43 23 L 42 23 Z M 41 25 L 41 26 L 40 26 L 40 27 L 39 27 L 38 27 L 38 26 L 37 26 L 37 25 L 37 24 L 38 24 L 38 23 L 39 23 L 40 23 L 40 24 L 41 24 L 41 25 Z" stroke-linecap="round" />
</g>
</g>
</g>
</svg>