<?xml version="1.0" encoding="UTF-8" standalone="no" ?>
<!DOCTYPE svg PUBLIC "-//W3C//DTD SVG 1.1//EN" "http://www.w3.org/Graphics/SVG/1.1/DTD/svg11.dtd">
<svg xmlns="http://www.w3.org/2000/svg" xmlns:xlink="http://www.w3.org/1999/xlink" version="1.1" width="1080" height="1080" viewBox="0 0 1080 1080" xml:space="preserve">
<desc>Created with Fabric.js 4.2.0</desc>
<defs>
</defs>
<g transform="matrix(1 0 0 1 540 540)" id="4ec9da0f-8b84-4546-a3da-af1ef255409d"  >
<rect style="stroke: none; stroke-width: 1; stroke-dasharray: none; stroke-linecap: butt; stroke-dashoffset: 0; stroke-linejoin: miter; stroke-miterlimit: 4; fill: rgb(255,255,255); fill-rule: nonzero; opacity: 1;" vector-effect="non-scaling-stroke"  x="-540" y="-540" rx="0" ry="0" width="1080" height="1080" />
</g>
<g transform="matrix(1 0 0 1 540 540)" id="d4cc3c28-5c7f-48ac-8d80-cdfe3e4e6939"  >
</g>
<g transform="matrix(18.78 0 0 18.78 540 540)"  >
<g style="" vector-effect="non-scaling-stroke"   >
		<g transform="matrix(1 0 0 1 -7 0)"  >
<path style="stroke: none; stroke-width: 1; stroke-dasharray: none; stroke-linecap: butt; stroke-dashoffset: 0; stroke-linejoin: miter; stroke-miterlimit: 4; fill: rgb(0,0,0); fill-rule: nonzero; opacity: 1;" vector-effect="non-scaling-stroke"  transform=" translate(-25, -25)" d="M 23 22 L 22 22 L 22 23 L 23 23 L 23 22 z M 28 27 L 27 27 L 27 28 L 28 28 L 28 27 z M 23 26 L 22 26 L 22 27 L 23 27 L 23 26 z" stroke-linecap="round" />
</g>
		<g transform="matrix(1 0 0 1 -10.5 -0.5)"  >
<path style="stroke: none; stroke-width: 1; stroke-dasharray: none; stroke-linecap: butt; stroke-dashoffset: 0; stroke-linejoin: miter; stroke-miterlimit: 4; fill: rgb(0,0,0); fill-rule: nonzero; opacity: 1;" vector-effect="non-scaling-stroke"  transform=" translate(-21.5, -24.5)" d="M 22 25 L 21 25 L 21 26 L 22 26 L 22 25 z M 22 23 L 21 23 L 21 24 L 22 24 L 22 23 z" stroke-linecap="round" />
</g>
		<g transform="matrix(1 0 0 1 -9.5 -0.5)"  >
<path style="stroke: none; stroke-width: 1; stroke-dasharray: none; stroke-linecap: butt; stroke-dashoffset: 0; stroke-linejoin: miter; stroke-miterlimit: 4; fill: rgb(0,0,0); fill-rule: nonzero; opacity: 1;" vector-effect="non-scaling-stroke"  transform=" translate(-22.5, -24.5)" d="M 23 24 L 22 24 L 22 25 L 23 25 L 23 24 z" stroke-linecap="round" />
</g>
		<g transform="matrix(1 0 0 1 -5.5 -2.5)"  >
<path style="stroke: none; stroke-width: 1; stroke-dasharray: none; stroke-linecap: butt; stroke-dashoffset: 0; stroke-linejoin: miter; stroke-miterlimit: 4; fill: rgb(0,0,0); fill-rule: nonzero; opacity: 1;" vector-effect="non-scaling-stroke"  transform=" translate(-26.5, -22.5)" d="M 27 22 L 26 22 L 26 23 L 27 23 L 27 22 z" stroke-linecap="round" />
</g>
		<g transform="matrix(1 0 0 1 -6.5 -0.5)"  >
<path style="stroke: none; stroke-width: 1; stroke-dasharray: none; stroke-linecap: butt; stroke-dashoffset: 0; stroke-linejoin: miter; stroke-miterlimit: 4; fill: rgb(0,0,0); fill-rule: nonzero; opacity: 1;" vector-effect="non-scaling-stroke"  transform=" translate(-25.5, -24.5)" d="M 25 22 L 24 22 L 24 23 L 25 23 L 25 22 z M 27 26 L 26 26 L 26 27 L 27 27 L 27 26 z" stroke-linecap="round" />
</g>
		<g transform="matrix(1 0 0 1 -3.5 1.5)"  >
<path style="stroke: none; stroke-width: 1; stroke-dasharray: none; stroke-linecap: butt; stroke-dashoffset: 0; stroke-linejoin: miter; stroke-miterlimit: 4; fill: rgb(0,0,0); fill-rule: nonzero; opacity: 1;" vector-effect="non-scaling-stroke"  transform=" translate(-28.5, -26.5)" d="M 29 26 L 28 26 L 28 27 L 29 27 L 29 26 z" stroke-linecap="round" />
</g>
		<g transform="matrix(1 0 0 1 -7.5 1.5)"  >
<path style="stroke: none; stroke-width: 1; stroke-dasharray: none; stroke-linecap: butt; stroke-dashoffset: 0; stroke-linejoin: miter; stroke-miterlimit: 4; fill: rgb(0,0,0); fill-rule: nonzero; opacity: 1;" vector-effect="non-scaling-stroke"  transform=" translate(-24.5, -26.5)" d="M 25 26 L 24 26 L 24 27 L 25 27 L 25 26 z" stroke-linecap="round" />
</g>
		<g transform="matrix(1 0 0 1 -3.5 -0.5)"  >
<path style="stroke: none; stroke-width: 1; stroke-dasharray: none; stroke-linecap: butt; stroke-dashoffset: 0; stroke-linejoin: miter; stroke-miterlimit: 4; fill: rgb(0,0,0); fill-rule: nonzero; opacity: 1;" vector-effect="non-scaling-stroke"  transform=" translate(-28.5, -24.5)" d="M 29 24 L 28 24 L 28 25 L 29 25 L 29 24 z" stroke-linecap="round" />
</g>
		<g transform="matrix(1 0 0 1 -6.5 -0.5)"  >
<path style="stroke: none; stroke-width: 1; stroke-dasharray: none; stroke-linecap: butt; stroke-dashoffset: 0; stroke-linejoin: miter; stroke-miterlimit: 4; fill: rgb(0,0,0); fill-rule: nonzero; opacity: 1;" vector-effect="non-scaling-stroke"  transform=" translate(-25.5, -24.5)" d="M 25 24 L 24 24 L 24 25 L 25 25 L 25 24 z M 27 24 L 26 24 L 26 25 L 27 25 L 27 24 z" stroke-linecap="round" />
</g>
		<g transform="matrix(1 0 0 1 -7 0)"  >
<path style="stroke: none; stroke-width: 1; stroke-dasharray: none; stroke-linecap: butt; stroke-dashoffset: 0; stroke-linejoin: miter; stroke-miterlimit: 4; fill: rgb(0,0,0); fill-rule: nonzero; opacity: 1;" vector-effect="non-scaling-stroke"  transform=" translate(-25, -25)" d="M 27 28 L 26 28 L 26 29 L 27 29 L 27 28 z M 25 28 L 24 28 L 24 29 L 25 29 L 25 28 z M 26 21 L 25 21 L 25 22 L 26 22 L 26 21 z M 24 21 L 23 21 L 23 22 L 24 22 L 24 21 z" stroke-linecap="round" />
</g>
		<g transform="matrix(1 0 0 1 -6.5 0.5)"  >
<path style="stroke: none; stroke-width: 1; stroke-dasharray: none; stroke-linecap: butt; stroke-dashoffset: 0; stroke-linejoin: miter; stroke-miterlimit: 4; fill: rgb(0,0,0); fill-rule: nonzero; opacity: 1;" vector-effect="non-scaling-stroke"  transform=" translate(-25.5, -25.5)" d="M 28 25 L 27 25 L 27 26 L 28 26 L 28 25 z M 26 25 L 25 25 L 25 26 L 26 26 L 26 25 z M 24 25 L 23 25 L 23 26 L 24 26 L 24 25 z" stroke-linecap="round" />
</g>
		<g transform="matrix(1 0 0 1 -4.5 -1.5)"  >
<path style="stroke: none; stroke-width: 1; stroke-dasharray: none; stroke-linecap: butt; stroke-dashoffset: 0; stroke-linejoin: miter; stroke-miterlimit: 4; fill: rgb(0,0,0); fill-rule: nonzero; opacity: 1;" vector-effect="non-scaling-stroke"  transform=" translate(-27.5, -23.5)" d="M 28 23 L 27 23 L 27 24 L 28 24 L 28 23 z" stroke-linecap="round" />
</g>
		<g transform="matrix(1 0 0 1 -7.5 0.5)"  >
<path style="stroke: none; stroke-width: 1; stroke-dasharray: none; stroke-linecap: butt; stroke-dashoffset: 0; stroke-linejoin: miter; stroke-miterlimit: 4; fill: rgb(0,0,0); fill-rule: nonzero; opacity: 1;" vector-effect="non-scaling-stroke"  transform=" translate(-24.5, -25.5)" d="M 24 23 L 23 23 L 23 24 L 24 24 L 24 23 z M 26 23 L 25 23 L 25 24 L 26 24 L 26 23 z M 26 27 L 25 27 L 25 28 L 26 28 L 26 27 z" stroke-linecap="round" />
</g>
		<g transform="matrix(1 0 0 1 0.5 0)"  >
<path style="stroke: none; stroke-width: 1; stroke-dasharray: none; stroke-linecap: butt; stroke-dashoffset: 0; stroke-linejoin: miter; stroke-miterlimit: 4; fill: rgb(0,0,0); fill-rule: nonzero; opacity: 1;" vector-effect="non-scaling-stroke"  transform=" translate(-32.5, -25)" d="M 24 27 L 23 27 L 23 28 L 24 28 L 24 27 z M 42 22 L 41 22 L 41 23 L 42 23 L 42 22 z M 37 27 L 36 27 L 36 28 L 37 28 L 37 27 z M 42 26 L 41 26 L 41 27 L 42 27 L 42 26 z" stroke-linecap="round" />
</g>
		<g transform="matrix(1 0 0 1 10.5 0.5)"  >
<path style="stroke: none; stroke-width: 1; stroke-dasharray: none; stroke-linecap: butt; stroke-dashoffset: 0; stroke-linejoin: miter; stroke-miterlimit: 4; fill: rgb(0,0,0); fill-rule: nonzero; opacity: 1;" vector-effect="non-scaling-stroke"  transform=" translate(-42.5, -25.5)" d="M 43 25 L 42 25 L 42 26 L 43 26 L 43 25 z" stroke-linecap="round" />
</g>
		<g transform="matrix(1 0 0 1 9.5 -0.5)"  >
<path style="stroke: none; stroke-width: 1; stroke-dasharray: none; stroke-linecap: butt; stroke-dashoffset: 0; stroke-linejoin: miter; stroke-miterlimit: 4; fill: rgb(0,0,0); fill-rule: nonzero; opacity: 1;" vector-effect="non-scaling-stroke"  transform=" translate(-41.5, -24.5)" d="M 42 24 L 41 24 L 41 25 L 42 25 L 42 24 z" stroke-linecap="round" />
</g>
		<g transform="matrix(1 0 0 1 8 -2)"  >
<path style="stroke: none; stroke-width: 1; stroke-dasharray: none; stroke-linecap: butt; stroke-dashoffset: 0; stroke-linejoin: miter; stroke-miterlimit: 4; fill: rgb(0,0,0); fill-rule: nonzero; opacity: 1;" vector-effect="non-scaling-stroke"  transform=" translate(-40, -23)" d="M 43 23 L 42 23 L 42 24 L 43 24 L 43 23 z M 38 22 L 37 22 L 37 23 L 38 23 L 38 22 z" stroke-linecap="round" />
</g>
		<g transform="matrix(1 0 0 1 6.5 0.5)"  >
<path style="stroke: none; stroke-width: 1; stroke-dasharray: none; stroke-linecap: butt; stroke-dashoffset: 0; stroke-linejoin: miter; stroke-miterlimit: 4; fill: rgb(0,0,0); fill-rule: nonzero; opacity: 1;" vector-effect="non-scaling-stroke"  transform=" translate(-38.5, -25.5)" d="M 37 25 L 36 25 L 36 26 L 37 26 L 37 25 z M 41 25 L 40 25 L 40 26 L 41 26 L 41 25 z" stroke-linecap="round" />
</g>
		<g transform="matrix(1 0 0 1 5.5 1.5)"  >
<path style="stroke: none; stroke-width: 1; stroke-dasharray: none; stroke-linecap: butt; stroke-dashoffset: 0; stroke-linejoin: miter; stroke-miterlimit: 4; fill: rgb(0,0,0); fill-rule: nonzero; opacity: 1;" vector-effect="non-scaling-stroke"  transform=" translate(-37.5, -26.5)" d="M 38 26 L 37 26 L 37 27 L 38 27 L 38 26 z" stroke-linecap="round" />
</g>
		<g transform="matrix(1 0 0 1 4.5 -1.5)"  >
<path style="stroke: none; stroke-width: 1; stroke-dasharray: none; stroke-linecap: butt; stroke-dashoffset: 0; stroke-linejoin: miter; stroke-miterlimit: 4; fill: rgb(0,0,0); fill-rule: nonzero; opacity: 1;" vector-effect="non-scaling-stroke"  transform=" translate(-36.5, -23.5)" d="M 37 23 L 36 23 L 36 24 L 37 24 L 37 23 z" stroke-linecap="round" />
</g>
		<g transform="matrix(1 0 0 1 7 -1)"  >
<path style="stroke: none; stroke-width: 1; stroke-dasharray: none; stroke-linecap: butt; stroke-dashoffset: 0; stroke-linejoin: miter; stroke-miterlimit: 4; fill: rgb(0,0,0); fill-rule: nonzero; opacity: 1;" vector-effect="non-scaling-stroke"  transform=" translate(-39, -24)" d="M 38 24 L 37 24 L 37 25 L 38 25 L 38 24 z M 41 23 L 40 23 L 40 24 L 41 24 L 41 23 z" stroke-linecap="round" />
</g>
		<g transform="matrix(1 0 0 1 5.5 3.5)"  >
<path style="stroke: none; stroke-width: 1; stroke-dasharray: none; stroke-linecap: butt; stroke-dashoffset: 0; stroke-linejoin: miter; stroke-miterlimit: 4; fill: rgb(0,0,0); fill-rule: nonzero; opacity: 1;" vector-effect="non-scaling-stroke"  transform=" translate(-37.5, -28.5)" d="M 38 28 L 37 28 L 37 29 L 38 29 L 38 28 z" stroke-linecap="round" />
</g>
		<g transform="matrix(1 0 0 1 6.5 -1.5)"  >
<path style="stroke: none; stroke-width: 1; stroke-dasharray: none; stroke-linecap: butt; stroke-dashoffset: 0; stroke-linejoin: miter; stroke-miterlimit: 4; fill: rgb(0,0,0); fill-rule: nonzero; opacity: 1;" vector-effect="non-scaling-stroke"  transform=" translate(-38.5, -23.5)" d="M 39 23 L 38 23 L 38 24 L 39 24 L 39 23 z" stroke-linecap="round" />
</g>
		<g transform="matrix(1 0 0 1 6.5 -3.5)"  >
<path style="stroke: none; stroke-width: 1; stroke-dasharray: none; stroke-linecap: butt; stroke-dashoffset: 0; stroke-linejoin: miter; stroke-miterlimit: 4; fill: rgb(0,0,0); fill-rule: nonzero; opacity: 1;" vector-effect="non-scaling-stroke"  transform=" translate(-38.5, -21.5)" d="M 39 21 L 38 21 L 38 22 L 39 22 L 39 21 z" stroke-linecap="round" />
</g>
		<g transform="matrix(1 0 0 1 7.5 -2.5)"  >
<path style="stroke: none; stroke-width: 1; stroke-dasharray: none; stroke-linecap: butt; stroke-dashoffset: 0; stroke-linejoin: miter; stroke-miterlimit: 4; fill: rgb(0,0,0); fill-rule: nonzero; opacity: 1;" vector-effect="non-scaling-stroke"  transform=" translate(-39.5, -22.5)" d="M 40 22 L 39 22 L 39 23 L 40 23 L 40 22 z" stroke-linecap="round" />
</g>
		<g transform="matrix(1 0 0 1 8.5 -3.5)"  >
<path style="stroke: none; stroke-width: 1; stroke-dasharray: none; stroke-linecap: butt; stroke-dashoffset: 0; stroke-linejoin: miter; stroke-miterlimit: 4; fill: rgb(0,0,0); fill-rule: nonzero; opacity: 1;" vector-effect="non-scaling-stroke"  transform=" translate(-40.5, -21.5)" d="M 41 21 L 40 21 L 40 22 L 41 22 L 41 21 z" stroke-linecap="round" />
</g>
		<g transform="matrix(1 0 0 1 7.5 1.5)"  >
<path style="stroke: none; stroke-width: 1; stroke-dasharray: none; stroke-linecap: butt; stroke-dashoffset: 0; stroke-linejoin: miter; stroke-miterlimit: 4; fill: rgb(0,0,0); fill-rule: nonzero; opacity: 1;" vector-effect="non-scaling-stroke"  transform=" translate(-39.5, -26.5)" d="M 40 26 L 39 26 L 39 27 L 40 27 L 40 26 z" stroke-linecap="round" />
</g>
		<g transform="matrix(1 0 0 1 6.5 0.5)"  >
<path style="stroke: none; stroke-width: 1; stroke-dasharray: none; stroke-linecap: butt; stroke-dashoffset: 0; stroke-linejoin: miter; stroke-miterlimit: 4; fill: rgb(0,0,0); fill-rule: nonzero; opacity: 1;" vector-effect="non-scaling-stroke"  transform=" translate(-38.5, -25.5)" d="M 39 25 L 38 25 L 38 26 L 39 26 L 39 25 z" stroke-linecap="round" />
</g>
		<g transform="matrix(1 0 0 1 3.5 0.5)"  >
<path style="stroke: none; stroke-width: 1; stroke-dasharray: none; stroke-linecap: butt; stroke-dashoffset: 0; stroke-linejoin: miter; stroke-miterlimit: 4; fill: rgb(0,0,0); fill-rule: nonzero; opacity: 1;" vector-effect="non-scaling-stroke"  transform=" translate(-35.5, -25.5)" d="M 36 26 L 35 26 L 35 27 L 36 27 L 36 26 z M 36 24 L 35 24 L 35 25 L 36 25 L 36 24 z" stroke-linecap="round" />
</g>
		<g transform="matrix(1 0 0 1 7.5 -0.5)"  >
<path style="stroke: none; stroke-width: 1; stroke-dasharray: none; stroke-linecap: butt; stroke-dashoffset: 0; stroke-linejoin: miter; stroke-miterlimit: 4; fill: rgb(0,0,0); fill-rule: nonzero; opacity: 1;" vector-effect="non-scaling-stroke"  transform=" translate(-39.5, -24.5)" d="M 40 24 L 39 24 L 39 25 L 40 25 L 40 24 z" stroke-linecap="round" />
</g>
		<g transform="matrix(1 0 0 1 8.5 2.5)"  >
<path style="stroke: none; stroke-width: 1; stroke-dasharray: none; stroke-linecap: butt; stroke-dashoffset: 0; stroke-linejoin: miter; stroke-miterlimit: 4; fill: rgb(0,0,0); fill-rule: nonzero; opacity: 1;" vector-effect="non-scaling-stroke"  transform=" translate(-40.5, -27.5)" d="M 41 27 L 40 27 L 40 28 L 41 28 L 41 27 z" stroke-linecap="round" />
</g>
		<g transform="matrix(1 0 0 1 7.5 3.5)"  >
<path style="stroke: none; stroke-width: 1; stroke-dasharray: none; stroke-linecap: butt; stroke-dashoffset: 0; stroke-linejoin: miter; stroke-miterlimit: 4; fill: rgb(0,0,0); fill-rule: nonzero; opacity: 1;" vector-effect="non-scaling-stroke"  transform=" translate(-39.5, -28.5)" d="M 40 28 L 39 28 L 39 29 L 40 29 L 40 28 z" stroke-linecap="round" />
</g>
		<g transform="matrix(1 0 0 1 6.5 2.5)"  >
<path style="stroke: none; stroke-width: 1; stroke-dasharray: none; stroke-linecap: butt; stroke-dashoffset: 0; stroke-linejoin: miter; stroke-miterlimit: 4; fill: rgb(0,0,0); fill-rule: nonzero; opacity: 1;" vector-effect="non-scaling-stroke"  transform=" translate(-38.5, -27.5)" d="M 39 27 L 38 27 L 38 28 L 39 28 L 39 27 z" stroke-linecap="round" />
</g>
</g>
</g>
</svg>