<?xml version="1.0" encoding="UTF-8" standalone="no" ?>
<!DOCTYPE svg PUBLIC "-//W3C//DTD SVG 1.1//EN" "http://www.w3.org/Graphics/SVG/1.1/DTD/svg11.dtd">
<svg xmlns="http://www.w3.org/2000/svg" xmlns:xlink="http://www.w3.org/1999/xlink" version="1.1" width="1080" height="1080" viewBox="0 0 1080 1080" xml:space="preserve">
<desc>Created with Fabric.js 4.2.0</desc>
<defs>
</defs>
<g transform="matrix(1 0 0 1 540 540)" id="22c202bb-2aeb-4261-877c-3511c0893de8"  >
<rect style="stroke: none; stroke-width: 1; stroke-dasharray: none; stroke-linecap: butt; stroke-dashoffset: 0; stroke-linejoin: miter; stroke-miterlimit: 4; fill: rgb(255,255,255); fill-rule: nonzero; opacity: 1;" vector-effect="non-scaling-stroke"  x="-540" y="-540" rx="0" ry="0" width="1080" height="1080" />
</g>
<g transform="matrix(1 0 0 1 540 540)" id="6de9533c-5269-433b-b8ff-6726eb875ebc"  >
</g>
<g transform="matrix(20.57 0 0 20.57 540 540)"  >
<g style="" vector-effect="non-scaling-stroke"   >
		<g transform="matrix(1 0 0 1 6 -0.5)"  >
<path style="stroke: none; stroke-width: 1; stroke-dasharray: none; stroke-linecap: butt; stroke-dashoffset: 0; stroke-linejoin: miter; stroke-miterlimit: 4; fill: rgb(0,0,0); fill-rule: nonzero; opacity: 1;" vector-effect="non-scaling-stroke"  transform=" translate(-38, -24.5)" d="M 39 23 L 39 25 L 38 25 L 38 23 L 39 23 L 39 22 L 37 22 L 37 23 L 36 23 L 36 26 L 37 26 L 37 27 L 39 27 L 39 26 L 40 26 L 40 23 L 39 23 z" stroke-linecap="round" />
</g>
		<g transform="matrix(1 0 0 1 3.5 -2.5)"  >
<path style="stroke: none; stroke-width: 1; stroke-dasharray: none; stroke-linecap: butt; stroke-dashoffset: 0; stroke-linejoin: miter; stroke-miterlimit: 4; fill: rgb(0,0,0); fill-rule: nonzero; opacity: 1;" vector-effect="non-scaling-stroke"  transform=" translate(-35.5, -22.5)" d="M 36 22 L 35 22 L 35 23 L 36 23 L 36 22 z" stroke-linecap="round" />
</g>
		<g transform="matrix(1 0 0 1 2.5 0)"  >
<path style="stroke: none; stroke-width: 1; stroke-dasharray: none; stroke-linecap: butt; stroke-dashoffset: 0; stroke-linejoin: miter; stroke-miterlimit: 4; fill: rgb(0,0,0); fill-rule: nonzero; opacity: 1;" vector-effect="non-scaling-stroke"  transform=" translate(-34.5, -25)" d="M 35 25 L 35 23 L 34 23 L 34 27 L 35 27 L 35 25 z" stroke-linecap="round" />
</g>
		<g transform="matrix(1 0 0 1 6 0)"  >
<path style="stroke: none; stroke-width: 1; stroke-dasharray: none; stroke-linecap: butt; stroke-dashoffset: 0; stroke-linejoin: miter; stroke-miterlimit: 4; fill: rgb(0,0,0); fill-rule: nonzero; opacity: 1;" vector-effect="non-scaling-stroke"  transform=" translate(-38, -25)" d="M 36 27 L 35 27 L 35 28 L 36 28 L 36 27 z M 41 22 L 40 22 L 40 23 L 41 23 L 41 22 z" stroke-linecap="round" />
</g>
		<g transform="matrix(1 0 0 1 7 0)"  >
<path style="stroke: none; stroke-width: 1; stroke-dasharray: none; stroke-linecap: butt; stroke-dashoffset: 0; stroke-linejoin: miter; stroke-miterlimit: 4; fill: rgb(0,0,0); fill-rule: nonzero; opacity: 1;" vector-effect="non-scaling-stroke"  transform=" translate(-39, -25)" d="M 41 23 L 41 27 L 42 27 L 42 23 L 41 23 z M 38 22 L 40 22 L 40 21 L 36 21 L 36 22 L 38 22 z M 38 28 L 36 28 L 36 29 L 40 29 L 40 28 L 38 28 z" stroke-linecap="round" />
</g>
		<g transform="matrix(1 0 0 1 8.5 2.5)"  >
<path style="stroke: none; stroke-width: 1; stroke-dasharray: none; stroke-linecap: butt; stroke-dashoffset: 0; stroke-linejoin: miter; stroke-miterlimit: 4; fill: rgb(0,0,0); fill-rule: nonzero; opacity: 1;" vector-effect="non-scaling-stroke"  transform=" translate(-40.5, -27.5)" d="M 41 27 L 40 27 L 40 28 L 41 28 L 41 27 z" stroke-linecap="round" />
</g>
		<g transform="matrix(1 0 0 1 -6 -0.5)"  >
<path style="stroke: none; stroke-width: 1; stroke-dasharray: none; stroke-linecap: butt; stroke-dashoffset: 0; stroke-linejoin: miter; stroke-miterlimit: 4; fill: rgb(0,0,0); fill-rule: nonzero; opacity: 1;" vector-effect="non-scaling-stroke"  transform=" translate(-26, -24.5)" d="M 27 24 L 27 25 L 26 25 L 26 23 L 27 23 L 27 22 L 25 22 L 25 23 L 24 23 L 24 26 L 25 26 L 25 27 L 27 27 L 27 26 L 28 26 L 28 23 L 27 23 L 27 24 z" stroke-linecap="round" />
</g>
		<g transform="matrix(1 0 0 1 -8.5 -2.5)"  >
<path style="stroke: none; stroke-width: 1; stroke-dasharray: none; stroke-linecap: butt; stroke-dashoffset: 0; stroke-linejoin: miter; stroke-miterlimit: 4; fill: rgb(0,0,0); fill-rule: nonzero; opacity: 1;" vector-effect="non-scaling-stroke"  transform=" translate(-23.5, -22.5)" d="M 24 22 L 23 22 L 23 23 L 24 23 L 24 22 z" stroke-linecap="round" />
</g>
		<g transform="matrix(1 0 0 1 -9.5 0)"  >
<path style="stroke: none; stroke-width: 1; stroke-dasharray: none; stroke-linecap: butt; stroke-dashoffset: 0; stroke-linejoin: miter; stroke-miterlimit: 4; fill: rgb(0,0,0); fill-rule: nonzero; opacity: 1;" vector-effect="non-scaling-stroke"  transform=" translate(-22.5, -25)" d="M 23 25 L 23 23 L 22 23 L 22 27 L 23 27 L 23 25 z" stroke-linecap="round" />
</g>
		<g transform="matrix(1 0 0 1 -6 0)"  >
<path style="stroke: none; stroke-width: 1; stroke-dasharray: none; stroke-linecap: butt; stroke-dashoffset: 0; stroke-linejoin: miter; stroke-miterlimit: 4; fill: rgb(0,0,0); fill-rule: nonzero; opacity: 1;" vector-effect="non-scaling-stroke"  transform=" translate(-26, -25)" d="M 24 27 L 23 27 L 23 28 L 24 28 L 24 27 z M 29 22 L 28 22 L 28 23 L 29 23 L 29 22 z" stroke-linecap="round" />
</g>
		<g transform="matrix(1 0 0 1 -5 0)"  >
<path style="stroke: none; stroke-width: 1; stroke-dasharray: none; stroke-linecap: butt; stroke-dashoffset: 0; stroke-linejoin: miter; stroke-miterlimit: 4; fill: rgb(0,0,0); fill-rule: nonzero; opacity: 1;" vector-effect="non-scaling-stroke"  transform=" translate(-27, -25)" d="M 29 24 L 29 27 L 30 27 L 30 23 L 29 23 L 29 24 z M 26 22 L 28 22 L 28 21 L 24 21 L 24 22 L 26 22 z M 26 28 L 24 28 L 24 29 L 28 29 L 28 28 L 26 28 z" stroke-linecap="round" />
</g>
		<g transform="matrix(1 0 0 1 -3.5 2.5)"  >
<path style="stroke: none; stroke-width: 1; stroke-dasharray: none; stroke-linecap: butt; stroke-dashoffset: 0; stroke-linejoin: miter; stroke-miterlimit: 4; fill: rgb(0,0,0); fill-rule: nonzero; opacity: 1;" vector-effect="non-scaling-stroke"  transform=" translate(-28.5, -27.5)" d="M 29 27 L 28 27 L 28 28 L 29 28 L 29 27 z" stroke-linecap="round" />
</g>
</g>
</g>
</svg>