<?xml version="1.0" encoding="UTF-8" standalone="no" ?>
<!DOCTYPE svg PUBLIC "-//W3C//DTD SVG 1.1//EN" "http://www.w3.org/Graphics/SVG/1.1/DTD/svg11.dtd">
<svg xmlns="http://www.w3.org/2000/svg" xmlns:xlink="http://www.w3.org/1999/xlink" version="1.1" width="1080" height="1080" viewBox="0 0 1080 1080" xml:space="preserve">
<desc>Created with Fabric.js 4.2.0</desc>
<defs>
</defs>
<g transform="matrix(1 0 0 1 540 540)" id="01c1ca0f-2e67-4225-9c3b-bfe74b2a5969"  >
<rect style="stroke: none; stroke-width: 1; stroke-dasharray: none; stroke-linecap: butt; stroke-dashoffset: 0; stroke-linejoin: miter; stroke-miterlimit: 4; fill: rgb(255,255,255); fill-rule: nonzero; opacity: 1;" vector-effect="non-scaling-stroke"  x="-540" y="-540" rx="0" ry="0" width="1080" height="1080" />
</g>
<g transform="matrix(1 0 0 1 540 540)" id="5a509ce3-8cc3-422a-bfe4-86ab62505de8"  >
</g>
<g transform="matrix(20.57 0 0 20.57 540 540)"  >
<g style="" vector-effect="non-scaling-stroke"   >
		<g transform="matrix(1 0 0 1 -7.5 -0.5)"  >
<path style="stroke: none; stroke-width: 1; stroke-dasharray: none; stroke-linecap: butt; stroke-dashoffset: 0; stroke-linejoin: miter; stroke-miterlimit: 4; fill: rgb(0,0,0); fill-rule: nonzero; opacity: 1;" vector-effect="non-scaling-stroke"  transform=" translate(-24.5, -24.5)" d="M 25 24 L 24 24 L 24 25 L 25 25 L 25 24 z" stroke-linecap="round" />
</g>
		<g transform="matrix(1 0 0 1 -7.5 0.5)"  >
<path style="stroke: none; stroke-width: 1; stroke-dasharray: none; stroke-linecap: butt; stroke-dashoffset: 0; stroke-linejoin: miter; stroke-miterlimit: 4; fill: rgb(0,0,0); fill-rule: nonzero; opacity: 1;" vector-effect="non-scaling-stroke"  transform=" translate(-24.5, -25.5)" d="M 25 25 L 24 25 L 24 26 L 25 26 L 25 25 z" stroke-linecap="round" />
</g>
		<g transform="matrix(1 0 0 1 -4.5 2.5)"  >
<path style="stroke: none; stroke-width: 1; stroke-dasharray: none; stroke-linecap: butt; stroke-dashoffset: 0; stroke-linejoin: miter; stroke-miterlimit: 4; fill: rgb(0,0,0); fill-rule: nonzero; opacity: 1;" vector-effect="non-scaling-stroke"  transform=" translate(-27.5, -27.5)" d="M 28 27 L 27 27 L 27 28 L 28 28 L 28 27 z" stroke-linecap="round" />
</g>
		<g transform="matrix(1 0 0 1 -5 0)"  >
<path style="stroke: none; stroke-width: 1; stroke-dasharray: none; stroke-linecap: butt; stroke-dashoffset: 0; stroke-linejoin: miter; stroke-miterlimit: 4; fill: rgb(0,0,0); fill-rule: nonzero; opacity: 1;" vector-effect="non-scaling-stroke"  transform=" translate(-27, -25)" d="M 27 27 L 26 27 L 26 28 L 27 28 L 27 27 z M 28 22 L 27 22 L 27 23 L 28 23 L 28 22 z" stroke-linecap="round" />
</g>
		<g transform="matrix(1 0 0 1 -7.5 -2.5)"  >
<path style="stroke: none; stroke-width: 1; stroke-dasharray: none; stroke-linecap: butt; stroke-dashoffset: 0; stroke-linejoin: miter; stroke-miterlimit: 4; fill: rgb(0,0,0); fill-rule: nonzero; opacity: 1;" vector-effect="non-scaling-stroke"  transform=" translate(-24.5, -22.5)" d="M 27 22 L 26 22 L 26 23 L 27 23 L 27 22 z M 23 22 L 22 22 L 22 23 L 23 23 L 23 22 z" stroke-linecap="round" />
</g>
		<g transform="matrix(1 0 0 1 -8.5 -2.5)"  >
<path style="stroke: none; stroke-width: 1; stroke-dasharray: none; stroke-linecap: butt; stroke-dashoffset: 0; stroke-linejoin: miter; stroke-miterlimit: 4; fill: rgb(0,0,0); fill-rule: nonzero; opacity: 1;" vector-effect="non-scaling-stroke"  transform=" translate(-23.5, -22.5)" d="M 24 22 L 23 22 L 23 23 L 24 23 L 24 22 z" stroke-linecap="round" />
</g>
		<g transform="matrix(1 0 0 1 -6.5 -0.5)"  >
<path style="stroke: none; stroke-width: 1; stroke-dasharray: none; stroke-linecap: butt; stroke-dashoffset: 0; stroke-linejoin: miter; stroke-miterlimit: 4; fill: rgb(0,0,0); fill-rule: nonzero; opacity: 1;" vector-effect="non-scaling-stroke"  transform=" translate(-25.5, -24.5)" d="M 26 24 L 25 24 L 25 25 L 26 25 L 26 24 z" stroke-linecap="round" />
</g>
		<g transform="matrix(1 0 0 1 -6.5 0.5)"  >
<path style="stroke: none; stroke-width: 1; stroke-dasharray: none; stroke-linecap: butt; stroke-dashoffset: 0; stroke-linejoin: miter; stroke-miterlimit: 4; fill: rgb(0,0,0); fill-rule: nonzero; opacity: 1;" vector-effect="non-scaling-stroke"  transform=" translate(-25.5, -25.5)" d="M 26 25 L 25 25 L 25 26 L 26 26 L 26 25 z" stroke-linecap="round" />
</g>
		<g transform="matrix(1 0 0 1 -9.5 2.5)"  >
<path style="stroke: none; stroke-width: 1; stroke-dasharray: none; stroke-linecap: butt; stroke-dashoffset: 0; stroke-linejoin: miter; stroke-miterlimit: 4; fill: rgb(0,0,0); fill-rule: nonzero; opacity: 1;" vector-effect="non-scaling-stroke"  transform=" translate(-22.5, -27.5)" d="M 23 27 L 22 27 L 22 28 L 23 28 L 23 27 z" stroke-linecap="round" />
</g>
		<g transform="matrix(1 0 0 1 -8.5 2.5)"  >
<path style="stroke: none; stroke-width: 1; stroke-dasharray: none; stroke-linecap: butt; stroke-dashoffset: 0; stroke-linejoin: miter; stroke-miterlimit: 4; fill: rgb(0,0,0); fill-rule: nonzero; opacity: 1;" vector-effect="non-scaling-stroke"  transform=" translate(-23.5, -27.5)" d="M 24 27 L 23 27 L 23 28 L 24 28 L 24 27 z" stroke-linecap="round" />
</g>
		<g transform="matrix(1 0 0 1 6.5 0.5)"  >
<path style="stroke: none; stroke-width: 1; stroke-dasharray: none; stroke-linecap: butt; stroke-dashoffset: 0; stroke-linejoin: miter; stroke-miterlimit: 4; fill: rgb(0,0,0); fill-rule: nonzero; opacity: 1;" vector-effect="non-scaling-stroke"  transform=" translate(-38.5, -25.5)" d="M 39 25 L 38 25 L 38 26 L 39 26 L 39 25 z" stroke-linecap="round" />
</g>
		<g transform="matrix(1 0 0 1 5.5 2.5)"  >
<path style="stroke: none; stroke-width: 1; stroke-dasharray: none; stroke-linecap: butt; stroke-dashoffset: 0; stroke-linejoin: miter; stroke-miterlimit: 4; fill: rgb(0,0,0); fill-rule: nonzero; opacity: 1;" vector-effect="non-scaling-stroke"  transform=" translate(-37.5, -27.5)" d="M 38 27 L 37 27 L 37 28 L 38 28 L 38 27 z" stroke-linecap="round" />
</g>
		<g transform="matrix(1 0 0 1 6.5 2.5)"  >
<path style="stroke: none; stroke-width: 1; stroke-dasharray: none; stroke-linecap: butt; stroke-dashoffset: 0; stroke-linejoin: miter; stroke-miterlimit: 4; fill: rgb(0,0,0); fill-rule: nonzero; opacity: 1;" vector-effect="non-scaling-stroke"  transform=" translate(-38.5, -27.5)" d="M 37 27 L 36 27 L 36 28 L 37 28 L 37 27 z M 41 27 L 40 27 L 40 28 L 41 28 L 41 27 z" stroke-linecap="round" />
</g>
		<g transform="matrix(1 0 0 1 9.5 2.5)"  >
<path style="stroke: none; stroke-width: 1; stroke-dasharray: none; stroke-linecap: butt; stroke-dashoffset: 0; stroke-linejoin: miter; stroke-miterlimit: 4; fill: rgb(0,0,0); fill-rule: nonzero; opacity: 1;" vector-effect="non-scaling-stroke"  transform=" translate(-41.5, -27.5)" d="M 42 27 L 41 27 L 41 28 L 42 28 L 42 27 z" stroke-linecap="round" />
</g>
		<g transform="matrix(1 0 0 1 6.5 -0.5)"  >
<path style="stroke: none; stroke-width: 1; stroke-dasharray: none; stroke-linecap: butt; stroke-dashoffset: 0; stroke-linejoin: miter; stroke-miterlimit: 4; fill: rgb(0,0,0); fill-rule: nonzero; opacity: 1;" vector-effect="non-scaling-stroke"  transform=" translate(-38.5, -24.5)" d="M 38 24 L 39 24 L 39 25 L 38 25" stroke-linecap="round" />
</g>
		<g transform="matrix(1 0 0 1 5.5 -2.5)"  >
<path style="stroke: none; stroke-width: 1; stroke-dasharray: none; stroke-linecap: butt; stroke-dashoffset: 0; stroke-linejoin: miter; stroke-miterlimit: 4; fill: rgb(0,0,0); fill-rule: nonzero; opacity: 1;" vector-effect="non-scaling-stroke"  transform=" translate(-37.5, -22.5)" d="M 38 22 L 37 22 L 37 23 L 38 23 L 38 22 z" stroke-linecap="round" />
</g>
		<g transform="matrix(1 0 0 1 6.5 -2.5)"  >
<path style="stroke: none; stroke-width: 1; stroke-dasharray: none; stroke-linecap: butt; stroke-dashoffset: 0; stroke-linejoin: miter; stroke-miterlimit: 4; fill: rgb(0,0,0); fill-rule: nonzero; opacity: 1;" vector-effect="non-scaling-stroke"  transform=" translate(-38.5, -22.5)" d="M 37 22 L 36 22 L 36 23 L 37 23 L 37 22 z M 41 22 L 40 22 L 40 23 L 41 23 L 41 22 z" stroke-linecap="round" />
</g>
		<g transform="matrix(1 0 0 1 9.5 -2.5)"  >
<path style="stroke: none; stroke-width: 1; stroke-dasharray: none; stroke-linecap: butt; stroke-dashoffset: 0; stroke-linejoin: miter; stroke-miterlimit: 4; fill: rgb(0,0,0); fill-rule: nonzero; opacity: 1;" vector-effect="non-scaling-stroke"  transform=" translate(-41.5, -22.5)" d="M 42 22 L 41 22 L 41 23 L 42 23 L 42 22 z" stroke-linecap="round" />
</g>
		<g transform="matrix(1 0 0 1 7.5 0.5)"  >
<path style="stroke: none; stroke-width: 1; stroke-dasharray: none; stroke-linecap: butt; stroke-dashoffset: 0; stroke-linejoin: miter; stroke-miterlimit: 4; fill: rgb(0,0,0); fill-rule: nonzero; opacity: 1;" vector-effect="non-scaling-stroke"  transform=" translate(-39.5, -25.5)" d="M 40 25 L 39 25 L 39 26 L 40 26 L 40 25 z" stroke-linecap="round" />
</g>
		<g transform="matrix(1 0 0 1 7.5 -0.5)"  >
<path style="stroke: none; stroke-width: 1; stroke-dasharray: none; stroke-linecap: butt; stroke-dashoffset: 0; stroke-linejoin: miter; stroke-miterlimit: 4; fill: rgb(0,0,0); fill-rule: nonzero; opacity: 1;" vector-effect="non-scaling-stroke"  transform=" translate(-39.5, -24.5)" d="M 40 24 L 39 24 L 39 25 L 40 25 L 40 24 z" stroke-linecap="round" />
</g>
</g>
</g>
</svg>