<?xml version="1.0" encoding="UTF-8" standalone="no" ?>
<!DOCTYPE svg PUBLIC "-//W3C//DTD SVG 1.1//EN" "http://www.w3.org/Graphics/SVG/1.1/DTD/svg11.dtd">
<svg xmlns="http://www.w3.org/2000/svg" xmlns:xlink="http://www.w3.org/1999/xlink" version="1.1" width="1080" height="1080" viewBox="0 0 1080 1080" xml:space="preserve">
<desc>Created with Fabric.js 4.2.0</desc>
<defs>
</defs>
<g transform="matrix(1 0 0 1 540 540)" id="c83e9c41-814d-4d99-9088-f4d5a44cd587"  >
<rect style="stroke: none; stroke-width: 1; stroke-dasharray: none; stroke-linecap: butt; stroke-dashoffset: 0; stroke-linejoin: miter; stroke-miterlimit: 4; fill: rgb(255,255,255); fill-rule: nonzero; opacity: 1;" vector-effect="non-scaling-stroke"  x="-540" y="-540" rx="0" ry="0" width="1080" height="1080" />
</g>
<g transform="matrix(1 0 0 1 540 540)" id="e9873d50-7959-43e5-a8a3-b8296b8a4bf4"  >
</g>
<g transform="matrix(16 0 0 16 540 540)"  >
<g style="" vector-effect="non-scaling-stroke"   >
		<g transform="matrix(1 0 0 1 6 -0.5)"  >
<path style="stroke: none; stroke-width: 1; stroke-dasharray: none; stroke-linecap: butt; stroke-dashoffset: 0; stroke-linejoin: miter; stroke-miterlimit: 4; fill: rgb(0,0,0); fill-rule: nonzero; opacity: 1;" vector-effect="non-scaling-stroke"  transform=" translate(-38, -24)" d="M 39 23 L 39 24 L 38 24 L 38 23 L 39 23 L 39 22 L 37 22 L 37 23 L 36 23 L 36 25 L 37 25 L 37 26 L 39 26 L 39 25 L 40 25 L 40 23 L 39 23 z" stroke-linecap="round" />
</g>
		<g transform="matrix(1 0 0 1 5.5 -0.5)"  >
<path style="stroke: none; stroke-width: 1; stroke-dasharray: none; stroke-linecap: butt; stroke-dashoffset: 0; stroke-linejoin: miter; stroke-miterlimit: 4; fill: rgb(0,0,0); fill-rule: nonzero; opacity: 1;" vector-effect="non-scaling-stroke"  transform=" translate(-37.5, -24)" d="M 34 25 L 33 25 L 33 26 L 34 26 L 34 25 z M 41 25 L 41 26 L 42 26 L 42 24 L 41 24 L 41 25 z M 37 23 L 37 22 L 35 22 L 35 23 L 37 23 z" stroke-linecap="round" />
</g>
		<g transform="matrix(1 0 0 1 7.5 -0.5)"  >
<path style="stroke: none; stroke-width: 1; stroke-dasharray: none; stroke-linecap: butt; stroke-dashoffset: 0; stroke-linejoin: miter; stroke-miterlimit: 4; fill: rgb(0,0,0); fill-rule: nonzero; opacity: 1;" vector-effect="non-scaling-stroke"  transform=" translate(-39.5, -24)" d="M 44 21 L 37 21 L 37 22 L 42 22 L 42 24 L 43 24 L 43 23 L 44 23 L 44 22 L 45 22 L 45 21 L 44 21 z M 35 26 L 34 26 L 34 27 L 36 27 L 36 26 L 35 26 z" stroke-linecap="round" />
</g>
		<g transform="matrix(1 0 0 1 5 1)"  >
<path style="stroke: none; stroke-width: 1; stroke-dasharray: none; stroke-linecap: butt; stroke-dashoffset: 0; stroke-linejoin: miter; stroke-miterlimit: 4; fill: rgb(0,0,0); fill-rule: nonzero; opacity: 1;" vector-effect="non-scaling-stroke"  transform=" translate(-37, -25.5)" d="M 38 27 L 36 27 L 36 28 L 40 28 L 40 27 L 38 27 z M 35 24 L 35 23 L 34 23 L 34 25 L 35 25 L 35 24 z" stroke-linecap="round" />
</g>
		<g transform="matrix(1 0 0 1 8.5 2)"  >
<path style="stroke: none; stroke-width: 1; stroke-dasharray: none; stroke-linecap: butt; stroke-dashoffset: 0; stroke-linejoin: miter; stroke-miterlimit: 4; fill: rgb(0,0,0); fill-rule: nonzero; opacity: 1;" vector-effect="non-scaling-stroke"  transform=" translate(-40.5, -26.5)" d="M 41 26 L 40 26 L 40 27 L 41 27 L 41 26 z" stroke-linecap="round" />
</g>
		<g transform="matrix(1 0 0 1 -6 -0.5)"  >
<path style="stroke: none; stroke-width: 1; stroke-dasharray: none; stroke-linecap: butt; stroke-dashoffset: 0; stroke-linejoin: miter; stroke-miterlimit: 4; fill: rgb(0,0,0); fill-rule: nonzero; opacity: 1;" vector-effect="non-scaling-stroke"  transform=" translate(-26, -24)" d="M 27 22 L 25 22 L 25 23 L 26 23 L 26 24 L 25 24 L 25 23 L 24 23 L 24 25 L 25 25 L 25 26 L 27 26 L 27 25 L 28 25 L 28 23 L 27 23 L 27 22 z" stroke-linecap="round" />
</g>
		<g transform="matrix(1 0 0 1 -5.5 0.5)"  >
<path style="stroke: none; stroke-width: 1; stroke-dasharray: none; stroke-linecap: butt; stroke-dashoffset: 0; stroke-linejoin: miter; stroke-miterlimit: 4; fill: rgb(0,0,0); fill-rule: nonzero; opacity: 1;" vector-effect="non-scaling-stroke"  transform=" translate(-26.5, -25)" d="M 31 25 L 30 25 L 30 26 L 31 26 L 31 25 z M 23 24 L 22 24 L 22 26 L 23 26 L 23 24 z" stroke-linecap="round" />
</g>
		<g transform="matrix(1 0 0 1 -9 -2)"  >
<path style="stroke: none; stroke-width: 1; stroke-dasharray: none; stroke-linecap: butt; stroke-dashoffset: 0; stroke-linejoin: miter; stroke-miterlimit: 4; fill: rgb(0,0,0); fill-rule: nonzero; opacity: 1;" vector-effect="non-scaling-stroke"  transform=" translate(-23, -22.5)" d="M 22 22 L 27 22 L 27 21 L 19 21 L 19 22 L 20 22 L 20 23 L 21 23 L 21 24 L 22 24 L 22 22 z" stroke-linecap="round" />
</g>
		<g transform="matrix(1 0 0 1 -3.5 0)"  >
<path style="stroke: none; stroke-width: 1; stroke-dasharray: none; stroke-linecap: butt; stroke-dashoffset: 0; stroke-linejoin: miter; stroke-miterlimit: 4; fill: rgb(0,0,0); fill-rule: nonzero; opacity: 1;" vector-effect="non-scaling-stroke"  transform=" translate(-28.5, -24.5)" d="M 28 23 L 29 23 L 29 22 L 27 22 L 27 23 L 28 23 z M 28 26 L 28 27 L 30 27 L 30 26 L 28 26 z" stroke-linecap="round" />
</g>
		<g transform="matrix(1 0 0 1 -5 1)"  >
<path style="stroke: none; stroke-width: 1; stroke-dasharray: none; stroke-linecap: butt; stroke-dashoffset: 0; stroke-linejoin: miter; stroke-miterlimit: 4; fill: rgb(0,0,0); fill-rule: nonzero; opacity: 1;" vector-effect="non-scaling-stroke"  transform=" translate(-27, -25.5)" d="M 26 27 L 24 27 L 24 28 L 28 28 L 28 27 L 26 27 z M 29 25 L 30 25 L 30 23 L 29 23 L 29 25 z" stroke-linecap="round" />
</g>
		<g transform="matrix(1 0 0 1 -8.5 2)"  >
<path style="stroke: none; stroke-width: 1; stroke-dasharray: none; stroke-linecap: butt; stroke-dashoffset: 0; stroke-linejoin: miter; stroke-miterlimit: 4; fill: rgb(0,0,0); fill-rule: nonzero; opacity: 1;" vector-effect="non-scaling-stroke"  transform=" translate(-23.5, -26.5)" d="M 24 26 L 23 26 L 23 27 L 24 27 L 24 26 z" stroke-linecap="round" />
</g>
</g>
</g>
</svg>