<?xml version="1.0" encoding="UTF-8" standalone="no" ?>
<!DOCTYPE svg PUBLIC "-//W3C//DTD SVG 1.1//EN" "http://www.w3.org/Graphics/SVG/1.1/DTD/svg11.dtd">
<svg xmlns="http://www.w3.org/2000/svg" xmlns:xlink="http://www.w3.org/1999/xlink" version="1.1" width="1080" height="1080" viewBox="0 0 1080 1080" xml:space="preserve">
<desc>Created with Fabric.js 4.2.0</desc>
<defs>
</defs>
<g transform="matrix(1 0 0 1 540 540)" id="598e7990-879c-477a-b610-e81ca729274c"  >
<rect style="stroke: none; stroke-width: 1; stroke-dasharray: none; stroke-linecap: butt; stroke-dashoffset: 0; stroke-linejoin: miter; stroke-miterlimit: 4; fill: rgb(255,255,255); fill-rule: nonzero; opacity: 1;" vector-effect="non-scaling-stroke"  x="-540" y="-540" rx="0" ry="0" width="1080" height="1080" />
</g>
<g transform="matrix(1 0 0 1 540 540)" id="7f9a09d9-78a0-42ff-8d26-6a8f6e70f401"  >
</g>
<g transform="matrix(20.57 0 0 20.57 540 540)"  >
<g style="" vector-effect="non-scaling-stroke"   >
		<g transform="matrix(1 0 0 1 -9.5 0.5)"  >
<path style="stroke: none; stroke-width: 1; stroke-dasharray: none; stroke-linecap: butt; stroke-dashoffset: 0; stroke-linejoin: miter; stroke-miterlimit: 4; fill: rgb(0,0,0); fill-rule: nonzero; opacity: 1;" vector-effect="non-scaling-stroke"  transform=" translate(-22.5, -25.5)" d="M 23 25 L 22 25 L 22 26 L 23 26 L 23 25 z" stroke-linecap="round" />
</g>
		<g transform="matrix(1 0 0 1 -7.5 0.5)"  >
<path style="stroke: none; stroke-width: 1; stroke-dasharray: none; stroke-linecap: butt; stroke-dashoffset: 0; stroke-linejoin: miter; stroke-miterlimit: 4; fill: rgb(0,0,0); fill-rule: nonzero; opacity: 1;" vector-effect="non-scaling-stroke"  transform=" translate(-24.5, -25.5)" d="M 23 24 L 22 24 L 22 25 L 23 25 L 23 24 z M 27 26 L 26 26 L 26 27 L 27 27 L 27 26 z M 24 26 L 23 26 L 23 27 L 24 27 L 24 26 z" stroke-linecap="round" />
</g>
		<g transform="matrix(1 0 0 1 -7 0)"  >
<path style="stroke: none; stroke-width: 1; stroke-dasharray: none; stroke-linecap: butt; stroke-dashoffset: 0; stroke-linejoin: miter; stroke-miterlimit: 4; fill: rgb(0,0,0); fill-rule: nonzero; opacity: 1;" vector-effect="non-scaling-stroke"  transform=" translate(-25, -25)" d="M 25 26 L 24 26 L 24 27 L 25 27 L 25 26 z M 27 25 L 26 25 L 26 26 L 27 26 L 27 25 z M 24 24 L 23 24 L 23 25 L 24 25 L 24 24 z M 27 23 L 26 23 L 26 24 L 27 24 L 27 23 z" stroke-linecap="round" />
</g>
		<g transform="matrix(1 0 0 1 -6 -1)"  >
<path style="stroke: none; stroke-width: 1; stroke-dasharray: none; stroke-linecap: butt; stroke-dashoffset: 0; stroke-linejoin: miter; stroke-miterlimit: 4; fill: rgb(0,0,0); fill-rule: nonzero; opacity: 1;" vector-effect="non-scaling-stroke"  transform=" translate(-26, -24)" d="M 28 24 L 27 24 L 27 25 L 28 25 L 28 24 z M 25 23 L 24 23 L 24 24 L 25 24 L 25 23 z" stroke-linecap="round" />
</g>
		<g transform="matrix(1 0 0 1 -5.5 -0.5)"  >
<path style="stroke: none; stroke-width: 1; stroke-dasharray: none; stroke-linecap: butt; stroke-dashoffset: 0; stroke-linejoin: miter; stroke-miterlimit: 4; fill: rgb(0,0,0); fill-rule: nonzero; opacity: 1;" vector-effect="non-scaling-stroke"  transform=" translate(-26.5, -24.5)" d="M 27 24 L 26 24 L 26 25 L 27 25 L 27 24 z" stroke-linecap="round" />
</g>
		<g transform="matrix(1 0 0 1 -7 0)"  >
<path style="stroke: none; stroke-width: 1; stroke-dasharray: none; stroke-linecap: butt; stroke-dashoffset: 0; stroke-linejoin: miter; stroke-miterlimit: 4; fill: rgb(0,0,0); fill-rule: nonzero; opacity: 1;" vector-effect="non-scaling-stroke"  transform=" translate(-25, -25)" d="M 27 28 L 26 28 L 26 29 L 27 29 L 27 28 z M 27 21 L 26 21 L 26 22 L 27 22 L 27 21 z M 24 21 L 23 21 L 23 22 L 24 22 L 24 21 z" stroke-linecap="round" />
</g>
		<g transform="matrix(1 0 0 1 -6.5 0)"  >
<path style="stroke: none; stroke-width: 1; stroke-dasharray: none; stroke-linecap: butt; stroke-dashoffset: 0; stroke-linejoin: miter; stroke-miterlimit: 4; fill: rgb(0,0,0); fill-rule: nonzero; opacity: 1;" vector-effect="non-scaling-stroke"  transform=" translate(-25.5, -25)" d="M 26 26 L 25 26 L 25 27 L 26 27 L 26 26 z M 28 25 L 27 25 L 27 26 L 28 26 L 28 25 z M 24 25 L 23 25 L 23 26 L 24 26 L 24 25 z M 24 23 L 23 23 L 23 24 L 24 24 L 24 23 z M 26 23 L 25 23 L 25 24 L 26 24 L 26 23 z" stroke-linecap="round" />
</g>
		<g transform="matrix(1 0 0 1 -8.5 3.5)"  >
<path style="stroke: none; stroke-width: 1; stroke-dasharray: none; stroke-linecap: butt; stroke-dashoffset: 0; stroke-linejoin: miter; stroke-miterlimit: 4; fill: rgb(0,0,0); fill-rule: nonzero; opacity: 1;" vector-effect="non-scaling-stroke"  transform=" translate(-23.5, -28.5)" d="M 24 28 L 23 28 L 23 29 L 24 29 L 24 28 z" stroke-linecap="round" />
</g>
		<g transform="matrix(1 0 0 1 9.5 0.5)"  >
<path style="stroke: none; stroke-width: 1; stroke-dasharray: none; stroke-linecap: butt; stroke-dashoffset: 0; stroke-linejoin: miter; stroke-miterlimit: 4; fill: rgb(0,0,0); fill-rule: nonzero; opacity: 1;" vector-effect="non-scaling-stroke"  transform=" translate(-41.5, -25.5)" d="M 42 25 L 41 25 L 41 26 L 42 26 L 42 25 z" stroke-linecap="round" />
</g>
		<g transform="matrix(1 0 0 1 7 0)"  >
<path style="stroke: none; stroke-width: 1; stroke-dasharray: none; stroke-linecap: butt; stroke-dashoffset: 0; stroke-linejoin: miter; stroke-miterlimit: 4; fill: rgb(0,0,0); fill-rule: nonzero; opacity: 1;" vector-effect="non-scaling-stroke"  transform=" translate(-39, -25)" d="M 42 24 L 41 24 L 41 25 L 42 25 L 42 24 z M 37 25 L 36 25 L 36 26 L 37 26 L 37 25 z" stroke-linecap="round" />
</g>
		<g transform="matrix(1 0 0 1 7.5 1)"  >
<path style="stroke: none; stroke-width: 1; stroke-dasharray: none; stroke-linecap: butt; stroke-dashoffset: 0; stroke-linejoin: miter; stroke-miterlimit: 4; fill: rgb(0,0,0); fill-rule: nonzero; opacity: 1;" vector-effect="non-scaling-stroke"  transform=" translate(-39.5, -26)" d="M 39 26 L 38 26 L 38 27 L 39 27 L 39 26 z M 41 25 L 40 25 L 40 26 L 41 26 L 41 25 z" stroke-linecap="round" />
</g>
		<g transform="matrix(1 0 0 1 5 0.5)"  >
<path style="stroke: none; stroke-width: 1; stroke-dasharray: none; stroke-linecap: butt; stroke-dashoffset: 0; stroke-linejoin: miter; stroke-miterlimit: 4; fill: rgb(0,0,0); fill-rule: nonzero; opacity: 1;" vector-effect="non-scaling-stroke"  transform=" translate(-37, -25.5)" d="M 38 26 L 37 26 L 37 27 L 38 27 L 38 26 z M 37 24 L 36 24 L 36 25 L 37 25 L 37 24 z" stroke-linecap="round" />
</g>
		<g transform="matrix(1 0 0 1 7 -1)"  >
<path style="stroke: none; stroke-width: 1; stroke-dasharray: none; stroke-linecap: butt; stroke-dashoffset: 0; stroke-linejoin: miter; stroke-miterlimit: 4; fill: rgb(0,0,0); fill-rule: nonzero; opacity: 1;" vector-effect="non-scaling-stroke"  transform=" translate(-39, -24)" d="M 38 24 L 37 24 L 37 25 L 38 25 L 38 24 z M 41 23 L 40 23 L 40 24 L 41 24 L 41 23 z" stroke-linecap="round" />
</g>
		<g transform="matrix(1 0 0 1 7 3.5)"  >
<path style="stroke: none; stroke-width: 1; stroke-dasharray: none; stroke-linecap: butt; stroke-dashoffset: 0; stroke-linejoin: miter; stroke-miterlimit: 4; fill: rgb(0,0,0); fill-rule: nonzero; opacity: 1;" vector-effect="non-scaling-stroke"  transform=" translate(-39, -28.5)" d="M 38 28 L 37 28 L 37 29 L 38 29 L 38 28 z M 41 28 L 40 28 L 40 29 L 41 29 L 41 28 z" stroke-linecap="round" />
</g>
		<g transform="matrix(1 0 0 1 6.5 -1.5)"  >
<path style="stroke: none; stroke-width: 1; stroke-dasharray: none; stroke-linecap: butt; stroke-dashoffset: 0; stroke-linejoin: miter; stroke-miterlimit: 4; fill: rgb(0,0,0); fill-rule: nonzero; opacity: 1;" vector-effect="non-scaling-stroke"  transform=" translate(-38.5, -23.5)" d="M 38 23 L 39 23 L 39 24 L 38 24" stroke-linecap="round" />
</g>
		<g transform="matrix(1 0 0 1 7 -3.5)"  >
<path style="stroke: none; stroke-width: 1; stroke-dasharray: none; stroke-linecap: butt; stroke-dashoffset: 0; stroke-linejoin: miter; stroke-miterlimit: 4; fill: rgb(0,0,0); fill-rule: nonzero; opacity: 1;" vector-effect="non-scaling-stroke"  transform=" translate(-39, -21.5)" d="M 38 21 L 37 21 L 37 22 L 38 22 L 38 21 z M 41 21 L 40 21 L 40 22 L 41 22 L 41 21 z" stroke-linecap="round" />
</g>
		<g transform="matrix(1 0 0 1 7 1)"  >
<path style="stroke: none; stroke-width: 1; stroke-dasharray: none; stroke-linecap: butt; stroke-dashoffset: 0; stroke-linejoin: miter; stroke-miterlimit: 4; fill: rgb(0,0,0); fill-rule: nonzero; opacity: 1;" vector-effect="non-scaling-stroke"  transform=" translate(-39, -26)" d="M 38 25 L 37 25 L 37 26 L 38 26 L 38 25 z M 41 26 L 40 26 L 40 27 L 41 27 L 41 26 z" stroke-linecap="round" />
</g>
		<g transform="matrix(1 0 0 1 7 0)"  >
<path style="stroke: none; stroke-width: 1; stroke-dasharray: none; stroke-linecap: butt; stroke-dashoffset: 0; stroke-linejoin: miter; stroke-miterlimit: 4; fill: rgb(0,0,0); fill-rule: nonzero; opacity: 1;" vector-effect="non-scaling-stroke"  transform=" translate(-39, -25)" d="M 40 26 L 39 26 L 39 27 L 40 27 L 40 26 z M 38 23 L 37 23 L 37 24 L 38 24 L 38 23 z M 41 24 L 40 24 L 40 25 L 41 25 L 41 24 z" stroke-linecap="round" />
</g>
		<g transform="matrix(1 0 0 1 7.5 -1.5)"  >
<path style="stroke: none; stroke-width: 1; stroke-dasharray: none; stroke-linecap: butt; stroke-dashoffset: 0; stroke-linejoin: miter; stroke-miterlimit: 4; fill: rgb(0,0,0); fill-rule: nonzero; opacity: 1;" vector-effect="non-scaling-stroke"  transform=" translate(-39.5, -23.5)" d="M 40 23 L 39 23 L 39 24 L 40 24 L 40 23 z" stroke-linecap="round" />
</g>
</g>
</g>
</svg>