<?xml version="1.0" encoding="UTF-8" standalone="no" ?>
<!DOCTYPE svg PUBLIC "-//W3C//DTD SVG 1.1//EN" "http://www.w3.org/Graphics/SVG/1.1/DTD/svg11.dtd">
<svg xmlns="http://www.w3.org/2000/svg" xmlns:xlink="http://www.w3.org/1999/xlink" version="1.1" width="1080" height="1080" viewBox="0 0 1080 1080" xml:space="preserve">
<desc>Created with Fabric.js 4.2.0</desc>
<defs>
</defs>
<g transform="matrix(1 0 0 1 540 540)" id="61167651-6a86-4535-9dcd-4f112ea556bc"  >
<rect style="stroke: none; stroke-width: 1; stroke-dasharray: none; stroke-linecap: butt; stroke-dashoffset: 0; stroke-linejoin: miter; stroke-miterlimit: 4; fill: rgb(255,255,255); fill-rule: nonzero; opacity: 1;" vector-effect="non-scaling-stroke"  x="-540" y="-540" rx="0" ry="0" width="1080" height="1080" />
</g>
<g transform="matrix(1 0 0 1 540 540)" id="cd61f23c-a916-4955-b822-f5ab13e8e9e1"  >
</g>
<g transform="matrix(17.28 0 0 17.28 540 540)"  >
<g style="" vector-effect="non-scaling-stroke"   >
		<g transform="matrix(1 0 0 1 7.75 1)"  >
<path style="stroke: none; stroke-width: 1; stroke-dasharray: none; stroke-linecap: butt; stroke-dashoffset: 0; stroke-linejoin: miter; stroke-miterlimit: 4; fill: rgb(0,0,0); fill-rule: nonzero; opacity: 1;" vector-effect="non-scaling-stroke"  transform=" translate(-39.75, -27)" d="M 39.5 28 L 39.5 25 L 40.5 25 L 40.5 24 L 37.5 24 L 37.5 25 L 38.5 25 L 38.5 28 z M 41 29 L 42 29 L 42 30 L 41 30 z" stroke-linecap="round" />
</g>
		<g transform="matrix(1 0 0 1 10.5 2.5)"  >
<path style="stroke: none; stroke-width: 1; stroke-dasharray: none; stroke-linecap: butt; stroke-dashoffset: 0; stroke-linejoin: miter; stroke-miterlimit: 4; fill: rgb(0,0,0); fill-rule: nonzero; opacity: 1;" vector-effect="non-scaling-stroke"  transform=" translate(-42.5, -28.5)" d="M 42 28 L 43 28 L 43 29 L 42 29 z" stroke-linecap="round" />
</g>
		<g transform="matrix(1 0 0 1 8 1)"  >
<path style="stroke: none; stroke-width: 1; stroke-dasharray: none; stroke-linecap: butt; stroke-dashoffset: 0; stroke-linejoin: miter; stroke-miterlimit: 4; fill: rgb(0,0,0); fill-rule: nonzero; opacity: 1;" vector-effect="non-scaling-stroke"  transform=" translate(-40, -27)" d="M 43 24 L 44 24 L 44 28 L 43 28 z M 36 29 L 37 29 L 37 30 L 36 30 z" stroke-linecap="round" />
</g>
		<g transform="matrix(1 0 0 1 7.5 0.5)"  >
<path style="stroke: none; stroke-width: 1; stroke-dasharray: none; stroke-linecap: butt; stroke-dashoffset: 0; stroke-linejoin: miter; stroke-miterlimit: 4; fill: rgb(0,0,0); fill-rule: nonzero; opacity: 1;" vector-effect="non-scaling-stroke"  transform=" translate(-39.5, -26.5)" d="M 37 30 L 41 30 L 41 31 L 37 31 z M 41 22 L 42 22 L 42 23 L 41 23 z" stroke-linecap="round" />
</g>
		<g transform="matrix(1 0 0 1 5.5 -1.5)"  >
<path style="stroke: none; stroke-width: 1; stroke-dasharray: none; stroke-linecap: butt; stroke-dashoffset: 0; stroke-linejoin: miter; stroke-miterlimit: 4; fill: rgb(0,0,0); fill-rule: nonzero; opacity: 1;" vector-effect="non-scaling-stroke"  transform=" translate(-37.5, -24.5)" d="M 37 21 L 41 21 L 41 22 L 37 22 z M 34 24 L 35 24 L 35 28 L 34 28 z" stroke-linecap="round" />
</g>
		<g transform="matrix(1 0 0 1 4.5 -3.5)"  >
<path style="stroke: none; stroke-width: 1; stroke-dasharray: none; stroke-linecap: butt; stroke-dashoffset: 0; stroke-linejoin: miter; stroke-miterlimit: 4; fill: rgb(0,0,0); fill-rule: nonzero; opacity: 1;" vector-effect="non-scaling-stroke"  transform=" translate(-36.5, -22.5)" d="M 36 22 L 37 22 L 37 23 L 36 23 z" stroke-linecap="round" />
</g>
		<g transform="matrix(1 0 0 1 -2.25 0.5)"  >
<path style="stroke: none; stroke-width: 1; stroke-dasharray: none; stroke-linecap: butt; stroke-dashoffset: 0; stroke-linejoin: miter; stroke-miterlimit: 4; fill: rgb(0,0,0); fill-rule: nonzero; opacity: 1;" vector-effect="non-scaling-stroke"  transform=" translate(-29.75, -26.5)" d="M 35 23 L 36 23 L 36 24 L 35 24 z M 25.5 28 L 25.5 25 L 26.5 25 L 26.5 24 L 23.5 24 L 23.5 25 L 24.5 25 L 24.5 28 z M 27 29 L 28 29 L 28 30 L 27 30 z" stroke-linecap="round" />
</g>
		<g transform="matrix(1 0 0 1 -3.5 2.5)"  >
<path style="stroke: none; stroke-width: 1; stroke-dasharray: none; stroke-linecap: butt; stroke-dashoffset: 0; stroke-linejoin: miter; stroke-miterlimit: 4; fill: rgb(0,0,0); fill-rule: nonzero; opacity: 1;" vector-effect="non-scaling-stroke"  transform=" translate(-28.5, -28.5)" d="M 28 28 L 29 28 L 29 29 L 28 29 z" stroke-linecap="round" />
</g>
		<g transform="matrix(1 0 0 1 -6 1)"  >
<path style="stroke: none; stroke-width: 1; stroke-dasharray: none; stroke-linecap: butt; stroke-dashoffset: 0; stroke-linejoin: miter; stroke-miterlimit: 4; fill: rgb(0,0,0); fill-rule: nonzero; opacity: 1;" vector-effect="non-scaling-stroke"  transform=" translate(-26, -27)" d="M 29 24 L 30 24 L 30 28 L 29 28 z M 22 29 L 23 29 L 23 30 L 22 30 z" stroke-linecap="round" />
</g>
		<g transform="matrix(1 0 0 1 -6.5 0.5)"  >
<path style="stroke: none; stroke-width: 1; stroke-dasharray: none; stroke-linecap: butt; stroke-dashoffset: 0; stroke-linejoin: miter; stroke-miterlimit: 4; fill: rgb(0,0,0); fill-rule: nonzero; opacity: 1;" vector-effect="non-scaling-stroke"  transform=" translate(-25.5, -26.5)" d="M 23 30 L 27 30 L 27 31 L 23 31 z M 27 22 L 28 22 L 28 23 L 27 23 z" stroke-linecap="round" />
</g>
		<g transform="matrix(1 0 0 1 -8.5 -1.5)"  >
<path style="stroke: none; stroke-width: 1; stroke-dasharray: none; stroke-linecap: butt; stroke-dashoffset: 0; stroke-linejoin: miter; stroke-miterlimit: 4; fill: rgb(0,0,0); fill-rule: nonzero; opacity: 1;" vector-effect="non-scaling-stroke"  transform=" translate(-23.5, -24.5)" d="M 23 21 L 27 21 L 27 22 L 23 22 z M 20 24 L 21 24 L 21 28 L 20 28 z" stroke-linecap="round" />
</g>
		<g transform="matrix(1 0 0 1 -9.5 -3.5)"  >
<path style="stroke: none; stroke-width: 1; stroke-dasharray: none; stroke-linecap: butt; stroke-dashoffset: 0; stroke-linejoin: miter; stroke-miterlimit: 4; fill: rgb(0,0,0); fill-rule: nonzero; opacity: 1;" vector-effect="non-scaling-stroke"  transform=" translate(-22.5, -22.5)" d="M 22 22 L 23 22 L 23 23 L 22 23 z" stroke-linecap="round" />
</g>
		<g transform="matrix(1 0 0 1 -10.5 -2.5)"  >
<path style="stroke: none; stroke-width: 1; stroke-dasharray: none; stroke-linecap: butt; stroke-dashoffset: 0; stroke-linejoin: miter; stroke-miterlimit: 4; fill: rgb(0,0,0); fill-rule: nonzero; opacity: 1;" vector-effect="non-scaling-stroke"  transform=" translate(-21.5, -23.5)" d="M 21 23 L 22 23 L 22 24 L 21 24 z" stroke-linecap="round" />
</g>
</g>
</g>
</svg>