<?xml version="1.0" encoding="UTF-8" standalone="no" ?>
<!DOCTYPE svg PUBLIC "-//W3C//DTD SVG 1.1//EN" "http://www.w3.org/Graphics/SVG/1.1/DTD/svg11.dtd">
<svg xmlns="http://www.w3.org/2000/svg" xmlns:xlink="http://www.w3.org/1999/xlink" version="1.1" width="1080" height="1080" viewBox="0 0 1080 1080" xml:space="preserve">
<desc>Created with Fabric.js 4.2.0</desc>
<defs>
</defs>
<g transform="matrix(1 0 0 1 540 540)" id="9d6a51ab-ca7e-4cd5-9a18-307a1f66d41f"  >
<rect style="stroke: none; stroke-width: 1; stroke-dasharray: none; stroke-linecap: butt; stroke-dashoffset: 0; stroke-linejoin: miter; stroke-miterlimit: 4; fill: rgb(255,255,255); fill-rule: nonzero; opacity: 1;" vector-effect="non-scaling-stroke"  x="-540" y="-540" rx="0" ry="0" width="1080" height="1080" />
</g>
<g transform="matrix(1 0 0 1 540 540)" id="62fbabb4-8d40-473c-94d9-7f7a9a0b2836"  >
</g>
<g transform="matrix(18.78 0 0 18.78 540 540)"  >
<g style="" vector-effect="non-scaling-stroke"   >
		<g transform="matrix(1 0 0 1 -7 0)"  >
<path style="stroke: none; stroke-width: 1; stroke-dasharray: none; stroke-linecap: butt; stroke-dashoffset: 0; stroke-linejoin: miter; stroke-miterlimit: 4; fill: rgb(0,0,0); fill-rule: nonzero; opacity: 1;" vector-effect="non-scaling-stroke"  transform=" translate(-25, -24.5)" d="M 27 23 L 26 23 L 25 23 L 24 23 L 23 23 L 22 23 L 21 23 L 21 24 L 21 25 L 21 26 L 22 26 L 23 26 L 24 26 L 25 26 L 26 26 L 27 26 L 28 26 L 29 26 L 29 25 L 29 24 L 29 23 L 28 23 L 27 23 Z M 23 25 L 22 25 L 22 24 L 23 24 L 24 24 L 24 25 L 23 25 Z M 28 25 L 27 25 L 26 25 L 26 24 L 27 24 L 28 24 L 28 25 Z" stroke-linecap="round" />
</g>
		<g transform="matrix(1 0 0 1 -7 0)"  >
<rect style="stroke: none; stroke-width: 1; stroke-dasharray: none; stroke-linecap: butt; stroke-dashoffset: 0; stroke-linejoin: miter; stroke-miterlimit: 4; fill: rgb(0,0,0); fill-rule: nonzero; opacity: 1;" vector-effect="non-scaling-stroke"  x="-1" y="-0.5" rx="0" ry="0" width="2" height="1" />
</g>
		<g transform="matrix(1 0 0 1 7 0)"  >
<path style="stroke: none; stroke-width: 1; stroke-dasharray: none; stroke-linecap: butt; stroke-dashoffset: 0; stroke-linejoin: miter; stroke-miterlimit: 4; fill: rgb(0,0,0); fill-rule: nonzero; opacity: 1;" vector-effect="non-scaling-stroke"  transform=" translate(-39, -24.5)" d="M 42 23 L 41 23 L 40 23 L 39 23 L 38 23 L 37 23 L 36 23 L 35 23 L 35 24 L 35 25 L 35 26 L 36 26 L 37 26 L 38 26 L 39 26 L 40 26 L 41 26 L 42 26 L 43 26 L 43 25 L 43 24 L 43 23 L 42 23 Z M 37 25 L 36 25 L 36 24 L 37 24 L 38 24 L 38 25 L 37 25 Z M 42 25 L 41 25 L 40 25 L 40 24 L 41 24 L 42 24 L 42 25 Z" stroke-linecap="round" />
</g>
		<g transform="matrix(1 0 0 1 7 0)"  >
<rect style="stroke: none; stroke-width: 1; stroke-dasharray: none; stroke-linecap: butt; stroke-dashoffset: 0; stroke-linejoin: miter; stroke-miterlimit: 4; fill: rgb(0,0,0); fill-rule: nonzero; opacity: 1;" vector-effect="non-scaling-stroke"  x="-1" y="-0.5" rx="0" ry="0" width="2" height="1" />
</g>
</g>
</g>
</svg>