<?xml version="1.0" encoding="UTF-8" standalone="no" ?>
<!DOCTYPE svg PUBLIC "-//W3C//DTD SVG 1.1//EN" "http://www.w3.org/Graphics/SVG/1.1/DTD/svg11.dtd">
<svg xmlns="http://www.w3.org/2000/svg" xmlns:xlink="http://www.w3.org/1999/xlink" version="1.1" width="1080" height="1080" viewBox="0 0 1080 1080" xml:space="preserve">
<desc>Created with Fabric.js 4.2.0</desc>
<defs>
</defs>
<g transform="matrix(1 0 0 1 540 540)" id="d2ebe885-3eb6-4881-84b8-8afd0f54edac"  >
<rect style="stroke: none; stroke-width: 1; stroke-dasharray: none; stroke-linecap: butt; stroke-dashoffset: 0; stroke-linejoin: miter; stroke-miterlimit: 4; fill: rgb(255,255,255); fill-rule: nonzero; opacity: 1;" vector-effect="non-scaling-stroke"  x="-540" y="-540" rx="0" ry="0" width="1080" height="1080" />
</g>
<g transform="matrix(1 0 0 1 540 540)" id="03ae24c9-477c-4429-a05a-41382cd551f1"  >
</g>
<g transform="matrix(20.57 0 0 20.57 540 540)"  >
<g style="" vector-effect="non-scaling-stroke"   >
		<g transform="matrix(1 0 0 1 4.5 6.5)"  >
<path style="stroke: none; stroke-width: 1; stroke-dasharray: none; stroke-linecap: butt; stroke-dashoffset: 0; stroke-linejoin: miter; stroke-miterlimit: 4; fill: rgb(255,255,255); fill-rule: nonzero; opacity: 1;" vector-effect="non-scaling-stroke"  transform=" translate(-35.5, -20.5)" d="M 35 20 L 36 20 L 36 21 L 35 21 L 35 20 z" stroke-linecap="round" />
</g>
		<g transform="matrix(1 0 0 1 6 -14)"  >
<path style="stroke: none; stroke-width: 1; stroke-dasharray: none; stroke-linecap: butt; stroke-dashoffset: 0; stroke-linejoin: miter; stroke-miterlimit: 4; fill: rgb(255,222,236); fill-rule: nonzero; opacity: 1;" vector-effect="non-scaling-stroke"  transform=" translate(-37, 0)" d="M 37 22 L 37 21 L 36 21 L 36 23 L 38 23 L 38 22 z M 37 NaN" stroke-linecap="round" />
</g>
		<g transform="matrix(1 0 0 1 6.5 10.5)"  >
<path style="stroke: none; stroke-width: 1; stroke-dasharray: none; stroke-linecap: butt; stroke-dashoffset: 0; stroke-linejoin: miter; stroke-miterlimit: 4; fill: rgb(0,0,0); fill-rule: nonzero; opacity: 1;" vector-effect="non-scaling-stroke"  transform=" translate(-37.5, -24.5)" d="M 37 24 L 38 24 L 38 25 L 37 25 z" stroke-linecap="round" />
</g>
		<g transform="matrix(1 0 0 1 4 5.5)"  >
<path style="stroke: none; stroke-width: 1; stroke-dasharray: none; stroke-linecap: butt; stroke-dashoffset: 0; stroke-linejoin: miter; stroke-miterlimit: 4; fill: rgb(255,48,133); fill-rule: nonzero; opacity: 1;" vector-effect="non-scaling-stroke"  transform=" translate(-35, -19.5)" d="M 36 20 L 36 19 L 35 19 L 35 18 L 34 18 L 34 21 L 35 21 L 35 20 z" stroke-linecap="round" />
</g>
		<g transform="matrix(1 0 0 1 5.5 6.5)"  >
<path style="stroke: none; stroke-width: 1; stroke-dasharray: none; stroke-linecap: butt; stroke-dashoffset: 0; stroke-linejoin: miter; stroke-miterlimit: 4; fill: rgb(255,48,133); fill-rule: nonzero; opacity: 1;" vector-effect="non-scaling-stroke"  transform=" translate(-36.5, -20.5)" d="M 36 20 L 37 20 L 37 21 L 36 21 z" stroke-linecap="round" />
</g>
		<g transform="matrix(1 0 0 1 6.5 7.5)"  >
<path style="stroke: none; stroke-width: 1; stroke-dasharray: none; stroke-linecap: butt; stroke-dashoffset: 0; stroke-linejoin: miter; stroke-miterlimit: 4; fill: rgb(255,48,133); fill-rule: nonzero; opacity: 1;" vector-effect="non-scaling-stroke"  transform=" translate(-37.5, -21.5)" d="M 37 21 L 38 21 L 38 22 L 37 22 z" stroke-linecap="round" />
</g>
		<g transform="matrix(1 0 0 1 7.5 11)"  >
<path style="stroke: none; stroke-width: 1; stroke-dasharray: none; stroke-linecap: butt; stroke-dashoffset: 0; stroke-linejoin: miter; stroke-miterlimit: 4; fill: rgb(255,48,133); fill-rule: nonzero; opacity: 1;" vector-effect="non-scaling-stroke"  transform=" translate(-38.5, -25)" d="M 40 24 L 40 23 L 39 23 L 39 22 L 38 22 L 38 23 L 36 23 L 36 26 L 37 26 L 37 28 L 40 28 L 40 27 L 41 27 L 41 24 L 40 24 z M 37 24 L 38 24 L 38 25 L 37 25 L 37 24 z" stroke-linecap="round" />
</g>
		<g transform="matrix(1 0 0 1 4.5 8)"  >
<path style="stroke: none; stroke-width: 1; stroke-dasharray: none; stroke-linecap: butt; stroke-dashoffset: 0; stroke-linejoin: miter; stroke-miterlimit: 4; fill: rgb(255,48,133); fill-rule: nonzero; opacity: 1;" vector-effect="non-scaling-stroke"  transform=" translate(-35.5, -22)" d="M 35 21 L 36 21 L 36 23 L 35 23 z" stroke-linecap="round" />
</g>
		<g transform="matrix(1 0 0 1 -8.5 6.5)"  >
<path style="stroke: none; stroke-width: 1; stroke-dasharray: none; stroke-linecap: butt; stroke-dashoffset: 0; stroke-linejoin: miter; stroke-miterlimit: 4; fill: rgb(255,255,255); fill-rule: nonzero; opacity: 1;" vector-effect="non-scaling-stroke"  transform=" translate(-22.5, -20.5)" d="M 22 20 L 23 20 L 23 21 L 22 21 L 22 20 z" stroke-linecap="round" />
</g>
		<g transform="matrix(1 0 0 1 -7 -14)"  >
<path style="stroke: none; stroke-width: 1; stroke-dasharray: none; stroke-linecap: butt; stroke-dashoffset: 0; stroke-linejoin: miter; stroke-miterlimit: 4; fill: rgb(255,222,236); fill-rule: nonzero; opacity: 1;" vector-effect="non-scaling-stroke"  transform=" translate(-24, 0)" d="M 24 22 L 24 21 L 23 21 L 23 23 L 25 23 L 25 22 z M 24 NaN" stroke-linecap="round" />
</g>
		<g transform="matrix(1 0 0 1 -6.5 10.5)"  >
<path style="stroke: none; stroke-width: 1; stroke-dasharray: none; stroke-linecap: butt; stroke-dashoffset: 0; stroke-linejoin: miter; stroke-miterlimit: 4; fill: rgb(0,0,0); fill-rule: nonzero; opacity: 1;" vector-effect="non-scaling-stroke"  transform=" translate(-24.5, -24.5)" d="M 24 24 L 25 24 L 25 25 L 24 25 z" stroke-linecap="round" />
</g>
		<g transform="matrix(1 0 0 1 -9 5.5)"  >
<path style="stroke: none; stroke-width: 1; stroke-dasharray: none; stroke-linecap: butt; stroke-dashoffset: 0; stroke-linejoin: miter; stroke-miterlimit: 4; fill: rgb(255,48,133); fill-rule: nonzero; opacity: 1;" vector-effect="non-scaling-stroke"  transform=" translate(-22, -19.5)" d="M 23 20 L 23 19 L 22 19 L 22 18 L 21 18 L 21 21 L 22 21 L 22 20 z" stroke-linecap="round" />
</g>
		<g transform="matrix(1 0 0 1 -7.5 6.5)"  >
<path style="stroke: none; stroke-width: 1; stroke-dasharray: none; stroke-linecap: butt; stroke-dashoffset: 0; stroke-linejoin: miter; stroke-miterlimit: 4; fill: rgb(255,48,133); fill-rule: nonzero; opacity: 1;" vector-effect="non-scaling-stroke"  transform=" translate(-23.5, -20.5)" d="M 23 20 L 24 20 L 24 21 L 23 21 z" stroke-linecap="round" />
</g>
		<g transform="matrix(1 0 0 1 -6.5 7.5)"  >
<path style="stroke: none; stroke-width: 1; stroke-dasharray: none; stroke-linecap: butt; stroke-dashoffset: 0; stroke-linejoin: miter; stroke-miterlimit: 4; fill: rgb(255,48,133); fill-rule: nonzero; opacity: 1;" vector-effect="non-scaling-stroke"  transform=" translate(-24.5, -21.5)" d="M 24 21 L 25 21 L 25 22 L 24 22 z" stroke-linecap="round" />
</g>
		<g transform="matrix(1 0 0 1 -5.5 11)"  >
<path style="stroke: none; stroke-width: 1; stroke-dasharray: none; stroke-linecap: butt; stroke-dashoffset: 0; stroke-linejoin: miter; stroke-miterlimit: 4; fill: rgb(255,48,133); fill-rule: nonzero; opacity: 1;" vector-effect="non-scaling-stroke"  transform=" translate(-25.5, -25)" d="M 27 24 L 27 23 L 26 23 L 26 22 L 25 22 L 25 23 L 23 23 L 23 26 L 24 26 L 24 28 L 27 28 L 27 27 L 28 27 L 28 24 L 27 24 z M 24 24 L 25 24 L 25 25 L 24 25 L 24 24 z" stroke-linecap="round" />
</g>
		<g transform="matrix(1 0 0 1 -8.5 8)"  >
<path style="stroke: none; stroke-width: 1; stroke-dasharray: none; stroke-linecap: butt; stroke-dashoffset: 0; stroke-linejoin: miter; stroke-miterlimit: 4; fill: rgb(255,48,133); fill-rule: nonzero; opacity: 1;" vector-effect="non-scaling-stroke"  transform=" translate(-22.5, -22)" d="M 22 21 L 23 21 L 23 23 L 22 23 z" stroke-linecap="round" />
</g>
</g>
</g>
</svg>