<?xml version="1.0" encoding="UTF-8" standalone="no" ?>
<!DOCTYPE svg PUBLIC "-//W3C//DTD SVG 1.1//EN" "http://www.w3.org/Graphics/SVG/1.1/DTD/svg11.dtd">
<svg xmlns="http://www.w3.org/2000/svg" xmlns:xlink="http://www.w3.org/1999/xlink" version="1.1" width="1080" height="1080" viewBox="0 0 1080 1080" xml:space="preserve">
<desc>Created with Fabric.js 4.2.0</desc>
<defs>
</defs>
<g transform="matrix(1 0 0 1 540 540)" id="d7f8334d-ddb6-4bc0-8f6b-d2cc49b4dbe3"  >
<rect style="stroke: none; stroke-width: 1; stroke-dasharray: none; stroke-linecap: butt; stroke-dashoffset: 0; stroke-linejoin: miter; stroke-miterlimit: 4; fill: rgb(255,255,255); fill-rule: nonzero; opacity: 1;" vector-effect="non-scaling-stroke"  x="-540" y="-540" rx="0" ry="0" width="1080" height="1080" />
</g>
<g transform="matrix(1 0 0 1 540 540)" id="784495fb-3495-41e9-92df-ba75bb7aead7"  >
</g>
<g transform="matrix(17.28 0 0 17.28 540 540)"  >
<g style="" vector-effect="non-scaling-stroke"   >
		<g transform="matrix(1 0 0 1 7.5 0.5)"  >
<path style="stroke: none; stroke-width: 1; stroke-dasharray: none; stroke-linecap: butt; stroke-dashoffset: 0; stroke-linejoin: miter; stroke-miterlimit: 4; fill: rgb(0,0,0); fill-rule: nonzero; opacity: 1;" vector-effect="non-scaling-stroke"  transform=" translate(-39.5, -26)" d="M 41 25 L 38 25 L 38 24 L 41 24 L 41 23 L 39.5 23 L 39.5 22 L 38.5 22 L 38.5 23 L 37 23 L 37 26 L 40 26 L 40 27 L 37 27 L 37 28 L 38.5 28 L 38.5 29 L 39.5 29 L 39.5 28 L 41 28 z M 41 29 L 42 29 L 42 30 L 41 30 z" stroke-linecap="round" />
</g>
		<g transform="matrix(1 0 0 1 10.5 3)"  >
<path style="stroke: none; stroke-width: 1; stroke-dasharray: none; stroke-linecap: butt; stroke-dashoffset: 0; stroke-linejoin: miter; stroke-miterlimit: 4; fill: rgb(0,0,0); fill-rule: nonzero; opacity: 1;" vector-effect="non-scaling-stroke"  transform=" translate(-42.5, -28.5)" d="M 42 28 L 43 28 L 43 29 L 42 29 z" stroke-linecap="round" />
</g>
		<g transform="matrix(1 0 0 1 10.5 -1)"  >
<path style="stroke: none; stroke-width: 1; stroke-dasharray: none; stroke-linecap: butt; stroke-dashoffset: 0; stroke-linejoin: miter; stroke-miterlimit: 4; fill: rgb(0,0,0); fill-rule: nonzero; opacity: 1;" vector-effect="non-scaling-stroke"  transform=" translate(-42.5, -24.5)" d="M 43 23 L 44 23 L 44 28 L 43 28 z M 41 21 L 42 21 L 42 22 L 41 22 z" stroke-linecap="round" />
</g>
		<g transform="matrix(1 0 0 1 6.5 0.5)"  >
<path style="stroke: none; stroke-width: 1; stroke-dasharray: none; stroke-linecap: butt; stroke-dashoffset: 0; stroke-linejoin: miter; stroke-miterlimit: 4; fill: rgb(0,0,0); fill-rule: nonzero; opacity: 1;" vector-effect="non-scaling-stroke"  transform=" translate(-38.5, -26)" d="M 42 22 L 43 22 L 43 23 L 42 23 z M 36 29 L 37 29 L 37 30 L 36 30 z M 34 23 L 35 23 L 35 28 L 34 28 z" stroke-linecap="round" />
</g>
		<g transform="matrix(1 0 0 1 4 -0.5)"  >
<path style="stroke: none; stroke-width: 1; stroke-dasharray: none; stroke-linecap: butt; stroke-dashoffset: 0; stroke-linejoin: miter; stroke-miterlimit: 4; fill: rgb(0,0,0); fill-rule: nonzero; opacity: 1;" vector-effect="non-scaling-stroke"  transform=" translate(-36, -25)" d="M 35 28 L 36 28 L 36 29 L 35 29 z M 36 21 L 37 21 L 37 22 L 36 22 z" stroke-linecap="round" />
</g>
		<g transform="matrix(1 0 0 1 -2.5 0.5)"  >
<path style="stroke: none; stroke-width: 1; stroke-dasharray: none; stroke-linecap: butt; stroke-dashoffset: 0; stroke-linejoin: miter; stroke-miterlimit: 4; fill: rgb(0,0,0); fill-rule: nonzero; opacity: 1;" vector-effect="non-scaling-stroke"  transform=" translate(-29.5, -26)" d="M 35 22 L 36 22 L 36 23 L 35 23 z M 27 25 L 24 25 L 24 24 L 27 24 L 27 23 L 25.5 23 L 25.5 22 L 24.5 22 L 24.5 23 L 23 23 L 23 26 L 26 26 L 26 27 L 23 27 L 23 28 L 24.5 28 L 24.5 29 L 25.5 29 L 25.5 28 L 27 28 z M 27 29 L 28 29 L 28 30 L 27 30 z" stroke-linecap="round" />
</g>
		<g transform="matrix(1 0 0 1 -3.5 3)"  >
<path style="stroke: none; stroke-width: 1; stroke-dasharray: none; stroke-linecap: butt; stroke-dashoffset: 0; stroke-linejoin: miter; stroke-miterlimit: 4; fill: rgb(0,0,0); fill-rule: nonzero; opacity: 1;" vector-effect="non-scaling-stroke"  transform=" translate(-28.5, -28.5)" d="M 28 28 L 29 28 L 29 29 L 28 29 z" stroke-linecap="round" />
</g>
		<g transform="matrix(1 0 0 1 -3.5 -1)"  >
<path style="stroke: none; stroke-width: 1; stroke-dasharray: none; stroke-linecap: butt; stroke-dashoffset: 0; stroke-linejoin: miter; stroke-miterlimit: 4; fill: rgb(0,0,0); fill-rule: nonzero; opacity: 1;" vector-effect="non-scaling-stroke"  transform=" translate(-28.5, -24.5)" d="M 29 23 L 30 23 L 30 28 L 29 28 z M 27 21 L 28 21 L 28 22 L 27 22 z" stroke-linecap="round" />
</g>
		<g transform="matrix(1 0 0 1 -7.5 0.5)"  >
<path style="stroke: none; stroke-width: 1; stroke-dasharray: none; stroke-linecap: butt; stroke-dashoffset: 0; stroke-linejoin: miter; stroke-miterlimit: 4; fill: rgb(0,0,0); fill-rule: nonzero; opacity: 1;" vector-effect="non-scaling-stroke"  transform=" translate(-24.5, -26)" d="M 28 22 L 29 22 L 29 23 L 28 23 z M 22 29 L 23 29 L 23 30 L 22 30 z M 20 23 L 21 23 L 21 28 L 20 28 z" stroke-linecap="round" />
</g>
		<g transform="matrix(1 0 0 1 -10 -0.5)"  >
<path style="stroke: none; stroke-width: 1; stroke-dasharray: none; stroke-linecap: butt; stroke-dashoffset: 0; stroke-linejoin: miter; stroke-miterlimit: 4; fill: rgb(0,0,0); fill-rule: nonzero; opacity: 1;" vector-effect="non-scaling-stroke"  transform=" translate(-22, -25)" d="M 21 28 L 22 28 L 22 29 L 21 29 z M 22 21 L 23 21 L 23 22 L 22 22 z" stroke-linecap="round" />
</g>
		<g transform="matrix(1 0 0 1 -10.5 -3)"  >
<path style="stroke: none; stroke-width: 1; stroke-dasharray: none; stroke-linecap: butt; stroke-dashoffset: 0; stroke-linejoin: miter; stroke-miterlimit: 4; fill: rgb(0,0,0); fill-rule: nonzero; opacity: 1;" vector-effect="non-scaling-stroke"  transform=" translate(-21.5, -22.5)" d="M 21 22 L 22 22 L 22 23 L 21 23 z" stroke-linecap="round" />
</g>
</g>
</g>
</svg>