<?xml version="1.0" encoding="UTF-8" standalone="no" ?>
<!DOCTYPE svg PUBLIC "-//W3C//DTD SVG 1.1//EN" "http://www.w3.org/Graphics/SVG/1.1/DTD/svg11.dtd">
<svg xmlns="http://www.w3.org/2000/svg" xmlns:xlink="http://www.w3.org/1999/xlink" version="1.1" width="1080" height="1080" viewBox="0 0 1080 1080" xml:space="preserve">
<desc>Created with Fabric.js 4.2.0</desc>
<defs>
</defs>
<g transform="matrix(1 0 0 1 540 540)" id="221fc28c-5ed7-47da-b282-bf5104174787"  >
<rect style="stroke: none; stroke-width: 1; stroke-dasharray: none; stroke-linecap: butt; stroke-dashoffset: 0; stroke-linejoin: miter; stroke-miterlimit: 4; fill: rgb(255,255,255); fill-rule: nonzero; opacity: 1;" vector-effect="non-scaling-stroke"  x="-540" y="-540" rx="0" ry="0" width="1080" height="1080" />
</g>
<g transform="matrix(1 0 0 1 540 540)" id="5d3064d7-a8d0-4787-a240-65e7cf54deaa"  >
</g>
<g transform="matrix(17.28 0 0 17.28 540 540)"  >
<g style="" vector-effect="non-scaling-stroke"   >
		<g transform="matrix(1 0 0 1 7 0)"  >
<path style="stroke: none; stroke-width: 1; stroke-dasharray: none; stroke-linecap: butt; stroke-dashoffset: 0; stroke-linejoin: miter; stroke-miterlimit: 4; fill: rgb(0,0,0); fill-rule: nonzero; opacity: 1;" vector-effect="non-scaling-stroke"  transform=" translate(-39, -25.5)" d="M 38 27 L 40 27 L 40 30 L 38 30 z M 38 25 L 38 26 L 40 26 L 40 25 L 43 25 L 43 24 L 40 24 L 40 23 L 42 23 L 42 21 L 36 21 L 36 23 L 38 23 L 38 24 L 35 24 L 35 25 z" stroke-linecap="round" />
</g>
		<g transform="matrix(1 0 0 1 2.5 0)"  >
<path style="stroke: none; stroke-width: 1; stroke-dasharray: none; stroke-linecap: butt; stroke-dashoffset: 0; stroke-linejoin: miter; stroke-miterlimit: 4; fill: rgb(0,0,0); fill-rule: nonzero; opacity: 1;" vector-effect="non-scaling-stroke"  transform=" translate(-34.5, -25.5)" d="M 34 25 L 35 25 L 35 26 L 34 26 z" stroke-linecap="round" />
</g>
		<g transform="matrix(1 0 0 1 7.5 0.5)"  >
<path style="stroke: none; stroke-width: 1; stroke-dasharray: none; stroke-linecap: butt; stroke-dashoffset: 0; stroke-linejoin: miter; stroke-miterlimit: 4; fill: rgb(0,0,0); fill-rule: nonzero; opacity: 1;" vector-effect="non-scaling-stroke"  transform=" translate(-39.5, -26)" d="M 35 26 L 38 26 L 38 27 L 35 27 z M 43 25 L 44 25 L 44 26 L 43 26 z" stroke-linecap="round" />
</g>
		<g transform="matrix(1 0 0 1 0 0)"  >
<path style="stroke: none; stroke-width: 1; stroke-dasharray: none; stroke-linecap: butt; stroke-dashoffset: 0; stroke-linejoin: miter; stroke-miterlimit: 4; fill: rgb(0,0,0); fill-rule: nonzero; opacity: 1;" vector-effect="non-scaling-stroke"  transform=" translate(-32, -25.5)" d="M 40 26 L 43 26 L 43 27 L 40 27 z M 24 27 L 26 27 L 26 30 L 24 30 z M 24 25 L 24 26 L 26 26 L 26 25 L 29 25 L 29 24 L 26 24 L 26 23 L 28 23 L 28 21 L 22 21 L 22 23 L 24 23 L 24 24 L 21 24 L 21 25 z" stroke-linecap="round" />
</g>
		<g transform="matrix(1 0 0 1 -11.5 0)"  >
<path style="stroke: none; stroke-width: 1; stroke-dasharray: none; stroke-linecap: butt; stroke-dashoffset: 0; stroke-linejoin: miter; stroke-miterlimit: 4; fill: rgb(0,0,0); fill-rule: nonzero; opacity: 1;" vector-effect="non-scaling-stroke"  transform=" translate(-20.5, -25.5)" d="M 20 25 L 21 25 L 21 26 L 20 26 z" stroke-linecap="round" />
</g>
		<g transform="matrix(1 0 0 1 -6.5 0.5)"  >
<path style="stroke: none; stroke-width: 1; stroke-dasharray: none; stroke-linecap: butt; stroke-dashoffset: 0; stroke-linejoin: miter; stroke-miterlimit: 4; fill: rgb(0,0,0); fill-rule: nonzero; opacity: 1;" vector-effect="non-scaling-stroke"  transform=" translate(-25.5, -26)" d="M 21 26 L 24 26 L 24 27 L 21 27 z M 29 25 L 30 25 L 30 26 L 29 26 z" stroke-linecap="round" />
</g>
		<g transform="matrix(1 0 0 1 -4.5 1)"  >
<path style="stroke: none; stroke-width: 1; stroke-dasharray: none; stroke-linecap: butt; stroke-dashoffset: 0; stroke-linejoin: miter; stroke-miterlimit: 4; fill: rgb(0,0,0); fill-rule: nonzero; opacity: 1;" vector-effect="non-scaling-stroke"  transform=" translate(-27.5, -26.5)" d="M 26 26 L 29 26 L 29 27 L 26 27 z" stroke-linecap="round" />
</g>
</g>
</g>
</svg>