<?xml version="1.0" encoding="UTF-8" standalone="no" ?>
<!DOCTYPE svg PUBLIC "-//W3C//DTD SVG 1.1//EN" "http://www.w3.org/Graphics/SVG/1.1/DTD/svg11.dtd">
<svg xmlns="http://www.w3.org/2000/svg" xmlns:xlink="http://www.w3.org/1999/xlink" version="1.1" width="1080" height="1080" viewBox="0 0 1080 1080" xml:space="preserve">
<desc>Created with Fabric.js 4.2.0</desc>
<defs>
</defs>
<g transform="matrix(1 0 0 1 540 540)" id="c9b3fe08-0461-49a2-9ed1-7876dc8212a5"  >
<rect style="stroke: none; stroke-width: 1; stroke-dasharray: none; stroke-linecap: butt; stroke-dashoffset: 0; stroke-linejoin: miter; stroke-miterlimit: 4; fill: rgb(255,255,255); fill-rule: nonzero; opacity: 1;" vector-effect="non-scaling-stroke"  x="-540" y="-540" rx="0" ry="0" width="1080" height="1080" />
</g>
<g transform="matrix(1 0 0 1 540 540)" id="71745b29-8df7-4583-8a9b-0a58fe6f51f1"  >
</g>
<g transform="matrix(20.57 0 0 20.57 540 540)"  >
<g style="" vector-effect="non-scaling-stroke"   >
		<g transform="matrix(1 0 0 1 8.5 0.5)"  >
<path style="stroke: none; stroke-width: 1; stroke-dasharray: none; stroke-linecap: butt; stroke-dashoffset: 0; stroke-linejoin: miter; stroke-miterlimit: 4; fill: rgb(0,0,0); fill-rule: nonzero; opacity: 1;" vector-effect="non-scaling-stroke"  transform=" translate(-40.5, -26.5)" d="M 40 26 L 41 26 L 41 27 L 40 27 z" stroke-linecap="round" />
</g>
		<g transform="matrix(1 0 0 1 9.5 2.5)"  >
<path style="stroke: none; stroke-width: 1; stroke-dasharray: none; stroke-linecap: butt; stroke-dashoffset: 0; stroke-linejoin: miter; stroke-miterlimit: 4; fill: rgb(0,0,0); fill-rule: nonzero; opacity: 1;" vector-effect="non-scaling-stroke"  transform=" translate(-41.5, -28.5)" d="M 41 27 L 42 27 L 42 30 L 41 30 z" stroke-linecap="round" />
</g>
		<g transform="matrix(1 0 0 1 7 4.5)"  >
<path style="stroke: none; stroke-width: 1; stroke-dasharray: none; stroke-linecap: butt; stroke-dashoffset: 0; stroke-linejoin: miter; stroke-miterlimit: 4; fill: rgb(0,0,0); fill-rule: nonzero; opacity: 1;" vector-effect="non-scaling-stroke"  transform=" translate(-39, -30.5)" d="M 37 30 L 41 30 L 41 31 L 37 31 z" stroke-linecap="round" />
</g>
		<g transform="matrix(1 0 0 1 4.5 3.5)"  >
<path style="stroke: none; stroke-width: 1; stroke-dasharray: none; stroke-linecap: butt; stroke-dashoffset: 0; stroke-linejoin: miter; stroke-miterlimit: 4; fill: rgb(0,0,0); fill-rule: nonzero; opacity: 1;" vector-effect="non-scaling-stroke"  transform=" translate(-36.5, -29.5)" d="M 36 29 L 37 29 L 37 30 L 36 30 z" stroke-linecap="round" />
</g>
		<g transform="matrix(1 0 0 1 6.5 -1)"  >
<path style="stroke: none; stroke-width: 1; stroke-dasharray: none; stroke-linecap: butt; stroke-dashoffset: 0; stroke-linejoin: miter; stroke-miterlimit: 4; fill: rgb(0,0,0); fill-rule: nonzero; opacity: 1;" vector-effect="non-scaling-stroke"  transform=" translate(-38.5, -25)" d="M 38 27 L 36 27 L 36 28 L 37 28 L 37 29 L 38 29 z M 37 21 L 41 21 L 41 22 L 37 22 z M 37 25 L 38 25 L 38 26 L 37 26 z" stroke-linecap="round" />
</g>
		<g transform="matrix(1 0 0 1 7 -2.5)"  >
<path style="stroke: none; stroke-width: 1; stroke-dasharray: none; stroke-linecap: butt; stroke-dashoffset: 0; stroke-linejoin: miter; stroke-miterlimit: 4; fill: rgb(0,0,0); fill-rule: nonzero; opacity: 1;" vector-effect="non-scaling-stroke"  transform=" translate(-39, -23.5)" d="M 36 22 L 37 22 L 37 25 L 36 25 z M 41 22 L 42 22 L 42 23 L 41 23 z" stroke-linecap="round" />
</g>
		<g transform="matrix(1 0 0 1 2 0)"  >
<path style="stroke: none; stroke-width: 1; stroke-dasharray: none; stroke-linecap: butt; stroke-dashoffset: 0; stroke-linejoin: miter; stroke-miterlimit: 4; fill: rgb(0,0,0); fill-rule: nonzero; opacity: 1;" vector-effect="non-scaling-stroke"  transform=" translate(-34, -26)" d="M 40 23 L 40 25 L 42 25 L 42 24 L 41 24 L 41 23 z M 38.5 23 L 39.5 23 L 39.5 29 L 38.5 29 z M 26 26 L 27 26 L 27 27 L 26 27 z" stroke-linecap="round" />
</g>
		<g transform="matrix(1 0 0 1 -4.5 2.5)"  >
<path style="stroke: none; stroke-width: 1; stroke-dasharray: none; stroke-linecap: butt; stroke-dashoffset: 0; stroke-linejoin: miter; stroke-miterlimit: 4; fill: rgb(0,0,0); fill-rule: nonzero; opacity: 1;" vector-effect="non-scaling-stroke"  transform=" translate(-27.5, -28.5)" d="M 27 27 L 28 27 L 28 30 L 27 30 z" stroke-linecap="round" />
</g>
		<g transform="matrix(1 0 0 1 -7 4.5)"  >
<path style="stroke: none; stroke-width: 1; stroke-dasharray: none; stroke-linecap: butt; stroke-dashoffset: 0; stroke-linejoin: miter; stroke-miterlimit: 4; fill: rgb(0,0,0); fill-rule: nonzero; opacity: 1;" vector-effect="non-scaling-stroke"  transform=" translate(-25, -30.5)" d="M 23 30 L 27 30 L 27 31 L 23 31 z" stroke-linecap="round" />
</g>
		<g transform="matrix(1 0 0 1 -9.5 3.5)"  >
<path style="stroke: none; stroke-width: 1; stroke-dasharray: none; stroke-linecap: butt; stroke-dashoffset: 0; stroke-linejoin: miter; stroke-miterlimit: 4; fill: rgb(0,0,0); fill-rule: nonzero; opacity: 1;" vector-effect="non-scaling-stroke"  transform=" translate(-22.5, -29.5)" d="M 22 29 L 23 29 L 23 30 L 22 30 z" stroke-linecap="round" />
</g>
		<g transform="matrix(1 0 0 1 -7.5 -1)"  >
<path style="stroke: none; stroke-width: 1; stroke-dasharray: none; stroke-linecap: butt; stroke-dashoffset: 0; stroke-linejoin: miter; stroke-miterlimit: 4; fill: rgb(0,0,0); fill-rule: nonzero; opacity: 1;" vector-effect="non-scaling-stroke"  transform=" translate(-24.5, -25)" d="M 24 27 L 22 27 L 22 28 L 23 28 L 23 29 L 24 29 z M 23 21 L 27 21 L 27 22 L 23 22 z M 23 25 L 24 25 L 24 26 L 23 26 z" stroke-linecap="round" />
</g>
		<g transform="matrix(1 0 0 1 -7 -2.5)"  >
<path style="stroke: none; stroke-width: 1; stroke-dasharray: none; stroke-linecap: butt; stroke-dashoffset: 0; stroke-linejoin: miter; stroke-miterlimit: 4; fill: rgb(0,0,0); fill-rule: nonzero; opacity: 1;" vector-effect="non-scaling-stroke"  transform=" translate(-25, -23.5)" d="M 22 22 L 23 22 L 23 25 L 22 25 z M 27 22 L 28 22 L 28 23 L 27 23 z" stroke-linecap="round" />
</g>
		<g transform="matrix(1 0 0 1 -5.75 0)"  >
<path style="stroke: none; stroke-width: 1; stroke-dasharray: none; stroke-linecap: butt; stroke-dashoffset: 0; stroke-linejoin: miter; stroke-miterlimit: 4; fill: rgb(0,0,0); fill-rule: nonzero; opacity: 1;" vector-effect="non-scaling-stroke"  transform=" translate(-26.25, -26)" d="M 26 25 L 28 25 L 28 24 L 27 24 L 27 23 L 26 23 z M 24.5 23 L 25.5 23 L 25.5 29 L 24.5 29 z" stroke-linecap="round" />
</g>
</g>
</g>
</svg>