<svg xmlns="http://www.w3.org/2000/svg" viewbox="0 0 64 64"><svg xmlns="http://www.w3.org/2000/svg" viewBox="0 0 64 64"><style>.gotchi-primary{fill:#0074F9;}.gotchi-secondary{fill:#C8E1FD;}.gotchi-cheek{fill:#F696C6;}.gotchi-eyeColor{fill:#5D24BF;}.gotchi-primary-mouth{fill:#0074F9;}.gotchi-sleeves-up{display:none;}.gotchi-handsUp{display:none;}.gotchi-handsDownOpen{display:block;}.gotchi-handsDownClosed{display:none;}
.gotchi-bg {
    display:none;
  }




svg {
  animation-name:down;
  animation-duration:0.5s;
  animation-iteration-count: infinite;
  animation-timing-function: linear;
  animation-timing-function: steps(1);
}

.gotchi-shadow {
  animation: up 0.5s infinite linear steps(2);
   animation-name:up;
   animation-duration:0.5s;
   animation-iteration-count: infinite;
   animation-timing-function: linear;
   animation-timing-function: steps(2);
}

.gotchi-wearable {
  animation-name:down;
  animation-duration:0.5s;
  animation-iteration-count: infinite;
  animation-timing-function: linear;
  animation-timing-function: steps(1);
}



.gotchi-handsDownClosed, .gotchi-handsUp, .gotchi-handsDownOpen, .gotchi-handsDownClosed, .gotchi-body, .gotchi-eyeColor, .gotchi-collateral, .gotchi-cheek, .gotchi-primary-mouth, .gotchi-wearable, .gotchi-sleeves   {
   animation-name:down;
   animation-duration:0.5s;
   animation-iteration-count: infinite;
   animation-timing-function: linear;
   animation-timing-function: steps(2);
}

.wearable-hand {
  animation-name:down !important;
  animation-duration:0.5s;
  animation-iteration-count: infinite;
  animation-timing-function: linear;
  animation-timing-function: steps(2);
}

@keyframes downHands {
  from {
    transform: translate(0px, -4px);
  }
 to {
    transform: translate(0px, -3px);
  }
}


@keyframes up {
  from {
    transform: translate(0px, 0);
  }
 to {
    transform: translate(0px, -1px);
  }
}


@keyframes down {
 from {
   transform: translate(0px, 0);
    }
 to {
      transform: translate(0px, 1px);
    }
}
</style><g class="gotchi-bg"><defs fill="#fff"><pattern id="a" patternUnits="userSpaceOnUse" width="4" height="4"><path d="M0 0h1v1H0zm2 2h1v1H2z"></path></pattern><pattern id="b" patternUnits="userSpaceOnUse" x="0" y="0" width="2" height="2"><path d="M0 0h1v1H0z"></path></pattern><pattern id="c" patternUnits="userSpaceOnUse" x="-2" y="0" width="8" height="1"><path d="M0 0h1v1H0zm2 0h1v1H2zm2 0h1v1H4z"></path></pattern><pattern id="d" patternUnits="userSpaceOnUse" x="0" y="0" width="4" height="4"><path d="M0 0h1v1H0zm0 2h1v1H0zm1 0V1h1v1zm1 0h1v1H2zm0-1h1V0H2zm1 2h1v1H3z"></path></pattern><pattern id="e" patternUnits="userSpaceOnUse" width="64" height="32"><path d="M4 4h1v1H4zm7 0h1v1h-1zm7 0h1v1h-1zm7 0h1v1h-1zm7 0h1v1h-1zm7 0h1v1h-1zm7 0h1v1h-1zm7 0h1v1h-1zm7 0h1v1h-1z"></path><path fill="url(#a)" d="M0 8h64v7H0z"></path><path fill="url(#b)" d="M0 16h64v1H0z"></path><path fill="url(#c)" d="M0 18h64v1H0z"></path><path fill="url(#b)" d="M22 18h15v1H22zM0 20h64v3H0z"></path><path fill="url(#d)" d="M0 24h64v8H0z"></path></pattern><mask id="f"><path fill="url(#e)" d="M0 0h64v32H0z"></path></mask></defs><path fill="#fff" d="M0 0h64v32H0z"></path><path fill="#dea8ff" class="gotchi-secondary" mask="url(#f)" d="M0 0h64v32H0z"></path><path fill="#dea8ff" class="gotchi-secondary" d="M0 32h64v32H0z"></path><path mask="url(#f)" fill="#fff" transform="matrix(1 0 0 -1 0 64)" d="M0 0h64v32H0z"></path></g><g class="gotchi-body"><g class="gotchi-primary"><path d="M21 12h2v-2h-4v2h1z"></path><path d="M19 14v-2h-2v2h1zm6-4h2V8h-4v2h1z"></path><path d="M29 8h8V6H27v2h1zm16 6h2v-2h-2v1z"></path><path d="M48 14h-1v39h-2v2h4V14zm-11-4h4V8h-4v1z"></path><path d="M41 12h4v-2h-4v1zM17 53V14h-2v41h4v-2h-1z"></path><path d="M24 51h-5v2h5v-1z"></path><path d="M27 53h-3v2h5v-2h-1zm18-2h-5v2h5v-1z"></path><path d="M35 51h-6v2h6v-1z"></path><path d="M38 53h-3v2h5v-2h-1z"></path></g><g class="gotchi-secondary"><path d="M18 43v6h2v-1h2v1h2v2h-5v2h-2V14h2v1h-1v26z"></path><path d="M27 51h-3v2h5v-2h-1zm11 0h-3v2h5v-2h-1z"></path><path d="M35 49h-2v-1h-2v1h-2v2h6v-1zM25 11h2v-1h-4v1h1zm-4 2h2v-1h-4v1h1zm24 31v5h-1v-1h-2v1h-2v2h5v2h2V14h-2v29z"></path><path d="M37 8H27v1h5v1h5V9zm8 4h-4v2h4v-1z"></path><path d="M41 10h-4v2h4v-1z"></path></g><path d="M44 14h-3v-2h-4v-2h-5V9h-5v2h-4v2h-4v2h-1v34h2v-1h2v1h2v2h5v-2h2v-1h2v1h2v2h5v-2h2v-1h2v1h1V14z" fill="#fff"></path></g><path class="gotchi-cheek" d="M21 32v2h2v-2h-1zm21 0h-1v2h2v-2z"></path><g><g class="gotchi-primary-mouth">
<path d="M33 34h-4v2h6v-2h-1z">
</path></g></g><g class="gotchi-shadow"><path opacity=".25" d="M25 58H19v1h1v1h24V59h1V58h-1z" fill="#000"></path></g><g class="gotchi-eyeColor"><path d="M40 26h1v1h-1z"></path><path d="M41 27h1v3h-1z"></path><path d="M37 30h4v1h-4z"></path><path d="M36 29h1v1h-1z"></path><path d="M38 27h-2v1h1v1h1zm-1-6h4v1h-4zm0 4h1v1h-1z"></path><path d="M36 22h1v3h-1zm5 0h1v1h-1z"></path><path d="M40 23v2h2v-1h-1v-1zm-1.5 0h1v6h-1zM26 26h1v1h-1z"></path><path d="M27 27h1v3h-1z"></path><path d="M23 30h4v1h-4z"></path><path d="M22 29h1v1h-1z"></path><path d="M24 27h-2v1h1v1h1zm-1-6h4v1h-4zm0 4h1v1h-1z"></path><path d="M22 22h1v3h-1zm5 0h1v1h-1z"></path><path d="M26 25h2v-1h-1v-1h-1zm-1.5-2h1v6h-1z"></path></g><g class="gotchi-collateral" fill="#0074f9"><path d="M30 16h1v1h-1zm4 1h1v1h-1z"></path><path d="M33 16h1v1h-1zm1 2h1v1h-1z"></path><path d="M34 19h1v1h-1z"></path><path d="M34 20h1v1h-1zm-2 1h1v1h-1z"></path><path d="M33 21h1v1h-1zm-2 0h1v1h-1z"></path><path d="M30 21h1v1h-1z"></path><path d="M29 20h1v1h-1z"></path><path d="M30 19h1v1h-1z"></path><path d="M30 18h1v1h-1z"></path><path d="M29 18h1v1h-1zm4-7h1v1h-1zm-2 0h1v1h-1z"></path><path d="M30 11h1v1h-1zm2 0h1v1h-1zm-3 4h1v1h-1zm0-2h1v1h-1z"></path><path d="M29 12h1v1h-1zm0 2h1v1h-1zm5-2h1v1h-1zm-1 2h1v1h-1z"></path><path d="M34 14h1v1h-1z"></path><path d="M33 13h1v1h-1zm-1.5 2h1v1h-1z"></path><path d="M31.5 14h1v1h-1z"></path><path d="M31.5 13h1v1h-1zm0 3h1v1h-1zm0 2h1v1h-1z"></path><path d="M31.5 19h1v1h-1zm0-2h1v1h-1z"></path></g><g class="gotchi-handsDownClosed"><g class="gotchi-primary"><path d="M19 42h1v1h-1zm1-6h1v1h-1z"></path><path d="M21 37h1v1h-1zm5 3v4h1v-4zm-5 3h-1v1h2v-1z"></path><path d="M24 44h-2v1h4v-1h-1zm1-5h-1v1h2v-1z"></path><path d="M23 38h-1v1h2v-1z"></path></g><g class="gotchi-secondary"><path d="M19 43h1v1h-1zm5 2h-2v1h4v-1h-1z"></path><path d="M27 41v3h1v-3zm-6 3h-1v1h2v-1z"></path><path d="M26 44h1v1h-1zm-7-3h-1v2h1v-1z"></path></g><g class="gotchi-primary"><path d="M44 42h1v1h-1zm-1-6h1v1h-1z"></path><path d="M42 37h1v1h-1z"></path><path d="M42 39v-1h-2v1h1zm0 4v1h2v-1h-1z"></path><path d="M40 44h-2v1h4v-1h-1z"></path><path d="M38 42v-2h-1v4h1v-1z"></path><path d="M40 40v-1h-2v1h1z"></path></g><g class="gotchi-secondary"><path d="M42 44v1h2v-1h-1zm-5-2v-1h-1v3h1v-1z"></path><path d="M40 45h-2v1h4v-1h-1z"></path><path d="M37 44h1v1h-1zm7-1h1v1h-1z"></path></g></g><g class="gotchi-handsDownOpen"><g class="gotchi-primary"><path d="M14 40h1v1h-1v-1zm-1-6h1v1h-1v-1z"></path><path d="M14 33h1v1h-1v-1zm-2 2h1v1h-1v-1zm-5 3h1v4H7v-4zm5 3h2v1h-2v-1z"></path><path d="M8 42h4v1H8v-1zm0-5h2v1H8v-1z"></path><path d="M10,36h2v1h-2V36z"></path></g><g class="gotchi-secondary"><path d="M14,39h1v1h-1V39z"></path><path d="M12,40h2v1h-2V40z"></path><path d="M8,41h4v1H8V41z"></path></g><path d="M8,38v3h4v-1h2v-1h1v-5h-1v1h-1v1h-1v1h-2v1H8z" fill="#fff"></path><g class="gotchi-primary"><path d="M49 40h1v1h-1v-1zm1-6h1v1h-1v-1z"></path><path d="M49 33h1v1h-1v-1zm2 2h1v1h-1v-1zm5 3h1v4h-1v-4zm-6 3h2v1h-2v-1z"></path><path d="M52 42h4v1h-4v-1zm2-5h2v1h-2v-1z"></path><path d="M52,36h2v1h-2V36z"></path></g><g class="gotchi-secondary"><path d="M49,39h1v1h-1V39z"></path><path d="M50,40h2v1h-2V40z"></path><path d="M52,41h4v1h-4V41z"></path></g><path d="M54,38v-1h-2v-1h-1v-1h-1v-1h-1v5h1v1h2v1h4v-3H54z" fill="#fff"></path></g><g class="gotchi-handsUp"><g class="gotchi-secondary"><path d="M50,38h1v1h-1V38z"></path><path d="M49 39h1v1h-1v-1zm2-2h1v1h-1v-1z"></path><path d="M52,36h2v1h-2V36z"></path><path d="M54,35h2v1h-2V35z"></path></g><path d="M52,32v1h-2v1h-1v5h1v-1h1v-1h1v-1h2v-1h2v-3H52z" fill="#fff"></path><g class="gotchi-primary"><path d="M49,33h1v1h-1V33z"></path><path d="M50 32h2v1h-2v-1zm0 7h1v1h-1v-1z"></path><path d="M49 40h1v1h-1v-1zm2-2h1v1h-1v-1z"></path><path d="M52 37h2v1h-2v-1zm0-6h4v1h-4v-1z"></path><path d="M56,32h1v4h-1V32z"></path><path d="M54,36h2v1h-2V36z"></path></g><g class="gotchi-secondary"><path d="M13,38h1v1h-1V38z"></path><path d="M14 39h1v1h-1v-1zm-2-2h1v1h-1v-1z"></path><path d="M10,36h2v1h-2V36z"></path><path d="M8,35h2v1H8V35z"></path></g><path d="M8,32v3h2v1h2v1h1v1h1v1h1v-5h-1v-1h-2v-1H8z" fill="#fff"></path><g class="gotchi-primary"><path d="M14,33h1v1h-1V33z"></path><path d="M12 32h2v1h-2v-1zm1 7h1v1h-1v-1z"></path><path d="M14 40h1v1h-1v-1zm-2-2h1v1h-1v-1z"></path><path d="M10 37h2v1h-2v-1zm-2-6h4v1H8v-1z"></path><path d="M7,32h1v4H7V32z"></path><path d="M8,36h2v1H8V36z"></path></g></g><g class="gotchi-wearable wearable-face"><svg x="9" y="18"><path d="M5 2H4V0H0v6h2v4h2v2h2V2z" fill="#64438e"></path><path d="M5 4H4V2H2v4h2v4h2V4z" fill="#b464ed"></path><g fill="#edd3fd"><path d="M4 4H2v2h2V5z"></path><path d="M5 6H4v4h2V6z"></path></g><path d="M41 2h1V0h4v6h-2v4h-2v2h-2V2z" fill="#64438e"></path><path d="M41 4h1V2h2v4h-2v4h-2V4z" fill="#b464ed"></path><g fill="#edd3fd"><path d="M42 4h2v2h-2V5z"></path><path d="M41 6h1v4h-2V6z"></path></g></svg></g><g class="gotchi-wearable wearable-eyes"><svg x="15" y="19"><path d="M31 5V3h-1V2h-1V1h-1V0h-6v1h-1v1h-1v1h-1v2h-4V3h-1V2h-1V1h-1V0H6v1H5v1H4v1H3v2H0v2h3v2h1v1h1v1h1v1h6v-1h1v-1h1V9h1V7h4v2h1v1h1v1h1v1h6v-1h1v-1h1V9h1V7h3V5z" fill="red"></path><path d="M13 2h-1V1H6v1H5v1H4v6h1v1h1v1h6v-1h1V9h1V3h-1V2zm16 0h-1V1h-6v1h-1v1h-1v6h1v1h1v1h6v-1h1V9h1V3h-1V2z"></path><path d="M8,2v1H7v1H6v2h3V2H8z" fill="#7d7d7d"></path><path d="M9,6v4h1V9h1V8h1V6H9z" fill="#282828"></path><g fill="#464646"><path d="M6,6v2h1v1h1v1h1V6H6z"></path><path d="M11,4V3h-1V2H9v4h3V4H11z"></path></g><g fill="#646464"><path d="M26.5 4.6h1v1h-1v-1zm0 2h1v1h-1v-1z"></path><path d="M24.5 5.6v-1h2v-1h-1v-1h-1v1h-2v1h1v3h-1v1h2v1h1v-1h1v-1h-2v-1h2v-1h-2z"></path></g></svg></g><g class="gotchi-wearable wearable-head"><svg x="13" y="6"><path d="M37 10h-1V8h-2V6h-2V4h-3V2h-3V0H12v2H9v2H6v2H4v2H2v2H0v16h1v1h4v-5h2v-4h1v-2h3v-2h3V6h2V4h2V3h1v1h3v2h2v2h2v2h3v2h3v2h1v13h4v-1h1V10h-1z" fill="#f6748a"></path><path d="M6 11v-1H5v2h1v-1zm0 4v-1H5v2h1v-1zm-1 3v2h2v-2H5zM8 5v1h1V4H8v1zm0 4v1h1V8H8v1zm0 4v1h1v-2H8v1zm3-10v1h1V2h-1v1zm3 0v1h1V2h-1v1zm-3 4v1h1V6h-1v1zm0 4v1h1v-2h-1v1zm-9 2v1h1v-2H2v1zm0 4v1h1v-2H2v1zm0 4v1h1v-2H2v1zm0 4v1h1v-2H2v1zM16 1v1h1V0h-1v1zm7 4v1h1V4h-1v1zm0-4v1h1V0h-1v1zm-4 2v1h1V2h-1v1zm2-2v1h1V0h-1v1zm8 4v1h1V4h-1v1zm0 4v1h1V8h-1v1zm-3-6v1h1V2h-1v1zm0 4v1h1V6h-1v1zm9 1v2h1V8h-1zm-3-2v2h2V6h-2zm0 5v1h1v-2h-1v1zm3 2v1h1v-2h-1v1zm0 4v1h1v-2h-1v1zm0 4v1h1v-2h-1v1zm0 4v1h1v-2h-1v1z" fill="#8dc3c0"></path><path d="M6 9V8H5v2h1V9zm0 4v-1H5v2h1v-1zm0 4v-1H5v2h1v-1zm-1 3v2h2v-2H5zM8 7v1h1V6H8v1zm0 4v1h1v-2H8v1zm0 4v1h1v-2H8v1zm3-10v1h1V4h-1v1zm3-4v1h1V0h-1v1zm-3 8v1h1V8h-1v1zm0 4v1h1v-2h-1v1zm-9-2v1h1v-2H2v1zm0 4v1h1v-2H2v1zm0 4v1h1v-2H2v1zm0 4v1h1v-2H2v1zm0 3h1v1H2v-1zM14 5v1h1V4h-1v1zm2-2v1h1V2h-1v1zm7 0v1h1V2h-1v1zm-5-1h1v1h-1V2zm2-1v1h1V0h-1v1zm9 6v1h1V6h-1v1zm0 4v1h1v-2h-1v1zm-3-6v1h1V4h-1v1zm0 4v1h1V8h-1v1zm6 0v1h1V8h-1v1zm0 4v1h1v-2h-1v1zm3-3v2h1v-2h-1zm0 5v1h1v-2h-1v1zm0 4v1h1v-2h-1v1zm0 4v1h1v-2h-1v1zm0 3h1v1h-1v-1z" fill="#027073"></path><g fill="#c10359"><path d="M0 14v2h2v-2H0zm0 4v2h2v-2H0zm0 4v2h2v-2H0zm0-12v2h2v-2H0zm3 6v2h2v-2H3zm0 4v2h2v-2H3zM3 8v2h2V8H3zm0 4v2h2v-2H3zM15 1v1h1V0h-1v1zM3 24v2h2v-2H3zM6 6v2h2V6H6zm0 4v2h2v-2H6zm0 4v2h2v-2H6zM9 4v2h2V4H9zm0 4v2h2V8H9zm0 4v2h2v-2H9zm3-10v2h2V2h-2zm0 4v2h2V6h-2zm3-1v1h1V4h-1v1zm2-2v1h1V2h-1v1z"></path><path d="M18 1v1h1V0h-1v1zm4 5h1V4h-1v2zm0-5v1h1V0h-1v1z"></path><path d="M21 3v1h1V2h-1v1zm-9 7v2h2v-2h-2zm15-6v2h2V4h-2zm0 4v2h2V8h-2zm-3-6v2h2V2h-2zm0 4v2h2V6h-2zm12 8v2h2v-2h-2zm0 4v2h2v-2h-2zM1 26h1v1H1v-1zm35 0h1v1h-1v-1zm0-4v2h2v-2h-2zm1-12h-1v2h2v-2h-1zm-4 6v2h2v-2h-2zm0 4v2h2v-2h-2zm0-12v2h2V8h-2zm0 4v2h2v-2h-2zm0 12v2h2v-2h-2zM30 6v2h2V6h-2zm0 4v2h2v-2h-2z"></path></g></svg></g><g class="gotchi-wearable wearable-hand wearable-hand-left"><svg x="0" y="33"><path d="M12 2V1h-1V0H2v1H1v1H0v2h1v1h1v1h1v1h1v1h1v1h1v1h1V9h1V8h1V7h1V6h1V5h1V4h1V2z"></path><path d="M2 4v1h1v1h1v1h1v1h1v1h1V8h1V7h1V6h1V5h1V4z" fill="#46a7c0"></path><g fill="#0ff"><path d="M9 2H8V1H5v1H4v1H3v2h1v1h1v1h1v1h1V7h1V6h1V5h1V3H9zm2 0h1v1h-1z"></path><path d="M10 1h1v1h-1zM2 1h1v1H2z"></path><path d="M1 2h1v1H1z"></path></g><g fill="#fff"><path d="M11 3h1v1h-1V3zM1 3h1v1H1V3zm8-2h1v1H9V1zM8 3V2H7V1H6v1H5v1H3v1h7V3H8z"></path><path d="M10 2h1v1h-1V2zM2 2h1v1H2V2z"></path><path d="M3,1h1v1H3V1z"></path></g></svg></g><g class="gotchi-wearable wearable-hand wearable-hand-right"><svg x="0" y="24"><g transform="scale(-1, 1) translate(-64, 0)"><path d="M0,1v9h11.5V1H0z" fill="#7d0064"></path><path d="M8 3V2H3v1H2v6h1V8h1v1h1V8h1v1h1V8h1v1h1V3H8zM7 3v1H6V3h1zM5 3v1H4V3h1zm3 3H7v1H4V6H3V5h1v1h3V5h1v1z" fill="#fff"></path><path d="M11,0v25h1V0H11z" fill="#8e7064"></path><path d="M11 24h1v1h-1v-1zm0-24h1v1h-1V0z" fill="#7a5749"></path></g></svg></g></svg></svg>