<svg width="112" height="101.5625" xmlns="http://www.w3.org/2000/svg" viewbox="0 0 64 64">
 <g>
  <title>Layer 1</title>
  <g id="svg_7">
   <svg id="svg_13" viewBox="0 0 64 64" xmlns="http://www.w3.org/2000/svg">
    <style>.gotchi-primary{fill:#0074F9;}.gotchi-secondary{fill:#C8E1FD;}.gotchi-cheek{fill:#F696C6;}.gotchi-eyeColor{fill:#5D24BF;}.gotchi-primary-mouth{fill:#0074F9;}.gotchi-sleeves-up{display:none;}.gotchi-handsUp{display:none;}.gotchi-handsDownOpen{display:block;}.gotchi-handsDownClosed{display:none;}
.gotchi-bg {
    display:none;
  }




svg {
  animation-name:down;
  animation-duration:0.5s;
  animation-iteration-count: infinite;
  animation-timing-function: linear;
  animation-timing-function: steps(1);
}

.gotchi-shadow {
  animation: up 0.5s infinite linear steps(2);
   animation-name:up;
   animation-duration:0.5s;
   animation-iteration-count: infinite;
   animation-timing-function: linear;
   animation-timing-function: steps(2);
}

.gotchi-wearable {
  animation-name:down;
  animation-duration:0.5s;
  animation-iteration-count: infinite;
  animation-timing-function: linear;
  animation-timing-function: steps(1);
}



.gotchi-handsDownClosed, .gotchi-handsUp, .gotchi-handsDownOpen, .gotchi-handsDownClosed, .gotchi-body, .gotchi-eyeColor, .gotchi-collateral, .gotchi-cheek, .gotchi-primary-mouth, .gotchi-wearable, .gotchi-sleeves   {
   animation-name:down;
   animation-duration:0.5s;
   animation-iteration-count: infinite;
   animation-timing-function: linear;
   animation-timing-function: steps(2);
}

.wearable-hand {
  animation-name:down !important;
  animation-duration:0.5s;
  animation-iteration-count: infinite;
  animation-timing-function: linear;
  animation-timing-function: steps(2);
}

@keyframes downHands {
  from {
    transform: translate(0px, -4px);
  }
 to {
    transform: translate(0px, -3px);
  }
}


@keyframes up {
  from {
    transform: translate(0px, 0);
  }
 to {
    transform: translate(0px, -1px);
  }
}


@keyframes down {
 from {
   transform: translate(0px, 0);
    }
 to {
      transform: translate(0px, 1px);
    }
}</style>
    <g id="svg_14" class="gotchi-bg">
     <defs fill="#fff">
      <mask id="svg_1">
       <path id="svg_15" d="m0,0l64,0l0,32l-64,0l0,-32z" fill="url(#svg_2)"/>
      </mask>
      <pattern height="4" width="4" patternUnits="userSpaceOnUse" id="svg_6">
       <path id="svg_16" d="m0,0l1,0l0,1l-1,0l0,-1zm2,2l1,0l0,1l-1,0l0,-1z"/>
      </pattern>
      <pattern height="2" width="2" y="0" x="0" patternUnits="userSpaceOnUse" id="svg_4">
       <path id="svg_17" d="m0,0l1,0l0,1l-1,0l0,-1z"/>
      </pattern>
      <pattern height="1" width="8" y="0" x="-2" patternUnits="userSpaceOnUse" id="svg_5">
       <path id="svg_18" d="m0,0l1,0l0,1l-1,0l0,-1zm2,0l1,0l0,1l-1,0l0,-1zm2,0l1,0l0,1l-1,0l0,-1z"/>
      </pattern>
      <pattern height="4" width="4" y="0" x="0" patternUnits="userSpaceOnUse" id="svg_3">
       <path id="svg_19" d="m0,0l1,0l0,1l-1,0l0,-1zm0,2l1,0l0,1l-1,0l0,-1zm1,0l0,-1l1,0l0,1l-1,0zm1,0l1,0l0,1l-1,0l0,-1zm0,-1l1,0l0,-1l-1,0l0,1zm1,2l1,0l0,1l-1,0l0,-1z"/>
      </pattern>
      <pattern height="32" width="64" patternUnits="userSpaceOnUse" id="svg_2">
       <path id="svg_20" d="m4,4l1,0l0,1l-1,0l0,-1zm7,0l1,0l0,1l-1,0l0,-1zm7,0l1,0l0,1l-1,0l0,-1zm7,0l1,0l0,1l-1,0l0,-1zm7,0l1,0l0,1l-1,0l0,-1zm7,0l1,0l0,1l-1,0l0,-1zm7,0l1,0l0,1l-1,0l0,-1zm7,0l1,0l0,1l-1,0l0,-1zm7,0l1,0l0,1l-1,0l0,-1z"/>
       <path id="svg_21" d="m0,8l64,0l0,7l-64,0l0,-7z" fill="url(#svg_6)"/>
       <path id="svg_22" d="m0,16l64,0l0,1l-64,0l0,-1z" fill="url(#svg_4)"/>
       <path id="svg_23" d="m0,18l64,0l0,1l-64,0l0,-1z" fill="url(#svg_5)"/>
       <path id="svg_24" d="m22,18l15,0l0,1l-15,0l0,-1zm-22,2l64,0l0,3l-64,0l0,-3z" fill="url(#svg_4)"/>
       <path id="svg_25" d="m0,24l64,0l0,8l-64,0l0,-8z" fill="url(#svg_3)"/>
      </pattern>
     </defs>
     <path id="svg_26" d="m0,0l64,0l0,32l-64,0l0,-32z" fill="#fff"/>
     <path id="svg_27" d="m0,0l64,0l0,32l-64,0l0,-32z" mask="url(#svg_1)" class="gotchi-secondary" fill="#dea8ff"/>
     <path id="svg_28" d="m0,32l64,0l0,32l-64,0l0,-32z" class="gotchi-secondary" fill="#dea8ff"/>
     <path id="svg_29" d="m0,64l64,0l0,-32l-64,0l0,32z" fill="#fff" mask="url(#svg_1)"/>
    </g>
    <g id="svg_30" class="gotchi-body">
     <g id="svg_31" class="gotchi-primary">
      <path id="svg_32" d="m21,12l2,0l0,-2l-4,0l0,2l1,0l1,0z"/>
      <path id="svg_33" d="m19,14l0,-2l-2,0l0,2l1,0l1,0zm6,-4l2,0l0,-2l-4,0l0,2l1,0l1,0z"/>
      <path id="svg_34" d="m29,8l8,0l0,-2l-10,0l0,2l1,0l1,0zm16,6l2,0l0,-2l-2,0l0,1l0,1z"/>
      <path id="svg_35" d="m48,14l-1,0l0,39l-2,0l0,2l4,0l0,-41l-1,0zm-11,-4l4,0l0,-2l-4,0l0,1l0,1z"/>
      <path id="svg_36" d="m41,12l4,0l0,-2l-4,0l0,1l0,1zm-24,41l0,-39l-2,0l0,41l4,0l0,-2l-1,0l-1,0z"/>
      <path id="svg_37" d="m24,51l-5,0l0,2l5,0l0,-1l0,-1z"/>
      <path id="svg_38" d="m27,53l-3,0l0,2l5,0l0,-2l-1,0l-1,0zm18,-2l-5,0l0,2l5,0l0,-1l0,-1z"/>
      <path id="svg_39" d="m35,51l-6,0l0,2l6,0l0,-1l0,-1z"/>
      <path id="svg_40" d="m38,53l-3,0l0,2l5,0l0,-2l-1,0l-1,0z"/>
     </g>
     <g id="svg_41" class="gotchi-secondary">
      <path id="svg_42" d="m18,43l0,6l2,0l0,-1l2,0l0,1l2,0l0,2l-5,0l0,2l-2,0l0,-39l2,0l0,1l-1,0l0,26l0,2z"/>
      <path id="svg_43" d="m27,51l-3,0l0,2l5,0l0,-2l-1,0l-1,0zm11,0l-3,0l0,2l5,0l0,-2l-1,0l-1,0z"/>
      <path id="svg_44" d="m35,49l-2,0l0,-1l-2,0l0,1l-2,0l0,2l6,0l0,-1l0,-1zm-10,-38l2,0l0,-1l-4,0l0,1l1,0l1,0zm-4,2l2,0l0,-1l-4,0l0,1l1,0l1,0zm24,31l0,5l-1,0l0,-1l-2,0l0,1l-2,0l0,2l5,0l0,2l2,0l0,-39l-2,0l0,29l0,1z"/>
      <path id="svg_45" d="m37,8l-10,0l0,1l5,0l0,1l5,0l0,-1l0,-1zm8,4l-4,0l0,2l4,0l0,-1l0,-1z"/>
      <path id="svg_46" d="m41,10l-4,0l0,2l4,0l0,-1l0,-1z"/>
     </g>
     <path id="svg_47" fill="#fff" d="m44,14l-3,0l0,-2l-4,0l0,-2l-5,0l0,-1l-5,0l0,2l-4,0l0,2l-4,0l0,2l-1,0l0,34l2,0l0,-1l2,0l0,1l2,0l0,2l5,0l0,-2l2,0l0,-1l2,0l0,1l2,0l0,2l5,0l0,-2l2,0l0,-1l2,0l0,1l1,0l0,-35l-1,0z"/>
    </g>
    <path id="svg_48" d="m21,32l0,2l2,0l0,-2l-1,0l-1,0zm21,0l-1,0l0,2l2,0l0,-2l-1,0z" class="gotchi-cheek"/>
    <g id="svg_49">
     <g id="svg_50" class="gotchi-primary-mouth">
      <path id="svg_51" d="m33,34l-4,0l0,2l6,0l0,-2l-1,0l-1,0z"/>
     </g>
    </g>
    <g id="svg_52" class="gotchi-shadow">
     <path id="svg_53" fill="#000" d="m25,58l-6,0l0,1l1,0l0,1l24,0l0,-1l1,0l0,-1l-1,0l-19,0z" opacity="0.25"/>
    </g>
    <g id="svg_54" class="gotchi-eyeColor">
     <path id="svg_55" d="m40,26l1,0l0,1l-1,0l0,-1z"/>
     <path id="svg_56" d="m41,27l1,0l0,3l-1,0l0,-3z"/>
     <path id="svg_57" d="m37,30l4,0l0,1l-4,0l0,-1z"/>
     <path id="svg_58" d="m36,29l1,0l0,1l-1,0l0,-1z"/>
     <path id="svg_59" d="m38,27l-2,0l0,1l1,0l0,1l1,0l0,-2zm-1,-6l4,0l0,1l-4,0l0,-1zm0,4l1,0l0,1l-1,0l0,-1z"/>
     <path id="svg_60" d="m36,22l1,0l0,3l-1,0l0,-3zm5,0l1,0l0,1l-1,0l0,-1z"/>
     <path id="svg_61" d="m40,23l0,2l2,0l0,-1l-1,0l0,-1l-1,0zm-1.5,0l1,0l0,6l-1,0l0,-6zm-12.5,3l1,0l0,1l-1,0l0,-1z"/>
     <path id="svg_62" d="m27,27l1,0l0,3l-1,0l0,-3z"/>
     <path id="svg_63" d="m23,30l4,0l0,1l-4,0l0,-1z"/>
     <path id="svg_64" d="m22,29l1,0l0,1l-1,0l0,-1z"/>
     <path id="svg_65" d="m24,27l-2,0l0,1l1,0l0,1l1,0l0,-2zm-1,-6l4,0l0,1l-4,0l0,-1zm0,4l1,0l0,1l-1,0l0,-1z"/>
     <path id="svg_66" d="m22,22l1,0l0,3l-1,0l0,-3zm5,0l1,0l0,1l-1,0l0,-1z"/>
     <path id="svg_67" d="m26,25l2,0l0,-1l-1,0l0,-1l-1,0l0,2zm-1.5,-2l1,0l0,6l-1,0l0,-6z"/>
    </g>
    <g id="svg_68" fill="#0074f9" class="gotchi-collateral">
     <path id="svg_69" d="m30,16l1,0l0,1l-1,0l0,-1zm4,1l1,0l0,1l-1,0l0,-1z"/>
     <path id="svg_70" d="m33,16l1,0l0,1l-1,0l0,-1zm1,2l1,0l0,1l-1,0l0,-1z"/>
     <path id="svg_71" d="m34,19l1,0l0,1l-1,0l0,-1z"/>
     <path id="svg_72" d="m34,20l1,0l0,1l-1,0l0,-1zm-2,1l1,0l0,1l-1,0l0,-1z"/>
     <path id="svg_73" d="m33,21l1,0l0,1l-1,0l0,-1zm-2,0l1,0l0,1l-1,0l0,-1z"/>
     <path id="svg_74" d="m30,21l1,0l0,1l-1,0l0,-1z"/>
     <path id="svg_75" d="m29,20l1,0l0,1l-1,0l0,-1z"/>
     <path id="svg_76" d="m30,19l1,0l0,1l-1,0l0,-1z"/>
     <path id="svg_77" d="m30,18l1,0l0,1l-1,0l0,-1z"/>
     <path id="svg_78" d="m29,18l1,0l0,1l-1,0l0,-1zm4,-7l1,0l0,1l-1,0l0,-1zm-2,0l1,0l0,1l-1,0l0,-1z"/>
     <path id="svg_79" d="m30,11l1,0l0,1l-1,0l0,-1zm2,0l1,0l0,1l-1,0l0,-1zm-3,4l1,0l0,1l-1,0l0,-1zm0,-2l1,0l0,1l-1,0l0,-1z"/>
     <path id="svg_80" d="m29,12l1,0l0,1l-1,0l0,-1zm0,2l1,0l0,1l-1,0l0,-1zm5,-2l1,0l0,1l-1,0l0,-1zm-1,2l1,0l0,1l-1,0l0,-1z"/>
     <path id="svg_81" d="m34,14l1,0l0,1l-1,0l0,-1z"/>
     <path id="svg_82" d="m33,13l1,0l0,1l-1,0l0,-1zm-1.5,2l1,0l0,1l-1,0l0,-1z"/>
     <path id="svg_83" d="m31.5,14l1,0l0,1l-1,0l0,-1z"/>
     <path id="svg_84" d="m31.5,13l1,0l0,1l-1,0l0,-1zm0,3l1,0l0,1l-1,0l0,-1zm0,2l1,0l0,1l-1,0l0,-1z"/>
     <path id="svg_85" d="m31.5,19l1,0l0,1l-1,0l0,-1zm0,-2l1,0l0,1l-1,0l0,-1z"/>
    </g>
    <g id="svg_86" class="gotchi-handsDownClosed">
     <g id="svg_87" class="gotchi-primary">
      <path id="svg_88" d="m19,42l1,0l0,1l-1,0l0,-1zm1,-6l1,0l0,1l-1,0l0,-1z"/>
      <path id="svg_89" d="m21,37l1,0l0,1l-1,0l0,-1zm5,3l0,4l1,0l0,-4l-1,0zm-5,3l-1,0l0,1l2,0l0,-1l-1,0z"/>
      <path id="svg_90" d="m24,44l-2,0l0,1l4,0l0,-1l-1,0l-1,0zm1,-5l-1,0l0,1l2,0l0,-1l-1,0z"/>
      <path id="svg_91" d="m23,38l-1,0l0,1l2,0l0,-1l-1,0z"/>
     </g>
     <g id="svg_92" class="gotchi-secondary">
      <path id="svg_93" d="m19,43l1,0l0,1l-1,0l0,-1zm5,2l-2,0l0,1l4,0l0,-1l-1,0l-1,0z"/>
      <path id="svg_94" d="m27,41l0,3l1,0l0,-3l-1,0zm-6,3l-1,0l0,1l2,0l0,-1l-1,0z"/>
      <path id="svg_95" d="m26,44l1,0l0,1l-1,0l0,-1zm-7,-3l-1,0l0,2l1,0l0,-1l0,-1z"/>
     </g>
     <g id="svg_96" class="gotchi-primary">
      <path id="svg_97" d="m44,42l1,0l0,1l-1,0l0,-1zm-1,-6l1,0l0,1l-1,0l0,-1z"/>
      <path id="svg_98" d="m42,37l1,0l0,1l-1,0l0,-1z"/>
      <path id="svg_99" d="m42,39l0,-1l-2,0l0,1l1,0l1,0zm0,4l0,1l2,0l0,-1l-1,0l-1,0z"/>
      <path id="svg_100" d="m40,44l-2,0l0,1l4,0l0,-1l-1,0l-1,0z"/>
      <path id="svg_101" d="m38,42l0,-2l-1,0l0,4l1,0l0,-1l0,-1z"/>
      <path id="svg_102" d="m40,40l0,-1l-2,0l0,1l1,0l1,0z"/>
     </g>
     <g id="svg_103" class="gotchi-secondary">
      <path id="svg_104" d="m42,44l0,1l2,0l0,-1l-1,0l-1,0zm-5,-2l0,-1l-1,0l0,3l1,0l0,-1l0,-1z"/>
      <path id="svg_105" d="m40,45l-2,0l0,1l4,0l0,-1l-1,0l-1,0z"/>
      <path id="svg_106" d="m37,44l1,0l0,1l-1,0l0,-1zm7,-1l1,0l0,1l-1,0l0,-1z"/>
     </g>
    </g>
    <g id="svg_107" class="gotchi-handsDownOpen">
     <g id="svg_108" class="gotchi-primary">
      <path id="svg_109" d="m14,40l1,0l0,1l-1,0l0,-1zm-1,-6l1,0l0,1l-1,0l0,-1z"/>
      <path id="svg_110" d="m14,33l1,0l0,1l-1,0l0,-1zm-2,2l1,0l0,1l-1,0l0,-1zm-5,3l1,0l0,4l-1,0l0,-4zm5,3l2,0l0,1l-2,0l0,-1z"/>
      <path id="svg_111" d="m8,42l4,0l0,1l-4,0l0,-1zm0,-5l2,0l0,1l-2,0l0,-1z"/>
      <path id="svg_112" d="m10,36l2,0l0,1l-2,0l0,-1z"/>
     </g>
     <g id="svg_113" class="gotchi-secondary">
      <path id="svg_114" d="m14,39l1,0l0,1l-1,0l0,-1z"/>
      <path id="svg_115" d="m12,40l2,0l0,1l-2,0l0,-1z"/>
      <path id="svg_116" d="m8,41l4,0l0,1l-4,0l0,-1z"/>
     </g>
     <path id="svg_117" fill="#fff" d="m8,38l0,3l4,0l0,-1l2,0l0,-1l1,0l0,-5l-1,0l0,1l-1,0l0,1l-1,0l0,1l-2,0l0,1l-2,0z"/>
     <g id="svg_118" class="gotchi-primary">
      <path id="svg_119" d="m49,40l1,0l0,1l-1,0l0,-1zm1,-6l1,0l0,1l-1,0l0,-1z"/>
      <path id="svg_120" d="m49,33l1,0l0,1l-1,0l0,-1zm2,2l1,0l0,1l-1,0l0,-1zm5,3l1,0l0,4l-1,0l0,-4zm-6,3l2,0l0,1l-2,0l0,-1z"/>
      <path id="svg_121" d="m52,42l4,0l0,1l-4,0l0,-1zm2,-5l2,0l0,1l-2,0l0,-1z"/>
      <path id="svg_122" d="m52,36l2,0l0,1l-2,0l0,-1z"/>
     </g>
     <g id="svg_123" class="gotchi-secondary">
      <path id="svg_124" d="m49,39l1,0l0,1l-1,0l0,-1z"/>
      <path id="svg_125" d="m50,40l2,0l0,1l-2,0l0,-1z"/>
      <path id="svg_126" d="m52,41l4,0l0,1l-4,0l0,-1z"/>
     </g>
     <path id="svg_127" fill="#fff" d="m54,38l0,-1l-2,0l0,-1l-1,0l0,-1l-1,0l0,-1l-1,0l0,5l1,0l0,1l2,0l0,1l4,0l0,-3l-2,0z"/>
    </g>
    <g id="svg_128" class="gotchi-handsUp">
     <g id="svg_129" class="gotchi-secondary">
      <path id="svg_130" d="m50,38l1,0l0,1l-1,0l0,-1z"/>
      <path id="svg_131" d="m49,39l1,0l0,1l-1,0l0,-1zm2,-2l1,0l0,1l-1,0l0,-1z"/>
      <path id="svg_132" d="m52,36l2,0l0,1l-2,0l0,-1z"/>
      <path id="svg_133" d="m54,35l2,0l0,1l-2,0l0,-1z"/>
     </g>
     <path id="svg_134" fill="#fff" d="m52,32l0,1l-2,0l0,1l-1,0l0,5l1,0l0,-1l1,0l0,-1l1,0l0,-1l2,0l0,-1l2,0l0,-3l-4,0z"/>
     <g id="svg_135" class="gotchi-primary">
      <path id="svg_136" d="m49,33l1,0l0,1l-1,0l0,-1z"/>
      <path id="svg_137" d="m50,32l2,0l0,1l-2,0l0,-1zm0,7l1,0l0,1l-1,0l0,-1z"/>
      <path id="svg_138" d="m49,40l1,0l0,1l-1,0l0,-1zm2,-2l1,0l0,1l-1,0l0,-1z"/>
      <path id="svg_139" d="m52,37l2,0l0,1l-2,0l0,-1zm0,-6l4,0l0,1l-4,0l0,-1z"/>
      <path id="svg_140" d="m56,32l1,0l0,4l-1,0l0,-4z"/>
      <path id="svg_141" d="m54,36l2,0l0,1l-2,0l0,-1z"/>
     </g>
     <g id="svg_142" class="gotchi-secondary">
      <path id="svg_143" d="m13,38l1,0l0,1l-1,0l0,-1z"/>
      <path id="svg_144" d="m14,39l1,0l0,1l-1,0l0,-1zm-2,-2l1,0l0,1l-1,0l0,-1z"/>
      <path id="svg_145" d="m10,36l2,0l0,1l-2,0l0,-1z"/>
      <path id="svg_146" d="m8,35l2,0l0,1l-2,0l0,-1z"/>
     </g>
     <path id="svg_147" fill="#fff" d="m8,32l0,3l2,0l0,1l2,0l0,1l1,0l0,1l1,0l0,1l1,0l0,-5l-1,0l0,-1l-2,0l0,-1l-4,0z"/>
     <g id="svg_148" class="gotchi-primary">
      <path id="svg_149" d="m14,33l1,0l0,1l-1,0l0,-1z"/>
      <path id="svg_150" d="m12,32l2,0l0,1l-2,0l0,-1zm1,7l1,0l0,1l-1,0l0,-1z"/>
      <path id="svg_151" d="m14,40l1,0l0,1l-1,0l0,-1zm-2,-2l1,0l0,1l-1,0l0,-1z"/>
      <path id="svg_152" d="m10,37l2,0l0,1l-2,0l0,-1zm-2,-6l4,0l0,1l-4,0l0,-1z"/>
      <path id="svg_153" d="m7,32l1,0l0,4l-1,0l0,-4z"/>
      <path id="svg_154" d="m8,36l2,0l0,1l-2,0l0,-1z"/>
     </g>
    </g>
    <g id="svg_8" class="gotchi-wearable wearable-face">
     <svg id="svg_155" y="18" x="9">
      <path id="svg_156" fill="#64438e" d="m5,2l-1,0l0,-2l-4,0l0,6l2,0l0,4l2,0l0,2l2,0l0,-10l-1,0z"/>
      <path id="svg_157" fill="#b464ed" d="m5,4l-1,0l0,-2l-2,0l0,4l2,0l0,4l2,0l0,-6l-1,0z"/>
      <g id="svg_158" fill="#edd3fd">
       <path id="svg_159" d="m4,4l-2,0l0,2l2,0l0,-1l0,-1z"/>
       <path id="svg_160" d="m5,6l-1,0l0,4l2,0l0,-4l-1,0z"/>
      </g>
      <path id="svg_161" fill="#64438e" d="m41,2l1,0l0,-2l4,0l0,6l-2,0l0,4l-2,0l0,2l-2,0l0,-10l1,0z"/>
      <path id="svg_162" fill="#b464ed" d="m41,4l1,0l0,-2l2,0l0,4l-2,0l0,4l-2,0l0,-6l1,0z"/>
      <g id="svg_163" fill="#edd3fd">
       <path id="svg_164" d="m42,4l2,0l0,2l-2,0l0,-1l0,-1z"/>
       <path id="svg_165" d="m41,6l1,0l0,4l-2,0l0,-4l1,0z"/>
      </g>
     </svg>
    </g>
    <g id="svg_9" class="gotchi-wearable wearable-eyes">
     <svg id="svg_166" y="19" x="15">
      <path id="svg_167" fill="red" d="m31,5l0,-2l-1,0l0,-1l-1,0l0,-1l-1,0l0,-1l-6,0l0,1l-1,0l0,1l-1,0l0,1l-1,0l0,2l-4,0l0,-2l-1,0l0,-1l-1,0l0,-1l-1,0l0,-1l-6,0l0,1l-1,0l0,1l-1,0l0,1l-1,0l0,2l-3,0l0,2l3,0l0,2l1,0l0,1l1,0l0,1l1,0l0,1l6,0l0,-1l1,0l0,-1l1,0l0,-1l1,0l0,-2l4,0l0,2l1,0l0,1l1,0l0,1l1,0l0,1l6,0l0,-1l1,0l0,-1l1,0l0,-1l1,0l0,-2l3,0l0,-2l-3,0z"/>
      <path id="svg_168" d="m13,2l-1,0l0,-1l-6,0l0,1l-1,0l0,1l-1,0l0,6l1,0l0,1l1,0l0,1l6,0l0,-1l1,0l0,-1l1,0l0,-6l-1,0l0,-1zm16,0l-1,0l0,-1l-6,0l0,1l-1,0l0,1l-1,0l0,6l1,0l0,1l1,0l0,1l6,0l0,-1l1,0l0,-1l1,0l0,-6l-1,0l0,-1z"/>
      <path id="svg_169" fill="#7d7d7d" d="m8,2l0,1l-1,0l0,1l-1,0l0,2l3,0l0,-4l-1,0z"/>
      <path id="svg_170" fill="#282828" d="m9,6l0,4l1,0l0,-1l1,0l0,-1l1,0l0,-2l-3,0z"/>
      <g id="svg_171" fill="#464646">
       <path id="svg_172" d="m6,6l0,2l1,0l0,1l1,0l0,1l1,0l0,-4l-3,0z"/>
       <path id="svg_173" d="m11,4l0,-1l-1,0l0,-1l-1,0l0,4l3,0l0,-2l-1,0z"/>
      </g>
      <g id="svg_174" fill="#646464">
       <path id="svg_175" d="m26.5,4.6l1,0l0,1l-1,0l0,-1zm0,2l1,0l0,1l-1,0l0,-1z"/>
       <path id="svg_176" d="m24.5,5.6l0,-1l2,0l0,-1l-1,0l0,-1l-1,0l0,1l-2,0l0,1l1,0l0,3l-1,0l0,1l2,0l0,1l1,0l0,-1l1,0l0,-1l-2,0l0,-1l2,0l0,-1l-2,0z"/>
      </g>
     </svg>
    </g>
    <g id="svg_10" class="gotchi-wearable wearable-head">
     <svg id="svg_177" y="6" x="13">
      <path id="svg_178" fill="#f6748a" d="m37,10l-1,0l0,-2l-2,0l0,-2l-2,0l0,-2l-3,0l0,-2l-3,0l0,-2l-14,0l0,2l-3,0l0,2l-3,0l0,2l-2,0l0,2l-2,0l0,2l-2,0l0,16l1,0l0,1l4,0l0,-5l2,0l0,-4l1,0l0,-2l3,0l0,-2l3,0l0,-8l2,0l0,-2l2,0l0,-1l1,0l0,1l3,0l0,2l2,0l0,2l2,0l0,2l3,0l0,2l3,0l0,2l1,0l0,13l4,0l0,-1l1,0l0,-16l-1,0z"/>
      <path id="svg_179" fill="#8dc3c0" d="m6,11l0,-1l-1,0l0,2l1,0l0,-1zm0,4l0,-1l-1,0l0,2l1,0l0,-1zm-1,3l0,2l2,0l0,-2l-2,0zm3,-13l0,1l1,0l0,-2l-1,0l0,1zm0,4l0,1l1,0l0,-2l-1,0l0,1zm0,4l0,1l1,0l0,-2l-1,0l0,1zm3,-10l0,1l1,0l0,-2l-1,0l0,1zm3,0l0,1l1,0l0,-2l-1,0l0,1zm-3,4l0,1l1,0l0,-2l-1,0l0,1zm0,4l0,1l1,0l0,-2l-1,0l0,1zm-9,2l0,1l1,0l0,-2l-1,0l0,1zm0,4l0,1l1,0l0,-2l-1,0l0,1zm0,4l0,1l1,0l0,-2l-1,0l0,1zm0,4l0,1l1,0l0,-2l-1,0l0,1zm14,-24l0,1l1,0l0,-2l-1,0l0,1zm7,4l0,1l1,0l0,-2l-1,0l0,1zm0,-4l0,1l1,0l0,-2l-1,0l0,1zm-4,2l0,1l1,0l0,-2l-1,0l0,1zm2,-2l0,1l1,0l0,-2l-1,0l0,1zm8,4l0,1l1,0l0,-2l-1,0l0,1zm0,4l0,1l1,0l0,-2l-1,0l0,1zm-3,-6l0,1l1,0l0,-2l-1,0l0,1zm0,4l0,1l1,0l0,-2l-1,0l0,1zm9,1l0,2l1,0l0,-2l-1,0zm-3,-2l0,2l2,0l0,-2l-2,0zm0,5l0,1l1,0l0,-2l-1,0l0,1zm3,2l0,1l1,0l0,-2l-1,0l0,1zm0,4l0,1l1,0l0,-2l-1,0l0,1zm0,4l0,1l1,0l0,-2l-1,0l0,1zm0,4l0,1l1,0l0,-2l-1,0l0,1z"/>
      <path id="svg_180" fill="#027073" d="m6,9l0,-1l-1,0l0,2l1,0l0,-1zm0,4l0,-1l-1,0l0,2l1,0l0,-1zm0,4l0,-1l-1,0l0,2l1,0l0,-1zm-1,3l0,2l2,0l0,-2l-2,0zm3,-13l0,1l1,0l0,-2l-1,0l0,1zm0,4l0,1l1,0l0,-2l-1,0l0,1zm0,4l0,1l1,0l0,-2l-1,0l0,1zm3,-10l0,1l1,0l0,-2l-1,0l0,1zm3,-4l0,1l1,0l0,-2l-1,0l0,1zm-3,8l0,1l1,0l0,-2l-1,0l0,1zm0,4l0,1l1,0l0,-2l-1,0l0,1zm-9,-2l0,1l1,0l0,-2l-1,0l0,1zm0,4l0,1l1,0l0,-2l-1,0l0,1zm0,4l0,1l1,0l0,-2l-1,0l0,1zm0,4l0,1l1,0l0,-2l-1,0l0,1zm0,3l1,0l0,1l-1,0l0,-1zm12,-21l0,1l1,0l0,-2l-1,0l0,1zm2,-2l0,1l1,0l0,-2l-1,0l0,1zm7,0l0,1l1,0l0,-2l-1,0l0,1zm-5,-1l1,0l0,1l-1,0l0,-1zm2,-1l0,1l1,0l0,-2l-1,0l0,1zm9,6l0,1l1,0l0,-2l-1,0l0,1zm0,4l0,1l1,0l0,-2l-1,0l0,1zm-3,-6l0,1l1,0l0,-2l-1,0l0,1zm0,4l0,1l1,0l0,-2l-1,0l0,1zm6,0l0,1l1,0l0,-2l-1,0l0,1zm0,4l0,1l1,0l0,-2l-1,0l0,1zm3,-3l0,2l1,0l0,-2l-1,0zm0,5l0,1l1,0l0,-2l-1,0l0,1zm0,4l0,1l1,0l0,-2l-1,0l0,1zm0,4l0,1l1,0l0,-2l-1,0l0,1zm0,3l1,0l0,1l-1,0l0,-1z"/>
      <g id="svg_181" fill="#c10359">
       <path id="svg_182" d="m0,14l0,2l2,0l0,-2l-2,0zm0,4l0,2l2,0l0,-2l-2,0zm0,4l0,2l2,0l0,-2l-2,0zm0,-12l0,2l2,0l0,-2l-2,0zm3,6l0,2l2,0l0,-2l-2,0zm0,4l0,2l2,0l0,-2l-2,0zm0,-12l0,2l2,0l0,-2l-2,0zm0,4l0,2l2,0l0,-2l-2,0zm12,-11l0,1l1,0l0,-2l-1,0l0,1zm-12,23l0,2l2,0l0,-2l-2,0zm3,-18l0,2l2,0l0,-2l-2,0zm0,4l0,2l2,0l0,-2l-2,0zm0,4l0,2l2,0l0,-2l-2,0zm3,-10l0,2l2,0l0,-2l-2,0zm0,4l0,2l2,0l0,-2l-2,0zm0,4l0,2l2,0l0,-2l-2,0zm3,-10l0,2l2,0l0,-2l-2,0zm0,4l0,2l2,0l0,-2l-2,0zm3,-1l0,1l1,0l0,-2l-1,0l0,1zm2,-2l0,1l1,0l0,-2l-1,0l0,1z"/>
       <path id="svg_183" d="m18,1l0,1l1,0l0,-2l-1,0l0,1zm4,5l1,0l0,-2l-1,0l0,2zm0,-5l0,1l1,0l0,-2l-1,0l0,1z"/>
       <path id="svg_184" d="m21,3l0,1l1,0l0,-2l-1,0l0,1zm-9,7l0,2l2,0l0,-2l-2,0zm15,-6l0,2l2,0l0,-2l-2,0zm0,4l0,2l2,0l0,-2l-2,0zm-3,-6l0,2l2,0l0,-2l-2,0zm0,4l0,2l2,0l0,-2l-2,0zm12,8l0,2l2,0l0,-2l-2,0zm0,4l0,2l2,0l0,-2l-2,0zm-35,8l1,0l0,1l-1,0l0,-1zm35,0l1,0l0,1l-1,0l0,-1zm0,-4l0,2l2,0l0,-2l-2,0zm1,-12l-1,0l0,2l2,0l0,-2l-1,0zm-4,6l0,2l2,0l0,-2l-2,0zm0,4l0,2l2,0l0,-2l-2,0zm0,-12l0,2l2,0l0,-2l-2,0zm0,4l0,2l2,0l0,-2l-2,0zm0,12l0,2l2,0l0,-2l-2,0zm-3,-18l0,2l2,0l0,-2l-2,0zm0,4l0,2l2,0l0,-2l-2,0z"/>
      </g>
     </svg>
    </g>
    <g id="svg_11" class="gotchi-wearable wearable-hand wearable-hand-left">
     <svg id="svg_185" y="33" x="0">
      <path id="svg_186" d="m12,2l0,-1l-1,0l0,-1l-9,0l0,1l-1,0l0,1l-1,0l0,2l1,0l0,1l1,0l0,1l1,0l0,1l1,0l0,1l1,0l0,1l1,0l0,1l1,0l0,-1l1,0l0,-1l1,0l0,-1l1,0l0,-1l1,0l0,-1l1,0l0,-1l1,0l0,-2l-1,0z"/>
      <path id="svg_187" fill="#46a7c0" d="m2,4l0,1l1,0l0,1l1,0l0,1l1,0l0,1l1,0l0,1l1,0l0,-1l1,0l0,-1l1,0l0,-1l1,0l0,-1l1,0l0,-1l-9,0z"/>
      <g id="svg_188" fill="#0ff">
       <path id="svg_189" d="m9,2l-1,0l0,-1l-3,0l0,1l-1,0l0,1l-1,0l0,2l1,0l0,1l1,0l0,1l1,0l0,1l1,0l0,-1l1,0l0,-1l1,0l0,-1l1,0l0,-2l-1,0l0,-1zm2,0l1,0l0,1l-1,0l0,-1z"/>
       <path id="svg_190" d="m10,1l1,0l0,1l-1,0l0,-1zm-8,0l1,0l0,1l-1,0l0,-1z"/>
       <path id="svg_191" d="m1,2l1,0l0,1l-1,0l0,-1z"/>
      </g>
      <g id="svg_192" fill="#fff">
       <path id="svg_193" d="m11,3l1,0l0,1l-1,0l0,-1zm-10,0l1,0l0,1l-1,0l0,-1zm8,-2l1,0l0,1l-1,0l0,-1zm-1,2l0,-1l-1,0l0,-1l-1,0l0,1l-1,0l0,1l-2,0l0,1l7,0l0,-1l-2,0z"/>
       <path id="svg_194" d="m10,2l1,0l0,1l-1,0l0,-1zm-8,0l1,0l0,1l-1,0l0,-1z"/>
       <path id="svg_195" d="m3,1l1,0l0,1l-1,0l0,-1z"/>
      </g>
     </svg>
    </g>
    <g id="svg_12" class="gotchi-wearable wearable-hand wearable-hand-right">
     <svg id="svg_196" y="24" x="0">
      <g id="svg_197" transform="scale(-1, 1) translate(-64, 0)">
       <path id="svg_198" fill="#7d0064" d="m0,1l0,9l11.5,0l0,-9l-11.5,0z"/>
       <path id="svg_199" fill="#fff" d="m8,3l0,-1l-5,0l0,1l-1,0l0,6l1,0l0,-1l1,0l0,1l1,0l0,-1l1,0l0,1l1,0l0,-1l1,0l0,1l1,0l0,-6l-1,0zm-1,0l0,1l-1,0l0,-1l1,0zm-2,0l0,1l-1,0l0,-1l1,0zm3,3l-1,0l0,1l-3,0l0,-1l-1,0l0,-1l1,0l0,1l3,0l0,-1l1,0l0,1z"/>
       <path id="svg_200" fill="#8e7064" d="m11,0l0,25l1,0l0,-25l-1,0z"/>
       <path id="svg_201" fill="#7a5749" d="m11,24l1,0l0,1l-1,0l0,-1zm0,-24l1,0l0,1l-1,0l0,-1z"/>
      </g>
     </svg>
    </g>
   </svg>
  </g>
 </g>
</svg>