<svg width="108" height="104.67188" xmlns="http://www.w3.org/2000/svg" viewbox="0 0 64 64">
 <g>
  <title>Layer 1</title>
  <svg y="0" x="0.33594" id="svg_16" viewBox="0 0 64 64" xmlns="http://www.w3.org/2000/svg">
   <style>.gotchi-primary{fill:#FF7D00;}.gotchi-secondary{fill:#F9D792;}.gotchi-cheek{fill:#F4AF24;}.gotchi-eyeColor{fill:#5D24BF;}.gotchi-primary-mouth{fill:#FF7D00;}.gotchi-sleeves-up{display:none;}.gotchi-handsUp{display:none;}.gotchi-handsDownOpen{display:block;}.gotchi-handsDownClosed{display:none;}
.gotchi-bg {
    display:none;
  }




svg {
  animation-name:down;
  animation-duration:0.5s;
  animation-iteration-count: infinite;
  animation-timing-function: linear;
  animation-timing-function: steps(1);
}

.gotchi-shadow {
  animation: up 0.5s infinite linear steps(2);
   animation-name:up;
   animation-duration:0.5s;
   animation-iteration-count: infinite;
   animation-timing-function: linear;
   animation-timing-function: steps(2);
}

.gotchi-wearable {
  animation-name:down;
  animation-duration:0.5s;
  animation-iteration-count: infinite;
  animation-timing-function: linear;
  animation-timing-function: steps(1);
}



.gotchi-handsDownClosed, .gotchi-handsUp, .gotchi-handsDownOpen, .gotchi-handsDownClosed, .gotchi-body, .gotchi-eyeColor, .gotchi-collateral, .gotchi-cheek, .gotchi-primary-mouth, .gotchi-wearable, .gotchi-sleeves   {
   animation-name:down;
   animation-duration:0.5s;
   animation-iteration-count: infinite;
   animation-timing-function: linear;
   animation-timing-function: steps(2);
}

.wearable-hand {
  animation-name:down !important;
  animation-duration:0.5s;
  animation-iteration-count: infinite;
  animation-timing-function: linear;
  animation-timing-function: steps(2);
}

@keyframes downHands {
  from {
    transform: translate(0px, -4px);
  }
 to {
    transform: translate(0px, -3px);
  }
}


@keyframes up {
  from {
    transform: translate(0px, 0);
  }
 to {
    transform: translate(0px, -1px);
  }
}


@keyframes down {
 from {
   transform: translate(0px, 0);
    }
 to {
      transform: translate(0px, 1px);
    }
}</style>
   <g id="svg_17" class="gotchi-bg">
    <defs fill="#fff">
     <mask id="svg_1">
      <path id="svg_18" d="m0,0l64,0l0,32l-64,0l0,-32z" fill="url(#svg_2)"/>
     </mask>
     <pattern height="4" width="4" patternUnits="userSpaceOnUse" id="svg_6">
      <path id="svg_19" d="m0,0l1,0l0,1l-1,0l0,-1zm2,2l1,0l0,1l-1,0l0,-1z"/>
     </pattern>
     <pattern height="2" width="2" y="0" x="0" patternUnits="userSpaceOnUse" id="svg_4">
      <path id="svg_20" d="m0,0l1,0l0,1l-1,0l0,-1z"/>
     </pattern>
     <pattern height="1" width="8" y="0" x="-2" patternUnits="userSpaceOnUse" id="svg_5">
      <path id="svg_21" d="m0,0l1,0l0,1l-1,0l0,-1zm2,0l1,0l0,1l-1,0l0,-1zm2,0l1,0l0,1l-1,0l0,-1z"/>
     </pattern>
     <pattern height="4" width="4" y="0" x="0" patternUnits="userSpaceOnUse" id="svg_3">
      <path id="svg_22" d="m0,0l1,0l0,1l-1,0l0,-1zm0,2l1,0l0,1l-1,0l0,-1zm1,0l0,-1l1,0l0,1l-1,0zm1,0l1,0l0,1l-1,0l0,-1zm0,-1l1,0l0,-1l-1,0l0,1zm1,2l1,0l0,1l-1,0l0,-1z"/>
     </pattern>
     <pattern height="32" width="64" patternUnits="userSpaceOnUse" id="svg_2">
      <path id="svg_23" d="m4,4l1,0l0,1l-1,0l0,-1zm7,0l1,0l0,1l-1,0l0,-1zm7,0l1,0l0,1l-1,0l0,-1zm7,0l1,0l0,1l-1,0l0,-1zm7,0l1,0l0,1l-1,0l0,-1zm7,0l1,0l0,1l-1,0l0,-1zm7,0l1,0l0,1l-1,0l0,-1zm7,0l1,0l0,1l-1,0l0,-1zm7,0l1,0l0,1l-1,0l0,-1z"/>
      <path id="svg_24" d="m0,8l64,0l0,7l-64,0l0,-7z" fill="url(#svg_6)"/>
      <path id="svg_25" d="m0,16l64,0l0,1l-64,0l0,-1z" fill="url(#svg_4)"/>
      <path id="svg_26" d="m0,18l64,0l0,1l-64,0l0,-1z" fill="url(#svg_5)"/>
      <path id="svg_27" d="m22,18l15,0l0,1l-15,0l0,-1zm-22,2l64,0l0,3l-64,0l0,-3z" fill="url(#svg_4)"/>
      <path id="svg_28" d="m0,24l64,0l0,8l-64,0l0,-8z" fill="url(#svg_3)"/>
     </pattern>
    </defs>
    <path id="svg_29" d="m0,0l64,0l0,32l-64,0l0,-32z" fill="#fff"/>
    <path id="svg_30" d="m0,0l64,0l0,32l-64,0l0,-32z" mask="url(#svg_1)" class="gotchi-secondary" fill="#dea8ff"/>
    <path id="svg_31" d="m0,32l64,0l0,32l-64,0l0,-32z" class="gotchi-secondary" fill="#dea8ff"/>
    <path id="svg_32" d="m0,64l64,0l0,-32l-64,0l0,32z" fill="#fff" mask="url(#svg_1)"/>
   </g>
   <g id="svg_33" class="gotchi-body">
    <g id="svg_34" class="gotchi-primary">
     <path id="svg_35" d="m21,12l2,0l0,-2l-4,0l0,2l1,0l1,0z"/>
     <path id="svg_36" d="m19,14l0,-2l-2,0l0,2l1,0l1,0zm6,-4l2,0l0,-2l-4,0l0,2l1,0l1,0z"/>
     <path id="svg_37" d="m29,8l8,0l0,-2l-10,0l0,2l1,0l1,0zm16,6l2,0l0,-2l-2,0l0,1l0,1z"/>
     <path id="svg_38" d="m48,14l-1,0l0,39l-2,0l0,2l4,0l0,-41l-1,0zm-11,-4l4,0l0,-2l-4,0l0,1l0,1z"/>
     <path id="svg_39" d="m41,12l4,0l0,-2l-4,0l0,1l0,1zm-24,41l0,-39l-2,0l0,41l4,0l0,-2l-1,0l-1,0z"/>
     <path id="svg_40" d="m24,51l-5,0l0,2l5,0l0,-1l0,-1z"/>
     <path id="svg_41" d="m27,53l-3,0l0,2l5,0l0,-2l-1,0l-1,0zm18,-2l-5,0l0,2l5,0l0,-1l0,-1z"/>
     <path id="svg_42" d="m35,51l-6,0l0,2l6,0l0,-1l0,-1z"/>
     <path id="svg_43" d="m38,53l-3,0l0,2l5,0l0,-2l-1,0l-1,0z"/>
    </g>
    <g id="svg_44" class="gotchi-secondary">
     <path id="svg_45" d="m18,43l0,6l2,0l0,-1l2,0l0,1l2,0l0,2l-5,0l0,2l-2,0l0,-39l2,0l0,1l-1,0l0,26l0,2z"/>
     <path id="svg_46" d="m27,51l-3,0l0,2l5,0l0,-2l-1,0l-1,0zm11,0l-3,0l0,2l5,0l0,-2l-1,0l-1,0z"/>
     <path id="svg_47" d="m35,49l-2,0l0,-1l-2,0l0,1l-2,0l0,2l6,0l0,-1l0,-1zm-10,-38l2,0l0,-1l-4,0l0,1l1,0l1,0zm-4,2l2,0l0,-1l-4,0l0,1l1,0l1,0zm24,31l0,5l-1,0l0,-1l-2,0l0,1l-2,0l0,2l5,0l0,2l2,0l0,-39l-2,0l0,29l0,1z"/>
     <path id="svg_48" d="m37,8l-10,0l0,1l5,0l0,1l5,0l0,-1l0,-1zm8,4l-4,0l0,2l4,0l0,-1l0,-1z"/>
     <path id="svg_49" d="m41,10l-4,0l0,2l4,0l0,-1l0,-1z"/>
    </g>
    <path id="svg_50" fill="#fff" d="m44,14l-3,0l0,-2l-4,0l0,-2l-5,0l0,-1l-5,0l0,2l-4,0l0,2l-4,0l0,2l-1,0l0,34l2,0l0,-1l2,0l0,1l2,0l0,2l5,0l0,-2l2,0l0,-1l2,0l0,1l2,0l0,2l5,0l0,-2l2,0l0,-1l2,0l0,1l1,0l0,-35l-1,0z"/>
   </g>
   <path id="svg_51" d="m21,32l0,2l2,0l0,-2l-1,0l-1,0zm21,0l-1,0l0,2l2,0l0,-2l-1,0z" class="gotchi-cheek"/>
   <g id="svg_52">
    <g id="svg_53" class="gotchi-primary-mouth">
     <path id="svg_54" d="m33,34l-4,0l0,2l6,0l0,-2l-1,0l-1,0z"/>
    </g>
   </g>
   <g id="svg_55" class="gotchi-shadow">
    <path id="svg_56" fill="#000" d="m25,58l-6,0l0,1l1,0l0,1l24,0l0,-1l1,0l0,-1l-1,0l-19,0z" opacity="0.25"/>
   </g>
   <g id="svg_57" class="gotchi-eyeColor">
    <path id="svg_58" d="m29,22l-1,0l0,1l-1,0l-1,0l-1,0l-1,0l-1,0l0,-1l1,0l1,0l1,0l1,0l1,0l0,-1l-1,0l-1,0l-1,0l-1,0l-1,0l-1,0l0,1l0,1l-1,0l0,1l1,0l0,1l-1,0l0,1l1,0l0,1l0,1l1,0l1,0l1,0l1,0l1,0l1,0l0,-1l-1,0l-1,0l-1,0l-1,0l-1,0l0,-1l1,0l1,0l1,0l1,0l1,0l0,1l1,0l0,-1l1,0l0,-1l-1,0l0,-1l1,0l0,-1l-1,0l0,-1zm-1,3l-1,0l-1,0l-1,0l-1,0l-1,0l0,-1l1,0l1,0l1,0l1,0l1,0l0,1z"/>
    <path id="svg_59" d="m43,24l0,-1l-1,0l0,-1l-1,0l0,1l-1,0l-1,0l-1,0l-1,0l-1,0l0,-1l1,0l1,0l1,0l1,0l1,0l0,-1l-1,0l-1,0l-1,0l-1,0l-1,0l-1,0l0,1l0,1l-1,0l0,1l1,0l0,1l-1,0l0,1l1,0l0,1l0,1l1,0l1,0l1,0l1,0l1,0l1,0l0,-1l-1,0l-1,0l-1,0l-1,0l-1,0l0,-1l1,0l1,0l1,0l1,0l1,0l0,1l1,0l0,-1l1,0l0,-1l-1,0l0,-1l1,0zm-2,1l-1,0l-1,0l-1,0l-1,0l-1,0l0,-1l1,0l1,0l1,0l1,0l1,0l0,1z"/>
   </g>
   <g id="svg_60" fill="#ff7d00" class="gotchi-collateral">
    <path id="svg_61" d="m37,16l0,-1l-1,0l0,-1l-1,0l0,1l-6,0l0,-2l5,0l0,-1l-6,0l0,3l-1,0l0,1l1,0l0,1l-1,0l0,1l1,0l0,3l6,0l0,-1l-5,0l0,-2l6,0l0,1l1,0l0,-1l1,0l0,-1l-1,0l0,-1l1,0zm-2,1l-6,0l0,-1l6,0l0,1z"/>
    <path id="svg_62" d="m34,19l1,0l0,1l-1,0l0,-1zm0,-6l1,0l0,1l-1,0l0,-1z"/>
   </g>
   <g id="svg_8" class="gotchi-wearable wearable-body">
    <svg id="svg_63" y="32" x="10">
     <path id="svg_64" d="m36,1l0,1l-1,0l0,1l-1,0l0,1l-1,0l0,1l-1,0l0,1l-1,0l0,1l-2,0l0,1l-14,0l0,-1l-2,0l0,-1l-1,0l0,-1l-1,0l0,-1l-1,0l0,-1l-1,0l0,-1l-1,0l0,-1l-3,0l0,22l34,0l0,-22l-3,0z"/>
     <path id="svg_65" fill="#0ff" d="m25,22l0,-12l4,0l0,-1l2,0l0,-1l1,0l0,-1l1,0l0,-1l1,0l0,-1l1,0l0,-1l1,0l0,-1l1,0l0,-1l1,0l0,-1l-2,0l0,1l-1,0l0,1l-1,0l0,1l-1,0l0,1l-1,0l0,1l-1,0l0,1l-2,0l0,1l-14,0l0,-1l-2,0l0,-1l-1,0l0,-1l-1,0l0,-1l-1,0l0,-1l-1,0l0,-1l-1,0l0,-1l-2,0l0,1l1,0l0,1l1,0l0,1l1,0l0,1l1,0l0,1l1,0l0,1l1,0l0,1l1,0l0,1l2,0l0,1l4,0l0,12l-14,0l0,1l17,0l0,-1l-1,0l0,-1l1,0l0,-1l-1,0l0,-1l1,0l0,-1l-1,0l0,-1l1,0l0,-1l-1,0l0,-1l1,0l0,-1l-1,0l0,-1l1,0l0,-1l-1,0l0,-1l1,0l0,-1l-1,0l0,-1l1,0l0,1l1,0l0,1l-1,0l0,1l1,0l0,1l-1,0l0,1l1,0l0,1l-1,0l0,1l1,0l0,1l-1,0l0,1l1,0l0,1l-1,0l0,1l1,0l0,1l-1,0l0,1l1,0l0,1l16,0l0,-1l-14,0z"/>
     <g id="svg_66" fill="#f0f">
      <path id="svg_67" d="m5,22l14,0l0,1l-14,0l0,-1zm20,0l14,0l0,1l-14,0l0,-1zm-18,-21l1,0l0,1l-1,0l0,-1zm2,2l1,0l0,1l-1,0l0,-1z"/>
      <path id="svg_68" d="m8,2l1,0l0,1l-1,0l0,-1zm2,2l1,0l0,1l-1,0l0,-1z"/>
      <path id="svg_69" d="m11,5l1,0l0,1l-1,0l0,-1zm2,2l2,0l0,1l-2,0l0,-1zm23,-6l1,0l0,1l-1,0l0,-1z"/>
      <path id="svg_70" d="m35,2l1,0l0,1l-1,0l0,-1z"/>
      <path id="svg_71" d="m34,3l1,0l0,1l-1,0l0,-1zm-2,2l1,0l0,1l-1,0l0,-1z"/>
      <path id="svg_72" d="m33,4l1,0l0,1l-1,0l0,-1zm-4,3l2,0l0,1l-2,0l0,-1z"/>
      <path id="svg_73" d="m12,6l1,0l0,1l-1,0l0,-1zm19,0l1,0l0,1l-1,0l0,-1zm-2,3l0,-1l-14,0l0,1l5,0l0,14l1,0l0,-14l2,0l0,14l1,0l0,-14l5,0z"/>
     </g>
    </svg>
   </g>
   <g id="svg_74" class="gotchi-handsDownClosed">
    <g id="svg_75" class="gotchi-primary">
     <path id="svg_76" d="m19,42l1,0l0,1l-1,0l0,-1zm1,-6l1,0l0,1l-1,0l0,-1z"/>
     <path id="svg_77" d="m21,37l1,0l0,1l-1,0l0,-1zm5,3l0,4l1,0l0,-4l-1,0zm-5,3l-1,0l0,1l2,0l0,-1l-1,0z"/>
     <path id="svg_78" d="m24,44l-2,0l0,1l4,0l0,-1l-1,0l-1,0zm1,-5l-1,0l0,1l2,0l0,-1l-1,0z"/>
     <path id="svg_79" d="m23,38l-1,0l0,1l2,0l0,-1l-1,0z"/>
    </g>
    <g id="svg_80" class="gotchi-secondary">
     <path id="svg_81" d="m19,43l1,0l0,1l-1,0l0,-1zm5,2l-2,0l0,1l4,0l0,-1l-1,0l-1,0z"/>
     <path id="svg_82" d="m27,41l0,3l1,0l0,-3l-1,0zm-6,3l-1,0l0,1l2,0l0,-1l-1,0z"/>
     <path id="svg_83" d="m26,44l1,0l0,1l-1,0l0,-1zm-7,-3l-1,0l0,2l1,0l0,-1l0,-1z"/>
    </g>
    <g id="svg_84" class="gotchi-primary">
     <path id="svg_85" d="m44,42l1,0l0,1l-1,0l0,-1zm-1,-6l1,0l0,1l-1,0l0,-1z"/>
     <path id="svg_86" d="m42,37l1,0l0,1l-1,0l0,-1z"/>
     <path id="svg_87" d="m42,39l0,-1l-2,0l0,1l1,0l1,0zm0,4l0,1l2,0l0,-1l-1,0l-1,0z"/>
     <path id="svg_88" d="m40,44l-2,0l0,1l4,0l0,-1l-1,0l-1,0z"/>
     <path id="svg_89" d="m38,42l0,-2l-1,0l0,4l1,0l0,-1l0,-1z"/>
     <path id="svg_90" d="m40,40l0,-1l-2,0l0,1l1,0l1,0z"/>
    </g>
    <g id="svg_91" class="gotchi-secondary">
     <path id="svg_92" d="m42,44l0,1l2,0l0,-1l-1,0l-1,0zm-5,-2l0,-1l-1,0l0,3l1,0l0,-1l0,-1z"/>
     <path id="svg_93" d="m40,45l-2,0l0,1l4,0l0,-1l-1,0l-1,0z"/>
     <path id="svg_94" d="m37,44l1,0l0,1l-1,0l0,-1zm7,-1l1,0l0,1l-1,0l0,-1z"/>
    </g>
   </g>
   <g id="svg_95" class="gotchi-handsDownOpen">
    <g id="svg_96" class="gotchi-primary">
     <path id="svg_97" d="m14,40l1,0l0,1l-1,0l0,-1zm-1,-6l1,0l0,1l-1,0l0,-1z"/>
     <path id="svg_98" d="m14,33l1,0l0,1l-1,0l0,-1zm-2,2l1,0l0,1l-1,0l0,-1zm-5,3l1,0l0,4l-1,0l0,-4zm5,3l2,0l0,1l-2,0l0,-1z"/>
     <path id="svg_99" d="m8,42l4,0l0,1l-4,0l0,-1zm0,-5l2,0l0,1l-2,0l0,-1z"/>
     <path id="svg_100" d="m10,36l2,0l0,1l-2,0l0,-1z"/>
    </g>
    <g id="svg_101" class="gotchi-secondary">
     <path id="svg_102" d="m14,39l1,0l0,1l-1,0l0,-1z"/>
     <path id="svg_103" d="m12,40l2,0l0,1l-2,0l0,-1z"/>
     <path id="svg_104" d="m8,41l4,0l0,1l-4,0l0,-1z"/>
    </g>
    <path id="svg_105" fill="#fff" d="m8,38l0,3l4,0l0,-1l2,0l0,-1l1,0l0,-5l-1,0l0,1l-1,0l0,1l-1,0l0,1l-2,0l0,1l-2,0z"/>
    <g id="svg_106" class="gotchi-primary">
     <path id="svg_107" d="m49,40l1,0l0,1l-1,0l0,-1zm1,-6l1,0l0,1l-1,0l0,-1z"/>
     <path id="svg_108" d="m49,33l1,0l0,1l-1,0l0,-1zm2,2l1,0l0,1l-1,0l0,-1zm5,3l1,0l0,4l-1,0l0,-4zm-6,3l2,0l0,1l-2,0l0,-1z"/>
     <path id="svg_109" d="m52,42l4,0l0,1l-4,0l0,-1zm2,-5l2,0l0,1l-2,0l0,-1z"/>
     <path id="svg_110" d="m52,36l2,0l0,1l-2,0l0,-1z"/>
    </g>
    <g id="svg_111" class="gotchi-secondary">
     <path id="svg_112" d="m49,39l1,0l0,1l-1,0l0,-1z"/>
     <path id="svg_113" d="m50,40l2,0l0,1l-2,0l0,-1z"/>
     <path id="svg_114" d="m52,41l4,0l0,1l-4,0l0,-1z"/>
    </g>
    <path id="svg_115" fill="#fff" d="m54,38l0,-1l-2,0l0,-1l-1,0l0,-1l-1,0l0,-1l-1,0l0,5l1,0l0,1l2,0l0,1l4,0l0,-3l-2,0z"/>
   </g>
   <g id="svg_116" class="gotchi-handsUp">
    <g id="svg_117" class="gotchi-secondary">
     <path id="svg_118" d="m50,38l1,0l0,1l-1,0l0,-1z"/>
     <path id="svg_119" d="m49,39l1,0l0,1l-1,0l0,-1zm2,-2l1,0l0,1l-1,0l0,-1z"/>
     <path id="svg_120" d="m52,36l2,0l0,1l-2,0l0,-1z"/>
     <path id="svg_121" d="m54,35l2,0l0,1l-2,0l0,-1z"/>
    </g>
    <path id="svg_122" fill="#fff" d="m52,32l0,1l-2,0l0,1l-1,0l0,5l1,0l0,-1l1,0l0,-1l1,0l0,-1l2,0l0,-1l2,0l0,-3l-4,0z"/>
    <g id="svg_123" class="gotchi-primary">
     <path id="svg_124" d="m49,33l1,0l0,1l-1,0l0,-1z"/>
     <path id="svg_125" d="m50,32l2,0l0,1l-2,0l0,-1zm0,7l1,0l0,1l-1,0l0,-1z"/>
     <path id="svg_126" d="m49,40l1,0l0,1l-1,0l0,-1zm2,-2l1,0l0,1l-1,0l0,-1z"/>
     <path id="svg_127" d="m52,37l2,0l0,1l-2,0l0,-1zm0,-6l4,0l0,1l-4,0l0,-1z"/>
     <path id="svg_128" d="m56,32l1,0l0,4l-1,0l0,-4z"/>
     <path id="svg_129" d="m54,36l2,0l0,1l-2,0l0,-1z"/>
    </g>
    <g id="svg_130" class="gotchi-secondary">
     <path id="svg_131" d="m13,38l1,0l0,1l-1,0l0,-1z"/>
     <path id="svg_132" d="m14,39l1,0l0,1l-1,0l0,-1zm-2,-2l1,0l0,1l-1,0l0,-1z"/>
     <path id="svg_133" d="m10,36l2,0l0,1l-2,0l0,-1z"/>
     <path id="svg_134" d="m8,35l2,0l0,1l-2,0l0,-1z"/>
    </g>
    <path id="svg_135" fill="#fff" d="m8,32l0,3l2,0l0,1l2,0l0,1l1,0l0,1l1,0l0,1l1,0l0,-5l-1,0l0,-1l-2,0l0,-1l-4,0z"/>
    <g id="svg_136" class="gotchi-primary">
     <path id="svg_137" d="m14,33l1,0l0,1l-1,0l0,-1z"/>
     <path id="svg_138" d="m12,32l2,0l0,1l-2,0l0,-1zm1,7l1,0l0,1l-1,0l0,-1z"/>
     <path id="svg_139" d="m14,40l1,0l0,1l-1,0l0,-1zm-2,-2l1,0l0,1l-1,0l0,-1z"/>
     <path id="svg_140" d="m10,37l2,0l0,1l-2,0l0,-1zm-2,-6l4,0l0,1l-4,0l0,-1z"/>
     <path id="svg_141" d="m7,32l1,0l0,4l-1,0l0,-4z"/>
     <path id="svg_142" d="m8,36l2,0l0,1l-2,0l0,-1z"/>
    </g>
   </g>
   <g id="svg_9" class="gotchi-wearable wearable-face">
    <svg id="svg_143" y="6" x="15">
     <path id="svg_144" fill="#fff" d="m13.8,30.2l0,-3.5l6.5,0l0,3.5l-6.5,0z"/>
     <g id="svg_145" fill="#773e1d">
      <path id="svg_146" d="m15,28l4,0l0,1l-4,0l0,-1z"/>
      <path id="svg_147" d="m0,27l2,0l0,1l2,0l0,1l2,0l0,1l2,0l0,1l4,0l0,1l3,0l0,1l1,0l0,1l2,0l0,-1l1,0l0,-1l3,0l0,-1l4,0l0,-1l2,0l0,-1l2,0l0,-1l2,0l0,-1l2,0l0,-19l-2,0l0,-2l-2,0l0,-2l-4,0l0,-2l-4,0l0,-2l-10,0l0,2l-4,0l0,2l-4,0l0,2l-2,0l0,2l-2,0l0,19zm15,3l0,-1l-1,0l0,-1l1,0l0,-1l4,0l0,1l1,0l0,1l-1,0l0,1l-4,0zm12,-5l0,1l-2,0l0,1l-3,0l0,-1l-1,0l0,-1l-1,0l0,-1l-6,0l0,1l-1,0l0,1l-1,0l0,1l-3,0l0,-1l-2,0l0,-1l-4,0l0,-13l1,0l0,-3l1,0l0,-1l3,0l0,-1l4,0l0,1l3,0l0,1l4,0l0,-1l3,0l0,-1l4,0l0,1l3,0l0,1l1,0l0,3l1,0l0,13l-4,0z"/>
     </g>
    </svg>
   </g>
   <g id="svg_10" class="gotchi-wearable wearable-eyes">
    <svg id="svg_148" y="19" x="18">
     <path id="svg_149" d="m27,3l0,-1l-1,0l0,-1l-1,0l0,-1l-6,0l0,1l-1,0l0,1l-1,0l0,1l-1,0l0,6l1,0l0,1l1,0l0,1l1,0l0,1l6,0l0,-1l1,0l0,-1l1,0l0,-1l1,0l0,-6l-1,0z"/>
     <path id="svg_150" fill="#0f0" d="m26,3l0,-1l-1,0l0,-1l-6,0l0,1l-1,0l0,1l-1,0l0,6l1,0l0,1l1,0l0,1l6,0l0,-1l1,0l0,-1l1,0l0,-6l-1,0z"/>
     <path id="svg_151" fill="#ff0" d="m25,4l0,-1l-1,0l0,-1l-4,0l0,1l-1,0l0,1l-1,0l0,4l1,0l0,1l1,0l0,1l4,0l0,-1l1,0l0,-1l1,0l0,-4l-1,0z"/>
     <path id="svg_152" fill="#f0f" d="m24,4l0,-1l-4,0l0,1l-1,0l0,4l1,0l0,1l4,0l0,-1l1,0l0,-4l-1,0z"/>
     <path id="svg_153" fill="#7d00ff" d="m23,5l0,-1l-2,0l0,1l-1,0l0,2l1,0l0,1l2,0l0,-1l1,0l0,-2l-1,0z"/>
     <path id="svg_154" fill="#0ff" d="m21,5l2,0l0,2l-2,0l0,-2z"/>
     <path id="svg_155" d="m11,3l0,-1l-1,0l0,-1l-1,0l0,-1l-6,0l0,1l-1,0l0,1l-1,0l0,1l-1,0l0,6l1,0l0,1l1,0l0,1l1,0l0,1l6,0l0,-1l1,0l0,-1l1,0l0,-1l1,0l0,-6l-1,0z"/>
     <path id="svg_156" fill="#0f0" d="m10,3l0,-1l-1,0l0,-1l-6,0l0,1l-1,0l0,1l-1,0l0,6l1,0l0,1l1,0l0,1l6,0l0,-1l1,0l0,-1l1,0l0,-6l-1,0z"/>
     <path id="svg_157" fill="#ff0" d="m9,4l0,-1l-1,0l0,-1l-4,0l0,1l-1,0l0,1l-1,0l0,4l1,0l0,1l1,0l0,1l4,0l0,-1l1,0l0,-1l1,0l0,-4l-1,0z"/>
     <path id="svg_158" fill="#f0f" d="m8,4l0,-1l-4,0l0,1l-1,0l0,4l1,0l0,1l4,0l0,-1l1,0l0,-4l-1,0z"/>
     <path id="svg_159" fill="#7d00ff" d="m7,5l0,-1l-2,0l0,1l-1,0l0,2l1,0l0,1l2,0l0,-1l1,0l0,-2l-1,0z"/>
     <path id="svg_160" fill="#0ff" d="m5,5l2,0l0,2l-2,0l0,-2z"/>
    </svg>
   </g>
   <g id="svg_11" class="gotchi-wearable wearable-head">
    <svg id="svg_161" y="1" x="11">
     <path id="svg_162" d="m41,5l0,-2l-1,0l0,-1l-1,0l0,-1l-2,0l0,-1l-13,0l0,1l-2,0l0,1l-2,0l0,-1l-2,0l0,-1l-13,0l0,1l-2,0l0,1l-1,0l0,1l-1,0l0,2l-1,0l0,12l1,0l0,2l1,0l0,1l1,0l0,1l1,0l0,1l3,0l0,-1l1,0l0,-1l1,0l0,-1l8,0l0,1l1,0l0,1l1,0l0,1l4,0l0,-1l1,0l0,-1l1,0l0,-1l8,0l0,1l1,0l0,1l1,0l0,1l3,0l0,-1l1,0l0,-1l1,0l0,-1l1,0l0,-2l1,0l0,-12l-1,0z"/>
     <path id="svg_163" fill="#ff32ff" d="m40,5l0,-2l-1,0l0,-1l-2,0l0,-1l-13,0l0,1l-2,0l0,1l-2,0l0,-1l-2,0l0,-1l-13,0l0,1l-2,0l0,1l-1,0l0,2l-1,0l0,12l1,0l0,2l1,0l0,1l1,0l0,1l3,0l0,-1l1,0l0,-1l1,0l0,-1l8,0l0,1l1,0l0,1l1,0l0,1l4,0l0,-1l1,0l0,-1l1,0l0,-1l8,0l0,1l1,0l0,1l1,0l0,1l3,0l0,-1l1,0l0,-1l1,0l0,-2l1,0l0,-12l-1,0z"/>
     <path id="svg_164" fill="#910091" d="m12,12l-2,0l0,2l-6,0l0,-2l-2,0l0,4l2,0l0,2l2,0l0,-2l10,0l0,-2l-4,0l0,-2zm-6,0l2,0l0,-2l4,0l0,-7l-7,0l0,2l5,0l0,3l-8,0l0,2l4,0l0,2zm34,-4l0,-2l-4,0l0,-3l-4,0l0,2l2,0l0,3l-2,0l0,2l2,0l0,5l2,0l0,4l2,0l0,-4l2,0l0,-2l-4,0l0,-5l4,0zm-10,2l-6,0l0,-1l-1,0l0,-1l-1,0l0,-1l6,0l0,-2l2,0l0,-2l-4,0l0,2l-4,0l0,-2l-2,0l0,5l-1,0l0,1l-1,0l0,1l-2,0l0,-3l2,0l0,-2l-2,0l0,-2l-2,0l0,9l3,0l0,2l1,0l0,1l1,0l0,1l1,0l0,5l2,0l0,-5l1,0l0,-1l1,0l0,-1l1,0l0,-2l3,0l0,4l2,0l0,-2l2,0l0,-2l-2,0l0,-2z"/>
     <path id="svg_165" fill="#ebaae6" d="m23,10l0,-1l-1,0l0,-1l-2,0l0,1l-1,0l0,1l-1,0l0,4l1,0l0,1l1,0l0,1l1,0l0,-4l3,0l0,-2l-1,0z"/>
     <path id="svg_166" fill="#be32be" d="m21,12l0,4l1,0l0,-1l1,0l0,-1l1,0l0,-2l-3,0z"/>
     <g id="svg_167" fill="#e17dd7">
      <path id="svg_168" d="m18,12l0,2l1,0l0,1l1,0l0,1l1,0l0,-4l-3,0z"/>
      <path id="svg_169" d="m23,10l0,-1l-1,0l0,-1l-1,0l0,4l3,0l0,-2l-1,0z"/>
     </g>
    </svg>
   </g>"&gt;
   <svg id="svg_170" y="32" x="10">
    <g id="svg_171">
     <g id="svg_172" class="gotchi-sleeves gotchi-sleeves-left gotchi-sleeves-up">
      <path id="svg_173" d="m42,0l0,1l-3,0l0,18l1,0l0,-5l1,0l0,-6l1,0l0,-1l2,0l0,-7l-2,0z"/>
      <path id="svg_174" fill="#f0f" d="m42,0l1,0l0,7l-1,0l0,-7z"/>
      <path id="svg_175" fill="#0ff" d="m43,0l1,0l0,7l-1,0l0,-7z"/>
     </g>
     <g id="svg_176" class="gotchi-sleeves gotchi-sleeves-left gotchi-sleeves-down">
      <path id="svg_177" d="m42,4l0,-1l-1,0l0,-1l-1,0l0,-1l-1,0l0,18l1,0l0,-4l1,0l0,-5l1,0l0,1l2,0l0,-7l-2,0z"/>
      <path id="svg_178" fill="#f0f" d="m43,11l-1,0l0,-7l1,0l0,7z"/>
      <path id="svg_179" fill="#0ff" d="m44,11l-1,0l0,-7l1,0l0,7z"/>
     </g>
     <g id="svg_180" class="gotchi-sleeves gotchi-sleeves-right gotchi-sleeves-up">
      <path id="svg_181" d="m2,1l0,-1l-2,0l0,7l2,0l0,1l1,0l0,6l1,0l0,5l1,0l0,-18l-3,0z"/>
      <path id="svg_182" fill="#f0f" d="m2,7l-1,0l0,-7l1,0l0,7z"/>
      <path id="svg_183" fill="#0ff" d="m1,7l-1,0l0,-7l1,0l0,7z"/>
     </g>
     <g id="svg_184" class="gotchi-sleeves gotchi-sleeves-right gotchi-sleeves-down">
      <path id="svg_185" d="m4,1l0,1l-1,0l0,1l-1,0l0,1l-2,0l0,7l2,0l0,-1l1,0l0,5l1,0l0,4l1,0l0,-18l-1,0z"/>
      <path id="svg_186" fill="#f0f" d="m1,4l1,0l0,7l-1,0l0,-7z"/>
      <path id="svg_187" fill="#0ff" d="m0,4l1,0l0,7l-1,0l0,-7z"/>
     </g>
    </g>
   </svg>
   <g id="svg_13" class="gotchi-wearable wearable-hand wearable-hand-left">
    <svg id="svg_188" y="33" x="0">
     <path id="svg_189" d="m12,2l0,-1l-1,0l0,-1l-9,0l0,1l-1,0l0,1l-1,0l0,2l1,0l0,1l1,0l0,1l1,0l0,1l1,0l0,1l1,0l0,1l1,0l0,1l1,0l0,-1l1,0l0,-1l1,0l0,-1l1,0l0,-1l1,0l0,-1l1,0l0,-1l1,0l0,-2l-1,0z"/>
     <path id="svg_190" fill="#46a7c0" d="m2,4l0,1l1,0l0,1l1,0l0,1l1,0l0,1l1,0l0,1l1,0l0,-1l1,0l0,-1l1,0l0,-1l1,0l0,-1l1,0l0,-1l-9,0z"/>
     <g id="svg_191" fill="#0ff">
      <path id="svg_192" d="m9,2l-1,0l0,-1l-3,0l0,1l-1,0l0,1l-1,0l0,2l1,0l0,1l1,0l0,1l1,0l0,1l1,0l0,-1l1,0l0,-1l1,0l0,-1l1,0l0,-2l-1,0l0,-1zm2,0l1,0l0,1l-1,0l0,-1z"/>
      <path id="svg_193" d="m10,1l1,0l0,1l-1,0l0,-1zm-8,0l1,0l0,1l-1,0l0,-1z"/>
      <path id="svg_194" d="m1,2l1,0l0,1l-1,0l0,-1z"/>
     </g>
     <g id="svg_195" fill="#fff">
      <path id="svg_196" d="m11,3l1,0l0,1l-1,0l0,-1zm-10,0l1,0l0,1l-1,0l0,-1zm8,-2l1,0l0,1l-1,0l0,-1zm-1,2l0,-1l-1,0l0,-1l-1,0l0,1l-1,0l0,1l-2,0l0,1l7,0l0,-1l-2,0z"/>
      <path id="svg_197" d="m10,2l1,0l0,1l-1,0l0,-1zm-8,0l1,0l0,1l-1,0l0,-1z"/>
      <path id="svg_198" d="m3,1l1,0l0,1l-1,0l0,-1z"/>
     </g>
    </svg>
   </g>
   <g id="svg_14" class="gotchi-wearable wearable-hand wearable-hand-right">
    <svg id="svg_199" y="33" x="0">
     <g id="svg_200" transform="scale(-1, 1) translate(-64, 0)">
      <path id="svg_201" d="m12,2l0,-1l-1,0l0,-1l-9,0l0,1l-1,0l0,1l-1,0l0,2l1,0l0,1l1,0l0,1l1,0l0,1l1,0l0,1l1,0l0,1l1,0l0,1l1,0l0,-1l1,0l0,-1l1,0l0,-1l1,0l0,-1l1,0l0,-1l1,0l0,-1l1,0l0,-2l-1,0z"/>
      <path id="svg_202" fill="#46a7c0" d="m2,4l0,1l1,0l0,1l1,0l0,1l1,0l0,1l1,0l0,1l1,0l0,-1l1,0l0,-1l1,0l0,-1l1,0l0,-1l1,0l0,-1l-9,0z"/>
      <g id="svg_203" fill="#0ff">
       <path id="svg_204" d="m9,2l-1,0l0,-1l-3,0l0,1l-1,0l0,1l-1,0l0,2l1,0l0,1l1,0l0,1l1,0l0,1l1,0l0,-1l1,0l0,-1l1,0l0,-1l1,0l0,-2l-1,0l0,-1zm2,0l1,0l0,1l-1,0l0,-1z"/>
       <path id="svg_205" d="m10,1l1,0l0,1l-1,0l0,-1zm-8,0l1,0l0,1l-1,0l0,-1z"/>
       <path id="svg_206" d="m1,2l1,0l0,1l-1,0l0,-1z"/>
      </g>
      <g id="svg_207" fill="#fff">
       <path id="svg_208" d="m11,3l1,0l0,1l-1,0l0,-1zm-10,0l1,0l0,1l-1,0l0,-1zm8,-2l1,0l0,1l-1,0l0,-1zm-1,2l0,-1l-1,0l0,-1l-1,0l0,1l-1,0l0,1l-2,0l0,1l7,0l0,-1l-2,0z"/>
       <path id="svg_209" d="m10,2l1,0l0,1l-1,0l0,-1zm-8,0l1,0l0,1l-1,0l0,-1z"/>
       <path id="svg_210" d="m3,1l1,0l0,1l-1,0l0,-1z"/>
      </g>
     </g>
    </svg>
   </g>
   <g id="svg_15" class="gotchi-wearable wearable-pet">
    <svg id="svg_211" y="38" x="42">
     <path id="svg_212" d="m19,6l0,-1l-1,0l0,-1l-3,0l0,-2l1,0l0,-1l-1,0l0,-1l-2,0l0,1l-2,0l0,-1l-2,0l0,1l-2,0l0,-1l-2,0l0,1l-1,0l0,1l1,0l0,2l-3,0l0,1l-1,0l0,1l-1,0l0,2l1,0l0,1l1,0l0,1l-1,0l0,4l1,0l0,1l1,0l0,1l-1,0l0,1l-1,0l0,2l1,0l0,1l-1,0l0,2l4,0l0,1l3,0l0,-1l1,0l0,-1l2,0l0,1l1,0l0,1l3,0l0,-1l4,0l0,-2l-1,0l0,-1l1,0l0,-2l-1,0l0,-1l-1,0l0,-1l1,0l0,-1l1,0l0,-4l-1,0l0,-1l1,0l0,-1l1,0l0,-2l-1,0z"/>
     <path id="svg_213" fill="#fff" d="m18,7l-1,0l0,1l-3,0l0,-1l-2,0l0,1l1,0l0,1l5,0l0,-1l1,0l0,-1l-1,0zm-12,0l0,1l-3,0l0,-1l-2,0l0,1l1,0l0,1l5,0l0,-1l1,0l0,-1l-2,0z"/>
     <g id="svg_214" fill="#faaff3">
      <path id="svg_215" d="m17,5l-4,0l0,1l5,0l0,-1l-1,0zm-7,4l2,0l0,-1l-1,0l0,-1l-2,0l0,1l-1,0l0,1l2,0zm-6,-3l3,0l0,-1l-5,0l0,1l2,0zm5,12l0,2l2,0l0,-2l-2,0z"/>
      <path id="svg_216" d="m16,17l0,-2l-12,0l0,2l-2,0l0,2l2,0l0,1l-2,0l0,1l3,0l0,-3l1,0l0,3l-1,0l0,1l3,0l0,-4l1,0l0,-1l2,0l0,1l1,0l0,4l3,0l0,-1l-1,0l0,-3l1,0l0,3l3,0l0,-1l-2,0l0,-1l2,0l0,-2l-2,0z"/>
     </g>
     <path id="svg_217" fill="#ef1e26" d="m17,10l-15,0l0,4l16,0l0,-4l-1,0zm0,2l0,1l-14,0l0,-2l14,0l0,1z"/>
     <path id="svg_218" fill="#ffc03c" d="m13,1l0,1l-2,0l0,-1l-2,0l0,1l-2,0l0,-1l-2,0l0,1l1,0l0,2l2,0l0,2l4,0l0,-2l2,0l0,-2l1,0l0,-1l-2,0z"/>
     <path id="svg_219" fill="#ffe600" d="m5,1l0,1l2,0l0,-1l-2,0zm4,0l0,1l2,0l0,-1l-2,0zm5,0l-1,0l0,1l2,0l0,-1l-1,0z"/>
     <path id="svg_220" fill="#ff9600" d="m11,4l-3,0l0,2l4,0l0,-2l-1,0z"/>
     <path id="svg_221" fill="#ffc03c" d="m13,2l-7,0l0,2l8,0l0,-2l-1,0z"/>

    </svg>
   </g></svg>
 </g>
</svg>