<?xml version="1.0" encoding="UTF-8"?>
<svg xmlns="http://www.w3.org/2000/svg" xmlns:xlink="http://www.w3.org/1999/xlink" width="48pt" height="48pt" viewBox="0 0 48 48" version="1.1">
<g id="surface1">
<path style=" stroke:none;fill-rule:nonzero;fill:rgb(0%,80%,100%);fill-opacity:1;" d="M 14.632812 0 L 32.460938 0 L 32.460938 2.234375 L 14.632812 2.234375 Z M 14.632812 0 "/>
<path style=" stroke:none;fill-rule:nonzero;fill:rgb(0%,80%,100%);fill-opacity:1;" d="M 9.601562 2.234375 L 37.949219 2.234375 L 37.949219 5.058594 L 9.601562 5.058594 Z M 9.601562 2.234375 "/>
<path style=" stroke:none;fill-rule:nonzero;fill:rgb(0%,80%,100%);fill-opacity:1;" d="M 7.316406 4.820312 L 39.550781 4.820312 L 39.550781 7.058594 L 7.316406 7.058594 Z M 7.316406 4.820312 "/>
<path style=" stroke:none;fill-rule:nonzero;fill:rgb(0%,80%,100%);fill-opacity:1;" d="M 5.03125 7.058594 L 42.0625 7.058594 L 42.0625 9.761719 L 5.03125 9.761719 Z M 5.03125 7.058594 "/>
<path style=" stroke:none;fill-rule:nonzero;fill:rgb(12.156863%,82.745098%,100%);fill-opacity:1;" d="M 2.515625 9.644531 L 44.578125 9.644531 L 44.578125 14.703125 L 2.515625 14.703125 Z M 2.515625 9.644531 "/>
<path style=" stroke:none;fill-rule:nonzero;fill:rgb(25.490196%,85.098039%,100%);fill-opacity:1;" d="M 0 14.703125 L 46.75 14.703125 L 46.75 27.757812 L 0 27.757812 Z M 0 14.703125 "/>
<path style=" stroke:none;fill-rule:nonzero;fill:rgb(98.039216%,0%,92.941176%);fill-opacity:1;" d="M 0 27.757812 L 46.75 27.757812 L 46.75 33.167969 L 0 33.167969 Z M 0 27.757812 "/>
<path style=" stroke:none;fill-rule:nonzero;fill:rgb(85.490196%,0%,81.176471%);fill-opacity:1;" d="M 2.515625 32.695312 L 44.578125 32.695312 L 44.578125 38.105469 L 2.515625 38.105469 Z M 2.515625 32.695312 "/>
<path style=" stroke:none;fill-rule:nonzero;fill:rgb(81.960784%,3.529412%,77.647059%);fill-opacity:1;" d="M 5.03125 37.988281 L 42.0625 37.988281 L 42.0625 40.695312 L 5.03125 40.695312 Z M 5.03125 37.988281 "/>
<path style=" stroke:none;fill-rule:nonzero;fill:rgb(81.960784%,3.529412%,77.647059%);fill-opacity:1;" d="M 7.429688 40.695312 L 39.550781 40.695312 L 39.550781 42.8125 L 7.429688 42.8125 Z M 7.429688 40.695312 "/>
<path style=" stroke:none;fill-rule:nonzero;fill:rgb(81.960784%,3.529412%,77.647059%);fill-opacity:1;" d="M 9.945312 42.8125 L 37.378906 42.8125 L 37.378906 45.28125 L 9.945312 45.28125 Z M 9.945312 42.8125 "/>
<path style=" stroke:none;fill-rule:nonzero;fill:rgb(81.960784%,3.529412%,77.647059%);fill-opacity:1;" d="M 14.632812 45.28125 L 32.578125 45.28125 L 32.578125 47.75 L 14.632812 47.75 Z M 14.632812 45.28125 "/>
<path style=" stroke:none;fill-rule:nonzero;fill:rgb(100%,100%,100%);fill-opacity:1;" d="M 15.6875 19.800781 L 18.769531 19.800781 L 18.769531 32.582031 L 15.6875 32.582031 Z M 18.769531 35.753906 L 18.769531 32.582031 L 28.109375 32.582031 L 28.109375 35.753906 Z M 28.109375 19.800781 L 31.191406 19.800781 L 31.191406 32.582031 L 28.109375 32.582031 Z M 28.109375 19.800781 "/>
<path style=" stroke:none;fill-rule:nonzero;fill:rgb(100%,100%,100%);fill-opacity:1;" d="M 15.6875 19.800781 L 15.6875 19.679688 L 15.570312 19.679688 L 15.570312 19.800781 Z M 18.769531 19.800781 L 18.882812 19.800781 L 18.882812 19.679688 L 18.769531 19.679688 Z M 18.769531 32.582031 L 18.769531 32.699219 L 18.882812 32.699219 L 18.882812 32.582031 Z M 15.6875 32.582031 L 15.570312 32.582031 L 15.570312 32.699219 L 15.6875 32.699219 Z M 18.769531 35.753906 L 18.65625 35.753906 L 18.65625 35.875 L 18.769531 35.875 Z M 18.769531 32.582031 L 18.769531 32.464844 L 18.65625 32.464844 L 18.65625 32.582031 Z M 28.109375 32.582031 L 28.222656 32.582031 L 28.222656 32.464844 L 28.109375 32.464844 Z M 28.109375 35.753906 L 28.109375 35.875 L 28.222656 35.875 L 28.222656 35.753906 Z M 28.109375 19.800781 L 28.109375 19.679688 L 27.996094 19.679688 L 27.996094 19.800781 Z M 31.191406 19.800781 L 31.308594 19.800781 L 31.308594 19.679688 L 31.191406 19.679688 Z M 31.191406 32.582031 L 31.191406 32.699219 L 31.308594 32.699219 L 31.308594 32.582031 Z M 28.109375 32.582031 L 27.996094 32.582031 L 27.996094 32.699219 L 28.109375 32.699219 Z M 15.6875 19.917969 L 18.769531 19.917969 L 18.769531 19.679688 L 15.6875 19.679688 Z M 18.65625 19.800781 L 18.65625 32.582031 L 18.882812 32.582031 L 18.882812 19.800781 Z M 18.769531 32.464844 L 15.6875 32.464844 L 15.6875 32.699219 L 18.769531 32.699219 Z M 15.800781 32.582031 L 15.800781 19.800781 L 15.570312 19.800781 L 15.570312 32.582031 Z M 18.882812 35.753906 L 18.882812 32.582031 L 18.65625 32.582031 L 18.65625 35.753906 Z M 18.769531 32.699219 L 28.109375 32.699219 L 28.109375 32.464844 L 18.769531 32.464844 Z M 27.996094 32.582031 L 27.996094 35.753906 L 28.222656 35.753906 L 28.222656 32.582031 Z M 28.109375 35.636719 L 18.769531 35.636719 L 18.769531 35.875 L 28.109375 35.875 Z M 28.109375 19.917969 L 31.191406 19.917969 L 31.191406 19.679688 L 28.109375 19.679688 Z M 31.078125 19.800781 L 31.078125 32.582031 L 31.308594 32.582031 L 31.308594 19.800781 Z M 31.191406 32.464844 L 28.109375 32.464844 L 28.109375 32.699219 L 31.191406 32.699219 Z M 28.222656 32.582031 L 28.222656 19.800781 L 27.996094 19.800781 L 27.996094 32.582031 Z M 28.222656 32.582031 "/>
<path style=" stroke:none;fill-rule:nonzero;fill:rgb(100%,100%,100%);fill-opacity:1;" d="M 17.992188 18.347656 L 16.097656 18.347656 L 16.097656 17.863281 L 17.523438 17.863281 L 17.523438 16.394531 L 17.992188 16.394531 Z M 15.625 15.421875 L 16.097656 15.421875 L 16.097656 17.863281 L 15.625 17.863281 Z M 17.992188 14.9375 L 17.992188 15.421875 L 16.097656 15.421875 L 16.097656 14.9375 Z M 18.933594 18.347656 L 18.933594 17.863281 L 20.359375 17.863281 L 20.359375 18.347656 Z M 18.460938 15.421875 L 18.933594 15.421875 L 18.933594 17.863281 L 18.460938 17.863281 Z M 20.359375 14.9375 L 20.359375 15.421875 L 18.933594 15.421875 L 18.933594 14.9375 Z M 20.359375 15.421875 L 20.832031 15.421875 L 20.832031 17.863281 L 20.359375 17.863281 Z M 23.664062 14.9375 L 23.664062 15.421875 L 22.71875 15.421875 L 22.71875 18.347656 L 22.246094 18.347656 L 22.246094 15.421875 L 21.300781 15.421875 L 21.300781 14.9375 Z M 26.5 18.347656 L 24.605469 18.347656 L 24.605469 17.863281 L 26.5 17.863281 Z M 24.132812 15.421875 L 24.605469 15.421875 L 24.605469 17.863281 L 24.132812 17.863281 Z M 26.5 14.9375 L 26.5 15.421875 L 24.605469 15.421875 L 24.605469 14.9375 Z M 28.863281 14.9375 L 29.335938 14.9375 L 29.335938 18.347656 L 28.863281 18.347656 L 28.863281 16.886719 L 27.4375 16.886719 L 27.4375 18.347656 L 26.96875 18.347656 L 26.96875 14.9375 L 27.4375 14.9375 L 27.4375 16.394531 L 28.863281 16.394531 Z M 31.222656 15.421875 L 30.753906 15.421875 L 30.753906 17.863281 L 31.222656 17.863281 L 31.222656 18.347656 L 29.804688 18.347656 L 29.804688 17.863281 L 30.273438 17.863281 L 30.273438 15.421875 L 29.804688 15.421875 L 29.804688 14.9375 L 31.222656 14.9375 Z M 31.222656 15.421875 "/>
<path style=" stroke:none;fill-rule:nonzero;fill:rgb(100%,100%,100%);fill-opacity:1;" d="M 17.992188 18.347656 L 17.992188 18.464844 L 18.105469 18.464844 L 18.105469 18.347656 Z M 16.097656 18.347656 L 15.980469 18.347656 L 15.980469 18.464844 L 16.097656 18.464844 Z M 16.097656 17.863281 L 16.097656 17.746094 L 15.980469 17.746094 L 15.980469 17.863281 Z M 17.523438 17.863281 L 17.523438 17.980469 L 17.636719 17.980469 L 17.636719 17.863281 Z M 17.523438 16.394531 L 17.523438 16.28125 L 17.40625 16.28125 L 17.40625 16.394531 Z M 17.992188 16.394531 L 18.105469 16.394531 L 18.105469 16.28125 L 17.992188 16.28125 Z M 15.625 15.421875 L 15.625 15.304688 L 15.511719 15.304688 L 15.511719 15.421875 Z M 16.097656 15.421875 L 16.210938 15.421875 L 16.210938 15.304688 L 16.097656 15.304688 Z M 16.097656 17.863281 L 16.097656 17.980469 L 16.210938 17.980469 L 16.210938 17.863281 Z M 15.625 17.863281 L 15.511719 17.863281 L 15.511719 17.980469 L 15.625 17.980469 Z M 17.992188 14.9375 L 18.105469 14.9375 L 18.105469 14.820312 L 17.992188 14.820312 Z M 17.992188 15.421875 L 17.992188 15.539062 L 18.105469 15.539062 L 18.105469 15.421875 Z M 16.097656 15.421875 L 15.980469 15.421875 L 15.980469 15.539062 L 16.097656 15.539062 Z M 16.097656 14.9375 L 16.097656 14.820312 L 15.980469 14.820312 L 15.980469 14.9375 Z M 17.992188 18.230469 L 16.097656 18.230469 L 16.097656 18.464844 L 17.992188 18.464844 Z M 16.210938 18.347656 L 16.210938 17.863281 L 15.980469 17.863281 L 15.980469 18.347656 Z M 16.097656 17.980469 L 17.523438 17.980469 L 17.523438 17.746094 L 16.097656 17.746094 Z M 17.636719 17.863281 L 17.636719 16.394531 L 17.40625 16.394531 L 17.40625 17.863281 Z M 17.523438 16.515625 L 17.992188 16.515625 L 17.992188 16.28125 L 17.523438 16.28125 Z M 17.878906 16.394531 L 17.878906 18.347656 L 18.105469 18.347656 L 18.105469 16.394531 Z M 15.625 15.539062 L 16.097656 15.539062 L 16.097656 15.304688 L 15.625 15.304688 Z M 15.980469 15.421875 L 15.980469 17.863281 L 16.210938 17.863281 L 16.210938 15.421875 Z M 16.097656 17.746094 L 15.625 17.746094 L 15.625 17.980469 L 16.097656 17.980469 Z M 15.742188 17.863281 L 15.742188 15.421875 L 15.511719 15.421875 L 15.511719 17.863281 Z M 17.878906 14.9375 L 17.878906 15.421875 L 18.105469 15.421875 L 18.105469 14.9375 Z M 17.992188 15.304688 L 16.097656 15.304688 L 16.097656 15.539062 L 17.992188 15.539062 Z M 16.210938 15.421875 L 16.210938 14.9375 L 15.980469 14.9375 L 15.980469 15.421875 Z M 16.097656 15.054688 L 17.992188 15.054688 L 17.992188 14.820312 L 16.097656 14.820312 Z M 18.933594 18.347656 L 18.816406 18.347656 L 18.816406 18.464844 L 18.933594 18.464844 Z M 18.933594 17.863281 L 18.933594 17.746094 L 18.816406 17.746094 L 18.816406 17.863281 Z M 20.359375 17.863281 L 20.472656 17.863281 L 20.472656 17.746094 L 20.359375 17.746094 Z M 20.359375 18.347656 L 20.359375 18.464844 L 20.472656 18.464844 L 20.472656 18.347656 Z M 18.460938 15.421875 L 18.460938 15.304688 L 18.347656 15.304688 L 18.347656 15.421875 Z M 18.933594 15.421875 L 19.046875 15.421875 L 19.046875 15.304688 L 18.933594 15.304688 Z M 18.933594 17.863281 L 18.933594 17.980469 L 19.046875 17.980469 L 19.046875 17.863281 Z M 18.460938 17.863281 L 18.347656 17.863281 L 18.347656 17.980469 L 18.460938 17.980469 Z M 20.359375 14.9375 L 20.472656 14.9375 L 20.472656 14.820312 L 20.359375 14.820312 Z M 20.359375 15.421875 L 20.359375 15.539062 L 20.472656 15.539062 L 20.472656 15.421875 Z M 18.933594 15.421875 L 18.816406 15.421875 L 18.816406 15.539062 L 18.933594 15.539062 Z M 18.933594 14.9375 L 18.933594 14.820312 L 18.816406 14.820312 L 18.816406 14.9375 Z M 20.359375 15.421875 L 20.359375 15.304688 L 20.242188 15.304688 L 20.242188 15.421875 Z M 20.832031 15.421875 L 20.945312 15.421875 L 20.945312 15.304688 L 20.832031 15.304688 Z M 20.832031 17.863281 L 20.832031 17.980469 L 20.945312 17.980469 L 20.945312 17.863281 Z M 20.359375 17.863281 L 20.242188 17.863281 L 20.242188 17.980469 L 20.359375 17.980469 Z M 19.046875 18.347656 L 19.046875 17.863281 L 18.816406 17.863281 L 18.816406 18.347656 Z M 18.933594 17.980469 L 20.359375 17.980469 L 20.359375 17.746094 L 18.933594 17.746094 Z M 20.242188 17.863281 L 20.242188 18.347656 L 20.472656 18.347656 L 20.472656 17.863281 Z M 20.359375 18.230469 L 18.933594 18.230469 L 18.933594 18.464844 L 20.359375 18.464844 Z M 18.460938 15.539062 L 18.933594 15.539062 L 18.933594 15.304688 L 18.460938 15.304688 Z M 18.816406 15.421875 L 18.816406 17.863281 L 19.046875 17.863281 L 19.046875 15.421875 Z M 18.933594 17.746094 L 18.460938 17.746094 L 18.460938 17.980469 L 18.933594 17.980469 Z M 18.574219 17.863281 L 18.574219 15.421875 L 18.347656 15.421875 L 18.347656 17.863281 Z M 20.242188 14.9375 L 20.242188 15.421875 L 20.472656 15.421875 L 20.472656 14.9375 Z M 20.359375 15.304688 L 18.933594 15.304688 L 18.933594 15.539062 L 20.359375 15.539062 Z M 19.046875 15.421875 L 19.046875 14.9375 L 18.816406 14.9375 L 18.816406 15.421875 Z M 18.933594 15.054688 L 20.359375 15.054688 L 20.359375 14.820312 L 18.933594 14.820312 Z M 20.359375 15.539062 L 20.832031 15.539062 L 20.832031 15.304688 L 20.359375 15.304688 Z M 20.714844 15.421875 L 20.714844 17.863281 L 20.945312 17.863281 L 20.945312 15.421875 Z M 20.832031 17.746094 L 20.359375 17.746094 L 20.359375 17.980469 L 20.832031 17.980469 Z M 20.472656 17.863281 L 20.472656 15.421875 L 20.242188 15.421875 L 20.242188 17.863281 Z M 23.664062 14.9375 L 23.777344 14.9375 L 23.777344 14.820312 L 23.664062 14.820312 Z M 23.664062 15.421875 L 23.664062 15.539062 L 23.777344 15.539062 L 23.777344 15.421875 Z M 22.71875 15.421875 L 22.71875 15.304688 L 22.601562 15.304688 L 22.601562 15.421875 Z M 22.71875 18.347656 L 22.71875 18.464844 L 22.828125 18.464844 L 22.828125 18.347656 Z M 22.246094 18.347656 L 22.132812 18.347656 L 22.132812 18.464844 L 22.246094 18.464844 Z M 22.246094 15.421875 L 22.359375 15.421875 L 22.359375 15.304688 L 22.246094 15.304688 Z M 21.300781 15.421875 L 21.183594 15.421875 L 21.183594 15.539062 L 21.300781 15.539062 Z M 21.300781 14.9375 L 21.300781 14.820312 L 21.183594 14.820312 L 21.183594 14.9375 Z M 23.550781 14.9375 L 23.550781 15.421875 L 23.777344 15.421875 L 23.777344 14.9375 Z M 23.664062 15.304688 L 22.71875 15.304688 L 22.71875 15.539062 L 23.664062 15.539062 Z M 22.601562 15.421875 L 22.601562 18.347656 L 22.828125 18.347656 L 22.828125 15.421875 Z M 22.71875 18.230469 L 22.246094 18.230469 L 22.246094 18.464844 L 22.71875 18.464844 Z M 22.359375 18.347656 L 22.359375 15.421875 L 22.132812 15.421875 L 22.132812 18.347656 Z M 22.246094 15.304688 L 21.300781 15.304688 L 21.300781 15.539062 L 22.246094 15.539062 Z M 21.414062 15.421875 L 21.414062 14.9375 L 21.183594 14.9375 L 21.183594 15.421875 Z M 21.300781 15.054688 L 23.664062 15.054688 L 23.664062 14.820312 L 21.300781 14.820312 Z M 26.5 18.347656 L 26.5 18.464844 L 26.613281 18.464844 L 26.613281 18.347656 Z M 24.605469 18.347656 L 24.488281 18.347656 L 24.488281 18.464844 L 24.605469 18.464844 Z M 24.605469 17.863281 L 24.605469 17.746094 L 24.488281 17.746094 L 24.488281 17.863281 Z M 26.5 17.863281 L 26.613281 17.863281 L 26.613281 17.746094 L 26.5 17.746094 Z M 24.132812 15.421875 L 24.132812 15.304688 L 24.019531 15.304688 L 24.019531 15.421875 Z M 24.605469 15.421875 L 24.71875 15.421875 L 24.71875 15.304688 L 24.605469 15.304688 Z M 24.605469 17.863281 L 24.605469 17.980469 L 24.71875 17.980469 L 24.71875 17.863281 Z M 24.132812 17.863281 L 24.019531 17.863281 L 24.019531 17.980469 L 24.132812 17.980469 Z M 26.5 14.9375 L 26.613281 14.9375 L 26.613281 14.820312 L 26.5 14.820312 Z M 26.5 15.421875 L 26.5 15.539062 L 26.613281 15.539062 L 26.613281 15.421875 Z M 24.605469 15.421875 L 24.488281 15.421875 L 24.488281 15.539062 L 24.605469 15.539062 Z M 24.605469 14.9375 L 24.605469 14.820312 L 24.488281 14.820312 L 24.488281 14.9375 Z M 26.5 18.230469 L 24.605469 18.230469 L 24.605469 18.464844 L 26.5 18.464844 Z M 24.71875 18.347656 L 24.71875 17.863281 L 24.488281 17.863281 L 24.488281 18.347656 Z M 24.605469 17.980469 L 26.5 17.980469 L 26.5 17.746094 L 24.605469 17.746094 Z M 26.386719 17.863281 L 26.386719 18.347656 L 26.613281 18.347656 L 26.613281 17.863281 Z M 24.132812 15.539062 L 24.605469 15.539062 L 24.605469 15.304688 L 24.132812 15.304688 Z M 24.488281 15.421875 L 24.488281 17.863281 L 24.71875 17.863281 L 24.71875 15.421875 Z M 24.605469 17.746094 L 24.132812 17.746094 L 24.132812 17.980469 L 24.605469 17.980469 Z M 24.246094 17.863281 L 24.246094 15.421875 L 24.019531 15.421875 L 24.019531 17.863281 Z M 26.386719 14.9375 L 26.386719 15.421875 L 26.613281 15.421875 L 26.613281 14.9375 Z M 26.5 15.304688 L 24.605469 15.304688 L 24.605469 15.539062 L 26.5 15.539062 Z M 24.71875 15.421875 L 24.71875 14.9375 L 24.488281 14.9375 L 24.488281 15.421875 Z M 24.605469 15.054688 L 26.5 15.054688 L 26.5 14.820312 L 24.605469 14.820312 Z M 28.863281 14.9375 L 28.863281 14.820312 L 28.75 14.820312 L 28.75 14.9375 Z M 29.335938 14.9375 L 29.449219 14.9375 L 29.449219 14.820312 L 29.335938 14.820312 Z M 29.335938 18.347656 L 29.335938 18.464844 L 29.449219 18.464844 L 29.449219 18.347656 Z M 28.863281 18.347656 L 28.75 18.347656 L 28.75 18.464844 L 28.863281 18.464844 Z M 28.863281 16.886719 L 28.980469 16.886719 L 28.980469 16.769531 L 28.863281 16.769531 Z M 27.4375 16.886719 L 27.4375 16.769531 L 27.328125 16.769531 L 27.328125 16.886719 Z M 27.4375 18.347656 L 27.4375 18.464844 L 27.554688 18.464844 L 27.554688 18.347656 Z M 26.96875 18.347656 L 26.855469 18.347656 L 26.855469 18.464844 L 26.96875 18.464844 Z M 26.96875 14.9375 L 26.96875 14.820312 L 26.855469 14.820312 L 26.855469 14.9375 Z M 27.4375 14.9375 L 27.554688 14.9375 L 27.554688 14.820312 L 27.4375 14.820312 Z M 27.4375 16.394531 L 27.328125 16.394531 L 27.328125 16.515625 L 27.4375 16.515625 Z M 28.863281 16.394531 L 28.863281 16.515625 L 28.980469 16.515625 L 28.980469 16.394531 Z M 28.863281 15.054688 L 29.335938 15.054688 L 29.335938 14.820312 L 28.863281 14.820312 Z M 29.222656 14.9375 L 29.222656 18.347656 L 29.449219 18.347656 L 29.449219 14.9375 Z M 29.335938 18.230469 L 28.863281 18.230469 L 28.863281 18.464844 L 29.335938 18.464844 Z M 28.980469 18.347656 L 28.980469 16.886719 L 28.75 16.886719 L 28.75 18.347656 Z M 28.863281 16.769531 L 27.4375 16.769531 L 27.4375 17.003906 L 28.863281 17.003906 Z M 27.328125 16.886719 L 27.328125 18.347656 L 27.554688 18.347656 L 27.554688 16.886719 Z M 27.4375 18.230469 L 26.96875 18.230469 L 26.96875 18.464844 L 27.4375 18.464844 Z M 27.082031 18.347656 L 27.082031 14.9375 L 26.855469 14.9375 L 26.855469 18.347656 Z M 26.96875 15.054688 L 27.4375 15.054688 L 27.4375 14.820312 L 26.96875 14.820312 Z M 27.328125 14.9375 L 27.328125 16.394531 L 27.554688 16.394531 L 27.554688 14.9375 Z M 27.4375 16.515625 L 28.863281 16.515625 L 28.863281 16.28125 L 27.4375 16.28125 Z M 28.980469 16.394531 L 28.980469 14.9375 L 28.75 14.9375 L 28.75 16.394531 Z M 31.222656 15.421875 L 31.222656 15.539062 L 31.339844 15.539062 L 31.339844 15.421875 Z M 30.753906 15.421875 L 30.753906 15.304688 L 30.640625 15.304688 L 30.640625 15.421875 Z M 30.753906 17.863281 L 30.640625 17.863281 L 30.640625 17.980469 L 30.753906 17.980469 Z M 31.222656 17.863281 L 31.339844 17.863281 L 31.339844 17.746094 L 31.222656 17.746094 Z M 31.222656 18.347656 L 31.222656 18.464844 L 31.339844 18.464844 L 31.339844 18.347656 Z M 29.804688 18.347656 L 29.691406 18.347656 L 29.691406 18.464844 L 29.804688 18.464844 Z M 29.804688 17.863281 L 29.804688 17.746094 L 29.691406 17.746094 L 29.691406 17.863281 Z M 30.273438 17.863281 L 30.273438 17.980469 L 30.390625 17.980469 L 30.390625 17.863281 Z M 30.273438 15.421875 L 30.390625 15.421875 L 30.390625 15.304688 L 30.273438 15.304688 Z M 29.804688 15.421875 L 29.691406 15.421875 L 29.691406 15.539062 L 29.804688 15.539062 Z M 29.804688 14.9375 L 29.804688 14.820312 L 29.691406 14.820312 L 29.691406 14.9375 Z M 31.222656 14.9375 L 31.339844 14.9375 L 31.339844 14.820312 L 31.222656 14.820312 Z M 31.222656 15.304688 L 30.753906 15.304688 L 30.753906 15.539062 L 31.222656 15.539062 Z M 30.640625 15.421875 L 30.640625 17.863281 L 30.867188 17.863281 L 30.867188 15.421875 Z M 30.753906 17.980469 L 31.222656 17.980469 L 31.222656 17.746094 L 30.753906 17.746094 Z M 31.109375 17.863281 L 31.109375 18.347656 L 31.339844 18.347656 L 31.339844 17.863281 Z M 31.222656 18.230469 L 29.804688 18.230469 L 29.804688 18.464844 L 31.222656 18.464844 Z M 29.917969 18.347656 L 29.917969 17.863281 L 29.691406 17.863281 L 29.691406 18.347656 Z M 29.804688 17.980469 L 30.273438 17.980469 L 30.273438 17.746094 L 29.804688 17.746094 Z M 30.390625 17.863281 L 30.390625 15.421875 L 30.160156 15.421875 L 30.160156 17.863281 Z M 30.273438 15.304688 L 29.804688 15.304688 L 29.804688 15.539062 L 30.273438 15.539062 Z M 29.917969 15.421875 L 29.917969 14.9375 L 29.691406 14.9375 L 29.691406 15.421875 Z M 29.804688 15.054688 L 31.222656 15.054688 L 31.222656 14.820312 L 29.804688 14.820312 Z M 31.109375 14.9375 L 31.109375 15.421875 L 31.339844 15.421875 L 31.339844 14.9375 Z M 31.109375 14.9375 "/>
</g>
</svg>
