<svg xmlns="http://www.w3.org/2000/svg" width="40" height="23" xmlns:v="https://vecta.io/nano"><path d="M34 0v1h-1v1h-1v1h-1v1h-4v1H13V4H9V3H8V2H7V1H6V0H3v23h4v-2h5v2h5v-2h6v2h5v-2h5v2h4V0h-3z" fill="#00396d"/><g fill="#0069aa"><path d="M7 1H6v1h1V1zm27 0h-1v1h1V1z"/><path d="M8 2H7v1h1V2zm25 0h-1v1h1V2z"/><path d="M9 3H8v1h1V3zm23 0h-1v1h1V3z"/><path d="M10 4H9v1h1V4zm21 0h-1v1h1V4z"/><path d="M29 6h-1v1h-1v2h2V7h1V5h-1v1zM12 6h-1V5h-1v2h1v2h2V7h-1V6zm20 6v-1h-2v1h-1v1h-1v-1h-1v-2h-1V9h-2V8h-8v1h-2v1h-1v2h-1v1h-1v-1h-1v-1H8v1H5v9h2v-2h5v2h5v-2h2v-2h-2v-1h-1v-1h-1v-4h10v4h-1v1h-1v1h-3v2h3v2h5v-2h5v2h2v-9h-3z"/><path d="M24 15v-3h-8v3h1v1h6v-1h1z"/></g><g fill="#0098dc"><path d="M3 0v1h3V0H3zm31 0v1h3V0h-3z"/><path d="M7 1H6v1h1V1zm27 0h-1v1h1V1z"/><path d="M8 2H7v1h1V2zm25 0h-1v1h1V2z"/><path d="M9 3H8v1h1V3zm23 0h-1v1h1V3z"/><path d="M10 4H9v1h1V4zm21 0h-1v1h1V4z"/><path d="M11 5h-1v1h1V5zm19 0h-1v1h1V5z"/><path d="M12 6h-1v1h1V6zm17 0h-1v1h1V6z"/><path d="M12 9h1V7h-1v2zm15 0h1V7h-1v2z"/></g><path d="M36 1v1h-2v1h-1v1h-1v1h-1v2h-1v3h2v1h3v-1h2V1h-1zm-6 3h-3v1H13V4h-3v1h1v1h1v1h1v2h1V8h2V7h8v1h2v1h1V7h1V6h1V5h1V4zM9 6V5H8V4H7V3H6V2H4V1H3v9h2v1h3v-1h2V7H9V6z" fill="#134c4c"/><path d="M10 9v3h1v1h1v-1h1V9h-3zm17 0v3h1v1h1v-1h1V9h-3z" fill="#0098dc"/><path d="M27 9v2h3V9h-3z" fill="#bf6f4a"/><path d="M27 9v1h2V9h-2z" fill="#e69c69"/><path d="M10 9v2h3V9h-3z" fill="#bf6f4a"/><path d="M10 9v1h2V9h-2z" fill="#e69c69"/><path d="M35 2h-1v1h-1v1h-1v1h-1v2h-1v3h2v1h3v-1h1V2h-1zm-8 3v1H13V5h-2v1h1v1h1v2h1V8h2V7h8v1h2v1h1V7h1V6h1V5h-2zM9 6V5H8V4H7V3H6V2H4v8h1v1h2v-1h3V7H9V6z" fill="#1e6f50"/><g fill="#33984b"><path d="M5 2H4v1h1V2zm31 0h-1v1h1V2z"/><path d="M6 3H5v1h1V3zm29 0h-1v1h1V3z"/><path d="M5 4H4v1h1V4zm2 0H6v1h1V4zm27 0h-1v1h1V4zm2 0h-1v1h1V4z"/><path d="M6 5H5v1h1V5zm2 0H7v1h1V5zm4 0h-1v1h1V5zm16 0h-1v1h1V5zm5 0h-1v1h1V5zm2 0h-1v1h1V5z"/><path d="M5 6H4v1h1V6zm2 0H6v1h1V6zm2 0H8v1h1V6zm4 0h-1v1h1V6zm2 0h-1v1h1V6zm2 0h-1v1h1V6zm2 0h-1v1h1V6zm2 0h-1v1h1V6zm2 0h-1v1h1V6zm2 0h-1v1h1V6zm2 0h-1v1h1V6zm5 0h-1v1h1V6zm2 0h-1v1h1V6zm2 0h-1v1h1V6z"/><path d="M6 7H5v1h1V7zm2 0H7v1h1V7zm2 0H9v1h1V7zm4 0h-1v1h1V7zm2 0h-1v1h1V7zm10 0h-1v1h1V7zm5 0h-1v1h1V7zm2 0h-1v1h1V7zm2 0h-1v1h1V7z"/><path d="M5 8H4v1h1V8zm2 0H6v1h1V8zm2 0H8v1h1V8zm18 0h-1v1h1V8zm5 0h-1v1h1V8zm2 0h-1v1h1V8zm2 0h-1v1h1V8z"/><path d="M6 9H5v1h1V9zm2 0H7v1h1V9zm2 0H9v1h1V9zm21 0h-1v1h1V9zm2 0h-1v1h1V9zm2 0h-1v1h1V9z"/><path d="M7 10H6v1h1v-1zm27 0h-1v1h1v-1z"/></g><path d="M2 2H1v1H0v9h2v-1h1V1H2v1zm37 1V2h-1V1h-1v10h1v1h2V3h-1z" fill="#134c4c"/><path d="M2 3H1v8h1v-1h1V2H2v1zm36 0V2h-1v8h1v1h1V3h-1z" fill="#1e6f50"/><g fill="#33984b"><path d="M3 2H2v1h1V2zm35 0h-1v1h1V2z"/><path d="M2 3H1v1h1V3zm37 0h-1v1h1V3z"/><path d="M3 4H2v1h1V4zm35 0h-1v1h1V4z"/><path d="M2 5H1v1h1V5zm37 0h-1v1h1V5z"/><path d="M3 6H2v1h1V6zm35 0h-1v1h1V6z"/><path d="M2 7H1v1h1V7zm37 0h-1v1h1V7z"/><path d="M3 8H2v1h1V8zm35 0h-1v1h1V8z"/><path d="M2 9H1v1h1V9zm37 0h-1v1h1V9z"/></g></svg>