<svg xmlns="http://www.w3.org/2000/svg" viewBox="0 0 64 64" xmlns:v="https://vecta.io/nano"><path d="M0 0h64v64H0z" fill="none"/><g fill="#66553b"><path d="M12.5 26v-1.5h-3V26H11zm18 3h3v-3h-3v-3h-3v1.5H29V26h-3v-1.5h-1.5V23H23v-3h-3v1.5h1.5v3H20v3h4.5V29h3v-1.5H29V29z"/><path d="M21.5 32H23v-1.5h-3v3h1.5zM11 30.5V32h1.5v-3H11v-1.5H9.5V26H8v3h1.5v1.5zM48.5 26v1.5h3V26H53v-1.5h-1.5v-3H50v3h-1.5zM47 24.5h-1.5V23H44v3h-3v-1.5h1.5v-3H44v-3h-3v3h-3V23h-3v1.5h4.5V29H41v-1.5h4.5V26H47zm3 6h-3V32h6v-1.5h-1.5z"/><path d="M54.5 26v3H53v1.5h3V26zM47 27.5h1.5V29H47zM41 32h1.5v1.5H44V29h-3v1.5zm-3-1.5V29h-1.5v3H38zM15.5 23v-1.5h-3V23H14zM47 20h1.5v1.5H47zm-9-1.5h-1.5v3H38V20zM41 35h-3v1.5h-3V35h-1.5v1.5h-3v3H35V38h1.5v1.5h3V38H44v-3h-1.5zm12 0h-1.5v1.5h3V35zm-12 6v1.5h1.5v3H44V41h-1.5zm10.5-1.5H53V41h-1.5z"/><path d="M53 38h1.5v1.5H53zm-37.5-3H11v1.5h1.5V38h3v-1.5zM8 36.5h1.5V38H8zm6 4.5h-1.5v1.5H17V41h-1.5z"/><path d="M15.5 38H17v1.5h-1.5zm7.5 3v-1.5h-3v6h1.5v-3H23z"/><path d="M24.5 38v-3H23v1.5h-3V35h-3v1.5h1.5V38H23v1.5h1.5zM23 44v1.5h3V44h-1.5zm3-3v1.5h1.5v-3H26zm28.5-4.5H56V38h-1.5z"/></g><g fill="#0e0c15"><path d="M11 23h1.5v-1.5h-3v3H11z"/><path d="M56 24.5h-1.5V26H56v7.5H8V26h1.5v-1.5h-3V38H8v-3h48v3h1.5V24.5z"/><path d="M53 23v1.5h1.5v-3h-3V23zm-36-4.5h30V20h1.5v-3h-33v3H17z"/><path d="M15.5 21.5V20h-3v1.5H14zm34.5 0h1.5V20h-3v1.5zm-7.5 24h-24V47h27v-1.5H44z"/><path d="M47 44h-1.5v1.5H50V44h-1.5zm4.5-3H53v1.5h-1.5z"/><path d="M53 39.5h1.5V41H53zm-3 3h1.5V44H50zM11 41h1.5v1.5H11zm-3-3h1.5v1.5H8zm9 6h-3v1.5h4.5V44z"/><path d="M12.5 42.5H14V44h-1.5zm-3-3H11V41H9.5zm45-1.5H56v1.5h-1.5z"/></g><path d="M29 26v-1.5h-3V26h1.5zm-7.5 1.5H20V26h-1.5v-1.5H17V23h-1.5v1.5h-3V26h3v1.5H14V29h4.5v4.5H20v-3h3V32h1.5v-4.5H23zm-10.5 3H9.5v3h3V32H11zM44 26v-3h4.5v-1.5H47v-3h-3v3h-1.5v3H41V26h1.5zm10.5 6H53v1.5h3V32zM44 29v3h3v-4.5h1.5v-3H47V26h-1.5v1.5H41V29h1.5zm-7.5 3v-3H29v1.5h-1.5v3H32V32h3zm18-4.5V26h-3v1.5H53zm-24-6h3v3H35v-3h1.5v-3H29V20h-1.5v1.5H29zm-9-3h-3v3H20V20h3v1.5h1.5v-3H23zm16.5 18V35h-3v1.5h1.5zM36.5 44v-3H35v-1.5h-7.5v3H32v3h7.5V44H38zM20 35v1.5h3V35h-1.5zm0 3h-1.5v-1.5H17V35h-1.5v3H17v4.5h3v-3h3V38h-1.5zm28.5-3h-3v1.5H44V38h-4.5v4.5H41V41h3v4.5h1.5v-6H50V38h-1.5v-1.5h3V35H50zm-39 1.5V38h3v-1.5H11zm45-1.5H56v1.5h-1.5z" fill="#cab983"/><g fill="#51774e"><path d="M21.5 23v-1.5h-3v-3H17V20h-1.5v3H17v1.5h1.5V26H20v-1.5h1.5zm0 10.5h6v-3H29v-3h-1.5V29h-3v3h-3zM11 29h1.5v4.5h6V29H14v-1.5h1.5V26h-6v1.5H11zm37.5-4.5H50v-3h-1.5V23h-3v1.5H47zM38 23v-1.5h-3V23h1.5zm16.5 6v-1.5h-6V29H47v1.5h6V29z"/><path d="M54.5 30.5H53V32h3v-1.5zm-1.5-6h1.5V26H53z"/><path d="M41 30.5V29h-1.5v-4.5h-6v-3h-6V20H29v-1.5h-4.5v3H23V23h1.5v1.5h3V23h3v3h3v3H38v3h-6v1.5h10.5V32H41zm9 1.5h-6v1.5h9V32h-1.5zm-37.5-9H11v1.5h4.5V23H14zm39 0H53v1.5h-1.5zm-42 9v-3H8v4.5h1.5zM41 21.5v-3h-3v3h1.5zM44 35h1.5v1.5H44zm-13.5 0h-6v4.5H23v3h-1.5v3H23V44h3v1.5h6v-3h-6v-3h4.5v-3h3V35H32zm9 7.5v-3h-3V38H35v3h1.5v3h3v1.5h3v-3H41zm-28.5-6V35H8v1.5h1.5zm4.5 4.5H17v-1.5h-1.5V38h-6v1.5H11V41h3zm1.5 1.5h-3V44h4.5v1.5H20v-3h-1.5zm34.5-6h-3V38H50v1.5h-4.5V44H50v-1.5h1.5v-3H53V38h1.5v-1.5H53z"/></g></svg>