<svg xmlns="http://www.w3.org/2000/svg" viewBox="0 0 64 64" xmlns:v="https://vecta.io/nano"><path d="M0 0h64v64H0z" fill="none"/><path d="M56 21.5H6.5v21h6v-3H8V32h3v-1.5H8V26h3v4.5h1.5V26h18v10.5h-3v3h9v-3H32v-3h1.5V32H32v-6h19.5v4.5H53V26h3v4.5h-3V32h3v7.5h-4.5v3h6v-21H56zm-37.5 3H8V23h12v1.5h-1.5zm10.5 0h-7.5V23h9v1.5H29zm3 0V23h1.5v1.5H32zm9 0h-6V23h7.5v1.5H41zm15 0H44V23h12v1.5z"/><path d="M24.5 39.5H20v3h7.5v-3H26z"/><path d="M20 36.5h-7.5v3H20V38zm13.5-9h0v3H35V26h-1.5z"/><path d="M33.5 30.5H35V32h-1.5zm7.5 9h-4.5v3H44v-3h-1.5z"/><path d="M51.5 36.5H44v3h7.5V38z"/><g fill="#cab983"><path d="M27.5 30.5V29h-3v1.5H26zm0 3V35H26v3h-3v1.5h4.5v-3h3v-3H29zm-4.5 3V32h-4.5v-1.5H17V29h-1.5v-1.5H14V29h-1.5v1.5H14V32h-1.5v1.5H17v3h1.5V35h3v1.5zM9.5 35H8v4.5h3v-3H9.5zM32 30.5h1.5V32H32zm3 0h1.5V32H35zm16.5 6v3h3v-3H53zm3-7.5H56v1.5h-1.5z"/><path d="M33.5 33.5H32v3h3V32h-1.5zM53 32v-1.5h-3V32h1.5zm-7.5-1.5H44V32h-4.5v1.5h3v3h3V32H47v-3h-1.5zM44 26h-3v3h-1.5v1.5h3v-3H47V26h-1.5zm-12-3h1.5v1.5H32z"/></g><g fill="#66553b"><path d="M29 29v-1.5h-3V29h1.5v1.5h-3V29H23v-1.5h-3V29h-1.5v3H23v1.5h3V32h1.5v1.5h3v-3H29zM8 29v1.5h3V29H9.5zm10.5 6v1.5h3V35H20zm-9-3H8v3h1.5v1.5H11v-3H9.5zm36-3H44v-1.5h-1.5v3h-3V29H41v-3h-4.5v1.5H35V29h3v4.5h1.5V32H44v-1.5h1.5zm3 6h-3v1.5h6V35H50z"/><path d="M53 32v1.5h-1.5V35h3v-1.5H56V32h-1.5zm-7.5 0H47v1.5h-1.5zm-6 4.5H41V38h1.5v-4.5h-3V35zm-3 1.5v1.5h3V38H38z"/><path d="M36.5 35v-1.5H35v3h1.5zm-24-9H14v1.5h-1.5zm39 1.5V26h-3v3H47v3h3v-1.5h1.5V29H50v-1.5zm-24-4.5h-6v1.5h9V23H29zm4.5 0h1.5v1.5H32zm6 1.5h4.5V23H35v1.5h1.5zm-18 0V23H8v1.5h10.5zM54.5 23H44v1.5h12V23z"/></g><g fill="#51774e"><path d="M27.5 26H14v1.5h1.5V29H17v1.5h1.5V29H20v-1.5h3V29h3v-1.5h3v3h1.5V26H29zM11 29v-3H8v3h1.5zm15 4.5h-3v3h-3v3h3V38h3v-3h1.5v-3H26zm-12 0h-1.5V32H14v-1.5h-3V32H9.5v1.5H11v6h1.5v-3H17v-3h-1.5zM47 29h1.5v-3H47v1.5h-3V29h1.5zm-12-3h1.5v1.5H35zm-3 1.5v3h1.5V26H32zm21 6V32h-6v1.5h-1.5V35h6v-1.5z"/><path d="M54.5 26H53v4.5h1.5V29H56v-3zm-12 12H41v-1.5h-1.5v-3H38V29h-3v1.5h1.5V32H35v1.5h1.5V38h3v1.5H44v-3h-1.5zm-30-10.5H14V29h-1.5zm37.5 0h1.5V29H50zm4.5 7.5h-3v1.5h3v3H56v-6h-1.5z"/></g></svg>