<svg xmlns="http://www.w3.org/2000/svg" viewBox="0 0 64 64" xmlns:v="https://vecta.io/nano"><path d="M0 0h64v64H0z" fill="none"/><g fill="#c8c8c8"><path d="M4.5 28.2V27H3.2v2.5h2.6v-1.3z"/><path d="M7 30.8v-1.3H5.8V32h2.4v-1.2z"/><path d="M9.5 32H8.2v2.5h2.6v-1.3H9.5zm45 1.2h-1.3v1.3h2.6V32h-1.3zm5-6.2v1.2h-1.3v1.3h2.6V27z"/><path d="M57 30.8h-1.2V32h2.4v-2.5H57z"/></g><g fill="#2f2f2f"><path d="M15.8 40.8H17V42h-1.2zm31.2 0h1.2V42H47z"/><path d="M17 42h1.2v1.2H17zm28.8 0H47v1.2h-1.2zm-32.6-3.8h1.2v1.2h-1.2z"/><path d="M12 37h1.2v1.2H12z"/><path d="M12 34.5h-1.2V37H12v-1.2zM50.8 37H52v1.2h-1.2z"/><path d="M52 34.5V37h1.2v-2.5zm-2.5 3.7h1.2v1.2h-1.2zm-35 1.3h1.2v1.2h-1.2zm33.7 0h1.2v1.2h-1.2z"/></g><path d="M50.8 34.5H12V37h1.2v1.2h1.3v1.3h1.3v1.3H17V42h1.2v1.2h2.6v1.3h22.4v-1.3h2.6V42H47v-1.2h1.2v-1.3h1.3v-1.3h1.3V37H52v-2.5z"/><path d="M58.2 27h-2.4v-2.5h-5V22h-5v-2.5H18.2V22h-5v2.5h-5V27H4.5v1.2h1.3v1.3H7v1.3h1.2V32h1.3v1.2h45V32h1.3v-1.2H57v-1.3h1.2v-1.3h1.3V27z" fill="#fff"/><path d="M37 24.5v-1.2h-1.2V22h-1.2v-1.2h-5V22h-1.2v1.2H27v1.2h-1.2v5H27v1.2h1.2V32h1.2v1.2h5V32h1.2v-1.2H37v-1.2h1.2v-5H37zm-5-1.3h1.2v1.2h1.2v1.2h1.2v2.6h-1.2v1.2h-1.2v1.2h-2.4v-1.2h-1.2v-1.2h-1.2v-2.4h1.2v-1.2h1.2v-1.2H32z" fill="#0000b9"/><path d="M52 33.2H10.8v1.3h42.4v-1.3z" fill="orange"/></svg>