<svg xmlns="http://www.w3.org/2000/svg" viewBox="0 0 64 64" xmlns:v="https://vecta.io/nano"><path d="M0 0h64v64H0z" fill="none"/><path d="M44.5 36.4h1.2v1.2h-1.2zm0-1.3h1.2v1.2h-1.2z" fill="#ddd9d6"/><path d="M47 32.6h1.2v1.2H47z" fill="#698bd9"/><path d="M47 33.9h1.2v1.2H47z" fill="#e2e5f3"/><path d="M44.5 33.9h1.2v1.2h-1.2z" fill="#45322f"/><path d="M45.8 33.9H47v1.2h-1.2z" fill="#d9c6b2"/><path d="M43.2 37.6h1.2v1.2h-1.2z" fill="#ddd9d6"/><path d="M42 32.6h1.2v1.2H42z" fill="#76946f"/><path d="M43.2 32.6h1.2v1.2h-1.2z" fill="#cad4e4"/><path d="M45.8 38.9H47v1.2h-1.2zm-1.3 0h1.2v1.2h-1.2z" fill="#ddd9d6"/><path d="M32 26.4h-2.5v1.2h1.3v7.5h2.4v-7.5h1.3v-1.2h-1.3zm12.5 11.2h1.2v1.2h-1.2z"/><path d="M43.2 38.9h1.2v1.2h-1.2zm2.6-1.3H47v1.2h-1.2z" fill="#ddd9d6"/><path d="M48.2 33.9h1.2v1.2h-1.2z" fill="#556592"/><path d="M44.5 32.6h1.2v1.2h-1.2z" fill="#5666bc"/><path d="M43.2 33.9h1.2v1.2h-1.2z" fill="#f6d435"/><path d="M42 33.9h1.2v1.2H42z" fill="#e6bf8f"/><path d="M45.8 32.6H47v1.2h-1.2z" fill="#c23e3f"/><path d="M40.8 33.9H42v1.2h-1.2z" fill="#f75457"/><path d="M19.5 36.4h-3.7v1.2H22v-1.2h-1.2zm20-10h1.2v1.2h-1.2zm-16.3 0h1.2v1.2h-1.2zM32 40.1h1.2v1.2H32zm0-2.5h1.2v1.2H32zM9.5 20.1h1.2v1.2H9.5zm43.7 0h1.2v1.2h-1.2z" fill="orange"/><g fill="#fff"><path d="M28.2 33.9H27v-1.2h-1.2v-1.2h-1.2v-1.2H22v-1.2h-1.2v-1.2h-2.4v-1.2h-2.6v-1.2h-1.2v-1.2h-1.2v-2.4H12v20.4h18.6v-6h-1.2v-1.2h-1.2v-1.2zM17 32.6v-1.2h3.6v2.4H17v-1.2zm3.8 8.8h-5v-6H22v6h-1.2zm15-7.5v-1.2H37v-1.2h1.2v-1.2h1.2v-1.2H42v-1.2h1.2v-1.2h2.4v-1.2h2.6v-1.2h1.2v-2.4h-1.2v1.2h-2.4v1.2h-2.4v1.2h-5v1.2h-2.6v2.4h-1.2v1.2h-1.2v4.8h1.2v-1.2h1.2zm5-7.5v1.2h-1.2v-1.2h1.2z"/><path d="M29.5 28.9h-1.2v-2.4h-2.5v-1.2h-5v-1.2h-2.4v-1.2h-2.6v-1.2h-1.2v2.4h1.2v1.2h2.4v1.2h2.4v1.2H22v1.2h2.4v1.2h1.2v1.2H27v1.2h1.2v1.2h1.2v1.2h1.2v-4.8h-1.2v-1.2zm-6.3-1.3v-1.2h1.2v1.2h-1.2zm27.6-5v1.2h-1.2V25h-1.2v1.2h-2.6v1.2h-2.4v1.2H42v1.2h-2.4V31h-1.2v1.2H37v1.2h-1.2v1.2h-1.2v1.2H32V37h1.2v1.2H32v1.2h1.2v1.2H32v1.2h20V21.4h-1.2v1.2zm-6.3 7.5H47v1.2h-3.6v-1.2h1.1zm3.7 11.3h-7.4v-7.2H42V33h6.2v1.2h1.2v7.2h-1.2zm-40-20v7.5h1.3v-1.3h1.3v-6.2H9.5zm46.3 0h-1.3v6.2h1.3v1.3h1.3v-7.5z"/></g><g fill="#c8c8c8"><path d="M14.5 23.9h1.2v1.2h-1.2zm2.5 2.5h1.2v-1.3h-2.4v1.3z"/><path d="M19.5 27.6h1.3v-1.2h-2.6v1.2zm0-3.7h1.3v-1.3h-2.6v1.3z"/><path d="M23.2 30.1h1.3v-1.2H22v1.2zm-1.2-5h3.8v-1.2h-5v1.2zm-3.8 11.3H22v-1.3h-6.2v1.3H17zm8.8-3.8h1.2v1.2H27zm-6.2-5H22v1.2h-1.2zm27.4-1.2v-1.3h-2.4v1.3H47z"/><path d="M45.8 27.6v-1.2h-2.6v1.2h1.3zm0 3.8H47v-1.3h-3.8v1.3h1.3z"/><path d="M43.2 22.6v1.3h2.6v-1.3h-1.3zm-1.2 5h1.2v1.2H42zm-6.2 5H37v1.2h-1.2zm6.2-2.5v-1.2h-2.5v1.2h1.3zm-6.2-5h-1.3v2.5h-1.3v2.5h1.3v-1.2h1.3v-2.5h2.4v-1.3H37zM27 26.4h1.2v2.5h1.3v1.2h1.3v-2.5h-1.3v-2.5h-3.7v1.3zm7.5 7.5h1.2v1.2h-1.2zm-6.3 0h1.2v1.2h-1.2z"/><path d="M40.8 23.9h-2.6v1.2h5v-1.2H42zm5-2.5v1.2h2.4v-1.2H47zm-7.6 8.7h1.2v1.2h-1.2zM17 22.6h1.2v-1.2h-2.4v1.2zm7.5 7.5h1.2v1.2h-1.2zm-6.3 11.3H22v-3.8h-6.2v3.8H17zm25 0h6.3v-6.3h-3.7v2.5H47v2.5h-3.8v-2.5h1.3v-2.5h-3.7v6.3H42zm5-17.5h1.2v1.2h-1.2zm-22.4 7.5H27v1.2h-1.2zm-6.3 2.5h1.3v-2.5H17v2.5h1.2zM37 31.4h1.2v1.2H37zM8.2 20.1h1.2v1.2H8.2zm0 7.5v-6.2H7v8.7h2.5v-1.2H8.2z"/><path d="M53.2 27.6v-7.5h1.3v-1.2h1.3v-1.3h-2.6v1.3h-2.4v1.2h-2.6v1.3h1.3v2.5h1.3v-2.5H52v21.2H32v-6.2h2.5v-1.3h-5v1.3h1.3v6.2H12V21.4h1.2v2.5h1.3v-2.5h1.3v-1.3h-2.6v-1.2h-2.4v-1.3H8.2v1.3h1.3v1.2h1.3v7.5H9.5v1.3h1.3v17.5h5v-2.5H22v2.5h6.2v-2.5h7.6v2.5H42v-2.5h6.2v2.5h5V28.9h1.3v-1.3z"/><path d="M54.5 20.1h1.2v1.2h-1.2zm1.3 1.3v7.5h-1.3v1.2H57v-8.7z"/></g></svg>