<svg xmlns="http://www.w3.org/2000/svg" viewBox="0 0 64 64" xmlns:v="https://vecta.io/nano"><path d="M0 0h64v64H0z" fill="none"/><g fill="#b8d2a2"><path d="M35 31h2v2h-2z"/><path d="M33 29h2v2h-2z"/></g><path d="M35 33v-2h-2v-2h-6v2h-2v2h4v2h2v2h2v2h4v-6z" fill="#689f38"/><path d="M33 39v-2h-2v-2h-2v-2h-4v6h2v2h8v-2z" fill="#558b2f"/><g fill="#33691e"><path d="M35 29h2v2h-2z"/><path d="M37 31v8h2v-8zm-12-2h2v2h-2z"/><path d="M25 35v-4h-2v8h2v-2z"/><path d="M25 39h2v2h-2z"/><path d="M31 41h-4v2h8v-2h-2z"/><path d="M35 39h2v2h-2zm-4-10h4v-2h-8v2h2z"/></g><path d="M31 23h2v2h-2z" fill="#cacaca"/><path d="M29 23h2v2h-2z" fill="#9e9e9e"/><path d="M39 25v-2h-2v-2h-8v2h4v2h4v2h2v2h2v-4z"/><path d="M29 25v2h4v-2h-2z"/><path d="M27 23h2v2h-2z"/></svg>