<svg xmlns="http://www.w3.org/2000/svg" viewBox="0 0 64 64" xmlns:v="https://vecta.io/nano"><g fill="none"><path d="M0 0h64v64H0z"/><path d="M45.8 28.9H47v1.2h-1.2zm-2.6 0h1.2v1.2h-1.2z"/></g><path d="M42 35.1h1.2v1.2H42z" fill="#e15667"/><path d="M40.8 35.1H42v1.2h-1.2z" fill="#fed11f"/><path d="M44.5 35.1h1.2v1.2h-1.2z" fill="#4b6329"/><path d="M47 35.1h1.2v1.2H47z" fill="#f55549"/><path d="M47 32.6h1.2v1.2H47z" fill="#698bd9"/><path d="M47 33.9h1.2v1.2H47z" fill="#e2e5f3"/><path d="M44.5 33.9h1.2v1.2h-1.2z" fill="#45322f"/><path d="M43.2 35.1h1.2v1.2h-1.2z" fill="#474981"/><path d="M45.8 35.1H47v1.2h-1.2z" fill="#756638"/><path d="M33.2 26.4h-3.7v1.2h1.3v2.5h2.4v-2.5h1.3v-1.2z" fill="#222423"/><path d="M45.8 33.9H47v1.2h-1.2z" fill="#d9c6b2"/><g fill="#c2cbc7"><path d="M35.8 25.1h-1.3v2.5h-1.3v2.5h1.3v-1.2h1.3v-2.5h2.4v-1.3H37z"/><path d="M39.5 23.9h-1.3v1.2h2.6v-1.2zm-15 0h-1.3v1.2h2.6v-1.2z"/><path d="M29.5 26.4v-1.3h-3.7v1.3h2.4v2.5h1.3v1.2h1.3v-2.5h-1.3z"/></g><path d="M42 32.6h1.2v1.2H42z" fill="#76946f"/><path d="M43.2 32.6h1.2v1.2h-1.2z" fill="#cad4e4"/><path d="M44.5 37.6h1.2v1.2h-1.2z" fill="#fafefd"/><path d="M48.2 33.9h1.2v1.2h-1.2z" fill="#556592"/><path d="M48.2 35.1h1.2v1.2h-1.2z" fill="#4770bb"/><g fill="#6f4017"><path d="M18.2 26.4h1.2v1.2h-1.2zm1.3 1.2v1.3h1.3v3.7H22v-5h-1.2zm-1.3 6.3h1.2v1.2h-1.2zm28.8-5h1.2v1.2H47z"/><path d="M44.5 28.9h1.2v1.2h-1.2zm-2.5 0h1.2v1.2H42zm-25 1.2v-1.2h1.2v-1.3h-2.4v5H17v-1.2zm2.5 2.5h1.2v1.2h-1.2z"/><path d="M17 32.6h1.2v1.2H17z"/></g><path d="M44.5 32.6h1.2v1.2h-1.2z" fill="#5666bc"/><path d="M43.2 33.9h1.2v1.2h-1.2z" fill="#f6d435"/><path d="M42 33.9h1.2v1.2H42z" fill="#e6bf8f"/><path d="M19.5 36.4h-3.7v1.2H22v-1.2h-1.2zm3.7-10h1.2v1.2h-1.2zm22.6 6.2H47v1.2h-1.2z" fill="#c23e3f"/><path d="M40.8 33.9H42v1.2h-1.2z" fill="#f75457"/><g fill="#f8af4e"><path d="M19.5 27.6h-1.3v1.3H17v3.7h1.2v1.3h1.3v-1.3h1.3v-3.7h-1.3zm26.3 2.5H42v1.3h6.2v-1.3H47zm-1.3-1.2h3.7v-1.3H42v1.3h1.2z"/><path d="M40.8 28.9H42v1.2h-1.2zm-1.3-2.5h1.2v1.2h-1.2zM32 40.1h1.2v1.2H32zm0-2.5h1.2v1.2H32zm16.2-8.7h1.2v1.2h-1.2zM9.5 20.1h1.2v1.2H9.5z"/></g><g fill="#ddd9d6"><path d="M44.5 36.4h1.2v1.2h-1.2z"/><path d="M45.8 38.9h-1.3v-1.3h-1.3v2.5H47v-2.5h-1.2zm7.4-18.8h1.2v1.2h-1.2z"/></g><g fill="#283d2e"><path d="M28.2 33.9H27v-1.3h-1.2v-1.2h-1.3v-1.3H22v2.5h-1.2v1.3h-1.3v1.2H22v6.3h-6.2v-6.3h2.4v-1.2H17v-1.3h-1.2v-5h2.4v-1.2h-2.4v-1.3h-2.6v-3.7H12v21.2h18.8v-6.2h-1.3v-1.3h-1.3z"/><path d="M29.5 28.9h-1.2v-2.4h-2.5v-1.2h-2.4v-1.2h-2.6v-1.2h-2.4v-1.2h-2.6v-1.2h-2.4v1.2h1.2v2.4h1.2v1.2h2.4v1.2h1.2v1.2H22v1.2h2.4v1.2h1.2v1.2H27v1.2h1.2v1.2h1.2v1.2h1.2v-4.8h-1.2v-1.2zm-6.3-1.3v-1.2h1.2v1.2h-1.2zM12 18.9h1.2v1.2H12zm36.2 1.2v1.2h-2.4v1.2h-2.4v1.2h-2.6v1.2h-2.4v1.2h-2.6v2.4h-1.2v1.2H32v6h1.2v-1.2h1.2v-1.2h1.2v-1.2H37v-1.2h1.2v-1.2h2.4v-1.2H42v-1.2h1.2v-1.2h2.4v-1.2h2.6v-1.2h1.2v-2.4h1.2v-1.2h-2.4zm-8.7 7.5v-1.2h1.2v1.2h-1.2zm11.3-8.7H52v1.2h-1.2zm0 5v1.2h-2.4v1.2h-2.6v1.2h2.4v1.2h1.2v1.2h-1.2v1.2H42v-1.2h-1.2v1.2h-2.4v1.2H37v1.2h-1.2v1.2h-1.2v1.2h-1.2v2.4H32v1.2h1.2v1.2H32v1.2h20V21.5h-1.2v2.4zm-2.6 17.5h-7.4v-7.2H42V33h6.2v1.2h1.2v7.2h-1.2zm-40-20v7.5h1.3v-1.3h1.3v-6.2H9.5zm46.3 0h-1.3v6.2h1.3v1.3h1.3v-7.5z"/></g><g fill="#092c1b"><path d="M17 26.4h1.2v-1.3h-2.4v1.3zm0 8.7h-1.2v1.3H22v-1.3h-3.8zm10-2.5h1.2v1.2H27zm-3.8-3.7H22v1.2h2.5v-1.2zm-3.7 8.7h-3.7v3.8H22v-3.8h-1.2zm26.3-12.5v1.3h2.4v-1.3H47z"/><path d="M43.2 26.4v1.2h2.6v-1.2h-1.3zm-2.4 5v-1.3h-2.6v1.3h1.3zm0 6.2v3.8h8.7v-5h-3.7v1.2H47v2.5h-3.8v-2.5h1.3v-1.2h-3.7zm-5-5H37v1.2h-1.2zm-2.6 2.5h1.2v1.2h-1.2zm1.3-1.2h1.2v1.2h-1.2zm-6.3 0h1.2v1.2h-1.2zm21.3-11.3v1.3h-1.3v1.2h2.6v-3.7h-1.3z"/><path d="M24.5 30.1h1.2v1.2h-1.2zm-11.3-6.2v1.2h2.6v-1.2h-1.3v-2.5h-1.3v1.2zm12.6 7.5H27v1.2h-1.2zm11.2 0h1.2v1.2H37zM8.2 20.1h1.2v1.2H8.2zm0 7.5v-6.2H7v8.7h2.5v-1.2H8.2z"/><path d="M53.2 27.6v-7.5h1.3v-1.2h1.3v-1.3h-2.6v1.3H52v1.2h-1.2v1.3H52v21.2H32v-5h1.2v-1.2H32v-6.3h-1.2v5h-1.3v1.3h1.3v6.2H12V21.4h1.2v-1.3H12v-1.2h-1.2v-1.3H8.2v1.3h1.3v1.2h1.3v7.5H9.5v1.3h1.3v17.5h5v-2.5H22v2.5h6.2v-2.5h7.6v2.5H42v-2.5h6.2v2.5h5V28.9h1.3v-1.3z"/><path d="M54.5 20.1h1.2v1.2h-1.2zm1.3 1.3v7.5h-1.3v1.2H57v-8.7z"/></g></svg>