<svg xmlns="http://www.w3.org/2000/svg" viewBox="0 0 64 64" xmlns:v="https://vecta.io/nano"><path d="M0 0h64v64H0z" fill="none"/><g fill="#092c1b"><path d="M26.4 28.9v2.5h2.5v-2.5h-1.3z"/><path d="M23.9 31.4v2.5h2.5v-2.5h-1.3zm-2.5 5h-2.5v2.5h2.5v-1.3z"/><path d="M21.4 33.9v2.5h2.5v-2.5h-1.3zm30 3.7v1.3h2.5v-1.3h-1.3zM17.6 21.4h1.3v-1.3h-2.5v2.5h1.2z"/><path d="M15.1 23.9h1.3v-1.3h-2.5v2.5h1.2z"/><path d="M12.6 26.4h1.3v-1.3h-2.5v2.5h1.2z"/><path d="M11.4 28.9v-1.3h-1.3v2.5h1.3z"/><path d="M10.1 31.4v-1.3H8.9v2.5h1.2zm-1.2 15v1.2h1.2v1.3h1.3v-2.5h-1.3z"/><path d="M8.9 43.9V32.6H7.6v13.8h1.3v-1.3zm2.5 0v2.5h2.5v-2.5h-1.3z"/><path d="M13.9 41.4v2.5h2.5v-2.5h-1.3z"/><path d="M16.4 38.9v2.5h2.5v-2.5h-1.3zm17.5-17.5v2.5h2.5v-2.5h-1.3zm16.2-1.3h1.2v1.2h-1.2zm-30-1.2h1.3v-1.3h-2.5v2.5h1.2z"/><path d="M36.4 18.9v2.5h2.5v-2.5h-1.3zm-12.5-1.3v-1.2h-2.5v1.2h1.2z"/><path d="M26.4 16.4h12.5v2.5h2.5v-2.5h3.7v-1.3H23.9v1.3h1.2z"/><path d="M46.4 17.6h1.2v-1.2h-2.5v1.2z"/><path d="M47.6 17.6h1.2v1.2h-1.2zm1.3 1.3h1.2v1.2h-1.2zm2.5 2.5h1.2v1.2h-1.2zm2.5 13.7v2.5h1.2v-3.7h-1.2z"/><path d="M55.1 27.6v6.3h1.3v-6.3zm-23.7-3.7v2.5h2.5v-2.5h-1.3z"/><path d="M52.6 22.6h1.2v1.2h-1.2zm1.3 3.8v1.2h1.2v-3.7h-1.2v1.2zm-25 0v2.5h2.5v-2.5h-1.3z"/></g><g fill="#283d2e"><path d="M21.4 33.9h2.5v-2.5h2.5v-2.5h2.5v-2.5h2.5v-2.5h2.5v-2.5h2.5v-2.5h2.5v-2.5h-15v1.2h-2.5v1.3h-1.3v1.2h-1.2v1.3h-1.3v1.2h-1.2v1.3h-1.3v1.2h-1.2v1.3h-1.3v1.2h-1.2v2.5h-1.3v2.5H8.9v13.8h2.5v-2.5h2.5v-2.5h2.5v-2.5h2.5v-2.5h2.5v-1.3z"/><path d="M53.9 27.6v-3.7h-1.3v-1.3h-1.2v-1.2h-1.3v-1.3h-1.2v-1.2h-1.3v-1.3h-2.5v-1.2h-3.7v2.5h-2.5v2.5h-2.5v2.5h-2.5v2.5h-2.5v2.5h-2.5v2.5h-2.5v2.5h-2.5v2.5h-2.5v2.5h7.5v1.2h7.5v-1.2h15v-1.3h2.5v-3.7h1.2v-6.3z"/></g><path d="M48.9 26.4v-1.2h-1.2V24h-1.2v-1.2h-4.8V24h-1.2v1.2h-1.2v1.2h-1.2v4.8h1.2v1.2h1.2v1.2h1.2v1.2h4.8v-1.2h1.2v-1.2h1.2v-1.2h1.2v-4.8h-1.2zm-5-1.3h1.2v1.2h1.2v1.2h1.2v2.4h-1.2v1.2h-1.2v1.2h-2.4v-1.2h-1.2v-1.2h-1.2v-2.4h1.2v-1.2h1.2v-1.2h1.2z" fill="#f8af4e"/><path d="M48.9 38.9H21.4v1.2h30v-1.2h-1.3z" fill="#092c1b"/></svg>