<svg xmlns="http://www.w3.org/2000/svg" viewBox="0 0 64 64" xmlns:v="https://vecta.io/nano"><path d="M0 0h64v64H0z" fill="none"/><path d="M30 23h2v2h-2z" fill="#757575"/><path d="M34 33v-2h-2v-4h-2v4h-4v2h4v2h-4v2h4v2h2v-2h2v-2h-2v-2z" fill="#558b2f"/><path d="M30 29v-2h-2v4h2zm0 6v-2h-4v2h2zm0 2h-2v4h4v-2h-2zm2-4h2v2h-2z" fill="#689f38"/><g fill="#33691e"><path d="M32 27v-2h-4v2h2zm-4 14v2h4v-2h-2z"/><path d="M32 31h2v-4h-2v2zm-4-2v-2h-2v4h2zm4 10v2h2v-4h-2zm-4-2h-2v4h2v-2z"/><path d="M26 33v-2h-2v6h2v-2zm8-2v6h2v-6z"/></g><path d="M38 27v-2h-2v-2h-2v-2h-8v2h2v2h2v-2h2v2h2v2h2v2h2v6h2v-8z"/></svg>