<svg xmlns="http://www.w3.org/2000/svg" viewBox="0 0 64 64" xmlns:v="https://vecta.io/nano"><path d="M0 0h64v64H0z" fill="#fff"/><path d="M35 37v-2h-2v-2h-2v-2h-6v2h4v2h2v2h2v2h4v-2z" fill="#737373"/><path d="M33 39v-2h-2v-2h-2v-2h-4v2h2v2h2v2h2v2h4v-2z" fill="#5e5e5e"/><path d="M29 39v-2h-2v-2h-2v4h2v2h4v-2z" fill="#3b3b3b"/><g fill="#cacaca"><path d="M35 31h2v2h-2z"/><path d="M33 29h2v2h-2zm-2-6h2v2h-2z"/></g><path d="M35 33v-2h-2v-2h-6v2h4v2h2v2h2v2h2v-4zm-6-10h2v2h-2z" fill="#9e9e9e"/><path d="M39 25v-2h-2v-2h-8v2h4v2h4v2h2v2h2v-4z"/><path d="M29 25v2h-2v2h8v-2h-2v-2h-2z"/><path d="M35 29h2v2h-2z"/><path d="M37 35v4h2v-8h-2v2zm-12-6h2v2h-2z"/><path d="M25 35v-4h-2v8h2v-2z"/><path d="M25 39h2v2h-2z"/><path d="M31 41h-4v2h8v-2h-2z"/><path d="M35 39h2v2h-2zm-8-16h2v2h-2z"/></svg>