<svg xmlns="http://www.w3.org/2000/svg" viewBox="0 0 64 64" xmlns:v="https://vecta.io/nano"><path d="M0 0h64v64H0z" fill="none"/><g fill="#773e1d"><path d="M32 49.1h2.8v-1.4h-5.7v1.4h1.5z"/><path d="M54.8 19.2h-1.4v-2.8h-2.8v-2.8H45v-2.8h-5.8v-3H25v2.8h-5.8v2.8h-5.6v2.8h-2.8V19h-3v27.2h2.8v1.4h2.8V49h4.2v1.4h2.8V52h4.4v1.4H29v1.4h1.4v1.4h3v-1.4h1.4v-1.4H39V52h4.4v-1.4h4.2v-1.4h2.8v-1.4h3v-1.4h2.8V19.2h-1.4zM32 50.5h-2.8v-1.4h-1.4v-1.4h1.4v-1.4h5.6v1.4h1.4v1.4h-1.4v1.4H32zm18.5-7.1h-4.2v1.4h-2.8v1.4h-4.3v-1.4h-1.4v-1.4h-1.4V42h-8.6v1.4h-1.4v1.4H25v1.4h-4.4v-1.4h-2.8v-1.4h-5.6V25h1.4v-4.4H15v-1.4h4.2v-1.4h5.6v1.4H29v1.4h5.8v-1.4H39v-1.4h5.8v1.4H49v1.4h1.4v4.2H52v18.6h-1.5z"/></g><g fill="#fff"><path d="M32 47.7h2.8v-1.5h-5.7v1.5h1.5zm0 1.4h-2.9v1.4h5.7v-1.4h-1.4z"/><path d="M34.8 47.7h1.4v1.4h-1.4zm-7.1 0h1.4v1.4h-1.4z"/></g></svg>