<svg xmlns="http://www.w3.org/2000/svg" viewBox="0 0 64 64" xmlns:v="https://vecta.io/nano"><path d="M0 0h64v64H0z" fill="none"/><path d="M30.8 29.5H32v1.2h-1.2zm0 5H32v1.2h-1.2zm16.2-5h-2.5v1.3h3.7v-1.3zM19.5 32h1.2v1.2h-1.2zm11.3 7.5H32v1.2h-1.2z" fill="#0ff"/><g fill="#e9eef2"><path d="M15.8 23.2v1.3H17V22h-1.2zm0 2.6H17V27h-1.2zm8.7 10V37H27v-1.2h-1.2zm-2.5 0h1.2V37H22zm6.2 0h1.2V37h-1.2zm-12.4 0H17V37h-1.2zm0-2.6v1.3H17V32h-1.2zm31.2-10v1.3h1.2V22H47zm0 2.6h1.2V27H47zM43.2 22H42v1.2h-3.8v1.3h-2.4v1.3H37V27h1.2v1.2h1.3V27h1.3v-1.2h2.4v-1.3h1.3v-1.3h1.3V22h-1.3zm-25-1.2h1.2V22h-1.2zm28.8 15h1.2V37H47zm-10 0V37h2.5v-1.2h-1.3zm-2.5 0h1.2V37h-1.2zm6.3 0H42V37h-1.2zM37 32v2.5h2.5V32h-1.3zm-2.5-6.2h1.2V27h-1.2zM27 24.5h-1.2v-1.3H22V22h-2.5v1.2h1.3v1.3H22v1.3h1.2V27h1.3v1.2h1.3V27H27v-1.2h1.2v-1.3z"/><path d="M28.2 25.8h1.2V27h-1.2zm6.3 7.4v1.3h1.3V32h-1.3zm-6.3 0v1.3h1.3V32h-1.3zM12 32v2.5h2.5V32h-1.3zm0 8.8v2.4h2.5v-2.4h-1.3zM12 22v2.5h2.5V22h-1.3zm0 13.8V37h2.5v-1.2h-1.3zm0-10V27h2.5v-1.2h-1.3zm33.8-5H47V22h-1.2zm-5 12.4v1.3H42V32h-1.2zm-18.8 0v1.3h1.2V32H22zm2.5 7.6v2.4H27v-2.4h-1.2zM22 42v1.2h1.2v-2.4H22zm27.5-6.2V37H52v-1.2h-1.2zm0 5v2.4H52v-2.4h-1.2zm-12.5 0v2.4h2.5v-2.4h-1.3zm3.8 1.2v1.2H42v-2.4h-1.2zm8.7-20v2.5H52V22h-1.2zm0 10v2.5H52V32h-1.2zm0-6.2V27H52v-1.2h-1.2zm-25 6.2v2.5H27V32h-1.2zm-15-6.2h1.2V27H9.5zm0-2.6v1.3h1.3V22H9.5zm43.7 2.6h1.2V27h-1.2zm0-3.8v2.5h1.3V22z"/></g><path d="M29.5 27H27v3.6h-2.4v-2.4h-1.2v2.4H22v-2.4h1.2V27H22v-1.2h-1.2v14.8H22v-2.4h1.2v5h1.2v-4.8H27v4.8h1.2v-4.8h1.2v2.4h1.2v-15h-1.2V27zm-3.7 5H27v2.4h-2.4V32h1.2zM22 33.2V32h1.2v2.4H22v-1.2zm0 3.8v-1.2h1.2V37H22zm3.8 0h-1.2v-1.2H27V37h-1.2zm3.7 0h-1.2v-1.2h1.2V37zm0-3.8v1.2h-1.2V32h1.2v1.2zm0-3.7v1.2h-1.2v-2.4h1.2v1.2zM42 27h-1.2v1.2H42v2.4h-1.2v-2.4h-1.2v2.4H37V27h-2.4v-1.2h-1.2v14.8h1.2v-2.4h1.2v5H37v-4.8h2.4v4.8h1.2v-4.8H42v2.4h1.2v-15H42V27zm-3.8 5h1.2v2.4H37V32h1.2zm-3.7-2.5v-1.2h1.2v2.4h-1.2v-1.2zm0 3.7V32h1.2v2.4h-1.2v-1.2zm0 3.8v-1.2h1.2V37h-1.2zm3.7 0H37v-1.2h2.4V37h-1.2zm3.8 0h-1.2v-1.2H42V37zm0-3.8v1.2h-1.2V32H42v1.2zM15.8 20.8v-1.2h-1.2v1.2H12v-2.4h-1.2v2.4H8.2v7.4h1.2v-2.4h1.2v2.4h3.8v2.4H12V32h2.4v2.4H12v1.2h2.4V37H12v1.2h2.4v5h1.2v-4.8H17v2.4h1.2v-20h-2.4zM13.2 22h1.2v2.4H12V22h1.2zm-3.7 2.5V22h1.2v2.4H9.5zm3.7 2.5H12v-1.2h2.4V27h-1.2zM17 37h-1.2v-1.2H17V37zm0-3.8v1.2h-1.2V32H17v1.2zm0-3.7v1.2h-1.2v-2.4H17v1.2zm0-2.5h-1.2v-1.2H17V27zm0-3.8v1.2h-1.2V22H17v1.2zm37.5-2.4h-1.2v-2.4H52v2.4h-2.4v-1.2h-1.2v1.2H47V22h1.2v2.4H47V22h-1.2v7.4H47v-1.2h1.2v6.2H47v-3.6h-1.2v9.8H47v-2.4h1.2v5h1.2v-4.8H52V37h-2.4v-1.2H52v-1.2h-2.4V32H52v-1.2h-2.4v-2.4h3.6v-2.6h1.2v2.4h1.2v-7.4h-1.1zM48.2 37H47v-1.2h1.2V37zm1.3-13.8V22H52v2.4h-2.4v-1.2zM47 27v-1.2h1.2V27H47zm5 0h-2.4v-1.2H52V27zm2.5-3.8v1.2h-1.2V22h1.2v1.2z" fill="red"/><g fill="#640000"><path d="M14.5 20.8v-1.3h-1.3v-1.3H12v2.6h1.2zm37.5 0v-2.6h-1.2v1.3h-1.3v1.3h1.3zm-3.8 12.4v-2.4H47v3.7h1.2zM10.8 20.8v-2.6H9.5v1.3H8.2v1.3h1.3zM22 29.5v1.3h1.2v-2.6H22zm1.2 10v-1.3H22v2.6h1.2zm1.3-1.3v2.6H27v-2.6h-1.2zM27 25.8h1.2V27H27z"/><path d="M23.2 27h1.2v1.2h-1.2zM47 28.2h1.2v1.2H47zm-5 10h-1.2v2.6H42v-1.3zm-5 0v2.6h2.5v-2.6h-1.3zm3.8-7.4H42v-2.6h-1.2v1.3zm-5-5H37V27h-1.2zm3.7 1.2h1.2v1.2h-1.2zm-3.7 2.5v-1.3h-1.3v2.6h1.3zm-1.3-5h1.2v1.2h-1.2zm-6.3 0h1.2v1.2h-1.2zm0 5v1.3h1.3v-2.6h-1.3zm-15 13.7H12v-2.4h2.5v-2.6H12v-7.4h2.5v-2.6h-3.7v17.6h5v-2.6h-1.3z"/><path d="M22 40.8h-1.2v-7.6h-1.3V32h1.3v-6.2H22v-1.3h-1.2v-1.3h-1.3V22h-1.3v18.8H17v-2.6h-1.2v5H22V42z"/><path d="M25.8 43.2H22v2.6h6.2v-2.6H27zm25-15h-1.3v2.6H52v7.4h-2.5v2.6H52v2.4h-3.8v2.6h5V28.2H52z"/><path d="M48.2 40.8v-2.6H47v2.6h-1.2v-10h-1.3v-1.3h1.3v-6.3h-1.3v1.3h-1.3v16.3H42v2.4h6.2V42zm-12.4 0v-2.6h-1.3v2.6h-1.3V27h-2.4v2.5H32v1.3h-1.2v3.7H32v1.3h-1.2v3.7H32v1.3h-2.5v-2.6h-1.3v5h7.6V42z"/><path d="M39.5 43.2h-3.7v2.6H42v-2.6h-1.2zm1.3-17.4H42V27h-1.2zM17 29.5v-1.3h-1.2v2.6H17zm5-3.7h1.2V27H22zm2.5 5H27V27h-1.2v1.2h-1.3v1.3zM37 29.5v1.3h2.5v-2.6h-1.3V27H37v1.2zM9.5 27h1.2v1.2H9.5z"/><path d="M8.2 27v-6.2H7v8.7h2.5v-1.3H8.2zm45 0h1.2v1.2h-1.2zm1.3-7.5v-1.3h-1.3v2.6h2.6v-1.3z"/><path d="M55.8 20.8v7.4h-1.3v1.3H57v-8.7z"/></g></svg>