<?xml version="1.0" encoding="utf-8"?>
<!-- Generator: Adobe Illustrator 25.0.0, SVG Export Plug-In . SVG Version: 6.00 Build 0)  -->
<svg version="1.1" id="Layer_2_1_" xmlns="http://www.w3.org/2000/svg" xmlns:xlink="http://www.w3.org/1999/xlink" x="0px" y="0px"
	 viewBox="0 0 64 64" style="enable-background:new 0 0 64 64;" xml:space="preserve">
<style type="text/css">
	.st0{fill:none;}
	.st1{fill:#00A5FF;}
	.st2{fill:#0000B9;}
</style>
<rect y="0" class="st0" width="64" height="64"/>
<g id="Sergey_Link_Eyes">
	<g>
		<g>
			<polygon class="st1" points="39,24 39,25 39,26 38,26 38,25 38,24 39,24 39,23 38,23 37,23 37,24 36,24 36,25 36,26 36,27 37,27 
				37,28 38,28 39,28 39,27 40,27 40,26 40,25 40,24 			"/>
			<polygon class="st1" points="27,25 27,26 26,26 26,25 26,24 27,24 27,23 26,23 25,23 25,24 24,24 24,25 24,26 24,27 25,27 25,28 
				26,28 27,28 27,27 28,27 28,26 28,25 28,24 27,24 			"/>
		</g>
		<g>
			<rect x="35" y="23" class="st2" width="1" height="1"/>
			<polygon class="st2" points="35,26 35,25 35,24 34,24 34,25 34,26 34,27 34,28 35,28 35,27 			"/>
			<rect x="35" y="28" class="st2" width="1" height="1"/>
			<rect x="40" y="23" class="st2" width="1" height="1"/>
			<polygon class="st2" points="41,24 41,25 41,26 41,27 41,28 42,28 42,27 42,26 42,25 42,24 			"/>
			<polygon class="st2" points="38,23 39,23 40,23 40,22 39,22 38,22 37,22 36,22 36,23 37,23 			"/>
			<polygon class="st2" points="38,29 37,29 36,29 36,30 37,30 38,30 39,30 40,30 40,29 39,29 			"/>
			<rect x="40" y="28" class="st2" width="1" height="1"/>
			<rect x="23" y="23" class="st2" width="1" height="1"/>
			<polygon class="st2" points="23,26 23,25 23,24 22,24 22,25 22,26 22,27 22,28 23,28 23,27 			"/>
			<rect x="23" y="28" class="st2" width="1" height="1"/>
			<rect x="28" y="23" class="st2" width="1" height="1"/>
			<polygon class="st2" points="29,25 29,26 29,27 29,28 30,28 30,27 30,26 30,25 30,24 29,24 			"/>
			<polygon class="st2" points="26,23 27,23 28,23 28,22 27,22 26,22 25,22 24,22 24,23 25,23 			"/>
			<polygon class="st2" points="26,29 25,29 24,29 24,30 25,30 26,30 27,30 28,30 28,29 27,29 			"/>
			<rect x="28" y="28" class="st2" width="1" height="1"/>
		</g>
	</g>
</g>
</svg>
